G04 #@! TF.GenerationSoftware,KiCad,Pcbnew,(5.0.0-rc2-dev-444-g2974a2c10)*
G04 #@! TF.CreationDate,2019-11-26T19:34:52-08:00*
G04 #@! TF.ProjectId,StemmaWing_Backpack,5374656D6D6157696E675F4261636B70,v02*
G04 #@! TF.SameCoordinates,Original*
G04 #@! TF.FileFunction,Legend,Top*
G04 #@! TF.FilePolarity,Positive*
%FSLAX46Y46*%
G04 Gerber Fmt 4.6, Leading zero omitted, Abs format (unit mm)*
G04 Created by KiCad (PCBNEW (5.0.0-rc2-dev-444-g2974a2c10)) date 11/26/19 19:34:52*
%MOMM*%
%LPD*%
G01*
G04 APERTURE LIST*
%ADD10C,0.150000*%
%ADD11C,0.120000*%
%ADD12C,0.100000*%
G04 APERTURE END LIST*
D10*
G36*
X137160000Y-95377000D02*
X137541000Y-95377000D01*
X137541000Y-95758000D01*
X137160000Y-95758000D01*
X137160000Y-95377000D01*
G37*
X137160000Y-95377000D02*
X137541000Y-95377000D01*
X137541000Y-95758000D01*
X137160000Y-95758000D01*
X137160000Y-95377000D01*
D11*
X111112500Y-98250000D02*
X111112500Y-97750000D01*
X111112500Y-98250000D02*
X111112500Y-98250000D01*
X111112500Y-97750000D02*
X111112500Y-98250000D01*
X111112500Y-97750000D02*
X111112500Y-97750000D01*
X111812500Y-98250000D02*
X111812500Y-97750000D01*
X111812500Y-98250000D02*
X111812500Y-98250000D01*
X111812500Y-97750000D02*
X111812500Y-98250000D01*
X111812500Y-97750000D02*
X111812500Y-97750000D01*
X112312500Y-97750000D02*
X112312500Y-97750000D01*
X111112500Y-97750000D02*
X112312500Y-97750000D01*
X111112500Y-97750000D02*
X111112500Y-97750000D01*
X112312500Y-97750000D02*
X111112500Y-97750000D01*
X112312500Y-98250000D02*
X112312500Y-97350000D01*
X109962500Y-98250000D02*
X112312500Y-98250000D01*
X111112500Y-92250000D02*
X111112500Y-92750000D01*
X111112500Y-92250000D02*
X111112500Y-92250000D01*
X111112500Y-92750000D02*
X111112500Y-92250000D01*
X111112500Y-92750000D02*
X111112500Y-92750000D01*
X111812500Y-92250000D02*
X111812500Y-92750000D01*
X111812500Y-92250000D02*
X111812500Y-92250000D01*
X111812500Y-92750000D02*
X111812500Y-92250000D01*
X111812500Y-92750000D02*
X111812500Y-92750000D01*
X112312500Y-92750000D02*
X112312500Y-92750000D01*
X111112500Y-92750000D02*
X112312500Y-92750000D01*
X111112500Y-92750000D02*
X111112500Y-92750000D01*
X112312500Y-92750000D02*
X111112500Y-92750000D01*
X112312500Y-92250000D02*
X112312500Y-93150000D01*
X109962500Y-92250000D02*
X112312500Y-92250000D01*
X108062500Y-93350000D02*
X108062500Y-97150000D01*
X113137500Y-92750000D02*
G75*
G03X113137500Y-92750000I-250000J0D01*
G01*
X154587500Y-92250000D02*
X154587500Y-92750000D01*
X154587500Y-92250000D02*
X154587500Y-92250000D01*
X154587500Y-92750000D02*
X154587500Y-92250000D01*
X154587500Y-92750000D02*
X154587500Y-92750000D01*
X153887500Y-92250000D02*
X153887500Y-92750000D01*
X153887500Y-92250000D02*
X153887500Y-92250000D01*
X153887500Y-92750000D02*
X153887500Y-92250000D01*
X153887500Y-92750000D02*
X153887500Y-92750000D01*
X153387500Y-92750000D02*
X153387500Y-92750000D01*
X154587500Y-92750000D02*
X153387500Y-92750000D01*
X154587500Y-92750000D02*
X154587500Y-92750000D01*
X153387500Y-92750000D02*
X154587500Y-92750000D01*
X153387500Y-92250000D02*
X153387500Y-93150000D01*
X155737500Y-92250000D02*
X153387500Y-92250000D01*
X154587500Y-98250000D02*
X154587500Y-97750000D01*
X154587500Y-98250000D02*
X154587500Y-98250000D01*
X154587500Y-97750000D02*
X154587500Y-98250000D01*
X154587500Y-97750000D02*
X154587500Y-97750000D01*
X153887500Y-98250000D02*
X153887500Y-97750000D01*
X153887500Y-98250000D02*
X153887500Y-98250000D01*
X153887500Y-97750000D02*
X153887500Y-98250000D01*
X153887500Y-97750000D02*
X153887500Y-97750000D01*
X153387500Y-97750000D02*
X153387500Y-97750000D01*
X154587500Y-97750000D02*
X153387500Y-97750000D01*
X154587500Y-97750000D02*
X154587500Y-97750000D01*
X153387500Y-97750000D02*
X154587500Y-97750000D01*
X153387500Y-98250000D02*
X153387500Y-97350000D01*
X155737500Y-98250000D02*
X153387500Y-98250000D01*
X157637500Y-97150000D02*
X157637500Y-93350000D01*
X153062500Y-97750000D02*
G75*
G03X153062500Y-97750000I-250000J0D01*
G01*
X130730683Y-101158746D02*
X130730683Y-100158746D01*
X129030683Y-100158746D02*
X129030683Y-101158746D01*
X123872683Y-101158746D02*
X123872683Y-100158746D01*
X122172683Y-100158746D02*
X122172683Y-101158746D01*
X120013683Y-100158746D02*
X120013683Y-101158746D01*
X121713683Y-101158746D02*
X121713683Y-100158746D01*
D12*
X156895001Y-86156001D02*
G75*
G03X156895001Y-86156001I-1270000J0D01*
G01*
X156895001Y-103936001D02*
G75*
G03X156895001Y-103936001I-1270000J0D01*
G01*
X111810001Y-103936001D02*
G75*
G03X111810001Y-103936001I-1905000J0D01*
G01*
X111810001Y-86156001D02*
G75*
G03X111810001Y-86156001I-1905000J0D01*
G01*
D11*
X132089000Y-101458746D02*
X132089000Y-100258746D01*
X133849000Y-100258746D02*
X133849000Y-101458746D01*
X143502000Y-95602000D02*
X142502000Y-95602000D01*
X143502000Y-98962000D02*
X142502000Y-98962000D01*
X140092000Y-95672000D02*
X137642000Y-95672000D01*
X138292000Y-98892000D02*
X140092000Y-98892000D01*
X125297683Y-102218746D02*
X127747683Y-102218746D01*
X127097683Y-98998746D02*
X125297683Y-98998746D01*
X114475000Y-91475000D02*
X114475000Y-90200000D01*
X114475000Y-90200000D02*
X116075000Y-90200000D01*
X116075000Y-90200000D02*
X116075000Y-89200000D01*
X116075000Y-89200000D02*
X111850000Y-89200000D01*
X111850000Y-101300000D02*
X116075000Y-101300000D01*
X116075000Y-101300000D02*
X116075000Y-100300000D01*
X116075000Y-100300000D02*
X114475000Y-100300000D01*
X114475000Y-100300000D02*
X114475000Y-99025000D01*
X108275000Y-90925000D02*
X108275000Y-99575000D01*
X114475000Y-91475000D02*
X117375000Y-91475000D01*
X151225000Y-99025000D02*
X148325000Y-99025000D01*
X157425000Y-99575000D02*
X157425000Y-90925000D01*
X151225000Y-90200000D02*
X151225000Y-91475000D01*
X149625000Y-90200000D02*
X151225000Y-90200000D01*
X149625000Y-89200000D02*
X149625000Y-90200000D01*
X153850000Y-89200000D02*
X149625000Y-89200000D01*
X149625000Y-101300000D02*
X153850000Y-101300000D01*
X149625000Y-100300000D02*
X149625000Y-101300000D01*
X151225000Y-100300000D02*
X149625000Y-100300000D01*
X151225000Y-99025000D02*
X151225000Y-100300000D01*
D12*
X112783333Y-91826190D02*
X112783333Y-92183333D01*
X112759523Y-92254761D01*
X112711904Y-92302380D01*
X112640476Y-92326190D01*
X112592857Y-92326190D01*
X112973809Y-91826190D02*
X113283333Y-91826190D01*
X113116666Y-92016666D01*
X113188095Y-92016666D01*
X113235714Y-92040476D01*
X113259523Y-92064285D01*
X113283333Y-92111904D01*
X113283333Y-92230952D01*
X113259523Y-92278571D01*
X113235714Y-92302380D01*
X113188095Y-92326190D01*
X113045238Y-92326190D01*
X112997619Y-92302380D01*
X112973809Y-92278571D01*
X109192857Y-91452380D02*
X109264285Y-91476190D01*
X109383333Y-91476190D01*
X109430952Y-91452380D01*
X109454761Y-91428571D01*
X109478571Y-91380952D01*
X109478571Y-91333333D01*
X109454761Y-91285714D01*
X109430952Y-91261904D01*
X109383333Y-91238095D01*
X109288095Y-91214285D01*
X109240476Y-91190476D01*
X109216666Y-91166666D01*
X109192857Y-91119047D01*
X109192857Y-91071428D01*
X109216666Y-91023809D01*
X109240476Y-91000000D01*
X109288095Y-90976190D01*
X109407142Y-90976190D01*
X109478571Y-91000000D01*
X109621428Y-90976190D02*
X109907142Y-90976190D01*
X109764285Y-91476190D02*
X109764285Y-90976190D01*
X110073809Y-91214285D02*
X110240476Y-91214285D01*
X110311904Y-91476190D02*
X110073809Y-91476190D01*
X110073809Y-90976190D01*
X110311904Y-90976190D01*
X110526190Y-91476190D02*
X110526190Y-90976190D01*
X110692857Y-91333333D01*
X110859523Y-90976190D01*
X110859523Y-91476190D01*
X111097619Y-91476190D02*
X111097619Y-90976190D01*
X111264285Y-91333333D01*
X111430952Y-90976190D01*
X111430952Y-91476190D01*
X111645238Y-91333333D02*
X111883333Y-91333333D01*
X111597619Y-91476190D02*
X111764285Y-90976190D01*
X111930952Y-91476190D01*
X112097619Y-91285714D02*
X112478571Y-91285714D01*
X113050000Y-91523809D02*
X113002380Y-91500000D01*
X112954761Y-91452380D01*
X112883333Y-91380952D01*
X112835714Y-91357142D01*
X112788095Y-91357142D01*
X112811904Y-91476190D02*
X112764285Y-91452380D01*
X112716666Y-91404761D01*
X112692857Y-91309523D01*
X112692857Y-91142857D01*
X112716666Y-91047619D01*
X112764285Y-91000000D01*
X112811904Y-90976190D01*
X112907142Y-90976190D01*
X112954761Y-91000000D01*
X113002380Y-91047619D01*
X113026190Y-91142857D01*
X113026190Y-91309523D01*
X113002380Y-91404761D01*
X112954761Y-91452380D01*
X112907142Y-91476190D01*
X112811904Y-91476190D01*
X113169047Y-90976190D02*
X113454761Y-90976190D01*
X113311904Y-91476190D02*
X113311904Y-90976190D01*
X152633333Y-91776190D02*
X152633333Y-92133333D01*
X152609523Y-92204761D01*
X152561904Y-92252380D01*
X152490476Y-92276190D01*
X152442857Y-92276190D01*
X153085714Y-91942857D02*
X153085714Y-92276190D01*
X152966666Y-91752380D02*
X152847619Y-92109523D01*
X153157142Y-92109523D01*
X152442857Y-91502380D02*
X152514285Y-91526190D01*
X152633333Y-91526190D01*
X152680952Y-91502380D01*
X152704761Y-91478571D01*
X152728571Y-91430952D01*
X152728571Y-91383333D01*
X152704761Y-91335714D01*
X152680952Y-91311904D01*
X152633333Y-91288095D01*
X152538095Y-91264285D01*
X152490476Y-91240476D01*
X152466666Y-91216666D01*
X152442857Y-91169047D01*
X152442857Y-91121428D01*
X152466666Y-91073809D01*
X152490476Y-91050000D01*
X152538095Y-91026190D01*
X152657142Y-91026190D01*
X152728571Y-91050000D01*
X152871428Y-91026190D02*
X153157142Y-91026190D01*
X153014285Y-91526190D02*
X153014285Y-91026190D01*
X153323809Y-91264285D02*
X153490476Y-91264285D01*
X153561904Y-91526190D02*
X153323809Y-91526190D01*
X153323809Y-91026190D01*
X153561904Y-91026190D01*
X153776190Y-91526190D02*
X153776190Y-91026190D01*
X153942857Y-91383333D01*
X154109523Y-91026190D01*
X154109523Y-91526190D01*
X154347619Y-91526190D02*
X154347619Y-91026190D01*
X154514285Y-91383333D01*
X154680952Y-91026190D01*
X154680952Y-91526190D01*
X154895238Y-91383333D02*
X155133333Y-91383333D01*
X154847619Y-91526190D02*
X155014285Y-91026190D01*
X155180952Y-91526190D01*
X155347619Y-91335714D02*
X155728571Y-91335714D01*
X156300000Y-91573809D02*
X156252380Y-91550000D01*
X156204761Y-91502380D01*
X156133333Y-91430952D01*
X156085714Y-91407142D01*
X156038095Y-91407142D01*
X156061904Y-91526190D02*
X156014285Y-91502380D01*
X155966666Y-91454761D01*
X155942857Y-91359523D01*
X155942857Y-91192857D01*
X155966666Y-91097619D01*
X156014285Y-91050000D01*
X156061904Y-91026190D01*
X156157142Y-91026190D01*
X156204761Y-91050000D01*
X156252380Y-91097619D01*
X156276190Y-91192857D01*
X156276190Y-91359523D01*
X156252380Y-91454761D01*
X156204761Y-91502380D01*
X156157142Y-91526190D01*
X156061904Y-91526190D01*
X156419047Y-91026190D02*
X156704761Y-91026190D01*
X156561904Y-91526190D02*
X156561904Y-91026190D01*
X129202666Y-97841571D02*
X129178857Y-97865380D01*
X129107428Y-97889190D01*
X129059809Y-97889190D01*
X128988380Y-97865380D01*
X128940761Y-97817761D01*
X128916952Y-97770142D01*
X128893142Y-97674904D01*
X128893142Y-97603476D01*
X128916952Y-97508238D01*
X128940761Y-97460619D01*
X128988380Y-97413000D01*
X129059809Y-97389190D01*
X129107428Y-97389190D01*
X129178857Y-97413000D01*
X129202666Y-97436809D01*
X129678857Y-97889190D02*
X129393142Y-97889190D01*
X129536000Y-97889190D02*
X129536000Y-97389190D01*
X129488380Y-97460619D01*
X129440761Y-97508238D01*
X129393142Y-97532047D01*
X129258285Y-98651190D02*
X128972571Y-98651190D01*
X129115428Y-98651190D02*
X129115428Y-98151190D01*
X129067809Y-98222619D01*
X129020190Y-98270238D01*
X128972571Y-98294047D01*
X129567809Y-98151190D02*
X129615428Y-98151190D01*
X129663047Y-98175000D01*
X129686857Y-98198809D01*
X129710666Y-98246428D01*
X129734476Y-98341666D01*
X129734476Y-98460714D01*
X129710666Y-98555952D01*
X129686857Y-98603571D01*
X129663047Y-98627380D01*
X129615428Y-98651190D01*
X129567809Y-98651190D01*
X129520190Y-98627380D01*
X129496380Y-98603571D01*
X129472571Y-98555952D01*
X129448761Y-98460714D01*
X129448761Y-98341666D01*
X129472571Y-98246428D01*
X129496380Y-98198809D01*
X129520190Y-98175000D01*
X129567809Y-98151190D01*
X130163047Y-98317857D02*
X130163047Y-98651190D01*
X129948761Y-98317857D02*
X129948761Y-98579761D01*
X129972571Y-98627380D01*
X130020190Y-98651190D01*
X130091619Y-98651190D01*
X130139238Y-98627380D01*
X130163047Y-98603571D01*
X130567809Y-98389285D02*
X130401142Y-98389285D01*
X130401142Y-98651190D02*
X130401142Y-98151190D01*
X130639238Y-98151190D01*
X122598666Y-97841571D02*
X122574857Y-97865380D01*
X122503428Y-97889190D01*
X122455809Y-97889190D01*
X122384380Y-97865380D01*
X122336761Y-97817761D01*
X122312952Y-97770142D01*
X122289142Y-97674904D01*
X122289142Y-97603476D01*
X122312952Y-97508238D01*
X122336761Y-97460619D01*
X122384380Y-97413000D01*
X122455809Y-97389190D01*
X122503428Y-97389190D01*
X122574857Y-97413000D01*
X122598666Y-97436809D01*
X122789142Y-97436809D02*
X122812952Y-97413000D01*
X122860571Y-97389190D01*
X122979619Y-97389190D01*
X123027238Y-97413000D01*
X123051047Y-97436809D01*
X123074857Y-97484428D01*
X123074857Y-97532047D01*
X123051047Y-97603476D01*
X122765333Y-97889190D01*
X123074857Y-97889190D01*
X122368571Y-98151190D02*
X122416190Y-98151190D01*
X122463809Y-98175000D01*
X122487619Y-98198809D01*
X122511428Y-98246428D01*
X122535238Y-98341666D01*
X122535238Y-98460714D01*
X122511428Y-98555952D01*
X122487619Y-98603571D01*
X122463809Y-98627380D01*
X122416190Y-98651190D01*
X122368571Y-98651190D01*
X122320952Y-98627380D01*
X122297142Y-98603571D01*
X122273333Y-98555952D01*
X122249523Y-98460714D01*
X122249523Y-98341666D01*
X122273333Y-98246428D01*
X122297142Y-98198809D01*
X122320952Y-98175000D01*
X122368571Y-98151190D01*
X122749523Y-98603571D02*
X122773333Y-98627380D01*
X122749523Y-98651190D01*
X122725714Y-98627380D01*
X122749523Y-98603571D01*
X122749523Y-98651190D01*
X123249523Y-98651190D02*
X122963809Y-98651190D01*
X123106666Y-98651190D02*
X123106666Y-98151190D01*
X123059047Y-98222619D01*
X123011428Y-98270238D01*
X122963809Y-98294047D01*
X123678095Y-98317857D02*
X123678095Y-98651190D01*
X123463809Y-98317857D02*
X123463809Y-98579761D01*
X123487619Y-98627380D01*
X123535238Y-98651190D01*
X123606666Y-98651190D01*
X123654285Y-98627380D01*
X123678095Y-98603571D01*
X124082857Y-98389285D02*
X123916190Y-98389285D01*
X123916190Y-98651190D02*
X123916190Y-98151190D01*
X124154285Y-98151190D01*
X120185666Y-97841571D02*
X120161857Y-97865380D01*
X120090428Y-97889190D01*
X120042809Y-97889190D01*
X119971380Y-97865380D01*
X119923761Y-97817761D01*
X119899952Y-97770142D01*
X119876142Y-97674904D01*
X119876142Y-97603476D01*
X119899952Y-97508238D01*
X119923761Y-97460619D01*
X119971380Y-97413000D01*
X120042809Y-97389190D01*
X120090428Y-97389190D01*
X120161857Y-97413000D01*
X120185666Y-97436809D01*
X120352333Y-97389190D02*
X120661857Y-97389190D01*
X120495190Y-97579666D01*
X120566619Y-97579666D01*
X120614238Y-97603476D01*
X120638047Y-97627285D01*
X120661857Y-97674904D01*
X120661857Y-97793952D01*
X120638047Y-97841571D01*
X120614238Y-97865380D01*
X120566619Y-97889190D01*
X120423761Y-97889190D01*
X120376142Y-97865380D01*
X120352333Y-97841571D01*
X120241285Y-98651190D02*
X119955571Y-98651190D01*
X120098428Y-98651190D02*
X120098428Y-98151190D01*
X120050809Y-98222619D01*
X120003190Y-98270238D01*
X119955571Y-98294047D01*
X120550809Y-98151190D02*
X120598428Y-98151190D01*
X120646047Y-98175000D01*
X120669857Y-98198809D01*
X120693666Y-98246428D01*
X120717476Y-98341666D01*
X120717476Y-98460714D01*
X120693666Y-98555952D01*
X120669857Y-98603571D01*
X120646047Y-98627380D01*
X120598428Y-98651190D01*
X120550809Y-98651190D01*
X120503190Y-98627380D01*
X120479380Y-98603571D01*
X120455571Y-98555952D01*
X120431761Y-98460714D01*
X120431761Y-98341666D01*
X120455571Y-98246428D01*
X120479380Y-98198809D01*
X120503190Y-98175000D01*
X120550809Y-98151190D01*
X121146047Y-98317857D02*
X121146047Y-98651190D01*
X120931761Y-98317857D02*
X120931761Y-98579761D01*
X120955571Y-98627380D01*
X121003190Y-98651190D01*
X121074619Y-98651190D01*
X121122238Y-98627380D01*
X121146047Y-98603571D01*
X121550809Y-98389285D02*
X121384142Y-98389285D01*
X121384142Y-98651190D02*
X121384142Y-98151190D01*
X121622238Y-98151190D01*
X115874048Y-103408191D02*
X116183572Y-103408191D01*
X116016905Y-103598667D01*
X116088334Y-103598667D01*
X116135953Y-103622477D01*
X116159762Y-103646286D01*
X116183572Y-103693905D01*
X116183572Y-103812953D01*
X116159762Y-103860572D01*
X116135953Y-103884381D01*
X116088334Y-103908191D01*
X115945477Y-103908191D01*
X115897858Y-103884381D01*
X115874048Y-103860572D01*
X116326429Y-103408191D02*
X116493096Y-103908191D01*
X116659762Y-103408191D01*
X120954048Y-103432001D02*
X120906429Y-103408191D01*
X120835001Y-103408191D01*
X120763572Y-103432001D01*
X120715953Y-103479620D01*
X120692143Y-103527239D01*
X120668334Y-103622477D01*
X120668334Y-103693905D01*
X120692143Y-103789143D01*
X120715953Y-103836762D01*
X120763572Y-103884381D01*
X120835001Y-103908191D01*
X120882620Y-103908191D01*
X120954048Y-103884381D01*
X120977858Y-103860572D01*
X120977858Y-103693905D01*
X120882620Y-103693905D01*
X121192143Y-103908191D02*
X121192143Y-103408191D01*
X121477858Y-103908191D01*
X121477858Y-103408191D01*
X121715953Y-103908191D02*
X121715953Y-103408191D01*
X121835001Y-103408191D01*
X121906429Y-103432001D01*
X121954048Y-103479620D01*
X121977858Y-103527239D01*
X122001667Y-103622477D01*
X122001667Y-103693905D01*
X121977858Y-103789143D01*
X121954048Y-103836762D01*
X121906429Y-103884381D01*
X121835001Y-103908191D01*
X121715953Y-103908191D01*
X146651667Y-103908191D02*
X146485001Y-103670096D01*
X146365953Y-103908191D02*
X146365953Y-103408191D01*
X146556429Y-103408191D01*
X146604048Y-103432001D01*
X146627858Y-103455810D01*
X146651667Y-103503429D01*
X146651667Y-103574858D01*
X146627858Y-103622477D01*
X146604048Y-103646286D01*
X146556429Y-103670096D01*
X146365953Y-103670096D01*
X146818334Y-103408191D02*
X147151667Y-103908191D01*
X147151667Y-103408191D02*
X146818334Y-103908191D01*
X151207858Y-86612381D02*
X151279286Y-86636191D01*
X151398334Y-86636191D01*
X151445953Y-86612381D01*
X151469762Y-86588572D01*
X151493572Y-86540953D01*
X151493572Y-86493334D01*
X151469762Y-86445715D01*
X151445953Y-86421905D01*
X151398334Y-86398096D01*
X151303096Y-86374286D01*
X151255477Y-86350477D01*
X151231667Y-86326667D01*
X151207858Y-86279048D01*
X151207858Y-86231429D01*
X151231667Y-86183810D01*
X151255477Y-86160001D01*
X151303096Y-86136191D01*
X151422143Y-86136191D01*
X151493572Y-86160001D01*
X151707858Y-86636191D02*
X151707858Y-86136191D01*
X151826905Y-86136191D01*
X151898334Y-86160001D01*
X151945953Y-86207620D01*
X151969762Y-86255239D01*
X151993572Y-86350477D01*
X151993572Y-86421905D01*
X151969762Y-86517143D01*
X151945953Y-86564762D01*
X151898334Y-86612381D01*
X151826905Y-86636191D01*
X151707858Y-86636191D01*
X152184048Y-86493334D02*
X152422143Y-86493334D01*
X152136429Y-86636191D02*
X152303096Y-86136191D01*
X152469762Y-86636191D01*
X148679762Y-86612381D02*
X148751191Y-86636191D01*
X148870239Y-86636191D01*
X148917858Y-86612381D01*
X148941667Y-86588572D01*
X148965477Y-86540953D01*
X148965477Y-86493334D01*
X148941667Y-86445715D01*
X148917858Y-86421905D01*
X148870239Y-86398096D01*
X148775001Y-86374286D01*
X148727381Y-86350477D01*
X148703572Y-86326667D01*
X148679762Y-86279048D01*
X148679762Y-86231429D01*
X148703572Y-86183810D01*
X148727381Y-86160001D01*
X148775001Y-86136191D01*
X148894048Y-86136191D01*
X148965477Y-86160001D01*
X149465477Y-86588572D02*
X149441667Y-86612381D01*
X149370239Y-86636191D01*
X149322620Y-86636191D01*
X149251191Y-86612381D01*
X149203572Y-86564762D01*
X149179762Y-86517143D01*
X149155953Y-86421905D01*
X149155953Y-86350477D01*
X149179762Y-86255239D01*
X149203572Y-86207620D01*
X149251191Y-86160001D01*
X149322620Y-86136191D01*
X149370239Y-86136191D01*
X149441667Y-86160001D01*
X149465477Y-86183810D01*
X149917858Y-86636191D02*
X149679762Y-86636191D01*
X149679762Y-86136191D01*
X148894048Y-103408191D02*
X149179762Y-103408191D01*
X149036905Y-103908191D02*
X149036905Y-103408191D01*
X149298810Y-103408191D02*
X149632143Y-103908191D01*
X149632143Y-103408191D02*
X149298810Y-103908191D01*
X134536666Y-100302190D02*
X134370000Y-100064095D01*
X134250952Y-100302190D02*
X134250952Y-99802190D01*
X134441428Y-99802190D01*
X134489047Y-99826000D01*
X134512857Y-99849809D01*
X134536666Y-99897428D01*
X134536666Y-99968857D01*
X134512857Y-100016476D01*
X134489047Y-100040285D01*
X134441428Y-100064095D01*
X134250952Y-100064095D01*
X135012857Y-100302190D02*
X134727142Y-100302190D01*
X134870000Y-100302190D02*
X134870000Y-99802190D01*
X134822380Y-99873619D01*
X134774761Y-99921238D01*
X134727142Y-99945047D01*
X134512857Y-101064190D02*
X134227142Y-101064190D01*
X134370000Y-101064190D02*
X134370000Y-100564190D01*
X134322380Y-100635619D01*
X134274761Y-100683238D01*
X134227142Y-100707047D01*
X134727142Y-101064190D02*
X134727142Y-100564190D01*
X135012857Y-101064190D02*
X134798571Y-100778476D01*
X135012857Y-100564190D02*
X134727142Y-100849904D01*
X141894761Y-94460190D02*
X141728095Y-94222095D01*
X141609047Y-94460190D02*
X141609047Y-93960190D01*
X141799523Y-93960190D01*
X141847142Y-93984000D01*
X141870952Y-94007809D01*
X141894761Y-94055428D01*
X141894761Y-94126857D01*
X141870952Y-94174476D01*
X141847142Y-94198285D01*
X141799523Y-94222095D01*
X141609047Y-94222095D01*
X142109047Y-94460190D02*
X142109047Y-93960190D01*
X142394761Y-94460190D01*
X142394761Y-93960190D01*
X142894761Y-94460190D02*
X142609047Y-94460190D01*
X142751904Y-94460190D02*
X142751904Y-93960190D01*
X142704285Y-94031619D01*
X142656666Y-94079238D01*
X142609047Y-94103047D01*
X141787666Y-94888857D02*
X141787666Y-95222190D01*
X141668619Y-94698380D02*
X141549571Y-95055523D01*
X141859095Y-95055523D01*
X142001952Y-95222190D02*
X142263857Y-94888857D01*
X142001952Y-94888857D02*
X142263857Y-95222190D01*
X142716238Y-95222190D02*
X142430523Y-95222190D01*
X142573380Y-95222190D02*
X142573380Y-94722190D01*
X142525761Y-94793619D01*
X142478142Y-94841238D01*
X142430523Y-94865047D01*
X143025761Y-94722190D02*
X143073380Y-94722190D01*
X143121000Y-94746000D01*
X143144809Y-94769809D01*
X143168619Y-94817428D01*
X143192428Y-94912666D01*
X143192428Y-95031714D01*
X143168619Y-95126952D01*
X143144809Y-95174571D01*
X143121000Y-95198380D01*
X143073380Y-95222190D01*
X143025761Y-95222190D01*
X142978142Y-95198380D01*
X142954333Y-95174571D01*
X142930523Y-95126952D01*
X142906714Y-95031714D01*
X142906714Y-94912666D01*
X142930523Y-94817428D01*
X142954333Y-94769809D01*
X142978142Y-94746000D01*
X143025761Y-94722190D01*
X143406714Y-95222190D02*
X143406714Y-94722190D01*
X143692428Y-95222190D02*
X143478142Y-94936476D01*
X143692428Y-94722190D02*
X143406714Y-95007904D01*
X137414047Y-99167190D02*
X137414047Y-99571952D01*
X137437857Y-99619571D01*
X137461666Y-99643380D01*
X137509285Y-99667190D01*
X137604523Y-99667190D01*
X137652142Y-99643380D01*
X137675952Y-99619571D01*
X137699761Y-99571952D01*
X137699761Y-99167190D01*
X138199761Y-99667190D02*
X137914047Y-99667190D01*
X138056904Y-99667190D02*
X138056904Y-99167190D01*
X138009285Y-99238619D01*
X137961666Y-99286238D01*
X137914047Y-99310047D01*
X137561285Y-100294285D02*
X137632714Y-100318095D01*
X137656523Y-100341904D01*
X137680333Y-100389523D01*
X137680333Y-100460952D01*
X137656523Y-100508571D01*
X137632714Y-100532380D01*
X137585095Y-100556190D01*
X137394619Y-100556190D01*
X137394619Y-100056190D01*
X137561285Y-100056190D01*
X137608904Y-100080000D01*
X137632714Y-100103809D01*
X137656523Y-100151428D01*
X137656523Y-100199047D01*
X137632714Y-100246666D01*
X137608904Y-100270476D01*
X137561285Y-100294285D01*
X137394619Y-100294285D01*
X137870809Y-100532380D02*
X137942238Y-100556190D01*
X138061285Y-100556190D01*
X138108904Y-100532380D01*
X138132714Y-100508571D01*
X138156523Y-100460952D01*
X138156523Y-100413333D01*
X138132714Y-100365714D01*
X138108904Y-100341904D01*
X138061285Y-100318095D01*
X137966047Y-100294285D01*
X137918428Y-100270476D01*
X137894619Y-100246666D01*
X137870809Y-100199047D01*
X137870809Y-100151428D01*
X137894619Y-100103809D01*
X137918428Y-100080000D01*
X137966047Y-100056190D01*
X138085095Y-100056190D01*
X138156523Y-100080000D01*
X138347000Y-100532380D02*
X138418428Y-100556190D01*
X138537476Y-100556190D01*
X138585095Y-100532380D01*
X138608904Y-100508571D01*
X138632714Y-100460952D01*
X138632714Y-100413333D01*
X138608904Y-100365714D01*
X138585095Y-100341904D01*
X138537476Y-100318095D01*
X138442238Y-100294285D01*
X138394619Y-100270476D01*
X138370809Y-100246666D01*
X138347000Y-100199047D01*
X138347000Y-100151428D01*
X138370809Y-100103809D01*
X138394619Y-100080000D01*
X138442238Y-100056190D01*
X138561285Y-100056190D01*
X138632714Y-100080000D01*
X139108904Y-100556190D02*
X138823190Y-100556190D01*
X138966047Y-100556190D02*
X138966047Y-100056190D01*
X138918428Y-100127619D01*
X138870809Y-100175238D01*
X138823190Y-100199047D01*
X139275571Y-100056190D02*
X139585095Y-100056190D01*
X139418428Y-100246666D01*
X139489857Y-100246666D01*
X139537476Y-100270476D01*
X139561285Y-100294285D01*
X139585095Y-100341904D01*
X139585095Y-100460952D01*
X139561285Y-100508571D01*
X139537476Y-100532380D01*
X139489857Y-100556190D01*
X139347000Y-100556190D01*
X139299380Y-100532380D01*
X139275571Y-100508571D01*
X139870809Y-100270476D02*
X139823190Y-100246666D01*
X139799380Y-100222857D01*
X139775571Y-100175238D01*
X139775571Y-100151428D01*
X139799380Y-100103809D01*
X139823190Y-100080000D01*
X139870809Y-100056190D01*
X139966047Y-100056190D01*
X140013666Y-100080000D01*
X140037476Y-100103809D01*
X140061285Y-100151428D01*
X140061285Y-100175238D01*
X140037476Y-100222857D01*
X140013666Y-100246666D01*
X139966047Y-100270476D01*
X139870809Y-100270476D01*
X139823190Y-100294285D01*
X139799380Y-100318095D01*
X139775571Y-100365714D01*
X139775571Y-100460952D01*
X139799380Y-100508571D01*
X139823190Y-100532380D01*
X139870809Y-100556190D01*
X139966047Y-100556190D01*
X140013666Y-100532380D01*
X140037476Y-100508571D01*
X140061285Y-100460952D01*
X140061285Y-100365714D01*
X140037476Y-100318095D01*
X140013666Y-100294285D01*
X139966047Y-100270476D01*
X140275571Y-100556190D02*
X140275571Y-100056190D01*
X140394619Y-100056190D01*
X140466047Y-100080000D01*
X140513666Y-100127619D01*
X140537476Y-100175238D01*
X140561285Y-100270476D01*
X140561285Y-100341904D01*
X140537476Y-100437142D01*
X140513666Y-100484761D01*
X140466047Y-100532380D01*
X140394619Y-100556190D01*
X140275571Y-100556190D01*
X140727952Y-100056190D02*
X140847000Y-100556190D01*
X140942238Y-100199047D01*
X141037476Y-100556190D01*
X141156523Y-100056190D01*
X141347000Y-100365714D02*
X141727952Y-100365714D01*
X142061285Y-100318095D02*
X142061285Y-100556190D01*
X141894619Y-100056190D02*
X142061285Y-100318095D01*
X142227952Y-100056190D01*
X142394619Y-100365714D02*
X142775571Y-100365714D01*
X143180333Y-100294285D02*
X143013666Y-100294285D01*
X143013666Y-100556190D02*
X143013666Y-100056190D01*
X143251761Y-100056190D01*
X143323190Y-100603809D02*
X143704142Y-100603809D01*
X143799380Y-100413333D02*
X144037476Y-100413333D01*
X143751761Y-100556190D02*
X143918428Y-100056190D01*
X144085095Y-100556190D01*
X144489857Y-100556190D02*
X144251761Y-100556190D01*
X144251761Y-100056190D01*
X144585095Y-100056190D02*
X144870809Y-100056190D01*
X144727952Y-100556190D02*
X144727952Y-100056190D01*
X125816730Y-98278190D02*
X125816730Y-98682952D01*
X125840540Y-98730571D01*
X125864349Y-98754380D01*
X125911968Y-98778190D01*
X126007206Y-98778190D01*
X126054825Y-98754380D01*
X126078635Y-98730571D01*
X126102444Y-98682952D01*
X126102444Y-98278190D01*
X126316730Y-98325809D02*
X126340540Y-98302000D01*
X126388159Y-98278190D01*
X126507206Y-98278190D01*
X126554825Y-98302000D01*
X126578635Y-98325809D01*
X126602444Y-98373428D01*
X126602444Y-98421047D01*
X126578635Y-98492476D01*
X126292921Y-98778190D01*
X126602444Y-98778190D01*
X124011809Y-102826333D02*
X124249904Y-102826333D01*
X123964190Y-102969190D02*
X124130857Y-102469190D01*
X124297523Y-102969190D01*
X124464190Y-102969190D02*
X124464190Y-102469190D01*
X124654666Y-102469190D01*
X124702285Y-102493000D01*
X124726095Y-102516809D01*
X124749904Y-102564428D01*
X124749904Y-102635857D01*
X124726095Y-102683476D01*
X124702285Y-102707285D01*
X124654666Y-102731095D01*
X124464190Y-102731095D01*
X124940380Y-102516809D02*
X124964190Y-102493000D01*
X125011809Y-102469190D01*
X125130857Y-102469190D01*
X125178476Y-102493000D01*
X125202285Y-102516809D01*
X125226095Y-102564428D01*
X125226095Y-102612047D01*
X125202285Y-102683476D01*
X124916571Y-102969190D01*
X125226095Y-102969190D01*
X125702285Y-102969190D02*
X125416571Y-102969190D01*
X125559428Y-102969190D02*
X125559428Y-102469190D01*
X125511809Y-102540619D01*
X125464190Y-102588238D01*
X125416571Y-102612047D01*
X126178476Y-102969190D02*
X125892761Y-102969190D01*
X126035619Y-102969190D02*
X126035619Y-102469190D01*
X125988000Y-102540619D01*
X125940380Y-102588238D01*
X125892761Y-102612047D01*
X126368952Y-102516809D02*
X126392761Y-102493000D01*
X126440380Y-102469190D01*
X126559428Y-102469190D01*
X126607047Y-102493000D01*
X126630857Y-102516809D01*
X126654666Y-102564428D01*
X126654666Y-102612047D01*
X126630857Y-102683476D01*
X126345142Y-102969190D01*
X126654666Y-102969190D01*
X126868952Y-102778714D02*
X127249904Y-102778714D01*
X127440380Y-102469190D02*
X127749904Y-102469190D01*
X127583238Y-102659666D01*
X127654666Y-102659666D01*
X127702285Y-102683476D01*
X127726095Y-102707285D01*
X127749904Y-102754904D01*
X127749904Y-102873952D01*
X127726095Y-102921571D01*
X127702285Y-102945380D01*
X127654666Y-102969190D01*
X127511809Y-102969190D01*
X127464190Y-102945380D01*
X127440380Y-102921571D01*
X127964190Y-102921571D02*
X127988000Y-102945380D01*
X127964190Y-102969190D01*
X127940380Y-102945380D01*
X127964190Y-102921571D01*
X127964190Y-102969190D01*
X128154666Y-102469190D02*
X128464190Y-102469190D01*
X128297523Y-102659666D01*
X128368952Y-102659666D01*
X128416571Y-102683476D01*
X128440380Y-102707285D01*
X128464190Y-102754904D01*
X128464190Y-102873952D01*
X128440380Y-102921571D01*
X128416571Y-102945380D01*
X128368952Y-102969190D01*
X128226095Y-102969190D01*
X128178476Y-102945380D01*
X128154666Y-102921571D01*
X116471333Y-89316190D02*
X116471333Y-89673333D01*
X116447523Y-89744761D01*
X116399904Y-89792380D01*
X116328476Y-89816190D01*
X116280857Y-89816190D01*
X116971333Y-89816190D02*
X116685619Y-89816190D01*
X116828476Y-89816190D02*
X116828476Y-89316190D01*
X116780857Y-89387619D01*
X116733238Y-89435238D01*
X116685619Y-89459047D01*
X114242761Y-88962380D02*
X114314190Y-88986190D01*
X114433238Y-88986190D01*
X114480857Y-88962380D01*
X114504666Y-88938571D01*
X114528476Y-88890952D01*
X114528476Y-88843333D01*
X114504666Y-88795714D01*
X114480857Y-88771904D01*
X114433238Y-88748095D01*
X114338000Y-88724285D01*
X114290380Y-88700476D01*
X114266571Y-88676666D01*
X114242761Y-88629047D01*
X114242761Y-88581428D01*
X114266571Y-88533809D01*
X114290380Y-88510000D01*
X114338000Y-88486190D01*
X114457047Y-88486190D01*
X114528476Y-88510000D01*
X114671333Y-88486190D02*
X114957047Y-88486190D01*
X114814190Y-88986190D02*
X114814190Y-88486190D01*
X115123714Y-88724285D02*
X115290380Y-88724285D01*
X115361809Y-88986190D02*
X115123714Y-88986190D01*
X115123714Y-88486190D01*
X115361809Y-88486190D01*
X115576095Y-88986190D02*
X115576095Y-88486190D01*
X115742761Y-88843333D01*
X115909428Y-88486190D01*
X115909428Y-88986190D01*
X116147523Y-88986190D02*
X116147523Y-88486190D01*
X116314190Y-88843333D01*
X116480857Y-88486190D01*
X116480857Y-88986190D01*
X116695142Y-88843333D02*
X116933238Y-88843333D01*
X116647523Y-88986190D02*
X116814190Y-88486190D01*
X116980857Y-88986190D01*
X148883333Y-89276190D02*
X148883333Y-89633333D01*
X148859523Y-89704761D01*
X148811904Y-89752380D01*
X148740476Y-89776190D01*
X148692857Y-89776190D01*
X149097619Y-89323809D02*
X149121428Y-89300000D01*
X149169047Y-89276190D01*
X149288095Y-89276190D01*
X149335714Y-89300000D01*
X149359523Y-89323809D01*
X149383333Y-89371428D01*
X149383333Y-89419047D01*
X149359523Y-89490476D01*
X149073809Y-89776190D01*
X149383333Y-89776190D01*
X148754761Y-88952380D02*
X148826190Y-88976190D01*
X148945238Y-88976190D01*
X148992857Y-88952380D01*
X149016666Y-88928571D01*
X149040476Y-88880952D01*
X149040476Y-88833333D01*
X149016666Y-88785714D01*
X148992857Y-88761904D01*
X148945238Y-88738095D01*
X148850000Y-88714285D01*
X148802380Y-88690476D01*
X148778571Y-88666666D01*
X148754761Y-88619047D01*
X148754761Y-88571428D01*
X148778571Y-88523809D01*
X148802380Y-88500000D01*
X148850000Y-88476190D01*
X148969047Y-88476190D01*
X149040476Y-88500000D01*
X149183333Y-88476190D02*
X149469047Y-88476190D01*
X149326190Y-88976190D02*
X149326190Y-88476190D01*
X149635714Y-88714285D02*
X149802380Y-88714285D01*
X149873809Y-88976190D02*
X149635714Y-88976190D01*
X149635714Y-88476190D01*
X149873809Y-88476190D01*
X150088095Y-88976190D02*
X150088095Y-88476190D01*
X150254761Y-88833333D01*
X150421428Y-88476190D01*
X150421428Y-88976190D01*
X150659523Y-88976190D02*
X150659523Y-88476190D01*
X150826190Y-88833333D01*
X150992857Y-88476190D01*
X150992857Y-88976190D01*
X151207142Y-88833333D02*
X151445238Y-88833333D01*
X151159523Y-88976190D02*
X151326190Y-88476190D01*
X151492857Y-88976190D01*
M02*
