M48
;DRILL file {KiCad (5.0.0-rc2-dev-444-g2974a2c10)} date 11/26/19 19:34:55
;FORMAT={-:-/ absolute / inch / decimal}
FMAT,2
INCH,TZ
T1C0.0130
T2C0.0394
T3C0.0984
T4C0.0984
%
G90
G05
M72
T1
X4.45Y-3.35
X4.45Y-4.05
X4.675Y-4.
X4.79Y-3.35
X4.935Y-3.845
X5.1647Y-4.0003
X5.235Y-3.865
X5.35Y-3.78
X5.3524Y-3.8674
X5.4173Y-3.5039
X5.48Y-3.735
X5.545Y-3.66
X5.555Y-3.92
X5.61Y-3.51
X5.63Y-3.92
X5.7193Y-3.8143
X5.725Y-3.935
X5.755Y-3.86
X5.7638Y-3.5256
X5.7697Y-3.8012
X5.7775Y-3.9675
X5.825Y-4.05
X5.93Y-3.42
X5.93Y-4.05
X6.035Y-3.46
X6.035Y-4.05
X6.135Y-3.7303
T2
X4.477Y-4.142
X4.577Y-4.142
X4.677Y-4.142
X4.777Y-4.142
X4.877Y-3.342
X4.877Y-4.142
X4.977Y-3.342
X4.977Y-4.142
X5.077Y-3.342
X5.077Y-4.142
X5.177Y-3.342
X5.177Y-4.142
X5.277Y-3.342
X5.277Y-4.142
X5.377Y-3.342
X5.377Y-4.142
X5.477Y-3.342
X5.477Y-4.142
X5.577Y-3.342
X5.577Y-4.142
X5.677Y-3.342
X5.677Y-4.142
X5.777Y-3.342
X5.777Y-4.142
X5.877Y-3.342
X5.877Y-4.142
X5.977Y-3.342
X5.977Y-4.142
T3
X4.327Y-3.392
X4.327Y-4.092
T4
X6.127Y-3.392
X6.127Y-4.092
T0
M30
