M48
; DRILL file {KiCad (5.1.6-0-10_14)} date Friday, July 31, 2020 at 12:54:24 PM
; FORMAT={-:-/ absolute / inch / decimal}
; #@! TF.CreationDate,2020-07-31T12:54:24-07:00
; #@! TF.GenerationSoftware,Kicad,Pcbnew,(5.1.6-0-10_14)
; #@! TF.FileFunction,Plated,1,2,PTH
FMAT,2
INCH
T1C0.0130
T2C0.0200
T3C0.0394
T4C0.0984
%
G90
G05
T1
X4.3524Y-3.7874
X4.376Y-3.7106
X4.4252Y-4.0827
X4.4409Y-3.6319
X4.45Y-3.3697
X4.6201Y-3.4724
X4.6258Y-3.4055
X4.6516Y-3.9843
X4.7323Y-3.874
X4.79Y-3.3697
X4.8817Y-3.862
X4.9272Y-3.3898
X5.0354Y-3.8504
X5.235Y-3.865
X5.35Y-3.78
X5.3524Y-3.8674
X5.4173Y-3.5039
X5.48Y-3.735
X5.545Y-3.66
X5.555Y-3.92
X5.61Y-3.51
X5.63Y-3.92
X5.7193Y-3.8143
X5.725Y-3.935
X5.755Y-3.86
X5.7638Y-3.5256
X5.7697Y-3.8012
X5.7775Y-3.9675
X5.825Y-4.05
X5.93Y-3.42
X5.93Y-4.05
X6.0217Y-3.8681
X6.035Y-3.46
X6.035Y-4.05
X6.0945Y-3.7067
X6.0965Y-3.7697
T2
X4.5748Y-3.9783
T3
X4.477Y-4.142
X4.577Y-4.142
X4.677Y-4.142
X4.777Y-4.142
X4.877Y-3.342
X4.877Y-4.142
X4.977Y-3.342
X4.977Y-4.142
X5.077Y-3.342
X5.077Y-4.142
X5.177Y-3.342
X5.177Y-4.142
X5.277Y-3.342
X5.277Y-4.142
X5.377Y-3.342
X5.377Y-4.142
X5.477Y-3.342
X5.477Y-4.142
X5.577Y-3.342
X5.577Y-4.142
X5.677Y-3.342
X5.677Y-4.142
X5.777Y-3.342
X5.777Y-4.142
X5.877Y-3.342
X5.877Y-4.142
X5.977Y-3.342
X5.977Y-4.142
T4
X4.327Y-3.392
X4.327Y-4.092
T0
M30
