G04 #@! TF.GenerationSoftware,KiCad,Pcbnew,(5.1.6-0-10_14)*
G04 #@! TF.CreationDate,2020-07-31T12:54:26-07:00*
G04 #@! TF.ProjectId,Stemma_Host_FeatherWing,5374656d-6d61-45f4-986f-73745f466561,v03*
G04 #@! TF.SameCoordinates,Original*
G04 #@! TF.FileFunction,Copper,L1,Top*
G04 #@! TF.FilePolarity,Positive*
%FSLAX46Y46*%
G04 Gerber Fmt 4.6, Leading zero omitted, Abs format (unit mm)*
G04 Created by KiCad (PCBNEW (5.1.6-0-10_14)) date 2020-07-31 12:54:26*
%MOMM*%
%LPD*%
G01*
G04 APERTURE LIST*
G04 #@! TA.AperFunction,SMDPad,CuDef*
%ADD10R,0.650000X0.400000*%
G04 #@! TD*
G04 #@! TA.AperFunction,SMDPad,CuDef*
%ADD11R,1.250000X1.000000*%
G04 #@! TD*
G04 #@! TA.AperFunction,ComponentPad*
%ADD12C,1.700000*%
G04 #@! TD*
G04 #@! TA.AperFunction,ComponentPad*
%ADD13C,3.000000*%
G04 #@! TD*
G04 #@! TA.AperFunction,SMDPad,CuDef*
%ADD14R,1.300000X0.700000*%
G04 #@! TD*
G04 #@! TA.AperFunction,SMDPad,CuDef*
%ADD15R,0.800000X0.500000*%
G04 #@! TD*
G04 #@! TA.AperFunction,SMDPad,CuDef*
%ADD16R,0.800000X0.400000*%
G04 #@! TD*
G04 #@! TA.AperFunction,SMDPad,CuDef*
%ADD17R,3.500000X1.000000*%
G04 #@! TD*
G04 #@! TA.AperFunction,SMDPad,CuDef*
%ADD18R,3.400000X1.500000*%
G04 #@! TD*
G04 #@! TA.AperFunction,SMDPad,CuDef*
%ADD19R,1.100000X1.100000*%
G04 #@! TD*
G04 #@! TA.AperFunction,SMDPad,CuDef*
%ADD20R,0.900000X1.270000*%
G04 #@! TD*
G04 #@! TA.AperFunction,SMDPad,CuDef*
%ADD21R,1.450000X0.800000*%
G04 #@! TD*
G04 #@! TA.AperFunction,ViaPad*
%ADD22C,0.685800*%
G04 #@! TD*
G04 #@! TA.AperFunction,ViaPad*
%ADD23C,1.016000*%
G04 #@! TD*
G04 #@! TA.AperFunction,Conductor*
%ADD24C,0.152400*%
G04 #@! TD*
G04 #@! TA.AperFunction,Conductor*
%ADD25C,0.254000*%
G04 #@! TD*
G04 APERTURE END LIST*
D10*
X138242000Y-96632000D03*
X138242000Y-97932000D03*
X140142000Y-97282000D03*
X138242000Y-97282000D03*
X140142000Y-97932000D03*
X140142000Y-96632000D03*
D11*
X129880683Y-99658746D03*
X129880683Y-101658746D03*
D12*
X113715001Y-105206001D03*
X116255001Y-105206001D03*
X118795001Y-105206001D03*
X121335001Y-105206001D03*
X123875001Y-105206001D03*
X126415001Y-105206001D03*
X128955001Y-105206001D03*
X131495001Y-105206001D03*
X134035001Y-105206001D03*
X136575001Y-105206001D03*
X139115001Y-105206001D03*
X141655001Y-105206001D03*
X144195001Y-105206001D03*
X146735001Y-105206001D03*
X149275001Y-105206001D03*
X151815001Y-105206001D03*
X123875001Y-84886001D03*
X126415001Y-84886001D03*
X128955001Y-84886001D03*
X131495001Y-84886001D03*
X134035001Y-84886001D03*
X136575001Y-84886001D03*
X139115001Y-84886001D03*
X141655001Y-84886001D03*
X144195001Y-84886001D03*
X146735001Y-84886001D03*
X149275001Y-84886001D03*
X151815001Y-84886001D03*
D13*
X109905001Y-103936001D03*
X109905001Y-86156001D03*
D14*
X132969000Y-99908746D03*
X132969000Y-101808746D03*
D15*
X143902000Y-98482000D03*
D16*
X143902000Y-97682000D03*
D15*
X143902000Y-96082000D03*
D16*
X143902000Y-96882000D03*
D15*
X142102000Y-98482000D03*
D16*
X142102000Y-96882000D03*
X142102000Y-97682000D03*
D15*
X142102000Y-96082000D03*
D17*
X115625000Y-92250000D03*
X115625000Y-94250000D03*
X115625000Y-96250000D03*
X115625000Y-98250000D03*
D18*
X109875000Y-89900000D03*
X109875000Y-100600000D03*
X155825000Y-89900000D03*
X155825000Y-100600000D03*
D17*
X150075000Y-92250000D03*
X150075000Y-94250000D03*
X150075000Y-96250000D03*
X150075000Y-98250000D03*
D19*
X122100000Y-98400000D03*
X122100000Y-101200000D03*
X125700000Y-101200000D03*
X125700000Y-98400000D03*
D20*
X119400000Y-86400000D03*
X115200000Y-86400000D03*
D21*
X113950000Y-84500000D03*
X120650000Y-84500000D03*
D22*
X147955000Y-102870000D03*
X150622000Y-102870000D03*
X140843000Y-92964000D03*
X146400000Y-89550000D03*
X150622000Y-86868000D03*
X113030000Y-85590000D03*
X112400000Y-103700000D03*
X153289000Y-87884000D03*
X153289000Y-102870000D03*
X121666000Y-85590000D03*
X127900000Y-97800000D03*
X146550000Y-96550000D03*
X137600000Y-89000000D03*
X125150000Y-86100000D03*
X141097000Y-99568000D03*
X146177000Y-98044000D03*
X139192000Y-94869000D03*
X145269000Y-96882000D03*
X142494000Y-89154000D03*
D23*
X116200000Y-101050000D03*
D22*
X135890000Y-96012000D03*
X135951000Y-98232000D03*
X112800000Y-92250000D03*
X152950000Y-98250000D03*
X111150000Y-94250000D03*
X154850000Y-95750000D03*
X143002000Y-99568000D03*
X118150000Y-101200000D03*
X117350000Y-88200000D03*
X110550000Y-96200000D03*
X154800000Y-94150000D03*
X132969000Y-98171000D03*
X146748501Y-100774499D03*
X145415000Y-99949000D03*
X120200000Y-98400000D03*
X123995190Y-98095190D03*
X117495190Y-86500000D03*
D24*
X143902000Y-97682000D02*
X144672000Y-97682000D01*
X144672000Y-97682000D02*
X145034000Y-98044000D01*
X145034000Y-98044000D02*
X146177000Y-98044000D01*
X141097000Y-99568000D02*
X141097000Y-99568000D01*
X146177000Y-98044000D02*
X146177000Y-98044000D01*
X140142000Y-98613000D02*
X140142000Y-97932000D01*
X141097000Y-99568000D02*
X140142000Y-98613000D01*
X139192000Y-94869000D02*
X139192000Y-94869000D01*
X143902000Y-96882000D02*
X145269000Y-96882000D01*
X145269000Y-96882000D02*
X145269000Y-96882000D01*
X142494000Y-88669067D02*
X143152067Y-88011000D01*
X142494000Y-89154000D02*
X142494000Y-88669067D01*
X143152067Y-88011000D02*
X151257000Y-88011000D01*
X151815001Y-87452999D02*
X151815001Y-84886001D01*
X151257000Y-88011000D02*
X151815001Y-87452999D01*
X138242000Y-95819000D02*
X139192000Y-94869000D01*
X138242000Y-96632000D02*
X138242000Y-95819000D01*
D25*
X116255001Y-103200999D02*
X116255001Y-105206001D01*
X116713000Y-102743000D02*
X116255001Y-103200999D01*
X120483429Y-102743000D02*
X116713000Y-102743000D01*
X142102000Y-97682000D02*
X142102000Y-96882000D01*
X141702000Y-97282000D02*
X140292000Y-97282000D01*
X142102000Y-96882000D02*
X141702000Y-97282000D01*
X140292000Y-97282000D02*
X138092000Y-97282000D01*
X134747000Y-97282000D02*
X138092000Y-97282000D01*
X134366000Y-97663000D02*
X134747000Y-97282000D01*
X134366000Y-102362000D02*
X134366000Y-97663000D01*
X133985000Y-102743000D02*
X134366000Y-102362000D01*
X132969000Y-102743000D02*
X133985000Y-102743000D01*
X122692429Y-102743000D02*
X122682000Y-102743000D01*
X122682000Y-102743000D02*
X120483429Y-102743000D01*
X125702937Y-102743000D02*
X124587000Y-102743000D01*
X124587000Y-102743000D02*
X122682000Y-102743000D01*
X132638746Y-102743000D02*
X132334000Y-102743000D01*
X132969000Y-102412746D02*
X132638746Y-102743000D01*
X132969000Y-101808746D02*
X132969000Y-102412746D01*
X125702937Y-102743000D02*
X132334000Y-102743000D01*
X132334000Y-102743000D02*
X132969000Y-102743000D01*
X116255001Y-101105001D02*
X116200000Y-101050000D01*
X116255001Y-105206001D02*
X116255001Y-101105001D01*
D24*
X144052000Y-98482000D02*
X143902000Y-98482000D01*
X144454400Y-98884400D02*
X144052000Y-98482000D01*
X147750200Y-98884400D02*
X144454400Y-98884400D01*
X148384600Y-98250000D02*
X147750200Y-98884400D01*
X150287000Y-98250000D02*
X148384600Y-98250000D01*
X135951000Y-98232000D02*
X135890000Y-98171000D01*
X135890000Y-96012000D02*
X135890000Y-96012000D01*
X135951000Y-98232000D02*
X135951000Y-98232000D01*
X150075000Y-98250000D02*
X151325000Y-98250000D01*
X136251000Y-97932000D02*
X135951000Y-98232000D01*
X138242000Y-97932000D02*
X136251000Y-97932000D01*
X138367000Y-97932000D02*
X138242000Y-97932000D01*
X140638000Y-100203000D02*
X138367000Y-97932000D01*
X143212822Y-100203000D02*
X140638000Y-100203000D01*
X143902000Y-99513822D02*
X143212822Y-100203000D01*
X143902000Y-98482000D02*
X143902000Y-99513822D01*
X112800000Y-92250000D02*
X115625000Y-92250000D01*
X117450000Y-92250000D02*
X115625000Y-92250000D01*
X117937500Y-92737500D02*
X117450000Y-92250000D01*
X117937500Y-94037500D02*
X117937500Y-92737500D01*
X119900000Y-96000000D02*
X117937500Y-94037500D01*
X119900000Y-96012000D02*
X119900000Y-96000000D01*
X135890000Y-96012000D02*
X119900000Y-96012000D01*
X150075000Y-98250000D02*
X152950000Y-98250000D01*
X152950000Y-98250000D02*
X152950000Y-98250000D01*
X150287000Y-96250000D02*
X151537000Y-96250000D01*
X143902000Y-95679600D02*
X143902000Y-96082000D01*
X143345400Y-95123000D02*
X143902000Y-95679600D01*
X141023600Y-95123000D02*
X143345400Y-95123000D01*
X115125000Y-94750000D02*
X115625000Y-94250000D01*
X137795000Y-94234000D02*
X140134600Y-94234000D01*
X136779000Y-95250000D02*
X137795000Y-94234000D01*
X136779000Y-95968822D02*
X136779000Y-95250000D01*
X136164321Y-96583501D02*
X136779000Y-95968822D01*
X115625000Y-94250000D02*
X117718934Y-94250000D01*
X117718934Y-94250000D02*
X118495191Y-95026257D01*
X118495191Y-95026257D02*
X118495191Y-95038257D01*
X118495191Y-95038257D02*
X119773744Y-96316810D01*
X140134600Y-94234000D02*
X141023600Y-95123000D01*
X119773744Y-96316810D02*
X134924810Y-96316810D01*
X135191501Y-96583501D02*
X136164321Y-96583501D01*
X134924810Y-96316810D02*
X135191501Y-96583501D01*
X143345400Y-95123000D02*
X146600000Y-95123000D01*
X148825000Y-96250000D02*
X150075000Y-96250000D01*
X147698000Y-95123000D02*
X148825000Y-96250000D01*
X141023600Y-95123000D02*
X147698000Y-95123000D01*
X140142000Y-96004600D02*
X141023600Y-95123000D01*
X140142000Y-96632000D02*
X140142000Y-96004600D01*
X111150000Y-94250000D02*
X113000000Y-94250000D01*
X113000000Y-94250000D02*
X115625000Y-94250000D01*
X112250000Y-94250000D02*
X113000000Y-94250000D01*
X154350000Y-96250000D02*
X154850000Y-95750000D01*
X150075000Y-96250000D02*
X154350000Y-96250000D01*
X142654400Y-96082000D02*
X143002000Y-96429600D01*
X142102000Y-96082000D02*
X142654400Y-96082000D01*
X143002000Y-96429600D02*
X143002000Y-99568000D01*
X142785600Y-99568000D02*
X143002000Y-99568000D01*
X142102000Y-98884400D02*
X142785600Y-99568000D01*
X142102000Y-98482000D02*
X142102000Y-98884400D01*
X143002000Y-99568000D02*
X143002000Y-99568000D01*
X150075000Y-94250000D02*
X150919362Y-94250000D01*
X119300000Y-101200000D02*
X122100000Y-101200000D01*
X122100000Y-101200000D02*
X125700000Y-101200000D01*
X129421937Y-101200000D02*
X129880683Y-101658746D01*
X125700000Y-101200000D02*
X129421937Y-101200000D01*
X118150000Y-101200000D02*
X119300000Y-101200000D01*
X115675000Y-96300000D02*
X115625000Y-96250000D01*
X115575000Y-96200000D02*
X115625000Y-96250000D01*
X110550000Y-96200000D02*
X115575000Y-96200000D01*
X118242310Y-89092310D02*
X117975000Y-88825000D01*
X120038256Y-95707190D02*
X118242310Y-93911244D01*
X135348988Y-95707190D02*
X120038256Y-95707190D01*
X136157435Y-95440499D02*
X135615679Y-95440499D01*
X135615679Y-95440499D02*
X135348988Y-95707190D01*
X137668744Y-93929190D02*
X136157435Y-95440499D01*
X140260857Y-93929191D02*
X137668744Y-93929190D01*
X141149856Y-94818190D02*
X140260857Y-93929191D01*
X147604410Y-94818190D02*
X141149856Y-94818190D01*
X148172600Y-94250000D02*
X147604410Y-94818190D01*
X117975000Y-88825000D02*
X117350000Y-88200000D01*
X150075000Y-94250000D02*
X148172600Y-94250000D01*
X110550000Y-96200000D02*
X109950000Y-95600000D01*
X109950000Y-95600000D02*
X109950000Y-92250000D01*
X109950000Y-92250000D02*
X110550000Y-91650000D01*
X110550000Y-91650000D02*
X111750000Y-91650000D01*
X111750000Y-91650000D02*
X112100000Y-91650000D01*
X112100000Y-91650000D02*
X112550000Y-91200000D01*
X112550000Y-91200000D02*
X117684620Y-91200000D01*
X117684620Y-91200000D02*
X118242310Y-91757690D01*
X118242310Y-91757690D02*
X118242310Y-89092310D01*
X118242310Y-93911244D02*
X118242310Y-91757690D01*
X154700000Y-94250000D02*
X154800000Y-94150000D01*
X150075000Y-94250000D02*
X154700000Y-94250000D01*
X132969000Y-99908746D02*
X132969000Y-99406346D01*
X132969000Y-99406346D02*
X132969000Y-98171000D01*
X132969000Y-98171000D02*
X132969000Y-98171000D01*
X146735001Y-100787999D02*
X146748501Y-100774499D01*
X146735001Y-105206001D02*
X146735001Y-100787999D01*
X149275001Y-104003920D02*
X149225000Y-103953919D01*
X149275001Y-105206001D02*
X149275001Y-104003920D01*
X149225000Y-103953919D02*
X149225000Y-100584000D01*
X148590000Y-99949000D02*
X145415000Y-99949000D01*
X149225000Y-100584000D02*
X148590000Y-99949000D01*
X120684933Y-98400000D02*
X122100000Y-98400000D01*
X120200000Y-98400000D02*
X120684933Y-98400000D01*
X124300000Y-98400000D02*
X123995190Y-98095190D01*
X125700000Y-98400000D02*
X124300000Y-98400000D01*
X119300000Y-86500000D02*
X119400000Y-86400000D01*
X117495190Y-86500000D02*
X119300000Y-86500000D01*
D25*
G36*
X135309488Y-97889105D02*
G01*
X135254919Y-98020846D01*
X135227100Y-98160702D01*
X135227100Y-98303298D01*
X135254919Y-98443154D01*
X135309488Y-98574895D01*
X135388710Y-98693460D01*
X135489540Y-98794290D01*
X135608105Y-98873512D01*
X135739846Y-98928081D01*
X135879702Y-98955900D01*
X136022298Y-98955900D01*
X136162154Y-98928081D01*
X136293895Y-98873512D01*
X136412460Y-98794290D01*
X136513290Y-98693460D01*
X136592512Y-98574895D01*
X136647081Y-98443154D01*
X136657813Y-98389200D01*
X137635201Y-98389200D01*
X137646289Y-98402711D01*
X137704304Y-98450322D01*
X137770492Y-98485701D01*
X137842311Y-98507487D01*
X137917000Y-98514843D01*
X138303266Y-98514843D01*
X140298830Y-100510408D01*
X140313147Y-100527853D01*
X140330592Y-100542170D01*
X140370974Y-100575311D01*
X140382764Y-100584987D01*
X140462191Y-100627441D01*
X140548373Y-100653585D01*
X140615540Y-100660200D01*
X140615549Y-100660200D01*
X140637999Y-100662411D01*
X140660449Y-100660200D01*
X143190372Y-100660200D01*
X143212822Y-100662411D01*
X143235272Y-100660200D01*
X143235282Y-100660200D01*
X143302449Y-100653585D01*
X143388631Y-100627441D01*
X143468058Y-100584987D01*
X143537675Y-100527853D01*
X143551996Y-100510403D01*
X144209408Y-99852992D01*
X144226853Y-99838675D01*
X144283987Y-99769058D01*
X144326441Y-99689631D01*
X144352585Y-99603449D01*
X144359200Y-99536282D01*
X144359200Y-99536272D01*
X144361411Y-99513822D01*
X144359200Y-99491372D01*
X144359200Y-99333294D01*
X144364773Y-99334985D01*
X144431940Y-99341600D01*
X144431948Y-99341600D01*
X144454400Y-99343811D01*
X144476852Y-99341600D01*
X145021052Y-99341600D01*
X144953540Y-99386710D01*
X144852710Y-99487540D01*
X144773488Y-99606105D01*
X144718919Y-99737846D01*
X144691100Y-99877702D01*
X144691100Y-100020298D01*
X144718919Y-100160154D01*
X144773488Y-100291895D01*
X144852710Y-100410460D01*
X144953540Y-100511290D01*
X145072105Y-100590512D01*
X145203846Y-100645081D01*
X145343702Y-100672900D01*
X145486298Y-100672900D01*
X145626154Y-100645081D01*
X145757895Y-100590512D01*
X145876460Y-100511290D01*
X145977290Y-100410460D01*
X145980136Y-100406200D01*
X146123963Y-100406200D01*
X146106989Y-100431604D01*
X146052420Y-100563345D01*
X146024601Y-100703201D01*
X146024601Y-100845797D01*
X146052420Y-100985653D01*
X146106989Y-101117394D01*
X146186211Y-101235959D01*
X146277802Y-101327550D01*
X146277801Y-104062955D01*
X146151904Y-104115103D01*
X145950284Y-104249821D01*
X145778821Y-104421284D01*
X145644103Y-104622904D01*
X145551308Y-104846932D01*
X145504001Y-105084758D01*
X145504001Y-105327244D01*
X145551308Y-105565070D01*
X145644103Y-105789098D01*
X145778821Y-105990718D01*
X145783103Y-105995000D01*
X145146899Y-105995000D01*
X145151181Y-105990718D01*
X145285899Y-105789098D01*
X145378694Y-105565070D01*
X145426001Y-105327244D01*
X145426001Y-105084758D01*
X145378694Y-104846932D01*
X145285899Y-104622904D01*
X145151181Y-104421284D01*
X144979718Y-104249821D01*
X144778098Y-104115103D01*
X144554070Y-104022308D01*
X144316244Y-103975001D01*
X144073758Y-103975001D01*
X143835932Y-104022308D01*
X143611904Y-104115103D01*
X143410284Y-104249821D01*
X143238821Y-104421284D01*
X143104103Y-104622904D01*
X143011308Y-104846932D01*
X142964001Y-105084758D01*
X142964001Y-105327244D01*
X143011308Y-105565070D01*
X143104103Y-105789098D01*
X143238821Y-105990718D01*
X143243103Y-105995000D01*
X142606899Y-105995000D01*
X142611181Y-105990718D01*
X142745899Y-105789098D01*
X142838694Y-105565070D01*
X142886001Y-105327244D01*
X142886001Y-105084758D01*
X142838694Y-104846932D01*
X142745899Y-104622904D01*
X142611181Y-104421284D01*
X142439718Y-104249821D01*
X142238098Y-104115103D01*
X142014070Y-104022308D01*
X141776244Y-103975001D01*
X141533758Y-103975001D01*
X141295932Y-104022308D01*
X141071904Y-104115103D01*
X140870284Y-104249821D01*
X140698821Y-104421284D01*
X140564103Y-104622904D01*
X140471308Y-104846932D01*
X140424001Y-105084758D01*
X140424001Y-105327244D01*
X140471308Y-105565070D01*
X140564103Y-105789098D01*
X140698821Y-105990718D01*
X140703103Y-105995000D01*
X140066899Y-105995000D01*
X140071181Y-105990718D01*
X140205899Y-105789098D01*
X140298694Y-105565070D01*
X140346001Y-105327244D01*
X140346001Y-105084758D01*
X140298694Y-104846932D01*
X140205899Y-104622904D01*
X140071181Y-104421284D01*
X139899718Y-104249821D01*
X139698098Y-104115103D01*
X139474070Y-104022308D01*
X139236244Y-103975001D01*
X138993758Y-103975001D01*
X138755932Y-104022308D01*
X138531904Y-104115103D01*
X138330284Y-104249821D01*
X138158821Y-104421284D01*
X138024103Y-104622904D01*
X137931308Y-104846932D01*
X137884001Y-105084758D01*
X137884001Y-105327244D01*
X137931308Y-105565070D01*
X138024103Y-105789098D01*
X138158821Y-105990718D01*
X138163103Y-105995000D01*
X137526899Y-105995000D01*
X137531181Y-105990718D01*
X137665899Y-105789098D01*
X137758694Y-105565070D01*
X137806001Y-105327244D01*
X137806001Y-105084758D01*
X137758694Y-104846932D01*
X137665899Y-104622904D01*
X137531181Y-104421284D01*
X137359718Y-104249821D01*
X137158098Y-104115103D01*
X136934070Y-104022308D01*
X136696244Y-103975001D01*
X136453758Y-103975001D01*
X136215932Y-104022308D01*
X135991904Y-104115103D01*
X135790284Y-104249821D01*
X135618821Y-104421284D01*
X135484103Y-104622904D01*
X135391308Y-104846932D01*
X135344001Y-105084758D01*
X135344001Y-105327244D01*
X135391308Y-105565070D01*
X135484103Y-105789098D01*
X135618821Y-105990718D01*
X135623103Y-105995000D01*
X134986899Y-105995000D01*
X134991181Y-105990718D01*
X135125899Y-105789098D01*
X135218694Y-105565070D01*
X135266001Y-105327244D01*
X135266001Y-105084758D01*
X135218694Y-104846932D01*
X135125899Y-104622904D01*
X134991181Y-104421284D01*
X134819718Y-104249821D01*
X134618098Y-104115103D01*
X134394070Y-104022308D01*
X134156244Y-103975001D01*
X133913758Y-103975001D01*
X133675932Y-104022308D01*
X133451904Y-104115103D01*
X133250284Y-104249821D01*
X133078821Y-104421284D01*
X132944103Y-104622904D01*
X132851308Y-104846932D01*
X132804001Y-105084758D01*
X132804001Y-105327244D01*
X132851308Y-105565070D01*
X132944103Y-105789098D01*
X133078821Y-105990718D01*
X133083103Y-105995000D01*
X132446899Y-105995000D01*
X132451181Y-105990718D01*
X132585899Y-105789098D01*
X132678694Y-105565070D01*
X132726001Y-105327244D01*
X132726001Y-105084758D01*
X132678694Y-104846932D01*
X132585899Y-104622904D01*
X132451181Y-104421284D01*
X132279718Y-104249821D01*
X132078098Y-104115103D01*
X131854070Y-104022308D01*
X131616244Y-103975001D01*
X131373758Y-103975001D01*
X131135932Y-104022308D01*
X130911904Y-104115103D01*
X130710284Y-104249821D01*
X130538821Y-104421284D01*
X130404103Y-104622904D01*
X130311308Y-104846932D01*
X130264001Y-105084758D01*
X130264001Y-105327244D01*
X130311308Y-105565070D01*
X130404103Y-105789098D01*
X130538821Y-105990718D01*
X130543103Y-105995000D01*
X129906899Y-105995000D01*
X129911181Y-105990718D01*
X130045899Y-105789098D01*
X130138694Y-105565070D01*
X130186001Y-105327244D01*
X130186001Y-105084758D01*
X130138694Y-104846932D01*
X130045899Y-104622904D01*
X129911181Y-104421284D01*
X129739718Y-104249821D01*
X129538098Y-104115103D01*
X129314070Y-104022308D01*
X129076244Y-103975001D01*
X128833758Y-103975001D01*
X128595932Y-104022308D01*
X128371904Y-104115103D01*
X128170284Y-104249821D01*
X127998821Y-104421284D01*
X127864103Y-104622904D01*
X127771308Y-104846932D01*
X127724001Y-105084758D01*
X127724001Y-105327244D01*
X127771308Y-105565070D01*
X127864103Y-105789098D01*
X127998821Y-105990718D01*
X128003103Y-105995000D01*
X127366899Y-105995000D01*
X127371181Y-105990718D01*
X127505899Y-105789098D01*
X127598694Y-105565070D01*
X127646001Y-105327244D01*
X127646001Y-105084758D01*
X127598694Y-104846932D01*
X127505899Y-104622904D01*
X127371181Y-104421284D01*
X127199718Y-104249821D01*
X126998098Y-104115103D01*
X126774070Y-104022308D01*
X126536244Y-103975001D01*
X126293758Y-103975001D01*
X126055932Y-104022308D01*
X125831904Y-104115103D01*
X125630284Y-104249821D01*
X125458821Y-104421284D01*
X125324103Y-104622904D01*
X125231308Y-104846932D01*
X125184001Y-105084758D01*
X125184001Y-105327244D01*
X125231308Y-105565070D01*
X125324103Y-105789098D01*
X125458821Y-105990718D01*
X125463103Y-105995000D01*
X124826899Y-105995000D01*
X124831181Y-105990718D01*
X124965899Y-105789098D01*
X125058694Y-105565070D01*
X125106001Y-105327244D01*
X125106001Y-105084758D01*
X125058694Y-104846932D01*
X124965899Y-104622904D01*
X124831181Y-104421284D01*
X124659718Y-104249821D01*
X124458098Y-104115103D01*
X124234070Y-104022308D01*
X123996244Y-103975001D01*
X123753758Y-103975001D01*
X123515932Y-104022308D01*
X123291904Y-104115103D01*
X123090284Y-104249821D01*
X122918821Y-104421284D01*
X122784103Y-104622904D01*
X122740853Y-104727318D01*
X122685920Y-104572254D01*
X122612473Y-104434844D01*
X122363398Y-104357209D01*
X121514606Y-105206001D01*
X121528749Y-105220144D01*
X121349144Y-105399749D01*
X121335001Y-105385606D01*
X121320859Y-105399749D01*
X121141254Y-105220144D01*
X121155396Y-105206001D01*
X120306604Y-104357209D01*
X120057529Y-104434844D01*
X119931630Y-104698884D01*
X119926212Y-104720229D01*
X119885899Y-104622904D01*
X119751181Y-104421284D01*
X119579718Y-104249821D01*
X119471638Y-104177604D01*
X120486209Y-104177604D01*
X121335001Y-105026396D01*
X122183793Y-104177604D01*
X122106158Y-103928529D01*
X121842118Y-103802630D01*
X121558590Y-103730662D01*
X121266470Y-103715390D01*
X120976982Y-103757402D01*
X120701254Y-103855082D01*
X120563844Y-103928529D01*
X120486209Y-104177604D01*
X119471638Y-104177604D01*
X119378098Y-104115103D01*
X119154070Y-104022308D01*
X118916244Y-103975001D01*
X118673758Y-103975001D01*
X118435932Y-104022308D01*
X118211904Y-104115103D01*
X118010284Y-104249821D01*
X117838821Y-104421284D01*
X117704103Y-104622904D01*
X117611308Y-104846932D01*
X117564001Y-105084758D01*
X117564001Y-105327244D01*
X117611308Y-105565070D01*
X117704103Y-105789098D01*
X117838821Y-105990718D01*
X117843103Y-105995000D01*
X117206899Y-105995000D01*
X117211181Y-105990718D01*
X117345899Y-105789098D01*
X117438694Y-105565070D01*
X117486001Y-105327244D01*
X117486001Y-105084758D01*
X117438694Y-104846932D01*
X117345899Y-104622904D01*
X117211181Y-104421284D01*
X117039718Y-104249821D01*
X116838098Y-104115103D01*
X116763001Y-104083997D01*
X116763001Y-103411419D01*
X116923421Y-103251000D01*
X132613802Y-103251000D01*
X132638746Y-103253457D01*
X132663690Y-103251000D01*
X133960056Y-103251000D01*
X133985000Y-103253457D01*
X134009944Y-103251000D01*
X134009947Y-103251000D01*
X134084585Y-103243649D01*
X134180343Y-103214601D01*
X134268595Y-103167429D01*
X134345948Y-103103948D01*
X134361854Y-103084566D01*
X134707570Y-102738851D01*
X134726948Y-102722948D01*
X134745624Y-102700190D01*
X134790429Y-102645596D01*
X134837600Y-102557345D01*
X134840539Y-102547657D01*
X134866649Y-102461585D01*
X134874000Y-102386947D01*
X134874000Y-102386945D01*
X134876457Y-102362001D01*
X134874000Y-102337057D01*
X134874000Y-97873420D01*
X134957421Y-97790000D01*
X135375707Y-97790000D01*
X135309488Y-97889105D01*
G37*
X135309488Y-97889105D02*
X135254919Y-98020846D01*
X135227100Y-98160702D01*
X135227100Y-98303298D01*
X135254919Y-98443154D01*
X135309488Y-98574895D01*
X135388710Y-98693460D01*
X135489540Y-98794290D01*
X135608105Y-98873512D01*
X135739846Y-98928081D01*
X135879702Y-98955900D01*
X136022298Y-98955900D01*
X136162154Y-98928081D01*
X136293895Y-98873512D01*
X136412460Y-98794290D01*
X136513290Y-98693460D01*
X136592512Y-98574895D01*
X136647081Y-98443154D01*
X136657813Y-98389200D01*
X137635201Y-98389200D01*
X137646289Y-98402711D01*
X137704304Y-98450322D01*
X137770492Y-98485701D01*
X137842311Y-98507487D01*
X137917000Y-98514843D01*
X138303266Y-98514843D01*
X140298830Y-100510408D01*
X140313147Y-100527853D01*
X140330592Y-100542170D01*
X140370974Y-100575311D01*
X140382764Y-100584987D01*
X140462191Y-100627441D01*
X140548373Y-100653585D01*
X140615540Y-100660200D01*
X140615549Y-100660200D01*
X140637999Y-100662411D01*
X140660449Y-100660200D01*
X143190372Y-100660200D01*
X143212822Y-100662411D01*
X143235272Y-100660200D01*
X143235282Y-100660200D01*
X143302449Y-100653585D01*
X143388631Y-100627441D01*
X143468058Y-100584987D01*
X143537675Y-100527853D01*
X143551996Y-100510403D01*
X144209408Y-99852992D01*
X144226853Y-99838675D01*
X144283987Y-99769058D01*
X144326441Y-99689631D01*
X144352585Y-99603449D01*
X144359200Y-99536282D01*
X144359200Y-99536272D01*
X144361411Y-99513822D01*
X144359200Y-99491372D01*
X144359200Y-99333294D01*
X144364773Y-99334985D01*
X144431940Y-99341600D01*
X144431948Y-99341600D01*
X144454400Y-99343811D01*
X144476852Y-99341600D01*
X145021052Y-99341600D01*
X144953540Y-99386710D01*
X144852710Y-99487540D01*
X144773488Y-99606105D01*
X144718919Y-99737846D01*
X144691100Y-99877702D01*
X144691100Y-100020298D01*
X144718919Y-100160154D01*
X144773488Y-100291895D01*
X144852710Y-100410460D01*
X144953540Y-100511290D01*
X145072105Y-100590512D01*
X145203846Y-100645081D01*
X145343702Y-100672900D01*
X145486298Y-100672900D01*
X145626154Y-100645081D01*
X145757895Y-100590512D01*
X145876460Y-100511290D01*
X145977290Y-100410460D01*
X145980136Y-100406200D01*
X146123963Y-100406200D01*
X146106989Y-100431604D01*
X146052420Y-100563345D01*
X146024601Y-100703201D01*
X146024601Y-100845797D01*
X146052420Y-100985653D01*
X146106989Y-101117394D01*
X146186211Y-101235959D01*
X146277802Y-101327550D01*
X146277801Y-104062955D01*
X146151904Y-104115103D01*
X145950284Y-104249821D01*
X145778821Y-104421284D01*
X145644103Y-104622904D01*
X145551308Y-104846932D01*
X145504001Y-105084758D01*
X145504001Y-105327244D01*
X145551308Y-105565070D01*
X145644103Y-105789098D01*
X145778821Y-105990718D01*
X145783103Y-105995000D01*
X145146899Y-105995000D01*
X145151181Y-105990718D01*
X145285899Y-105789098D01*
X145378694Y-105565070D01*
X145426001Y-105327244D01*
X145426001Y-105084758D01*
X145378694Y-104846932D01*
X145285899Y-104622904D01*
X145151181Y-104421284D01*
X144979718Y-104249821D01*
X144778098Y-104115103D01*
X144554070Y-104022308D01*
X144316244Y-103975001D01*
X144073758Y-103975001D01*
X143835932Y-104022308D01*
X143611904Y-104115103D01*
X143410284Y-104249821D01*
X143238821Y-104421284D01*
X143104103Y-104622904D01*
X143011308Y-104846932D01*
X142964001Y-105084758D01*
X142964001Y-105327244D01*
X143011308Y-105565070D01*
X143104103Y-105789098D01*
X143238821Y-105990718D01*
X143243103Y-105995000D01*
X142606899Y-105995000D01*
X142611181Y-105990718D01*
X142745899Y-105789098D01*
X142838694Y-105565070D01*
X142886001Y-105327244D01*
X142886001Y-105084758D01*
X142838694Y-104846932D01*
X142745899Y-104622904D01*
X142611181Y-104421284D01*
X142439718Y-104249821D01*
X142238098Y-104115103D01*
X142014070Y-104022308D01*
X141776244Y-103975001D01*
X141533758Y-103975001D01*
X141295932Y-104022308D01*
X141071904Y-104115103D01*
X140870284Y-104249821D01*
X140698821Y-104421284D01*
X140564103Y-104622904D01*
X140471308Y-104846932D01*
X140424001Y-105084758D01*
X140424001Y-105327244D01*
X140471308Y-105565070D01*
X140564103Y-105789098D01*
X140698821Y-105990718D01*
X140703103Y-105995000D01*
X140066899Y-105995000D01*
X140071181Y-105990718D01*
X140205899Y-105789098D01*
X140298694Y-105565070D01*
X140346001Y-105327244D01*
X140346001Y-105084758D01*
X140298694Y-104846932D01*
X140205899Y-104622904D01*
X140071181Y-104421284D01*
X139899718Y-104249821D01*
X139698098Y-104115103D01*
X139474070Y-104022308D01*
X139236244Y-103975001D01*
X138993758Y-103975001D01*
X138755932Y-104022308D01*
X138531904Y-104115103D01*
X138330284Y-104249821D01*
X138158821Y-104421284D01*
X138024103Y-104622904D01*
X137931308Y-104846932D01*
X137884001Y-105084758D01*
X137884001Y-105327244D01*
X137931308Y-105565070D01*
X138024103Y-105789098D01*
X138158821Y-105990718D01*
X138163103Y-105995000D01*
X137526899Y-105995000D01*
X137531181Y-105990718D01*
X137665899Y-105789098D01*
X137758694Y-105565070D01*
X137806001Y-105327244D01*
X137806001Y-105084758D01*
X137758694Y-104846932D01*
X137665899Y-104622904D01*
X137531181Y-104421284D01*
X137359718Y-104249821D01*
X137158098Y-104115103D01*
X136934070Y-104022308D01*
X136696244Y-103975001D01*
X136453758Y-103975001D01*
X136215932Y-104022308D01*
X135991904Y-104115103D01*
X135790284Y-104249821D01*
X135618821Y-104421284D01*
X135484103Y-104622904D01*
X135391308Y-104846932D01*
X135344001Y-105084758D01*
X135344001Y-105327244D01*
X135391308Y-105565070D01*
X135484103Y-105789098D01*
X135618821Y-105990718D01*
X135623103Y-105995000D01*
X134986899Y-105995000D01*
X134991181Y-105990718D01*
X135125899Y-105789098D01*
X135218694Y-105565070D01*
X135266001Y-105327244D01*
X135266001Y-105084758D01*
X135218694Y-104846932D01*
X135125899Y-104622904D01*
X134991181Y-104421284D01*
X134819718Y-104249821D01*
X134618098Y-104115103D01*
X134394070Y-104022308D01*
X134156244Y-103975001D01*
X133913758Y-103975001D01*
X133675932Y-104022308D01*
X133451904Y-104115103D01*
X133250284Y-104249821D01*
X133078821Y-104421284D01*
X132944103Y-104622904D01*
X132851308Y-104846932D01*
X132804001Y-105084758D01*
X132804001Y-105327244D01*
X132851308Y-105565070D01*
X132944103Y-105789098D01*
X133078821Y-105990718D01*
X133083103Y-105995000D01*
X132446899Y-105995000D01*
X132451181Y-105990718D01*
X132585899Y-105789098D01*
X132678694Y-105565070D01*
X132726001Y-105327244D01*
X132726001Y-105084758D01*
X132678694Y-104846932D01*
X132585899Y-104622904D01*
X132451181Y-104421284D01*
X132279718Y-104249821D01*
X132078098Y-104115103D01*
X131854070Y-104022308D01*
X131616244Y-103975001D01*
X131373758Y-103975001D01*
X131135932Y-104022308D01*
X130911904Y-104115103D01*
X130710284Y-104249821D01*
X130538821Y-104421284D01*
X130404103Y-104622904D01*
X130311308Y-104846932D01*
X130264001Y-105084758D01*
X130264001Y-105327244D01*
X130311308Y-105565070D01*
X130404103Y-105789098D01*
X130538821Y-105990718D01*
X130543103Y-105995000D01*
X129906899Y-105995000D01*
X129911181Y-105990718D01*
X130045899Y-105789098D01*
X130138694Y-105565070D01*
X130186001Y-105327244D01*
X130186001Y-105084758D01*
X130138694Y-104846932D01*
X130045899Y-104622904D01*
X129911181Y-104421284D01*
X129739718Y-104249821D01*
X129538098Y-104115103D01*
X129314070Y-104022308D01*
X129076244Y-103975001D01*
X128833758Y-103975001D01*
X128595932Y-104022308D01*
X128371904Y-104115103D01*
X128170284Y-104249821D01*
X127998821Y-104421284D01*
X127864103Y-104622904D01*
X127771308Y-104846932D01*
X127724001Y-105084758D01*
X127724001Y-105327244D01*
X127771308Y-105565070D01*
X127864103Y-105789098D01*
X127998821Y-105990718D01*
X128003103Y-105995000D01*
X127366899Y-105995000D01*
X127371181Y-105990718D01*
X127505899Y-105789098D01*
X127598694Y-105565070D01*
X127646001Y-105327244D01*
X127646001Y-105084758D01*
X127598694Y-104846932D01*
X127505899Y-104622904D01*
X127371181Y-104421284D01*
X127199718Y-104249821D01*
X126998098Y-104115103D01*
X126774070Y-104022308D01*
X126536244Y-103975001D01*
X126293758Y-103975001D01*
X126055932Y-104022308D01*
X125831904Y-104115103D01*
X125630284Y-104249821D01*
X125458821Y-104421284D01*
X125324103Y-104622904D01*
X125231308Y-104846932D01*
X125184001Y-105084758D01*
X125184001Y-105327244D01*
X125231308Y-105565070D01*
X125324103Y-105789098D01*
X125458821Y-105990718D01*
X125463103Y-105995000D01*
X124826899Y-105995000D01*
X124831181Y-105990718D01*
X124965899Y-105789098D01*
X125058694Y-105565070D01*
X125106001Y-105327244D01*
X125106001Y-105084758D01*
X125058694Y-104846932D01*
X124965899Y-104622904D01*
X124831181Y-104421284D01*
X124659718Y-104249821D01*
X124458098Y-104115103D01*
X124234070Y-104022308D01*
X123996244Y-103975001D01*
X123753758Y-103975001D01*
X123515932Y-104022308D01*
X123291904Y-104115103D01*
X123090284Y-104249821D01*
X122918821Y-104421284D01*
X122784103Y-104622904D01*
X122740853Y-104727318D01*
X122685920Y-104572254D01*
X122612473Y-104434844D01*
X122363398Y-104357209D01*
X121514606Y-105206001D01*
X121528749Y-105220144D01*
X121349144Y-105399749D01*
X121335001Y-105385606D01*
X121320859Y-105399749D01*
X121141254Y-105220144D01*
X121155396Y-105206001D01*
X120306604Y-104357209D01*
X120057529Y-104434844D01*
X119931630Y-104698884D01*
X119926212Y-104720229D01*
X119885899Y-104622904D01*
X119751181Y-104421284D01*
X119579718Y-104249821D01*
X119471638Y-104177604D01*
X120486209Y-104177604D01*
X121335001Y-105026396D01*
X122183793Y-104177604D01*
X122106158Y-103928529D01*
X121842118Y-103802630D01*
X121558590Y-103730662D01*
X121266470Y-103715390D01*
X120976982Y-103757402D01*
X120701254Y-103855082D01*
X120563844Y-103928529D01*
X120486209Y-104177604D01*
X119471638Y-104177604D01*
X119378098Y-104115103D01*
X119154070Y-104022308D01*
X118916244Y-103975001D01*
X118673758Y-103975001D01*
X118435932Y-104022308D01*
X118211904Y-104115103D01*
X118010284Y-104249821D01*
X117838821Y-104421284D01*
X117704103Y-104622904D01*
X117611308Y-104846932D01*
X117564001Y-105084758D01*
X117564001Y-105327244D01*
X117611308Y-105565070D01*
X117704103Y-105789098D01*
X117838821Y-105990718D01*
X117843103Y-105995000D01*
X117206899Y-105995000D01*
X117211181Y-105990718D01*
X117345899Y-105789098D01*
X117438694Y-105565070D01*
X117486001Y-105327244D01*
X117486001Y-105084758D01*
X117438694Y-104846932D01*
X117345899Y-104622904D01*
X117211181Y-104421284D01*
X117039718Y-104249821D01*
X116838098Y-104115103D01*
X116763001Y-104083997D01*
X116763001Y-103411419D01*
X116923421Y-103251000D01*
X132613802Y-103251000D01*
X132638746Y-103253457D01*
X132663690Y-103251000D01*
X133960056Y-103251000D01*
X133985000Y-103253457D01*
X134009944Y-103251000D01*
X134009947Y-103251000D01*
X134084585Y-103243649D01*
X134180343Y-103214601D01*
X134268595Y-103167429D01*
X134345948Y-103103948D01*
X134361854Y-103084566D01*
X134707570Y-102738851D01*
X134726948Y-102722948D01*
X134745624Y-102700190D01*
X134790429Y-102645596D01*
X134837600Y-102557345D01*
X134840539Y-102547657D01*
X134866649Y-102461585D01*
X134874000Y-102386947D01*
X134874000Y-102386945D01*
X134876457Y-102362001D01*
X134874000Y-102337057D01*
X134874000Y-97873420D01*
X134957421Y-97790000D01*
X135375707Y-97790000D01*
X135309488Y-97889105D01*
G36*
X112849513Y-84025311D02*
G01*
X112842157Y-84100000D01*
X112842157Y-84900000D01*
X112849513Y-84974689D01*
X112871299Y-85046508D01*
X112906678Y-85112696D01*
X112954289Y-85170711D01*
X113012304Y-85218322D01*
X113078492Y-85253701D01*
X113150311Y-85275487D01*
X113225000Y-85282843D01*
X114336555Y-85282843D01*
X114298815Y-85313815D01*
X114219463Y-85410506D01*
X114160498Y-85520820D01*
X114124188Y-85640518D01*
X114111928Y-85765000D01*
X114115000Y-86114250D01*
X114273750Y-86273000D01*
X115073000Y-86273000D01*
X115073000Y-85288750D01*
X115327000Y-85288750D01*
X115327000Y-86273000D01*
X116126250Y-86273000D01*
X116285000Y-86114250D01*
X116288072Y-85765000D01*
X116275812Y-85640518D01*
X116239502Y-85520820D01*
X116180537Y-85410506D01*
X116101185Y-85313815D01*
X116004494Y-85234463D01*
X115894180Y-85175498D01*
X115774482Y-85139188D01*
X115650000Y-85126928D01*
X115485750Y-85130000D01*
X115327000Y-85288750D01*
X115073000Y-85288750D01*
X114949880Y-85165630D01*
X114993322Y-85112696D01*
X115028701Y-85046508D01*
X115050487Y-84974689D01*
X115057843Y-84900000D01*
X115057843Y-84100000D01*
X115050487Y-84025311D01*
X115041899Y-83997000D01*
X119558101Y-83997000D01*
X119549513Y-84025311D01*
X119542157Y-84100000D01*
X119542157Y-84900000D01*
X119549513Y-84974689D01*
X119571299Y-85046508D01*
X119606678Y-85112696D01*
X119654289Y-85170711D01*
X119712304Y-85218322D01*
X119778492Y-85253701D01*
X119850311Y-85275487D01*
X119925000Y-85282843D01*
X121375000Y-85282843D01*
X121449689Y-85275487D01*
X121521508Y-85253701D01*
X121587696Y-85218322D01*
X121645711Y-85170711D01*
X121693322Y-85112696D01*
X121728701Y-85046508D01*
X121750487Y-84974689D01*
X121757843Y-84900000D01*
X121757843Y-84100000D01*
X121750487Y-84025311D01*
X121741899Y-83997000D01*
X123023105Y-83997000D01*
X122918821Y-84101284D01*
X122784103Y-84302904D01*
X122691308Y-84526932D01*
X122644001Y-84764758D01*
X122644001Y-85007244D01*
X122691308Y-85245070D01*
X122784103Y-85469098D01*
X122918821Y-85670718D01*
X123090284Y-85842181D01*
X123291904Y-85976899D01*
X123515932Y-86069694D01*
X123753758Y-86117001D01*
X123996244Y-86117001D01*
X124234070Y-86069694D01*
X124458098Y-85976899D01*
X124659718Y-85842181D01*
X124831181Y-85670718D01*
X124965899Y-85469098D01*
X125058694Y-85245070D01*
X125106001Y-85007244D01*
X125106001Y-84764758D01*
X125058694Y-84526932D01*
X124965899Y-84302904D01*
X124831181Y-84101284D01*
X124726897Y-83997000D01*
X125563105Y-83997000D01*
X125458821Y-84101284D01*
X125324103Y-84302904D01*
X125231308Y-84526932D01*
X125184001Y-84764758D01*
X125184001Y-85007244D01*
X125231308Y-85245070D01*
X125324103Y-85469098D01*
X125458821Y-85670718D01*
X125630284Y-85842181D01*
X125831904Y-85976899D01*
X126055932Y-86069694D01*
X126293758Y-86117001D01*
X126536244Y-86117001D01*
X126774070Y-86069694D01*
X126998098Y-85976899D01*
X127199718Y-85842181D01*
X127371181Y-85670718D01*
X127505899Y-85469098D01*
X127598694Y-85245070D01*
X127646001Y-85007244D01*
X127646001Y-84764758D01*
X127598694Y-84526932D01*
X127505899Y-84302904D01*
X127371181Y-84101284D01*
X127266897Y-83997000D01*
X128103105Y-83997000D01*
X127998821Y-84101284D01*
X127864103Y-84302904D01*
X127771308Y-84526932D01*
X127724001Y-84764758D01*
X127724001Y-85007244D01*
X127771308Y-85245070D01*
X127864103Y-85469098D01*
X127998821Y-85670718D01*
X128170284Y-85842181D01*
X128371904Y-85976899D01*
X128595932Y-86069694D01*
X128833758Y-86117001D01*
X129076244Y-86117001D01*
X129314070Y-86069694D01*
X129538098Y-85976899D01*
X129739718Y-85842181D01*
X129911181Y-85670718D01*
X130045899Y-85469098D01*
X130138694Y-85245070D01*
X130186001Y-85007244D01*
X130186001Y-84764758D01*
X130138694Y-84526932D01*
X130045899Y-84302904D01*
X129911181Y-84101284D01*
X129806897Y-83997000D01*
X130643105Y-83997000D01*
X130538821Y-84101284D01*
X130404103Y-84302904D01*
X130311308Y-84526932D01*
X130264001Y-84764758D01*
X130264001Y-85007244D01*
X130311308Y-85245070D01*
X130404103Y-85469098D01*
X130538821Y-85670718D01*
X130710284Y-85842181D01*
X130911904Y-85976899D01*
X131135932Y-86069694D01*
X131373758Y-86117001D01*
X131616244Y-86117001D01*
X131854070Y-86069694D01*
X132078098Y-85976899D01*
X132279718Y-85842181D01*
X132451181Y-85670718D01*
X132585899Y-85469098D01*
X132678694Y-85245070D01*
X132726001Y-85007244D01*
X132726001Y-84764758D01*
X132678694Y-84526932D01*
X132585899Y-84302904D01*
X132451181Y-84101284D01*
X132346897Y-83997000D01*
X133183105Y-83997000D01*
X133078821Y-84101284D01*
X132944103Y-84302904D01*
X132851308Y-84526932D01*
X132804001Y-84764758D01*
X132804001Y-85007244D01*
X132851308Y-85245070D01*
X132944103Y-85469098D01*
X133078821Y-85670718D01*
X133250284Y-85842181D01*
X133451904Y-85976899D01*
X133675932Y-86069694D01*
X133913758Y-86117001D01*
X134156244Y-86117001D01*
X134394070Y-86069694D01*
X134618098Y-85976899D01*
X134819718Y-85842181D01*
X134991181Y-85670718D01*
X135125899Y-85469098D01*
X135218694Y-85245070D01*
X135266001Y-85007244D01*
X135266001Y-84764758D01*
X135218694Y-84526932D01*
X135125899Y-84302904D01*
X134991181Y-84101284D01*
X134886897Y-83997000D01*
X135723105Y-83997000D01*
X135618821Y-84101284D01*
X135484103Y-84302904D01*
X135391308Y-84526932D01*
X135344001Y-84764758D01*
X135344001Y-85007244D01*
X135391308Y-85245070D01*
X135484103Y-85469098D01*
X135618821Y-85670718D01*
X135790284Y-85842181D01*
X135991904Y-85976899D01*
X136215932Y-86069694D01*
X136453758Y-86117001D01*
X136696244Y-86117001D01*
X136934070Y-86069694D01*
X137158098Y-85976899D01*
X137359718Y-85842181D01*
X137531181Y-85670718D01*
X137665899Y-85469098D01*
X137758694Y-85245070D01*
X137806001Y-85007244D01*
X137806001Y-84764758D01*
X137758694Y-84526932D01*
X137665899Y-84302904D01*
X137531181Y-84101284D01*
X137426897Y-83997000D01*
X138263105Y-83997000D01*
X138158821Y-84101284D01*
X138024103Y-84302904D01*
X137931308Y-84526932D01*
X137884001Y-84764758D01*
X137884001Y-85007244D01*
X137931308Y-85245070D01*
X138024103Y-85469098D01*
X138158821Y-85670718D01*
X138330284Y-85842181D01*
X138531904Y-85976899D01*
X138755932Y-86069694D01*
X138993758Y-86117001D01*
X139236244Y-86117001D01*
X139474070Y-86069694D01*
X139698098Y-85976899D01*
X139899718Y-85842181D01*
X140071181Y-85670718D01*
X140205899Y-85469098D01*
X140298694Y-85245070D01*
X140346001Y-85007244D01*
X140346001Y-84764758D01*
X140298694Y-84526932D01*
X140205899Y-84302904D01*
X140071181Y-84101284D01*
X139966897Y-83997000D01*
X140803105Y-83997000D01*
X140698821Y-84101284D01*
X140564103Y-84302904D01*
X140471308Y-84526932D01*
X140424001Y-84764758D01*
X140424001Y-85007244D01*
X140471308Y-85245070D01*
X140564103Y-85469098D01*
X140698821Y-85670718D01*
X140870284Y-85842181D01*
X141071904Y-85976899D01*
X141295932Y-86069694D01*
X141533758Y-86117001D01*
X141776244Y-86117001D01*
X142014070Y-86069694D01*
X142238098Y-85976899D01*
X142439718Y-85842181D01*
X142611181Y-85670718D01*
X142745899Y-85469098D01*
X142838694Y-85245070D01*
X142886001Y-85007244D01*
X142886001Y-84764758D01*
X142838694Y-84526932D01*
X142745899Y-84302904D01*
X142611181Y-84101284D01*
X142506897Y-83997000D01*
X143343105Y-83997000D01*
X143238821Y-84101284D01*
X143104103Y-84302904D01*
X143011308Y-84526932D01*
X142964001Y-84764758D01*
X142964001Y-85007244D01*
X143011308Y-85245070D01*
X143104103Y-85469098D01*
X143238821Y-85670718D01*
X143410284Y-85842181D01*
X143611904Y-85976899D01*
X143835932Y-86069694D01*
X144073758Y-86117001D01*
X144316244Y-86117001D01*
X144554070Y-86069694D01*
X144778098Y-85976899D01*
X144979718Y-85842181D01*
X145151181Y-85670718D01*
X145285899Y-85469098D01*
X145378694Y-85245070D01*
X145426001Y-85007244D01*
X145426001Y-84764758D01*
X145378694Y-84526932D01*
X145285899Y-84302904D01*
X145151181Y-84101284D01*
X145046897Y-83997000D01*
X145883105Y-83997000D01*
X145778821Y-84101284D01*
X145644103Y-84302904D01*
X145551308Y-84526932D01*
X145504001Y-84764758D01*
X145504001Y-85007244D01*
X145551308Y-85245070D01*
X145644103Y-85469098D01*
X145778821Y-85670718D01*
X145950284Y-85842181D01*
X146151904Y-85976899D01*
X146375932Y-86069694D01*
X146613758Y-86117001D01*
X146856244Y-86117001D01*
X147094070Y-86069694D01*
X147318098Y-85976899D01*
X147519718Y-85842181D01*
X147691181Y-85670718D01*
X147825899Y-85469098D01*
X147918694Y-85245070D01*
X147966001Y-85007244D01*
X147966001Y-84764758D01*
X147918694Y-84526932D01*
X147825899Y-84302904D01*
X147691181Y-84101284D01*
X147586897Y-83997000D01*
X148423105Y-83997000D01*
X148318821Y-84101284D01*
X148184103Y-84302904D01*
X148091308Y-84526932D01*
X148044001Y-84764758D01*
X148044001Y-85007244D01*
X148091308Y-85245070D01*
X148184103Y-85469098D01*
X148318821Y-85670718D01*
X148490284Y-85842181D01*
X148691904Y-85976899D01*
X148915932Y-86069694D01*
X149153758Y-86117001D01*
X149396244Y-86117001D01*
X149634070Y-86069694D01*
X149858098Y-85976899D01*
X150059718Y-85842181D01*
X150231181Y-85670718D01*
X150365899Y-85469098D01*
X150458694Y-85245070D01*
X150506001Y-85007244D01*
X150506001Y-84764758D01*
X150458694Y-84526932D01*
X150365899Y-84302904D01*
X150231181Y-84101284D01*
X150126897Y-83997000D01*
X150963105Y-83997000D01*
X150858821Y-84101284D01*
X150724103Y-84302904D01*
X150631308Y-84526932D01*
X150584001Y-84764758D01*
X150584001Y-85007244D01*
X150631308Y-85245070D01*
X150724103Y-85469098D01*
X150858821Y-85670718D01*
X151030284Y-85842181D01*
X151231904Y-85976899D01*
X151357802Y-86029047D01*
X151357801Y-87263620D01*
X151067622Y-87553800D01*
X143174516Y-87553800D01*
X143152066Y-87551589D01*
X143129616Y-87553800D01*
X143129607Y-87553800D01*
X143062440Y-87560415D01*
X142976258Y-87586559D01*
X142948539Y-87601375D01*
X142896830Y-87629013D01*
X142858084Y-87660812D01*
X142827214Y-87686147D01*
X142812897Y-87703592D01*
X142186592Y-88329898D01*
X142169148Y-88344214D01*
X142154831Y-88361659D01*
X142154830Y-88361660D01*
X142112013Y-88413832D01*
X142069560Y-88493258D01*
X142043416Y-88579441D01*
X142042889Y-88584795D01*
X142032540Y-88591710D01*
X141931710Y-88692540D01*
X141852488Y-88811105D01*
X141797919Y-88942846D01*
X141770100Y-89082702D01*
X141770100Y-89225298D01*
X141797919Y-89365154D01*
X141852488Y-89496895D01*
X141931710Y-89615460D01*
X142032540Y-89716290D01*
X142151105Y-89795512D01*
X142282846Y-89850081D01*
X142422702Y-89877900D01*
X142565298Y-89877900D01*
X142705154Y-89850081D01*
X142836895Y-89795512D01*
X142955460Y-89716290D01*
X143056290Y-89615460D01*
X143135512Y-89496895D01*
X143190081Y-89365154D01*
X143217900Y-89225298D01*
X143217900Y-89082702D01*
X143190081Y-88942846D01*
X143135512Y-88811105D01*
X143080649Y-88728996D01*
X143341445Y-88468200D01*
X151234550Y-88468200D01*
X151257000Y-88470411D01*
X151279450Y-88468200D01*
X151279460Y-88468200D01*
X151346627Y-88461585D01*
X151432809Y-88435441D01*
X151512236Y-88392987D01*
X151581853Y-88335853D01*
X151596174Y-88318403D01*
X152122415Y-87792163D01*
X152139854Y-87777852D01*
X152154166Y-87760413D01*
X152154172Y-87760407D01*
X152196988Y-87708235D01*
X152239442Y-87628809D01*
X152252258Y-87586560D01*
X152265586Y-87542626D01*
X152272201Y-87475459D01*
X152272201Y-87475449D01*
X152274412Y-87452999D01*
X152272201Y-87430549D01*
X152272201Y-86029047D01*
X152353526Y-85995361D01*
X153994001Y-85995361D01*
X153994001Y-86316641D01*
X154056679Y-86631746D01*
X154179627Y-86928569D01*
X154358120Y-87195703D01*
X154585299Y-87422882D01*
X154852433Y-87601375D01*
X155149256Y-87724323D01*
X155464361Y-87787001D01*
X155785641Y-87787001D01*
X156100746Y-87724323D01*
X156397569Y-87601375D01*
X156664703Y-87422882D01*
X156891882Y-87195703D01*
X157070375Y-86928569D01*
X157193323Y-86631746D01*
X157256001Y-86316641D01*
X157256001Y-85995361D01*
X157193323Y-85680256D01*
X157070375Y-85383433D01*
X156891882Y-85116299D01*
X156664703Y-84889120D01*
X156397569Y-84710627D01*
X156100746Y-84587679D01*
X155785641Y-84525001D01*
X155464361Y-84525001D01*
X155149256Y-84587679D01*
X154852433Y-84710627D01*
X154585299Y-84889120D01*
X154358120Y-85116299D01*
X154179627Y-85383433D01*
X154056679Y-85680256D01*
X153994001Y-85995361D01*
X152353526Y-85995361D01*
X152398098Y-85976899D01*
X152599718Y-85842181D01*
X152771181Y-85670718D01*
X152905899Y-85469098D01*
X152998694Y-85245070D01*
X153046001Y-85007244D01*
X153046001Y-84764758D01*
X152998694Y-84526932D01*
X152905899Y-84302904D01*
X152771181Y-84101284D01*
X152666897Y-83997000D01*
X155680921Y-83997000D01*
X156111238Y-84039193D01*
X156504893Y-84158044D01*
X156867957Y-84351089D01*
X157186615Y-84610979D01*
X157448728Y-84927820D01*
X157644303Y-85289528D01*
X157765899Y-85682343D01*
X157811001Y-86111456D01*
X157811001Y-88897920D01*
X157795711Y-88879289D01*
X157737696Y-88831678D01*
X157671508Y-88796299D01*
X157599689Y-88774513D01*
X157525000Y-88767157D01*
X154125000Y-88767157D01*
X154050311Y-88774513D01*
X153978492Y-88796299D01*
X153912304Y-88831678D01*
X153854289Y-88879289D01*
X153806678Y-88937304D01*
X153771299Y-89003492D01*
X153749513Y-89075311D01*
X153742157Y-89150000D01*
X153742157Y-90650000D01*
X153749513Y-90724689D01*
X153771299Y-90796508D01*
X153806678Y-90862696D01*
X153854289Y-90920711D01*
X153912304Y-90968322D01*
X153978492Y-91003701D01*
X154050311Y-91025487D01*
X154125000Y-91032843D01*
X157525000Y-91032843D01*
X157599689Y-91025487D01*
X157671508Y-91003701D01*
X157737696Y-90968322D01*
X157795711Y-90920711D01*
X157811001Y-90902080D01*
X157811000Y-99597919D01*
X157795711Y-99579289D01*
X157737696Y-99531678D01*
X157671508Y-99496299D01*
X157599689Y-99474513D01*
X157525000Y-99467157D01*
X154125000Y-99467157D01*
X154050311Y-99474513D01*
X153978492Y-99496299D01*
X153912304Y-99531678D01*
X153854289Y-99579289D01*
X153806678Y-99637304D01*
X153771299Y-99703492D01*
X153749513Y-99775311D01*
X153742157Y-99850000D01*
X153742157Y-101350000D01*
X153749513Y-101424689D01*
X153771299Y-101496508D01*
X153806678Y-101562696D01*
X153854289Y-101620711D01*
X153912304Y-101668322D01*
X153978492Y-101703701D01*
X154050311Y-101725487D01*
X154125000Y-101732843D01*
X157525000Y-101732843D01*
X157599689Y-101725487D01*
X157671508Y-101703701D01*
X157737696Y-101668322D01*
X157795711Y-101620711D01*
X157811000Y-101602081D01*
X157811000Y-103864921D01*
X157768807Y-104295237D01*
X157649957Y-104688889D01*
X157456911Y-105051957D01*
X157197018Y-105370617D01*
X156880183Y-105632726D01*
X156518472Y-105828303D01*
X156125658Y-105949899D01*
X155696554Y-105995000D01*
X152766899Y-105995000D01*
X152771181Y-105990718D01*
X152905899Y-105789098D01*
X152998694Y-105565070D01*
X153046001Y-105327244D01*
X153046001Y-105084758D01*
X152998694Y-104846932D01*
X152905899Y-104622904D01*
X152771181Y-104421284D01*
X152599718Y-104249821D01*
X152398098Y-104115103D01*
X152174070Y-104022308D01*
X151936244Y-103975001D01*
X151693758Y-103975001D01*
X151455932Y-104022308D01*
X151231904Y-104115103D01*
X151030284Y-104249821D01*
X150858821Y-104421284D01*
X150724103Y-104622904D01*
X150631308Y-104846932D01*
X150584001Y-105084758D01*
X150584001Y-105327244D01*
X150631308Y-105565070D01*
X150724103Y-105789098D01*
X150858821Y-105990718D01*
X150863103Y-105995000D01*
X150226899Y-105995000D01*
X150231181Y-105990718D01*
X150365899Y-105789098D01*
X150458694Y-105565070D01*
X150506001Y-105327244D01*
X150506001Y-105084758D01*
X150458694Y-104846932D01*
X150365899Y-104622904D01*
X150231181Y-104421284D01*
X150059718Y-104249821D01*
X149858098Y-104115103D01*
X149732201Y-104062955D01*
X149732201Y-104026369D01*
X149734412Y-104003919D01*
X149732201Y-103981470D01*
X149732201Y-103981460D01*
X149725586Y-103914293D01*
X149699442Y-103828111D01*
X149682200Y-103795853D01*
X149682200Y-103775361D01*
X153994001Y-103775361D01*
X153994001Y-104096641D01*
X154056679Y-104411746D01*
X154179627Y-104708569D01*
X154358120Y-104975703D01*
X154585299Y-105202882D01*
X154852433Y-105381375D01*
X155149256Y-105504323D01*
X155464361Y-105567001D01*
X155785641Y-105567001D01*
X156100746Y-105504323D01*
X156397569Y-105381375D01*
X156664703Y-105202882D01*
X156891882Y-104975703D01*
X157070375Y-104708569D01*
X157193323Y-104411746D01*
X157256001Y-104096641D01*
X157256001Y-103775361D01*
X157193323Y-103460256D01*
X157070375Y-103163433D01*
X156891882Y-102896299D01*
X156664703Y-102669120D01*
X156397569Y-102490627D01*
X156100746Y-102367679D01*
X155785641Y-102305001D01*
X155464361Y-102305001D01*
X155149256Y-102367679D01*
X154852433Y-102490627D01*
X154585299Y-102669120D01*
X154358120Y-102896299D01*
X154179627Y-103163433D01*
X154056679Y-103460256D01*
X153994001Y-103775361D01*
X149682200Y-103775361D01*
X149682200Y-100606450D01*
X149684411Y-100584000D01*
X149682200Y-100561550D01*
X149682200Y-100561540D01*
X149675585Y-100494373D01*
X149655526Y-100428249D01*
X149649441Y-100408190D01*
X149606987Y-100328764D01*
X149564171Y-100276592D01*
X149564165Y-100276586D01*
X149549853Y-100259147D01*
X149532413Y-100244834D01*
X148929174Y-99641597D01*
X148914853Y-99624147D01*
X148845236Y-99567013D01*
X148765809Y-99524559D01*
X148679627Y-99498415D01*
X148612460Y-99491800D01*
X148612450Y-99491800D01*
X148590000Y-99489589D01*
X148567550Y-99491800D01*
X145980136Y-99491800D01*
X145977290Y-99487540D01*
X145876460Y-99386710D01*
X145808948Y-99341600D01*
X147727750Y-99341600D01*
X147750200Y-99343811D01*
X147772650Y-99341600D01*
X147772660Y-99341600D01*
X147839827Y-99334985D01*
X147926009Y-99308841D01*
X148005436Y-99266387D01*
X148075053Y-99209253D01*
X148089374Y-99191803D01*
X148177830Y-99103347D01*
X148178492Y-99103701D01*
X148250311Y-99125487D01*
X148325000Y-99132843D01*
X151825000Y-99132843D01*
X151899689Y-99125487D01*
X151971508Y-99103701D01*
X152037696Y-99068322D01*
X152095711Y-99020711D01*
X152143322Y-98962696D01*
X152178701Y-98896508D01*
X152200487Y-98824689D01*
X152207843Y-98750000D01*
X152207843Y-98707200D01*
X152384864Y-98707200D01*
X152387710Y-98711460D01*
X152488540Y-98812290D01*
X152607105Y-98891512D01*
X152738846Y-98946081D01*
X152878702Y-98973900D01*
X153021298Y-98973900D01*
X153161154Y-98946081D01*
X153292895Y-98891512D01*
X153411460Y-98812290D01*
X153512290Y-98711460D01*
X153591512Y-98592895D01*
X153646081Y-98461154D01*
X153673900Y-98321298D01*
X153673900Y-98178702D01*
X153646081Y-98038846D01*
X153591512Y-97907105D01*
X153512290Y-97788540D01*
X153411460Y-97687710D01*
X153292895Y-97608488D01*
X153161154Y-97553919D01*
X153021298Y-97526100D01*
X152878702Y-97526100D01*
X152738846Y-97553919D01*
X152607105Y-97608488D01*
X152488540Y-97687710D01*
X152387710Y-97788540D01*
X152384864Y-97792800D01*
X152207843Y-97792800D01*
X152207843Y-97750000D01*
X152200487Y-97675311D01*
X152178701Y-97603492D01*
X152143322Y-97537304D01*
X152095711Y-97479289D01*
X152037696Y-97431678D01*
X151971508Y-97396299D01*
X151899689Y-97374513D01*
X151825000Y-97367157D01*
X148325000Y-97367157D01*
X148250311Y-97374513D01*
X148178492Y-97396299D01*
X148112304Y-97431678D01*
X148054289Y-97479289D01*
X148006678Y-97537304D01*
X147971299Y-97603492D01*
X147949513Y-97675311D01*
X147942157Y-97750000D01*
X147942157Y-98045865D01*
X147560823Y-98427200D01*
X146791581Y-98427200D01*
X146818512Y-98386895D01*
X146873081Y-98255154D01*
X146900900Y-98115298D01*
X146900900Y-97972702D01*
X146873081Y-97832846D01*
X146818512Y-97701105D01*
X146739290Y-97582540D01*
X146638460Y-97481710D01*
X146519895Y-97402488D01*
X146388154Y-97347919D01*
X146248298Y-97320100D01*
X146105702Y-97320100D01*
X145965846Y-97347919D01*
X145834105Y-97402488D01*
X145715540Y-97481710D01*
X145614710Y-97582540D01*
X145611864Y-97586800D01*
X145436320Y-97586800D01*
X145480154Y-97578081D01*
X145611895Y-97523512D01*
X145730460Y-97444290D01*
X145831290Y-97343460D01*
X145910512Y-97224895D01*
X145965081Y-97093154D01*
X145992900Y-96953298D01*
X145992900Y-96810702D01*
X145965081Y-96670846D01*
X145910512Y-96539105D01*
X145831290Y-96420540D01*
X145730460Y-96319710D01*
X145611895Y-96240488D01*
X145480154Y-96185919D01*
X145340298Y-96158100D01*
X145197702Y-96158100D01*
X145057846Y-96185919D01*
X144926105Y-96240488D01*
X144807540Y-96319710D01*
X144706710Y-96420540D01*
X144703864Y-96424800D01*
X144671993Y-96424800D01*
X144677487Y-96406689D01*
X144684843Y-96332000D01*
X144684843Y-95832000D01*
X144677487Y-95757311D01*
X144655701Y-95685492D01*
X144620322Y-95619304D01*
X144588231Y-95580200D01*
X147508623Y-95580200D01*
X147942157Y-96013735D01*
X147942157Y-96750000D01*
X147949513Y-96824689D01*
X147971299Y-96896508D01*
X148006678Y-96962696D01*
X148054289Y-97020711D01*
X148112304Y-97068322D01*
X148178492Y-97103701D01*
X148250311Y-97125487D01*
X148325000Y-97132843D01*
X151825000Y-97132843D01*
X151899689Y-97125487D01*
X151971508Y-97103701D01*
X152037696Y-97068322D01*
X152095711Y-97020711D01*
X152143322Y-96962696D01*
X152178701Y-96896508D01*
X152200487Y-96824689D01*
X152207843Y-96750000D01*
X152207843Y-96707200D01*
X154327550Y-96707200D01*
X154350000Y-96709411D01*
X154372450Y-96707200D01*
X154372460Y-96707200D01*
X154439627Y-96700585D01*
X154525809Y-96674441D01*
X154605236Y-96631987D01*
X154674853Y-96574853D01*
X154689174Y-96557403D01*
X154773677Y-96472900D01*
X154778702Y-96473900D01*
X154921298Y-96473900D01*
X155061154Y-96446081D01*
X155192895Y-96391512D01*
X155311460Y-96312290D01*
X155412290Y-96211460D01*
X155491512Y-96092895D01*
X155546081Y-95961154D01*
X155573900Y-95821298D01*
X155573900Y-95678702D01*
X155546081Y-95538846D01*
X155491512Y-95407105D01*
X155412290Y-95288540D01*
X155311460Y-95187710D01*
X155192895Y-95108488D01*
X155061154Y-95053919D01*
X154921298Y-95026100D01*
X154778702Y-95026100D01*
X154638846Y-95053919D01*
X154507105Y-95108488D01*
X154388540Y-95187710D01*
X154287710Y-95288540D01*
X154208488Y-95407105D01*
X154153919Y-95538846D01*
X154126100Y-95678702D01*
X154126100Y-95792800D01*
X152207843Y-95792800D01*
X152207843Y-95750000D01*
X152200487Y-95675311D01*
X152178701Y-95603492D01*
X152143322Y-95537304D01*
X152095711Y-95479289D01*
X152037696Y-95431678D01*
X151971508Y-95396299D01*
X151899689Y-95374513D01*
X151825000Y-95367157D01*
X148588735Y-95367157D01*
X148354421Y-95132843D01*
X151825000Y-95132843D01*
X151899689Y-95125487D01*
X151971508Y-95103701D01*
X152037696Y-95068322D01*
X152095711Y-95020711D01*
X152143322Y-94962696D01*
X152178701Y-94896508D01*
X152200487Y-94824689D01*
X152207843Y-94750000D01*
X152207843Y-94707200D01*
X154333450Y-94707200D01*
X154338540Y-94712290D01*
X154457105Y-94791512D01*
X154588846Y-94846081D01*
X154728702Y-94873900D01*
X154871298Y-94873900D01*
X155011154Y-94846081D01*
X155142895Y-94791512D01*
X155261460Y-94712290D01*
X155362290Y-94611460D01*
X155441512Y-94492895D01*
X155496081Y-94361154D01*
X155523900Y-94221298D01*
X155523900Y-94078702D01*
X155496081Y-93938846D01*
X155441512Y-93807105D01*
X155362290Y-93688540D01*
X155261460Y-93587710D01*
X155142895Y-93508488D01*
X155011154Y-93453919D01*
X154871298Y-93426100D01*
X154728702Y-93426100D01*
X154588846Y-93453919D01*
X154457105Y-93508488D01*
X154338540Y-93587710D01*
X154237710Y-93688540D01*
X154168046Y-93792800D01*
X152207843Y-93792800D01*
X152207843Y-93750000D01*
X152200487Y-93675311D01*
X152178701Y-93603492D01*
X152143322Y-93537304D01*
X152095711Y-93479289D01*
X152037696Y-93431678D01*
X151971508Y-93396299D01*
X151915126Y-93379196D01*
X151949482Y-93375812D01*
X152069180Y-93339502D01*
X152179494Y-93280537D01*
X152276185Y-93201185D01*
X152355537Y-93104494D01*
X152414502Y-92994180D01*
X152450812Y-92874482D01*
X152463072Y-92750000D01*
X152460000Y-92535750D01*
X152301250Y-92377000D01*
X150202000Y-92377000D01*
X150202000Y-92397000D01*
X149948000Y-92397000D01*
X149948000Y-92377000D01*
X147848750Y-92377000D01*
X147690000Y-92535750D01*
X147686928Y-92750000D01*
X147699188Y-92874482D01*
X147735498Y-92994180D01*
X147794463Y-93104494D01*
X147873815Y-93201185D01*
X147970506Y-93280537D01*
X148080820Y-93339502D01*
X148200518Y-93375812D01*
X148234874Y-93379196D01*
X148178492Y-93396299D01*
X148112304Y-93431678D01*
X148054289Y-93479289D01*
X148006678Y-93537304D01*
X147971299Y-93603492D01*
X147949513Y-93675311D01*
X147942157Y-93750000D01*
X147942157Y-93854761D01*
X147917364Y-93868013D01*
X147847747Y-93925147D01*
X147833430Y-93942592D01*
X147415033Y-94360990D01*
X141339234Y-94360990D01*
X140600027Y-93621783D01*
X140585710Y-93604339D01*
X140568262Y-93590019D01*
X140516092Y-93547204D01*
X140436666Y-93504751D01*
X140436659Y-93504749D01*
X140350484Y-93478607D01*
X140283317Y-93471992D01*
X140260857Y-93469780D01*
X140238398Y-93471992D01*
X137691194Y-93471990D01*
X137668744Y-93469779D01*
X137646294Y-93471990D01*
X137646285Y-93471990D01*
X137579118Y-93478605D01*
X137552091Y-93486804D01*
X137492934Y-93504749D01*
X137413508Y-93547203D01*
X137361336Y-93590019D01*
X137361326Y-93590029D01*
X137343892Y-93604337D01*
X137329584Y-93621771D01*
X135968058Y-94983299D01*
X135638128Y-94983299D01*
X135615678Y-94981088D01*
X135593228Y-94983299D01*
X135593219Y-94983299D01*
X135526052Y-94989914D01*
X135439870Y-95016058D01*
X135360443Y-95058512D01*
X135290826Y-95115646D01*
X135276505Y-95133096D01*
X135159611Y-95249990D01*
X120227634Y-95249990D01*
X118699510Y-93721867D01*
X118699510Y-91780140D01*
X118701721Y-91757690D01*
X118699510Y-91735240D01*
X118699510Y-90682134D01*
X119923201Y-90682134D01*
X119927029Y-90706735D01*
X119935583Y-90730115D01*
X119948534Y-90751378D01*
X119965384Y-90769705D01*
X119985486Y-90784393D01*
X120008067Y-90794878D01*
X120032260Y-90800755D01*
X120057134Y-90801799D01*
X120081735Y-90797971D01*
X120489739Y-90692680D01*
X119950581Y-91370975D01*
X119937404Y-91391254D01*
X119928106Y-91414349D01*
X119923494Y-91438815D01*
X119923742Y-91463710D01*
X119928843Y-91488078D01*
X119938599Y-91510983D01*
X119952637Y-91531544D01*
X119970416Y-91548972D01*
X119991254Y-91562596D01*
X120014349Y-91571894D01*
X120038815Y-91576506D01*
X120063710Y-91576258D01*
X120088078Y-91571157D01*
X120798000Y-91348039D01*
X120798000Y-92475000D01*
X120800440Y-92499776D01*
X120807667Y-92523601D01*
X120819403Y-92545557D01*
X120835197Y-92564803D01*
X120854443Y-92580597D01*
X120876399Y-92592333D01*
X120900224Y-92599560D01*
X120925000Y-92602000D01*
X121125000Y-92602000D01*
X121149776Y-92599560D01*
X121173601Y-92592333D01*
X121195557Y-92580597D01*
X121214803Y-92564803D01*
X121230597Y-92545557D01*
X121242333Y-92523601D01*
X121249560Y-92499776D01*
X121252000Y-92475000D01*
X121252000Y-91352800D01*
X121958811Y-91595135D01*
X121980006Y-91600416D01*
X122004858Y-91601907D01*
X122029523Y-91598521D01*
X122053053Y-91590388D01*
X122074545Y-91577821D01*
X122093172Y-91561302D01*
X122108218Y-91541467D01*
X122119106Y-91519077D01*
X122125416Y-91494994D01*
X122126907Y-91470142D01*
X122123521Y-91445477D01*
X122115388Y-91421947D01*
X122102821Y-91400455D01*
X121614504Y-90726914D01*
X121883457Y-90820013D01*
X121915260Y-90826626D01*
X121940150Y-90826093D01*
X121964459Y-90820715D01*
X121987251Y-90810697D01*
X122007651Y-90796426D01*
X122024874Y-90778448D01*
X122038260Y-90757457D01*
X122047293Y-90734257D01*
X122051626Y-90709740D01*
X122051093Y-90684850D01*
X122045715Y-90660541D01*
X122035697Y-90637749D01*
X122021426Y-90617349D01*
X122016581Y-90611697D01*
X122211770Y-90546788D01*
X122211770Y-91670717D01*
X122214210Y-91695493D01*
X122221437Y-91719318D01*
X122233173Y-91741274D01*
X122248967Y-91760520D01*
X122268213Y-91776314D01*
X122290169Y-91788050D01*
X122313994Y-91795277D01*
X122338770Y-91797717D01*
X122538770Y-91797717D01*
X122563546Y-91795277D01*
X122587371Y-91788050D01*
X122609327Y-91776314D01*
X122628573Y-91760520D01*
X122644367Y-91741274D01*
X122656103Y-91719318D01*
X122663330Y-91695493D01*
X122665770Y-91670717D01*
X122665770Y-90543075D01*
X122785992Y-90580363D01*
X122785197Y-90581158D01*
X122765607Y-90606447D01*
X122755122Y-90629028D01*
X122749245Y-90653221D01*
X122748201Y-90678095D01*
X122752029Y-90702696D01*
X122760583Y-90726076D01*
X122773534Y-90747339D01*
X122790384Y-90765666D01*
X122810486Y-90780354D01*
X122833067Y-90790839D01*
X122857260Y-90796716D01*
X122882134Y-90797760D01*
X122906735Y-90793932D01*
X123314739Y-90688641D01*
X122775581Y-91366936D01*
X122762404Y-91387215D01*
X122753106Y-91410310D01*
X122748494Y-91434776D01*
X122748742Y-91459671D01*
X122753843Y-91484039D01*
X122763599Y-91506944D01*
X122777637Y-91527505D01*
X122795416Y-91544933D01*
X122816254Y-91558557D01*
X122839349Y-91567855D01*
X122863815Y-91572467D01*
X122888710Y-91572219D01*
X122913078Y-91567118D01*
X123623000Y-91344000D01*
X123623000Y-92470961D01*
X123625440Y-92495737D01*
X123632667Y-92519562D01*
X123644403Y-92541518D01*
X123660197Y-92560764D01*
X123679443Y-92576558D01*
X123701399Y-92588294D01*
X123725224Y-92595521D01*
X123750000Y-92597961D01*
X123950000Y-92597961D01*
X123974776Y-92595521D01*
X123998601Y-92588294D01*
X124020557Y-92576558D01*
X124039803Y-92560764D01*
X124055597Y-92541518D01*
X124067333Y-92519562D01*
X124074560Y-92495737D01*
X124077000Y-92470961D01*
X124077000Y-91750000D01*
X147686928Y-91750000D01*
X147690000Y-91964250D01*
X147848750Y-92123000D01*
X149948000Y-92123000D01*
X149948000Y-91273750D01*
X150202000Y-91273750D01*
X150202000Y-92123000D01*
X152301250Y-92123000D01*
X152460000Y-91964250D01*
X152463072Y-91750000D01*
X152450812Y-91625518D01*
X152414502Y-91505820D01*
X152355537Y-91395506D01*
X152276185Y-91298815D01*
X152179494Y-91219463D01*
X152069180Y-91160498D01*
X151949482Y-91124188D01*
X151825000Y-91111928D01*
X150360750Y-91115000D01*
X150202000Y-91273750D01*
X149948000Y-91273750D01*
X149789250Y-91115000D01*
X148325000Y-91111928D01*
X148200518Y-91124188D01*
X148080820Y-91160498D01*
X147970506Y-91219463D01*
X147873815Y-91298815D01*
X147794463Y-91395506D01*
X147735498Y-91505820D01*
X147699188Y-91625518D01*
X147686928Y-91750000D01*
X124077000Y-91750000D01*
X124077000Y-91348761D01*
X124783811Y-91591096D01*
X124805006Y-91596377D01*
X124829858Y-91597868D01*
X124854523Y-91594482D01*
X124878053Y-91586349D01*
X124899545Y-91573782D01*
X124918172Y-91557263D01*
X124933218Y-91537428D01*
X124944106Y-91515038D01*
X124950416Y-91490955D01*
X124951907Y-91466103D01*
X124948521Y-91441438D01*
X124940388Y-91417908D01*
X124927821Y-91396416D01*
X124415343Y-90689550D01*
X124716275Y-90772440D01*
X124743651Y-90776841D01*
X124768518Y-90775643D01*
X124792674Y-90769616D01*
X124815190Y-90758992D01*
X124835201Y-90744180D01*
X124851937Y-90725748D01*
X124864756Y-90704406D01*
X124873165Y-90680973D01*
X124876841Y-90656349D01*
X124875643Y-90631482D01*
X124869616Y-90607326D01*
X124858992Y-90584810D01*
X124844180Y-90564799D01*
X124407359Y-90081943D01*
X124611964Y-90146170D01*
X124643845Y-90151851D01*
X124668711Y-90150614D01*
X124692858Y-90144550D01*
X124715357Y-90133892D01*
X124735345Y-90119049D01*
X124752053Y-90100592D01*
X124764840Y-90079230D01*
X124773213Y-90055784D01*
X124776851Y-90031155D01*
X124775614Y-90006289D01*
X124769550Y-89982142D01*
X124758892Y-89959643D01*
X124744049Y-89939655D01*
X123969049Y-89085616D01*
X123945557Y-89065364D01*
X123923601Y-89053628D01*
X123899776Y-89046401D01*
X123875000Y-89043961D01*
X123850224Y-89046401D01*
X123826399Y-89053628D01*
X123804443Y-89065364D01*
X123785197Y-89081158D01*
X123266162Y-89600193D01*
X123261551Y-89589293D01*
X123247564Y-89568697D01*
X123017746Y-89292916D01*
X123113507Y-89321644D01*
X123138065Y-89326438D01*
X123162961Y-89326337D01*
X123187359Y-89321381D01*
X123210322Y-89311760D01*
X123230966Y-89297844D01*
X123248499Y-89280169D01*
X123262246Y-89259412D01*
X123271680Y-89236372D01*
X123276438Y-89211935D01*
X123276337Y-89187039D01*
X123271381Y-89162641D01*
X123261760Y-89139678D01*
X123247844Y-89119034D01*
X122561614Y-88289751D01*
X122551223Y-88278625D01*
X122531577Y-88263333D01*
X122509324Y-88252168D01*
X122485321Y-88245559D01*
X122460490Y-88243759D01*
X122435785Y-88246839D01*
X122412155Y-88254679D01*
X122390509Y-88266978D01*
X122371678Y-88283264D01*
X121607908Y-89087547D01*
X121594330Y-89104553D01*
X121582617Y-89126522D01*
X121575414Y-89150354D01*
X121573000Y-89175133D01*
X121575466Y-89199907D01*
X121582718Y-89223724D01*
X121594477Y-89245668D01*
X121610291Y-89264896D01*
X121629553Y-89280670D01*
X121651522Y-89292383D01*
X121675354Y-89299586D01*
X121700133Y-89302000D01*
X121724907Y-89299534D01*
X121869888Y-89270538D01*
X121578689Y-89617203D01*
X121148035Y-89094265D01*
X121120557Y-89069403D01*
X121098601Y-89057667D01*
X121074776Y-89050440D01*
X121050000Y-89048000D01*
X121025224Y-89050440D01*
X121001399Y-89057667D01*
X120979443Y-89069403D01*
X120960197Y-89085197D01*
X120160197Y-89885197D01*
X120142304Y-89907690D01*
X120131242Y-89929994D01*
X120124744Y-89954027D01*
X120123059Y-89978866D01*
X120126252Y-90003557D01*
X120134201Y-90027150D01*
X120146600Y-90048740D01*
X120162973Y-90067495D01*
X120182690Y-90082696D01*
X120204994Y-90093758D01*
X120229027Y-90100256D01*
X120253866Y-90101941D01*
X120278557Y-90098748D01*
X120497073Y-90048321D01*
X119960197Y-90585197D01*
X119940607Y-90610486D01*
X119930122Y-90633067D01*
X119924245Y-90657260D01*
X119923201Y-90682134D01*
X118699510Y-90682134D01*
X118699510Y-89114759D01*
X118701721Y-89092309D01*
X118699510Y-89069859D01*
X118699510Y-89069850D01*
X118692895Y-89002683D01*
X118666751Y-88916501D01*
X118646861Y-88879289D01*
X118624297Y-88837073D01*
X118590833Y-88796299D01*
X118567163Y-88767457D01*
X118549713Y-88753136D01*
X118314175Y-88517598D01*
X118314170Y-88517592D01*
X118072900Y-88276323D01*
X118073900Y-88271298D01*
X118073900Y-88128702D01*
X118046081Y-87988846D01*
X117991512Y-87857105D01*
X117912290Y-87738540D01*
X117811460Y-87637710D01*
X117692895Y-87558488D01*
X117561154Y-87503919D01*
X117421298Y-87476100D01*
X117278702Y-87476100D01*
X117138846Y-87503919D01*
X117007105Y-87558488D01*
X116888540Y-87637710D01*
X116787710Y-87738540D01*
X116708488Y-87857105D01*
X116653919Y-87988846D01*
X116626100Y-88128702D01*
X116626100Y-88271298D01*
X116653919Y-88411154D01*
X116708488Y-88542895D01*
X116787710Y-88661460D01*
X116888540Y-88762290D01*
X117007105Y-88841512D01*
X117138846Y-88896081D01*
X117278702Y-88923900D01*
X117421298Y-88923900D01*
X117426323Y-88922900D01*
X117667592Y-89164170D01*
X117667598Y-89164175D01*
X117785111Y-89281688D01*
X117785110Y-90752710D01*
X117774247Y-90749415D01*
X117707080Y-90742800D01*
X117707070Y-90742800D01*
X117684620Y-90740589D01*
X117662170Y-90742800D01*
X112572449Y-90742800D01*
X112549999Y-90740589D01*
X112527549Y-90742800D01*
X112527540Y-90742800D01*
X112460373Y-90749415D01*
X112374191Y-90775559D01*
X112294764Y-90818013D01*
X112225147Y-90875147D01*
X112210830Y-90892592D01*
X111910623Y-91192800D01*
X110572449Y-91192800D01*
X110549999Y-91190589D01*
X110527549Y-91192800D01*
X110527540Y-91192800D01*
X110460373Y-91199415D01*
X110374191Y-91225559D01*
X110294764Y-91268013D01*
X110257887Y-91298278D01*
X110225147Y-91325147D01*
X110210830Y-91342592D01*
X109642593Y-91910830D01*
X109625148Y-91925147D01*
X109610831Y-91942592D01*
X109610830Y-91942593D01*
X109584355Y-91974853D01*
X109568014Y-91994764D01*
X109525560Y-92074191D01*
X109505695Y-92139677D01*
X109499416Y-92160374D01*
X109490589Y-92250000D01*
X109492801Y-92272460D01*
X109492800Y-95577550D01*
X109490589Y-95600000D01*
X109492800Y-95622450D01*
X109492800Y-95622459D01*
X109499415Y-95689626D01*
X109525559Y-95775808D01*
X109568013Y-95855235D01*
X109625147Y-95924853D01*
X109642597Y-95939174D01*
X109827100Y-96123677D01*
X109826100Y-96128702D01*
X109826100Y-96271298D01*
X109853919Y-96411154D01*
X109908488Y-96542895D01*
X109987710Y-96661460D01*
X110088540Y-96762290D01*
X110207105Y-96841512D01*
X110338846Y-96896081D01*
X110478702Y-96923900D01*
X110621298Y-96923900D01*
X110761154Y-96896081D01*
X110892895Y-96841512D01*
X111011460Y-96762290D01*
X111112290Y-96661460D01*
X111115136Y-96657200D01*
X113492157Y-96657200D01*
X113492157Y-96750000D01*
X113499513Y-96824689D01*
X113521299Y-96896508D01*
X113556678Y-96962696D01*
X113604289Y-97020711D01*
X113662304Y-97068322D01*
X113728492Y-97103701D01*
X113784874Y-97120804D01*
X113750518Y-97124188D01*
X113630820Y-97160498D01*
X113520506Y-97219463D01*
X113423815Y-97298815D01*
X113344463Y-97395506D01*
X113285498Y-97505820D01*
X113249188Y-97625518D01*
X113236928Y-97750000D01*
X113240000Y-97964250D01*
X113398750Y-98123000D01*
X115498000Y-98123000D01*
X115498000Y-98103000D01*
X115752000Y-98103000D01*
X115752000Y-98123000D01*
X117851250Y-98123000D01*
X118010000Y-97964250D01*
X118013072Y-97750000D01*
X118000812Y-97625518D01*
X117964502Y-97505820D01*
X117905537Y-97395506D01*
X117826185Y-97298815D01*
X117729494Y-97219463D01*
X117619180Y-97160498D01*
X117499482Y-97124188D01*
X117465126Y-97120804D01*
X117521508Y-97103701D01*
X117587696Y-97068322D01*
X117645711Y-97020711D01*
X117693322Y-96962696D01*
X117728701Y-96896508D01*
X117750487Y-96824689D01*
X117757843Y-96750000D01*
X117757843Y-95750000D01*
X117750487Y-95675311D01*
X117728701Y-95603492D01*
X117693322Y-95537304D01*
X117645711Y-95479289D01*
X117587696Y-95431678D01*
X117521508Y-95396299D01*
X117449689Y-95374513D01*
X117375000Y-95367157D01*
X113875000Y-95367157D01*
X113800311Y-95374513D01*
X113728492Y-95396299D01*
X113662304Y-95431678D01*
X113604289Y-95479289D01*
X113556678Y-95537304D01*
X113521299Y-95603492D01*
X113499513Y-95675311D01*
X113492866Y-95742800D01*
X111115136Y-95742800D01*
X111112290Y-95738540D01*
X111011460Y-95637710D01*
X110892895Y-95558488D01*
X110761154Y-95503919D01*
X110621298Y-95476100D01*
X110478702Y-95476100D01*
X110473677Y-95477100D01*
X110407200Y-95410623D01*
X110407200Y-92439377D01*
X110739378Y-92107200D01*
X112077550Y-92107200D01*
X112090077Y-92108434D01*
X112076100Y-92178702D01*
X112076100Y-92321298D01*
X112103919Y-92461154D01*
X112158488Y-92592895D01*
X112237710Y-92711460D01*
X112338540Y-92812290D01*
X112457105Y-92891512D01*
X112588846Y-92946081D01*
X112728702Y-92973900D01*
X112871298Y-92973900D01*
X113011154Y-92946081D01*
X113142895Y-92891512D01*
X113261460Y-92812290D01*
X113362290Y-92711460D01*
X113365136Y-92707200D01*
X113492157Y-92707200D01*
X113492157Y-92750000D01*
X113499513Y-92824689D01*
X113521299Y-92896508D01*
X113556678Y-92962696D01*
X113604289Y-93020711D01*
X113662304Y-93068322D01*
X113728492Y-93103701D01*
X113800311Y-93125487D01*
X113875000Y-93132843D01*
X117375000Y-93132843D01*
X117449689Y-93125487D01*
X117480301Y-93116201D01*
X117480301Y-93383799D01*
X117449689Y-93374513D01*
X117375000Y-93367157D01*
X113875000Y-93367157D01*
X113800311Y-93374513D01*
X113728492Y-93396299D01*
X113662304Y-93431678D01*
X113604289Y-93479289D01*
X113556678Y-93537304D01*
X113521299Y-93603492D01*
X113499513Y-93675311D01*
X113492157Y-93750000D01*
X113492157Y-93792800D01*
X111715136Y-93792800D01*
X111712290Y-93788540D01*
X111611460Y-93687710D01*
X111492895Y-93608488D01*
X111361154Y-93553919D01*
X111221298Y-93526100D01*
X111078702Y-93526100D01*
X110938846Y-93553919D01*
X110807105Y-93608488D01*
X110688540Y-93687710D01*
X110587710Y-93788540D01*
X110508488Y-93907105D01*
X110453919Y-94038846D01*
X110426100Y-94178702D01*
X110426100Y-94321298D01*
X110453919Y-94461154D01*
X110508488Y-94592895D01*
X110587710Y-94711460D01*
X110688540Y-94812290D01*
X110807105Y-94891512D01*
X110938846Y-94946081D01*
X111078702Y-94973900D01*
X111221298Y-94973900D01*
X111361154Y-94946081D01*
X111492895Y-94891512D01*
X111611460Y-94812290D01*
X111712290Y-94711460D01*
X111715136Y-94707200D01*
X113492157Y-94707200D01*
X113492157Y-94750000D01*
X113499513Y-94824689D01*
X113521299Y-94896508D01*
X113556678Y-94962696D01*
X113604289Y-95020711D01*
X113662304Y-95068322D01*
X113728492Y-95103701D01*
X113800311Y-95125487D01*
X113875000Y-95132843D01*
X114871367Y-95132843D01*
X114949191Y-95174440D01*
X115035374Y-95200584D01*
X115125000Y-95209411D01*
X115214626Y-95200584D01*
X115300809Y-95174440D01*
X115378633Y-95132843D01*
X117375000Y-95132843D01*
X117449689Y-95125487D01*
X117521508Y-95103701D01*
X117587696Y-95068322D01*
X117645711Y-95020711D01*
X117693322Y-94962696D01*
X117725275Y-94902918D01*
X118110167Y-95287811D01*
X118113204Y-95293493D01*
X118170338Y-95363110D01*
X118187787Y-95377430D01*
X119434573Y-96624217D01*
X119448891Y-96641663D01*
X119518508Y-96698797D01*
X119597935Y-96741251D01*
X119684117Y-96767395D01*
X119751284Y-96774010D01*
X119751294Y-96774010D01*
X119773744Y-96776221D01*
X119796194Y-96774010D01*
X134721951Y-96774010D01*
X134647415Y-96781351D01*
X134551657Y-96810399D01*
X134551655Y-96810400D01*
X134463404Y-96857571D01*
X134416480Y-96896081D01*
X134386052Y-96921052D01*
X134370149Y-96940430D01*
X134024430Y-97286150D01*
X134005053Y-97302052D01*
X133989151Y-97321429D01*
X133989150Y-97321430D01*
X133941571Y-97379405D01*
X133916257Y-97426765D01*
X133894400Y-97467657D01*
X133867393Y-97556689D01*
X133865352Y-97563416D01*
X133855543Y-97663000D01*
X133858001Y-97687954D01*
X133858001Y-99262011D01*
X133831696Y-99240424D01*
X133765508Y-99205045D01*
X133693689Y-99183259D01*
X133619000Y-99175903D01*
X133426200Y-99175903D01*
X133426200Y-98736136D01*
X133430460Y-98733290D01*
X133531290Y-98632460D01*
X133610512Y-98513895D01*
X133665081Y-98382154D01*
X133692900Y-98242298D01*
X133692900Y-98099702D01*
X133665081Y-97959846D01*
X133610512Y-97828105D01*
X133531290Y-97709540D01*
X133430460Y-97608710D01*
X133311895Y-97529488D01*
X133180154Y-97474919D01*
X133040298Y-97447100D01*
X132897702Y-97447100D01*
X132757846Y-97474919D01*
X132626105Y-97529488D01*
X132507540Y-97608710D01*
X132406710Y-97709540D01*
X132327488Y-97828105D01*
X132272919Y-97959846D01*
X132245100Y-98099702D01*
X132245100Y-98242298D01*
X132272919Y-98382154D01*
X132327488Y-98513895D01*
X132406710Y-98632460D01*
X132507540Y-98733290D01*
X132511801Y-98736137D01*
X132511800Y-99175903D01*
X132319000Y-99175903D01*
X132244311Y-99183259D01*
X132172492Y-99205045D01*
X132106304Y-99240424D01*
X132048289Y-99288035D01*
X132000678Y-99346050D01*
X131965299Y-99412238D01*
X131943513Y-99484057D01*
X131936157Y-99558746D01*
X131936157Y-100258746D01*
X131943513Y-100333435D01*
X131965299Y-100405254D01*
X132000678Y-100471442D01*
X132048289Y-100529457D01*
X132106304Y-100577068D01*
X132172492Y-100612447D01*
X132244311Y-100634233D01*
X132319000Y-100641589D01*
X133619000Y-100641589D01*
X133693689Y-100634233D01*
X133765508Y-100612447D01*
X133831696Y-100577068D01*
X133858000Y-100555481D01*
X133858000Y-101162011D01*
X133831696Y-101140424D01*
X133765508Y-101105045D01*
X133693689Y-101083259D01*
X133619000Y-101075903D01*
X132319000Y-101075903D01*
X132244311Y-101083259D01*
X132172492Y-101105045D01*
X132106304Y-101140424D01*
X132048289Y-101188035D01*
X132000678Y-101246050D01*
X131965299Y-101312238D01*
X131943513Y-101384057D01*
X131936157Y-101458746D01*
X131936157Y-102158746D01*
X131943513Y-102233435D01*
X131943988Y-102235000D01*
X130880695Y-102235000D01*
X130881170Y-102233435D01*
X130888526Y-102158746D01*
X130888526Y-101158746D01*
X130881170Y-101084057D01*
X130859384Y-101012238D01*
X130824005Y-100946050D01*
X130776394Y-100888035D01*
X130718379Y-100840424D01*
X130652191Y-100805045D01*
X130595809Y-100787942D01*
X130630165Y-100784558D01*
X130749863Y-100748248D01*
X130860177Y-100689283D01*
X130956868Y-100609931D01*
X131036220Y-100513240D01*
X131095185Y-100402926D01*
X131131495Y-100283228D01*
X131143755Y-100158746D01*
X131140683Y-99944496D01*
X130981933Y-99785746D01*
X130007683Y-99785746D01*
X130007683Y-99805746D01*
X129753683Y-99805746D01*
X129753683Y-99785746D01*
X128779433Y-99785746D01*
X128620683Y-99944496D01*
X128617611Y-100158746D01*
X128629871Y-100283228D01*
X128666181Y-100402926D01*
X128725146Y-100513240D01*
X128804498Y-100609931D01*
X128901189Y-100689283D01*
X129001311Y-100742800D01*
X126632843Y-100742800D01*
X126632843Y-100650000D01*
X126625487Y-100575311D01*
X126603701Y-100503492D01*
X126568322Y-100437304D01*
X126520711Y-100379289D01*
X126462696Y-100331678D01*
X126396508Y-100296299D01*
X126324689Y-100274513D01*
X126250000Y-100267157D01*
X125150000Y-100267157D01*
X125075311Y-100274513D01*
X125003492Y-100296299D01*
X124937304Y-100331678D01*
X124879289Y-100379289D01*
X124831678Y-100437304D01*
X124796299Y-100503492D01*
X124774513Y-100575311D01*
X124767157Y-100650000D01*
X124767157Y-100742800D01*
X123032843Y-100742800D01*
X123032843Y-100650000D01*
X123025487Y-100575311D01*
X123003701Y-100503492D01*
X122968322Y-100437304D01*
X122920711Y-100379289D01*
X122862696Y-100331678D01*
X122796508Y-100296299D01*
X122724689Y-100274513D01*
X122650000Y-100267157D01*
X121550000Y-100267157D01*
X121475311Y-100274513D01*
X121403492Y-100296299D01*
X121337304Y-100331678D01*
X121279289Y-100379289D01*
X121231678Y-100437304D01*
X121196299Y-100503492D01*
X121174513Y-100575311D01*
X121167157Y-100650000D01*
X121167157Y-100742800D01*
X118715136Y-100742800D01*
X118712290Y-100738540D01*
X118611460Y-100637710D01*
X118492895Y-100558488D01*
X118361154Y-100503919D01*
X118221298Y-100476100D01*
X118078702Y-100476100D01*
X117938846Y-100503919D01*
X117807105Y-100558488D01*
X117688540Y-100637710D01*
X117587710Y-100738540D01*
X117508488Y-100857105D01*
X117453919Y-100988846D01*
X117426100Y-101128702D01*
X117426100Y-101271298D01*
X117453919Y-101411154D01*
X117508488Y-101542895D01*
X117587710Y-101661460D01*
X117688540Y-101762290D01*
X117807105Y-101841512D01*
X117938846Y-101896081D01*
X118078702Y-101923900D01*
X118221298Y-101923900D01*
X118361154Y-101896081D01*
X118492895Y-101841512D01*
X118611460Y-101762290D01*
X118712290Y-101661460D01*
X118715136Y-101657200D01*
X121167157Y-101657200D01*
X121167157Y-101750000D01*
X121174513Y-101824689D01*
X121196299Y-101896508D01*
X121231678Y-101962696D01*
X121279289Y-102020711D01*
X121337304Y-102068322D01*
X121403492Y-102103701D01*
X121475311Y-102125487D01*
X121550000Y-102132843D01*
X122650000Y-102132843D01*
X122724689Y-102125487D01*
X122796508Y-102103701D01*
X122862696Y-102068322D01*
X122920711Y-102020711D01*
X122968322Y-101962696D01*
X123003701Y-101896508D01*
X123025487Y-101824689D01*
X123032843Y-101750000D01*
X123032843Y-101657200D01*
X124767157Y-101657200D01*
X124767157Y-101750000D01*
X124774513Y-101824689D01*
X124796299Y-101896508D01*
X124831678Y-101962696D01*
X124879289Y-102020711D01*
X124937304Y-102068322D01*
X125003492Y-102103701D01*
X125075311Y-102125487D01*
X125150000Y-102132843D01*
X126250000Y-102132843D01*
X126324689Y-102125487D01*
X126396508Y-102103701D01*
X126462696Y-102068322D01*
X126520711Y-102020711D01*
X126568322Y-101962696D01*
X126603701Y-101896508D01*
X126625487Y-101824689D01*
X126632843Y-101750000D01*
X126632843Y-101657200D01*
X128872840Y-101657200D01*
X128872840Y-102158746D01*
X128880196Y-102233435D01*
X128880671Y-102235000D01*
X116763001Y-102235000D01*
X116763001Y-101743005D01*
X116766704Y-101740531D01*
X116890531Y-101616704D01*
X116987821Y-101471099D01*
X117054836Y-101309312D01*
X117089000Y-101137559D01*
X117089000Y-100962441D01*
X117054836Y-100790688D01*
X116987821Y-100628901D01*
X116890531Y-100483296D01*
X116766704Y-100359469D01*
X116621099Y-100262179D01*
X116459312Y-100195164D01*
X116287559Y-100161000D01*
X116112441Y-100161000D01*
X115940688Y-100195164D01*
X115778901Y-100262179D01*
X115633296Y-100359469D01*
X115509469Y-100483296D01*
X115412179Y-100628901D01*
X115345164Y-100790688D01*
X115311000Y-100962441D01*
X115311000Y-101137559D01*
X115345164Y-101309312D01*
X115412179Y-101471099D01*
X115509469Y-101616704D01*
X115633296Y-101740531D01*
X115747002Y-101816507D01*
X115747001Y-103176050D01*
X115744544Y-103200999D01*
X115747001Y-103225948D01*
X115747001Y-104083997D01*
X115671904Y-104115103D01*
X115470284Y-104249821D01*
X115298821Y-104421284D01*
X115164103Y-104622904D01*
X115071308Y-104846932D01*
X115024001Y-105084758D01*
X115024001Y-105327244D01*
X115071308Y-105565070D01*
X115164103Y-105789098D01*
X115298821Y-105990718D01*
X115303103Y-105995000D01*
X114666899Y-105995000D01*
X114671181Y-105990718D01*
X114805899Y-105789098D01*
X114898694Y-105565070D01*
X114946001Y-105327244D01*
X114946001Y-105084758D01*
X114898694Y-104846932D01*
X114805899Y-104622904D01*
X114671181Y-104421284D01*
X114499718Y-104249821D01*
X114298098Y-104115103D01*
X114074070Y-104022308D01*
X113836244Y-103975001D01*
X113593758Y-103975001D01*
X113355932Y-104022308D01*
X113131904Y-104115103D01*
X112930284Y-104249821D01*
X112758821Y-104421284D01*
X112624103Y-104622904D01*
X112531308Y-104846932D01*
X112484001Y-105084758D01*
X112484001Y-105327244D01*
X112531308Y-105565070D01*
X112624103Y-105789098D01*
X112758821Y-105990718D01*
X112763103Y-105995000D01*
X110003079Y-105995000D01*
X109572763Y-105952807D01*
X109179111Y-105833957D01*
X108816043Y-105640911D01*
X108497383Y-105381018D01*
X108235274Y-105064183D01*
X108039697Y-104702472D01*
X107918101Y-104309658D01*
X107873000Y-103880554D01*
X107873000Y-103750739D01*
X108024001Y-103750739D01*
X108024001Y-104121263D01*
X108096287Y-104484668D01*
X108238081Y-104826988D01*
X108443933Y-105135068D01*
X108705934Y-105397069D01*
X109014014Y-105602921D01*
X109356334Y-105744715D01*
X109719739Y-105817001D01*
X110090263Y-105817001D01*
X110453668Y-105744715D01*
X110795988Y-105602921D01*
X111104068Y-105397069D01*
X111366069Y-105135068D01*
X111571921Y-104826988D01*
X111713715Y-104484668D01*
X111786001Y-104121263D01*
X111786001Y-103750739D01*
X111713715Y-103387334D01*
X111571921Y-103045014D01*
X111366069Y-102736934D01*
X111104068Y-102474933D01*
X110795988Y-102269081D01*
X110453668Y-102127287D01*
X110090263Y-102055001D01*
X109719739Y-102055001D01*
X109356334Y-102127287D01*
X109014014Y-102269081D01*
X108705934Y-102474933D01*
X108443933Y-102736934D01*
X108238081Y-103045014D01*
X108096287Y-103387334D01*
X108024001Y-103750739D01*
X107873000Y-103750739D01*
X107873000Y-101582585D01*
X107904289Y-101620711D01*
X107962304Y-101668322D01*
X108028492Y-101703701D01*
X108100311Y-101725487D01*
X108175000Y-101732843D01*
X111575000Y-101732843D01*
X111649689Y-101725487D01*
X111721508Y-101703701D01*
X111787696Y-101668322D01*
X111845711Y-101620711D01*
X111893322Y-101562696D01*
X111928701Y-101496508D01*
X111950487Y-101424689D01*
X111957843Y-101350000D01*
X111957843Y-99850000D01*
X111950487Y-99775311D01*
X111928701Y-99703492D01*
X111893322Y-99637304D01*
X111845711Y-99579289D01*
X111787696Y-99531678D01*
X111721508Y-99496299D01*
X111649689Y-99474513D01*
X111575000Y-99467157D01*
X108175000Y-99467157D01*
X108100311Y-99474513D01*
X108028492Y-99496299D01*
X107962304Y-99531678D01*
X107904289Y-99579289D01*
X107873000Y-99617415D01*
X107873000Y-98750000D01*
X113236928Y-98750000D01*
X113249188Y-98874482D01*
X113285498Y-98994180D01*
X113344463Y-99104494D01*
X113423815Y-99201185D01*
X113520506Y-99280537D01*
X113630820Y-99339502D01*
X113750518Y-99375812D01*
X113875000Y-99388072D01*
X115339250Y-99385000D01*
X115498000Y-99226250D01*
X115498000Y-98377000D01*
X115752000Y-98377000D01*
X115752000Y-99226250D01*
X115910750Y-99385000D01*
X117375000Y-99388072D01*
X117499482Y-99375812D01*
X117619180Y-99339502D01*
X117729494Y-99280537D01*
X117826185Y-99201185D01*
X117905537Y-99104494D01*
X117964502Y-98994180D01*
X118000812Y-98874482D01*
X118013072Y-98750000D01*
X118010000Y-98535750D01*
X117851250Y-98377000D01*
X115752000Y-98377000D01*
X115498000Y-98377000D01*
X113398750Y-98377000D01*
X113240000Y-98535750D01*
X113236928Y-98750000D01*
X107873000Y-98750000D01*
X107873000Y-98328702D01*
X119476100Y-98328702D01*
X119476100Y-98471298D01*
X119503919Y-98611154D01*
X119558488Y-98742895D01*
X119637710Y-98861460D01*
X119738540Y-98962290D01*
X119857105Y-99041512D01*
X119988846Y-99096081D01*
X120128702Y-99123900D01*
X120271298Y-99123900D01*
X120411154Y-99096081D01*
X120542895Y-99041512D01*
X120661460Y-98962290D01*
X120762290Y-98861460D01*
X120765136Y-98857200D01*
X121167157Y-98857200D01*
X121167157Y-98950000D01*
X121174513Y-99024689D01*
X121196299Y-99096508D01*
X121231678Y-99162696D01*
X121279289Y-99220711D01*
X121337304Y-99268322D01*
X121403492Y-99303701D01*
X121475311Y-99325487D01*
X121550000Y-99332843D01*
X122650000Y-99332843D01*
X122724689Y-99325487D01*
X122796508Y-99303701D01*
X122862696Y-99268322D01*
X122920711Y-99220711D01*
X122968322Y-99162696D01*
X123003701Y-99096508D01*
X123025487Y-99024689D01*
X123032843Y-98950000D01*
X123032843Y-98023892D01*
X123271290Y-98023892D01*
X123271290Y-98166488D01*
X123299109Y-98306344D01*
X123353678Y-98438085D01*
X123432900Y-98556650D01*
X123533730Y-98657480D01*
X123652295Y-98736702D01*
X123784036Y-98791271D01*
X123923892Y-98819090D01*
X124066488Y-98819090D01*
X124101245Y-98812176D01*
X124124191Y-98824441D01*
X124210373Y-98850585D01*
X124277540Y-98857200D01*
X124277549Y-98857200D01*
X124299999Y-98859411D01*
X124322449Y-98857200D01*
X124767157Y-98857200D01*
X124767157Y-98950000D01*
X124774513Y-99024689D01*
X124796299Y-99096508D01*
X124831678Y-99162696D01*
X124879289Y-99220711D01*
X124937304Y-99268322D01*
X125003492Y-99303701D01*
X125075311Y-99325487D01*
X125150000Y-99332843D01*
X126250000Y-99332843D01*
X126324689Y-99325487D01*
X126396508Y-99303701D01*
X126462696Y-99268322D01*
X126520711Y-99220711D01*
X126568322Y-99162696D01*
X126570433Y-99158746D01*
X128617611Y-99158746D01*
X128620683Y-99372996D01*
X128779433Y-99531746D01*
X129753683Y-99531746D01*
X129753683Y-98682496D01*
X130007683Y-98682496D01*
X130007683Y-99531746D01*
X130981933Y-99531746D01*
X131140683Y-99372996D01*
X131143755Y-99158746D01*
X131131495Y-99034264D01*
X131095185Y-98914566D01*
X131036220Y-98804252D01*
X130956868Y-98707561D01*
X130860177Y-98628209D01*
X130749863Y-98569244D01*
X130630165Y-98532934D01*
X130505683Y-98520674D01*
X130166433Y-98523746D01*
X130007683Y-98682496D01*
X129753683Y-98682496D01*
X129594933Y-98523746D01*
X129255683Y-98520674D01*
X129131201Y-98532934D01*
X129011503Y-98569244D01*
X128901189Y-98628209D01*
X128804498Y-98707561D01*
X128725146Y-98804252D01*
X128666181Y-98914566D01*
X128629871Y-99034264D01*
X128617611Y-99158746D01*
X126570433Y-99158746D01*
X126603701Y-99096508D01*
X126625487Y-99024689D01*
X126632843Y-98950000D01*
X126632843Y-97850000D01*
X126625487Y-97775311D01*
X126603701Y-97703492D01*
X126568322Y-97637304D01*
X126520711Y-97579289D01*
X126462696Y-97531678D01*
X126396508Y-97496299D01*
X126324689Y-97474513D01*
X126250000Y-97467157D01*
X125150000Y-97467157D01*
X125075311Y-97474513D01*
X125003492Y-97496299D01*
X124937304Y-97531678D01*
X124879289Y-97579289D01*
X124831678Y-97637304D01*
X124796299Y-97703492D01*
X124774513Y-97775311D01*
X124767157Y-97850000D01*
X124767157Y-97942800D01*
X124702960Y-97942800D01*
X124691271Y-97884036D01*
X124636702Y-97752295D01*
X124557480Y-97633730D01*
X124456650Y-97532900D01*
X124338085Y-97453678D01*
X124206344Y-97399109D01*
X124066488Y-97371290D01*
X123923892Y-97371290D01*
X123784036Y-97399109D01*
X123652295Y-97453678D01*
X123533730Y-97532900D01*
X123432900Y-97633730D01*
X123353678Y-97752295D01*
X123299109Y-97884036D01*
X123271290Y-98023892D01*
X123032843Y-98023892D01*
X123032843Y-97850000D01*
X123025487Y-97775311D01*
X123003701Y-97703492D01*
X122968322Y-97637304D01*
X122920711Y-97579289D01*
X122862696Y-97531678D01*
X122796508Y-97496299D01*
X122724689Y-97474513D01*
X122650000Y-97467157D01*
X121550000Y-97467157D01*
X121475311Y-97474513D01*
X121403492Y-97496299D01*
X121337304Y-97531678D01*
X121279289Y-97579289D01*
X121231678Y-97637304D01*
X121196299Y-97703492D01*
X121174513Y-97775311D01*
X121167157Y-97850000D01*
X121167157Y-97942800D01*
X120765136Y-97942800D01*
X120762290Y-97938540D01*
X120661460Y-97837710D01*
X120542895Y-97758488D01*
X120411154Y-97703919D01*
X120271298Y-97676100D01*
X120128702Y-97676100D01*
X119988846Y-97703919D01*
X119857105Y-97758488D01*
X119738540Y-97837710D01*
X119637710Y-97938540D01*
X119558488Y-98057105D01*
X119503919Y-98188846D01*
X119476100Y-98328702D01*
X107873000Y-98328702D01*
X107873000Y-90882585D01*
X107904289Y-90920711D01*
X107962304Y-90968322D01*
X108028492Y-91003701D01*
X108100311Y-91025487D01*
X108175000Y-91032843D01*
X111575000Y-91032843D01*
X111649689Y-91025487D01*
X111721508Y-91003701D01*
X111787696Y-90968322D01*
X111845711Y-90920711D01*
X111893322Y-90862696D01*
X111928701Y-90796508D01*
X111950487Y-90724689D01*
X111957843Y-90650000D01*
X111957843Y-89150000D01*
X111950487Y-89075311D01*
X111928701Y-89003492D01*
X111893322Y-88937304D01*
X111845711Y-88879289D01*
X111787696Y-88831678D01*
X111721508Y-88796299D01*
X111649689Y-88774513D01*
X111575000Y-88767157D01*
X108175000Y-88767157D01*
X108100311Y-88774513D01*
X108028492Y-88796299D01*
X107962304Y-88831678D01*
X107904289Y-88879289D01*
X107873000Y-88917415D01*
X107873000Y-86127079D01*
X107888329Y-85970739D01*
X108024001Y-85970739D01*
X108024001Y-86341263D01*
X108096287Y-86704668D01*
X108238081Y-87046988D01*
X108443933Y-87355068D01*
X108705934Y-87617069D01*
X109014014Y-87822921D01*
X109356334Y-87964715D01*
X109719739Y-88037001D01*
X110090263Y-88037001D01*
X110453668Y-87964715D01*
X110795988Y-87822921D01*
X111104068Y-87617069D01*
X111366069Y-87355068D01*
X111571921Y-87046988D01*
X111576886Y-87035000D01*
X114111928Y-87035000D01*
X114124188Y-87159482D01*
X114160498Y-87279180D01*
X114219463Y-87389494D01*
X114298815Y-87486185D01*
X114395506Y-87565537D01*
X114505820Y-87624502D01*
X114625518Y-87660812D01*
X114750000Y-87673072D01*
X114914250Y-87670000D01*
X115073000Y-87511250D01*
X115073000Y-86527000D01*
X115327000Y-86527000D01*
X115327000Y-87511250D01*
X115485750Y-87670000D01*
X115650000Y-87673072D01*
X115774482Y-87660812D01*
X115894180Y-87624502D01*
X116004494Y-87565537D01*
X116101185Y-87486185D01*
X116180537Y-87389494D01*
X116239502Y-87279180D01*
X116275812Y-87159482D01*
X116288072Y-87035000D01*
X116285000Y-86685750D01*
X116126250Y-86527000D01*
X115327000Y-86527000D01*
X115073000Y-86527000D01*
X114273750Y-86527000D01*
X114115000Y-86685750D01*
X114111928Y-87035000D01*
X111576886Y-87035000D01*
X111713715Y-86704668D01*
X111768608Y-86428702D01*
X116771290Y-86428702D01*
X116771290Y-86571298D01*
X116799109Y-86711154D01*
X116853678Y-86842895D01*
X116932900Y-86961460D01*
X117033730Y-87062290D01*
X117152295Y-87141512D01*
X117284036Y-87196081D01*
X117423892Y-87223900D01*
X117566488Y-87223900D01*
X117706344Y-87196081D01*
X117838085Y-87141512D01*
X117956650Y-87062290D01*
X118057480Y-86961460D01*
X118060326Y-86957200D01*
X118567157Y-86957200D01*
X118567157Y-87035000D01*
X118574513Y-87109689D01*
X118596299Y-87181508D01*
X118631678Y-87247696D01*
X118679289Y-87305711D01*
X118737304Y-87353322D01*
X118803492Y-87388701D01*
X118875311Y-87410487D01*
X118950000Y-87417843D01*
X119850000Y-87417843D01*
X119924689Y-87410487D01*
X119996508Y-87388701D01*
X120062696Y-87353322D01*
X120120711Y-87305711D01*
X120168322Y-87247696D01*
X120203701Y-87181508D01*
X120225487Y-87109689D01*
X120232843Y-87035000D01*
X120232843Y-85765000D01*
X120225487Y-85690311D01*
X120203701Y-85618492D01*
X120168322Y-85552304D01*
X120120711Y-85494289D01*
X120062696Y-85446678D01*
X119996508Y-85411299D01*
X119924689Y-85389513D01*
X119850000Y-85382157D01*
X118950000Y-85382157D01*
X118875311Y-85389513D01*
X118803492Y-85411299D01*
X118737304Y-85446678D01*
X118679289Y-85494289D01*
X118631678Y-85552304D01*
X118596299Y-85618492D01*
X118574513Y-85690311D01*
X118567157Y-85765000D01*
X118567157Y-86042800D01*
X118060326Y-86042800D01*
X118057480Y-86038540D01*
X117956650Y-85937710D01*
X117838085Y-85858488D01*
X117706344Y-85803919D01*
X117566488Y-85776100D01*
X117423892Y-85776100D01*
X117284036Y-85803919D01*
X117152295Y-85858488D01*
X117033730Y-85937710D01*
X116932900Y-86038540D01*
X116853678Y-86157105D01*
X116799109Y-86288846D01*
X116771290Y-86428702D01*
X111768608Y-86428702D01*
X111786001Y-86341263D01*
X111786001Y-85970739D01*
X111713715Y-85607334D01*
X111571921Y-85265014D01*
X111366069Y-84956934D01*
X111104068Y-84694933D01*
X110795988Y-84489081D01*
X110453668Y-84347287D01*
X110090263Y-84275001D01*
X109719739Y-84275001D01*
X109356334Y-84347287D01*
X109014014Y-84489081D01*
X108705934Y-84694933D01*
X108443933Y-84956934D01*
X108238081Y-85265014D01*
X108096287Y-85607334D01*
X108024001Y-85970739D01*
X107888329Y-85970739D01*
X107915193Y-85696762D01*
X108034044Y-85303107D01*
X108227089Y-84940043D01*
X108486979Y-84621385D01*
X108803820Y-84359272D01*
X109165528Y-84163697D01*
X109558343Y-84042101D01*
X109987446Y-83997000D01*
X112858101Y-83997000D01*
X112849513Y-84025311D01*
G37*
X112849513Y-84025311D02*
X112842157Y-84100000D01*
X112842157Y-84900000D01*
X112849513Y-84974689D01*
X112871299Y-85046508D01*
X112906678Y-85112696D01*
X112954289Y-85170711D01*
X113012304Y-85218322D01*
X113078492Y-85253701D01*
X113150311Y-85275487D01*
X113225000Y-85282843D01*
X114336555Y-85282843D01*
X114298815Y-85313815D01*
X114219463Y-85410506D01*
X114160498Y-85520820D01*
X114124188Y-85640518D01*
X114111928Y-85765000D01*
X114115000Y-86114250D01*
X114273750Y-86273000D01*
X115073000Y-86273000D01*
X115073000Y-85288750D01*
X115327000Y-85288750D01*
X115327000Y-86273000D01*
X116126250Y-86273000D01*
X116285000Y-86114250D01*
X116288072Y-85765000D01*
X116275812Y-85640518D01*
X116239502Y-85520820D01*
X116180537Y-85410506D01*
X116101185Y-85313815D01*
X116004494Y-85234463D01*
X115894180Y-85175498D01*
X115774482Y-85139188D01*
X115650000Y-85126928D01*
X115485750Y-85130000D01*
X115327000Y-85288750D01*
X115073000Y-85288750D01*
X114949880Y-85165630D01*
X114993322Y-85112696D01*
X115028701Y-85046508D01*
X115050487Y-84974689D01*
X115057843Y-84900000D01*
X115057843Y-84100000D01*
X115050487Y-84025311D01*
X115041899Y-83997000D01*
X119558101Y-83997000D01*
X119549513Y-84025311D01*
X119542157Y-84100000D01*
X119542157Y-84900000D01*
X119549513Y-84974689D01*
X119571299Y-85046508D01*
X119606678Y-85112696D01*
X119654289Y-85170711D01*
X119712304Y-85218322D01*
X119778492Y-85253701D01*
X119850311Y-85275487D01*
X119925000Y-85282843D01*
X121375000Y-85282843D01*
X121449689Y-85275487D01*
X121521508Y-85253701D01*
X121587696Y-85218322D01*
X121645711Y-85170711D01*
X121693322Y-85112696D01*
X121728701Y-85046508D01*
X121750487Y-84974689D01*
X121757843Y-84900000D01*
X121757843Y-84100000D01*
X121750487Y-84025311D01*
X121741899Y-83997000D01*
X123023105Y-83997000D01*
X122918821Y-84101284D01*
X122784103Y-84302904D01*
X122691308Y-84526932D01*
X122644001Y-84764758D01*
X122644001Y-85007244D01*
X122691308Y-85245070D01*
X122784103Y-85469098D01*
X122918821Y-85670718D01*
X123090284Y-85842181D01*
X123291904Y-85976899D01*
X123515932Y-86069694D01*
X123753758Y-86117001D01*
X123996244Y-86117001D01*
X124234070Y-86069694D01*
X124458098Y-85976899D01*
X124659718Y-85842181D01*
X124831181Y-85670718D01*
X124965899Y-85469098D01*
X125058694Y-85245070D01*
X125106001Y-85007244D01*
X125106001Y-84764758D01*
X125058694Y-84526932D01*
X124965899Y-84302904D01*
X124831181Y-84101284D01*
X124726897Y-83997000D01*
X125563105Y-83997000D01*
X125458821Y-84101284D01*
X125324103Y-84302904D01*
X125231308Y-84526932D01*
X125184001Y-84764758D01*
X125184001Y-85007244D01*
X125231308Y-85245070D01*
X125324103Y-85469098D01*
X125458821Y-85670718D01*
X125630284Y-85842181D01*
X125831904Y-85976899D01*
X126055932Y-86069694D01*
X126293758Y-86117001D01*
X126536244Y-86117001D01*
X126774070Y-86069694D01*
X126998098Y-85976899D01*
X127199718Y-85842181D01*
X127371181Y-85670718D01*
X127505899Y-85469098D01*
X127598694Y-85245070D01*
X127646001Y-85007244D01*
X127646001Y-84764758D01*
X127598694Y-84526932D01*
X127505899Y-84302904D01*
X127371181Y-84101284D01*
X127266897Y-83997000D01*
X128103105Y-83997000D01*
X127998821Y-84101284D01*
X127864103Y-84302904D01*
X127771308Y-84526932D01*
X127724001Y-84764758D01*
X127724001Y-85007244D01*
X127771308Y-85245070D01*
X127864103Y-85469098D01*
X127998821Y-85670718D01*
X128170284Y-85842181D01*
X128371904Y-85976899D01*
X128595932Y-86069694D01*
X128833758Y-86117001D01*
X129076244Y-86117001D01*
X129314070Y-86069694D01*
X129538098Y-85976899D01*
X129739718Y-85842181D01*
X129911181Y-85670718D01*
X130045899Y-85469098D01*
X130138694Y-85245070D01*
X130186001Y-85007244D01*
X130186001Y-84764758D01*
X130138694Y-84526932D01*
X130045899Y-84302904D01*
X129911181Y-84101284D01*
X129806897Y-83997000D01*
X130643105Y-83997000D01*
X130538821Y-84101284D01*
X130404103Y-84302904D01*
X130311308Y-84526932D01*
X130264001Y-84764758D01*
X130264001Y-85007244D01*
X130311308Y-85245070D01*
X130404103Y-85469098D01*
X130538821Y-85670718D01*
X130710284Y-85842181D01*
X130911904Y-85976899D01*
X131135932Y-86069694D01*
X131373758Y-86117001D01*
X131616244Y-86117001D01*
X131854070Y-86069694D01*
X132078098Y-85976899D01*
X132279718Y-85842181D01*
X132451181Y-85670718D01*
X132585899Y-85469098D01*
X132678694Y-85245070D01*
X132726001Y-85007244D01*
X132726001Y-84764758D01*
X132678694Y-84526932D01*
X132585899Y-84302904D01*
X132451181Y-84101284D01*
X132346897Y-83997000D01*
X133183105Y-83997000D01*
X133078821Y-84101284D01*
X132944103Y-84302904D01*
X132851308Y-84526932D01*
X132804001Y-84764758D01*
X132804001Y-85007244D01*
X132851308Y-85245070D01*
X132944103Y-85469098D01*
X133078821Y-85670718D01*
X133250284Y-85842181D01*
X133451904Y-85976899D01*
X133675932Y-86069694D01*
X133913758Y-86117001D01*
X134156244Y-86117001D01*
X134394070Y-86069694D01*
X134618098Y-85976899D01*
X134819718Y-85842181D01*
X134991181Y-85670718D01*
X135125899Y-85469098D01*
X135218694Y-85245070D01*
X135266001Y-85007244D01*
X135266001Y-84764758D01*
X135218694Y-84526932D01*
X135125899Y-84302904D01*
X134991181Y-84101284D01*
X134886897Y-83997000D01*
X135723105Y-83997000D01*
X135618821Y-84101284D01*
X135484103Y-84302904D01*
X135391308Y-84526932D01*
X135344001Y-84764758D01*
X135344001Y-85007244D01*
X135391308Y-85245070D01*
X135484103Y-85469098D01*
X135618821Y-85670718D01*
X135790284Y-85842181D01*
X135991904Y-85976899D01*
X136215932Y-86069694D01*
X136453758Y-86117001D01*
X136696244Y-86117001D01*
X136934070Y-86069694D01*
X137158098Y-85976899D01*
X137359718Y-85842181D01*
X137531181Y-85670718D01*
X137665899Y-85469098D01*
X137758694Y-85245070D01*
X137806001Y-85007244D01*
X137806001Y-84764758D01*
X137758694Y-84526932D01*
X137665899Y-84302904D01*
X137531181Y-84101284D01*
X137426897Y-83997000D01*
X138263105Y-83997000D01*
X138158821Y-84101284D01*
X138024103Y-84302904D01*
X137931308Y-84526932D01*
X137884001Y-84764758D01*
X137884001Y-85007244D01*
X137931308Y-85245070D01*
X138024103Y-85469098D01*
X138158821Y-85670718D01*
X138330284Y-85842181D01*
X138531904Y-85976899D01*
X138755932Y-86069694D01*
X138993758Y-86117001D01*
X139236244Y-86117001D01*
X139474070Y-86069694D01*
X139698098Y-85976899D01*
X139899718Y-85842181D01*
X140071181Y-85670718D01*
X140205899Y-85469098D01*
X140298694Y-85245070D01*
X140346001Y-85007244D01*
X140346001Y-84764758D01*
X140298694Y-84526932D01*
X140205899Y-84302904D01*
X140071181Y-84101284D01*
X139966897Y-83997000D01*
X140803105Y-83997000D01*
X140698821Y-84101284D01*
X140564103Y-84302904D01*
X140471308Y-84526932D01*
X140424001Y-84764758D01*
X140424001Y-85007244D01*
X140471308Y-85245070D01*
X140564103Y-85469098D01*
X140698821Y-85670718D01*
X140870284Y-85842181D01*
X141071904Y-85976899D01*
X141295932Y-86069694D01*
X141533758Y-86117001D01*
X141776244Y-86117001D01*
X142014070Y-86069694D01*
X142238098Y-85976899D01*
X142439718Y-85842181D01*
X142611181Y-85670718D01*
X142745899Y-85469098D01*
X142838694Y-85245070D01*
X142886001Y-85007244D01*
X142886001Y-84764758D01*
X142838694Y-84526932D01*
X142745899Y-84302904D01*
X142611181Y-84101284D01*
X142506897Y-83997000D01*
X143343105Y-83997000D01*
X143238821Y-84101284D01*
X143104103Y-84302904D01*
X143011308Y-84526932D01*
X142964001Y-84764758D01*
X142964001Y-85007244D01*
X143011308Y-85245070D01*
X143104103Y-85469098D01*
X143238821Y-85670718D01*
X143410284Y-85842181D01*
X143611904Y-85976899D01*
X143835932Y-86069694D01*
X144073758Y-86117001D01*
X144316244Y-86117001D01*
X144554070Y-86069694D01*
X144778098Y-85976899D01*
X144979718Y-85842181D01*
X145151181Y-85670718D01*
X145285899Y-85469098D01*
X145378694Y-85245070D01*
X145426001Y-85007244D01*
X145426001Y-84764758D01*
X145378694Y-84526932D01*
X145285899Y-84302904D01*
X145151181Y-84101284D01*
X145046897Y-83997000D01*
X145883105Y-83997000D01*
X145778821Y-84101284D01*
X145644103Y-84302904D01*
X145551308Y-84526932D01*
X145504001Y-84764758D01*
X145504001Y-85007244D01*
X145551308Y-85245070D01*
X145644103Y-85469098D01*
X145778821Y-85670718D01*
X145950284Y-85842181D01*
X146151904Y-85976899D01*
X146375932Y-86069694D01*
X146613758Y-86117001D01*
X146856244Y-86117001D01*
X147094070Y-86069694D01*
X147318098Y-85976899D01*
X147519718Y-85842181D01*
X147691181Y-85670718D01*
X147825899Y-85469098D01*
X147918694Y-85245070D01*
X147966001Y-85007244D01*
X147966001Y-84764758D01*
X147918694Y-84526932D01*
X147825899Y-84302904D01*
X147691181Y-84101284D01*
X147586897Y-83997000D01*
X148423105Y-83997000D01*
X148318821Y-84101284D01*
X148184103Y-84302904D01*
X148091308Y-84526932D01*
X148044001Y-84764758D01*
X148044001Y-85007244D01*
X148091308Y-85245070D01*
X148184103Y-85469098D01*
X148318821Y-85670718D01*
X148490284Y-85842181D01*
X148691904Y-85976899D01*
X148915932Y-86069694D01*
X149153758Y-86117001D01*
X149396244Y-86117001D01*
X149634070Y-86069694D01*
X149858098Y-85976899D01*
X150059718Y-85842181D01*
X150231181Y-85670718D01*
X150365899Y-85469098D01*
X150458694Y-85245070D01*
X150506001Y-85007244D01*
X150506001Y-84764758D01*
X150458694Y-84526932D01*
X150365899Y-84302904D01*
X150231181Y-84101284D01*
X150126897Y-83997000D01*
X150963105Y-83997000D01*
X150858821Y-84101284D01*
X150724103Y-84302904D01*
X150631308Y-84526932D01*
X150584001Y-84764758D01*
X150584001Y-85007244D01*
X150631308Y-85245070D01*
X150724103Y-85469098D01*
X150858821Y-85670718D01*
X151030284Y-85842181D01*
X151231904Y-85976899D01*
X151357802Y-86029047D01*
X151357801Y-87263620D01*
X151067622Y-87553800D01*
X143174516Y-87553800D01*
X143152066Y-87551589D01*
X143129616Y-87553800D01*
X143129607Y-87553800D01*
X143062440Y-87560415D01*
X142976258Y-87586559D01*
X142948539Y-87601375D01*
X142896830Y-87629013D01*
X142858084Y-87660812D01*
X142827214Y-87686147D01*
X142812897Y-87703592D01*
X142186592Y-88329898D01*
X142169148Y-88344214D01*
X142154831Y-88361659D01*
X142154830Y-88361660D01*
X142112013Y-88413832D01*
X142069560Y-88493258D01*
X142043416Y-88579441D01*
X142042889Y-88584795D01*
X142032540Y-88591710D01*
X141931710Y-88692540D01*
X141852488Y-88811105D01*
X141797919Y-88942846D01*
X141770100Y-89082702D01*
X141770100Y-89225298D01*
X141797919Y-89365154D01*
X141852488Y-89496895D01*
X141931710Y-89615460D01*
X142032540Y-89716290D01*
X142151105Y-89795512D01*
X142282846Y-89850081D01*
X142422702Y-89877900D01*
X142565298Y-89877900D01*
X142705154Y-89850081D01*
X142836895Y-89795512D01*
X142955460Y-89716290D01*
X143056290Y-89615460D01*
X143135512Y-89496895D01*
X143190081Y-89365154D01*
X143217900Y-89225298D01*
X143217900Y-89082702D01*
X143190081Y-88942846D01*
X143135512Y-88811105D01*
X143080649Y-88728996D01*
X143341445Y-88468200D01*
X151234550Y-88468200D01*
X151257000Y-88470411D01*
X151279450Y-88468200D01*
X151279460Y-88468200D01*
X151346627Y-88461585D01*
X151432809Y-88435441D01*
X151512236Y-88392987D01*
X151581853Y-88335853D01*
X151596174Y-88318403D01*
X152122415Y-87792163D01*
X152139854Y-87777852D01*
X152154166Y-87760413D01*
X152154172Y-87760407D01*
X152196988Y-87708235D01*
X152239442Y-87628809D01*
X152252258Y-87586560D01*
X152265586Y-87542626D01*
X152272201Y-87475459D01*
X152272201Y-87475449D01*
X152274412Y-87452999D01*
X152272201Y-87430549D01*
X152272201Y-86029047D01*
X152353526Y-85995361D01*
X153994001Y-85995361D01*
X153994001Y-86316641D01*
X154056679Y-86631746D01*
X154179627Y-86928569D01*
X154358120Y-87195703D01*
X154585299Y-87422882D01*
X154852433Y-87601375D01*
X155149256Y-87724323D01*
X155464361Y-87787001D01*
X155785641Y-87787001D01*
X156100746Y-87724323D01*
X156397569Y-87601375D01*
X156664703Y-87422882D01*
X156891882Y-87195703D01*
X157070375Y-86928569D01*
X157193323Y-86631746D01*
X157256001Y-86316641D01*
X157256001Y-85995361D01*
X157193323Y-85680256D01*
X157070375Y-85383433D01*
X156891882Y-85116299D01*
X156664703Y-84889120D01*
X156397569Y-84710627D01*
X156100746Y-84587679D01*
X155785641Y-84525001D01*
X155464361Y-84525001D01*
X155149256Y-84587679D01*
X154852433Y-84710627D01*
X154585299Y-84889120D01*
X154358120Y-85116299D01*
X154179627Y-85383433D01*
X154056679Y-85680256D01*
X153994001Y-85995361D01*
X152353526Y-85995361D01*
X152398098Y-85976899D01*
X152599718Y-85842181D01*
X152771181Y-85670718D01*
X152905899Y-85469098D01*
X152998694Y-85245070D01*
X153046001Y-85007244D01*
X153046001Y-84764758D01*
X152998694Y-84526932D01*
X152905899Y-84302904D01*
X152771181Y-84101284D01*
X152666897Y-83997000D01*
X155680921Y-83997000D01*
X156111238Y-84039193D01*
X156504893Y-84158044D01*
X156867957Y-84351089D01*
X157186615Y-84610979D01*
X157448728Y-84927820D01*
X157644303Y-85289528D01*
X157765899Y-85682343D01*
X157811001Y-86111456D01*
X157811001Y-88897920D01*
X157795711Y-88879289D01*
X157737696Y-88831678D01*
X157671508Y-88796299D01*
X157599689Y-88774513D01*
X157525000Y-88767157D01*
X154125000Y-88767157D01*
X154050311Y-88774513D01*
X153978492Y-88796299D01*
X153912304Y-88831678D01*
X153854289Y-88879289D01*
X153806678Y-88937304D01*
X153771299Y-89003492D01*
X153749513Y-89075311D01*
X153742157Y-89150000D01*
X153742157Y-90650000D01*
X153749513Y-90724689D01*
X153771299Y-90796508D01*
X153806678Y-90862696D01*
X153854289Y-90920711D01*
X153912304Y-90968322D01*
X153978492Y-91003701D01*
X154050311Y-91025487D01*
X154125000Y-91032843D01*
X157525000Y-91032843D01*
X157599689Y-91025487D01*
X157671508Y-91003701D01*
X157737696Y-90968322D01*
X157795711Y-90920711D01*
X157811001Y-90902080D01*
X157811000Y-99597919D01*
X157795711Y-99579289D01*
X157737696Y-99531678D01*
X157671508Y-99496299D01*
X157599689Y-99474513D01*
X157525000Y-99467157D01*
X154125000Y-99467157D01*
X154050311Y-99474513D01*
X153978492Y-99496299D01*
X153912304Y-99531678D01*
X153854289Y-99579289D01*
X153806678Y-99637304D01*
X153771299Y-99703492D01*
X153749513Y-99775311D01*
X153742157Y-99850000D01*
X153742157Y-101350000D01*
X153749513Y-101424689D01*
X153771299Y-101496508D01*
X153806678Y-101562696D01*
X153854289Y-101620711D01*
X153912304Y-101668322D01*
X153978492Y-101703701D01*
X154050311Y-101725487D01*
X154125000Y-101732843D01*
X157525000Y-101732843D01*
X157599689Y-101725487D01*
X157671508Y-101703701D01*
X157737696Y-101668322D01*
X157795711Y-101620711D01*
X157811000Y-101602081D01*
X157811000Y-103864921D01*
X157768807Y-104295237D01*
X157649957Y-104688889D01*
X157456911Y-105051957D01*
X157197018Y-105370617D01*
X156880183Y-105632726D01*
X156518472Y-105828303D01*
X156125658Y-105949899D01*
X155696554Y-105995000D01*
X152766899Y-105995000D01*
X152771181Y-105990718D01*
X152905899Y-105789098D01*
X152998694Y-105565070D01*
X153046001Y-105327244D01*
X153046001Y-105084758D01*
X152998694Y-104846932D01*
X152905899Y-104622904D01*
X152771181Y-104421284D01*
X152599718Y-104249821D01*
X152398098Y-104115103D01*
X152174070Y-104022308D01*
X151936244Y-103975001D01*
X151693758Y-103975001D01*
X151455932Y-104022308D01*
X151231904Y-104115103D01*
X151030284Y-104249821D01*
X150858821Y-104421284D01*
X150724103Y-104622904D01*
X150631308Y-104846932D01*
X150584001Y-105084758D01*
X150584001Y-105327244D01*
X150631308Y-105565070D01*
X150724103Y-105789098D01*
X150858821Y-105990718D01*
X150863103Y-105995000D01*
X150226899Y-105995000D01*
X150231181Y-105990718D01*
X150365899Y-105789098D01*
X150458694Y-105565070D01*
X150506001Y-105327244D01*
X150506001Y-105084758D01*
X150458694Y-104846932D01*
X150365899Y-104622904D01*
X150231181Y-104421284D01*
X150059718Y-104249821D01*
X149858098Y-104115103D01*
X149732201Y-104062955D01*
X149732201Y-104026369D01*
X149734412Y-104003919D01*
X149732201Y-103981470D01*
X149732201Y-103981460D01*
X149725586Y-103914293D01*
X149699442Y-103828111D01*
X149682200Y-103795853D01*
X149682200Y-103775361D01*
X153994001Y-103775361D01*
X153994001Y-104096641D01*
X154056679Y-104411746D01*
X154179627Y-104708569D01*
X154358120Y-104975703D01*
X154585299Y-105202882D01*
X154852433Y-105381375D01*
X155149256Y-105504323D01*
X155464361Y-105567001D01*
X155785641Y-105567001D01*
X156100746Y-105504323D01*
X156397569Y-105381375D01*
X156664703Y-105202882D01*
X156891882Y-104975703D01*
X157070375Y-104708569D01*
X157193323Y-104411746D01*
X157256001Y-104096641D01*
X157256001Y-103775361D01*
X157193323Y-103460256D01*
X157070375Y-103163433D01*
X156891882Y-102896299D01*
X156664703Y-102669120D01*
X156397569Y-102490627D01*
X156100746Y-102367679D01*
X155785641Y-102305001D01*
X155464361Y-102305001D01*
X155149256Y-102367679D01*
X154852433Y-102490627D01*
X154585299Y-102669120D01*
X154358120Y-102896299D01*
X154179627Y-103163433D01*
X154056679Y-103460256D01*
X153994001Y-103775361D01*
X149682200Y-103775361D01*
X149682200Y-100606450D01*
X149684411Y-100584000D01*
X149682200Y-100561550D01*
X149682200Y-100561540D01*
X149675585Y-100494373D01*
X149655526Y-100428249D01*
X149649441Y-100408190D01*
X149606987Y-100328764D01*
X149564171Y-100276592D01*
X149564165Y-100276586D01*
X149549853Y-100259147D01*
X149532413Y-100244834D01*
X148929174Y-99641597D01*
X148914853Y-99624147D01*
X148845236Y-99567013D01*
X148765809Y-99524559D01*
X148679627Y-99498415D01*
X148612460Y-99491800D01*
X148612450Y-99491800D01*
X148590000Y-99489589D01*
X148567550Y-99491800D01*
X145980136Y-99491800D01*
X145977290Y-99487540D01*
X145876460Y-99386710D01*
X145808948Y-99341600D01*
X147727750Y-99341600D01*
X147750200Y-99343811D01*
X147772650Y-99341600D01*
X147772660Y-99341600D01*
X147839827Y-99334985D01*
X147926009Y-99308841D01*
X148005436Y-99266387D01*
X148075053Y-99209253D01*
X148089374Y-99191803D01*
X148177830Y-99103347D01*
X148178492Y-99103701D01*
X148250311Y-99125487D01*
X148325000Y-99132843D01*
X151825000Y-99132843D01*
X151899689Y-99125487D01*
X151971508Y-99103701D01*
X152037696Y-99068322D01*
X152095711Y-99020711D01*
X152143322Y-98962696D01*
X152178701Y-98896508D01*
X152200487Y-98824689D01*
X152207843Y-98750000D01*
X152207843Y-98707200D01*
X152384864Y-98707200D01*
X152387710Y-98711460D01*
X152488540Y-98812290D01*
X152607105Y-98891512D01*
X152738846Y-98946081D01*
X152878702Y-98973900D01*
X153021298Y-98973900D01*
X153161154Y-98946081D01*
X153292895Y-98891512D01*
X153411460Y-98812290D01*
X153512290Y-98711460D01*
X153591512Y-98592895D01*
X153646081Y-98461154D01*
X153673900Y-98321298D01*
X153673900Y-98178702D01*
X153646081Y-98038846D01*
X153591512Y-97907105D01*
X153512290Y-97788540D01*
X153411460Y-97687710D01*
X153292895Y-97608488D01*
X153161154Y-97553919D01*
X153021298Y-97526100D01*
X152878702Y-97526100D01*
X152738846Y-97553919D01*
X152607105Y-97608488D01*
X152488540Y-97687710D01*
X152387710Y-97788540D01*
X152384864Y-97792800D01*
X152207843Y-97792800D01*
X152207843Y-97750000D01*
X152200487Y-97675311D01*
X152178701Y-97603492D01*
X152143322Y-97537304D01*
X152095711Y-97479289D01*
X152037696Y-97431678D01*
X151971508Y-97396299D01*
X151899689Y-97374513D01*
X151825000Y-97367157D01*
X148325000Y-97367157D01*
X148250311Y-97374513D01*
X148178492Y-97396299D01*
X148112304Y-97431678D01*
X148054289Y-97479289D01*
X148006678Y-97537304D01*
X147971299Y-97603492D01*
X147949513Y-97675311D01*
X147942157Y-97750000D01*
X147942157Y-98045865D01*
X147560823Y-98427200D01*
X146791581Y-98427200D01*
X146818512Y-98386895D01*
X146873081Y-98255154D01*
X146900900Y-98115298D01*
X146900900Y-97972702D01*
X146873081Y-97832846D01*
X146818512Y-97701105D01*
X146739290Y-97582540D01*
X146638460Y-97481710D01*
X146519895Y-97402488D01*
X146388154Y-97347919D01*
X146248298Y-97320100D01*
X146105702Y-97320100D01*
X145965846Y-97347919D01*
X145834105Y-97402488D01*
X145715540Y-97481710D01*
X145614710Y-97582540D01*
X145611864Y-97586800D01*
X145436320Y-97586800D01*
X145480154Y-97578081D01*
X145611895Y-97523512D01*
X145730460Y-97444290D01*
X145831290Y-97343460D01*
X145910512Y-97224895D01*
X145965081Y-97093154D01*
X145992900Y-96953298D01*
X145992900Y-96810702D01*
X145965081Y-96670846D01*
X145910512Y-96539105D01*
X145831290Y-96420540D01*
X145730460Y-96319710D01*
X145611895Y-96240488D01*
X145480154Y-96185919D01*
X145340298Y-96158100D01*
X145197702Y-96158100D01*
X145057846Y-96185919D01*
X144926105Y-96240488D01*
X144807540Y-96319710D01*
X144706710Y-96420540D01*
X144703864Y-96424800D01*
X144671993Y-96424800D01*
X144677487Y-96406689D01*
X144684843Y-96332000D01*
X144684843Y-95832000D01*
X144677487Y-95757311D01*
X144655701Y-95685492D01*
X144620322Y-95619304D01*
X144588231Y-95580200D01*
X147508623Y-95580200D01*
X147942157Y-96013735D01*
X147942157Y-96750000D01*
X147949513Y-96824689D01*
X147971299Y-96896508D01*
X148006678Y-96962696D01*
X148054289Y-97020711D01*
X148112304Y-97068322D01*
X148178492Y-97103701D01*
X148250311Y-97125487D01*
X148325000Y-97132843D01*
X151825000Y-97132843D01*
X151899689Y-97125487D01*
X151971508Y-97103701D01*
X152037696Y-97068322D01*
X152095711Y-97020711D01*
X152143322Y-96962696D01*
X152178701Y-96896508D01*
X152200487Y-96824689D01*
X152207843Y-96750000D01*
X152207843Y-96707200D01*
X154327550Y-96707200D01*
X154350000Y-96709411D01*
X154372450Y-96707200D01*
X154372460Y-96707200D01*
X154439627Y-96700585D01*
X154525809Y-96674441D01*
X154605236Y-96631987D01*
X154674853Y-96574853D01*
X154689174Y-96557403D01*
X154773677Y-96472900D01*
X154778702Y-96473900D01*
X154921298Y-96473900D01*
X155061154Y-96446081D01*
X155192895Y-96391512D01*
X155311460Y-96312290D01*
X155412290Y-96211460D01*
X155491512Y-96092895D01*
X155546081Y-95961154D01*
X155573900Y-95821298D01*
X155573900Y-95678702D01*
X155546081Y-95538846D01*
X155491512Y-95407105D01*
X155412290Y-95288540D01*
X155311460Y-95187710D01*
X155192895Y-95108488D01*
X155061154Y-95053919D01*
X154921298Y-95026100D01*
X154778702Y-95026100D01*
X154638846Y-95053919D01*
X154507105Y-95108488D01*
X154388540Y-95187710D01*
X154287710Y-95288540D01*
X154208488Y-95407105D01*
X154153919Y-95538846D01*
X154126100Y-95678702D01*
X154126100Y-95792800D01*
X152207843Y-95792800D01*
X152207843Y-95750000D01*
X152200487Y-95675311D01*
X152178701Y-95603492D01*
X152143322Y-95537304D01*
X152095711Y-95479289D01*
X152037696Y-95431678D01*
X151971508Y-95396299D01*
X151899689Y-95374513D01*
X151825000Y-95367157D01*
X148588735Y-95367157D01*
X148354421Y-95132843D01*
X151825000Y-95132843D01*
X151899689Y-95125487D01*
X151971508Y-95103701D01*
X152037696Y-95068322D01*
X152095711Y-95020711D01*
X152143322Y-94962696D01*
X152178701Y-94896508D01*
X152200487Y-94824689D01*
X152207843Y-94750000D01*
X152207843Y-94707200D01*
X154333450Y-94707200D01*
X154338540Y-94712290D01*
X154457105Y-94791512D01*
X154588846Y-94846081D01*
X154728702Y-94873900D01*
X154871298Y-94873900D01*
X155011154Y-94846081D01*
X155142895Y-94791512D01*
X155261460Y-94712290D01*
X155362290Y-94611460D01*
X155441512Y-94492895D01*
X155496081Y-94361154D01*
X155523900Y-94221298D01*
X155523900Y-94078702D01*
X155496081Y-93938846D01*
X155441512Y-93807105D01*
X155362290Y-93688540D01*
X155261460Y-93587710D01*
X155142895Y-93508488D01*
X155011154Y-93453919D01*
X154871298Y-93426100D01*
X154728702Y-93426100D01*
X154588846Y-93453919D01*
X154457105Y-93508488D01*
X154338540Y-93587710D01*
X154237710Y-93688540D01*
X154168046Y-93792800D01*
X152207843Y-93792800D01*
X152207843Y-93750000D01*
X152200487Y-93675311D01*
X152178701Y-93603492D01*
X152143322Y-93537304D01*
X152095711Y-93479289D01*
X152037696Y-93431678D01*
X151971508Y-93396299D01*
X151915126Y-93379196D01*
X151949482Y-93375812D01*
X152069180Y-93339502D01*
X152179494Y-93280537D01*
X152276185Y-93201185D01*
X152355537Y-93104494D01*
X152414502Y-92994180D01*
X152450812Y-92874482D01*
X152463072Y-92750000D01*
X152460000Y-92535750D01*
X152301250Y-92377000D01*
X150202000Y-92377000D01*
X150202000Y-92397000D01*
X149948000Y-92397000D01*
X149948000Y-92377000D01*
X147848750Y-92377000D01*
X147690000Y-92535750D01*
X147686928Y-92750000D01*
X147699188Y-92874482D01*
X147735498Y-92994180D01*
X147794463Y-93104494D01*
X147873815Y-93201185D01*
X147970506Y-93280537D01*
X148080820Y-93339502D01*
X148200518Y-93375812D01*
X148234874Y-93379196D01*
X148178492Y-93396299D01*
X148112304Y-93431678D01*
X148054289Y-93479289D01*
X148006678Y-93537304D01*
X147971299Y-93603492D01*
X147949513Y-93675311D01*
X147942157Y-93750000D01*
X147942157Y-93854761D01*
X147917364Y-93868013D01*
X147847747Y-93925147D01*
X147833430Y-93942592D01*
X147415033Y-94360990D01*
X141339234Y-94360990D01*
X140600027Y-93621783D01*
X140585710Y-93604339D01*
X140568262Y-93590019D01*
X140516092Y-93547204D01*
X140436666Y-93504751D01*
X140436659Y-93504749D01*
X140350484Y-93478607D01*
X140283317Y-93471992D01*
X140260857Y-93469780D01*
X140238398Y-93471992D01*
X137691194Y-93471990D01*
X137668744Y-93469779D01*
X137646294Y-93471990D01*
X137646285Y-93471990D01*
X137579118Y-93478605D01*
X137552091Y-93486804D01*
X137492934Y-93504749D01*
X137413508Y-93547203D01*
X137361336Y-93590019D01*
X137361326Y-93590029D01*
X137343892Y-93604337D01*
X137329584Y-93621771D01*
X135968058Y-94983299D01*
X135638128Y-94983299D01*
X135615678Y-94981088D01*
X135593228Y-94983299D01*
X135593219Y-94983299D01*
X135526052Y-94989914D01*
X135439870Y-95016058D01*
X135360443Y-95058512D01*
X135290826Y-95115646D01*
X135276505Y-95133096D01*
X135159611Y-95249990D01*
X120227634Y-95249990D01*
X118699510Y-93721867D01*
X118699510Y-91780140D01*
X118701721Y-91757690D01*
X118699510Y-91735240D01*
X118699510Y-90682134D01*
X119923201Y-90682134D01*
X119927029Y-90706735D01*
X119935583Y-90730115D01*
X119948534Y-90751378D01*
X119965384Y-90769705D01*
X119985486Y-90784393D01*
X120008067Y-90794878D01*
X120032260Y-90800755D01*
X120057134Y-90801799D01*
X120081735Y-90797971D01*
X120489739Y-90692680D01*
X119950581Y-91370975D01*
X119937404Y-91391254D01*
X119928106Y-91414349D01*
X119923494Y-91438815D01*
X119923742Y-91463710D01*
X119928843Y-91488078D01*
X119938599Y-91510983D01*
X119952637Y-91531544D01*
X119970416Y-91548972D01*
X119991254Y-91562596D01*
X120014349Y-91571894D01*
X120038815Y-91576506D01*
X120063710Y-91576258D01*
X120088078Y-91571157D01*
X120798000Y-91348039D01*
X120798000Y-92475000D01*
X120800440Y-92499776D01*
X120807667Y-92523601D01*
X120819403Y-92545557D01*
X120835197Y-92564803D01*
X120854443Y-92580597D01*
X120876399Y-92592333D01*
X120900224Y-92599560D01*
X120925000Y-92602000D01*
X121125000Y-92602000D01*
X121149776Y-92599560D01*
X121173601Y-92592333D01*
X121195557Y-92580597D01*
X121214803Y-92564803D01*
X121230597Y-92545557D01*
X121242333Y-92523601D01*
X121249560Y-92499776D01*
X121252000Y-92475000D01*
X121252000Y-91352800D01*
X121958811Y-91595135D01*
X121980006Y-91600416D01*
X122004858Y-91601907D01*
X122029523Y-91598521D01*
X122053053Y-91590388D01*
X122074545Y-91577821D01*
X122093172Y-91561302D01*
X122108218Y-91541467D01*
X122119106Y-91519077D01*
X122125416Y-91494994D01*
X122126907Y-91470142D01*
X122123521Y-91445477D01*
X122115388Y-91421947D01*
X122102821Y-91400455D01*
X121614504Y-90726914D01*
X121883457Y-90820013D01*
X121915260Y-90826626D01*
X121940150Y-90826093D01*
X121964459Y-90820715D01*
X121987251Y-90810697D01*
X122007651Y-90796426D01*
X122024874Y-90778448D01*
X122038260Y-90757457D01*
X122047293Y-90734257D01*
X122051626Y-90709740D01*
X122051093Y-90684850D01*
X122045715Y-90660541D01*
X122035697Y-90637749D01*
X122021426Y-90617349D01*
X122016581Y-90611697D01*
X122211770Y-90546788D01*
X122211770Y-91670717D01*
X122214210Y-91695493D01*
X122221437Y-91719318D01*
X122233173Y-91741274D01*
X122248967Y-91760520D01*
X122268213Y-91776314D01*
X122290169Y-91788050D01*
X122313994Y-91795277D01*
X122338770Y-91797717D01*
X122538770Y-91797717D01*
X122563546Y-91795277D01*
X122587371Y-91788050D01*
X122609327Y-91776314D01*
X122628573Y-91760520D01*
X122644367Y-91741274D01*
X122656103Y-91719318D01*
X122663330Y-91695493D01*
X122665770Y-91670717D01*
X122665770Y-90543075D01*
X122785992Y-90580363D01*
X122785197Y-90581158D01*
X122765607Y-90606447D01*
X122755122Y-90629028D01*
X122749245Y-90653221D01*
X122748201Y-90678095D01*
X122752029Y-90702696D01*
X122760583Y-90726076D01*
X122773534Y-90747339D01*
X122790384Y-90765666D01*
X122810486Y-90780354D01*
X122833067Y-90790839D01*
X122857260Y-90796716D01*
X122882134Y-90797760D01*
X122906735Y-90793932D01*
X123314739Y-90688641D01*
X122775581Y-91366936D01*
X122762404Y-91387215D01*
X122753106Y-91410310D01*
X122748494Y-91434776D01*
X122748742Y-91459671D01*
X122753843Y-91484039D01*
X122763599Y-91506944D01*
X122777637Y-91527505D01*
X122795416Y-91544933D01*
X122816254Y-91558557D01*
X122839349Y-91567855D01*
X122863815Y-91572467D01*
X122888710Y-91572219D01*
X122913078Y-91567118D01*
X123623000Y-91344000D01*
X123623000Y-92470961D01*
X123625440Y-92495737D01*
X123632667Y-92519562D01*
X123644403Y-92541518D01*
X123660197Y-92560764D01*
X123679443Y-92576558D01*
X123701399Y-92588294D01*
X123725224Y-92595521D01*
X123750000Y-92597961D01*
X123950000Y-92597961D01*
X123974776Y-92595521D01*
X123998601Y-92588294D01*
X124020557Y-92576558D01*
X124039803Y-92560764D01*
X124055597Y-92541518D01*
X124067333Y-92519562D01*
X124074560Y-92495737D01*
X124077000Y-92470961D01*
X124077000Y-91750000D01*
X147686928Y-91750000D01*
X147690000Y-91964250D01*
X147848750Y-92123000D01*
X149948000Y-92123000D01*
X149948000Y-91273750D01*
X150202000Y-91273750D01*
X150202000Y-92123000D01*
X152301250Y-92123000D01*
X152460000Y-91964250D01*
X152463072Y-91750000D01*
X152450812Y-91625518D01*
X152414502Y-91505820D01*
X152355537Y-91395506D01*
X152276185Y-91298815D01*
X152179494Y-91219463D01*
X152069180Y-91160498D01*
X151949482Y-91124188D01*
X151825000Y-91111928D01*
X150360750Y-91115000D01*
X150202000Y-91273750D01*
X149948000Y-91273750D01*
X149789250Y-91115000D01*
X148325000Y-91111928D01*
X148200518Y-91124188D01*
X148080820Y-91160498D01*
X147970506Y-91219463D01*
X147873815Y-91298815D01*
X147794463Y-91395506D01*
X147735498Y-91505820D01*
X147699188Y-91625518D01*
X147686928Y-91750000D01*
X124077000Y-91750000D01*
X124077000Y-91348761D01*
X124783811Y-91591096D01*
X124805006Y-91596377D01*
X124829858Y-91597868D01*
X124854523Y-91594482D01*
X124878053Y-91586349D01*
X124899545Y-91573782D01*
X124918172Y-91557263D01*
X124933218Y-91537428D01*
X124944106Y-91515038D01*
X124950416Y-91490955D01*
X124951907Y-91466103D01*
X124948521Y-91441438D01*
X124940388Y-91417908D01*
X124927821Y-91396416D01*
X124415343Y-90689550D01*
X124716275Y-90772440D01*
X124743651Y-90776841D01*
X124768518Y-90775643D01*
X124792674Y-90769616D01*
X124815190Y-90758992D01*
X124835201Y-90744180D01*
X124851937Y-90725748D01*
X124864756Y-90704406D01*
X124873165Y-90680973D01*
X124876841Y-90656349D01*
X124875643Y-90631482D01*
X124869616Y-90607326D01*
X124858992Y-90584810D01*
X124844180Y-90564799D01*
X124407359Y-90081943D01*
X124611964Y-90146170D01*
X124643845Y-90151851D01*
X124668711Y-90150614D01*
X124692858Y-90144550D01*
X124715357Y-90133892D01*
X124735345Y-90119049D01*
X124752053Y-90100592D01*
X124764840Y-90079230D01*
X124773213Y-90055784D01*
X124776851Y-90031155D01*
X124775614Y-90006289D01*
X124769550Y-89982142D01*
X124758892Y-89959643D01*
X124744049Y-89939655D01*
X123969049Y-89085616D01*
X123945557Y-89065364D01*
X123923601Y-89053628D01*
X123899776Y-89046401D01*
X123875000Y-89043961D01*
X123850224Y-89046401D01*
X123826399Y-89053628D01*
X123804443Y-89065364D01*
X123785197Y-89081158D01*
X123266162Y-89600193D01*
X123261551Y-89589293D01*
X123247564Y-89568697D01*
X123017746Y-89292916D01*
X123113507Y-89321644D01*
X123138065Y-89326438D01*
X123162961Y-89326337D01*
X123187359Y-89321381D01*
X123210322Y-89311760D01*
X123230966Y-89297844D01*
X123248499Y-89280169D01*
X123262246Y-89259412D01*
X123271680Y-89236372D01*
X123276438Y-89211935D01*
X123276337Y-89187039D01*
X123271381Y-89162641D01*
X123261760Y-89139678D01*
X123247844Y-89119034D01*
X122561614Y-88289751D01*
X122551223Y-88278625D01*
X122531577Y-88263333D01*
X122509324Y-88252168D01*
X122485321Y-88245559D01*
X122460490Y-88243759D01*
X122435785Y-88246839D01*
X122412155Y-88254679D01*
X122390509Y-88266978D01*
X122371678Y-88283264D01*
X121607908Y-89087547D01*
X121594330Y-89104553D01*
X121582617Y-89126522D01*
X121575414Y-89150354D01*
X121573000Y-89175133D01*
X121575466Y-89199907D01*
X121582718Y-89223724D01*
X121594477Y-89245668D01*
X121610291Y-89264896D01*
X121629553Y-89280670D01*
X121651522Y-89292383D01*
X121675354Y-89299586D01*
X121700133Y-89302000D01*
X121724907Y-89299534D01*
X121869888Y-89270538D01*
X121578689Y-89617203D01*
X121148035Y-89094265D01*
X121120557Y-89069403D01*
X121098601Y-89057667D01*
X121074776Y-89050440D01*
X121050000Y-89048000D01*
X121025224Y-89050440D01*
X121001399Y-89057667D01*
X120979443Y-89069403D01*
X120960197Y-89085197D01*
X120160197Y-89885197D01*
X120142304Y-89907690D01*
X120131242Y-89929994D01*
X120124744Y-89954027D01*
X120123059Y-89978866D01*
X120126252Y-90003557D01*
X120134201Y-90027150D01*
X120146600Y-90048740D01*
X120162973Y-90067495D01*
X120182690Y-90082696D01*
X120204994Y-90093758D01*
X120229027Y-90100256D01*
X120253866Y-90101941D01*
X120278557Y-90098748D01*
X120497073Y-90048321D01*
X119960197Y-90585197D01*
X119940607Y-90610486D01*
X119930122Y-90633067D01*
X119924245Y-90657260D01*
X119923201Y-90682134D01*
X118699510Y-90682134D01*
X118699510Y-89114759D01*
X118701721Y-89092309D01*
X118699510Y-89069859D01*
X118699510Y-89069850D01*
X118692895Y-89002683D01*
X118666751Y-88916501D01*
X118646861Y-88879289D01*
X118624297Y-88837073D01*
X118590833Y-88796299D01*
X118567163Y-88767457D01*
X118549713Y-88753136D01*
X118314175Y-88517598D01*
X118314170Y-88517592D01*
X118072900Y-88276323D01*
X118073900Y-88271298D01*
X118073900Y-88128702D01*
X118046081Y-87988846D01*
X117991512Y-87857105D01*
X117912290Y-87738540D01*
X117811460Y-87637710D01*
X117692895Y-87558488D01*
X117561154Y-87503919D01*
X117421298Y-87476100D01*
X117278702Y-87476100D01*
X117138846Y-87503919D01*
X117007105Y-87558488D01*
X116888540Y-87637710D01*
X116787710Y-87738540D01*
X116708488Y-87857105D01*
X116653919Y-87988846D01*
X116626100Y-88128702D01*
X116626100Y-88271298D01*
X116653919Y-88411154D01*
X116708488Y-88542895D01*
X116787710Y-88661460D01*
X116888540Y-88762290D01*
X117007105Y-88841512D01*
X117138846Y-88896081D01*
X117278702Y-88923900D01*
X117421298Y-88923900D01*
X117426323Y-88922900D01*
X117667592Y-89164170D01*
X117667598Y-89164175D01*
X117785111Y-89281688D01*
X117785110Y-90752710D01*
X117774247Y-90749415D01*
X117707080Y-90742800D01*
X117707070Y-90742800D01*
X117684620Y-90740589D01*
X117662170Y-90742800D01*
X112572449Y-90742800D01*
X112549999Y-90740589D01*
X112527549Y-90742800D01*
X112527540Y-90742800D01*
X112460373Y-90749415D01*
X112374191Y-90775559D01*
X112294764Y-90818013D01*
X112225147Y-90875147D01*
X112210830Y-90892592D01*
X111910623Y-91192800D01*
X110572449Y-91192800D01*
X110549999Y-91190589D01*
X110527549Y-91192800D01*
X110527540Y-91192800D01*
X110460373Y-91199415D01*
X110374191Y-91225559D01*
X110294764Y-91268013D01*
X110257887Y-91298278D01*
X110225147Y-91325147D01*
X110210830Y-91342592D01*
X109642593Y-91910830D01*
X109625148Y-91925147D01*
X109610831Y-91942592D01*
X109610830Y-91942593D01*
X109584355Y-91974853D01*
X109568014Y-91994764D01*
X109525560Y-92074191D01*
X109505695Y-92139677D01*
X109499416Y-92160374D01*
X109490589Y-92250000D01*
X109492801Y-92272460D01*
X109492800Y-95577550D01*
X109490589Y-95600000D01*
X109492800Y-95622450D01*
X109492800Y-95622459D01*
X109499415Y-95689626D01*
X109525559Y-95775808D01*
X109568013Y-95855235D01*
X109625147Y-95924853D01*
X109642597Y-95939174D01*
X109827100Y-96123677D01*
X109826100Y-96128702D01*
X109826100Y-96271298D01*
X109853919Y-96411154D01*
X109908488Y-96542895D01*
X109987710Y-96661460D01*
X110088540Y-96762290D01*
X110207105Y-96841512D01*
X110338846Y-96896081D01*
X110478702Y-96923900D01*
X110621298Y-96923900D01*
X110761154Y-96896081D01*
X110892895Y-96841512D01*
X111011460Y-96762290D01*
X111112290Y-96661460D01*
X111115136Y-96657200D01*
X113492157Y-96657200D01*
X113492157Y-96750000D01*
X113499513Y-96824689D01*
X113521299Y-96896508D01*
X113556678Y-96962696D01*
X113604289Y-97020711D01*
X113662304Y-97068322D01*
X113728492Y-97103701D01*
X113784874Y-97120804D01*
X113750518Y-97124188D01*
X113630820Y-97160498D01*
X113520506Y-97219463D01*
X113423815Y-97298815D01*
X113344463Y-97395506D01*
X113285498Y-97505820D01*
X113249188Y-97625518D01*
X113236928Y-97750000D01*
X113240000Y-97964250D01*
X113398750Y-98123000D01*
X115498000Y-98123000D01*
X115498000Y-98103000D01*
X115752000Y-98103000D01*
X115752000Y-98123000D01*
X117851250Y-98123000D01*
X118010000Y-97964250D01*
X118013072Y-97750000D01*
X118000812Y-97625518D01*
X117964502Y-97505820D01*
X117905537Y-97395506D01*
X117826185Y-97298815D01*
X117729494Y-97219463D01*
X117619180Y-97160498D01*
X117499482Y-97124188D01*
X117465126Y-97120804D01*
X117521508Y-97103701D01*
X117587696Y-97068322D01*
X117645711Y-97020711D01*
X117693322Y-96962696D01*
X117728701Y-96896508D01*
X117750487Y-96824689D01*
X117757843Y-96750000D01*
X117757843Y-95750000D01*
X117750487Y-95675311D01*
X117728701Y-95603492D01*
X117693322Y-95537304D01*
X117645711Y-95479289D01*
X117587696Y-95431678D01*
X117521508Y-95396299D01*
X117449689Y-95374513D01*
X117375000Y-95367157D01*
X113875000Y-95367157D01*
X113800311Y-95374513D01*
X113728492Y-95396299D01*
X113662304Y-95431678D01*
X113604289Y-95479289D01*
X113556678Y-95537304D01*
X113521299Y-95603492D01*
X113499513Y-95675311D01*
X113492866Y-95742800D01*
X111115136Y-95742800D01*
X111112290Y-95738540D01*
X111011460Y-95637710D01*
X110892895Y-95558488D01*
X110761154Y-95503919D01*
X110621298Y-95476100D01*
X110478702Y-95476100D01*
X110473677Y-95477100D01*
X110407200Y-95410623D01*
X110407200Y-92439377D01*
X110739378Y-92107200D01*
X112077550Y-92107200D01*
X112090077Y-92108434D01*
X112076100Y-92178702D01*
X112076100Y-92321298D01*
X112103919Y-92461154D01*
X112158488Y-92592895D01*
X112237710Y-92711460D01*
X112338540Y-92812290D01*
X112457105Y-92891512D01*
X112588846Y-92946081D01*
X112728702Y-92973900D01*
X112871298Y-92973900D01*
X113011154Y-92946081D01*
X113142895Y-92891512D01*
X113261460Y-92812290D01*
X113362290Y-92711460D01*
X113365136Y-92707200D01*
X113492157Y-92707200D01*
X113492157Y-92750000D01*
X113499513Y-92824689D01*
X113521299Y-92896508D01*
X113556678Y-92962696D01*
X113604289Y-93020711D01*
X113662304Y-93068322D01*
X113728492Y-93103701D01*
X113800311Y-93125487D01*
X113875000Y-93132843D01*
X117375000Y-93132843D01*
X117449689Y-93125487D01*
X117480301Y-93116201D01*
X117480301Y-93383799D01*
X117449689Y-93374513D01*
X117375000Y-93367157D01*
X113875000Y-93367157D01*
X113800311Y-93374513D01*
X113728492Y-93396299D01*
X113662304Y-93431678D01*
X113604289Y-93479289D01*
X113556678Y-93537304D01*
X113521299Y-93603492D01*
X113499513Y-93675311D01*
X113492157Y-93750000D01*
X113492157Y-93792800D01*
X111715136Y-93792800D01*
X111712290Y-93788540D01*
X111611460Y-93687710D01*
X111492895Y-93608488D01*
X111361154Y-93553919D01*
X111221298Y-93526100D01*
X111078702Y-93526100D01*
X110938846Y-93553919D01*
X110807105Y-93608488D01*
X110688540Y-93687710D01*
X110587710Y-93788540D01*
X110508488Y-93907105D01*
X110453919Y-94038846D01*
X110426100Y-94178702D01*
X110426100Y-94321298D01*
X110453919Y-94461154D01*
X110508488Y-94592895D01*
X110587710Y-94711460D01*
X110688540Y-94812290D01*
X110807105Y-94891512D01*
X110938846Y-94946081D01*
X111078702Y-94973900D01*
X111221298Y-94973900D01*
X111361154Y-94946081D01*
X111492895Y-94891512D01*
X111611460Y-94812290D01*
X111712290Y-94711460D01*
X111715136Y-94707200D01*
X113492157Y-94707200D01*
X113492157Y-94750000D01*
X113499513Y-94824689D01*
X113521299Y-94896508D01*
X113556678Y-94962696D01*
X113604289Y-95020711D01*
X113662304Y-95068322D01*
X113728492Y-95103701D01*
X113800311Y-95125487D01*
X113875000Y-95132843D01*
X114871367Y-95132843D01*
X114949191Y-95174440D01*
X115035374Y-95200584D01*
X115125000Y-95209411D01*
X115214626Y-95200584D01*
X115300809Y-95174440D01*
X115378633Y-95132843D01*
X117375000Y-95132843D01*
X117449689Y-95125487D01*
X117521508Y-95103701D01*
X117587696Y-95068322D01*
X117645711Y-95020711D01*
X117693322Y-94962696D01*
X117725275Y-94902918D01*
X118110167Y-95287811D01*
X118113204Y-95293493D01*
X118170338Y-95363110D01*
X118187787Y-95377430D01*
X119434573Y-96624217D01*
X119448891Y-96641663D01*
X119518508Y-96698797D01*
X119597935Y-96741251D01*
X119684117Y-96767395D01*
X119751284Y-96774010D01*
X119751294Y-96774010D01*
X119773744Y-96776221D01*
X119796194Y-96774010D01*
X134721951Y-96774010D01*
X134647415Y-96781351D01*
X134551657Y-96810399D01*
X134551655Y-96810400D01*
X134463404Y-96857571D01*
X134416480Y-96896081D01*
X134386052Y-96921052D01*
X134370149Y-96940430D01*
X134024430Y-97286150D01*
X134005053Y-97302052D01*
X133989151Y-97321429D01*
X133989150Y-97321430D01*
X133941571Y-97379405D01*
X133916257Y-97426765D01*
X133894400Y-97467657D01*
X133867393Y-97556689D01*
X133865352Y-97563416D01*
X133855543Y-97663000D01*
X133858001Y-97687954D01*
X133858001Y-99262011D01*
X133831696Y-99240424D01*
X133765508Y-99205045D01*
X133693689Y-99183259D01*
X133619000Y-99175903D01*
X133426200Y-99175903D01*
X133426200Y-98736136D01*
X133430460Y-98733290D01*
X133531290Y-98632460D01*
X133610512Y-98513895D01*
X133665081Y-98382154D01*
X133692900Y-98242298D01*
X133692900Y-98099702D01*
X133665081Y-97959846D01*
X133610512Y-97828105D01*
X133531290Y-97709540D01*
X133430460Y-97608710D01*
X133311895Y-97529488D01*
X133180154Y-97474919D01*
X133040298Y-97447100D01*
X132897702Y-97447100D01*
X132757846Y-97474919D01*
X132626105Y-97529488D01*
X132507540Y-97608710D01*
X132406710Y-97709540D01*
X132327488Y-97828105D01*
X132272919Y-97959846D01*
X132245100Y-98099702D01*
X132245100Y-98242298D01*
X132272919Y-98382154D01*
X132327488Y-98513895D01*
X132406710Y-98632460D01*
X132507540Y-98733290D01*
X132511801Y-98736137D01*
X132511800Y-99175903D01*
X132319000Y-99175903D01*
X132244311Y-99183259D01*
X132172492Y-99205045D01*
X132106304Y-99240424D01*
X132048289Y-99288035D01*
X132000678Y-99346050D01*
X131965299Y-99412238D01*
X131943513Y-99484057D01*
X131936157Y-99558746D01*
X131936157Y-100258746D01*
X131943513Y-100333435D01*
X131965299Y-100405254D01*
X132000678Y-100471442D01*
X132048289Y-100529457D01*
X132106304Y-100577068D01*
X132172492Y-100612447D01*
X132244311Y-100634233D01*
X132319000Y-100641589D01*
X133619000Y-100641589D01*
X133693689Y-100634233D01*
X133765508Y-100612447D01*
X133831696Y-100577068D01*
X133858000Y-100555481D01*
X133858000Y-101162011D01*
X133831696Y-101140424D01*
X133765508Y-101105045D01*
X133693689Y-101083259D01*
X133619000Y-101075903D01*
X132319000Y-101075903D01*
X132244311Y-101083259D01*
X132172492Y-101105045D01*
X132106304Y-101140424D01*
X132048289Y-101188035D01*
X132000678Y-101246050D01*
X131965299Y-101312238D01*
X131943513Y-101384057D01*
X131936157Y-101458746D01*
X131936157Y-102158746D01*
X131943513Y-102233435D01*
X131943988Y-102235000D01*
X130880695Y-102235000D01*
X130881170Y-102233435D01*
X130888526Y-102158746D01*
X130888526Y-101158746D01*
X130881170Y-101084057D01*
X130859384Y-101012238D01*
X130824005Y-100946050D01*
X130776394Y-100888035D01*
X130718379Y-100840424D01*
X130652191Y-100805045D01*
X130595809Y-100787942D01*
X130630165Y-100784558D01*
X130749863Y-100748248D01*
X130860177Y-100689283D01*
X130956868Y-100609931D01*
X131036220Y-100513240D01*
X131095185Y-100402926D01*
X131131495Y-100283228D01*
X131143755Y-100158746D01*
X131140683Y-99944496D01*
X130981933Y-99785746D01*
X130007683Y-99785746D01*
X130007683Y-99805746D01*
X129753683Y-99805746D01*
X129753683Y-99785746D01*
X128779433Y-99785746D01*
X128620683Y-99944496D01*
X128617611Y-100158746D01*
X128629871Y-100283228D01*
X128666181Y-100402926D01*
X128725146Y-100513240D01*
X128804498Y-100609931D01*
X128901189Y-100689283D01*
X129001311Y-100742800D01*
X126632843Y-100742800D01*
X126632843Y-100650000D01*
X126625487Y-100575311D01*
X126603701Y-100503492D01*
X126568322Y-100437304D01*
X126520711Y-100379289D01*
X126462696Y-100331678D01*
X126396508Y-100296299D01*
X126324689Y-100274513D01*
X126250000Y-100267157D01*
X125150000Y-100267157D01*
X125075311Y-100274513D01*
X125003492Y-100296299D01*
X124937304Y-100331678D01*
X124879289Y-100379289D01*
X124831678Y-100437304D01*
X124796299Y-100503492D01*
X124774513Y-100575311D01*
X124767157Y-100650000D01*
X124767157Y-100742800D01*
X123032843Y-100742800D01*
X123032843Y-100650000D01*
X123025487Y-100575311D01*
X123003701Y-100503492D01*
X122968322Y-100437304D01*
X122920711Y-100379289D01*
X122862696Y-100331678D01*
X122796508Y-100296299D01*
X122724689Y-100274513D01*
X122650000Y-100267157D01*
X121550000Y-100267157D01*
X121475311Y-100274513D01*
X121403492Y-100296299D01*
X121337304Y-100331678D01*
X121279289Y-100379289D01*
X121231678Y-100437304D01*
X121196299Y-100503492D01*
X121174513Y-100575311D01*
X121167157Y-100650000D01*
X121167157Y-100742800D01*
X118715136Y-100742800D01*
X118712290Y-100738540D01*
X118611460Y-100637710D01*
X118492895Y-100558488D01*
X118361154Y-100503919D01*
X118221298Y-100476100D01*
X118078702Y-100476100D01*
X117938846Y-100503919D01*
X117807105Y-100558488D01*
X117688540Y-100637710D01*
X117587710Y-100738540D01*
X117508488Y-100857105D01*
X117453919Y-100988846D01*
X117426100Y-101128702D01*
X117426100Y-101271298D01*
X117453919Y-101411154D01*
X117508488Y-101542895D01*
X117587710Y-101661460D01*
X117688540Y-101762290D01*
X117807105Y-101841512D01*
X117938846Y-101896081D01*
X118078702Y-101923900D01*
X118221298Y-101923900D01*
X118361154Y-101896081D01*
X118492895Y-101841512D01*
X118611460Y-101762290D01*
X118712290Y-101661460D01*
X118715136Y-101657200D01*
X121167157Y-101657200D01*
X121167157Y-101750000D01*
X121174513Y-101824689D01*
X121196299Y-101896508D01*
X121231678Y-101962696D01*
X121279289Y-102020711D01*
X121337304Y-102068322D01*
X121403492Y-102103701D01*
X121475311Y-102125487D01*
X121550000Y-102132843D01*
X122650000Y-102132843D01*
X122724689Y-102125487D01*
X122796508Y-102103701D01*
X122862696Y-102068322D01*
X122920711Y-102020711D01*
X122968322Y-101962696D01*
X123003701Y-101896508D01*
X123025487Y-101824689D01*
X123032843Y-101750000D01*
X123032843Y-101657200D01*
X124767157Y-101657200D01*
X124767157Y-101750000D01*
X124774513Y-101824689D01*
X124796299Y-101896508D01*
X124831678Y-101962696D01*
X124879289Y-102020711D01*
X124937304Y-102068322D01*
X125003492Y-102103701D01*
X125075311Y-102125487D01*
X125150000Y-102132843D01*
X126250000Y-102132843D01*
X126324689Y-102125487D01*
X126396508Y-102103701D01*
X126462696Y-102068322D01*
X126520711Y-102020711D01*
X126568322Y-101962696D01*
X126603701Y-101896508D01*
X126625487Y-101824689D01*
X126632843Y-101750000D01*
X126632843Y-101657200D01*
X128872840Y-101657200D01*
X128872840Y-102158746D01*
X128880196Y-102233435D01*
X128880671Y-102235000D01*
X116763001Y-102235000D01*
X116763001Y-101743005D01*
X116766704Y-101740531D01*
X116890531Y-101616704D01*
X116987821Y-101471099D01*
X117054836Y-101309312D01*
X117089000Y-101137559D01*
X117089000Y-100962441D01*
X117054836Y-100790688D01*
X116987821Y-100628901D01*
X116890531Y-100483296D01*
X116766704Y-100359469D01*
X116621099Y-100262179D01*
X116459312Y-100195164D01*
X116287559Y-100161000D01*
X116112441Y-100161000D01*
X115940688Y-100195164D01*
X115778901Y-100262179D01*
X115633296Y-100359469D01*
X115509469Y-100483296D01*
X115412179Y-100628901D01*
X115345164Y-100790688D01*
X115311000Y-100962441D01*
X115311000Y-101137559D01*
X115345164Y-101309312D01*
X115412179Y-101471099D01*
X115509469Y-101616704D01*
X115633296Y-101740531D01*
X115747002Y-101816507D01*
X115747001Y-103176050D01*
X115744544Y-103200999D01*
X115747001Y-103225948D01*
X115747001Y-104083997D01*
X115671904Y-104115103D01*
X115470284Y-104249821D01*
X115298821Y-104421284D01*
X115164103Y-104622904D01*
X115071308Y-104846932D01*
X115024001Y-105084758D01*
X115024001Y-105327244D01*
X115071308Y-105565070D01*
X115164103Y-105789098D01*
X115298821Y-105990718D01*
X115303103Y-105995000D01*
X114666899Y-105995000D01*
X114671181Y-105990718D01*
X114805899Y-105789098D01*
X114898694Y-105565070D01*
X114946001Y-105327244D01*
X114946001Y-105084758D01*
X114898694Y-104846932D01*
X114805899Y-104622904D01*
X114671181Y-104421284D01*
X114499718Y-104249821D01*
X114298098Y-104115103D01*
X114074070Y-104022308D01*
X113836244Y-103975001D01*
X113593758Y-103975001D01*
X113355932Y-104022308D01*
X113131904Y-104115103D01*
X112930284Y-104249821D01*
X112758821Y-104421284D01*
X112624103Y-104622904D01*
X112531308Y-104846932D01*
X112484001Y-105084758D01*
X112484001Y-105327244D01*
X112531308Y-105565070D01*
X112624103Y-105789098D01*
X112758821Y-105990718D01*
X112763103Y-105995000D01*
X110003079Y-105995000D01*
X109572763Y-105952807D01*
X109179111Y-105833957D01*
X108816043Y-105640911D01*
X108497383Y-105381018D01*
X108235274Y-105064183D01*
X108039697Y-104702472D01*
X107918101Y-104309658D01*
X107873000Y-103880554D01*
X107873000Y-103750739D01*
X108024001Y-103750739D01*
X108024001Y-104121263D01*
X108096287Y-104484668D01*
X108238081Y-104826988D01*
X108443933Y-105135068D01*
X108705934Y-105397069D01*
X109014014Y-105602921D01*
X109356334Y-105744715D01*
X109719739Y-105817001D01*
X110090263Y-105817001D01*
X110453668Y-105744715D01*
X110795988Y-105602921D01*
X111104068Y-105397069D01*
X111366069Y-105135068D01*
X111571921Y-104826988D01*
X111713715Y-104484668D01*
X111786001Y-104121263D01*
X111786001Y-103750739D01*
X111713715Y-103387334D01*
X111571921Y-103045014D01*
X111366069Y-102736934D01*
X111104068Y-102474933D01*
X110795988Y-102269081D01*
X110453668Y-102127287D01*
X110090263Y-102055001D01*
X109719739Y-102055001D01*
X109356334Y-102127287D01*
X109014014Y-102269081D01*
X108705934Y-102474933D01*
X108443933Y-102736934D01*
X108238081Y-103045014D01*
X108096287Y-103387334D01*
X108024001Y-103750739D01*
X107873000Y-103750739D01*
X107873000Y-101582585D01*
X107904289Y-101620711D01*
X107962304Y-101668322D01*
X108028492Y-101703701D01*
X108100311Y-101725487D01*
X108175000Y-101732843D01*
X111575000Y-101732843D01*
X111649689Y-101725487D01*
X111721508Y-101703701D01*
X111787696Y-101668322D01*
X111845711Y-101620711D01*
X111893322Y-101562696D01*
X111928701Y-101496508D01*
X111950487Y-101424689D01*
X111957843Y-101350000D01*
X111957843Y-99850000D01*
X111950487Y-99775311D01*
X111928701Y-99703492D01*
X111893322Y-99637304D01*
X111845711Y-99579289D01*
X111787696Y-99531678D01*
X111721508Y-99496299D01*
X111649689Y-99474513D01*
X111575000Y-99467157D01*
X108175000Y-99467157D01*
X108100311Y-99474513D01*
X108028492Y-99496299D01*
X107962304Y-99531678D01*
X107904289Y-99579289D01*
X107873000Y-99617415D01*
X107873000Y-98750000D01*
X113236928Y-98750000D01*
X113249188Y-98874482D01*
X113285498Y-98994180D01*
X113344463Y-99104494D01*
X113423815Y-99201185D01*
X113520506Y-99280537D01*
X113630820Y-99339502D01*
X113750518Y-99375812D01*
X113875000Y-99388072D01*
X115339250Y-99385000D01*
X115498000Y-99226250D01*
X115498000Y-98377000D01*
X115752000Y-98377000D01*
X115752000Y-99226250D01*
X115910750Y-99385000D01*
X117375000Y-99388072D01*
X117499482Y-99375812D01*
X117619180Y-99339502D01*
X117729494Y-99280537D01*
X117826185Y-99201185D01*
X117905537Y-99104494D01*
X117964502Y-98994180D01*
X118000812Y-98874482D01*
X118013072Y-98750000D01*
X118010000Y-98535750D01*
X117851250Y-98377000D01*
X115752000Y-98377000D01*
X115498000Y-98377000D01*
X113398750Y-98377000D01*
X113240000Y-98535750D01*
X113236928Y-98750000D01*
X107873000Y-98750000D01*
X107873000Y-98328702D01*
X119476100Y-98328702D01*
X119476100Y-98471298D01*
X119503919Y-98611154D01*
X119558488Y-98742895D01*
X119637710Y-98861460D01*
X119738540Y-98962290D01*
X119857105Y-99041512D01*
X119988846Y-99096081D01*
X120128702Y-99123900D01*
X120271298Y-99123900D01*
X120411154Y-99096081D01*
X120542895Y-99041512D01*
X120661460Y-98962290D01*
X120762290Y-98861460D01*
X120765136Y-98857200D01*
X121167157Y-98857200D01*
X121167157Y-98950000D01*
X121174513Y-99024689D01*
X121196299Y-99096508D01*
X121231678Y-99162696D01*
X121279289Y-99220711D01*
X121337304Y-99268322D01*
X121403492Y-99303701D01*
X121475311Y-99325487D01*
X121550000Y-99332843D01*
X122650000Y-99332843D01*
X122724689Y-99325487D01*
X122796508Y-99303701D01*
X122862696Y-99268322D01*
X122920711Y-99220711D01*
X122968322Y-99162696D01*
X123003701Y-99096508D01*
X123025487Y-99024689D01*
X123032843Y-98950000D01*
X123032843Y-98023892D01*
X123271290Y-98023892D01*
X123271290Y-98166488D01*
X123299109Y-98306344D01*
X123353678Y-98438085D01*
X123432900Y-98556650D01*
X123533730Y-98657480D01*
X123652295Y-98736702D01*
X123784036Y-98791271D01*
X123923892Y-98819090D01*
X124066488Y-98819090D01*
X124101245Y-98812176D01*
X124124191Y-98824441D01*
X124210373Y-98850585D01*
X124277540Y-98857200D01*
X124277549Y-98857200D01*
X124299999Y-98859411D01*
X124322449Y-98857200D01*
X124767157Y-98857200D01*
X124767157Y-98950000D01*
X124774513Y-99024689D01*
X124796299Y-99096508D01*
X124831678Y-99162696D01*
X124879289Y-99220711D01*
X124937304Y-99268322D01*
X125003492Y-99303701D01*
X125075311Y-99325487D01*
X125150000Y-99332843D01*
X126250000Y-99332843D01*
X126324689Y-99325487D01*
X126396508Y-99303701D01*
X126462696Y-99268322D01*
X126520711Y-99220711D01*
X126568322Y-99162696D01*
X126570433Y-99158746D01*
X128617611Y-99158746D01*
X128620683Y-99372996D01*
X128779433Y-99531746D01*
X129753683Y-99531746D01*
X129753683Y-98682496D01*
X130007683Y-98682496D01*
X130007683Y-99531746D01*
X130981933Y-99531746D01*
X131140683Y-99372996D01*
X131143755Y-99158746D01*
X131131495Y-99034264D01*
X131095185Y-98914566D01*
X131036220Y-98804252D01*
X130956868Y-98707561D01*
X130860177Y-98628209D01*
X130749863Y-98569244D01*
X130630165Y-98532934D01*
X130505683Y-98520674D01*
X130166433Y-98523746D01*
X130007683Y-98682496D01*
X129753683Y-98682496D01*
X129594933Y-98523746D01*
X129255683Y-98520674D01*
X129131201Y-98532934D01*
X129011503Y-98569244D01*
X128901189Y-98628209D01*
X128804498Y-98707561D01*
X128725146Y-98804252D01*
X128666181Y-98914566D01*
X128629871Y-99034264D01*
X128617611Y-99158746D01*
X126570433Y-99158746D01*
X126603701Y-99096508D01*
X126625487Y-99024689D01*
X126632843Y-98950000D01*
X126632843Y-97850000D01*
X126625487Y-97775311D01*
X126603701Y-97703492D01*
X126568322Y-97637304D01*
X126520711Y-97579289D01*
X126462696Y-97531678D01*
X126396508Y-97496299D01*
X126324689Y-97474513D01*
X126250000Y-97467157D01*
X125150000Y-97467157D01*
X125075311Y-97474513D01*
X125003492Y-97496299D01*
X124937304Y-97531678D01*
X124879289Y-97579289D01*
X124831678Y-97637304D01*
X124796299Y-97703492D01*
X124774513Y-97775311D01*
X124767157Y-97850000D01*
X124767157Y-97942800D01*
X124702960Y-97942800D01*
X124691271Y-97884036D01*
X124636702Y-97752295D01*
X124557480Y-97633730D01*
X124456650Y-97532900D01*
X124338085Y-97453678D01*
X124206344Y-97399109D01*
X124066488Y-97371290D01*
X123923892Y-97371290D01*
X123784036Y-97399109D01*
X123652295Y-97453678D01*
X123533730Y-97532900D01*
X123432900Y-97633730D01*
X123353678Y-97752295D01*
X123299109Y-97884036D01*
X123271290Y-98023892D01*
X123032843Y-98023892D01*
X123032843Y-97850000D01*
X123025487Y-97775311D01*
X123003701Y-97703492D01*
X122968322Y-97637304D01*
X122920711Y-97579289D01*
X122862696Y-97531678D01*
X122796508Y-97496299D01*
X122724689Y-97474513D01*
X122650000Y-97467157D01*
X121550000Y-97467157D01*
X121475311Y-97474513D01*
X121403492Y-97496299D01*
X121337304Y-97531678D01*
X121279289Y-97579289D01*
X121231678Y-97637304D01*
X121196299Y-97703492D01*
X121174513Y-97775311D01*
X121167157Y-97850000D01*
X121167157Y-97942800D01*
X120765136Y-97942800D01*
X120762290Y-97938540D01*
X120661460Y-97837710D01*
X120542895Y-97758488D01*
X120411154Y-97703919D01*
X120271298Y-97676100D01*
X120128702Y-97676100D01*
X119988846Y-97703919D01*
X119857105Y-97758488D01*
X119738540Y-97837710D01*
X119637710Y-97938540D01*
X119558488Y-98057105D01*
X119503919Y-98188846D01*
X119476100Y-98328702D01*
X107873000Y-98328702D01*
X107873000Y-90882585D01*
X107904289Y-90920711D01*
X107962304Y-90968322D01*
X108028492Y-91003701D01*
X108100311Y-91025487D01*
X108175000Y-91032843D01*
X111575000Y-91032843D01*
X111649689Y-91025487D01*
X111721508Y-91003701D01*
X111787696Y-90968322D01*
X111845711Y-90920711D01*
X111893322Y-90862696D01*
X111928701Y-90796508D01*
X111950487Y-90724689D01*
X111957843Y-90650000D01*
X111957843Y-89150000D01*
X111950487Y-89075311D01*
X111928701Y-89003492D01*
X111893322Y-88937304D01*
X111845711Y-88879289D01*
X111787696Y-88831678D01*
X111721508Y-88796299D01*
X111649689Y-88774513D01*
X111575000Y-88767157D01*
X108175000Y-88767157D01*
X108100311Y-88774513D01*
X108028492Y-88796299D01*
X107962304Y-88831678D01*
X107904289Y-88879289D01*
X107873000Y-88917415D01*
X107873000Y-86127079D01*
X107888329Y-85970739D01*
X108024001Y-85970739D01*
X108024001Y-86341263D01*
X108096287Y-86704668D01*
X108238081Y-87046988D01*
X108443933Y-87355068D01*
X108705934Y-87617069D01*
X109014014Y-87822921D01*
X109356334Y-87964715D01*
X109719739Y-88037001D01*
X110090263Y-88037001D01*
X110453668Y-87964715D01*
X110795988Y-87822921D01*
X111104068Y-87617069D01*
X111366069Y-87355068D01*
X111571921Y-87046988D01*
X111576886Y-87035000D01*
X114111928Y-87035000D01*
X114124188Y-87159482D01*
X114160498Y-87279180D01*
X114219463Y-87389494D01*
X114298815Y-87486185D01*
X114395506Y-87565537D01*
X114505820Y-87624502D01*
X114625518Y-87660812D01*
X114750000Y-87673072D01*
X114914250Y-87670000D01*
X115073000Y-87511250D01*
X115073000Y-86527000D01*
X115327000Y-86527000D01*
X115327000Y-87511250D01*
X115485750Y-87670000D01*
X115650000Y-87673072D01*
X115774482Y-87660812D01*
X115894180Y-87624502D01*
X116004494Y-87565537D01*
X116101185Y-87486185D01*
X116180537Y-87389494D01*
X116239502Y-87279180D01*
X116275812Y-87159482D01*
X116288072Y-87035000D01*
X116285000Y-86685750D01*
X116126250Y-86527000D01*
X115327000Y-86527000D01*
X115073000Y-86527000D01*
X114273750Y-86527000D01*
X114115000Y-86685750D01*
X114111928Y-87035000D01*
X111576886Y-87035000D01*
X111713715Y-86704668D01*
X111768608Y-86428702D01*
X116771290Y-86428702D01*
X116771290Y-86571298D01*
X116799109Y-86711154D01*
X116853678Y-86842895D01*
X116932900Y-86961460D01*
X117033730Y-87062290D01*
X117152295Y-87141512D01*
X117284036Y-87196081D01*
X117423892Y-87223900D01*
X117566488Y-87223900D01*
X117706344Y-87196081D01*
X117838085Y-87141512D01*
X117956650Y-87062290D01*
X118057480Y-86961460D01*
X118060326Y-86957200D01*
X118567157Y-86957200D01*
X118567157Y-87035000D01*
X118574513Y-87109689D01*
X118596299Y-87181508D01*
X118631678Y-87247696D01*
X118679289Y-87305711D01*
X118737304Y-87353322D01*
X118803492Y-87388701D01*
X118875311Y-87410487D01*
X118950000Y-87417843D01*
X119850000Y-87417843D01*
X119924689Y-87410487D01*
X119996508Y-87388701D01*
X120062696Y-87353322D01*
X120120711Y-87305711D01*
X120168322Y-87247696D01*
X120203701Y-87181508D01*
X120225487Y-87109689D01*
X120232843Y-87035000D01*
X120232843Y-85765000D01*
X120225487Y-85690311D01*
X120203701Y-85618492D01*
X120168322Y-85552304D01*
X120120711Y-85494289D01*
X120062696Y-85446678D01*
X119996508Y-85411299D01*
X119924689Y-85389513D01*
X119850000Y-85382157D01*
X118950000Y-85382157D01*
X118875311Y-85389513D01*
X118803492Y-85411299D01*
X118737304Y-85446678D01*
X118679289Y-85494289D01*
X118631678Y-85552304D01*
X118596299Y-85618492D01*
X118574513Y-85690311D01*
X118567157Y-85765000D01*
X118567157Y-86042800D01*
X118060326Y-86042800D01*
X118057480Y-86038540D01*
X117956650Y-85937710D01*
X117838085Y-85858488D01*
X117706344Y-85803919D01*
X117566488Y-85776100D01*
X117423892Y-85776100D01*
X117284036Y-85803919D01*
X117152295Y-85858488D01*
X117033730Y-85937710D01*
X116932900Y-86038540D01*
X116853678Y-86157105D01*
X116799109Y-86288846D01*
X116771290Y-86428702D01*
X111768608Y-86428702D01*
X111786001Y-86341263D01*
X111786001Y-85970739D01*
X111713715Y-85607334D01*
X111571921Y-85265014D01*
X111366069Y-84956934D01*
X111104068Y-84694933D01*
X110795988Y-84489081D01*
X110453668Y-84347287D01*
X110090263Y-84275001D01*
X109719739Y-84275001D01*
X109356334Y-84347287D01*
X109014014Y-84489081D01*
X108705934Y-84694933D01*
X108443933Y-84956934D01*
X108238081Y-85265014D01*
X108096287Y-85607334D01*
X108024001Y-85970739D01*
X107888329Y-85970739D01*
X107915193Y-85696762D01*
X108034044Y-85303107D01*
X108227089Y-84940043D01*
X108486979Y-84621385D01*
X108803820Y-84359272D01*
X109165528Y-84163697D01*
X109558343Y-84042101D01*
X109987446Y-83997000D01*
X112858101Y-83997000D01*
X112849513Y-84025311D01*
G36*
X148767801Y-100773379D02*
G01*
X148767800Y-103931469D01*
X148765589Y-103953919D01*
X148767800Y-103976369D01*
X148767800Y-103976378D01*
X148774415Y-104043545D01*
X148784489Y-104076753D01*
X148691904Y-104115103D01*
X148490284Y-104249821D01*
X148318821Y-104421284D01*
X148184103Y-104622904D01*
X148091308Y-104846932D01*
X148044001Y-105084758D01*
X148044001Y-105327244D01*
X148091308Y-105565070D01*
X148184103Y-105789098D01*
X148318821Y-105990718D01*
X148323103Y-105995000D01*
X147686899Y-105995000D01*
X147691181Y-105990718D01*
X147825899Y-105789098D01*
X147918694Y-105565070D01*
X147966001Y-105327244D01*
X147966001Y-105084758D01*
X147918694Y-104846932D01*
X147825899Y-104622904D01*
X147691181Y-104421284D01*
X147519718Y-104249821D01*
X147318098Y-104115103D01*
X147192201Y-104062955D01*
X147192201Y-101348656D01*
X147209961Y-101336789D01*
X147310791Y-101235959D01*
X147390013Y-101117394D01*
X147444582Y-100985653D01*
X147472401Y-100845797D01*
X147472401Y-100703201D01*
X147444582Y-100563345D01*
X147390013Y-100431604D01*
X147373039Y-100406200D01*
X148400623Y-100406200D01*
X148767801Y-100773379D01*
G37*
X148767801Y-100773379D02*
X148767800Y-103931469D01*
X148765589Y-103953919D01*
X148767800Y-103976369D01*
X148767800Y-103976378D01*
X148774415Y-104043545D01*
X148784489Y-104076753D01*
X148691904Y-104115103D01*
X148490284Y-104249821D01*
X148318821Y-104421284D01*
X148184103Y-104622904D01*
X148091308Y-104846932D01*
X148044001Y-105084758D01*
X148044001Y-105327244D01*
X148091308Y-105565070D01*
X148184103Y-105789098D01*
X148318821Y-105990718D01*
X148323103Y-105995000D01*
X147686899Y-105995000D01*
X147691181Y-105990718D01*
X147825899Y-105789098D01*
X147918694Y-105565070D01*
X147966001Y-105327244D01*
X147966001Y-105084758D01*
X147918694Y-104846932D01*
X147825899Y-104622904D01*
X147691181Y-104421284D01*
X147519718Y-104249821D01*
X147318098Y-104115103D01*
X147192201Y-104062955D01*
X147192201Y-101348656D01*
X147209961Y-101336789D01*
X147310791Y-101235959D01*
X147390013Y-101117394D01*
X147444582Y-100985653D01*
X147472401Y-100845797D01*
X147472401Y-100703201D01*
X147444582Y-100563345D01*
X147390013Y-100431604D01*
X147373039Y-100406200D01*
X148400623Y-100406200D01*
X148767801Y-100773379D01*
M02*
