G04 #@! TF.GenerationSoftware,KiCad,Pcbnew,(5.0.0-rc2-dev-444-g2974a2c10)*
G04 #@! TF.CreationDate,2019-12-09T12:09:48-08:00*
G04 #@! TF.ProjectId,Stemma_Host_FeatherWing,5374656D6D615F486F73745F46656174,v02*
G04 #@! TF.SameCoordinates,Original*
G04 #@! TF.FileFunction,Soldermask,Top*
G04 #@! TF.FilePolarity,Negative*
%FSLAX46Y46*%
G04 Gerber Fmt 4.6, Leading zero omitted, Abs format (unit mm)*
G04 Created by KiCad (PCBNEW (5.0.0-rc2-dev-444-g2974a2c10)) date 12/09/19 12:09:48*
%MOMM*%
%LPD*%
G01*
G04 APERTURE LIST*
%ADD10C,0.240000*%
%ADD11C,0.150000*%
%ADD12C,0.100000*%
%ADD13R,0.751600X0.501600*%
%ADD14R,1.901600X1.301600*%
%ADD15R,1.651600X0.701600*%
%ADD16R,1.351600X1.101600*%
%ADD17C,1.801600*%
%ADD18C,2.601600*%
%ADD19C,3.101600*%
%ADD20R,1.401600X0.801600*%
%ADD21R,0.901600X0.601600*%
%ADD22R,0.901600X0.501600*%
%ADD23R,3.601600X1.101600*%
%ADD24R,3.501600X1.601600*%
%ADD25R,1.201600X1.201600*%
%ADD26R,1.001600X1.371600*%
%ADD27R,1.551600X0.901600*%
G04 APERTURE END LIST*
D10*
X127384571Y-90965714D02*
X127556000Y-91022857D01*
X127841714Y-91022857D01*
X127956000Y-90965714D01*
X128013142Y-90908571D01*
X128070285Y-90794285D01*
X128070285Y-90680000D01*
X128013142Y-90565714D01*
X127956000Y-90508571D01*
X127841714Y-90451428D01*
X127613142Y-90394285D01*
X127498857Y-90337142D01*
X127441714Y-90280000D01*
X127384571Y-90165714D01*
X127384571Y-90051428D01*
X127441714Y-89937142D01*
X127498857Y-89880000D01*
X127613142Y-89822857D01*
X127898857Y-89822857D01*
X128070285Y-89880000D01*
X128413142Y-90222857D02*
X128870285Y-90222857D01*
X128584571Y-89822857D02*
X128584571Y-90851428D01*
X128641714Y-90965714D01*
X128756000Y-91022857D01*
X128870285Y-91022857D01*
X129727428Y-90965714D02*
X129613142Y-91022857D01*
X129384571Y-91022857D01*
X129270285Y-90965714D01*
X129213142Y-90851428D01*
X129213142Y-90394285D01*
X129270285Y-90280000D01*
X129384571Y-90222857D01*
X129613142Y-90222857D01*
X129727428Y-90280000D01*
X129784571Y-90394285D01*
X129784571Y-90508571D01*
X129213142Y-90622857D01*
X130298857Y-91022857D02*
X130298857Y-90222857D01*
X130298857Y-90337142D02*
X130356000Y-90280000D01*
X130470285Y-90222857D01*
X130641714Y-90222857D01*
X130756000Y-90280000D01*
X130813142Y-90394285D01*
X130813142Y-91022857D01*
X130813142Y-90394285D02*
X130870285Y-90280000D01*
X130984571Y-90222857D01*
X131156000Y-90222857D01*
X131270285Y-90280000D01*
X131327428Y-90394285D01*
X131327428Y-91022857D01*
X131898857Y-91022857D02*
X131898857Y-90222857D01*
X131898857Y-90337142D02*
X131956000Y-90280000D01*
X132070285Y-90222857D01*
X132241714Y-90222857D01*
X132356000Y-90280000D01*
X132413142Y-90394285D01*
X132413142Y-91022857D01*
X132413142Y-90394285D02*
X132470285Y-90280000D01*
X132584571Y-90222857D01*
X132756000Y-90222857D01*
X132870285Y-90280000D01*
X132927428Y-90394285D01*
X132927428Y-91022857D01*
X134013142Y-91022857D02*
X134013142Y-90394285D01*
X133956000Y-90280000D01*
X133841714Y-90222857D01*
X133613142Y-90222857D01*
X133498857Y-90280000D01*
X134013142Y-90965714D02*
X133898857Y-91022857D01*
X133613142Y-91022857D01*
X133498857Y-90965714D01*
X133441714Y-90851428D01*
X133441714Y-90737142D01*
X133498857Y-90622857D01*
X133613142Y-90565714D01*
X133898857Y-90565714D01*
X134013142Y-90508571D01*
X135498857Y-91022857D02*
X135498857Y-89822857D01*
X135498857Y-90394285D02*
X136184571Y-90394285D01*
X136184571Y-91022857D02*
X136184571Y-89822857D01*
X136927428Y-91022857D02*
X136813142Y-90965714D01*
X136756000Y-90908571D01*
X136698857Y-90794285D01*
X136698857Y-90451428D01*
X136756000Y-90337142D01*
X136813142Y-90280000D01*
X136927428Y-90222857D01*
X137098857Y-90222857D01*
X137213142Y-90280000D01*
X137270285Y-90337142D01*
X137327428Y-90451428D01*
X137327428Y-90794285D01*
X137270285Y-90908571D01*
X137213142Y-90965714D01*
X137098857Y-91022857D01*
X136927428Y-91022857D01*
X137784571Y-90965714D02*
X137898857Y-91022857D01*
X138127428Y-91022857D01*
X138241714Y-90965714D01*
X138298857Y-90851428D01*
X138298857Y-90794285D01*
X138241714Y-90680000D01*
X138127428Y-90622857D01*
X137956000Y-90622857D01*
X137841714Y-90565714D01*
X137784571Y-90451428D01*
X137784571Y-90394285D01*
X137841714Y-90280000D01*
X137956000Y-90222857D01*
X138127428Y-90222857D01*
X138241714Y-90280000D01*
X138641714Y-90222857D02*
X139098857Y-90222857D01*
X138813142Y-89822857D02*
X138813142Y-90851428D01*
X138870285Y-90965714D01*
X138984571Y-91022857D01*
X139098857Y-91022857D01*
X127841714Y-92434285D02*
X127441714Y-92434285D01*
X127441714Y-93062857D02*
X127441714Y-91862857D01*
X128013142Y-91862857D01*
X128927428Y-93005714D02*
X128813142Y-93062857D01*
X128584571Y-93062857D01*
X128470285Y-93005714D01*
X128413142Y-92891428D01*
X128413142Y-92434285D01*
X128470285Y-92320000D01*
X128584571Y-92262857D01*
X128813142Y-92262857D01*
X128927428Y-92320000D01*
X128984571Y-92434285D01*
X128984571Y-92548571D01*
X128413142Y-92662857D01*
X130013142Y-93062857D02*
X130013142Y-92434285D01*
X129956000Y-92320000D01*
X129841714Y-92262857D01*
X129613142Y-92262857D01*
X129498857Y-92320000D01*
X130013142Y-93005714D02*
X129898857Y-93062857D01*
X129613142Y-93062857D01*
X129498857Y-93005714D01*
X129441714Y-92891428D01*
X129441714Y-92777142D01*
X129498857Y-92662857D01*
X129613142Y-92605714D01*
X129898857Y-92605714D01*
X130013142Y-92548571D01*
X130413142Y-92262857D02*
X130870285Y-92262857D01*
X130584571Y-91862857D02*
X130584571Y-92891428D01*
X130641714Y-93005714D01*
X130756000Y-93062857D01*
X130870285Y-93062857D01*
X131270285Y-93062857D02*
X131270285Y-91862857D01*
X131784571Y-93062857D02*
X131784571Y-92434285D01*
X131727428Y-92320000D01*
X131613142Y-92262857D01*
X131441714Y-92262857D01*
X131327428Y-92320000D01*
X131270285Y-92377142D01*
X132813142Y-93005714D02*
X132698857Y-93062857D01*
X132470285Y-93062857D01*
X132356000Y-93005714D01*
X132298857Y-92891428D01*
X132298857Y-92434285D01*
X132356000Y-92320000D01*
X132470285Y-92262857D01*
X132698857Y-92262857D01*
X132813142Y-92320000D01*
X132870285Y-92434285D01*
X132870285Y-92548571D01*
X132298857Y-92662857D01*
X133384571Y-93062857D02*
X133384571Y-92262857D01*
X133384571Y-92491428D02*
X133441714Y-92377142D01*
X133498857Y-92320000D01*
X133613142Y-92262857D01*
X133727428Y-92262857D01*
X134013142Y-91862857D02*
X134298857Y-93062857D01*
X134527428Y-92205714D01*
X134756000Y-93062857D01*
X135041714Y-91862857D01*
X135498857Y-93062857D02*
X135498857Y-92262857D01*
X135498857Y-91862857D02*
X135441714Y-91920000D01*
X135498857Y-91977142D01*
X135556000Y-91920000D01*
X135498857Y-91862857D01*
X135498857Y-91977142D01*
X136070285Y-92262857D02*
X136070285Y-93062857D01*
X136070285Y-92377142D02*
X136127428Y-92320000D01*
X136241714Y-92262857D01*
X136413142Y-92262857D01*
X136527428Y-92320000D01*
X136584571Y-92434285D01*
X136584571Y-93062857D01*
X137670285Y-92262857D02*
X137670285Y-93234285D01*
X137613142Y-93348571D01*
X137556000Y-93405714D01*
X137441714Y-93462857D01*
X137270285Y-93462857D01*
X137156000Y-93405714D01*
X137670285Y-93005714D02*
X137556000Y-93062857D01*
X137327428Y-93062857D01*
X137213142Y-93005714D01*
X137156000Y-92948571D01*
X137098857Y-92834285D01*
X137098857Y-92491428D01*
X137156000Y-92377142D01*
X137213142Y-92320000D01*
X137327428Y-92262857D01*
X137556000Y-92262857D01*
X137670285Y-92320000D01*
D11*
X120100000Y-93875000D02*
X120066666Y-93908333D01*
X119966666Y-93941666D01*
X119900000Y-93941666D01*
X119800000Y-93908333D01*
X119733333Y-93841666D01*
X119700000Y-93775000D01*
X119666666Y-93641666D01*
X119666666Y-93541666D01*
X119700000Y-93408333D01*
X119733333Y-93341666D01*
X119800000Y-93275000D01*
X119900000Y-93241666D01*
X119966666Y-93241666D01*
X120066666Y-93275000D01*
X120100000Y-93308333D01*
X120666666Y-93908333D02*
X120600000Y-93941666D01*
X120466666Y-93941666D01*
X120400000Y-93908333D01*
X120366666Y-93841666D01*
X120366666Y-93575000D01*
X120400000Y-93508333D01*
X120466666Y-93475000D01*
X120600000Y-93475000D01*
X120666666Y-93508333D01*
X120700000Y-93575000D01*
X120700000Y-93641666D01*
X120366666Y-93708333D01*
X121300000Y-93941666D02*
X121300000Y-93241666D01*
X121300000Y-93908333D02*
X121233333Y-93941666D01*
X121100000Y-93941666D01*
X121033333Y-93908333D01*
X121000000Y-93875000D01*
X120966666Y-93808333D01*
X120966666Y-93608333D01*
X121000000Y-93541666D01*
X121033333Y-93508333D01*
X121100000Y-93475000D01*
X121233333Y-93475000D01*
X121300000Y-93508333D01*
X121933333Y-93941666D02*
X121933333Y-93575000D01*
X121900000Y-93508333D01*
X121833333Y-93475000D01*
X121700000Y-93475000D01*
X121633333Y-93508333D01*
X121933333Y-93908333D02*
X121866666Y-93941666D01*
X121700000Y-93941666D01*
X121633333Y-93908333D01*
X121600000Y-93841666D01*
X121600000Y-93775000D01*
X121633333Y-93708333D01*
X121700000Y-93675000D01*
X121866666Y-93675000D01*
X121933333Y-93641666D01*
X122266666Y-93941666D02*
X122266666Y-93475000D01*
X122266666Y-93608333D02*
X122300000Y-93541666D01*
X122333333Y-93508333D01*
X122400000Y-93475000D01*
X122466666Y-93475000D01*
X123600000Y-93275000D02*
X123533333Y-93241666D01*
X123433333Y-93241666D01*
X123333333Y-93275000D01*
X123266666Y-93341666D01*
X123233333Y-93408333D01*
X123200000Y-93541666D01*
X123200000Y-93641666D01*
X123233333Y-93775000D01*
X123266666Y-93841666D01*
X123333333Y-93908333D01*
X123433333Y-93941666D01*
X123500000Y-93941666D01*
X123600000Y-93908333D01*
X123633333Y-93875000D01*
X123633333Y-93641666D01*
X123500000Y-93641666D01*
X123933333Y-93941666D02*
X123933333Y-93475000D01*
X123933333Y-93608333D02*
X123966666Y-93541666D01*
X124000000Y-93508333D01*
X124066666Y-93475000D01*
X124133333Y-93475000D01*
X124466666Y-93941666D02*
X124400000Y-93908333D01*
X124366666Y-93875000D01*
X124333333Y-93808333D01*
X124333333Y-93608333D01*
X124366666Y-93541666D01*
X124400000Y-93508333D01*
X124466666Y-93475000D01*
X124566666Y-93475000D01*
X124633333Y-93508333D01*
X124666666Y-93541666D01*
X124700000Y-93608333D01*
X124700000Y-93808333D01*
X124666666Y-93875000D01*
X124633333Y-93908333D01*
X124566666Y-93941666D01*
X124466666Y-93941666D01*
X124933333Y-93475000D02*
X125100000Y-93941666D01*
X125266666Y-93475000D01*
X125800000Y-93908333D02*
X125733333Y-93941666D01*
X125600000Y-93941666D01*
X125533333Y-93908333D01*
X125500000Y-93841666D01*
X125500000Y-93575000D01*
X125533333Y-93508333D01*
X125600000Y-93475000D01*
X125733333Y-93475000D01*
X125800000Y-93508333D01*
X125833333Y-93575000D01*
X125833333Y-93641666D01*
X125500000Y-93708333D01*
X120950000Y-95108333D02*
X121050000Y-95141666D01*
X121216666Y-95141666D01*
X121283333Y-95108333D01*
X121316666Y-95075000D01*
X121350000Y-95008333D01*
X121350000Y-94941666D01*
X121316666Y-94875000D01*
X121283333Y-94841666D01*
X121216666Y-94808333D01*
X121083333Y-94775000D01*
X121016666Y-94741666D01*
X120983333Y-94708333D01*
X120950000Y-94641666D01*
X120950000Y-94575000D01*
X120983333Y-94508333D01*
X121016666Y-94475000D01*
X121083333Y-94441666D01*
X121250000Y-94441666D01*
X121350000Y-94475000D01*
X121550000Y-94675000D02*
X121816666Y-94675000D01*
X121650000Y-94441666D02*
X121650000Y-95041666D01*
X121683333Y-95108333D01*
X121750000Y-95141666D01*
X121816666Y-95141666D01*
X122350000Y-94675000D02*
X122350000Y-95141666D01*
X122050000Y-94675000D02*
X122050000Y-95041666D01*
X122083333Y-95108333D01*
X122150000Y-95141666D01*
X122250000Y-95141666D01*
X122316666Y-95108333D01*
X122350000Y-95075000D01*
X122983333Y-95141666D02*
X122983333Y-94441666D01*
X122983333Y-95108333D02*
X122916666Y-95141666D01*
X122783333Y-95141666D01*
X122716666Y-95108333D01*
X122683333Y-95075000D01*
X122650000Y-95008333D01*
X122650000Y-94808333D01*
X122683333Y-94741666D01*
X122716666Y-94708333D01*
X122783333Y-94675000D01*
X122916666Y-94675000D01*
X122983333Y-94708333D01*
X123316666Y-95141666D02*
X123316666Y-94675000D01*
X123316666Y-94441666D02*
X123283333Y-94475000D01*
X123316666Y-94508333D01*
X123350000Y-94475000D01*
X123316666Y-94441666D01*
X123316666Y-94508333D01*
X123750000Y-95141666D02*
X123683333Y-95108333D01*
X123650000Y-95075000D01*
X123616666Y-95008333D01*
X123616666Y-94808333D01*
X123650000Y-94741666D01*
X123683333Y-94708333D01*
X123750000Y-94675000D01*
X123850000Y-94675000D01*
X123916666Y-94708333D01*
X123950000Y-94741666D01*
X123983333Y-94808333D01*
X123983333Y-95008333D01*
X123950000Y-95075000D01*
X123916666Y-95108333D01*
X123850000Y-95141666D01*
X123750000Y-95141666D01*
X124250000Y-95108333D02*
X124316666Y-95141666D01*
X124450000Y-95141666D01*
X124516666Y-95108333D01*
X124550000Y-95041666D01*
X124550000Y-95008333D01*
X124516666Y-94941666D01*
X124450000Y-94908333D01*
X124350000Y-94908333D01*
X124283333Y-94875000D01*
X124250000Y-94808333D01*
X124250000Y-94775000D01*
X124283333Y-94708333D01*
X124350000Y-94675000D01*
X124450000Y-94675000D01*
X124516666Y-94708333D01*
D12*
X121808000Y-90104000D02*
X121718000Y-90194000D01*
X122058000Y-89774000D02*
X121918000Y-89954000D01*
X121818000Y-89904000D02*
X122058000Y-89774000D01*
X122058000Y-89134000D02*
X121608000Y-89604000D01*
X122918000Y-89944000D02*
X122848000Y-89864000D01*
X122828000Y-89124000D02*
X123418000Y-89354000D01*
X122408000Y-88274000D02*
X121368000Y-89314000D01*
X121398000Y-89384000D02*
X122028000Y-89124000D01*
X123128000Y-90194000D02*
X123058000Y-90114000D01*
X122628000Y-90524000D02*
X122778000Y-90584000D01*
X122078000Y-90594000D02*
X122228000Y-90524000D01*
X123278000Y-89604000D02*
X122828000Y-89124000D01*
X123458000Y-89334000D02*
X122458000Y-88264000D01*
X122228000Y-90524000D02*
X122228000Y-91724000D01*
X122228000Y-91724000D02*
X122628000Y-91724000D01*
X122828000Y-89824000D02*
X122998000Y-89874000D01*
X122628000Y-91724000D02*
X122628000Y-90524000D01*
X121228000Y-91324000D02*
X122228000Y-91624000D01*
X119828000Y-90824000D02*
X120628000Y-90624000D01*
X119828000Y-91624000D02*
X120828000Y-91324000D01*
X120628000Y-90624000D02*
X119828000Y-91624000D01*
X121028000Y-89024000D02*
X119928000Y-90224000D01*
X119928000Y-90224000D02*
X120628000Y-89924000D01*
X120628000Y-89924000D02*
X119828000Y-90824000D01*
X121428000Y-90624000D02*
X122228000Y-90824000D01*
X122228000Y-90824000D02*
X121428000Y-89924000D01*
X122128000Y-90224000D02*
X121028000Y-89024000D01*
X121428000Y-89924000D02*
X122128000Y-90224000D01*
X121228000Y-92524000D02*
X121228000Y-91324000D01*
X120828000Y-92524000D02*
X121228000Y-92524000D01*
X122228000Y-91624000D02*
X121428000Y-90624000D01*
X120828000Y-91324000D02*
X120828000Y-92524000D01*
X122628000Y-91624000D02*
X123628000Y-91324000D01*
X123428000Y-90624000D02*
X122628000Y-91624000D01*
X122628000Y-90824000D02*
X123428000Y-90624000D01*
X123428000Y-89924000D02*
X122628000Y-90824000D01*
X122728000Y-90224000D02*
X123428000Y-89924000D01*
X123828000Y-89024000D02*
X122728000Y-90224000D01*
X124928000Y-90224000D02*
X123828000Y-89024000D01*
X124228000Y-89924000D02*
X124928000Y-90224000D01*
X125028000Y-90824000D02*
X124228000Y-89924000D01*
X124228000Y-90624000D02*
X125028000Y-90824000D01*
X125028000Y-91624000D02*
X124228000Y-90624000D01*
X124028000Y-91324000D02*
X125028000Y-91624000D01*
X124028000Y-92524000D02*
X124028000Y-91324000D01*
X123628000Y-92524000D02*
X124028000Y-92524000D01*
X123628000Y-91324000D02*
X123628000Y-92524000D01*
D11*
G36*
X121018000Y-89144000D02*
X120188000Y-90044000D01*
X120758000Y-89844000D01*
X120008000Y-90714000D01*
X120738000Y-90554000D01*
X119988000Y-91514000D01*
X120907000Y-91186000D01*
X120907000Y-92456000D01*
X121161000Y-92456000D01*
X121161000Y-91186000D01*
X122108000Y-91534000D01*
X121258000Y-90524000D01*
X122068000Y-90724000D01*
X121288000Y-89864000D01*
X121848000Y-90004000D01*
X121018000Y-89144000D01*
G37*
X121018000Y-89144000D02*
X120188000Y-90044000D01*
X120758000Y-89844000D01*
X120008000Y-90714000D01*
X120738000Y-90554000D01*
X119988000Y-91514000D01*
X120907000Y-91186000D01*
X120907000Y-92456000D01*
X121161000Y-92456000D01*
X121161000Y-91186000D01*
X122108000Y-91534000D01*
X121258000Y-90524000D01*
X122068000Y-90724000D01*
X121288000Y-89864000D01*
X121848000Y-90004000D01*
X121018000Y-89144000D01*
G36*
X123828000Y-89114000D02*
X122908000Y-90104000D01*
X123638000Y-89764000D01*
X122768000Y-90744000D01*
X123558000Y-90554000D01*
X122778000Y-91534000D01*
X123698000Y-91254000D01*
X123698000Y-92474000D01*
X123978000Y-92464000D01*
X123978000Y-91244000D01*
X124888000Y-91534000D01*
X124128000Y-90554000D01*
X124918000Y-90754000D01*
X124068000Y-89804000D01*
X124738000Y-90094000D01*
X123828000Y-89114000D01*
G37*
X123828000Y-89114000D02*
X122908000Y-90104000D01*
X123638000Y-89764000D01*
X122768000Y-90744000D01*
X123558000Y-90554000D01*
X122778000Y-91534000D01*
X123698000Y-91254000D01*
X123698000Y-92474000D01*
X123978000Y-92464000D01*
X123978000Y-91244000D01*
X124888000Y-91534000D01*
X124128000Y-90554000D01*
X124918000Y-90754000D01*
X124068000Y-89804000D01*
X124738000Y-90094000D01*
X123828000Y-89114000D01*
G36*
X122418000Y-88344000D02*
X121438000Y-89304000D01*
X122238000Y-88984000D01*
X121418000Y-89924000D01*
X122258000Y-89674000D01*
X121328000Y-90784000D01*
X122328000Y-90344000D01*
X122328000Y-91654000D01*
X122548000Y-91654000D01*
X122508000Y-90354000D01*
X123498000Y-90854000D01*
X122718000Y-89764000D01*
X123488000Y-89934000D01*
X122558000Y-88914000D01*
X123358000Y-89274000D01*
X122418000Y-88344000D01*
G37*
X122418000Y-88344000D02*
X121438000Y-89304000D01*
X122238000Y-88984000D01*
X121418000Y-89924000D01*
X122258000Y-89674000D01*
X121328000Y-90784000D01*
X122328000Y-90344000D01*
X122328000Y-91654000D01*
X122548000Y-91654000D01*
X122508000Y-90354000D01*
X123498000Y-90854000D01*
X122718000Y-89764000D01*
X123488000Y-89934000D01*
X122558000Y-88914000D01*
X123358000Y-89274000D01*
X122418000Y-88344000D01*
D13*
X138242000Y-96632000D03*
X138242000Y-97932000D03*
X140142000Y-97282000D03*
X138242000Y-97282000D03*
X140142000Y-97932000D03*
X140142000Y-96632000D03*
D14*
X108762500Y-98050000D03*
X108762500Y-92450000D03*
D15*
X112637500Y-96750000D03*
X112637500Y-95750000D03*
X112637500Y-94750000D03*
X112637500Y-93750000D03*
D14*
X156937500Y-92450000D03*
X156937500Y-98050000D03*
D15*
X153062500Y-93750000D03*
X153062500Y-94750000D03*
X153062500Y-95750000D03*
X153062500Y-96750000D03*
D16*
X129880683Y-99658746D03*
X129880683Y-101658746D03*
D17*
X113715001Y-105206001D03*
X116255001Y-105206001D03*
X118795001Y-105206001D03*
X121335001Y-105206001D03*
X123875001Y-105206001D03*
X126415001Y-105206001D03*
X128955001Y-105206001D03*
X131495001Y-105206001D03*
X134035001Y-105206001D03*
X136575001Y-105206001D03*
X139115001Y-105206001D03*
X141655001Y-105206001D03*
X144195001Y-105206001D03*
X146735001Y-105206001D03*
X149275001Y-105206001D03*
X151815001Y-105206001D03*
X123875001Y-84886001D03*
X126415001Y-84886001D03*
X128955001Y-84886001D03*
X131495001Y-84886001D03*
X134035001Y-84886001D03*
X136575001Y-84886001D03*
X139115001Y-84886001D03*
X141655001Y-84886001D03*
X144195001Y-84886001D03*
X146735001Y-84886001D03*
X149275001Y-84886001D03*
X151815001Y-84886001D03*
D18*
X155625001Y-86156001D03*
X155625001Y-103936001D03*
D19*
X109905001Y-103936001D03*
X109905001Y-86156001D03*
D20*
X132969000Y-99908746D03*
X132969000Y-101808746D03*
D21*
X143902000Y-98482000D03*
D22*
X143902000Y-97682000D03*
D21*
X143902000Y-96082000D03*
D22*
X143902000Y-96882000D03*
D21*
X142102000Y-98482000D03*
D22*
X142102000Y-96882000D03*
X142102000Y-97682000D03*
D21*
X142102000Y-96082000D03*
D23*
X115625000Y-92250000D03*
X115625000Y-94250000D03*
X115625000Y-96250000D03*
X115625000Y-98250000D03*
D24*
X109875000Y-89900000D03*
X109875000Y-100600000D03*
X155825000Y-89900000D03*
X155825000Y-100600000D03*
D23*
X150075000Y-92250000D03*
X150075000Y-94250000D03*
X150075000Y-96250000D03*
X150075000Y-98250000D03*
D25*
X122100000Y-98400000D03*
X122100000Y-101200000D03*
X125700000Y-101200000D03*
X125700000Y-98400000D03*
D26*
X119400000Y-86400000D03*
X115200000Y-86400000D03*
D27*
X113950000Y-84500000D03*
X120650000Y-84500000D03*
M02*
