G04 #@! TF.GenerationSoftware,KiCad,Pcbnew,(5.0.0-rc2-dev-444-g2974a2c10)*
G04 #@! TF.CreationDate,2019-12-09T12:09:48-08:00*
G04 #@! TF.ProjectId,Stemma_Host_FeatherWing,5374656D6D615F486F73745F46656174,v02*
G04 #@! TF.SameCoordinates,Original*
G04 #@! TF.FileFunction,Legend,Top*
G04 #@! TF.FilePolarity,Positive*
%FSLAX46Y46*%
G04 Gerber Fmt 4.6, Leading zero omitted, Abs format (unit mm)*
G04 Created by KiCad (PCBNEW (5.0.0-rc2-dev-444-g2974a2c10)) date 12/09/19 12:09:48*
%MOMM*%
%LPD*%
G01*
G04 APERTURE LIST*
%ADD10C,0.100000*%
%ADD11C,0.150000*%
%ADD12C,0.120000*%
%ADD13C,0.050000*%
%ADD14C,0.080000*%
G04 APERTURE END LIST*
D10*
X144970789Y-88408715D02*
X144970789Y-88387715D01*
X145055489Y-88324715D02*
X145055489Y-88302715D01*
X144928489Y-88429715D02*
X144949689Y-88429715D01*
X145965789Y-87794715D02*
X145986989Y-87794715D01*
X145584789Y-87879715D02*
X145627089Y-87879715D01*
X145140189Y-88260715D02*
X145140189Y-88239715D01*
X145013189Y-88366715D02*
X145013189Y-88345715D01*
X145775289Y-87773715D02*
X145775289Y-87752715D01*
X145563589Y-87921715D02*
X145563589Y-87900715D01*
X145055489Y-88302715D02*
X145076689Y-88302715D01*
X145944689Y-87858715D02*
X145944689Y-87837715D01*
X144526289Y-88874715D02*
X144526289Y-88832715D01*
X145690589Y-88451715D02*
X145690589Y-88366715D01*
X145034389Y-88345715D02*
X145034389Y-88324715D01*
X145775289Y-88154715D02*
X145796489Y-88154715D01*
X145542389Y-87921715D02*
X145563589Y-87921715D01*
X145711789Y-87815715D02*
X145711789Y-87794715D01*
X145013189Y-88345715D02*
X145034389Y-88345715D01*
X144716789Y-88789715D02*
X144716789Y-88747715D01*
X145669389Y-88451715D02*
X145690589Y-88451715D01*
X145754089Y-88048715D02*
X145732989Y-88048715D01*
X145118989Y-88281715D02*
X145118989Y-88260715D01*
X145478889Y-87964715D02*
X145500089Y-87964715D01*
X144568589Y-88789715D02*
X144589789Y-88789715D01*
X145415389Y-88006715D02*
X145457689Y-88006715D01*
X145203689Y-88197715D02*
X145203689Y-88175715D01*
X144653289Y-88853715D02*
X144674489Y-88853715D01*
X145754089Y-88197715D02*
X145775289Y-88197715D01*
X145817589Y-88048715D02*
X145838789Y-88048715D01*
X145923489Y-87900715D02*
X145923489Y-87858715D01*
X146304489Y-87646715D02*
X146304489Y-87688715D01*
X146283389Y-87773715D02*
X146283389Y-87752715D01*
X146389189Y-87498715D02*
X146389189Y-87519715D01*
X146346889Y-87688715D02*
X146346889Y-87667715D01*
X144949689Y-88429715D02*
X144949689Y-88408715D01*
X145754089Y-87773715D02*
X145775289Y-87773715D01*
X145754089Y-87985715D02*
X145754089Y-88048715D01*
X145563589Y-87900715D02*
X145584789Y-87900715D01*
X144907289Y-88472715D02*
X144907289Y-88451715D01*
X145648289Y-88408715D02*
X145648289Y-88514715D01*
X146368089Y-87561715D02*
X146346889Y-87561715D01*
X145690589Y-88218715D02*
X145690589Y-88302715D01*
X144505089Y-88874715D02*
X144526289Y-88874715D01*
X145288389Y-88112715D02*
X145309589Y-88112715D01*
X145817589Y-87879715D02*
X145796489Y-87879715D01*
X145415389Y-88027715D02*
X145415389Y-88006715D01*
X145796489Y-87879715D02*
X145796489Y-87942715D01*
X145838789Y-87837715D02*
X145817589Y-87837715D01*
X146410389Y-87413715D02*
X146431589Y-87413715D01*
X145923489Y-87858715D02*
X145944689Y-87858715D01*
X145711789Y-88133715D02*
X145711789Y-88218715D01*
X146135189Y-87561715D02*
X146156389Y-87561715D01*
X145288389Y-88133715D02*
X145288389Y-88112715D01*
X145902289Y-87900715D02*
X145923489Y-87900715D01*
X146219889Y-87815715D02*
X146219889Y-87837715D01*
X144674489Y-88853715D02*
X144674489Y-88810715D01*
X145775289Y-88197715D02*
X145775289Y-88154715D01*
X145627089Y-87858715D02*
X145648289Y-87858715D01*
X145796489Y-88154715D02*
X145796489Y-88112715D01*
X145732989Y-88048715D02*
X145732989Y-88133715D01*
X145669389Y-88408715D02*
X145648289Y-88408715D01*
X145881089Y-87942715D02*
X145902289Y-87942715D01*
X144589789Y-89022715D02*
X144589789Y-88980715D01*
X145859989Y-88006715D02*
X145859989Y-87985715D01*
X145669389Y-88302715D02*
X145669389Y-88408715D01*
X145648289Y-88514715D02*
X145669389Y-88514715D01*
X145796489Y-88112715D02*
X145817589Y-88112715D01*
X145118989Y-88260715D02*
X145140189Y-88260715D01*
X145711789Y-88302715D02*
X145732989Y-88302715D01*
X144928489Y-88451715D02*
X144928489Y-88429715D01*
X145161389Y-88218715D02*
X145182489Y-88218715D01*
X145817589Y-87752715D02*
X145817589Y-87731715D01*
X145775289Y-87942715D02*
X145775289Y-87985715D01*
X145584789Y-87900715D02*
X145584789Y-87879715D01*
X145478889Y-87985715D02*
X145478889Y-87964715D01*
X145500089Y-87964715D02*
X145500089Y-87942715D01*
X145732989Y-88260715D02*
X145754089Y-88260715D01*
X145775289Y-87985715D02*
X145754089Y-87985715D01*
X144505089Y-88895715D02*
X144505089Y-88874715D01*
X146304489Y-87752715D02*
X146304489Y-87710715D01*
X145711789Y-88218715D02*
X145690589Y-88218715D01*
X145944689Y-87837715D02*
X145965789Y-87837715D01*
X146029289Y-87710715D02*
X146050489Y-87710715D01*
X145500089Y-87942715D02*
X145542389Y-87942715D01*
X145859989Y-87773715D02*
X145838789Y-87773715D01*
X145775289Y-87752715D02*
X145817589Y-87752715D01*
X146177489Y-87519715D02*
X146219889Y-87519715D01*
X146071689Y-87646715D02*
X146092789Y-87646715D01*
X145394189Y-88027715D02*
X145415389Y-88027715D01*
X145034389Y-88324715D02*
X145055489Y-88324715D01*
X146368089Y-87519715D02*
X146368089Y-87561715D01*
X146346889Y-87667715D02*
X146368089Y-87667715D01*
X145563589Y-89678715D02*
X145563589Y-89657715D01*
X146770289Y-88747715D02*
X146791489Y-88747715D01*
X146854989Y-88683715D02*
X146876089Y-88683715D01*
X145669389Y-89594715D02*
X145690589Y-89594715D01*
X147024289Y-88535715D02*
X147045489Y-88535715D01*
X144378089Y-90377715D02*
X144378089Y-90356715D01*
X145817589Y-89509715D02*
X145817589Y-89488715D01*
X144695589Y-90208715D02*
X144695589Y-90187715D01*
X142536289Y-91160715D02*
X142536289Y-91139715D01*
X145415389Y-89784715D02*
X145415389Y-89763715D01*
X146304489Y-89128715D02*
X146346889Y-89128715D01*
X146113989Y-89297715D02*
X146113989Y-89276715D01*
X146727889Y-88810715D02*
X146727889Y-88789715D01*
X145161389Y-89932715D02*
X145161389Y-89911715D01*
X144843789Y-90123715D02*
X144843789Y-90102715D01*
X145351889Y-89827715D02*
X145351889Y-89805715D01*
X145478889Y-89742715D02*
X145478889Y-89721715D01*
X146918489Y-88641715D02*
X146918489Y-88620715D01*
X146791489Y-88726715D02*
X146833789Y-88726715D01*
X146029289Y-89340715D02*
X146050489Y-89340715D01*
X144589789Y-90250715D02*
X144610989Y-90250715D01*
X146219889Y-89213715D02*
X146219889Y-89192715D01*
X145478889Y-89721715D02*
X145500089Y-89721715D01*
X145690589Y-89594715D02*
X145690589Y-89573715D01*
X147087789Y-88493715D02*
X147087789Y-88472715D01*
X145542389Y-89700715D02*
X145542389Y-89678715D01*
X145373089Y-89784715D02*
X145415389Y-89784715D01*
X145542389Y-89678715D02*
X145563589Y-89678715D01*
X146495089Y-88980715D02*
X146516189Y-88980715D01*
X146706789Y-88810715D02*
X146727889Y-88810715D01*
X144166389Y-90483715D02*
X144166389Y-90462715D01*
X142896189Y-91012715D02*
X142959689Y-91012715D01*
X146579689Y-88916715D02*
X146600889Y-88916715D01*
X145796489Y-89509715D02*
X145817589Y-89509715D01*
X147320689Y-88260715D02*
X147320689Y-88239715D01*
X146219889Y-89192715D02*
X146262189Y-89192715D01*
X146177489Y-89255715D02*
X146177489Y-89234715D01*
X145796489Y-89530715D02*
X145796489Y-89509715D01*
X145605889Y-89636715D02*
X145627089Y-89636715D01*
X146135189Y-89276715D02*
X146135189Y-89255715D01*
X147299489Y-88260715D02*
X147320689Y-88260715D01*
X146283389Y-89170715D02*
X146283389Y-89149715D01*
X147108989Y-88472715D02*
X147108989Y-88451715D01*
X147468889Y-88239715D02*
X147468889Y-88218715D01*
X146876089Y-88662715D02*
X146897289Y-88662715D01*
X143065489Y-90949715D02*
X143107889Y-90949715D01*
X147765289Y-89255715D02*
X147744089Y-89255715D01*
X145055489Y-89996715D02*
X145055489Y-89975715D01*
X147426589Y-89340715D02*
X147426589Y-89361715D01*
X146854989Y-88705715D02*
X146854989Y-88683715D01*
X147849989Y-89107715D02*
X147828789Y-89107715D01*
X144081689Y-90525715D02*
X144081689Y-90504715D01*
X146706789Y-88832715D02*
X146706789Y-88810715D01*
X147278389Y-88281715D02*
X147299489Y-88281715D01*
X145436589Y-89763715D02*
X145436589Y-89742715D01*
X147045489Y-88535715D02*
X147045489Y-88514715D01*
X144695589Y-90187715D02*
X144737989Y-90187715D01*
X144547389Y-90271715D02*
X144589789Y-90271715D01*
X143107889Y-90949715D02*
X143107889Y-90927715D01*
X144039389Y-90525715D02*
X144081689Y-90525715D01*
X144801489Y-90144715D02*
X144801489Y-90123715D01*
X145055489Y-89975715D02*
X145097889Y-89975715D01*
X143001989Y-90970715D02*
X143065489Y-90970715D01*
X146050489Y-89340715D02*
X146050489Y-89319715D01*
X145203689Y-89911715D02*
X145203689Y-89890715D01*
X145097889Y-89975715D02*
X145097889Y-89954715D01*
X143954689Y-90589715D02*
X143954689Y-90568715D01*
X143213689Y-90885715D02*
X143277189Y-90885715D01*
X145902289Y-89424715D02*
X145944689Y-89424715D01*
X143573589Y-90737715D02*
X143637089Y-90737715D01*
X142769189Y-91076715D02*
X142769189Y-91054715D01*
X146092789Y-89297715D02*
X146113989Y-89297715D01*
X144420389Y-90335715D02*
X144462789Y-90335715D01*
X145034389Y-89996715D02*
X145055489Y-89996715D01*
X145859989Y-89467715D02*
X145881089Y-89467715D01*
X145097889Y-89954715D02*
X145140189Y-89954715D01*
X145161389Y-89911715D02*
X145203689Y-89911715D01*
X145881089Y-89446715D02*
X145902289Y-89446715D01*
X142769189Y-91054715D02*
X142832689Y-91054715D01*
X143912289Y-90610715D02*
X143912289Y-90589715D01*
X143954689Y-90568715D02*
X143996989Y-90568715D01*
X144505089Y-90313715D02*
X144505089Y-90292715D01*
X144462789Y-90313715D02*
X144505089Y-90313715D01*
X144505089Y-90292715D02*
X144547389Y-90292715D01*
X144801489Y-90123715D02*
X144843789Y-90123715D01*
X144928489Y-90059715D02*
X144949689Y-90059715D01*
X143996989Y-90568715D02*
X143996989Y-90546715D01*
X143573589Y-90758715D02*
X143573589Y-90737715D01*
X144208689Y-90462715D02*
X144208689Y-90441715D01*
X143213689Y-90906715D02*
X143213689Y-90885715D01*
X144462789Y-90335715D02*
X144462789Y-90313715D01*
X144123989Y-90483715D02*
X144166389Y-90483715D01*
X144886189Y-90081715D02*
X144928489Y-90081715D01*
X144780289Y-90165715D02*
X144780289Y-90144715D01*
X144610989Y-90250715D02*
X144610989Y-90229715D01*
X145140189Y-89954715D02*
X145140189Y-89932715D01*
X145754089Y-89551715D02*
X145754089Y-89530715D01*
X144843789Y-90102715D02*
X144886189Y-90102715D01*
X144081689Y-90504715D02*
X144123989Y-90504715D01*
X146113989Y-89276715D02*
X146135189Y-89276715D01*
X142261089Y-91224715D02*
X142345789Y-91224715D01*
X145627089Y-89615715D02*
X145669389Y-89615715D01*
X142726789Y-91097715D02*
X142726789Y-91076715D01*
X145881089Y-89467715D02*
X145881089Y-89446715D01*
X145140189Y-89932715D02*
X145161389Y-89932715D01*
X144737989Y-90165715D02*
X144780289Y-90165715D01*
X144610989Y-90229715D02*
X144653289Y-90229715D01*
X142599789Y-91118715D02*
X142663289Y-91118715D01*
X144208689Y-90441715D02*
X144251089Y-90441715D01*
X145267189Y-89848715D02*
X145309589Y-89848715D01*
X144166389Y-90462715D02*
X144208689Y-90462715D01*
X144378089Y-90356715D02*
X144420389Y-90356715D01*
X144039389Y-90546715D02*
X144039389Y-90525715D01*
X144420389Y-90356715D02*
X144420389Y-90335715D01*
X144251089Y-90419715D02*
X144293389Y-90419715D01*
X144547389Y-90292715D02*
X144547389Y-90271715D01*
X144335689Y-90377715D02*
X144378089Y-90377715D01*
X145034389Y-90017715D02*
X145034389Y-89996715D01*
X142261089Y-91245715D02*
X142261089Y-91224715D01*
X145309589Y-89827715D02*
X145351889Y-89827715D01*
X146008189Y-89382715D02*
X146008189Y-89361715D01*
X142197589Y-91245715D02*
X142261089Y-91245715D01*
X143425389Y-90822715D02*
X143425389Y-90800715D01*
X144251089Y-90441715D02*
X144251089Y-90419715D01*
X142409289Y-91203715D02*
X142409289Y-91182715D01*
X141668289Y-91393715D02*
X141752989Y-91393715D01*
X143488889Y-90779715D02*
X143531289Y-90779715D01*
X143912289Y-90589715D02*
X143954689Y-90589715D01*
X144293389Y-90398715D02*
X144335689Y-90398715D01*
X144653289Y-90208715D02*
X144695589Y-90208715D01*
X144949689Y-90059715D02*
X144949689Y-90038715D01*
X144589789Y-90271715D02*
X144589789Y-90250715D01*
X144653289Y-90229715D02*
X144653289Y-90208715D01*
X141985889Y-91309715D02*
X142049389Y-91309715D01*
X144737989Y-90187715D02*
X144737989Y-90165715D01*
X142896189Y-91033715D02*
X142896189Y-91012715D01*
X142345789Y-91224715D02*
X142345789Y-91203715D01*
X140927389Y-91436715D02*
X140863889Y-91436715D01*
X142006989Y-91076715D02*
X142006989Y-91097715D01*
X142663289Y-91097715D02*
X142726789Y-91097715D01*
X144928489Y-90081715D02*
X144928489Y-90059715D01*
X144991989Y-90038715D02*
X144991989Y-90017715D01*
X143531289Y-90758715D02*
X143573589Y-90758715D01*
X143721789Y-90673715D02*
X143764189Y-90673715D01*
X141414289Y-91457715D02*
X141498989Y-91457715D01*
X141117889Y-91330715D02*
X141117889Y-91351715D01*
X144123989Y-90504715D02*
X144123989Y-90483715D01*
X143277189Y-90864715D02*
X143319589Y-90864715D01*
X143764189Y-90652715D02*
X143806489Y-90652715D01*
X143319589Y-90843715D02*
X143383089Y-90843715D01*
X143573589Y-90504715D02*
X143573589Y-90525715D01*
X142409289Y-91182715D02*
X142472789Y-91182715D01*
X143869989Y-90610715D02*
X143912289Y-90610715D01*
X143637089Y-90737715D02*
X143637089Y-90716715D01*
X143806489Y-90419715D02*
X143764189Y-90419715D01*
X144780289Y-90144715D02*
X144801489Y-90144715D01*
X142959689Y-91012715D02*
X142959689Y-90991715D01*
X141901189Y-91330715D02*
X141985889Y-91330715D01*
X143531289Y-90779715D02*
X143531289Y-90758715D01*
X142959689Y-90991715D02*
X143001989Y-90991715D01*
X143806489Y-90652715D02*
X143806489Y-90631715D01*
X143679489Y-90716715D02*
X143679489Y-90695715D01*
X142472789Y-91160715D02*
X142536289Y-91160715D01*
X144886189Y-90102715D02*
X144886189Y-90081715D01*
X143277189Y-90885715D02*
X143277189Y-90864715D01*
X143383089Y-90843715D02*
X143383089Y-90822715D01*
X143615989Y-90483715D02*
X143615989Y-90504715D01*
X142345789Y-91203715D02*
X142409289Y-91203715D01*
X144293389Y-90419715D02*
X144293389Y-90398715D01*
X141456589Y-91245715D02*
X141350789Y-91245715D01*
X144335689Y-90398715D02*
X144335689Y-90377715D01*
X142726789Y-91076715D02*
X142769189Y-91076715D01*
X143996989Y-90546715D02*
X144039389Y-90546715D01*
X142472789Y-91182715D02*
X142472789Y-91160715D01*
X141498989Y-91436715D02*
X141583589Y-91436715D01*
X140863889Y-91457715D02*
X140800289Y-91457715D01*
X142663289Y-91118715D02*
X142663289Y-91097715D01*
X143764189Y-90673715D02*
X143764189Y-90652715D01*
X142536289Y-91139715D02*
X142599789Y-91139715D01*
X144949689Y-90038715D02*
X144991989Y-90038715D01*
X142599789Y-91139715D02*
X142599789Y-91118715D01*
X141075589Y-91372715D02*
X141033189Y-91372715D01*
X142832689Y-91033715D02*
X142896189Y-91033715D01*
X143171389Y-90927715D02*
X143171389Y-90906715D01*
X144991989Y-90017715D02*
X145034389Y-90017715D01*
X143658289Y-90483715D02*
X143615989Y-90483715D01*
X145097889Y-89700715D02*
X145097889Y-89721715D01*
X142155189Y-91054715D02*
X142070489Y-91054715D01*
X141033189Y-91563715D02*
X141033189Y-91584715D01*
X142938489Y-91584715D02*
X142938489Y-91393715D01*
X142938489Y-91414715D02*
X142938489Y-91584715D01*
X143128989Y-91436715D02*
X143023189Y-91436715D01*
X143277189Y-90652715D02*
X143213689Y-90652715D01*
X143171389Y-90695715D02*
X143107889Y-90695715D01*
X142938489Y-91584715D02*
X142006989Y-91584715D01*
X140927389Y-91414715D02*
X140927389Y-91436715D01*
X142663289Y-90885715D02*
X142599789Y-90885715D01*
X140821489Y-91605715D02*
X140821489Y-91626715D01*
X141033189Y-91393715D02*
X140969689Y-91393715D01*
X143848789Y-90398715D02*
X143806489Y-90398715D01*
X145711789Y-89319715D02*
X145690589Y-89319715D01*
X143467789Y-90568715D02*
X143425389Y-90568715D01*
X143425389Y-90568715D02*
X143425389Y-90589715D01*
X143764189Y-90419715D02*
X143764189Y-90441715D01*
X143107889Y-90695715D02*
X143107889Y-90716715D01*
X142472789Y-90927715D02*
X142472789Y-90949715D01*
X142896189Y-90779715D02*
X142896189Y-90800715D01*
X142218689Y-91033715D02*
X142155189Y-91033715D01*
X143023189Y-91436715D02*
X143023189Y-91457715D01*
X142049389Y-91309715D02*
X142049389Y-91287715D01*
X141774189Y-91160715D02*
X141689489Y-91160715D01*
X141901189Y-91351715D02*
X141901189Y-91330715D01*
X141033189Y-91584715D02*
X140927389Y-91584715D01*
X143615989Y-90504715D02*
X143573589Y-90504715D01*
X143213689Y-90673715D02*
X143171389Y-90673715D01*
X141858789Y-91139715D02*
X141774189Y-91139715D01*
X142006989Y-91097715D02*
X141922389Y-91097715D01*
X143213689Y-90652715D02*
X143213689Y-90673715D01*
X141752989Y-91393715D02*
X141752989Y-91372715D01*
X141329589Y-91499715D02*
X141329589Y-91478715D01*
X140969689Y-91414715D02*
X140927389Y-91414715D01*
X141858789Y-91118715D02*
X141858789Y-91139715D01*
X141583589Y-91414715D02*
X141668289Y-91414715D01*
X142896189Y-90800715D02*
X142832689Y-90800715D01*
X142959689Y-91414715D02*
X142959689Y-91436715D01*
X141117889Y-91351715D02*
X141075589Y-91351715D01*
X140990889Y-91478715D02*
X140990889Y-91499715D01*
X141266089Y-91287715D02*
X141223689Y-91287715D01*
X143467789Y-90546715D02*
X143467789Y-90568715D01*
X142790289Y-90843715D02*
X142726789Y-90843715D01*
X141456589Y-91224715D02*
X141456589Y-91245715D01*
X142070489Y-91054715D02*
X142070489Y-91076715D01*
X141625989Y-91203715D02*
X141541289Y-91203715D01*
X142155189Y-91033715D02*
X142155189Y-91054715D01*
X142536289Y-90906715D02*
X142536289Y-90927715D01*
X142409289Y-90970715D02*
X142345789Y-90970715D01*
X140821489Y-91626715D02*
X140736789Y-91626715D01*
X141223689Y-91309715D02*
X141181389Y-91309715D01*
X142345789Y-90991715D02*
X142282189Y-90991715D01*
X142959689Y-91436715D02*
X143023189Y-91436715D01*
X141583589Y-91541715D02*
X141139089Y-91541715D01*
X143277189Y-90631715D02*
X143277189Y-90652715D01*
X143234889Y-91478715D02*
X143234889Y-91457715D01*
X145373089Y-89551715D02*
X145330689Y-89551715D01*
X143531289Y-90525715D02*
X143531289Y-90546715D01*
X142345789Y-90970715D02*
X142345789Y-90991715D01*
X145754089Y-89276715D02*
X145754089Y-89297715D01*
X142917289Y-91414715D02*
X142938489Y-91414715D01*
X145309589Y-89573715D02*
X145309589Y-89594715D01*
X145182489Y-89657715D02*
X145182489Y-89678715D01*
X145500089Y-89467715D02*
X145478889Y-89467715D01*
X143213689Y-91520715D02*
X143277189Y-91520715D01*
X142006989Y-91563715D02*
X141583589Y-91563715D01*
X142599789Y-90906715D02*
X142536289Y-90906715D01*
X145648289Y-89340715D02*
X145648289Y-89361715D01*
X143277189Y-91520715D02*
X143277189Y-91541715D01*
X142409289Y-90949715D02*
X142409289Y-90970715D01*
X143531289Y-90546715D02*
X143467789Y-90546715D01*
X145923489Y-89170715D02*
X145902289Y-89170715D01*
X142726789Y-90843715D02*
X142726789Y-90864715D01*
X143425389Y-90589715D02*
X143383089Y-90589715D01*
X145140189Y-89700715D02*
X145097889Y-89700715D01*
X145309589Y-89594715D02*
X145267189Y-89594715D01*
X143319589Y-90631715D02*
X143277189Y-90631715D01*
X143150189Y-91499715D02*
X143213689Y-91499715D01*
X143552389Y-91520715D02*
X143552389Y-91499715D01*
X143065489Y-90737715D02*
X143001989Y-90737715D01*
X145182489Y-89678715D02*
X145140189Y-89678715D01*
X145648289Y-89361715D02*
X145627089Y-89361715D01*
X145140189Y-89678715D02*
X145140189Y-89700715D01*
X143128989Y-91457715D02*
X143128989Y-91436715D01*
X145245989Y-89636715D02*
X145203689Y-89636715D01*
X142218689Y-91012715D02*
X142218689Y-91033715D01*
X143552389Y-91499715D02*
X143383089Y-91499715D01*
X145711789Y-89297715D02*
X145711789Y-89319715D01*
X143086689Y-91478715D02*
X143150189Y-91478715D01*
X142938489Y-91393715D02*
X142917289Y-91393715D01*
X145373089Y-89530715D02*
X145373089Y-89551715D01*
X143150189Y-91478715D02*
X143150189Y-91499715D01*
X143721789Y-90462715D02*
X143658289Y-90462715D01*
X146198689Y-87858715D02*
X146198689Y-87879715D01*
X146304489Y-88874715D02*
X146283389Y-88874715D01*
X142282189Y-91012715D02*
X142218689Y-91012715D01*
X143573589Y-90525715D02*
X143531289Y-90525715D01*
X140927389Y-91605715D02*
X140821489Y-91605715D01*
X145415389Y-89509715D02*
X145415389Y-89530715D01*
X145478889Y-89467715D02*
X145478889Y-89488715D01*
X143298389Y-91541715D02*
X143298389Y-91563715D01*
X142282189Y-90991715D02*
X142282189Y-91012715D01*
X142832689Y-90822715D02*
X142790289Y-90822715D01*
X142663289Y-90864715D02*
X142663289Y-90885715D01*
X143213689Y-91499715D02*
X143213689Y-91520715D01*
X143383089Y-91478715D02*
X143234889Y-91478715D01*
X143001989Y-90737715D02*
X143001989Y-90758715D01*
X145775289Y-89276715D02*
X145754089Y-89276715D01*
X141583589Y-91563715D02*
X141583589Y-91541715D01*
X141139089Y-91541715D02*
X141139089Y-91563715D01*
X143383089Y-90610715D02*
X143319589Y-90610715D01*
X142959689Y-90758715D02*
X142959689Y-90779715D01*
X143764189Y-90441715D02*
X143721789Y-90441715D01*
X143234889Y-91457715D02*
X143128989Y-91457715D01*
X143023189Y-91457715D02*
X143086689Y-91457715D01*
X143721789Y-90441715D02*
X143721789Y-90462715D01*
X143001989Y-90758715D02*
X142959689Y-90758715D01*
X143277189Y-91541715D02*
X143298389Y-91541715D01*
X143086689Y-91584715D02*
X142938489Y-91584715D01*
X141752989Y-91372715D02*
X141837689Y-91372715D01*
X140990889Y-91499715D02*
X141329589Y-91499715D01*
X142134089Y-91287715D02*
X142134089Y-91266715D01*
X141414289Y-91478715D02*
X141414289Y-91457715D01*
X143383089Y-90589715D02*
X143383089Y-90610715D01*
X143171389Y-90673715D02*
X143171389Y-90695715D01*
X141266089Y-91266715D02*
X141266089Y-91287715D01*
X142832689Y-91054715D02*
X142832689Y-91033715D01*
X141075589Y-91351715D02*
X141075589Y-91372715D01*
X141668289Y-91414715D02*
X141668289Y-91393715D01*
X142049389Y-91287715D02*
X142134089Y-91287715D01*
X143425389Y-90800715D02*
X143488889Y-90800715D01*
X143637089Y-90716715D02*
X143679489Y-90716715D01*
X143721789Y-90695715D02*
X143721789Y-90673715D01*
X141625989Y-91182715D02*
X141625989Y-91203715D01*
X143488889Y-90800715D02*
X143488889Y-90779715D01*
X141223689Y-91287715D02*
X141223689Y-91309715D01*
X142790289Y-90822715D02*
X142790289Y-90843715D01*
X142472789Y-90949715D02*
X142409289Y-90949715D01*
X142536289Y-90927715D02*
X142472789Y-90927715D01*
X140863889Y-91436715D02*
X140863889Y-91457715D01*
X143869989Y-90631715D02*
X143869989Y-90610715D01*
X143107889Y-90927715D02*
X143171389Y-90927715D01*
X141922389Y-91118715D02*
X141858789Y-91118715D01*
X143065489Y-90716715D02*
X143065489Y-90737715D01*
X140969689Y-91393715D02*
X140969689Y-91414715D01*
X142599789Y-90885715D02*
X142599789Y-90906715D01*
X141033189Y-91372715D02*
X141033189Y-91393715D01*
X143658289Y-90462715D02*
X143658289Y-90483715D01*
X141774189Y-91139715D02*
X141774189Y-91160715D01*
X142832689Y-90800715D02*
X142832689Y-90822715D01*
X142197589Y-91266715D02*
X142197589Y-91245715D01*
X143107889Y-90716715D02*
X143065489Y-90716715D01*
X141837689Y-91372715D02*
X141837689Y-91351715D01*
X141541289Y-91224715D02*
X141456589Y-91224715D01*
X140800289Y-91457715D02*
X140800289Y-91478715D01*
X141541289Y-91203715D02*
X141541289Y-91224715D01*
X141837689Y-91351715D02*
X141901189Y-91351715D01*
X141689489Y-91182715D02*
X141625989Y-91182715D01*
X141498989Y-91457715D02*
X141498989Y-91436715D01*
X143001989Y-90991715D02*
X143001989Y-90970715D01*
X141689489Y-91160715D02*
X141689489Y-91182715D01*
X143319589Y-90864715D02*
X143319589Y-90843715D01*
X143319589Y-90610715D02*
X143319589Y-90631715D01*
X141181389Y-91330715D02*
X141117889Y-91330715D01*
X142726789Y-90864715D02*
X142663289Y-90864715D01*
X143806489Y-90398715D02*
X143806489Y-90419715D01*
X141922389Y-91097715D02*
X141922389Y-91118715D01*
X141583589Y-91436715D02*
X141583589Y-91414715D01*
X143065489Y-90970715D02*
X143065489Y-90949715D01*
X143171389Y-90906715D02*
X143213689Y-90906715D01*
X143806489Y-90631715D02*
X143869989Y-90631715D01*
X141350789Y-91266715D02*
X141266089Y-91266715D01*
X142070489Y-91076715D02*
X142006989Y-91076715D01*
X142134089Y-91266715D02*
X142197589Y-91266715D01*
X141350789Y-91245715D02*
X141350789Y-91266715D01*
X140800289Y-91478715D02*
X140990889Y-91478715D01*
X141181389Y-91309715D02*
X141181389Y-91330715D01*
X142959689Y-90779715D02*
X142896189Y-90779715D01*
X143679489Y-90695715D02*
X143721789Y-90695715D01*
X141985889Y-91330715D02*
X141985889Y-91309715D01*
X141329589Y-91478715D02*
X141414289Y-91478715D01*
X143383089Y-91499715D02*
X143383089Y-91478715D01*
X143383089Y-90822715D02*
X143425389Y-90822715D01*
X144145189Y-91436715D02*
X144145189Y-91457715D01*
X145775289Y-90864715D02*
X145775289Y-90885715D01*
X144123989Y-91266715D02*
X144187589Y-91266715D01*
X144145189Y-91182715D02*
X144039389Y-91182715D01*
X143785289Y-91118715D02*
X143806489Y-91118715D01*
X144145189Y-91457715D02*
X144039389Y-91457715D01*
X144018189Y-91203715D02*
X144018189Y-91224715D01*
X144314589Y-91203715D02*
X144145189Y-91203715D01*
X146198689Y-90652715D02*
X146177489Y-90652715D01*
X144272189Y-91287715D02*
X144272189Y-91309715D01*
X143869989Y-91139715D02*
X143869989Y-91160715D01*
X143912289Y-91182715D02*
X143954689Y-91182715D01*
X143912289Y-91160715D02*
X143912289Y-91182715D01*
X144060489Y-91245715D02*
X144123989Y-91245715D01*
X146876089Y-87244715D02*
X146876089Y-87223715D01*
X146346889Y-87561715D02*
X146346889Y-87604715D01*
X146431589Y-87583715D02*
X146431589Y-87540715D01*
X146283389Y-87731715D02*
X146262189Y-87731715D01*
X147384189Y-87096715D02*
X147384189Y-87075715D01*
X147130189Y-87138715D02*
X147214889Y-87138715D01*
X146240989Y-87837715D02*
X146240989Y-87815715D01*
X146622089Y-87350715D02*
X146622089Y-87329715D01*
X148463889Y-87117715D02*
X148442689Y-87117715D01*
X146219889Y-87837715D02*
X146240989Y-87837715D01*
X147384189Y-87075715D02*
X147490089Y-87075715D01*
X146410389Y-87583715D02*
X146431589Y-87583715D01*
X147214889Y-87117715D02*
X147299489Y-87117715D01*
X146706789Y-87307715D02*
X146706789Y-87286715D01*
X147595889Y-87900715D02*
X147574689Y-87900715D01*
X146029289Y-87731715D02*
X146029289Y-87710715D01*
X146473889Y-87519715D02*
X146473889Y-87498715D01*
X146240989Y-87815715D02*
X146262189Y-87815715D01*
X147595889Y-87053715D02*
X147595889Y-87032715D01*
X146939589Y-87223715D02*
X146939589Y-87202715D01*
X147003189Y-87180715D02*
X147066689Y-87180715D01*
X145817589Y-87837715D02*
X145817589Y-87879715D01*
X147214889Y-87138715D02*
X147214889Y-87117715D01*
X147066689Y-87180715D02*
X147066689Y-87159715D01*
X147490089Y-87053715D02*
X147595889Y-87053715D01*
X146579689Y-87392715D02*
X146579689Y-87371715D01*
X146410389Y-87498715D02*
X146389189Y-87498715D01*
X146346889Y-87434715D02*
X146410389Y-87434715D01*
X146812589Y-87265715D02*
X146812589Y-87244715D01*
X146135189Y-87583715D02*
X146135189Y-87561715D01*
X146431589Y-87413715D02*
X146431589Y-87455715D01*
X146240989Y-87773715D02*
X146240989Y-87815715D01*
X146092789Y-87625715D02*
X146113989Y-87625715D01*
X146325689Y-87604715D02*
X146325689Y-87646715D01*
X146516189Y-87455715D02*
X146537389Y-87455715D01*
X146262189Y-87477715D02*
X146304489Y-87477715D01*
X146050489Y-87667715D02*
X146071689Y-87667715D01*
X146304489Y-87688715D02*
X146283389Y-87688715D01*
X146537389Y-87413715D02*
X146558589Y-87413715D01*
X146812589Y-87244715D02*
X146876089Y-87244715D01*
X146177489Y-87540715D02*
X146177489Y-87519715D01*
X147066689Y-87159715D02*
X147130189Y-87159715D01*
X146389189Y-87604715D02*
X146410389Y-87604715D01*
X146452689Y-87540715D02*
X146452689Y-87519715D01*
X146113989Y-87625715D02*
X146113989Y-87583715D01*
X147511189Y-87815715D02*
X147468889Y-87815715D01*
X148336889Y-87921715D02*
X148315689Y-87921715D01*
X146325689Y-87710715D02*
X146325689Y-87688715D01*
X146431589Y-87455715D02*
X146410389Y-87455715D01*
X145711789Y-87794715D02*
X145754089Y-87794715D01*
X147532389Y-87837715D02*
X147511189Y-87837715D01*
X147955789Y-88916715D02*
X147934589Y-88916715D01*
X146431589Y-87540715D02*
X146452689Y-87540715D01*
X146600889Y-87350715D02*
X146622089Y-87350715D01*
X147299489Y-87117715D02*
X147299489Y-87096715D01*
X147892289Y-86990715D02*
X148146289Y-86990715D01*
X146304489Y-87710715D02*
X146325689Y-87710715D01*
X146389189Y-87519715D02*
X146368089Y-87519715D01*
X146156389Y-87561715D02*
X146156389Y-87540715D01*
X145881089Y-87985715D02*
X145881089Y-87942715D01*
X146008189Y-87731715D02*
X146029289Y-87731715D01*
X147595889Y-87032715D02*
X147722889Y-87032715D01*
X145754089Y-88260715D02*
X145754089Y-88197715D01*
X146346889Y-87604715D02*
X146325689Y-87604715D01*
X145669389Y-88514715D02*
X145669389Y-88451715D01*
X147490089Y-87075715D02*
X147490089Y-87053715D01*
X145754089Y-87794715D02*
X145754089Y-87773715D01*
X145986989Y-87752715D02*
X146008189Y-87752715D01*
X146304489Y-87477715D02*
X146304489Y-87455715D01*
X146240989Y-87815715D02*
X146219889Y-87815715D01*
X146579689Y-87371715D02*
X146600889Y-87371715D01*
X145965789Y-87837715D02*
X145965789Y-87794715D01*
X147299489Y-87096715D02*
X147384189Y-87096715D01*
X146706789Y-87286715D02*
X146749089Y-87286715D01*
X145817589Y-88112715D02*
X145817589Y-88048715D01*
X148442689Y-87350715D02*
X148421489Y-87350715D01*
X145711789Y-88366715D02*
X145711789Y-88302715D01*
X146325689Y-87688715D02*
X146346889Y-87688715D01*
X146008189Y-87752715D02*
X146008189Y-87731715D01*
X146262189Y-87773715D02*
X146240989Y-87773715D01*
X146156389Y-87540715D02*
X146177489Y-87540715D01*
X146410389Y-87455715D02*
X146410389Y-87498715D01*
X145732989Y-88302715D02*
X145732989Y-88260715D01*
X145732989Y-88133715D02*
X145711789Y-88133715D01*
X146262189Y-87773715D02*
X146283389Y-87773715D01*
X146262189Y-87498715D02*
X146262189Y-87477715D01*
X146113989Y-87583715D02*
X146135189Y-87583715D01*
X146622089Y-87329715D02*
X146643289Y-87329715D01*
X146410389Y-87434715D02*
X146410389Y-87413715D01*
X146537389Y-87455715D02*
X146537389Y-87413715D01*
X147722889Y-87011715D02*
X147892289Y-87011715D01*
X145859989Y-87731715D02*
X145859989Y-87773715D01*
X146939589Y-87202715D02*
X147003189Y-87202715D01*
X146643289Y-87329715D02*
X146643289Y-87307715D01*
X145838789Y-88006715D02*
X145859989Y-88006715D01*
X146368089Y-87667715D02*
X146368089Y-87625715D01*
X146050489Y-87710715D02*
X146050489Y-87667715D01*
X145838789Y-88048715D02*
X145838789Y-88006715D01*
X148442689Y-87117715D02*
X148442689Y-87350715D01*
X146516189Y-87477715D02*
X146516189Y-87455715D01*
X146219889Y-87519715D02*
X146219889Y-87498715D01*
X145817589Y-87731715D02*
X145859989Y-87731715D01*
X146283389Y-87688715D02*
X146283389Y-87731715D01*
X146325689Y-87646715D02*
X146304489Y-87646715D01*
X145986989Y-87794715D02*
X145986989Y-87752715D01*
X146410389Y-87604715D02*
X146410389Y-87583715D01*
X146283389Y-87752715D02*
X146304489Y-87752715D01*
X146092789Y-87646715D02*
X146092789Y-87625715D01*
X146219889Y-87498715D02*
X146262189Y-87498715D01*
X146304489Y-87455715D02*
X146346889Y-87455715D01*
X145796489Y-87942715D02*
X145775289Y-87942715D01*
X145859989Y-87985715D02*
X145881089Y-87985715D01*
X145690589Y-88366715D02*
X145711789Y-88366715D01*
X145902289Y-87942715D02*
X145902289Y-87900715D01*
X146071689Y-87667715D02*
X146071689Y-87646715D01*
X145267189Y-88133715D02*
X145288389Y-88133715D01*
X146346889Y-87455715D02*
X146346889Y-87434715D01*
X145838789Y-87773715D02*
X145838789Y-87837715D01*
X145690589Y-88302715D02*
X145669389Y-88302715D01*
X146389189Y-87625715D02*
X146389189Y-87604715D01*
X148146289Y-86990715D02*
X148146289Y-86969715D01*
X146960789Y-88281715D02*
X146960789Y-88302715D01*
X148188689Y-88345715D02*
X148188689Y-88408715D01*
X147998089Y-88789715D02*
X147998089Y-88832715D01*
X146558589Y-87392715D02*
X146579689Y-87392715D01*
X148273389Y-88070715D02*
X148273389Y-88154715D01*
X146262189Y-87731715D02*
X146262189Y-87773715D01*
X148379189Y-87625715D02*
X148379189Y-87731715D01*
X147553589Y-87858715D02*
X147532389Y-87858715D01*
X146791489Y-88451715D02*
X146791489Y-88472715D01*
X146981989Y-88281715D02*
X146960789Y-88281715D01*
X148230989Y-88218715D02*
X148230989Y-88281715D01*
X146558589Y-87413715D02*
X146558589Y-87392715D01*
X147913489Y-88980715D02*
X147892289Y-88980715D01*
X148146289Y-88514715D02*
X148125189Y-88514715D01*
X146368089Y-87625715D02*
X146389189Y-87625715D01*
X146643289Y-87307715D02*
X146706789Y-87307715D01*
X147595889Y-87964715D02*
X147595889Y-87900715D01*
X146685589Y-88535715D02*
X146685589Y-88556715D01*
X148315689Y-88006715D02*
X148294489Y-88006715D01*
X148421489Y-87498715D02*
X148400389Y-87498715D01*
X148061689Y-88705715D02*
X148040489Y-88705715D01*
X146495089Y-87498715D02*
X146495089Y-87477715D01*
X148209889Y-88345715D02*
X148188689Y-88345715D01*
X148167489Y-88408715D02*
X148167489Y-88451715D01*
X148082789Y-88620715D02*
X148082789Y-88662715D01*
X147574689Y-87879715D02*
X147553589Y-87879715D01*
X146897289Y-88366715D02*
X146876089Y-88366715D01*
X148400389Y-87625715D02*
X148379189Y-87625715D01*
X146749089Y-88493715D02*
X146749089Y-88514715D01*
X147722889Y-89043715D02*
X147617089Y-89043715D01*
X147976989Y-88874715D02*
X147955789Y-88874715D01*
X146918489Y-88324715D02*
X146918489Y-88345715D01*
X147511189Y-87837715D02*
X147511189Y-87815715D01*
X147998089Y-88832715D02*
X147976989Y-88832715D01*
X146854989Y-88408715D02*
X146833789Y-88408715D01*
X147892289Y-89001715D02*
X147807589Y-89001715D01*
X147172489Y-88091715D02*
X147151289Y-88091715D01*
X146473889Y-87498715D02*
X146495089Y-87498715D01*
X147574689Y-87900715D02*
X147574689Y-87879715D01*
X146495089Y-87477715D02*
X146516189Y-87477715D01*
X148146289Y-88451715D02*
X148146289Y-88514715D01*
X147617089Y-87964715D02*
X147595889Y-87964715D01*
X148357989Y-87731715D02*
X148357989Y-87837715D01*
X146706789Y-88535715D02*
X146685589Y-88535715D01*
X146876089Y-87223715D02*
X146939589Y-87223715D01*
X148103989Y-88556715D02*
X148103989Y-88620715D01*
X146749089Y-87286715D02*
X146749089Y-87265715D01*
X147892289Y-87011715D02*
X147892289Y-86990715D01*
X147913489Y-88959715D02*
X147913489Y-88980715D01*
X148040489Y-88747715D02*
X148019289Y-88747715D01*
X146685589Y-88556715D02*
X146664389Y-88556715D01*
X147320689Y-87794715D02*
X147320689Y-87815715D01*
X147807589Y-89001715D02*
X147807589Y-89022715D01*
X148273389Y-88154715D02*
X148252189Y-88154715D01*
X148336889Y-87837715D02*
X148336889Y-87921715D01*
X147934589Y-88916715D02*
X147934589Y-88959715D01*
X148146289Y-86969715D02*
X148463889Y-86969715D01*
X147976989Y-88832715D02*
X147976989Y-88874715D01*
X147130189Y-87159715D02*
X147130189Y-87138715D01*
X147151289Y-88091715D02*
X147151289Y-88112715D01*
X147722889Y-87032715D02*
X147722889Y-87011715D01*
X147003189Y-87202715D02*
X147003189Y-87180715D01*
X146262189Y-87815715D02*
X146262189Y-87773715D01*
X148019289Y-88789715D02*
X147998089Y-88789715D01*
X146198689Y-89213715D02*
X146219889Y-89213715D01*
X145245989Y-89869715D02*
X145267189Y-89869715D01*
X146833789Y-88726715D02*
X146833789Y-88705715D01*
X146262189Y-89192715D02*
X146262189Y-89170715D01*
X145732989Y-89573715D02*
X145732989Y-89551715D01*
X146495089Y-89001715D02*
X146495089Y-88980715D01*
X145563589Y-89657715D02*
X145605889Y-89657715D01*
X146622089Y-88874715D02*
X146643289Y-88874715D01*
X146897289Y-88641715D02*
X146918489Y-88641715D01*
X146346889Y-89107715D02*
X146368089Y-89107715D01*
X145351889Y-89805715D02*
X145373089Y-89805715D01*
X145690589Y-89573715D02*
X145732989Y-89573715D01*
X146939589Y-88599715D02*
X146960789Y-88599715D01*
X145732989Y-89551715D02*
X145754089Y-89551715D01*
X145267189Y-89869715D02*
X145267189Y-89848715D01*
X145500089Y-89700715D02*
X145542389Y-89700715D01*
X145859989Y-89488715D02*
X145859989Y-89467715D01*
X146389189Y-89086715D02*
X146389189Y-89065715D01*
X145902289Y-89446715D02*
X145902289Y-89424715D01*
X146346889Y-89128715D02*
X146346889Y-89107715D01*
X146833789Y-88705715D02*
X146854989Y-88705715D01*
X146600889Y-88895715D02*
X146622089Y-88895715D01*
X145245989Y-89890715D02*
X145245989Y-89869715D01*
X146368089Y-89107715D02*
X146368089Y-89086715D01*
X145817589Y-89488715D02*
X145859989Y-89488715D01*
X146452689Y-89043715D02*
X146452689Y-89022715D01*
X146960789Y-88599715D02*
X146960789Y-88578715D01*
X145944689Y-89403715D02*
X145965789Y-89403715D01*
X146092789Y-89319715D02*
X146092789Y-89297715D01*
X146008189Y-89361715D02*
X146029289Y-89361715D01*
X146177489Y-89234715D02*
X146198689Y-89234715D01*
X145203689Y-89890715D02*
X145245989Y-89890715D01*
X146304489Y-89149715D02*
X146304489Y-89128715D01*
X145605889Y-89657715D02*
X145605889Y-89636715D01*
X145965789Y-89382715D02*
X146008189Y-89382715D01*
X145965789Y-89403715D02*
X145965789Y-89382715D01*
X146368089Y-89086715D02*
X146389189Y-89086715D01*
X146749089Y-88789715D02*
X146749089Y-88768715D01*
X146981989Y-88556715D02*
X147024289Y-88556715D01*
X146685589Y-88832715D02*
X146706789Y-88832715D01*
X146050489Y-89319715D02*
X146092789Y-89319715D01*
X146579689Y-88937715D02*
X146579689Y-88916715D01*
X145500089Y-89721715D02*
X145500089Y-89700715D01*
X146876089Y-88683715D02*
X146876089Y-88662715D01*
X146981989Y-88578715D02*
X146981989Y-88556715D01*
X145436589Y-89742715D02*
X145478889Y-89742715D01*
X146198689Y-89234715D02*
X146198689Y-89213715D01*
X147024289Y-88556715D02*
X147024289Y-88535715D01*
X146727889Y-88789715D02*
X146749089Y-88789715D01*
X146643289Y-88853715D02*
X146685589Y-88853715D01*
X140292289Y-91711715D02*
X140122889Y-91711715D01*
X146410389Y-89065715D02*
X146410389Y-89043715D01*
X146029289Y-89361715D02*
X146029289Y-89340715D01*
X145669389Y-89615715D02*
X145669389Y-89594715D01*
X146643289Y-88874715D02*
X146643289Y-88853715D01*
X145627089Y-89636715D02*
X145627089Y-89615715D01*
X146622089Y-88895715D02*
X146622089Y-88874715D01*
X146685589Y-88853715D02*
X146685589Y-88832715D01*
X145944689Y-89424715D02*
X145944689Y-89403715D01*
X145754089Y-89530715D02*
X145796489Y-89530715D01*
X146897289Y-88662715D02*
X146897289Y-88641715D01*
X145309589Y-89848715D02*
X145309589Y-89827715D01*
X146473889Y-89001715D02*
X146495089Y-89001715D01*
X146897289Y-90187715D02*
X146876089Y-90187715D01*
X145097889Y-91076715D02*
X145097889Y-91097715D01*
X145711789Y-90356715D02*
X145605889Y-90356715D01*
X145817589Y-90441715D02*
X145881089Y-90441715D01*
X145055489Y-91182715D02*
X145055489Y-91203715D01*
X145859989Y-90822715D02*
X145859989Y-90843715D01*
X145944689Y-90779715D02*
X145944689Y-90800715D01*
X145605889Y-90949715D02*
X145605889Y-90970715D01*
X146833789Y-90250715D02*
X146791489Y-90250715D01*
X145775289Y-90885715D02*
X145732989Y-90885715D01*
X146092789Y-90716715D02*
X146050489Y-90716715D01*
X146283389Y-90610715D02*
X146240989Y-90610715D01*
X145902289Y-90822715D02*
X145859989Y-90822715D01*
X145563589Y-90970715D02*
X145563589Y-90991715D01*
X145521289Y-90991715D02*
X145521289Y-91012715D01*
X146177489Y-90673715D02*
X146135189Y-90673715D01*
X146452689Y-90398715D02*
X146452689Y-90419715D01*
X146770289Y-90292715D02*
X146727889Y-90292715D01*
X145097889Y-91160715D02*
X145097889Y-91182715D01*
X145055489Y-91203715D02*
X144991989Y-91203715D01*
X146008189Y-90737715D02*
X146008189Y-90758715D01*
X146960789Y-90144715D02*
X146939589Y-90144715D01*
X145521289Y-91012715D02*
X145457689Y-91012715D01*
X145118989Y-91054715D02*
X145118989Y-91033715D01*
X145097889Y-91097715D02*
X145182489Y-91097715D01*
X146198689Y-90631715D02*
X146198689Y-90652715D01*
X145944689Y-90800715D02*
X145902289Y-90800715D01*
X145648289Y-90949715D02*
X145605889Y-90949715D01*
X145097889Y-91182715D02*
X145055489Y-91182715D01*
X146050489Y-90737715D02*
X146008189Y-90737715D01*
X145605889Y-90970715D02*
X145563589Y-90970715D01*
X145690589Y-90927715D02*
X145648289Y-90927715D01*
X145182489Y-91118715D02*
X145203689Y-91118715D01*
X145013189Y-91054715D02*
X145013189Y-91076715D01*
X147214889Y-89911715D02*
X147193689Y-89911715D01*
X146240989Y-90631715D02*
X146198689Y-90631715D01*
X146960789Y-90123715D02*
X146960789Y-90144715D01*
X147108989Y-89382715D02*
X147108989Y-89403715D01*
X145881089Y-90441715D02*
X145881089Y-90462715D01*
X144928489Y-91033715D02*
X144928489Y-91054715D01*
X145415389Y-89763715D02*
X145436589Y-89763715D01*
X146135189Y-89255715D02*
X146177489Y-89255715D01*
X146685589Y-90335715D02*
X146685589Y-90356715D01*
X146854989Y-90208715D02*
X146854989Y-90229715D01*
X145415389Y-91033715D02*
X145415389Y-91054715D01*
X147108989Y-89403715D02*
X147235989Y-89403715D01*
X145732989Y-90885715D02*
X145732989Y-90906715D01*
X145986989Y-90779715D02*
X145944689Y-90779715D01*
X146346889Y-90525715D02*
X146346889Y-90568715D01*
X146706789Y-90335715D02*
X146685589Y-90335715D01*
X145986989Y-90758715D02*
X145986989Y-90779715D01*
X144928489Y-91054715D02*
X145013189Y-91054715D01*
X146240989Y-90610715D02*
X146240989Y-90631715D01*
X146177489Y-90652715D02*
X146177489Y-90673715D01*
X145859989Y-90843715D02*
X145817589Y-90843715D01*
X146283389Y-90589715D02*
X146283389Y-90610715D01*
X145013189Y-91076715D02*
X145097889Y-91076715D01*
X145182489Y-91097715D02*
X145182489Y-91118715D01*
X146135189Y-90673715D02*
X146135189Y-90695715D01*
X145817589Y-90864715D02*
X145775289Y-90864715D01*
X145563589Y-90991715D02*
X145521289Y-90991715D01*
X146008189Y-90758715D02*
X145986989Y-90758715D01*
X146897289Y-89361715D02*
X146939589Y-89361715D01*
X145902289Y-90800715D02*
X145902289Y-90822715D01*
X146791489Y-90271715D02*
X146770289Y-90271715D01*
X147363089Y-89763715D02*
X147341889Y-89763715D01*
X147172489Y-89954715D02*
X147151289Y-89954715D01*
X147299489Y-89827715D02*
X147278389Y-89827715D01*
X145605889Y-90377715D02*
X145669389Y-90377715D01*
X145986989Y-90483715D02*
X146071689Y-90483715D01*
X146791489Y-90250715D02*
X146791489Y-90271715D01*
X145605889Y-90356715D02*
X145605889Y-90335715D01*
X146346889Y-90568715D02*
X146304489Y-90568715D01*
X145859989Y-90398715D02*
X145859989Y-90377715D01*
X147574689Y-89509715D02*
X147553589Y-89509715D01*
X147511189Y-89594715D02*
X147490089Y-89594715D01*
X145859989Y-90377715D02*
X145711789Y-90377715D01*
X146198689Y-90525715D02*
X146346889Y-90525715D01*
X147045489Y-90059715D02*
X147045489Y-90081715D01*
X145542389Y-90335715D02*
X145542389Y-90356715D01*
X147257189Y-89869715D02*
X147235989Y-89869715D01*
X146939589Y-89340715D02*
X146897289Y-89340715D01*
X146198689Y-90504715D02*
X146198689Y-90525715D01*
X146050489Y-90716715D02*
X146050489Y-90737715D01*
X146452689Y-90419715D02*
X146092789Y-90419715D01*
X145415389Y-91054715D02*
X145118989Y-91054715D01*
X145542389Y-90356715D02*
X145605889Y-90356715D01*
X146092789Y-90695715D02*
X146092789Y-90716715D01*
X145732989Y-90906715D02*
X145690589Y-90906715D01*
X146685589Y-90356715D02*
X146643289Y-90356715D01*
X146897289Y-90165715D02*
X146897289Y-90187715D01*
X147151289Y-89954715D02*
X147151289Y-89975715D01*
X146727889Y-90292715D02*
X146727889Y-90313715D01*
X146897289Y-89340715D02*
X146897289Y-89361715D01*
X147405389Y-89700715D02*
X147405389Y-89721715D01*
X145203689Y-91139715D02*
X145161389Y-91139715D01*
X145817589Y-90419715D02*
X145817589Y-90441715D01*
X146135189Y-90695715D02*
X146092789Y-90695715D01*
X145457689Y-91033715D02*
X145415389Y-91033715D01*
X145161389Y-91160715D02*
X145097889Y-91160715D01*
X147363089Y-89742715D02*
X147363089Y-89763715D01*
X145203689Y-91118715D02*
X145203689Y-91139715D01*
X147003189Y-90102715D02*
X146981989Y-90102715D01*
X145457689Y-91012715D02*
X145457689Y-91033715D01*
X147087789Y-90017715D02*
X147087789Y-90038715D01*
X145690589Y-90906715D02*
X145690589Y-90927715D01*
X145732989Y-90398715D02*
X145732989Y-90419715D01*
X146643289Y-90356715D02*
X146643289Y-90377715D01*
X146876089Y-90208715D02*
X146854989Y-90208715D01*
X147172489Y-89932715D02*
X147172489Y-89954715D01*
X146622089Y-90398715D02*
X146452689Y-90398715D01*
X147426589Y-89361715D02*
X146981989Y-89361715D01*
X144991989Y-91203715D02*
X144991989Y-91224715D01*
X146304489Y-90568715D02*
X146304489Y-90589715D01*
X146939589Y-90165715D02*
X146897289Y-90165715D01*
X147066689Y-90038715D02*
X147066689Y-90059715D01*
X145881089Y-90462715D02*
X145986989Y-90462715D01*
X146643289Y-90377715D02*
X146622089Y-90377715D01*
X146092789Y-90419715D02*
X146092789Y-90398715D01*
X146304489Y-90589715D02*
X146283389Y-90589715D01*
X145986989Y-90462715D02*
X145986989Y-90483715D01*
X146092789Y-90398715D02*
X145859989Y-90398715D01*
X146833789Y-90229715D02*
X146833789Y-90250715D01*
X146727889Y-90313715D02*
X146706789Y-90313715D01*
X147299489Y-89805715D02*
X147299489Y-89827715D01*
X147384189Y-89742715D02*
X147363089Y-89742715D01*
X147532389Y-89530715D02*
X147532389Y-89573715D01*
X146071689Y-90504715D02*
X146198689Y-90504715D01*
X147278389Y-88302715D02*
X147278389Y-88281715D01*
X147532389Y-89573715D02*
X147511189Y-89573715D01*
X145732989Y-90419715D02*
X145817589Y-90419715D01*
X147235989Y-89424715D02*
X147426589Y-89424715D01*
X147553589Y-89509715D02*
X147553589Y-89530715D01*
X147341889Y-89784715D02*
X147320689Y-89784715D01*
X147849989Y-89065715D02*
X147849989Y-89107715D01*
X147426589Y-89446715D02*
X147595889Y-89446715D01*
X145605889Y-90335715D02*
X145542389Y-90335715D01*
X146452689Y-89022715D02*
X146473889Y-89022715D01*
X147003189Y-90081715D02*
X147003189Y-90102715D01*
X147595889Y-88133715D02*
X147595889Y-88070715D01*
X147320689Y-89805715D02*
X147299489Y-89805715D01*
X147341889Y-89763715D02*
X147341889Y-89784715D01*
X145669389Y-90377715D02*
X145669389Y-90398715D01*
X147405389Y-89721715D02*
X147384189Y-89721715D01*
X147108989Y-89996715D02*
X147108989Y-90017715D01*
X147108989Y-90017715D02*
X147087789Y-90017715D01*
X147722889Y-89276715D02*
X147722889Y-89319715D01*
X147045489Y-90081715D02*
X147003189Y-90081715D01*
X146854989Y-90229715D02*
X146833789Y-90229715D01*
X147447689Y-89678715D02*
X147426589Y-89678715D01*
X146876089Y-90187715D02*
X146876089Y-90208715D01*
X146262189Y-89170715D02*
X146283389Y-89170715D01*
X147172489Y-88408715D02*
X147172489Y-88387715D01*
X147468889Y-88218715D02*
X147511189Y-88218715D01*
X147426589Y-89700715D02*
X147405389Y-89700715D01*
X147511189Y-89573715D02*
X147511189Y-89594715D01*
X146706789Y-90313715D02*
X146706789Y-90335715D01*
X147235989Y-88345715D02*
X147235989Y-88324715D01*
X147426589Y-89424715D02*
X147426589Y-89446715D01*
X147511189Y-88197715D02*
X147532389Y-88197715D01*
X147532389Y-88175715D02*
X147553589Y-88175715D01*
X147235989Y-89869715D02*
X147235989Y-89890715D01*
X147468889Y-89615715D02*
X147468889Y-89636715D01*
X147066689Y-88493715D02*
X147087789Y-88493715D01*
X147595889Y-89446715D02*
X147595889Y-89488715D01*
X147553589Y-89530715D02*
X147532389Y-89530715D01*
X146558589Y-88937715D02*
X146579689Y-88937715D01*
X147447689Y-89636715D02*
X147447689Y-89678715D01*
X147257189Y-89848715D02*
X147257189Y-89869715D01*
X145711789Y-90377715D02*
X145711789Y-90356715D01*
X147278389Y-89827715D02*
X147278389Y-89848715D01*
X146981989Y-89361715D02*
X146981989Y-89382715D01*
X147574689Y-88133715D02*
X147595889Y-88133715D01*
X147638289Y-89340715D02*
X147426589Y-89340715D01*
X147807589Y-89170715D02*
X147786489Y-89170715D01*
X147490089Y-89615715D02*
X147468889Y-89615715D01*
X147426589Y-89678715D02*
X147426589Y-89700715D01*
X147384189Y-89721715D02*
X147384189Y-89742715D01*
X145605889Y-90356715D02*
X145605889Y-90377715D01*
X146981989Y-90102715D02*
X146981989Y-90123715D01*
X147235989Y-89403715D02*
X147235989Y-89424715D01*
X146283389Y-89149715D02*
X146304489Y-89149715D01*
X145669389Y-90398715D02*
X145732989Y-90398715D01*
X146071689Y-90483715D02*
X146071689Y-90504715D01*
X146622089Y-90377715D02*
X146622089Y-90398715D01*
X146981989Y-90123715D02*
X146960789Y-90123715D01*
X146770289Y-90271715D02*
X146770289Y-90292715D01*
X147214889Y-89890715D02*
X147214889Y-89911715D01*
X147595889Y-89488715D02*
X147574689Y-89488715D01*
X147235989Y-89890715D02*
X147214889Y-89890715D01*
X147087789Y-90038715D02*
X147066689Y-90038715D01*
X147574689Y-89488715D02*
X147574689Y-89509715D01*
X146770289Y-88768715D02*
X146770289Y-88747715D01*
X147871089Y-89065715D02*
X147849989Y-89065715D01*
X147045489Y-88514715D02*
X147066689Y-88514715D01*
X147151289Y-88408715D02*
X147172489Y-88408715D01*
X146749089Y-88768715D02*
X146770289Y-88768715D01*
X147807589Y-89149715D02*
X147807589Y-89170715D01*
X147553589Y-88175715D02*
X147553589Y-88154715D01*
X147553589Y-88154715D02*
X147574689Y-88154715D01*
X146939589Y-88620715D02*
X146939589Y-88599715D01*
X146389189Y-89065715D02*
X146410389Y-89065715D01*
X147490089Y-89594715D02*
X147490089Y-89615715D01*
X147765289Y-89213715D02*
X147765289Y-89255715D01*
X147320689Y-88239715D02*
X147468889Y-88239715D01*
X147193689Y-88387715D02*
X147193689Y-88366715D01*
X147722889Y-89319715D02*
X147638289Y-89319715D01*
X147511189Y-88218715D02*
X147511189Y-88197715D01*
X147828789Y-89107715D02*
X147828789Y-89149715D01*
X147765289Y-89043715D02*
X147871089Y-89043715D01*
X146516189Y-88959715D02*
X146558589Y-88959715D01*
X146981989Y-89382715D02*
X147108989Y-89382715D01*
X147786489Y-89170715D02*
X147786489Y-89213715D01*
X147744089Y-89255715D02*
X147744089Y-89276715D01*
X146960789Y-88578715D02*
X146981989Y-88578715D01*
X147468889Y-89636715D02*
X147447689Y-89636715D01*
X147638289Y-89319715D02*
X147638289Y-89340715D01*
X147193689Y-89911715D02*
X147193689Y-89932715D01*
X147130189Y-88451715D02*
X147130189Y-88429715D01*
X147871089Y-89043715D02*
X147871089Y-89065715D01*
X147257189Y-88302715D02*
X147278389Y-88302715D01*
X147130189Y-88429715D02*
X147151289Y-88429715D01*
X147744089Y-89276715D02*
X147722889Y-89276715D01*
X145373089Y-89805715D02*
X145373089Y-89784715D01*
X147320689Y-89784715D02*
X147320689Y-89805715D01*
X146410389Y-89043715D02*
X146452689Y-89043715D01*
X147786489Y-89213715D02*
X147765289Y-89213715D01*
X147087789Y-88472715D02*
X147108989Y-88472715D01*
X147278389Y-89848715D02*
X147257189Y-89848715D01*
X146558589Y-88959715D02*
X146558589Y-88937715D01*
X147532389Y-88197715D02*
X147532389Y-88175715D01*
X147151289Y-89975715D02*
X147130189Y-89975715D01*
X146516189Y-88980715D02*
X146516189Y-88959715D01*
X147130189Y-89975715D02*
X147130189Y-89996715D01*
X147172489Y-88387715D02*
X147193689Y-88387715D01*
X147765289Y-89065715D02*
X147765289Y-89043715D01*
X146918489Y-88620715D02*
X146939589Y-88620715D01*
X147617089Y-89065715D02*
X147765289Y-89065715D01*
X146600889Y-88916715D02*
X146600889Y-88895715D01*
X147299489Y-88281715D02*
X147299489Y-88260715D01*
X146473889Y-89022715D02*
X146473889Y-89001715D01*
X147828789Y-89149715D02*
X147807589Y-89149715D01*
X147151289Y-88429715D02*
X147151289Y-88408715D01*
X147066689Y-90059715D02*
X147045489Y-90059715D01*
X147214889Y-88345715D02*
X147235989Y-88345715D01*
X147574689Y-88154715D02*
X147574689Y-88133715D01*
X147257189Y-88324715D02*
X147257189Y-88302715D01*
X147235989Y-88324715D02*
X147257189Y-88324715D01*
X147595889Y-88070715D02*
X147617089Y-88070715D01*
X147108989Y-88451715D02*
X147130189Y-88451715D01*
X147193689Y-89932715D02*
X147172489Y-89932715D01*
X147214889Y-88366715D02*
X147214889Y-88345715D01*
X147193689Y-88366715D02*
X147214889Y-88366715D01*
X147066689Y-88514715D02*
X147066689Y-88493715D01*
X146791489Y-88747715D02*
X146791489Y-88726715D01*
X147130189Y-89996715D02*
X147108989Y-89996715D01*
X145161389Y-91139715D02*
X145161389Y-91160715D01*
X144335689Y-91414715D02*
X144251089Y-91414715D01*
X143912289Y-91478715D02*
X143912289Y-91499715D01*
X144907289Y-91033715D02*
X144907289Y-91012715D01*
X145648289Y-88599715D02*
X145648289Y-88535715D01*
X143806489Y-91097715D02*
X143785289Y-91097715D01*
X144039389Y-91457715D02*
X144039389Y-91478715D01*
X145627089Y-88599715D02*
X145648289Y-88599715D01*
X142832689Y-90525715D02*
X142853789Y-90525715D01*
X144335689Y-91330715D02*
X144420389Y-91330715D01*
X140419289Y-91690715D02*
X140292289Y-91690715D01*
X143954689Y-91139715D02*
X143869989Y-91139715D01*
X143912289Y-91499715D02*
X143806489Y-91499715D01*
X139953489Y-91732715D02*
X139953489Y-91753715D01*
X144123989Y-91245715D02*
X144123989Y-91266715D01*
X143954689Y-91203715D02*
X144018189Y-91203715D01*
X139741789Y-91774715D02*
X139466589Y-91774715D01*
X144462789Y-91351715D02*
X144462789Y-91372715D01*
X143827689Y-91139715D02*
X143869989Y-91139715D01*
X145648289Y-90927715D02*
X145648289Y-90949715D01*
X140122889Y-91711715D02*
X140122889Y-91732715D01*
X144420389Y-91393715D02*
X144335689Y-91393715D01*
X144145189Y-91203715D02*
X144145189Y-91182715D01*
X144039389Y-91160715D02*
X143954689Y-91160715D01*
X144272189Y-91309715D02*
X144335689Y-91309715D01*
X144843789Y-91012715D02*
X144843789Y-91033715D01*
X140292289Y-91690715D02*
X140292289Y-91711715D01*
X139741789Y-91753715D02*
X139741789Y-91774715D01*
X144335689Y-91309715D02*
X144335689Y-91330715D01*
X143954689Y-91160715D02*
X143954689Y-91139715D01*
X144060489Y-91224715D02*
X144060489Y-91245715D01*
X144251089Y-91414715D02*
X144251089Y-91436715D01*
X143785289Y-91097715D02*
X143785289Y-91118715D01*
X139466589Y-91774715D02*
X139466589Y-91795715D01*
X145118989Y-91033715D02*
X144928489Y-91033715D01*
X144462789Y-91372715D02*
X144420389Y-91372715D01*
X143869989Y-91139715D02*
X143869989Y-91118715D01*
X145627089Y-88535715D02*
X145627089Y-88599715D01*
X144251089Y-91436715D02*
X144145189Y-91436715D01*
X144039389Y-91182715D02*
X144039389Y-91160715D01*
X140122889Y-91732715D02*
X139953489Y-91732715D01*
X144420389Y-91351715D02*
X144462789Y-91351715D01*
X144420389Y-91330715D02*
X144420389Y-91351715D01*
X144039389Y-91478715D02*
X143912289Y-91478715D01*
X144018189Y-91224715D02*
X144060489Y-91224715D01*
X144843789Y-91033715D02*
X144907289Y-91033715D01*
X142853789Y-90483715D02*
X142832689Y-90483715D01*
X139466589Y-91795715D02*
X139085589Y-91795715D01*
X144187589Y-91266715D02*
X144187589Y-91287715D01*
X144335689Y-91393715D02*
X144335689Y-91414715D01*
X142832689Y-90483715D02*
X142832689Y-90525715D01*
X142853789Y-90525715D02*
X142853789Y-90483715D01*
X144187589Y-91287715D02*
X144272189Y-91287715D01*
X144907289Y-91012715D02*
X144843789Y-91012715D01*
X143869989Y-91160715D02*
X143912289Y-91160715D01*
X139953489Y-91753715D02*
X139741789Y-91753715D01*
X144314589Y-91224715D02*
X144314589Y-91203715D01*
X143954689Y-91182715D02*
X143954689Y-91203715D01*
X145817589Y-90843715D02*
X145817589Y-90864715D01*
X143869989Y-91118715D02*
X143827689Y-91118715D01*
X144420389Y-91372715D02*
X144420389Y-91393715D01*
X144991989Y-91224715D02*
X144314589Y-91224715D01*
X145648289Y-88535715D02*
X145627089Y-88535715D01*
X143827689Y-91118715D02*
X143827689Y-91139715D01*
X144886189Y-88472715D02*
X144907289Y-88472715D01*
X145627089Y-87879715D02*
X145627089Y-87858715D01*
X144589789Y-88916715D02*
X144568589Y-88916715D01*
X145648289Y-87837715D02*
X145690589Y-87837715D01*
X144526289Y-88832715D02*
X144547389Y-88832715D01*
X145267189Y-88154715D02*
X145267189Y-88133715D01*
X144991989Y-88387715D02*
X144991989Y-88366715D01*
X144970789Y-88387715D02*
X144991989Y-88387715D01*
X144462789Y-88916715D02*
X144483889Y-88916715D01*
X144547389Y-89086715D02*
X144547389Y-89043715D01*
X145182489Y-88218715D02*
X145182489Y-88197715D01*
X145394189Y-88048715D02*
X145394189Y-88027715D01*
X144420389Y-88980715D02*
X144420389Y-88959715D01*
X144187589Y-89361715D02*
X144187589Y-89319715D01*
X145140189Y-88239715D02*
X145161389Y-88239715D01*
X145309589Y-88091715D02*
X145330689Y-88091715D01*
X145373089Y-88070715D02*
X145373089Y-88048715D01*
X145182489Y-88197715D02*
X145203689Y-88197715D01*
X144864989Y-88514715D02*
X144886189Y-88514715D01*
X145690589Y-87837715D02*
X145690589Y-87815715D01*
X145309589Y-88112715D02*
X145309589Y-88091715D01*
X144780289Y-88641715D02*
X144801489Y-88641715D01*
X144949689Y-88408715D02*
X144970789Y-88408715D01*
X145690589Y-87815715D02*
X145711789Y-87815715D01*
X145203689Y-88175715D02*
X145224889Y-88175715D01*
X145330689Y-88070715D02*
X145373089Y-88070715D01*
X145542389Y-87942715D02*
X145542389Y-87921715D01*
X144526289Y-89043715D02*
X144526289Y-89086715D01*
X144441589Y-88959715D02*
X144441589Y-88937715D01*
X145648289Y-87858715D02*
X145648289Y-87837715D01*
X144886189Y-88514715D02*
X144886189Y-88472715D01*
X144483889Y-88916715D02*
X144483889Y-88895715D01*
X144589789Y-88874715D02*
X144589789Y-88916715D01*
X145076689Y-88302715D02*
X145076689Y-88281715D01*
X145224889Y-88175715D02*
X145224889Y-88154715D01*
X144716789Y-88747715D02*
X144737989Y-88747715D01*
X145457689Y-87985715D02*
X145478889Y-87985715D01*
X144483889Y-88895715D02*
X144505089Y-88895715D01*
X144123989Y-89467715D02*
X144145189Y-89467715D01*
X144695589Y-88810715D02*
X144695589Y-88789715D01*
X144039389Y-89319715D02*
X144060489Y-89319715D01*
X144378089Y-89001715D02*
X144399189Y-89001715D01*
X144229889Y-89234715D02*
X144251089Y-89234715D01*
X144632089Y-88768715D02*
X144632089Y-88810715D01*
X143277189Y-90081715D02*
X143277189Y-90038715D01*
X144695589Y-88789715D02*
X144716789Y-88789715D01*
X143912289Y-89446715D02*
X143933489Y-89446715D01*
X144123989Y-89340715D02*
X144102889Y-89340715D01*
X144737989Y-88705715D02*
X144759089Y-88705715D01*
X144356889Y-89043715D02*
X144356889Y-89022715D01*
X145457689Y-88006715D02*
X145457689Y-87985715D01*
X144843789Y-88535715D02*
X144864989Y-88535715D01*
X144632089Y-88937715D02*
X144632089Y-88895715D01*
X144441589Y-88937715D02*
X144462789Y-88937715D01*
X144780289Y-88683715D02*
X144780289Y-88641715D01*
X144589789Y-88768715D02*
X144632089Y-88768715D01*
X144674489Y-88810715D02*
X144695589Y-88810715D01*
X144907289Y-88451715D02*
X144928489Y-88451715D01*
X144653289Y-88895715D02*
X144653289Y-88853715D01*
X144991989Y-88366715D02*
X145013189Y-88366715D01*
X144589789Y-88980715D02*
X144610989Y-88980715D01*
X144526289Y-89086715D02*
X144547389Y-89086715D01*
X144251089Y-89192715D02*
X144272189Y-89192715D01*
X144547389Y-89043715D02*
X144568589Y-89043715D01*
X143996989Y-89361715D02*
X144018189Y-89361715D01*
X144039389Y-89340715D02*
X144039389Y-89319715D01*
X143996989Y-89382715D02*
X143996989Y-89361715D01*
X144610989Y-88874715D02*
X144589789Y-88874715D01*
X144568589Y-89022715D02*
X144589789Y-89022715D01*
X145076689Y-88281715D02*
X145118989Y-88281715D01*
X144822589Y-88578715D02*
X144843789Y-88578715D01*
X144039389Y-89657715D02*
X144018189Y-89657715D01*
X144102889Y-89340715D02*
X144102889Y-89403715D01*
X144547389Y-89043715D02*
X144526289Y-89043715D01*
X144737989Y-88747715D02*
X144737989Y-88705715D01*
X144759089Y-88683715D02*
X144780289Y-88683715D01*
X145224889Y-88154715D02*
X145267189Y-88154715D01*
X145161389Y-88239715D02*
X145161389Y-88218715D01*
X144568589Y-88810715D02*
X144568589Y-88789715D01*
X144547389Y-88810715D02*
X144568589Y-88810715D01*
X144843789Y-88578715D02*
X144843789Y-88535715D01*
X144293389Y-89149715D02*
X144293389Y-89107715D01*
X144589789Y-88789715D02*
X144589789Y-88768715D01*
X143975789Y-89382715D02*
X143996989Y-89382715D01*
X145330689Y-88091715D02*
X145330689Y-88070715D01*
X143954689Y-89403715D02*
X143975789Y-89403715D01*
X143975789Y-89403715D02*
X143975789Y-89382715D01*
X144060489Y-89573715D02*
X144039389Y-89573715D01*
X144547389Y-88832715D02*
X144547389Y-88810715D01*
X145373089Y-88048715D02*
X145394189Y-88048715D01*
X144864989Y-88535715D02*
X144864989Y-88514715D01*
X144610989Y-88810715D02*
X144610989Y-88874715D01*
X143128989Y-90102715D02*
X143150189Y-90102715D01*
X138259989Y-91414715D02*
X138259989Y-91436715D01*
X142409289Y-90631715D02*
X142409289Y-90610715D01*
X143150189Y-90102715D02*
X143150189Y-90081715D01*
X142620989Y-90462715D02*
X142663289Y-90462715D01*
X138132889Y-91436715D02*
X138196389Y-91436715D01*
X142663289Y-90462715D02*
X142663289Y-90441715D01*
X138090589Y-91478715D02*
X138090589Y-91457715D01*
X142938489Y-90335715D02*
X142938489Y-90292715D01*
X137984689Y-91753715D02*
X137984689Y-91605715D01*
X142832689Y-90335715D02*
X142832689Y-90313715D01*
X143044389Y-90165715D02*
X143065489Y-90165715D01*
X142366889Y-90652715D02*
X142366889Y-90631715D01*
X143213689Y-90059715D02*
X143213689Y-90038715D01*
X138111789Y-91901715D02*
X138111789Y-91880715D01*
X142896189Y-90419715D02*
X142896189Y-90377715D01*
X142493889Y-90568715D02*
X142493889Y-90546715D01*
X138048189Y-91520715D02*
X138048189Y-91499715D01*
X138069389Y-91499715D02*
X138069389Y-91478715D01*
X142853789Y-90462715D02*
X142874989Y-90462715D01*
X143171389Y-90081715D02*
X143171389Y-90059715D01*
X142747989Y-90377715D02*
X142769189Y-90377715D01*
X142874989Y-90398715D02*
X142853789Y-90398715D01*
X138048189Y-91499715D02*
X138069389Y-91499715D01*
X142409289Y-90610715D02*
X142430389Y-90610715D01*
X143044389Y-90187715D02*
X143044389Y-90165715D01*
X143001989Y-90208715D02*
X143001989Y-90187715D01*
X142599789Y-90483715D02*
X142620989Y-90483715D01*
X142811489Y-90356715D02*
X142811489Y-90335715D01*
X142684489Y-90419715D02*
X142726789Y-90419715D01*
X138429289Y-91838715D02*
X138408089Y-91838715D01*
X142874989Y-90313715D02*
X142874989Y-90398715D01*
X142811489Y-90335715D02*
X142832689Y-90335715D01*
X142599789Y-90504715D02*
X142599789Y-90483715D01*
X142874989Y-90419715D02*
X142896189Y-90419715D01*
X142959689Y-90250715D02*
X142980789Y-90250715D01*
X138027089Y-91541715D02*
X138027089Y-91520715D01*
X142917289Y-90335715D02*
X142938489Y-90335715D01*
X142536289Y-90525715D02*
X142557489Y-90525715D01*
X142430389Y-90610715D02*
X142430389Y-90589715D01*
X142938489Y-90292715D02*
X142959689Y-90292715D01*
X138801367Y-91543312D02*
X139041367Y-91543312D01*
X143086689Y-90123715D02*
X143128989Y-90123715D01*
X143213689Y-90038715D02*
X143234889Y-90038715D01*
X138791367Y-91813312D02*
X139071367Y-91803312D01*
X143128989Y-90123715D02*
X143128989Y-90102715D01*
X142536289Y-90546715D02*
X142536289Y-90525715D01*
X142493889Y-90546715D02*
X142536289Y-90546715D01*
X142917289Y-90377715D02*
X142917289Y-90335715D01*
X142663289Y-90441715D02*
X142684489Y-90441715D01*
X142959689Y-90292715D02*
X142959689Y-90250715D01*
X142726789Y-90398715D02*
X142747989Y-90398715D01*
X142769189Y-90356715D02*
X142811489Y-90356715D01*
X143065489Y-90144715D02*
X143086689Y-90144715D01*
X142980789Y-90208715D02*
X143001989Y-90208715D01*
X142472789Y-90589715D02*
X142472789Y-90568715D01*
X142853789Y-90398715D02*
X142853789Y-90462715D01*
X142726789Y-90419715D02*
X142726789Y-90398715D01*
X138027089Y-91520715D02*
X138048189Y-91520715D01*
X143171389Y-90059715D02*
X143213689Y-90059715D01*
X142620989Y-90483715D02*
X142620989Y-90462715D01*
X142557489Y-90525715D02*
X142557489Y-90504715D01*
X142747989Y-90398715D02*
X142747989Y-90377715D01*
X142896189Y-90377715D02*
X142917289Y-90377715D01*
X142832689Y-90313715D02*
X142874989Y-90313715D01*
X142684489Y-90441715D02*
X142684489Y-90419715D01*
X143001989Y-90187715D02*
X143044389Y-90187715D01*
X143065489Y-90165715D02*
X143065489Y-90144715D01*
X140431367Y-91683312D02*
X140721367Y-91623312D01*
X142980789Y-90250715D02*
X142980789Y-90208715D01*
X142430389Y-90589715D02*
X142472789Y-90589715D01*
X142472789Y-90568715D02*
X142493889Y-90568715D01*
X142557489Y-90504715D02*
X142599789Y-90504715D01*
X140451367Y-91393312D02*
X140701367Y-91363312D01*
X142366889Y-90631715D02*
X142409289Y-90631715D01*
X142917289Y-91393715D02*
X142917289Y-91414715D01*
X146473889Y-88726715D02*
X146473889Y-88747715D01*
X145034389Y-89742715D02*
X145034389Y-89763715D01*
X145563589Y-89403715D02*
X145563589Y-89424715D01*
X143086689Y-91563715D02*
X143086689Y-91584715D01*
X145605889Y-89382715D02*
X145605889Y-89403715D01*
X141139089Y-91563715D02*
X141033189Y-91563715D01*
X145267189Y-89594715D02*
X145267189Y-89615715D01*
X142006989Y-91584715D02*
X142006989Y-91563715D01*
X145627089Y-89361715D02*
X145627089Y-89382715D01*
X146410389Y-88789715D02*
X146389189Y-88789715D01*
X145902289Y-89192715D02*
X145859989Y-89192715D01*
X146283389Y-88874715D02*
X146283389Y-88895715D01*
X146008189Y-89086715D02*
X146008189Y-89107715D01*
X145605889Y-89403715D02*
X145563589Y-89403715D01*
X145267189Y-89615715D02*
X145245989Y-89615715D01*
X146622089Y-88620715D02*
X146600889Y-88620715D01*
X145478889Y-89488715D02*
X145436589Y-89488715D01*
X145330689Y-89551715D02*
X145330689Y-89573715D01*
X145330689Y-89573715D02*
X145309589Y-89573715D01*
X146050489Y-89086715D02*
X146008189Y-89086715D01*
X146368089Y-88832715D02*
X146346889Y-88832715D01*
X146643289Y-88578715D02*
X146643289Y-88599715D01*
X145097889Y-89721715D02*
X145076689Y-89721715D01*
X143086689Y-91457715D02*
X143086689Y-91478715D01*
X145076689Y-89742715D02*
X145034389Y-89742715D01*
X145690589Y-89340715D02*
X145648289Y-89340715D01*
X143806489Y-91499715D02*
X143764189Y-91499715D01*
X145415389Y-89530715D02*
X145373089Y-89530715D01*
X144970789Y-89784715D02*
X144970789Y-89805715D01*
X145563589Y-89424715D02*
X145542389Y-89424715D01*
X146177489Y-88980715D02*
X146156389Y-88980715D01*
X145859989Y-89192715D02*
X145859989Y-89213715D01*
X147214889Y-87900715D02*
X147193689Y-87900715D01*
X146135189Y-89022715D02*
X146092789Y-89022715D01*
X146495089Y-88705715D02*
X146495089Y-88726715D01*
X146389189Y-88810715D02*
X146368089Y-88810715D01*
X145965789Y-89128715D02*
X145965789Y-89149715D01*
X146600889Y-88641715D02*
X146579689Y-88641715D01*
X145965789Y-89149715D02*
X145923489Y-89149715D01*
X145203689Y-89636715D02*
X145203689Y-89657715D01*
X145542389Y-89446715D02*
X145500089Y-89446715D01*
X143764189Y-91499715D02*
X143764189Y-91520715D01*
X145986989Y-89107715D02*
X145986989Y-89128715D01*
X146092789Y-89043715D02*
X146071689Y-89043715D01*
X143764189Y-91520715D02*
X143552389Y-91520715D01*
X144991989Y-89784715D02*
X144970789Y-89784715D01*
X144991989Y-89763715D02*
X144991989Y-89784715D01*
X146389189Y-88789715D02*
X146389189Y-88810715D01*
X145754089Y-89297715D02*
X145711789Y-89297715D01*
X143023189Y-91414715D02*
X142959689Y-91414715D01*
X140927389Y-91584715D02*
X140927389Y-91605715D01*
X146473889Y-88747715D02*
X146452689Y-88747715D01*
X145203689Y-89657715D02*
X145182489Y-89657715D01*
X145627089Y-89382715D02*
X145605889Y-89382715D01*
X143023189Y-91436715D02*
X143023189Y-91414715D01*
X143298389Y-91563715D02*
X143086689Y-91563715D01*
X145902289Y-89170715D02*
X145902289Y-89192715D01*
X146219889Y-87858715D02*
X146198689Y-87858715D01*
X145076689Y-89721715D02*
X145076689Y-89742715D01*
X145436589Y-89509715D02*
X145415389Y-89509715D01*
X147235989Y-87837715D02*
X147235989Y-87858715D01*
X146622089Y-88599715D02*
X146622089Y-88620715D01*
X146537389Y-88683715D02*
X146516189Y-88683715D01*
X147108989Y-88154715D02*
X147108989Y-88175715D01*
X147278389Y-87837715D02*
X147235989Y-87837715D01*
X145500089Y-89446715D02*
X145500089Y-89467715D01*
X145436589Y-89488715D02*
X145436589Y-89509715D01*
X147003189Y-88239715D02*
X147003189Y-88260715D01*
X145775289Y-89255715D02*
X145775289Y-89276715D01*
X145986989Y-89128715D02*
X145965789Y-89128715D01*
X146240989Y-88916715D02*
X146240989Y-88937715D01*
X146516189Y-88683715D02*
X146516189Y-88705715D01*
X146981989Y-88260715D02*
X146981989Y-88281715D01*
X146579689Y-88641715D02*
X146579689Y-88662715D01*
X146177489Y-88959715D02*
X146177489Y-88980715D01*
X146833789Y-88408715D02*
X146833789Y-88429715D01*
X147320689Y-87815715D02*
X147278389Y-87815715D01*
X146262189Y-88916715D02*
X146240989Y-88916715D01*
X146346889Y-88832715D02*
X146346889Y-88853715D01*
X145245989Y-89615715D02*
X145245989Y-89636715D01*
X145859989Y-89213715D02*
X145838789Y-89213715D01*
X146219889Y-88937715D02*
X146198689Y-88937715D01*
X147151289Y-88112715D02*
X147130189Y-88112715D01*
X146156389Y-88980715D02*
X146156389Y-89001715D01*
X146410389Y-88768715D02*
X146410389Y-88789715D01*
X147024289Y-88218715D02*
X147024289Y-88239715D01*
X146198689Y-87879715D02*
X146219889Y-87879715D01*
X145034389Y-89763715D02*
X144991989Y-89763715D01*
X146749089Y-88514715D02*
X146706789Y-88514715D01*
X146600889Y-88620715D02*
X146600889Y-88641715D01*
X146198689Y-88937715D02*
X146198689Y-88959715D01*
X146368089Y-88810715D02*
X146368089Y-88832715D01*
X145838789Y-89234715D02*
X145817589Y-89234715D01*
X145542389Y-89424715D02*
X145542389Y-89446715D01*
X146346889Y-88853715D02*
X146304489Y-88853715D01*
X145690589Y-89319715D02*
X145690589Y-89340715D01*
X146092789Y-89022715D02*
X146092789Y-89043715D01*
X146854989Y-88387715D02*
X146854989Y-88408715D01*
X146240989Y-88937715D02*
X146219889Y-88937715D01*
X146071689Y-89043715D02*
X146071689Y-89065715D01*
X147214889Y-87858715D02*
X147214889Y-87900715D01*
X147172489Y-87921715D02*
X147172489Y-88091715D01*
X146452689Y-88747715D02*
X146452689Y-88768715D01*
X147278389Y-87815715D02*
X147278389Y-87837715D01*
X145923489Y-89149715D02*
X145923489Y-89170715D01*
X145817589Y-89234715D02*
X145817589Y-89255715D01*
X146135189Y-89001715D02*
X146135189Y-89022715D01*
X148357989Y-87837715D02*
X148336889Y-87837715D01*
X146156389Y-89001715D02*
X146135189Y-89001715D01*
X146262189Y-88895715D02*
X146262189Y-88916715D01*
X146452689Y-88768715D02*
X146410389Y-88768715D01*
X147130189Y-88154715D02*
X147108989Y-88154715D01*
X146960789Y-88302715D02*
X146939589Y-88302715D01*
X148167489Y-88451715D02*
X148146289Y-88451715D01*
X148252189Y-88154715D02*
X148252189Y-88218715D01*
X145838789Y-89213715D02*
X145838789Y-89234715D01*
X146579689Y-88662715D02*
X146537389Y-88662715D01*
X147087789Y-88197715D02*
X147066689Y-88197715D01*
X146812589Y-88429715D02*
X146812589Y-88451715D01*
X147955789Y-88874715D02*
X147955789Y-88916715D01*
X147066689Y-88197715D02*
X147066689Y-88218715D01*
X147193689Y-87900715D02*
X147193689Y-87921715D01*
X147807589Y-89022715D02*
X147722889Y-89022715D01*
X147722889Y-89022715D02*
X147722889Y-89043715D01*
X146283389Y-88895715D02*
X146262189Y-88895715D01*
X145817589Y-89255715D02*
X145775289Y-89255715D01*
X146198689Y-88959715D02*
X146177489Y-88959715D01*
X146304489Y-88853715D02*
X146304489Y-88874715D01*
X146664389Y-88556715D02*
X146664389Y-88578715D01*
X148125189Y-88556715D02*
X148103989Y-88556715D01*
X148400389Y-87498715D02*
X148400389Y-87625715D01*
X148421489Y-87350715D02*
X148421489Y-87498715D01*
X147934589Y-88959715D02*
X147913489Y-88959715D01*
X146939589Y-88324715D02*
X146918489Y-88324715D01*
X147003189Y-88260715D02*
X146981989Y-88260715D01*
X146600889Y-87371715D02*
X146600889Y-87350715D01*
X147532389Y-87858715D02*
X147532389Y-87837715D01*
X148040489Y-88705715D02*
X148040489Y-88747715D01*
X146897289Y-88345715D02*
X146897289Y-88366715D01*
X147108989Y-88175715D02*
X147087789Y-88175715D01*
X147087789Y-88175715D02*
X147087789Y-88197715D01*
X147553589Y-87879715D02*
X147553589Y-87858715D01*
X146918489Y-88345715D02*
X146897289Y-88345715D01*
X148061689Y-88662715D02*
X148061689Y-88705715D01*
X147468889Y-87794715D02*
X147320689Y-87794715D01*
X148379189Y-87731715D02*
X148357989Y-87731715D01*
X146791489Y-88472715D02*
X146770289Y-88472715D01*
X148209889Y-88281715D02*
X148209889Y-88345715D01*
X148230989Y-88281715D02*
X148209889Y-88281715D01*
X146876089Y-88387715D02*
X146854989Y-88387715D01*
X146452689Y-87519715D02*
X146473889Y-87519715D01*
X148252189Y-88218715D02*
X148230989Y-88218715D01*
X146812589Y-88451715D02*
X146791489Y-88451715D01*
X146770289Y-88472715D02*
X146770289Y-88493715D01*
X148294489Y-88070715D02*
X148273389Y-88070715D01*
X146664389Y-88578715D02*
X146643289Y-88578715D01*
X146939589Y-88302715D02*
X146939589Y-88324715D01*
X148082789Y-88662715D02*
X148061689Y-88662715D01*
X148463889Y-86969715D02*
X148463889Y-87117715D01*
X147892289Y-88980715D02*
X147892289Y-89001715D01*
X146643289Y-88599715D02*
X146622089Y-88599715D01*
X147193689Y-87921715D02*
X147172489Y-87921715D01*
X148188689Y-88408715D02*
X148167489Y-88408715D01*
X146876089Y-88366715D02*
X146876089Y-88387715D01*
X146516189Y-88705715D02*
X146495089Y-88705715D01*
X147235989Y-87858715D02*
X147214889Y-87858715D01*
X146706789Y-88514715D02*
X146706789Y-88535715D01*
X148294489Y-88006715D02*
X148294489Y-88070715D01*
X147130189Y-88112715D02*
X147130189Y-88154715D01*
X146050489Y-89065715D02*
X146050489Y-89086715D01*
X146495089Y-88726715D02*
X146473889Y-88726715D01*
X146770289Y-88493715D02*
X146749089Y-88493715D01*
X147066689Y-88218715D02*
X147024289Y-88218715D01*
X148103989Y-88620715D02*
X148082789Y-88620715D01*
X146008189Y-89107715D02*
X145986989Y-89107715D01*
X146071689Y-89065715D02*
X146050489Y-89065715D01*
X147468889Y-87815715D02*
X147468889Y-87794715D01*
X146749089Y-87265715D02*
X146812589Y-87265715D01*
X147024289Y-88239715D02*
X147003189Y-88239715D01*
X148315689Y-87921715D02*
X148315689Y-88006715D01*
X148019289Y-88747715D02*
X148019289Y-88789715D01*
X148125189Y-88514715D02*
X148125189Y-88556715D01*
X146537389Y-88662715D02*
X146537389Y-88683715D01*
X146833789Y-88429715D02*
X146812589Y-88429715D01*
X139085589Y-91541715D02*
X139233789Y-91541715D01*
X141562489Y-91097715D02*
X141583589Y-91097715D01*
X144102889Y-90271715D02*
X144060489Y-90271715D01*
X144441589Y-90102715D02*
X144399189Y-90102715D01*
X141901189Y-90927715D02*
X141901189Y-90906715D01*
X143700589Y-89636715D02*
X143721789Y-89636715D01*
X143234889Y-90144715D02*
X143234889Y-90102715D01*
X144187589Y-90229715D02*
X144145189Y-90229715D01*
X144441589Y-90081715D02*
X144441589Y-90102715D01*
X144314589Y-90144715D02*
X144314589Y-90165715D01*
X142303389Y-90673715D02*
X142324589Y-90673715D01*
X143933489Y-90356715D02*
X143891189Y-90356715D01*
X144526289Y-90059715D02*
X144483889Y-90059715D01*
X144886189Y-89848715D02*
X144864989Y-89848715D01*
X144970789Y-89805715D02*
X144928489Y-89805715D01*
X144060489Y-90271715D02*
X144060489Y-90292715D01*
X144399189Y-90102715D02*
X144399189Y-90123715D01*
X142134089Y-90800715D02*
X142134089Y-90779715D01*
X144314589Y-90165715D02*
X144272189Y-90165715D01*
X144928489Y-89827715D02*
X144886189Y-89827715D01*
X144399189Y-90123715D02*
X144356889Y-90123715D01*
X144483889Y-90081715D02*
X144441589Y-90081715D01*
X144018189Y-90313715D02*
X143975789Y-90313715D01*
X143891189Y-90377715D02*
X143848789Y-90377715D01*
X143891189Y-90356715D02*
X143891189Y-90377715D01*
X142303389Y-90695715D02*
X142303389Y-90673715D01*
X141943489Y-90885715D02*
X141985889Y-90885715D01*
X144716789Y-89932715D02*
X144716789Y-89954715D01*
X144145189Y-90229715D02*
X144145189Y-90250715D01*
X143996989Y-89742715D02*
X143996989Y-89763715D01*
X144864989Y-89869715D02*
X144822589Y-89869715D01*
X141943489Y-90906715D02*
X141943489Y-90885715D01*
X143298389Y-90017715D02*
X143319589Y-90017715D01*
X144018189Y-89742715D02*
X143996989Y-89742715D01*
X144272189Y-90165715D02*
X144272189Y-90187715D01*
X142197589Y-90737715D02*
X142239889Y-90737715D01*
X143933489Y-90335715D02*
X143933489Y-90356715D01*
X141795289Y-90991715D02*
X141795289Y-90970715D01*
X144229889Y-90187715D02*
X144229889Y-90208715D01*
X143848789Y-89530715D02*
X143848789Y-89509715D01*
X143446589Y-89869715D02*
X143446589Y-89848715D01*
X144886189Y-89827715D02*
X144886189Y-89848715D01*
X143615989Y-89721715D02*
X143615989Y-89700715D01*
X143552389Y-89763715D02*
X143573589Y-89763715D01*
X143234889Y-90081715D02*
X143213689Y-90081715D01*
X141583589Y-91097715D02*
X141583589Y-91076715D01*
X144589789Y-90017715D02*
X144568589Y-90017715D01*
X144102889Y-90250715D02*
X144102889Y-90271715D01*
X144505089Y-89128715D02*
X144526289Y-89128715D01*
X144589789Y-89996715D02*
X144589789Y-90017715D01*
X143975789Y-90335715D02*
X143933489Y-90335715D01*
X143361889Y-89911715D02*
X143404289Y-89911715D01*
X144018189Y-89657715D02*
X144018189Y-89700715D01*
X143488889Y-89805715D02*
X143531289Y-89805715D01*
X142324589Y-90673715D02*
X142324589Y-90652715D01*
X143404289Y-89911715D02*
X143404289Y-89890715D01*
X143679489Y-89657715D02*
X143700589Y-89657715D01*
X144229889Y-89276715D02*
X144229889Y-89234715D01*
X142324589Y-90652715D02*
X142366889Y-90652715D01*
X143298389Y-90038715D02*
X143298389Y-90017715D01*
X144483889Y-90059715D02*
X144483889Y-90081715D01*
X144060489Y-90292715D02*
X144018189Y-90292715D01*
X143256089Y-90102715D02*
X143256089Y-90081715D01*
X143319589Y-90017715D02*
X143319589Y-89975715D01*
X143446589Y-89848715D02*
X143467789Y-89848715D01*
X143531289Y-89805715D02*
X143531289Y-89784715D01*
X141985889Y-90885715D02*
X141985889Y-90864715D01*
X143404289Y-89890715D02*
X143425389Y-89890715D01*
X144526289Y-89107715D02*
X144505089Y-89107715D01*
X143891189Y-89467715D02*
X143912289Y-89467715D01*
X143721789Y-89636715D02*
X143721789Y-89615715D01*
X141583589Y-91076715D02*
X141625989Y-91076715D01*
X142049389Y-90822715D02*
X142091689Y-90822715D01*
X141435489Y-91182715D02*
X141435489Y-91160715D01*
X143827689Y-89551715D02*
X143827689Y-89530715D01*
X143848789Y-89509715D02*
X143869989Y-89509715D01*
X143488889Y-89827715D02*
X143488889Y-89805715D01*
X143827689Y-89530715D02*
X143848789Y-89530715D01*
X143785289Y-89573715D02*
X143785289Y-89551715D01*
X143764189Y-89594715D02*
X143764189Y-89573715D01*
X144123989Y-89509715D02*
X144123989Y-89467715D01*
X143425389Y-89890715D02*
X143425389Y-89869715D01*
X143785289Y-89551715D02*
X143827689Y-89551715D01*
X141668289Y-91033715D02*
X141710689Y-91033715D01*
X143192489Y-90144715D02*
X143192489Y-90165715D01*
X143234889Y-90038715D02*
X143234889Y-90081715D01*
X144145189Y-90250715D02*
X144102889Y-90250715D01*
X143869989Y-89509715D02*
X143869989Y-89488715D01*
X144632089Y-89975715D02*
X144632089Y-89996715D01*
X143213689Y-90144715D02*
X143234889Y-90144715D01*
X144674489Y-89954715D02*
X144674489Y-89975715D01*
X143192489Y-90165715D02*
X143213689Y-90165715D01*
X141837689Y-90949715D02*
X141858789Y-90949715D01*
X141520089Y-91118715D02*
X141562489Y-91118715D01*
X142261089Y-90716715D02*
X142261089Y-90695715D01*
X144928489Y-89805715D02*
X144928489Y-89827715D01*
X144356889Y-90144715D02*
X144314589Y-90144715D01*
X141329589Y-91203715D02*
X141371889Y-91203715D01*
X144822589Y-89869715D02*
X144822589Y-89890715D01*
X142239889Y-90737715D02*
X142239889Y-90716715D01*
X142239889Y-90716715D02*
X142261089Y-90716715D01*
X139784189Y-91499715D02*
X139784189Y-91478715D01*
X141837689Y-90970715D02*
X141837689Y-90949715D01*
X144864989Y-89848715D02*
X144864989Y-89869715D01*
X141520089Y-91139715D02*
X141520089Y-91118715D01*
X141668289Y-91054715D02*
X141668289Y-91033715D01*
X144780289Y-89911715D02*
X144737989Y-89911715D01*
X144632089Y-89996715D02*
X144589789Y-89996715D01*
X142028189Y-90864715D02*
X142028189Y-90843715D01*
X139551289Y-91499715D02*
X139784189Y-91499715D01*
X144737989Y-89911715D02*
X144737989Y-89932715D01*
X142155189Y-90779715D02*
X142155189Y-90758715D01*
X141795289Y-90970715D02*
X141837689Y-90970715D01*
X141752989Y-90991715D02*
X141795289Y-90991715D01*
X144187589Y-90208715D02*
X144187589Y-90229715D01*
X141562489Y-91118715D02*
X141562489Y-91097715D01*
X141287289Y-91245715D02*
X141287289Y-91224715D01*
X144822589Y-89890715D02*
X144780289Y-89890715D01*
X144780289Y-89890715D02*
X144780289Y-89911715D01*
X144568589Y-90017715D02*
X144568589Y-90038715D01*
X141858789Y-90949715D02*
X141858789Y-90927715D01*
X144716789Y-89954715D02*
X144674489Y-89954715D01*
X144229889Y-90208715D02*
X144187589Y-90208715D01*
X144737989Y-89932715D02*
X144716789Y-89932715D01*
X143975789Y-90313715D02*
X143975789Y-90335715D01*
X144272189Y-90187715D02*
X144229889Y-90187715D01*
X141244889Y-91245715D02*
X141287289Y-91245715D01*
X141329589Y-91224715D02*
X141329589Y-91203715D01*
X143996989Y-89763715D02*
X144018189Y-89763715D01*
X141858789Y-90927715D02*
X141901189Y-90927715D01*
X141033189Y-91287715D02*
X141139089Y-91287715D01*
X144568589Y-88916715D02*
X144568589Y-88980715D01*
X144399189Y-88980715D02*
X144420389Y-88980715D01*
X144610989Y-88937715D02*
X144632089Y-88937715D01*
X144187589Y-89319715D02*
X144208689Y-89319715D01*
X144610989Y-88980715D02*
X144610989Y-88937715D01*
X144632089Y-88895715D02*
X144653289Y-88895715D01*
X144759089Y-88705715D02*
X144759089Y-88683715D01*
X144081689Y-89551715D02*
X144102889Y-89551715D01*
X144060489Y-89594715D02*
X144081689Y-89594715D01*
X144272189Y-89149715D02*
X144293389Y-89149715D01*
X144018189Y-89340715D02*
X144039389Y-89340715D01*
X144208689Y-89319715D02*
X144208689Y-89276715D01*
X144060489Y-89297715D02*
X144102889Y-89297715D01*
X144547389Y-88980715D02*
X144547389Y-89043715D01*
X144568589Y-88980715D02*
X144547389Y-88980715D01*
X144420389Y-88959715D02*
X144441589Y-88959715D01*
X144568589Y-89043715D02*
X144568589Y-89022715D01*
X144081689Y-89403715D02*
X144081689Y-89488715D01*
X143954689Y-89424715D02*
X143954689Y-89403715D01*
X144145189Y-89403715D02*
X144166389Y-89403715D01*
X144335689Y-89065715D02*
X144335689Y-89043715D01*
X144060489Y-89488715D02*
X144060489Y-89573715D01*
X144102889Y-89297715D02*
X144102889Y-89276715D01*
X144399189Y-89001715D02*
X144399189Y-88980715D01*
X143721789Y-89615715D02*
X143742989Y-89615715D01*
X144822589Y-88620715D02*
X144822589Y-88578715D01*
X144801489Y-88641715D02*
X144801489Y-88620715D01*
X144632089Y-88810715D02*
X144610989Y-88810715D01*
X143742989Y-89615715D02*
X143742989Y-89594715D01*
X143679489Y-89678715D02*
X143679489Y-89657715D01*
X144251089Y-89234715D02*
X144251089Y-89192715D01*
X144272189Y-89192715D02*
X144272189Y-89149715D01*
X144102889Y-89509715D02*
X144123989Y-89509715D01*
X143319589Y-89975715D02*
X143340689Y-89975715D01*
X143594789Y-89742715D02*
X143594789Y-89721715D01*
X144166389Y-89403715D02*
X144166389Y-89361715D01*
X143213689Y-90144715D02*
X143192489Y-90144715D01*
X144102889Y-89551715D02*
X144102889Y-89509715D01*
X144123989Y-89276715D02*
X144123989Y-89340715D01*
X143531289Y-89784715D02*
X143552389Y-89784715D01*
X143891189Y-89488715D02*
X143891189Y-89467715D01*
X144018189Y-89700715D02*
X144039389Y-89700715D01*
X144335689Y-89043715D02*
X144356889Y-89043715D01*
X143425389Y-89869715D02*
X143446589Y-89869715D01*
X143234889Y-90102715D02*
X143256089Y-90102715D01*
X143573589Y-89742715D02*
X143594789Y-89742715D01*
X143467789Y-89848715D02*
X143467789Y-89827715D01*
X143256089Y-90081715D02*
X143277189Y-90081715D01*
X144293389Y-89107715D02*
X144314589Y-89107715D01*
X143552389Y-89784715D02*
X143552389Y-89763715D01*
X144378089Y-89022715D02*
X144378089Y-89001715D01*
X144505089Y-89107715D02*
X144505089Y-89128715D01*
X143340689Y-89954715D02*
X143361889Y-89954715D01*
X144356889Y-89022715D02*
X144378089Y-89022715D01*
X144060489Y-89657715D02*
X144060489Y-89594715D01*
X144208689Y-89276715D02*
X144229889Y-89276715D01*
X143340689Y-89975715D02*
X143340689Y-89954715D01*
X144462789Y-88937715D02*
X144462789Y-88916715D01*
X143213689Y-90165715D02*
X143213689Y-90144715D01*
X144145189Y-89467715D02*
X144145189Y-89403715D01*
X144081689Y-89594715D02*
X144081689Y-89551715D01*
X143912289Y-89467715D02*
X143912289Y-89446715D01*
X143573589Y-89763715D02*
X143573589Y-89742715D01*
X144166389Y-89361715D02*
X144187589Y-89361715D01*
X144801489Y-88620715D02*
X144822589Y-88620715D01*
X143869989Y-89488715D02*
X143891189Y-89488715D01*
X143361889Y-89954715D02*
X143361889Y-89911715D01*
X143277189Y-90038715D02*
X143298389Y-90038715D01*
X144039389Y-89573715D02*
X144039389Y-89657715D01*
X144081689Y-89488715D02*
X144060489Y-89488715D01*
X143467789Y-89827715D02*
X143488889Y-89827715D01*
X144060489Y-89319715D02*
X144060489Y-89297715D01*
X144674489Y-89975715D02*
X144632089Y-89975715D01*
X144018189Y-89361715D02*
X144018189Y-89340715D01*
X143658289Y-89678715D02*
X143679489Y-89678715D01*
X143933489Y-89446715D02*
X143933489Y-89424715D01*
X144039389Y-89700715D02*
X144039389Y-89657715D01*
X143658289Y-89700715D02*
X143658289Y-89678715D01*
X144102889Y-89403715D02*
X144081689Y-89403715D01*
X144314589Y-89107715D02*
X144314589Y-89065715D01*
X144568589Y-90038715D02*
X144526289Y-90038715D01*
X143594789Y-89721715D02*
X143615989Y-89721715D01*
X144356889Y-90123715D02*
X144356889Y-90144715D01*
X143742989Y-89594715D02*
X143764189Y-89594715D01*
X144102889Y-89276715D02*
X144123989Y-89276715D01*
X143764189Y-89573715D02*
X143785289Y-89573715D01*
X143213689Y-90081715D02*
X143213689Y-90144715D01*
X143933489Y-89424715D02*
X143954689Y-89424715D01*
X144039389Y-89657715D02*
X144060489Y-89657715D01*
X144314589Y-89065715D02*
X144335689Y-89065715D01*
X143700589Y-89657715D02*
X143700589Y-89636715D01*
X143615989Y-89700715D02*
X143658289Y-89700715D01*
X143848789Y-90377715D02*
X143848789Y-90398715D01*
X137984689Y-91605715D02*
X138005889Y-91605715D01*
X138386989Y-91859715D02*
X138386989Y-91880715D01*
X138196389Y-91414715D02*
X138259989Y-91414715D01*
X143150189Y-90081715D02*
X143171389Y-90081715D01*
X138365789Y-91880715D02*
X138365789Y-91901715D01*
X140715689Y-91372715D02*
X140715689Y-91351715D01*
X141033189Y-91309715D02*
X141033189Y-91287715D01*
X138005889Y-91541715D02*
X138027089Y-91541715D01*
X138344589Y-91436715D02*
X138344589Y-91457715D01*
X138005889Y-91605715D02*
X138005889Y-91541715D01*
X138027089Y-91838715D02*
X138027089Y-91795715D01*
X138196389Y-91436715D02*
X138196389Y-91414715D01*
X142769189Y-90377715D02*
X142769189Y-90356715D01*
X142874989Y-90462715D02*
X142874989Y-90419715D01*
X139233789Y-91541715D02*
X139233789Y-91520715D01*
X140165189Y-91436715D02*
X140313389Y-91436715D01*
X138027089Y-91795715D02*
X138005889Y-91795715D01*
X138154089Y-91922715D02*
X138154089Y-91901715D01*
X138111789Y-91880715D02*
X138069389Y-91880715D01*
X138259989Y-91436715D02*
X138344589Y-91436715D01*
X138767989Y-91817715D02*
X138429289Y-91817715D01*
X138302289Y-91901715D02*
X138302289Y-91922715D01*
X138048189Y-91859715D02*
X138048189Y-91838715D01*
X138429289Y-91817715D02*
X138429289Y-91838715D01*
X143086689Y-90144715D02*
X143086689Y-90123715D01*
X138132889Y-91457715D02*
X138132889Y-91436715D01*
X138408089Y-91838715D02*
X138408089Y-91859715D01*
X138069389Y-91478715D02*
X138090589Y-91478715D01*
X139784189Y-91478715D02*
X139995889Y-91478715D01*
X142091689Y-90822715D02*
X142091689Y-90800715D01*
X142091689Y-90800715D02*
X142134089Y-90800715D01*
X141477789Y-91139715D02*
X141520089Y-91139715D01*
X138365789Y-91901715D02*
X138302289Y-91901715D01*
X141244889Y-91266715D02*
X141244889Y-91245715D01*
X138450489Y-91520715D02*
X138450489Y-91541715D01*
X141985889Y-90864715D02*
X142028189Y-90864715D01*
X138386989Y-91478715D02*
X138408089Y-91478715D01*
X141901189Y-90906715D02*
X141943489Y-90906715D01*
X141435489Y-91160715D02*
X141477789Y-91160715D01*
X141371889Y-91203715D02*
X141371889Y-91182715D01*
X142049389Y-90843715D02*
X142049389Y-90822715D01*
X138090589Y-91457715D02*
X138132889Y-91457715D01*
X138386989Y-91880715D02*
X138365789Y-91880715D01*
X141139089Y-91266715D02*
X141244889Y-91266715D01*
X142155189Y-90758715D02*
X142197589Y-90758715D01*
X140821489Y-91330715D02*
X140927389Y-91330715D01*
X138005889Y-91753715D02*
X137984689Y-91753715D01*
X139233789Y-91520715D02*
X139551289Y-91520715D01*
X142134089Y-90779715D02*
X142155189Y-90779715D01*
X141625989Y-91076715D02*
X141625989Y-91054715D01*
X139551289Y-91520715D02*
X139551289Y-91499715D01*
X142197589Y-90758715D02*
X142197589Y-90737715D01*
X138154089Y-91901715D02*
X138111789Y-91901715D01*
X138344589Y-91457715D02*
X138386989Y-91457715D01*
X141139089Y-91287715D02*
X141139089Y-91266715D01*
X141625989Y-91054715D02*
X141668289Y-91054715D01*
X138386989Y-91457715D02*
X138386989Y-91478715D01*
X138450489Y-91541715D02*
X138789189Y-91541715D01*
X141710689Y-91012715D02*
X141752989Y-91012715D01*
X138069389Y-91880715D02*
X138069389Y-91859715D01*
X138429289Y-91520715D02*
X138450489Y-91520715D01*
X140927389Y-91330715D02*
X140927389Y-91309715D01*
X141371889Y-91182715D02*
X141435489Y-91182715D01*
X140165189Y-91457715D02*
X140165189Y-91436715D01*
X140821489Y-91351715D02*
X140821489Y-91330715D01*
X138005889Y-91795715D02*
X138005889Y-91753715D01*
X138069389Y-91859715D02*
X138048189Y-91859715D01*
X141752989Y-91012715D02*
X141752989Y-90991715D01*
X138302289Y-91922715D02*
X138154089Y-91922715D01*
X139995889Y-91478715D02*
X139995889Y-91457715D01*
X142261089Y-90695715D02*
X142303389Y-90695715D01*
X138408089Y-91478715D02*
X138408089Y-91499715D01*
X139995889Y-91457715D02*
X140165189Y-91457715D01*
X140715689Y-91351715D02*
X140821489Y-91351715D01*
X138429289Y-91499715D02*
X138429289Y-91520715D01*
X141287289Y-91224715D02*
X141329589Y-91224715D01*
X138408089Y-91499715D02*
X138429289Y-91499715D01*
X140927389Y-91309715D02*
X141033189Y-91309715D01*
X138048189Y-91838715D02*
X138027089Y-91838715D01*
X138408089Y-91859715D02*
X138386989Y-91859715D01*
X141710689Y-91033715D02*
X141710689Y-91012715D01*
X142028189Y-90843715D02*
X142049389Y-90843715D01*
X141477789Y-91160715D02*
X141477789Y-91139715D01*
X140433048Y-91394785D02*
X140313389Y-91414715D01*
D11*
G36*
X137300000Y-95719000D02*
X137681000Y-95719000D01*
X137681000Y-96100000D01*
X137300000Y-96100000D01*
X137300000Y-95719000D01*
G37*
X137300000Y-95719000D02*
X137681000Y-95719000D01*
X137681000Y-96100000D01*
X137300000Y-96100000D01*
X137300000Y-95719000D01*
D12*
X139892000Y-96122000D02*
X137992000Y-96122000D01*
X138492000Y-98442000D02*
X139892000Y-98442000D01*
X111112500Y-98250000D02*
X111112500Y-97750000D01*
X111112500Y-98250000D02*
X111112500Y-98250000D01*
X111112500Y-97750000D02*
X111112500Y-98250000D01*
X111112500Y-97750000D02*
X111112500Y-97750000D01*
X111812500Y-98250000D02*
X111812500Y-97750000D01*
X111812500Y-98250000D02*
X111812500Y-98250000D01*
X111812500Y-97750000D02*
X111812500Y-98250000D01*
X111812500Y-97750000D02*
X111812500Y-97750000D01*
X112312500Y-97750000D02*
X112312500Y-97750000D01*
X111112500Y-97750000D02*
X112312500Y-97750000D01*
X111112500Y-97750000D02*
X111112500Y-97750000D01*
X112312500Y-97750000D02*
X111112500Y-97750000D01*
X112312500Y-98250000D02*
X112312500Y-97350000D01*
X109962500Y-98250000D02*
X112312500Y-98250000D01*
X111112500Y-92250000D02*
X111112500Y-92750000D01*
X111112500Y-92250000D02*
X111112500Y-92250000D01*
X111112500Y-92750000D02*
X111112500Y-92250000D01*
X111112500Y-92750000D02*
X111112500Y-92750000D01*
X111812500Y-92250000D02*
X111812500Y-92750000D01*
X111812500Y-92250000D02*
X111812500Y-92250000D01*
X111812500Y-92750000D02*
X111812500Y-92250000D01*
X111812500Y-92750000D02*
X111812500Y-92750000D01*
X112312500Y-92750000D02*
X112312500Y-92750000D01*
X111112500Y-92750000D02*
X112312500Y-92750000D01*
X111112500Y-92750000D02*
X111112500Y-92750000D01*
X112312500Y-92750000D02*
X111112500Y-92750000D01*
X112312500Y-92250000D02*
X112312500Y-93150000D01*
X109962500Y-92250000D02*
X112312500Y-92250000D01*
X108062500Y-93350000D02*
X108062500Y-97150000D01*
X113137500Y-92750000D02*
G75*
G03X113137500Y-92750000I-250000J0D01*
G01*
X154587500Y-92250000D02*
X154587500Y-92750000D01*
X154587500Y-92250000D02*
X154587500Y-92250000D01*
X154587500Y-92750000D02*
X154587500Y-92250000D01*
X154587500Y-92750000D02*
X154587500Y-92750000D01*
X153887500Y-92250000D02*
X153887500Y-92750000D01*
X153887500Y-92250000D02*
X153887500Y-92250000D01*
X153887500Y-92750000D02*
X153887500Y-92250000D01*
X153887500Y-92750000D02*
X153887500Y-92750000D01*
X153387500Y-92750000D02*
X153387500Y-92750000D01*
X154587500Y-92750000D02*
X153387500Y-92750000D01*
X154587500Y-92750000D02*
X154587500Y-92750000D01*
X153387500Y-92750000D02*
X154587500Y-92750000D01*
X153387500Y-92250000D02*
X153387500Y-93150000D01*
X155737500Y-92250000D02*
X153387500Y-92250000D01*
X154587500Y-98250000D02*
X154587500Y-97750000D01*
X154587500Y-98250000D02*
X154587500Y-98250000D01*
X154587500Y-97750000D02*
X154587500Y-98250000D01*
X154587500Y-97750000D02*
X154587500Y-97750000D01*
X153887500Y-98250000D02*
X153887500Y-97750000D01*
X153887500Y-98250000D02*
X153887500Y-98250000D01*
X153887500Y-97750000D02*
X153887500Y-98250000D01*
X153887500Y-97750000D02*
X153887500Y-97750000D01*
X153387500Y-97750000D02*
X153387500Y-97750000D01*
X154587500Y-97750000D02*
X153387500Y-97750000D01*
X154587500Y-97750000D02*
X154587500Y-97750000D01*
X153387500Y-97750000D02*
X154587500Y-97750000D01*
X153387500Y-98250000D02*
X153387500Y-97350000D01*
X155737500Y-98250000D02*
X153387500Y-98250000D01*
X157637500Y-97150000D02*
X157637500Y-93350000D01*
X153062500Y-97750000D02*
G75*
G03X153062500Y-97750000I-250000J0D01*
G01*
X130730683Y-101158746D02*
X130730683Y-100158746D01*
X129030683Y-100158746D02*
X129030683Y-101158746D01*
D10*
X156895001Y-86156001D02*
G75*
G03X156895001Y-86156001I-1270000J0D01*
G01*
X156895001Y-103936001D02*
G75*
G03X156895001Y-103936001I-1270000J0D01*
G01*
X111810001Y-103936001D02*
G75*
G03X111810001Y-103936001I-1905000J0D01*
G01*
X111810001Y-86156001D02*
G75*
G03X111810001Y-86156001I-1905000J0D01*
G01*
D12*
X132089000Y-101458746D02*
X132089000Y-100258746D01*
X133849000Y-100258746D02*
X133849000Y-101458746D01*
X143502000Y-95602000D02*
X142502000Y-95602000D01*
X143502000Y-98962000D02*
X142502000Y-98962000D01*
X114475000Y-91475000D02*
X114475000Y-90200000D01*
X114475000Y-90200000D02*
X116075000Y-90200000D01*
X116075000Y-90200000D02*
X116075000Y-89200000D01*
X116075000Y-89200000D02*
X111850000Y-89200000D01*
X111850000Y-101300000D02*
X116075000Y-101300000D01*
X116075000Y-101300000D02*
X116075000Y-100300000D01*
X116075000Y-100300000D02*
X114475000Y-100300000D01*
X114475000Y-100300000D02*
X114475000Y-99025000D01*
X108275000Y-90925000D02*
X108275000Y-99575000D01*
X114475000Y-91475000D02*
X117375000Y-91475000D01*
X151225000Y-99025000D02*
X148325000Y-99025000D01*
X157425000Y-99575000D02*
X157425000Y-90925000D01*
X151225000Y-90200000D02*
X151225000Y-91475000D01*
X149625000Y-90200000D02*
X151225000Y-90200000D01*
X149625000Y-89200000D02*
X149625000Y-90200000D01*
X153850000Y-89200000D02*
X149625000Y-89200000D01*
X149625000Y-101300000D02*
X153850000Y-101300000D01*
X149625000Y-100300000D02*
X149625000Y-101300000D01*
X151225000Y-100300000D02*
X149625000Y-100300000D01*
X151225000Y-99025000D02*
X151225000Y-100300000D01*
X121100000Y-102000000D02*
X121100000Y-98150000D01*
X123100000Y-102000000D02*
X123100000Y-98150000D01*
X121100000Y-102000000D02*
X123100000Y-102000000D01*
X124700000Y-102000000D02*
X126700000Y-102000000D01*
X126700000Y-102000000D02*
X126700000Y-98150000D01*
X124700000Y-102000000D02*
X124700000Y-98150000D01*
D10*
X120750000Y-85500000D02*
X120750000Y-84250000D01*
X117300000Y-84250000D02*
X121200000Y-84250000D01*
X120750000Y-86750000D02*
X120750000Y-85500000D01*
X117300000Y-86750000D02*
X120750000Y-86750000D01*
X113850000Y-85500000D02*
X113850000Y-84250000D01*
X113400000Y-84250000D02*
X117300000Y-84250000D01*
X113850000Y-86750000D02*
X117300000Y-86750000D01*
X113850000Y-86750000D02*
X113850000Y-85500000D01*
D13*
X117300000Y-83500000D02*
X118800000Y-83500000D01*
X115800000Y-83500000D02*
X117300000Y-83500000D01*
X118800000Y-84250000D02*
X118800000Y-83500000D01*
X115800000Y-84250000D02*
X115800000Y-83500000D01*
D10*
X121200000Y-84250000D02*
X121200000Y-84900000D01*
X113400000Y-84250000D02*
X113400000Y-84900000D01*
D13*
X117300000Y-85750000D02*
X117300000Y-85500000D01*
X117550000Y-85500000D02*
X117300000Y-85500000D01*
X119700000Y-84250000D02*
X119700000Y-83850000D01*
X119700000Y-83850000D02*
X120100000Y-83850000D01*
X120100000Y-84250000D02*
X120100000Y-83850000D01*
X114900000Y-84250000D02*
X114900000Y-83850000D01*
X114500000Y-83850000D02*
X114900000Y-83850000D01*
X114500000Y-84250000D02*
X114500000Y-83850000D01*
X117500000Y-84250000D02*
X117000000Y-83500000D01*
X116950000Y-84250000D02*
X116450000Y-83500000D01*
X116450000Y-84250000D02*
X115950000Y-83500000D01*
X117950000Y-84250000D02*
X117450000Y-83500000D01*
X118450000Y-84250000D02*
X117950000Y-83500000D01*
X118800000Y-84000000D02*
X118450000Y-83500000D01*
X116000000Y-84250000D02*
X115800000Y-83950000D01*
X117300000Y-85500000D02*
X117050000Y-85500000D01*
X117300000Y-85500000D02*
X117300000Y-85250000D01*
D10*
X137919047Y-94726190D02*
X137919047Y-95130952D01*
X137942857Y-95178571D01*
X137966666Y-95202380D01*
X138014285Y-95226190D01*
X138109523Y-95226190D01*
X138157142Y-95202380D01*
X138180952Y-95178571D01*
X138204761Y-95130952D01*
X138204761Y-94726190D01*
X138704761Y-95226190D02*
X138419047Y-95226190D01*
X138561904Y-95226190D02*
X138561904Y-94726190D01*
X138514285Y-94797619D01*
X138466666Y-94845238D01*
X138419047Y-94869047D01*
X138145238Y-95664285D02*
X138216666Y-95688095D01*
X138240476Y-95711904D01*
X138264285Y-95759523D01*
X138264285Y-95830952D01*
X138240476Y-95878571D01*
X138216666Y-95902380D01*
X138169047Y-95926190D01*
X137978571Y-95926190D01*
X137978571Y-95426190D01*
X138145238Y-95426190D01*
X138192857Y-95450000D01*
X138216666Y-95473809D01*
X138240476Y-95521428D01*
X138240476Y-95569047D01*
X138216666Y-95616666D01*
X138192857Y-95640476D01*
X138145238Y-95664285D01*
X137978571Y-95664285D01*
X138454761Y-95902380D02*
X138526190Y-95926190D01*
X138645238Y-95926190D01*
X138692857Y-95902380D01*
X138716666Y-95878571D01*
X138740476Y-95830952D01*
X138740476Y-95783333D01*
X138716666Y-95735714D01*
X138692857Y-95711904D01*
X138645238Y-95688095D01*
X138550000Y-95664285D01*
X138502380Y-95640476D01*
X138478571Y-95616666D01*
X138454761Y-95569047D01*
X138454761Y-95521428D01*
X138478571Y-95473809D01*
X138502380Y-95450000D01*
X138550000Y-95426190D01*
X138669047Y-95426190D01*
X138740476Y-95450000D01*
X138930952Y-95902380D02*
X139002380Y-95926190D01*
X139121428Y-95926190D01*
X139169047Y-95902380D01*
X139192857Y-95878571D01*
X139216666Y-95830952D01*
X139216666Y-95783333D01*
X139192857Y-95735714D01*
X139169047Y-95711904D01*
X139121428Y-95688095D01*
X139026190Y-95664285D01*
X138978571Y-95640476D01*
X138954761Y-95616666D01*
X138930952Y-95569047D01*
X138930952Y-95521428D01*
X138954761Y-95473809D01*
X138978571Y-95450000D01*
X139026190Y-95426190D01*
X139145238Y-95426190D01*
X139216666Y-95450000D01*
X139692857Y-95926190D02*
X139407142Y-95926190D01*
X139550000Y-95926190D02*
X139550000Y-95426190D01*
X139502380Y-95497619D01*
X139454761Y-95545238D01*
X139407142Y-95569047D01*
X139859523Y-95426190D02*
X140169047Y-95426190D01*
X140002380Y-95616666D01*
X140073809Y-95616666D01*
X140121428Y-95640476D01*
X140145238Y-95664285D01*
X140169047Y-95711904D01*
X140169047Y-95830952D01*
X140145238Y-95878571D01*
X140121428Y-95902380D01*
X140073809Y-95926190D01*
X139930952Y-95926190D01*
X139883333Y-95902380D01*
X139859523Y-95878571D01*
X140454761Y-95640476D02*
X140407142Y-95616666D01*
X140383333Y-95592857D01*
X140359523Y-95545238D01*
X140359523Y-95521428D01*
X140383333Y-95473809D01*
X140407142Y-95450000D01*
X140454761Y-95426190D01*
X140550000Y-95426190D01*
X140597619Y-95450000D01*
X140621428Y-95473809D01*
X140645238Y-95521428D01*
X140645238Y-95545238D01*
X140621428Y-95592857D01*
X140597619Y-95616666D01*
X140550000Y-95640476D01*
X140454761Y-95640476D01*
X140407142Y-95664285D01*
X140383333Y-95688095D01*
X140359523Y-95735714D01*
X140359523Y-95830952D01*
X140383333Y-95878571D01*
X140407142Y-95902380D01*
X140454761Y-95926190D01*
X140550000Y-95926190D01*
X140597619Y-95902380D01*
X140621428Y-95878571D01*
X140645238Y-95830952D01*
X140645238Y-95735714D01*
X140621428Y-95688095D01*
X140597619Y-95664285D01*
X140550000Y-95640476D01*
X112783333Y-91826190D02*
X112783333Y-92183333D01*
X112759523Y-92254761D01*
X112711904Y-92302380D01*
X112640476Y-92326190D01*
X112592857Y-92326190D01*
X112973809Y-91826190D02*
X113283333Y-91826190D01*
X113116666Y-92016666D01*
X113188095Y-92016666D01*
X113235714Y-92040476D01*
X113259523Y-92064285D01*
X113283333Y-92111904D01*
X113283333Y-92230952D01*
X113259523Y-92278571D01*
X113235714Y-92302380D01*
X113188095Y-92326190D01*
X113045238Y-92326190D01*
X112997619Y-92302380D01*
X112973809Y-92278571D01*
X109192857Y-91452380D02*
X109264285Y-91476190D01*
X109383333Y-91476190D01*
X109430952Y-91452380D01*
X109454761Y-91428571D01*
X109478571Y-91380952D01*
X109478571Y-91333333D01*
X109454761Y-91285714D01*
X109430952Y-91261904D01*
X109383333Y-91238095D01*
X109288095Y-91214285D01*
X109240476Y-91190476D01*
X109216666Y-91166666D01*
X109192857Y-91119047D01*
X109192857Y-91071428D01*
X109216666Y-91023809D01*
X109240476Y-91000000D01*
X109288095Y-90976190D01*
X109407142Y-90976190D01*
X109478571Y-91000000D01*
X109621428Y-90976190D02*
X109907142Y-90976190D01*
X109764285Y-91476190D02*
X109764285Y-90976190D01*
X110073809Y-91214285D02*
X110240476Y-91214285D01*
X110311904Y-91476190D02*
X110073809Y-91476190D01*
X110073809Y-90976190D01*
X110311904Y-90976190D01*
X110526190Y-91476190D02*
X110526190Y-90976190D01*
X110692857Y-91333333D01*
X110859523Y-90976190D01*
X110859523Y-91476190D01*
X111097619Y-91476190D02*
X111097619Y-90976190D01*
X111264285Y-91333333D01*
X111430952Y-90976190D01*
X111430952Y-91476190D01*
X111645238Y-91333333D02*
X111883333Y-91333333D01*
X111597619Y-91476190D02*
X111764285Y-90976190D01*
X111930952Y-91476190D01*
X112097619Y-91285714D02*
X112478571Y-91285714D01*
X113050000Y-91523809D02*
X113002380Y-91500000D01*
X112954761Y-91452380D01*
X112883333Y-91380952D01*
X112835714Y-91357142D01*
X112788095Y-91357142D01*
X112811904Y-91476190D02*
X112764285Y-91452380D01*
X112716666Y-91404761D01*
X112692857Y-91309523D01*
X112692857Y-91142857D01*
X112716666Y-91047619D01*
X112764285Y-91000000D01*
X112811904Y-90976190D01*
X112907142Y-90976190D01*
X112954761Y-91000000D01*
X113002380Y-91047619D01*
X113026190Y-91142857D01*
X113026190Y-91309523D01*
X113002380Y-91404761D01*
X112954761Y-91452380D01*
X112907142Y-91476190D01*
X112811904Y-91476190D01*
X113169047Y-90976190D02*
X113454761Y-90976190D01*
X113311904Y-91476190D02*
X113311904Y-90976190D01*
X152633333Y-91776190D02*
X152633333Y-92133333D01*
X152609523Y-92204761D01*
X152561904Y-92252380D01*
X152490476Y-92276190D01*
X152442857Y-92276190D01*
X153085714Y-91942857D02*
X153085714Y-92276190D01*
X152966666Y-91752380D02*
X152847619Y-92109523D01*
X153157142Y-92109523D01*
X152442857Y-91502380D02*
X152514285Y-91526190D01*
X152633333Y-91526190D01*
X152680952Y-91502380D01*
X152704761Y-91478571D01*
X152728571Y-91430952D01*
X152728571Y-91383333D01*
X152704761Y-91335714D01*
X152680952Y-91311904D01*
X152633333Y-91288095D01*
X152538095Y-91264285D01*
X152490476Y-91240476D01*
X152466666Y-91216666D01*
X152442857Y-91169047D01*
X152442857Y-91121428D01*
X152466666Y-91073809D01*
X152490476Y-91050000D01*
X152538095Y-91026190D01*
X152657142Y-91026190D01*
X152728571Y-91050000D01*
X152871428Y-91026190D02*
X153157142Y-91026190D01*
X153014285Y-91526190D02*
X153014285Y-91026190D01*
X153323809Y-91264285D02*
X153490476Y-91264285D01*
X153561904Y-91526190D02*
X153323809Y-91526190D01*
X153323809Y-91026190D01*
X153561904Y-91026190D01*
X153776190Y-91526190D02*
X153776190Y-91026190D01*
X153942857Y-91383333D01*
X154109523Y-91026190D01*
X154109523Y-91526190D01*
X154347619Y-91526190D02*
X154347619Y-91026190D01*
X154514285Y-91383333D01*
X154680952Y-91026190D01*
X154680952Y-91526190D01*
X154895238Y-91383333D02*
X155133333Y-91383333D01*
X154847619Y-91526190D02*
X155014285Y-91026190D01*
X155180952Y-91526190D01*
X155347619Y-91335714D02*
X155728571Y-91335714D01*
X156300000Y-91573809D02*
X156252380Y-91550000D01*
X156204761Y-91502380D01*
X156133333Y-91430952D01*
X156085714Y-91407142D01*
X156038095Y-91407142D01*
X156061904Y-91526190D02*
X156014285Y-91502380D01*
X155966666Y-91454761D01*
X155942857Y-91359523D01*
X155942857Y-91192857D01*
X155966666Y-91097619D01*
X156014285Y-91050000D01*
X156061904Y-91026190D01*
X156157142Y-91026190D01*
X156204761Y-91050000D01*
X156252380Y-91097619D01*
X156276190Y-91192857D01*
X156276190Y-91359523D01*
X156252380Y-91454761D01*
X156204761Y-91502380D01*
X156157142Y-91526190D01*
X156061904Y-91526190D01*
X156419047Y-91026190D02*
X156704761Y-91026190D01*
X156561904Y-91526190D02*
X156561904Y-91026190D01*
X129202666Y-97841571D02*
X129178857Y-97865380D01*
X129107428Y-97889190D01*
X129059809Y-97889190D01*
X128988380Y-97865380D01*
X128940761Y-97817761D01*
X128916952Y-97770142D01*
X128893142Y-97674904D01*
X128893142Y-97603476D01*
X128916952Y-97508238D01*
X128940761Y-97460619D01*
X128988380Y-97413000D01*
X129059809Y-97389190D01*
X129107428Y-97389190D01*
X129178857Y-97413000D01*
X129202666Y-97436809D01*
X129678857Y-97889190D02*
X129393142Y-97889190D01*
X129536000Y-97889190D02*
X129536000Y-97389190D01*
X129488380Y-97460619D01*
X129440761Y-97508238D01*
X129393142Y-97532047D01*
X129258285Y-98651190D02*
X128972571Y-98651190D01*
X129115428Y-98651190D02*
X129115428Y-98151190D01*
X129067809Y-98222619D01*
X129020190Y-98270238D01*
X128972571Y-98294047D01*
X129567809Y-98151190D02*
X129615428Y-98151190D01*
X129663047Y-98175000D01*
X129686857Y-98198809D01*
X129710666Y-98246428D01*
X129734476Y-98341666D01*
X129734476Y-98460714D01*
X129710666Y-98555952D01*
X129686857Y-98603571D01*
X129663047Y-98627380D01*
X129615428Y-98651190D01*
X129567809Y-98651190D01*
X129520190Y-98627380D01*
X129496380Y-98603571D01*
X129472571Y-98555952D01*
X129448761Y-98460714D01*
X129448761Y-98341666D01*
X129472571Y-98246428D01*
X129496380Y-98198809D01*
X129520190Y-98175000D01*
X129567809Y-98151190D01*
X130163047Y-98317857D02*
X130163047Y-98651190D01*
X129948761Y-98317857D02*
X129948761Y-98579761D01*
X129972571Y-98627380D01*
X130020190Y-98651190D01*
X130091619Y-98651190D01*
X130139238Y-98627380D01*
X130163047Y-98603571D01*
X130567809Y-98389285D02*
X130401142Y-98389285D01*
X130401142Y-98651190D02*
X130401142Y-98151190D01*
X130639238Y-98151190D01*
X113128929Y-103192001D02*
X113536429Y-103192001D01*
X113441191Y-103908191D02*
X113274524Y-103670096D01*
X113155477Y-103908191D02*
X113155477Y-103408191D01*
X113345953Y-103408191D01*
X113393572Y-103432001D01*
X113417381Y-103455810D01*
X113441191Y-103503429D01*
X113441191Y-103574858D01*
X113417381Y-103622477D01*
X113393572Y-103646286D01*
X113345953Y-103670096D01*
X113155477Y-103670096D01*
X113536429Y-103192001D02*
X114012620Y-103192001D01*
X113631667Y-103884381D02*
X113703096Y-103908191D01*
X113822143Y-103908191D01*
X113869762Y-103884381D01*
X113893572Y-103860572D01*
X113917381Y-103812953D01*
X113917381Y-103765334D01*
X113893572Y-103717715D01*
X113869762Y-103693905D01*
X113822143Y-103670096D01*
X113726905Y-103646286D01*
X113679286Y-103622477D01*
X113655477Y-103598667D01*
X113631667Y-103551048D01*
X113631667Y-103503429D01*
X113655477Y-103455810D01*
X113679286Y-103432001D01*
X113726905Y-103408191D01*
X113845953Y-103408191D01*
X113917381Y-103432001D01*
X114012620Y-103192001D02*
X114393572Y-103192001D01*
X114060239Y-103408191D02*
X114345953Y-103408191D01*
X114203096Y-103908191D02*
X114203096Y-103408191D01*
X115874048Y-103408191D02*
X116183572Y-103408191D01*
X116016905Y-103598667D01*
X116088334Y-103598667D01*
X116135953Y-103622477D01*
X116159762Y-103646286D01*
X116183572Y-103693905D01*
X116183572Y-103812953D01*
X116159762Y-103860572D01*
X116135953Y-103884381D01*
X116088334Y-103908191D01*
X115945477Y-103908191D01*
X115897858Y-103884381D01*
X115874048Y-103860572D01*
X116326429Y-103408191D02*
X116493096Y-103908191D01*
X116659762Y-103408191D01*
X120954048Y-103432001D02*
X120906429Y-103408191D01*
X120835001Y-103408191D01*
X120763572Y-103432001D01*
X120715953Y-103479620D01*
X120692143Y-103527239D01*
X120668334Y-103622477D01*
X120668334Y-103693905D01*
X120692143Y-103789143D01*
X120715953Y-103836762D01*
X120763572Y-103884381D01*
X120835001Y-103908191D01*
X120882620Y-103908191D01*
X120954048Y-103884381D01*
X120977858Y-103860572D01*
X120977858Y-103693905D01*
X120882620Y-103693905D01*
X121192143Y-103908191D02*
X121192143Y-103408191D01*
X121477858Y-103908191D01*
X121477858Y-103408191D01*
X121715953Y-103908191D02*
X121715953Y-103408191D01*
X121835001Y-103408191D01*
X121906429Y-103432001D01*
X121954048Y-103479620D01*
X121977858Y-103527239D01*
X122001667Y-103622477D01*
X122001667Y-103693905D01*
X121977858Y-103789143D01*
X121954048Y-103836762D01*
X121906429Y-103884381D01*
X121835001Y-103908191D01*
X121715953Y-103908191D01*
X146651667Y-103908191D02*
X146485001Y-103670096D01*
X146365953Y-103908191D02*
X146365953Y-103408191D01*
X146556429Y-103408191D01*
X146604048Y-103432001D01*
X146627858Y-103455810D01*
X146651667Y-103503429D01*
X146651667Y-103574858D01*
X146627858Y-103622477D01*
X146604048Y-103646286D01*
X146556429Y-103670096D01*
X146365953Y-103670096D01*
X146818334Y-103408191D02*
X147151667Y-103908191D01*
X147151667Y-103408191D02*
X146818334Y-103908191D01*
X128324048Y-86136191D02*
X128324048Y-86540953D01*
X128347858Y-86588572D01*
X128371667Y-86612381D01*
X128419286Y-86636191D01*
X128514524Y-86636191D01*
X128562143Y-86612381D01*
X128585953Y-86588572D01*
X128609762Y-86540953D01*
X128609762Y-86136191D01*
X128824048Y-86612381D02*
X128895477Y-86636191D01*
X129014524Y-86636191D01*
X129062143Y-86612381D01*
X129085953Y-86588572D01*
X129109762Y-86540953D01*
X129109762Y-86493334D01*
X129085953Y-86445715D01*
X129062143Y-86421905D01*
X129014524Y-86398096D01*
X128919286Y-86374286D01*
X128871667Y-86350477D01*
X128847858Y-86326667D01*
X128824048Y-86279048D01*
X128824048Y-86231429D01*
X128847858Y-86183810D01*
X128871667Y-86160001D01*
X128919286Y-86136191D01*
X129038334Y-86136191D01*
X129109762Y-86160001D01*
X129490715Y-86374286D02*
X129562143Y-86398096D01*
X129585953Y-86421905D01*
X129609762Y-86469524D01*
X129609762Y-86540953D01*
X129585953Y-86588572D01*
X129562143Y-86612381D01*
X129514524Y-86636191D01*
X129324048Y-86636191D01*
X129324048Y-86136191D01*
X129490715Y-86136191D01*
X129538334Y-86160001D01*
X129562143Y-86183810D01*
X129585953Y-86231429D01*
X129585953Y-86279048D01*
X129562143Y-86326667D01*
X129538334Y-86350477D01*
X129490715Y-86374286D01*
X129324048Y-86374286D01*
X123505953Y-86374286D02*
X123577381Y-86398096D01*
X123601191Y-86421905D01*
X123625001Y-86469524D01*
X123625001Y-86540953D01*
X123601191Y-86588572D01*
X123577381Y-86612381D01*
X123529762Y-86636191D01*
X123339286Y-86636191D01*
X123339286Y-86136191D01*
X123505953Y-86136191D01*
X123553572Y-86160001D01*
X123577381Y-86183810D01*
X123601191Y-86231429D01*
X123601191Y-86279048D01*
X123577381Y-86326667D01*
X123553572Y-86350477D01*
X123505953Y-86374286D01*
X123339286Y-86374286D01*
X123815477Y-86493334D02*
X124053572Y-86493334D01*
X123767858Y-86636191D02*
X123934524Y-86136191D01*
X124101191Y-86636191D01*
X124196429Y-86136191D02*
X124482143Y-86136191D01*
X124339286Y-86636191D02*
X124339286Y-86136191D01*
X151207858Y-86612381D02*
X151279286Y-86636191D01*
X151398334Y-86636191D01*
X151445953Y-86612381D01*
X151469762Y-86588572D01*
X151493572Y-86540953D01*
X151493572Y-86493334D01*
X151469762Y-86445715D01*
X151445953Y-86421905D01*
X151398334Y-86398096D01*
X151303096Y-86374286D01*
X151255477Y-86350477D01*
X151231667Y-86326667D01*
X151207858Y-86279048D01*
X151207858Y-86231429D01*
X151231667Y-86183810D01*
X151255477Y-86160001D01*
X151303096Y-86136191D01*
X151422143Y-86136191D01*
X151493572Y-86160001D01*
X151707858Y-86636191D02*
X151707858Y-86136191D01*
X151826905Y-86136191D01*
X151898334Y-86160001D01*
X151945953Y-86207620D01*
X151969762Y-86255239D01*
X151993572Y-86350477D01*
X151993572Y-86421905D01*
X151969762Y-86517143D01*
X151945953Y-86564762D01*
X151898334Y-86612381D01*
X151826905Y-86636191D01*
X151707858Y-86636191D01*
X152184048Y-86493334D02*
X152422143Y-86493334D01*
X152136429Y-86636191D02*
X152303096Y-86136191D01*
X152469762Y-86636191D01*
X148679762Y-86612381D02*
X148751191Y-86636191D01*
X148870239Y-86636191D01*
X148917858Y-86612381D01*
X148941667Y-86588572D01*
X148965477Y-86540953D01*
X148965477Y-86493334D01*
X148941667Y-86445715D01*
X148917858Y-86421905D01*
X148870239Y-86398096D01*
X148775001Y-86374286D01*
X148727381Y-86350477D01*
X148703572Y-86326667D01*
X148679762Y-86279048D01*
X148679762Y-86231429D01*
X148703572Y-86183810D01*
X148727381Y-86160001D01*
X148775001Y-86136191D01*
X148894048Y-86136191D01*
X148965477Y-86160001D01*
X149465477Y-86588572D02*
X149441667Y-86612381D01*
X149370239Y-86636191D01*
X149322620Y-86636191D01*
X149251191Y-86612381D01*
X149203572Y-86564762D01*
X149179762Y-86517143D01*
X149155953Y-86421905D01*
X149155953Y-86350477D01*
X149179762Y-86255239D01*
X149203572Y-86207620D01*
X149251191Y-86160001D01*
X149322620Y-86136191D01*
X149370239Y-86136191D01*
X149441667Y-86160001D01*
X149465477Y-86183810D01*
X149917858Y-86636191D02*
X149679762Y-86636191D01*
X149679762Y-86136191D01*
X148894048Y-103408191D02*
X149179762Y-103408191D01*
X149036905Y-103908191D02*
X149036905Y-103408191D01*
X149298810Y-103408191D02*
X149632143Y-103908191D01*
X149632143Y-103408191D02*
X149298810Y-103908191D01*
X134536666Y-100302190D02*
X134370000Y-100064095D01*
X134250952Y-100302190D02*
X134250952Y-99802190D01*
X134441428Y-99802190D01*
X134489047Y-99826000D01*
X134512857Y-99849809D01*
X134536666Y-99897428D01*
X134536666Y-99968857D01*
X134512857Y-100016476D01*
X134489047Y-100040285D01*
X134441428Y-100064095D01*
X134250952Y-100064095D01*
X135012857Y-100302190D02*
X134727142Y-100302190D01*
X134870000Y-100302190D02*
X134870000Y-99802190D01*
X134822380Y-99873619D01*
X134774761Y-99921238D01*
X134727142Y-99945047D01*
X134512857Y-101064190D02*
X134227142Y-101064190D01*
X134370000Y-101064190D02*
X134370000Y-100564190D01*
X134322380Y-100635619D01*
X134274761Y-100683238D01*
X134227142Y-100707047D01*
X134727142Y-101064190D02*
X134727142Y-100564190D01*
X135012857Y-101064190D02*
X134798571Y-100778476D01*
X135012857Y-100564190D02*
X134727142Y-100849904D01*
X141894761Y-94460190D02*
X141728095Y-94222095D01*
X141609047Y-94460190D02*
X141609047Y-93960190D01*
X141799523Y-93960190D01*
X141847142Y-93984000D01*
X141870952Y-94007809D01*
X141894761Y-94055428D01*
X141894761Y-94126857D01*
X141870952Y-94174476D01*
X141847142Y-94198285D01*
X141799523Y-94222095D01*
X141609047Y-94222095D01*
X142109047Y-94460190D02*
X142109047Y-93960190D01*
X142394761Y-94460190D01*
X142394761Y-93960190D01*
X142894761Y-94460190D02*
X142609047Y-94460190D01*
X142751904Y-94460190D02*
X142751904Y-93960190D01*
X142704285Y-94031619D01*
X142656666Y-94079238D01*
X142609047Y-94103047D01*
X141787666Y-94888857D02*
X141787666Y-95222190D01*
X141668619Y-94698380D02*
X141549571Y-95055523D01*
X141859095Y-95055523D01*
X142001952Y-95222190D02*
X142263857Y-94888857D01*
X142001952Y-94888857D02*
X142263857Y-95222190D01*
X142716238Y-95222190D02*
X142430523Y-95222190D01*
X142573380Y-95222190D02*
X142573380Y-94722190D01*
X142525761Y-94793619D01*
X142478142Y-94841238D01*
X142430523Y-94865047D01*
X143025761Y-94722190D02*
X143073380Y-94722190D01*
X143121000Y-94746000D01*
X143144809Y-94769809D01*
X143168619Y-94817428D01*
X143192428Y-94912666D01*
X143192428Y-95031714D01*
X143168619Y-95126952D01*
X143144809Y-95174571D01*
X143121000Y-95198380D01*
X143073380Y-95222190D01*
X143025761Y-95222190D01*
X142978142Y-95198380D01*
X142954333Y-95174571D01*
X142930523Y-95126952D01*
X142906714Y-95031714D01*
X142906714Y-94912666D01*
X142930523Y-94817428D01*
X142954333Y-94769809D01*
X142978142Y-94746000D01*
X143025761Y-94722190D01*
X143406714Y-95222190D02*
X143406714Y-94722190D01*
X143692428Y-95222190D02*
X143478142Y-94936476D01*
X143692428Y-94722190D02*
X143406714Y-95007904D01*
X116471333Y-89316190D02*
X116471333Y-89673333D01*
X116447523Y-89744761D01*
X116399904Y-89792380D01*
X116328476Y-89816190D01*
X116280857Y-89816190D01*
X116971333Y-89816190D02*
X116685619Y-89816190D01*
X116828476Y-89816190D02*
X116828476Y-89316190D01*
X116780857Y-89387619D01*
X116733238Y-89435238D01*
X116685619Y-89459047D01*
X114242761Y-88962380D02*
X114314190Y-88986190D01*
X114433238Y-88986190D01*
X114480857Y-88962380D01*
X114504666Y-88938571D01*
X114528476Y-88890952D01*
X114528476Y-88843333D01*
X114504666Y-88795714D01*
X114480857Y-88771904D01*
X114433238Y-88748095D01*
X114338000Y-88724285D01*
X114290380Y-88700476D01*
X114266571Y-88676666D01*
X114242761Y-88629047D01*
X114242761Y-88581428D01*
X114266571Y-88533809D01*
X114290380Y-88510000D01*
X114338000Y-88486190D01*
X114457047Y-88486190D01*
X114528476Y-88510000D01*
X114671333Y-88486190D02*
X114957047Y-88486190D01*
X114814190Y-88986190D02*
X114814190Y-88486190D01*
X115123714Y-88724285D02*
X115290380Y-88724285D01*
X115361809Y-88986190D02*
X115123714Y-88986190D01*
X115123714Y-88486190D01*
X115361809Y-88486190D01*
X115576095Y-88986190D02*
X115576095Y-88486190D01*
X115742761Y-88843333D01*
X115909428Y-88486190D01*
X115909428Y-88986190D01*
X116147523Y-88986190D02*
X116147523Y-88486190D01*
X116314190Y-88843333D01*
X116480857Y-88486190D01*
X116480857Y-88986190D01*
X116695142Y-88843333D02*
X116933238Y-88843333D01*
X116647523Y-88986190D02*
X116814190Y-88486190D01*
X116980857Y-88986190D01*
X148883333Y-89276190D02*
X148883333Y-89633333D01*
X148859523Y-89704761D01*
X148811904Y-89752380D01*
X148740476Y-89776190D01*
X148692857Y-89776190D01*
X149097619Y-89323809D02*
X149121428Y-89300000D01*
X149169047Y-89276190D01*
X149288095Y-89276190D01*
X149335714Y-89300000D01*
X149359523Y-89323809D01*
X149383333Y-89371428D01*
X149383333Y-89419047D01*
X149359523Y-89490476D01*
X149073809Y-89776190D01*
X149383333Y-89776190D01*
X148754761Y-88952380D02*
X148826190Y-88976190D01*
X148945238Y-88976190D01*
X148992857Y-88952380D01*
X149016666Y-88928571D01*
X149040476Y-88880952D01*
X149040476Y-88833333D01*
X149016666Y-88785714D01*
X148992857Y-88761904D01*
X148945238Y-88738095D01*
X148850000Y-88714285D01*
X148802380Y-88690476D01*
X148778571Y-88666666D01*
X148754761Y-88619047D01*
X148754761Y-88571428D01*
X148778571Y-88523809D01*
X148802380Y-88500000D01*
X148850000Y-88476190D01*
X148969047Y-88476190D01*
X149040476Y-88500000D01*
X149183333Y-88476190D02*
X149469047Y-88476190D01*
X149326190Y-88976190D02*
X149326190Y-88476190D01*
X149635714Y-88714285D02*
X149802380Y-88714285D01*
X149873809Y-88976190D02*
X149635714Y-88976190D01*
X149635714Y-88476190D01*
X149873809Y-88476190D01*
X150088095Y-88976190D02*
X150088095Y-88476190D01*
X150254761Y-88833333D01*
X150421428Y-88476190D01*
X150421428Y-88976190D01*
X150659523Y-88976190D02*
X150659523Y-88476190D01*
X150826190Y-88833333D01*
X150992857Y-88476190D01*
X150992857Y-88976190D01*
X151207142Y-88833333D02*
X151445238Y-88833333D01*
X151159523Y-88976190D02*
X151326190Y-88476190D01*
X151492857Y-88976190D01*
X120030952Y-101926190D02*
X120030952Y-101426190D01*
X120150000Y-101426190D01*
X120221428Y-101450000D01*
X120269047Y-101497619D01*
X120292857Y-101545238D01*
X120316666Y-101640476D01*
X120316666Y-101711904D01*
X120292857Y-101807142D01*
X120269047Y-101854761D01*
X120221428Y-101902380D01*
X120150000Y-101926190D01*
X120030952Y-101926190D01*
X120507142Y-101473809D02*
X120530952Y-101450000D01*
X120578571Y-101426190D01*
X120697619Y-101426190D01*
X120745238Y-101450000D01*
X120769047Y-101473809D01*
X120792857Y-101521428D01*
X120792857Y-101569047D01*
X120769047Y-101640476D01*
X120483333Y-101926190D01*
X120792857Y-101926190D01*
X120019047Y-102926190D02*
X120019047Y-102426190D01*
X120185714Y-102783333D01*
X120352380Y-102426190D01*
X120352380Y-102926190D01*
X120757142Y-102664285D02*
X120828571Y-102688095D01*
X120852380Y-102711904D01*
X120876190Y-102759523D01*
X120876190Y-102830952D01*
X120852380Y-102878571D01*
X120828571Y-102902380D01*
X120780952Y-102926190D01*
X120590476Y-102926190D01*
X120590476Y-102426190D01*
X120757142Y-102426190D01*
X120804761Y-102450000D01*
X120828571Y-102473809D01*
X120852380Y-102521428D01*
X120852380Y-102569047D01*
X120828571Y-102616666D01*
X120804761Y-102640476D01*
X120757142Y-102664285D01*
X120590476Y-102664285D01*
X121376190Y-102926190D02*
X121209523Y-102688095D01*
X121090476Y-102926190D02*
X121090476Y-102426190D01*
X121280952Y-102426190D01*
X121328571Y-102450000D01*
X121352380Y-102473809D01*
X121376190Y-102521428D01*
X121376190Y-102592857D01*
X121352380Y-102640476D01*
X121328571Y-102664285D01*
X121280952Y-102688095D01*
X121090476Y-102688095D01*
X121852380Y-102926190D02*
X121566666Y-102926190D01*
X121709523Y-102926190D02*
X121709523Y-102426190D01*
X121661904Y-102497619D01*
X121614285Y-102545238D01*
X121566666Y-102569047D01*
X122042857Y-102473809D02*
X122066666Y-102450000D01*
X122114285Y-102426190D01*
X122233333Y-102426190D01*
X122280952Y-102450000D01*
X122304761Y-102473809D01*
X122328571Y-102521428D01*
X122328571Y-102569047D01*
X122304761Y-102640476D01*
X122019047Y-102926190D01*
X122328571Y-102926190D01*
X122638095Y-102426190D02*
X122685714Y-102426190D01*
X122733333Y-102450000D01*
X122757142Y-102473809D01*
X122780952Y-102521428D01*
X122804761Y-102616666D01*
X122804761Y-102735714D01*
X122780952Y-102830952D01*
X122757142Y-102878571D01*
X122733333Y-102902380D01*
X122685714Y-102926190D01*
X122638095Y-102926190D01*
X122590476Y-102902380D01*
X122566666Y-102878571D01*
X122542857Y-102830952D01*
X122519047Y-102735714D01*
X122519047Y-102616666D01*
X122542857Y-102521428D01*
X122566666Y-102473809D01*
X122590476Y-102450000D01*
X122638095Y-102426190D01*
X126930952Y-102026190D02*
X126930952Y-101526190D01*
X127050000Y-101526190D01*
X127121428Y-101550000D01*
X127169047Y-101597619D01*
X127192857Y-101645238D01*
X127216666Y-101740476D01*
X127216666Y-101811904D01*
X127192857Y-101907142D01*
X127169047Y-101954761D01*
X127121428Y-102002380D01*
X127050000Y-102026190D01*
X126930952Y-102026190D01*
X127383333Y-101526190D02*
X127692857Y-101526190D01*
X127526190Y-101716666D01*
X127597619Y-101716666D01*
X127645238Y-101740476D01*
X127669047Y-101764285D01*
X127692857Y-101811904D01*
X127692857Y-101930952D01*
X127669047Y-101978571D01*
X127645238Y-102002380D01*
X127597619Y-102026190D01*
X127454761Y-102026190D01*
X127407142Y-102002380D01*
X127383333Y-101978571D01*
X125019047Y-102926190D02*
X125019047Y-102426190D01*
X125185714Y-102783333D01*
X125352380Y-102426190D01*
X125352380Y-102926190D01*
X125757142Y-102664285D02*
X125828571Y-102688095D01*
X125852380Y-102711904D01*
X125876190Y-102759523D01*
X125876190Y-102830952D01*
X125852380Y-102878571D01*
X125828571Y-102902380D01*
X125780952Y-102926190D01*
X125590476Y-102926190D01*
X125590476Y-102426190D01*
X125757142Y-102426190D01*
X125804761Y-102450000D01*
X125828571Y-102473809D01*
X125852380Y-102521428D01*
X125852380Y-102569047D01*
X125828571Y-102616666D01*
X125804761Y-102640476D01*
X125757142Y-102664285D01*
X125590476Y-102664285D01*
X126376190Y-102926190D02*
X126209523Y-102688095D01*
X126090476Y-102926190D02*
X126090476Y-102426190D01*
X126280952Y-102426190D01*
X126328571Y-102450000D01*
X126352380Y-102473809D01*
X126376190Y-102521428D01*
X126376190Y-102592857D01*
X126352380Y-102640476D01*
X126328571Y-102664285D01*
X126280952Y-102688095D01*
X126090476Y-102688095D01*
X126852380Y-102926190D02*
X126566666Y-102926190D01*
X126709523Y-102926190D02*
X126709523Y-102426190D01*
X126661904Y-102497619D01*
X126614285Y-102545238D01*
X126566666Y-102569047D01*
X127042857Y-102473809D02*
X127066666Y-102450000D01*
X127114285Y-102426190D01*
X127233333Y-102426190D01*
X127280952Y-102450000D01*
X127304761Y-102473809D01*
X127328571Y-102521428D01*
X127328571Y-102569047D01*
X127304761Y-102640476D01*
X127019047Y-102926190D01*
X127328571Y-102926190D01*
X127638095Y-102426190D02*
X127685714Y-102426190D01*
X127733333Y-102450000D01*
X127757142Y-102473809D01*
X127780952Y-102521428D01*
X127804761Y-102616666D01*
X127804761Y-102735714D01*
X127780952Y-102830952D01*
X127757142Y-102878571D01*
X127733333Y-102902380D01*
X127685714Y-102926190D01*
X127638095Y-102926190D01*
X127590476Y-102902380D01*
X127566666Y-102878571D01*
X127542857Y-102830952D01*
X127519047Y-102735714D01*
X127519047Y-102616666D01*
X127542857Y-102521428D01*
X127566666Y-102473809D01*
X127590476Y-102450000D01*
X127638095Y-102426190D01*
D12*
X116428571Y-87871428D02*
X116228571Y-87585714D01*
X116085714Y-87871428D02*
X116085714Y-87271428D01*
X116314285Y-87271428D01*
X116371428Y-87300000D01*
X116400000Y-87328571D01*
X116428571Y-87385714D01*
X116428571Y-87471428D01*
X116400000Y-87528571D01*
X116371428Y-87557142D01*
X116314285Y-87585714D01*
X116085714Y-87585714D01*
X116685714Y-87557142D02*
X116885714Y-87557142D01*
X116971428Y-87871428D02*
X116685714Y-87871428D01*
X116685714Y-87271428D01*
X116971428Y-87271428D01*
X117200000Y-87842857D02*
X117285714Y-87871428D01*
X117428571Y-87871428D01*
X117485714Y-87842857D01*
X117514285Y-87814285D01*
X117542857Y-87757142D01*
X117542857Y-87700000D01*
X117514285Y-87642857D01*
X117485714Y-87614285D01*
X117428571Y-87585714D01*
X117314285Y-87557142D01*
X117257142Y-87528571D01*
X117228571Y-87500000D01*
X117200000Y-87442857D01*
X117200000Y-87385714D01*
X117228571Y-87328571D01*
X117257142Y-87300000D01*
X117314285Y-87271428D01*
X117457142Y-87271428D01*
X117542857Y-87300000D01*
X117800000Y-87557142D02*
X118000000Y-87557142D01*
X118085714Y-87871428D02*
X117800000Y-87871428D01*
X117800000Y-87271428D01*
X118085714Y-87271428D01*
X118257142Y-87271428D02*
X118600000Y-87271428D01*
X118428571Y-87871428D02*
X118428571Y-87271428D01*
D14*
X114983333Y-84530952D02*
X115211904Y-84530952D01*
X115097619Y-84930952D02*
X115097619Y-84530952D01*
X115535714Y-84930952D02*
X115345238Y-84930952D01*
X115345238Y-84530952D01*
X115630952Y-84530952D02*
X115878571Y-84530952D01*
X115745238Y-84683333D01*
X115802380Y-84683333D01*
X115840476Y-84702380D01*
X115859523Y-84721428D01*
X115878571Y-84759523D01*
X115878571Y-84854761D01*
X115859523Y-84892857D01*
X115840476Y-84911904D01*
X115802380Y-84930952D01*
X115688095Y-84930952D01*
X115650000Y-84911904D01*
X115630952Y-84892857D01*
X116011904Y-84530952D02*
X116259523Y-84530952D01*
X116126190Y-84683333D01*
X116183333Y-84683333D01*
X116221428Y-84702380D01*
X116240476Y-84721428D01*
X116259523Y-84759523D01*
X116259523Y-84854761D01*
X116240476Y-84892857D01*
X116221428Y-84911904D01*
X116183333Y-84930952D01*
X116069047Y-84930952D01*
X116030952Y-84911904D01*
X116011904Y-84892857D01*
X116392857Y-84530952D02*
X116640476Y-84530952D01*
X116507142Y-84683333D01*
X116564285Y-84683333D01*
X116602380Y-84702380D01*
X116621428Y-84721428D01*
X116640476Y-84759523D01*
X116640476Y-84854761D01*
X116621428Y-84892857D01*
X116602380Y-84911904D01*
X116564285Y-84930952D01*
X116450000Y-84930952D01*
X116411904Y-84911904D01*
X116392857Y-84892857D01*
X116888095Y-84530952D02*
X116926190Y-84530952D01*
X116964285Y-84550000D01*
X116983333Y-84569047D01*
X117002380Y-84607142D01*
X117021428Y-84683333D01*
X117021428Y-84778571D01*
X117002380Y-84854761D01*
X116983333Y-84892857D01*
X116964285Y-84911904D01*
X116926190Y-84930952D01*
X116888095Y-84930952D01*
X116850000Y-84911904D01*
X116830952Y-84892857D01*
X116811904Y-84854761D01*
X116792857Y-84778571D01*
X116792857Y-84683333D01*
X116811904Y-84607142D01*
X116830952Y-84569047D01*
X116850000Y-84550000D01*
X116888095Y-84530952D01*
X117173809Y-84816666D02*
X117364285Y-84816666D01*
X117135714Y-84930952D02*
X117269047Y-84530952D01*
X117402380Y-84930952D01*
X117669047Y-84721428D02*
X117535714Y-84721428D01*
X117535714Y-84930952D02*
X117535714Y-84530952D01*
X117726190Y-84530952D01*
X118164285Y-84911904D02*
X118221428Y-84930952D01*
X118316666Y-84930952D01*
X118354761Y-84911904D01*
X118373809Y-84892857D01*
X118392857Y-84854761D01*
X118392857Y-84816666D01*
X118373809Y-84778571D01*
X118354761Y-84759523D01*
X118316666Y-84740476D01*
X118240476Y-84721428D01*
X118202380Y-84702380D01*
X118183333Y-84683333D01*
X118164285Y-84645238D01*
X118164285Y-84607142D01*
X118183333Y-84569047D01*
X118202380Y-84550000D01*
X118240476Y-84530952D01*
X118335714Y-84530952D01*
X118392857Y-84550000D01*
X118564285Y-84930952D02*
X118564285Y-84530952D01*
X118716666Y-84530952D01*
X118754761Y-84550000D01*
X118773809Y-84569047D01*
X118792857Y-84607142D01*
X118792857Y-84664285D01*
X118773809Y-84702380D01*
X118754761Y-84721428D01*
X118716666Y-84740476D01*
X118564285Y-84740476D01*
X118945238Y-84911904D02*
X119002380Y-84930952D01*
X119097619Y-84930952D01*
X119135714Y-84911904D01*
X119154761Y-84892857D01*
X119173809Y-84854761D01*
X119173809Y-84816666D01*
X119154761Y-84778571D01*
X119135714Y-84759523D01*
X119097619Y-84740476D01*
X119021428Y-84721428D01*
X118983333Y-84702380D01*
X118964285Y-84683333D01*
X118945238Y-84645238D01*
X118945238Y-84607142D01*
X118964285Y-84569047D01*
X118983333Y-84550000D01*
X119021428Y-84530952D01*
X119116666Y-84530952D01*
X119173809Y-84550000D01*
X119288095Y-84530952D02*
X119516666Y-84530952D01*
X119402380Y-84930952D02*
X119402380Y-84530952D01*
M02*
