G04 #@! TF.GenerationSoftware,KiCad,Pcbnew,(5.1.6-0-10_14)*
G04 #@! TF.CreationDate,2020-07-31T12:54:26-07:00*
G04 #@! TF.ProjectId,Stemma_Host_FeatherWing,5374656d-6d61-45f4-986f-73745f466561,v03*
G04 #@! TF.SameCoordinates,Original*
G04 #@! TF.FileFunction,Copper,L2,Bot*
G04 #@! TF.FilePolarity,Positive*
%FSLAX46Y46*%
G04 Gerber Fmt 4.6, Leading zero omitted, Abs format (unit mm)*
G04 Created by KiCad (PCBNEW (5.1.6-0-10_14)) date 2020-07-31 12:54:26*
%MOMM*%
%LPD*%
G01*
G04 APERTURE LIST*
G04 #@! TA.AperFunction,SMDPad,CuDef*
%ADD10R,1.800000X1.200000*%
G04 #@! TD*
G04 #@! TA.AperFunction,SMDPad,CuDef*
%ADD11R,1.550000X0.600000*%
G04 #@! TD*
G04 #@! TA.AperFunction,SMDPad,CuDef*
%ADD12R,0.970000X1.270000*%
G04 #@! TD*
G04 #@! TA.AperFunction,ComponentPad*
%ADD13C,1.700000*%
G04 #@! TD*
G04 #@! TA.AperFunction,ComponentPad*
%ADD14C,3.000000*%
G04 #@! TD*
G04 #@! TA.AperFunction,SMDPad,CuDef*
%ADD15R,1.600000X1.200000*%
G04 #@! TD*
G04 #@! TA.AperFunction,ViaPad*
%ADD16C,0.685800*%
G04 #@! TD*
G04 #@! TA.AperFunction,ViaPad*
%ADD17C,1.016000*%
G04 #@! TD*
G04 #@! TA.AperFunction,Conductor*
%ADD18C,0.254000*%
G04 #@! TD*
G04 #@! TA.AperFunction,Conductor*
%ADD19C,0.152400*%
G04 #@! TD*
G04 APERTURE END LIST*
D10*
X108762500Y-92450000D03*
X108762500Y-98050000D03*
D11*
X112637500Y-93750000D03*
X112637500Y-94750000D03*
X112637500Y-95750000D03*
X112637500Y-96750000D03*
D10*
X156937500Y-98050000D03*
X156937500Y-92450000D03*
D11*
X153062500Y-96750000D03*
X153062500Y-95750000D03*
X153062500Y-94750000D03*
X153062500Y-93750000D03*
D12*
X136398000Y-91059000D03*
X137668000Y-91059000D03*
X138938000Y-91059000D03*
X145034000Y-91059000D03*
X143764000Y-91059000D03*
X142494000Y-91059000D03*
D13*
X113715001Y-105206001D03*
X116255001Y-105206001D03*
X118795001Y-105206001D03*
X121335001Y-105206001D03*
X123875001Y-105206001D03*
X126415001Y-105206001D03*
X128955001Y-105206001D03*
X131495001Y-105206001D03*
X134035001Y-105206001D03*
X136575001Y-105206001D03*
X139115001Y-105206001D03*
X141655001Y-105206001D03*
X144195001Y-105206001D03*
X146735001Y-105206001D03*
X149275001Y-105206001D03*
X151815001Y-105206001D03*
X123875001Y-84886001D03*
X126415001Y-84886001D03*
X128955001Y-84886001D03*
X131495001Y-84886001D03*
X134035001Y-84886001D03*
X136575001Y-84886001D03*
X139115001Y-84886001D03*
X141655001Y-84886001D03*
X144195001Y-84886001D03*
X146735001Y-84886001D03*
X149275001Y-84886001D03*
X151815001Y-84886001D03*
D14*
X109905001Y-103936001D03*
X109905001Y-86156001D03*
D15*
X122428000Y-91824000D03*
X122428000Y-88624000D03*
D12*
X116370000Y-90050000D03*
X115100000Y-90050000D03*
X113830000Y-90050000D03*
D16*
X147955000Y-102870000D03*
X150622000Y-102870000D03*
X140843000Y-92964000D03*
X146400000Y-89550000D03*
X150622000Y-86868000D03*
X113030000Y-85590000D03*
X112400000Y-103700000D03*
X153289000Y-87884000D03*
X153289000Y-102870000D03*
X121666000Y-85590000D03*
X127900000Y-97800000D03*
X146550000Y-96550000D03*
X137600000Y-89000000D03*
X125150000Y-86100000D03*
X141097000Y-99568000D03*
X146177000Y-98044000D03*
X139192000Y-94869000D03*
X145269000Y-96882000D03*
X142494000Y-89154000D03*
D17*
X116200000Y-101050000D03*
D16*
X135890000Y-96012000D03*
X135951000Y-98232000D03*
X112800000Y-92250000D03*
X152950000Y-98250000D03*
X111150000Y-94250000D03*
X154850000Y-95750000D03*
X143002000Y-99568000D03*
X118150000Y-101200000D03*
X117350000Y-88200000D03*
X110550000Y-96200000D03*
X154800000Y-94150000D03*
X132969000Y-98171000D03*
X146748501Y-100774499D03*
X145415000Y-99949000D03*
X120200000Y-98400000D03*
X123995190Y-98095190D03*
X117495190Y-86500000D03*
D18*
X122428000Y-91824000D02*
X122428000Y-92928000D01*
D19*
X145692067Y-98044000D02*
X146177000Y-98044000D01*
X142136067Y-98044000D02*
X145692067Y-98044000D01*
X141097000Y-99083067D02*
X142136067Y-98044000D01*
X141097000Y-99568000D02*
X141097000Y-99083067D01*
X141097000Y-99568000D02*
X138176000Y-99568000D01*
X137668000Y-99060000D02*
X137668000Y-91059000D01*
X138176000Y-99568000D02*
X137668000Y-99060000D01*
X136398000Y-91059000D02*
X137668000Y-91059000D01*
X149275001Y-87145379D02*
X149275001Y-84886001D01*
X148460190Y-87960190D02*
X149275001Y-87145379D01*
X137039810Y-87960190D02*
X148460190Y-87960190D01*
X136398000Y-88602000D02*
X137039810Y-87960190D01*
X136398000Y-91059000D02*
X136398000Y-88602000D01*
X139192000Y-95504000D02*
X139192000Y-94869000D01*
X140570000Y-96882000D02*
X139192000Y-95504000D01*
X145269000Y-96882000D02*
X140570000Y-96882000D01*
X143764000Y-91846400D02*
X143764000Y-91059000D01*
X143764000Y-94892067D02*
X143764000Y-91846400D01*
X145269000Y-96397067D02*
X143764000Y-94892067D01*
X145269000Y-96882000D02*
X145269000Y-96397067D01*
X142494000Y-91059000D02*
X142494000Y-90271600D01*
X142494000Y-90271600D02*
X142494000Y-89154000D01*
X142494000Y-89154000D02*
X142494000Y-89154000D01*
X142494000Y-91059000D02*
X143764000Y-91059000D01*
X116790000Y-89530000D02*
X116770000Y-89550000D01*
D18*
X116200000Y-90220000D02*
X116370000Y-90050000D01*
X116200000Y-101050000D02*
X116200000Y-90220000D01*
D19*
X136232899Y-96354899D02*
X135890000Y-96012000D01*
X136293899Y-96415899D02*
X136232899Y-96354899D01*
X136293899Y-97889101D02*
X136293899Y-96415899D01*
X135951000Y-98232000D02*
X136293899Y-97889101D01*
X112637500Y-92412500D02*
X112800000Y-92250000D01*
X112637500Y-93750000D02*
X112637500Y-92412500D01*
X152950000Y-96862500D02*
X153062500Y-96750000D01*
X152950000Y-98250000D02*
X152950000Y-96862500D01*
X111650000Y-94750000D02*
X111150000Y-94250000D01*
X112637500Y-94750000D02*
X111650000Y-94750000D01*
X153062500Y-95750000D02*
X154850000Y-95750000D01*
X154850000Y-95750000D02*
X154850000Y-95750000D01*
X112587500Y-95800000D02*
X112637500Y-95750000D01*
X115100000Y-90050000D02*
X113830000Y-90050000D01*
X115100000Y-90050000D02*
X115100000Y-88750000D01*
X115650000Y-88200000D02*
X117350000Y-88200000D01*
X115100000Y-88750000D02*
X115650000Y-88200000D01*
X117750000Y-88600000D02*
X117350000Y-88200000D01*
X117750000Y-90850000D02*
X117750000Y-88600000D01*
X116657210Y-99707210D02*
X116657210Y-91942790D01*
X116657210Y-91942790D02*
X117750000Y-90850000D01*
X118150000Y-101200000D02*
X116657210Y-99707210D01*
X111000000Y-95750000D02*
X110550000Y-96200000D01*
X112637500Y-95750000D02*
X111000000Y-95750000D01*
X154200000Y-94750000D02*
X154800000Y-94150000D01*
X153062500Y-94750000D02*
X154200000Y-94750000D01*
X155225961Y-98525961D02*
X155200000Y-98600000D01*
X155225961Y-96774039D02*
X155225961Y-98525961D01*
X155500000Y-94150000D02*
X156000000Y-94650000D01*
X143002000Y-101602000D02*
X143002000Y-99568000D01*
X143400000Y-102000000D02*
X143002000Y-101602000D01*
X156000000Y-96000000D02*
X155225961Y-96774039D01*
X155200000Y-98600000D02*
X151800000Y-102000000D01*
X156000000Y-94650000D02*
X156000000Y-96000000D01*
X151800000Y-102000000D02*
X143400000Y-102000000D01*
X154800000Y-94150000D02*
X155500000Y-94150000D01*
X132439000Y-88624000D02*
X122428000Y-88624000D01*
X132969000Y-98171000D02*
X132969000Y-89154000D01*
X132969000Y-89154000D02*
X132439000Y-88624000D01*
X146748501Y-100774499D02*
X146748501Y-100774499D01*
X138938000Y-89154000D02*
X138938000Y-91059000D01*
X139827000Y-88265000D02*
X138938000Y-89154000D01*
X147066000Y-88265000D02*
X139827000Y-88265000D01*
X147955000Y-89154000D02*
X147066000Y-88265000D01*
X147955000Y-99568000D02*
X147955000Y-89154000D01*
X146748501Y-100774499D02*
X147955000Y-99568000D01*
X145034000Y-91059000D02*
X145671400Y-91059000D01*
X147320000Y-91059000D02*
X147650190Y-91389190D01*
X145671400Y-91059000D02*
X147320000Y-91059000D01*
X147650190Y-91389190D02*
X147650190Y-99314000D01*
X147650190Y-99314000D02*
X147650190Y-99364810D01*
X147650190Y-99364810D02*
X147066000Y-99949000D01*
X147066000Y-99949000D02*
X145415000Y-99949000D01*
X145415000Y-99949000D02*
X145415000Y-99949000D01*
X120200000Y-98400000D02*
X120200000Y-98400000D01*
X123450000Y-86550000D02*
X123875001Y-86124999D01*
X123875001Y-86124999D02*
X123875001Y-84886001D01*
X118359620Y-87140380D02*
X118950000Y-86550000D01*
X118359620Y-91102512D02*
X118359620Y-87140380D01*
X117266830Y-92195302D02*
X118359620Y-91102512D01*
X117266830Y-96497896D02*
X117266830Y-92195302D01*
X117973743Y-97204809D02*
X117266830Y-96497896D01*
X118950000Y-86550000D02*
X123450000Y-86550000D01*
X119704810Y-97204810D02*
X117973743Y-97204809D01*
X120200000Y-97700000D02*
X119704810Y-97204810D01*
X120200000Y-98400000D02*
X120200000Y-97700000D01*
X123995190Y-98095190D02*
X123995190Y-98095190D01*
X128955001Y-86294999D02*
X128955001Y-84886001D01*
X128400000Y-86850000D02*
X128955001Y-86294999D01*
X126150000Y-86850000D02*
X128400000Y-86850000D01*
X125926899Y-87073101D02*
X126150000Y-86850000D01*
X124876911Y-87073101D02*
X125926899Y-87073101D01*
X117571640Y-92321558D02*
X118664429Y-91228769D01*
X119076256Y-86854810D02*
X124658620Y-86854810D01*
X118664429Y-91228769D02*
X118664429Y-87266637D01*
X124658620Y-86854810D02*
X124876911Y-87073101D01*
X117571640Y-96371640D02*
X117571640Y-92321558D01*
X118664429Y-87266637D02*
X119076256Y-86854810D01*
X118100000Y-96900000D02*
X117571640Y-96371640D01*
X123500000Y-96900000D02*
X118100000Y-96900000D01*
X123995190Y-97395190D02*
X123500000Y-96900000D01*
X123995190Y-98095190D02*
X123995190Y-97395190D01*
X117495190Y-86500000D02*
X117495190Y-86495190D01*
X113715001Y-103000000D02*
X114015001Y-102700000D01*
X113715001Y-105206001D02*
X113715001Y-103000000D01*
X114015001Y-102700000D02*
X119000000Y-102700000D01*
X119000000Y-102700000D02*
X119300000Y-102400000D01*
X119300000Y-102400000D02*
X119300000Y-100550000D01*
X119300000Y-100550000D02*
X119000000Y-100250000D01*
X119000000Y-100250000D02*
X117631066Y-100250000D01*
X117631066Y-100250000D02*
X116962020Y-99580954D01*
X116962020Y-99580954D02*
X116962020Y-92069046D01*
X118054810Y-87059620D02*
X117495190Y-86500000D01*
X118054810Y-90976256D02*
X118054810Y-87059620D01*
X116962020Y-92069046D02*
X118054810Y-90976256D01*
D18*
G36*
X130538821Y-84101284D02*
G01*
X130404103Y-84302904D01*
X130311308Y-84526932D01*
X130264001Y-84764758D01*
X130264001Y-85007244D01*
X130311308Y-85245070D01*
X130404103Y-85469098D01*
X130538821Y-85670718D01*
X130710284Y-85842181D01*
X130911904Y-85976899D01*
X131135932Y-86069694D01*
X131373758Y-86117001D01*
X131616244Y-86117001D01*
X131854070Y-86069694D01*
X132078098Y-85976899D01*
X132279718Y-85842181D01*
X132451181Y-85670718D01*
X132585899Y-85469098D01*
X132678694Y-85245070D01*
X132726001Y-85007244D01*
X132726001Y-84764758D01*
X132678694Y-84526932D01*
X132585899Y-84302904D01*
X132451181Y-84101284D01*
X132346897Y-83997000D01*
X133183105Y-83997000D01*
X133078821Y-84101284D01*
X132944103Y-84302904D01*
X132851308Y-84526932D01*
X132804001Y-84764758D01*
X132804001Y-85007244D01*
X132851308Y-85245070D01*
X132944103Y-85469098D01*
X133078821Y-85670718D01*
X133250284Y-85842181D01*
X133451904Y-85976899D01*
X133675932Y-86069694D01*
X133913758Y-86117001D01*
X134156244Y-86117001D01*
X134394070Y-86069694D01*
X134618098Y-85976899D01*
X134819718Y-85842181D01*
X134991181Y-85670718D01*
X135125899Y-85469098D01*
X135218694Y-85245070D01*
X135266001Y-85007244D01*
X135266001Y-84764758D01*
X135218694Y-84526932D01*
X135125899Y-84302904D01*
X134991181Y-84101284D01*
X134886897Y-83997000D01*
X135723105Y-83997000D01*
X135618821Y-84101284D01*
X135484103Y-84302904D01*
X135391308Y-84526932D01*
X135344001Y-84764758D01*
X135344001Y-85007244D01*
X135391308Y-85245070D01*
X135484103Y-85469098D01*
X135618821Y-85670718D01*
X135790284Y-85842181D01*
X135991904Y-85976899D01*
X136215932Y-86069694D01*
X136453758Y-86117001D01*
X136696244Y-86117001D01*
X136934070Y-86069694D01*
X137158098Y-85976899D01*
X137359718Y-85842181D01*
X137531181Y-85670718D01*
X137665899Y-85469098D01*
X137758694Y-85245070D01*
X137806001Y-85007244D01*
X137806001Y-84764758D01*
X137758694Y-84526932D01*
X137665899Y-84302904D01*
X137531181Y-84101284D01*
X137426897Y-83997000D01*
X138263105Y-83997000D01*
X138158821Y-84101284D01*
X138024103Y-84302904D01*
X137931308Y-84526932D01*
X137884001Y-84764758D01*
X137884001Y-85007244D01*
X137931308Y-85245070D01*
X138024103Y-85469098D01*
X138158821Y-85670718D01*
X138330284Y-85842181D01*
X138531904Y-85976899D01*
X138755932Y-86069694D01*
X138993758Y-86117001D01*
X139236244Y-86117001D01*
X139474070Y-86069694D01*
X139698098Y-85976899D01*
X139899718Y-85842181D01*
X140071181Y-85670718D01*
X140205899Y-85469098D01*
X140298694Y-85245070D01*
X140346001Y-85007244D01*
X140346001Y-84764758D01*
X140298694Y-84526932D01*
X140205899Y-84302904D01*
X140071181Y-84101284D01*
X139966897Y-83997000D01*
X140803105Y-83997000D01*
X140698821Y-84101284D01*
X140564103Y-84302904D01*
X140471308Y-84526932D01*
X140424001Y-84764758D01*
X140424001Y-85007244D01*
X140471308Y-85245070D01*
X140564103Y-85469098D01*
X140698821Y-85670718D01*
X140870284Y-85842181D01*
X141071904Y-85976899D01*
X141295932Y-86069694D01*
X141533758Y-86117001D01*
X141776244Y-86117001D01*
X142014070Y-86069694D01*
X142238098Y-85976899D01*
X142439718Y-85842181D01*
X142611181Y-85670718D01*
X142745899Y-85469098D01*
X142838694Y-85245070D01*
X142886001Y-85007244D01*
X142886001Y-84764758D01*
X142838694Y-84526932D01*
X142745899Y-84302904D01*
X142611181Y-84101284D01*
X142506897Y-83997000D01*
X143343105Y-83997000D01*
X143238821Y-84101284D01*
X143104103Y-84302904D01*
X143011308Y-84526932D01*
X142964001Y-84764758D01*
X142964001Y-85007244D01*
X143011308Y-85245070D01*
X143104103Y-85469098D01*
X143238821Y-85670718D01*
X143410284Y-85842181D01*
X143611904Y-85976899D01*
X143835932Y-86069694D01*
X144073758Y-86117001D01*
X144316244Y-86117001D01*
X144554070Y-86069694D01*
X144778098Y-85976899D01*
X144979718Y-85842181D01*
X145151181Y-85670718D01*
X145285899Y-85469098D01*
X145378694Y-85245070D01*
X145426001Y-85007244D01*
X145426001Y-84764758D01*
X145378694Y-84526932D01*
X145285899Y-84302904D01*
X145151181Y-84101284D01*
X145046897Y-83997000D01*
X145883105Y-83997000D01*
X145778821Y-84101284D01*
X145644103Y-84302904D01*
X145551308Y-84526932D01*
X145504001Y-84764758D01*
X145504001Y-85007244D01*
X145551308Y-85245070D01*
X145644103Y-85469098D01*
X145778821Y-85670718D01*
X145950284Y-85842181D01*
X146151904Y-85976899D01*
X146375932Y-86069694D01*
X146613758Y-86117001D01*
X146856244Y-86117001D01*
X147094070Y-86069694D01*
X147318098Y-85976899D01*
X147519718Y-85842181D01*
X147691181Y-85670718D01*
X147825899Y-85469098D01*
X147918694Y-85245070D01*
X147966001Y-85007244D01*
X147966001Y-84764758D01*
X147918694Y-84526932D01*
X147825899Y-84302904D01*
X147691181Y-84101284D01*
X147586897Y-83997000D01*
X148423105Y-83997000D01*
X148318821Y-84101284D01*
X148184103Y-84302904D01*
X148091308Y-84526932D01*
X148044001Y-84764758D01*
X148044001Y-85007244D01*
X148091308Y-85245070D01*
X148184103Y-85469098D01*
X148318821Y-85670718D01*
X148490284Y-85842181D01*
X148691904Y-85976899D01*
X148817801Y-86029047D01*
X148817801Y-86956000D01*
X148270813Y-87502990D01*
X137062259Y-87502990D01*
X137039809Y-87500779D01*
X137017359Y-87502990D01*
X137017350Y-87502990D01*
X136950183Y-87509605D01*
X136864001Y-87535749D01*
X136827027Y-87555512D01*
X136784573Y-87578203D01*
X136750939Y-87605807D01*
X136714957Y-87635337D01*
X136700640Y-87652782D01*
X136090592Y-88262831D01*
X136073148Y-88277147D01*
X136058831Y-88294592D01*
X136058830Y-88294593D01*
X136016013Y-88346765D01*
X136011811Y-88354627D01*
X135973560Y-88426191D01*
X135947416Y-88512373D01*
X135941503Y-88572408D01*
X135938589Y-88602000D01*
X135940801Y-88624460D01*
X135940800Y-90041157D01*
X135913000Y-90041157D01*
X135838311Y-90048513D01*
X135766492Y-90070299D01*
X135700304Y-90105678D01*
X135642289Y-90153289D01*
X135594678Y-90211304D01*
X135559299Y-90277492D01*
X135537513Y-90349311D01*
X135530157Y-90424000D01*
X135530157Y-91694000D01*
X135537513Y-91768689D01*
X135559299Y-91840508D01*
X135594678Y-91906696D01*
X135642289Y-91964711D01*
X135700304Y-92012322D01*
X135766492Y-92047701D01*
X135838311Y-92069487D01*
X135913000Y-92076843D01*
X136883000Y-92076843D01*
X136957689Y-92069487D01*
X137029508Y-92047701D01*
X137033000Y-92045834D01*
X137036492Y-92047701D01*
X137108311Y-92069487D01*
X137183000Y-92076843D01*
X137210801Y-92076843D01*
X137210800Y-99037550D01*
X137208589Y-99060000D01*
X137210800Y-99082450D01*
X137210800Y-99082459D01*
X137217415Y-99149626D01*
X137243559Y-99235808D01*
X137286013Y-99315235D01*
X137343147Y-99384853D01*
X137360597Y-99399174D01*
X137836830Y-99875408D01*
X137851147Y-99892853D01*
X137868592Y-99907170D01*
X137920763Y-99949987D01*
X137963217Y-99972678D01*
X138000191Y-99992441D01*
X138086373Y-100018585D01*
X138153540Y-100025200D01*
X138153549Y-100025200D01*
X138175999Y-100027411D01*
X138198449Y-100025200D01*
X140531864Y-100025200D01*
X140534710Y-100029460D01*
X140635540Y-100130290D01*
X140754105Y-100209512D01*
X140885846Y-100264081D01*
X141025702Y-100291900D01*
X141168298Y-100291900D01*
X141308154Y-100264081D01*
X141439895Y-100209512D01*
X141558460Y-100130290D01*
X141659290Y-100029460D01*
X141738512Y-99910895D01*
X141793081Y-99779154D01*
X141820900Y-99639298D01*
X141820900Y-99496702D01*
X141793081Y-99356846D01*
X141738512Y-99225105D01*
X141683649Y-99142996D01*
X142325446Y-98501200D01*
X145611864Y-98501200D01*
X145614710Y-98505460D01*
X145715540Y-98606290D01*
X145834105Y-98685512D01*
X145965846Y-98740081D01*
X146105702Y-98767900D01*
X146248298Y-98767900D01*
X146388154Y-98740081D01*
X146519895Y-98685512D01*
X146638460Y-98606290D01*
X146739290Y-98505460D01*
X146818512Y-98386895D01*
X146873081Y-98255154D01*
X146900900Y-98115298D01*
X146900900Y-97972702D01*
X146873081Y-97832846D01*
X146818512Y-97701105D01*
X146739290Y-97582540D01*
X146638460Y-97481710D01*
X146519895Y-97402488D01*
X146388154Y-97347919D01*
X146248298Y-97320100D01*
X146105702Y-97320100D01*
X145965846Y-97347919D01*
X145834105Y-97402488D01*
X145715540Y-97481710D01*
X145614710Y-97582540D01*
X145611864Y-97586800D01*
X145436320Y-97586800D01*
X145480154Y-97578081D01*
X145611895Y-97523512D01*
X145730460Y-97444290D01*
X145831290Y-97343460D01*
X145910512Y-97224895D01*
X145965081Y-97093154D01*
X145992900Y-96953298D01*
X145992900Y-96810702D01*
X145965081Y-96670846D01*
X145910512Y-96539105D01*
X145831290Y-96420540D01*
X145730460Y-96319710D01*
X145720112Y-96312796D01*
X145719585Y-96307440D01*
X145693441Y-96221258D01*
X145667670Y-96173043D01*
X145650987Y-96141830D01*
X145608170Y-96089659D01*
X145593853Y-96072214D01*
X145576408Y-96057897D01*
X144221200Y-94702690D01*
X144221200Y-92076843D01*
X144249000Y-92076843D01*
X144323689Y-92069487D01*
X144395508Y-92047701D01*
X144399000Y-92045834D01*
X144402492Y-92047701D01*
X144474311Y-92069487D01*
X144549000Y-92076843D01*
X145519000Y-92076843D01*
X145593689Y-92069487D01*
X145665508Y-92047701D01*
X145731696Y-92012322D01*
X145789711Y-91964711D01*
X145837322Y-91906696D01*
X145872701Y-91840508D01*
X145894487Y-91768689D01*
X145901843Y-91694000D01*
X145901843Y-91516200D01*
X147130623Y-91516200D01*
X147192990Y-91578568D01*
X147192991Y-99175431D01*
X146876623Y-99491800D01*
X145980136Y-99491800D01*
X145977290Y-99487540D01*
X145876460Y-99386710D01*
X145757895Y-99307488D01*
X145626154Y-99252919D01*
X145486298Y-99225100D01*
X145343702Y-99225100D01*
X145203846Y-99252919D01*
X145072105Y-99307488D01*
X144953540Y-99386710D01*
X144852710Y-99487540D01*
X144773488Y-99606105D01*
X144718919Y-99737846D01*
X144691100Y-99877702D01*
X144691100Y-100020298D01*
X144718919Y-100160154D01*
X144773488Y-100291895D01*
X144852710Y-100410460D01*
X144953540Y-100511290D01*
X145072105Y-100590512D01*
X145203846Y-100645081D01*
X145343702Y-100672900D01*
X145486298Y-100672900D01*
X145626154Y-100645081D01*
X145757895Y-100590512D01*
X145876460Y-100511290D01*
X145977290Y-100410460D01*
X145980136Y-100406200D01*
X146123963Y-100406200D01*
X146106989Y-100431604D01*
X146052420Y-100563345D01*
X146024601Y-100703201D01*
X146024601Y-100845797D01*
X146052420Y-100985653D01*
X146106989Y-101117394D01*
X146186211Y-101235959D01*
X146287041Y-101336789D01*
X146405606Y-101416011D01*
X146537347Y-101470580D01*
X146677203Y-101498399D01*
X146819799Y-101498399D01*
X146959655Y-101470580D01*
X147091396Y-101416011D01*
X147209961Y-101336789D01*
X147310791Y-101235959D01*
X147390013Y-101117394D01*
X147444582Y-100985653D01*
X147472401Y-100845797D01*
X147472401Y-100703201D01*
X147471401Y-100698176D01*
X148262409Y-99907169D01*
X148279853Y-99892853D01*
X148326357Y-99836189D01*
X148336987Y-99823237D01*
X148372517Y-99756763D01*
X148379441Y-99743809D01*
X148405585Y-99657627D01*
X148412200Y-99590460D01*
X148412200Y-99590451D01*
X148414411Y-99568001D01*
X148412200Y-99545551D01*
X148412200Y-93450000D01*
X151649428Y-93450000D01*
X151652500Y-93464250D01*
X151811250Y-93623000D01*
X152935500Y-93623000D01*
X152935500Y-92973750D01*
X152776750Y-92815000D01*
X152287500Y-92811928D01*
X152163018Y-92824188D01*
X152043320Y-92860498D01*
X151933006Y-92919463D01*
X151836315Y-92998815D01*
X151756963Y-93095506D01*
X151697998Y-93205820D01*
X151661688Y-93325518D01*
X151649428Y-93450000D01*
X148412200Y-93450000D01*
X148412200Y-89176450D01*
X148414411Y-89154000D01*
X148412200Y-89131550D01*
X148412200Y-89131540D01*
X148405585Y-89064373D01*
X148379441Y-88978191D01*
X148336987Y-88898764D01*
X148279853Y-88829147D01*
X148262408Y-88814830D01*
X147864968Y-88417390D01*
X148437740Y-88417390D01*
X148460190Y-88419601D01*
X148482640Y-88417390D01*
X148482650Y-88417390D01*
X148549817Y-88410775D01*
X148635999Y-88384631D01*
X148715426Y-88342177D01*
X148785043Y-88285043D01*
X148799364Y-88267593D01*
X149582416Y-87484543D01*
X149599854Y-87470232D01*
X149614166Y-87452793D01*
X149614172Y-87452787D01*
X149656988Y-87400615D01*
X149699442Y-87321189D01*
X149715990Y-87266637D01*
X149725586Y-87235006D01*
X149732201Y-87167839D01*
X149732201Y-87167829D01*
X149734412Y-87145379D01*
X149732201Y-87122929D01*
X149732201Y-86029047D01*
X149858098Y-85976899D01*
X150059718Y-85842181D01*
X150231181Y-85670718D01*
X150365899Y-85469098D01*
X150458694Y-85245070D01*
X150506001Y-85007244D01*
X150506001Y-84764758D01*
X150458694Y-84526932D01*
X150365899Y-84302904D01*
X150231181Y-84101284D01*
X150126897Y-83997000D01*
X150963105Y-83997000D01*
X150858821Y-84101284D01*
X150724103Y-84302904D01*
X150631308Y-84526932D01*
X150584001Y-84764758D01*
X150584001Y-85007244D01*
X150631308Y-85245070D01*
X150724103Y-85469098D01*
X150858821Y-85670718D01*
X151030284Y-85842181D01*
X151231904Y-85976899D01*
X151455932Y-86069694D01*
X151693758Y-86117001D01*
X151936244Y-86117001D01*
X152174070Y-86069694D01*
X152353526Y-85995361D01*
X153994001Y-85995361D01*
X153994001Y-86316641D01*
X154056679Y-86631746D01*
X154179627Y-86928569D01*
X154358120Y-87195703D01*
X154585299Y-87422882D01*
X154852433Y-87601375D01*
X155149256Y-87724323D01*
X155464361Y-87787001D01*
X155785641Y-87787001D01*
X156100746Y-87724323D01*
X156397569Y-87601375D01*
X156664703Y-87422882D01*
X156891882Y-87195703D01*
X157070375Y-86928569D01*
X157193323Y-86631746D01*
X157256001Y-86316641D01*
X157256001Y-85995361D01*
X157193323Y-85680256D01*
X157070375Y-85383433D01*
X156891882Y-85116299D01*
X156664703Y-84889120D01*
X156397569Y-84710627D01*
X156100746Y-84587679D01*
X155785641Y-84525001D01*
X155464361Y-84525001D01*
X155149256Y-84587679D01*
X154852433Y-84710627D01*
X154585299Y-84889120D01*
X154358120Y-85116299D01*
X154179627Y-85383433D01*
X154056679Y-85680256D01*
X153994001Y-85995361D01*
X152353526Y-85995361D01*
X152398098Y-85976899D01*
X152599718Y-85842181D01*
X152771181Y-85670718D01*
X152905899Y-85469098D01*
X152998694Y-85245070D01*
X153046001Y-85007244D01*
X153046001Y-84764758D01*
X152998694Y-84526932D01*
X152905899Y-84302904D01*
X152771181Y-84101284D01*
X152666897Y-83997000D01*
X155680921Y-83997000D01*
X156111238Y-84039193D01*
X156504893Y-84158044D01*
X156867957Y-84351089D01*
X157186615Y-84610979D01*
X157448728Y-84927820D01*
X157644303Y-85289528D01*
X157765899Y-85682343D01*
X157811001Y-86111456D01*
X157811001Y-91467157D01*
X156037500Y-91467157D01*
X155962811Y-91474513D01*
X155890992Y-91496299D01*
X155824804Y-91531678D01*
X155766789Y-91579289D01*
X155719178Y-91637304D01*
X155683799Y-91703492D01*
X155662013Y-91775311D01*
X155654657Y-91850000D01*
X155654657Y-93050000D01*
X155662013Y-93124689D01*
X155683799Y-93196508D01*
X155719178Y-93262696D01*
X155766789Y-93320711D01*
X155824804Y-93368322D01*
X155890992Y-93403701D01*
X155962811Y-93425487D01*
X156037500Y-93432843D01*
X157811001Y-93432843D01*
X157811000Y-97067157D01*
X156037500Y-97067157D01*
X155962811Y-97074513D01*
X155890992Y-97096299D01*
X155824804Y-97131678D01*
X155766789Y-97179289D01*
X155719178Y-97237304D01*
X155683799Y-97303492D01*
X155683161Y-97305595D01*
X155683161Y-96963416D01*
X156307408Y-96339170D01*
X156324853Y-96324853D01*
X156352973Y-96290589D01*
X156381987Y-96255237D01*
X156419037Y-96185919D01*
X156424441Y-96175809D01*
X156450585Y-96089627D01*
X156457200Y-96022460D01*
X156457200Y-96022451D01*
X156459411Y-96000001D01*
X156457200Y-95977551D01*
X156457200Y-94672450D01*
X156459411Y-94650000D01*
X156457200Y-94627550D01*
X156457200Y-94627540D01*
X156450585Y-94560373D01*
X156424642Y-94474853D01*
X156424441Y-94474190D01*
X156381987Y-94394764D01*
X156339170Y-94342592D01*
X156324853Y-94325147D01*
X156307409Y-94310831D01*
X155839174Y-93842597D01*
X155824853Y-93825147D01*
X155755236Y-93768013D01*
X155675809Y-93725559D01*
X155589627Y-93699415D01*
X155522460Y-93692800D01*
X155522450Y-93692800D01*
X155500000Y-93690589D01*
X155477550Y-93692800D01*
X155365136Y-93692800D01*
X155362290Y-93688540D01*
X155261460Y-93587710D01*
X155142895Y-93508488D01*
X155011154Y-93453919D01*
X154871298Y-93426100D01*
X154728702Y-93426100D01*
X154588846Y-93453919D01*
X154457105Y-93508488D01*
X154370183Y-93566567D01*
X154472500Y-93464250D01*
X154475572Y-93450000D01*
X154463312Y-93325518D01*
X154427002Y-93205820D01*
X154368037Y-93095506D01*
X154288685Y-92998815D01*
X154191994Y-92919463D01*
X154081680Y-92860498D01*
X153961982Y-92824188D01*
X153837500Y-92811928D01*
X153348250Y-92815000D01*
X153189500Y-92973750D01*
X153189500Y-93623000D01*
X153209500Y-93623000D01*
X153209500Y-93877000D01*
X153189500Y-93877000D01*
X153189500Y-93897000D01*
X152935500Y-93897000D01*
X152935500Y-93877000D01*
X151811250Y-93877000D01*
X151652500Y-94035750D01*
X151649428Y-94050000D01*
X151661688Y-94174482D01*
X151697998Y-94294180D01*
X151756963Y-94404494D01*
X151836315Y-94501185D01*
X151904657Y-94557272D01*
X151904657Y-95050000D01*
X151912013Y-95124689D01*
X151933799Y-95196508D01*
X151962392Y-95250000D01*
X151933799Y-95303492D01*
X151912013Y-95375311D01*
X151904657Y-95450000D01*
X151904657Y-96050000D01*
X151912013Y-96124689D01*
X151933799Y-96196508D01*
X151962392Y-96250000D01*
X151933799Y-96303492D01*
X151912013Y-96375311D01*
X151904657Y-96450000D01*
X151904657Y-97050000D01*
X151912013Y-97124689D01*
X151933799Y-97196508D01*
X151969178Y-97262696D01*
X152016789Y-97320711D01*
X152074804Y-97368322D01*
X152140992Y-97403701D01*
X152212811Y-97425487D01*
X152287500Y-97432843D01*
X152492801Y-97432843D01*
X152492800Y-97684863D01*
X152488540Y-97687710D01*
X152387710Y-97788540D01*
X152308488Y-97907105D01*
X152253919Y-98038846D01*
X152226100Y-98178702D01*
X152226100Y-98321298D01*
X152253919Y-98461154D01*
X152308488Y-98592895D01*
X152387710Y-98711460D01*
X152488540Y-98812290D01*
X152607105Y-98891512D01*
X152738846Y-98946081D01*
X152878702Y-98973900D01*
X153021298Y-98973900D01*
X153161154Y-98946081D01*
X153292895Y-98891512D01*
X153411460Y-98812290D01*
X153512290Y-98711460D01*
X153591512Y-98592895D01*
X153646081Y-98461154D01*
X153673900Y-98321298D01*
X153673900Y-98178702D01*
X153646081Y-98038846D01*
X153591512Y-97907105D01*
X153512290Y-97788540D01*
X153411460Y-97687710D01*
X153407200Y-97684864D01*
X153407200Y-97432843D01*
X153837500Y-97432843D01*
X153912189Y-97425487D01*
X153984008Y-97403701D01*
X154050196Y-97368322D01*
X154108211Y-97320711D01*
X154155822Y-97262696D01*
X154191201Y-97196508D01*
X154212987Y-97124689D01*
X154220343Y-97050000D01*
X154220343Y-96450000D01*
X154212987Y-96375311D01*
X154191201Y-96303492D01*
X154162608Y-96250000D01*
X154185486Y-96207200D01*
X154284864Y-96207200D01*
X154287710Y-96211460D01*
X154388540Y-96312290D01*
X154507105Y-96391512D01*
X154638846Y-96446081D01*
X154778702Y-96473900D01*
X154880826Y-96473900D01*
X154843974Y-96518804D01*
X154801520Y-96598231D01*
X154775376Y-96684413D01*
X154768761Y-96751580D01*
X154768761Y-96751589D01*
X154766550Y-96774039D01*
X154768761Y-96796489D01*
X154768762Y-98384660D01*
X151610623Y-101542800D01*
X143589378Y-101542800D01*
X143459200Y-101412623D01*
X143459200Y-100133136D01*
X143463460Y-100130290D01*
X143564290Y-100029460D01*
X143643512Y-99910895D01*
X143698081Y-99779154D01*
X143725900Y-99639298D01*
X143725900Y-99496702D01*
X143698081Y-99356846D01*
X143643512Y-99225105D01*
X143564290Y-99106540D01*
X143463460Y-99005710D01*
X143344895Y-98926488D01*
X143213154Y-98871919D01*
X143073298Y-98844100D01*
X142930702Y-98844100D01*
X142790846Y-98871919D01*
X142659105Y-98926488D01*
X142540540Y-99005710D01*
X142439710Y-99106540D01*
X142360488Y-99225105D01*
X142305919Y-99356846D01*
X142278100Y-99496702D01*
X142278100Y-99639298D01*
X142305919Y-99779154D01*
X142360488Y-99910895D01*
X142439710Y-100029460D01*
X142540540Y-100130290D01*
X142544801Y-100133137D01*
X142544800Y-101579550D01*
X142542589Y-101602000D01*
X142544800Y-101624450D01*
X142544800Y-101624459D01*
X142551415Y-101691626D01*
X142577559Y-101777808D01*
X142620013Y-101857235D01*
X142677147Y-101926853D01*
X142694597Y-101941174D01*
X143060830Y-102307408D01*
X143075147Y-102324853D01*
X143144764Y-102381987D01*
X143224191Y-102424441D01*
X143310373Y-102450585D01*
X143377540Y-102457200D01*
X143377550Y-102457200D01*
X143400000Y-102459411D01*
X143422450Y-102457200D01*
X151777550Y-102457200D01*
X151800000Y-102459411D01*
X151822450Y-102457200D01*
X151822460Y-102457200D01*
X151889627Y-102450585D01*
X151975809Y-102424441D01*
X152055236Y-102381987D01*
X152124853Y-102324853D01*
X152139174Y-102307403D01*
X155516390Y-98930188D01*
X155542359Y-98906348D01*
X155561461Y-98880247D01*
X155581987Y-98855236D01*
X155588006Y-98843976D01*
X155595547Y-98833671D01*
X155609195Y-98804332D01*
X155624440Y-98775810D01*
X155634674Y-98742074D01*
X155645762Y-98710450D01*
X155650402Y-98701770D01*
X155657463Y-98678493D01*
X155662013Y-98724689D01*
X155683799Y-98796508D01*
X155719178Y-98862696D01*
X155766789Y-98920711D01*
X155824804Y-98968322D01*
X155890992Y-99003701D01*
X155962811Y-99025487D01*
X156037500Y-99032843D01*
X157811000Y-99032843D01*
X157811000Y-103864921D01*
X157768807Y-104295237D01*
X157649957Y-104688889D01*
X157456911Y-105051957D01*
X157197018Y-105370617D01*
X156880183Y-105632726D01*
X156518472Y-105828303D01*
X156125658Y-105949899D01*
X155696554Y-105995000D01*
X152766899Y-105995000D01*
X152771181Y-105990718D01*
X152905899Y-105789098D01*
X152998694Y-105565070D01*
X153046001Y-105327244D01*
X153046001Y-105084758D01*
X152998694Y-104846932D01*
X152905899Y-104622904D01*
X152771181Y-104421284D01*
X152599718Y-104249821D01*
X152398098Y-104115103D01*
X152174070Y-104022308D01*
X151936244Y-103975001D01*
X151693758Y-103975001D01*
X151455932Y-104022308D01*
X151231904Y-104115103D01*
X151030284Y-104249821D01*
X150858821Y-104421284D01*
X150724103Y-104622904D01*
X150631308Y-104846932D01*
X150584001Y-105084758D01*
X150584001Y-105327244D01*
X150631308Y-105565070D01*
X150724103Y-105789098D01*
X150858821Y-105990718D01*
X150863103Y-105995000D01*
X150226899Y-105995000D01*
X150231181Y-105990718D01*
X150365899Y-105789098D01*
X150458694Y-105565070D01*
X150506001Y-105327244D01*
X150506001Y-105084758D01*
X150458694Y-104846932D01*
X150365899Y-104622904D01*
X150231181Y-104421284D01*
X150059718Y-104249821D01*
X149858098Y-104115103D01*
X149634070Y-104022308D01*
X149396244Y-103975001D01*
X149153758Y-103975001D01*
X148915932Y-104022308D01*
X148691904Y-104115103D01*
X148490284Y-104249821D01*
X148318821Y-104421284D01*
X148184103Y-104622904D01*
X148091308Y-104846932D01*
X148044001Y-105084758D01*
X148044001Y-105327244D01*
X148091308Y-105565070D01*
X148184103Y-105789098D01*
X148318821Y-105990718D01*
X148323103Y-105995000D01*
X147686899Y-105995000D01*
X147691181Y-105990718D01*
X147825899Y-105789098D01*
X147918694Y-105565070D01*
X147966001Y-105327244D01*
X147966001Y-105084758D01*
X147918694Y-104846932D01*
X147825899Y-104622904D01*
X147691181Y-104421284D01*
X147519718Y-104249821D01*
X147318098Y-104115103D01*
X147094070Y-104022308D01*
X146856244Y-103975001D01*
X146613758Y-103975001D01*
X146375932Y-104022308D01*
X146151904Y-104115103D01*
X145950284Y-104249821D01*
X145778821Y-104421284D01*
X145644103Y-104622904D01*
X145551308Y-104846932D01*
X145504001Y-105084758D01*
X145504001Y-105327244D01*
X145551308Y-105565070D01*
X145644103Y-105789098D01*
X145778821Y-105990718D01*
X145783103Y-105995000D01*
X145146899Y-105995000D01*
X145151181Y-105990718D01*
X145285899Y-105789098D01*
X145378694Y-105565070D01*
X145426001Y-105327244D01*
X145426001Y-105084758D01*
X145378694Y-104846932D01*
X145285899Y-104622904D01*
X145151181Y-104421284D01*
X144979718Y-104249821D01*
X144778098Y-104115103D01*
X144554070Y-104022308D01*
X144316244Y-103975001D01*
X144073758Y-103975001D01*
X143835932Y-104022308D01*
X143611904Y-104115103D01*
X143410284Y-104249821D01*
X143238821Y-104421284D01*
X143104103Y-104622904D01*
X143011308Y-104846932D01*
X142964001Y-105084758D01*
X142964001Y-105327244D01*
X143011308Y-105565070D01*
X143104103Y-105789098D01*
X143238821Y-105990718D01*
X143243103Y-105995000D01*
X142606899Y-105995000D01*
X142611181Y-105990718D01*
X142745899Y-105789098D01*
X142838694Y-105565070D01*
X142886001Y-105327244D01*
X142886001Y-105084758D01*
X142838694Y-104846932D01*
X142745899Y-104622904D01*
X142611181Y-104421284D01*
X142439718Y-104249821D01*
X142238098Y-104115103D01*
X142014070Y-104022308D01*
X141776244Y-103975001D01*
X141533758Y-103975001D01*
X141295932Y-104022308D01*
X141071904Y-104115103D01*
X140870284Y-104249821D01*
X140698821Y-104421284D01*
X140564103Y-104622904D01*
X140471308Y-104846932D01*
X140424001Y-105084758D01*
X140424001Y-105327244D01*
X140471308Y-105565070D01*
X140564103Y-105789098D01*
X140698821Y-105990718D01*
X140703103Y-105995000D01*
X140066899Y-105995000D01*
X140071181Y-105990718D01*
X140205899Y-105789098D01*
X140298694Y-105565070D01*
X140346001Y-105327244D01*
X140346001Y-105084758D01*
X140298694Y-104846932D01*
X140205899Y-104622904D01*
X140071181Y-104421284D01*
X139899718Y-104249821D01*
X139698098Y-104115103D01*
X139474070Y-104022308D01*
X139236244Y-103975001D01*
X138993758Y-103975001D01*
X138755932Y-104022308D01*
X138531904Y-104115103D01*
X138330284Y-104249821D01*
X138158821Y-104421284D01*
X138024103Y-104622904D01*
X137931308Y-104846932D01*
X137884001Y-105084758D01*
X137884001Y-105327244D01*
X137931308Y-105565070D01*
X138024103Y-105789098D01*
X138158821Y-105990718D01*
X138163103Y-105995000D01*
X137526899Y-105995000D01*
X137531181Y-105990718D01*
X137665899Y-105789098D01*
X137758694Y-105565070D01*
X137806001Y-105327244D01*
X137806001Y-105084758D01*
X137758694Y-104846932D01*
X137665899Y-104622904D01*
X137531181Y-104421284D01*
X137359718Y-104249821D01*
X137158098Y-104115103D01*
X136934070Y-104022308D01*
X136696244Y-103975001D01*
X136453758Y-103975001D01*
X136215932Y-104022308D01*
X135991904Y-104115103D01*
X135790284Y-104249821D01*
X135618821Y-104421284D01*
X135484103Y-104622904D01*
X135391308Y-104846932D01*
X135344001Y-105084758D01*
X135344001Y-105327244D01*
X135391308Y-105565070D01*
X135484103Y-105789098D01*
X135618821Y-105990718D01*
X135623103Y-105995000D01*
X134986899Y-105995000D01*
X134991181Y-105990718D01*
X135125899Y-105789098D01*
X135218694Y-105565070D01*
X135266001Y-105327244D01*
X135266001Y-105084758D01*
X135218694Y-104846932D01*
X135125899Y-104622904D01*
X134991181Y-104421284D01*
X134819718Y-104249821D01*
X134618098Y-104115103D01*
X134394070Y-104022308D01*
X134156244Y-103975001D01*
X133913758Y-103975001D01*
X133675932Y-104022308D01*
X133451904Y-104115103D01*
X133250284Y-104249821D01*
X133078821Y-104421284D01*
X132944103Y-104622904D01*
X132851308Y-104846932D01*
X132804001Y-105084758D01*
X132804001Y-105327244D01*
X132851308Y-105565070D01*
X132944103Y-105789098D01*
X133078821Y-105990718D01*
X133083103Y-105995000D01*
X132446899Y-105995000D01*
X132451181Y-105990718D01*
X132585899Y-105789098D01*
X132678694Y-105565070D01*
X132726001Y-105327244D01*
X132726001Y-105084758D01*
X132678694Y-104846932D01*
X132585899Y-104622904D01*
X132451181Y-104421284D01*
X132279718Y-104249821D01*
X132078098Y-104115103D01*
X131854070Y-104022308D01*
X131616244Y-103975001D01*
X131373758Y-103975001D01*
X131135932Y-104022308D01*
X130911904Y-104115103D01*
X130710284Y-104249821D01*
X130538821Y-104421284D01*
X130404103Y-104622904D01*
X130311308Y-104846932D01*
X130264001Y-105084758D01*
X130264001Y-105327244D01*
X130311308Y-105565070D01*
X130404103Y-105789098D01*
X130538821Y-105990718D01*
X130543103Y-105995000D01*
X129906899Y-105995000D01*
X129911181Y-105990718D01*
X130045899Y-105789098D01*
X130138694Y-105565070D01*
X130186001Y-105327244D01*
X130186001Y-105084758D01*
X130138694Y-104846932D01*
X130045899Y-104622904D01*
X129911181Y-104421284D01*
X129739718Y-104249821D01*
X129538098Y-104115103D01*
X129314070Y-104022308D01*
X129076244Y-103975001D01*
X128833758Y-103975001D01*
X128595932Y-104022308D01*
X128371904Y-104115103D01*
X128170284Y-104249821D01*
X127998821Y-104421284D01*
X127864103Y-104622904D01*
X127771308Y-104846932D01*
X127724001Y-105084758D01*
X127724001Y-105327244D01*
X127771308Y-105565070D01*
X127864103Y-105789098D01*
X127998821Y-105990718D01*
X128003103Y-105995000D01*
X127366899Y-105995000D01*
X127371181Y-105990718D01*
X127505899Y-105789098D01*
X127598694Y-105565070D01*
X127646001Y-105327244D01*
X127646001Y-105084758D01*
X127598694Y-104846932D01*
X127505899Y-104622904D01*
X127371181Y-104421284D01*
X127199718Y-104249821D01*
X126998098Y-104115103D01*
X126774070Y-104022308D01*
X126536244Y-103975001D01*
X126293758Y-103975001D01*
X126055932Y-104022308D01*
X125831904Y-104115103D01*
X125630284Y-104249821D01*
X125458821Y-104421284D01*
X125324103Y-104622904D01*
X125231308Y-104846932D01*
X125184001Y-105084758D01*
X125184001Y-105327244D01*
X125231308Y-105565070D01*
X125324103Y-105789098D01*
X125458821Y-105990718D01*
X125463103Y-105995000D01*
X124826899Y-105995000D01*
X124831181Y-105990718D01*
X124965899Y-105789098D01*
X125058694Y-105565070D01*
X125106001Y-105327244D01*
X125106001Y-105084758D01*
X125058694Y-104846932D01*
X124965899Y-104622904D01*
X124831181Y-104421284D01*
X124659718Y-104249821D01*
X124458098Y-104115103D01*
X124234070Y-104022308D01*
X123996244Y-103975001D01*
X123753758Y-103975001D01*
X123515932Y-104022308D01*
X123291904Y-104115103D01*
X123090284Y-104249821D01*
X122918821Y-104421284D01*
X122784103Y-104622904D01*
X122740853Y-104727318D01*
X122685920Y-104572254D01*
X122612473Y-104434844D01*
X122363398Y-104357209D01*
X121514606Y-105206001D01*
X121528749Y-105220144D01*
X121349144Y-105399749D01*
X121335001Y-105385606D01*
X121320859Y-105399749D01*
X121141254Y-105220144D01*
X121155396Y-105206001D01*
X120306604Y-104357209D01*
X120057529Y-104434844D01*
X119931630Y-104698884D01*
X119926212Y-104720229D01*
X119885899Y-104622904D01*
X119751181Y-104421284D01*
X119579718Y-104249821D01*
X119471638Y-104177604D01*
X120486209Y-104177604D01*
X121335001Y-105026396D01*
X122183793Y-104177604D01*
X122106158Y-103928529D01*
X121842118Y-103802630D01*
X121734688Y-103775361D01*
X153994001Y-103775361D01*
X153994001Y-104096641D01*
X154056679Y-104411746D01*
X154179627Y-104708569D01*
X154358120Y-104975703D01*
X154585299Y-105202882D01*
X154852433Y-105381375D01*
X155149256Y-105504323D01*
X155464361Y-105567001D01*
X155785641Y-105567001D01*
X156100746Y-105504323D01*
X156397569Y-105381375D01*
X156664703Y-105202882D01*
X156891882Y-104975703D01*
X157070375Y-104708569D01*
X157193323Y-104411746D01*
X157256001Y-104096641D01*
X157256001Y-103775361D01*
X157193323Y-103460256D01*
X157070375Y-103163433D01*
X156891882Y-102896299D01*
X156664703Y-102669120D01*
X156397569Y-102490627D01*
X156100746Y-102367679D01*
X155785641Y-102305001D01*
X155464361Y-102305001D01*
X155149256Y-102367679D01*
X154852433Y-102490627D01*
X154585299Y-102669120D01*
X154358120Y-102896299D01*
X154179627Y-103163433D01*
X154056679Y-103460256D01*
X153994001Y-103775361D01*
X121734688Y-103775361D01*
X121558590Y-103730662D01*
X121266470Y-103715390D01*
X120976982Y-103757402D01*
X120701254Y-103855082D01*
X120563844Y-103928529D01*
X120486209Y-104177604D01*
X119471638Y-104177604D01*
X119378098Y-104115103D01*
X119154070Y-104022308D01*
X118916244Y-103975001D01*
X118673758Y-103975001D01*
X118435932Y-104022308D01*
X118211904Y-104115103D01*
X118010284Y-104249821D01*
X117838821Y-104421284D01*
X117704103Y-104622904D01*
X117611308Y-104846932D01*
X117564001Y-105084758D01*
X117564001Y-105327244D01*
X117611308Y-105565070D01*
X117704103Y-105789098D01*
X117838821Y-105990718D01*
X117843103Y-105995000D01*
X117206899Y-105995000D01*
X117211181Y-105990718D01*
X117345899Y-105789098D01*
X117438694Y-105565070D01*
X117486001Y-105327244D01*
X117486001Y-105084758D01*
X117438694Y-104846932D01*
X117345899Y-104622904D01*
X117211181Y-104421284D01*
X117039718Y-104249821D01*
X116838098Y-104115103D01*
X116614070Y-104022308D01*
X116376244Y-103975001D01*
X116133758Y-103975001D01*
X115895932Y-104022308D01*
X115671904Y-104115103D01*
X115470284Y-104249821D01*
X115298821Y-104421284D01*
X115164103Y-104622904D01*
X115071308Y-104846932D01*
X115024001Y-105084758D01*
X115024001Y-105327244D01*
X115071308Y-105565070D01*
X115164103Y-105789098D01*
X115298821Y-105990718D01*
X115303103Y-105995000D01*
X114666899Y-105995000D01*
X114671181Y-105990718D01*
X114805899Y-105789098D01*
X114898694Y-105565070D01*
X114946001Y-105327244D01*
X114946001Y-105084758D01*
X114898694Y-104846932D01*
X114805899Y-104622904D01*
X114671181Y-104421284D01*
X114499718Y-104249821D01*
X114298098Y-104115103D01*
X114172201Y-104062955D01*
X114172201Y-103189377D01*
X114204378Y-103157200D01*
X118977550Y-103157200D01*
X119000000Y-103159411D01*
X119022450Y-103157200D01*
X119022460Y-103157200D01*
X119089627Y-103150585D01*
X119175809Y-103124441D01*
X119255236Y-103081987D01*
X119324853Y-103024853D01*
X119339174Y-103007403D01*
X119607404Y-102739173D01*
X119624853Y-102724853D01*
X119681987Y-102655236D01*
X119724441Y-102575809D01*
X119750585Y-102489627D01*
X119757200Y-102422460D01*
X119757200Y-102422451D01*
X119759411Y-102400001D01*
X119757200Y-102377551D01*
X119757200Y-100572449D01*
X119759411Y-100549999D01*
X119757200Y-100527549D01*
X119757200Y-100527540D01*
X119750585Y-100460373D01*
X119724441Y-100374191D01*
X119681987Y-100294764D01*
X119624853Y-100225147D01*
X119607403Y-100210826D01*
X119339174Y-99942597D01*
X119324853Y-99925147D01*
X119255236Y-99868013D01*
X119175809Y-99825559D01*
X119089627Y-99799415D01*
X119022460Y-99792800D01*
X119022450Y-99792800D01*
X119000000Y-99790589D01*
X118977550Y-99792800D01*
X117820444Y-99792800D01*
X117419220Y-99391577D01*
X117419220Y-97296864D01*
X117634578Y-97512222D01*
X117648890Y-97529661D01*
X117666329Y-97543973D01*
X117666335Y-97543979D01*
X117718507Y-97586796D01*
X117797933Y-97629249D01*
X117884116Y-97655393D01*
X117973743Y-97664220D01*
X117996202Y-97662008D01*
X119515432Y-97662010D01*
X119714836Y-97861414D01*
X119637710Y-97938540D01*
X119558488Y-98057105D01*
X119503919Y-98188846D01*
X119476100Y-98328702D01*
X119476100Y-98471298D01*
X119503919Y-98611154D01*
X119558488Y-98742895D01*
X119637710Y-98861460D01*
X119738540Y-98962290D01*
X119857105Y-99041512D01*
X119988846Y-99096081D01*
X120128702Y-99123900D01*
X120271298Y-99123900D01*
X120411154Y-99096081D01*
X120542895Y-99041512D01*
X120661460Y-98962290D01*
X120762290Y-98861460D01*
X120841512Y-98742895D01*
X120896081Y-98611154D01*
X120923900Y-98471298D01*
X120923900Y-98328702D01*
X120896081Y-98188846D01*
X120841512Y-98057105D01*
X120762290Y-97938540D01*
X120661460Y-97837710D01*
X120657200Y-97834864D01*
X120657200Y-97722449D01*
X120659411Y-97699999D01*
X120657200Y-97677549D01*
X120657200Y-97677540D01*
X120650585Y-97610373D01*
X120624441Y-97524191D01*
X120592622Y-97464661D01*
X120581987Y-97444763D01*
X120539170Y-97392592D01*
X120524853Y-97375147D01*
X120507408Y-97360830D01*
X120503778Y-97357200D01*
X123310623Y-97357200D01*
X123510026Y-97556604D01*
X123432900Y-97633730D01*
X123353678Y-97752295D01*
X123299109Y-97884036D01*
X123271290Y-98023892D01*
X123271290Y-98166488D01*
X123299109Y-98306344D01*
X123353678Y-98438085D01*
X123432900Y-98556650D01*
X123533730Y-98657480D01*
X123652295Y-98736702D01*
X123784036Y-98791271D01*
X123923892Y-98819090D01*
X124066488Y-98819090D01*
X124206344Y-98791271D01*
X124338085Y-98736702D01*
X124456650Y-98657480D01*
X124557480Y-98556650D01*
X124636702Y-98438085D01*
X124691271Y-98306344D01*
X124719090Y-98166488D01*
X124719090Y-98023892D01*
X124691271Y-97884036D01*
X124636702Y-97752295D01*
X124557480Y-97633730D01*
X124456650Y-97532900D01*
X124452390Y-97530054D01*
X124452390Y-97417639D01*
X124454601Y-97395189D01*
X124452390Y-97372739D01*
X124452390Y-97372730D01*
X124445775Y-97305563D01*
X124419631Y-97219381D01*
X124385768Y-97156026D01*
X124377177Y-97139953D01*
X124334360Y-97087782D01*
X124320043Y-97070337D01*
X124302598Y-97056020D01*
X123839174Y-96592597D01*
X123824853Y-96575147D01*
X123755236Y-96518013D01*
X123675809Y-96475559D01*
X123589627Y-96449415D01*
X123522460Y-96442800D01*
X123522450Y-96442800D01*
X123500000Y-96440589D01*
X123477550Y-96442800D01*
X118289378Y-96442800D01*
X118028840Y-96182263D01*
X118028840Y-92510935D01*
X118971838Y-91567938D01*
X118989282Y-91553622D01*
X119046416Y-91484005D01*
X119088870Y-91404578D01*
X119115014Y-91318396D01*
X119121629Y-91251229D01*
X119121629Y-91251220D01*
X119123840Y-91228770D01*
X119121629Y-91206320D01*
X119121629Y-87884000D01*
X119507000Y-87884000D01*
X119507000Y-92710000D01*
X119509440Y-92734776D01*
X119516667Y-92758601D01*
X119528403Y-92780557D01*
X119544197Y-92799803D01*
X119563443Y-92815597D01*
X119585399Y-92827333D01*
X119609224Y-92834560D01*
X119634000Y-92837000D01*
X121145477Y-92837000D01*
X121176815Y-92875185D01*
X121273506Y-92954537D01*
X121383820Y-93013502D01*
X121503518Y-93049812D01*
X121628000Y-93062072D01*
X122142250Y-93059000D01*
X122301000Y-92900250D01*
X122301000Y-92837000D01*
X122555000Y-92837000D01*
X122555000Y-92900250D01*
X122713750Y-93059000D01*
X123228000Y-93062072D01*
X123352482Y-93049812D01*
X123472180Y-93013502D01*
X123582494Y-92954537D01*
X123679185Y-92875185D01*
X123710523Y-92837000D01*
X125222000Y-92837000D01*
X125246776Y-92834560D01*
X125270601Y-92827333D01*
X125292557Y-92815597D01*
X125311803Y-92799803D01*
X125327597Y-92780557D01*
X125339333Y-92758601D01*
X125346560Y-92734776D01*
X125349000Y-92710000D01*
X125349000Y-89081200D01*
X132249623Y-89081200D01*
X132511801Y-89343379D01*
X132511800Y-97605864D01*
X132507540Y-97608710D01*
X132406710Y-97709540D01*
X132327488Y-97828105D01*
X132272919Y-97959846D01*
X132245100Y-98099702D01*
X132245100Y-98242298D01*
X132272919Y-98382154D01*
X132327488Y-98513895D01*
X132406710Y-98632460D01*
X132507540Y-98733290D01*
X132626105Y-98812512D01*
X132757846Y-98867081D01*
X132897702Y-98894900D01*
X133040298Y-98894900D01*
X133180154Y-98867081D01*
X133311895Y-98812512D01*
X133430460Y-98733290D01*
X133531290Y-98632460D01*
X133610512Y-98513895D01*
X133665081Y-98382154D01*
X133692900Y-98242298D01*
X133692900Y-98099702D01*
X133665081Y-97959846D01*
X133610512Y-97828105D01*
X133531290Y-97709540D01*
X133430460Y-97608710D01*
X133426200Y-97605864D01*
X133426200Y-95940702D01*
X135166100Y-95940702D01*
X135166100Y-96083298D01*
X135193919Y-96223154D01*
X135248488Y-96354895D01*
X135327710Y-96473460D01*
X135428540Y-96574290D01*
X135547105Y-96653512D01*
X135678846Y-96708081D01*
X135818702Y-96735900D01*
X135836700Y-96735900D01*
X135836699Y-97516654D01*
X135739846Y-97535919D01*
X135608105Y-97590488D01*
X135489540Y-97669710D01*
X135388710Y-97770540D01*
X135309488Y-97889105D01*
X135254919Y-98020846D01*
X135227100Y-98160702D01*
X135227100Y-98303298D01*
X135254919Y-98443154D01*
X135309488Y-98574895D01*
X135388710Y-98693460D01*
X135489540Y-98794290D01*
X135608105Y-98873512D01*
X135739846Y-98928081D01*
X135879702Y-98955900D01*
X136022298Y-98955900D01*
X136162154Y-98928081D01*
X136293895Y-98873512D01*
X136412460Y-98794290D01*
X136513290Y-98693460D01*
X136592512Y-98574895D01*
X136647081Y-98443154D01*
X136674900Y-98303298D01*
X136674900Y-98160702D01*
X136672472Y-98148497D01*
X136675886Y-98144338D01*
X136702155Y-98095190D01*
X136718340Y-98064910D01*
X136744484Y-97978728D01*
X136751099Y-97911561D01*
X136751099Y-97911552D01*
X136753310Y-97889102D01*
X136751099Y-97866652D01*
X136751099Y-96438348D01*
X136753310Y-96415898D01*
X136751099Y-96393449D01*
X136751099Y-96393439D01*
X136744484Y-96326272D01*
X136718340Y-96240090D01*
X136675886Y-96160663D01*
X136618752Y-96091046D01*
X136613256Y-96086536D01*
X136613900Y-96083298D01*
X136613900Y-95940702D01*
X136586081Y-95800846D01*
X136531512Y-95669105D01*
X136452290Y-95550540D01*
X136351460Y-95449710D01*
X136232895Y-95370488D01*
X136101154Y-95315919D01*
X135961298Y-95288100D01*
X135818702Y-95288100D01*
X135678846Y-95315919D01*
X135547105Y-95370488D01*
X135428540Y-95449710D01*
X135327710Y-95550540D01*
X135248488Y-95669105D01*
X135193919Y-95800846D01*
X135166100Y-95940702D01*
X133426200Y-95940702D01*
X133426200Y-89176449D01*
X133428411Y-89153999D01*
X133426200Y-89131549D01*
X133426200Y-89131540D01*
X133419585Y-89064373D01*
X133393441Y-88978191D01*
X133350987Y-88898764D01*
X133293853Y-88829147D01*
X133276408Y-88814830D01*
X132778174Y-88316597D01*
X132763853Y-88299147D01*
X132694236Y-88242013D01*
X132614809Y-88199559D01*
X132528627Y-88173415D01*
X132461460Y-88166800D01*
X132461450Y-88166800D01*
X132439000Y-88164589D01*
X132416550Y-88166800D01*
X125349000Y-88166800D01*
X125349000Y-87884000D01*
X125346560Y-87859224D01*
X125339333Y-87835399D01*
X125327597Y-87813443D01*
X125311803Y-87794197D01*
X125292557Y-87778403D01*
X125270601Y-87766667D01*
X125246776Y-87759440D01*
X125222000Y-87757000D01*
X123501756Y-87757000D01*
X123498711Y-87753289D01*
X123440696Y-87705678D01*
X123374508Y-87670299D01*
X123302689Y-87648513D01*
X123228000Y-87641157D01*
X121628000Y-87641157D01*
X121553311Y-87648513D01*
X121481492Y-87670299D01*
X121415304Y-87705678D01*
X121357289Y-87753289D01*
X121354244Y-87757000D01*
X119634000Y-87757000D01*
X119609224Y-87759440D01*
X119585399Y-87766667D01*
X119563443Y-87778403D01*
X119544197Y-87794197D01*
X119528403Y-87813443D01*
X119516667Y-87835399D01*
X119509440Y-87859224D01*
X119507000Y-87884000D01*
X119121629Y-87884000D01*
X119121629Y-87456014D01*
X119265634Y-87312010D01*
X124469243Y-87312010D01*
X124537737Y-87380504D01*
X124552058Y-87397954D01*
X124621675Y-87455088D01*
X124701102Y-87497542D01*
X124787284Y-87523686D01*
X124854451Y-87530301D01*
X124854460Y-87530301D01*
X124876910Y-87532512D01*
X124899360Y-87530301D01*
X125904449Y-87530301D01*
X125926899Y-87532512D01*
X125949349Y-87530301D01*
X125949359Y-87530301D01*
X126016526Y-87523686D01*
X126102708Y-87497542D01*
X126182135Y-87455088D01*
X126251752Y-87397954D01*
X126266073Y-87380504D01*
X126339377Y-87307200D01*
X128377550Y-87307200D01*
X128400000Y-87309411D01*
X128422450Y-87307200D01*
X128422460Y-87307200D01*
X128489627Y-87300585D01*
X128575809Y-87274441D01*
X128655236Y-87231987D01*
X128724853Y-87174853D01*
X128739174Y-87157403D01*
X129262410Y-86634168D01*
X129279854Y-86619852D01*
X129300444Y-86594764D01*
X129336988Y-86550235D01*
X129348607Y-86528497D01*
X129379442Y-86470808D01*
X129405586Y-86384626D01*
X129412201Y-86317459D01*
X129412201Y-86317449D01*
X129414412Y-86294999D01*
X129412201Y-86272549D01*
X129412201Y-86029047D01*
X129538098Y-85976899D01*
X129739718Y-85842181D01*
X129911181Y-85670718D01*
X130045899Y-85469098D01*
X130138694Y-85245070D01*
X130186001Y-85007244D01*
X130186001Y-84764758D01*
X130138694Y-84526932D01*
X130045899Y-84302904D01*
X129911181Y-84101284D01*
X129806897Y-83997000D01*
X130643105Y-83997000D01*
X130538821Y-84101284D01*
G37*
X130538821Y-84101284D02*
X130404103Y-84302904D01*
X130311308Y-84526932D01*
X130264001Y-84764758D01*
X130264001Y-85007244D01*
X130311308Y-85245070D01*
X130404103Y-85469098D01*
X130538821Y-85670718D01*
X130710284Y-85842181D01*
X130911904Y-85976899D01*
X131135932Y-86069694D01*
X131373758Y-86117001D01*
X131616244Y-86117001D01*
X131854070Y-86069694D01*
X132078098Y-85976899D01*
X132279718Y-85842181D01*
X132451181Y-85670718D01*
X132585899Y-85469098D01*
X132678694Y-85245070D01*
X132726001Y-85007244D01*
X132726001Y-84764758D01*
X132678694Y-84526932D01*
X132585899Y-84302904D01*
X132451181Y-84101284D01*
X132346897Y-83997000D01*
X133183105Y-83997000D01*
X133078821Y-84101284D01*
X132944103Y-84302904D01*
X132851308Y-84526932D01*
X132804001Y-84764758D01*
X132804001Y-85007244D01*
X132851308Y-85245070D01*
X132944103Y-85469098D01*
X133078821Y-85670718D01*
X133250284Y-85842181D01*
X133451904Y-85976899D01*
X133675932Y-86069694D01*
X133913758Y-86117001D01*
X134156244Y-86117001D01*
X134394070Y-86069694D01*
X134618098Y-85976899D01*
X134819718Y-85842181D01*
X134991181Y-85670718D01*
X135125899Y-85469098D01*
X135218694Y-85245070D01*
X135266001Y-85007244D01*
X135266001Y-84764758D01*
X135218694Y-84526932D01*
X135125899Y-84302904D01*
X134991181Y-84101284D01*
X134886897Y-83997000D01*
X135723105Y-83997000D01*
X135618821Y-84101284D01*
X135484103Y-84302904D01*
X135391308Y-84526932D01*
X135344001Y-84764758D01*
X135344001Y-85007244D01*
X135391308Y-85245070D01*
X135484103Y-85469098D01*
X135618821Y-85670718D01*
X135790284Y-85842181D01*
X135991904Y-85976899D01*
X136215932Y-86069694D01*
X136453758Y-86117001D01*
X136696244Y-86117001D01*
X136934070Y-86069694D01*
X137158098Y-85976899D01*
X137359718Y-85842181D01*
X137531181Y-85670718D01*
X137665899Y-85469098D01*
X137758694Y-85245070D01*
X137806001Y-85007244D01*
X137806001Y-84764758D01*
X137758694Y-84526932D01*
X137665899Y-84302904D01*
X137531181Y-84101284D01*
X137426897Y-83997000D01*
X138263105Y-83997000D01*
X138158821Y-84101284D01*
X138024103Y-84302904D01*
X137931308Y-84526932D01*
X137884001Y-84764758D01*
X137884001Y-85007244D01*
X137931308Y-85245070D01*
X138024103Y-85469098D01*
X138158821Y-85670718D01*
X138330284Y-85842181D01*
X138531904Y-85976899D01*
X138755932Y-86069694D01*
X138993758Y-86117001D01*
X139236244Y-86117001D01*
X139474070Y-86069694D01*
X139698098Y-85976899D01*
X139899718Y-85842181D01*
X140071181Y-85670718D01*
X140205899Y-85469098D01*
X140298694Y-85245070D01*
X140346001Y-85007244D01*
X140346001Y-84764758D01*
X140298694Y-84526932D01*
X140205899Y-84302904D01*
X140071181Y-84101284D01*
X139966897Y-83997000D01*
X140803105Y-83997000D01*
X140698821Y-84101284D01*
X140564103Y-84302904D01*
X140471308Y-84526932D01*
X140424001Y-84764758D01*
X140424001Y-85007244D01*
X140471308Y-85245070D01*
X140564103Y-85469098D01*
X140698821Y-85670718D01*
X140870284Y-85842181D01*
X141071904Y-85976899D01*
X141295932Y-86069694D01*
X141533758Y-86117001D01*
X141776244Y-86117001D01*
X142014070Y-86069694D01*
X142238098Y-85976899D01*
X142439718Y-85842181D01*
X142611181Y-85670718D01*
X142745899Y-85469098D01*
X142838694Y-85245070D01*
X142886001Y-85007244D01*
X142886001Y-84764758D01*
X142838694Y-84526932D01*
X142745899Y-84302904D01*
X142611181Y-84101284D01*
X142506897Y-83997000D01*
X143343105Y-83997000D01*
X143238821Y-84101284D01*
X143104103Y-84302904D01*
X143011308Y-84526932D01*
X142964001Y-84764758D01*
X142964001Y-85007244D01*
X143011308Y-85245070D01*
X143104103Y-85469098D01*
X143238821Y-85670718D01*
X143410284Y-85842181D01*
X143611904Y-85976899D01*
X143835932Y-86069694D01*
X144073758Y-86117001D01*
X144316244Y-86117001D01*
X144554070Y-86069694D01*
X144778098Y-85976899D01*
X144979718Y-85842181D01*
X145151181Y-85670718D01*
X145285899Y-85469098D01*
X145378694Y-85245070D01*
X145426001Y-85007244D01*
X145426001Y-84764758D01*
X145378694Y-84526932D01*
X145285899Y-84302904D01*
X145151181Y-84101284D01*
X145046897Y-83997000D01*
X145883105Y-83997000D01*
X145778821Y-84101284D01*
X145644103Y-84302904D01*
X145551308Y-84526932D01*
X145504001Y-84764758D01*
X145504001Y-85007244D01*
X145551308Y-85245070D01*
X145644103Y-85469098D01*
X145778821Y-85670718D01*
X145950284Y-85842181D01*
X146151904Y-85976899D01*
X146375932Y-86069694D01*
X146613758Y-86117001D01*
X146856244Y-86117001D01*
X147094070Y-86069694D01*
X147318098Y-85976899D01*
X147519718Y-85842181D01*
X147691181Y-85670718D01*
X147825899Y-85469098D01*
X147918694Y-85245070D01*
X147966001Y-85007244D01*
X147966001Y-84764758D01*
X147918694Y-84526932D01*
X147825899Y-84302904D01*
X147691181Y-84101284D01*
X147586897Y-83997000D01*
X148423105Y-83997000D01*
X148318821Y-84101284D01*
X148184103Y-84302904D01*
X148091308Y-84526932D01*
X148044001Y-84764758D01*
X148044001Y-85007244D01*
X148091308Y-85245070D01*
X148184103Y-85469098D01*
X148318821Y-85670718D01*
X148490284Y-85842181D01*
X148691904Y-85976899D01*
X148817801Y-86029047D01*
X148817801Y-86956000D01*
X148270813Y-87502990D01*
X137062259Y-87502990D01*
X137039809Y-87500779D01*
X137017359Y-87502990D01*
X137017350Y-87502990D01*
X136950183Y-87509605D01*
X136864001Y-87535749D01*
X136827027Y-87555512D01*
X136784573Y-87578203D01*
X136750939Y-87605807D01*
X136714957Y-87635337D01*
X136700640Y-87652782D01*
X136090592Y-88262831D01*
X136073148Y-88277147D01*
X136058831Y-88294592D01*
X136058830Y-88294593D01*
X136016013Y-88346765D01*
X136011811Y-88354627D01*
X135973560Y-88426191D01*
X135947416Y-88512373D01*
X135941503Y-88572408D01*
X135938589Y-88602000D01*
X135940801Y-88624460D01*
X135940800Y-90041157D01*
X135913000Y-90041157D01*
X135838311Y-90048513D01*
X135766492Y-90070299D01*
X135700304Y-90105678D01*
X135642289Y-90153289D01*
X135594678Y-90211304D01*
X135559299Y-90277492D01*
X135537513Y-90349311D01*
X135530157Y-90424000D01*
X135530157Y-91694000D01*
X135537513Y-91768689D01*
X135559299Y-91840508D01*
X135594678Y-91906696D01*
X135642289Y-91964711D01*
X135700304Y-92012322D01*
X135766492Y-92047701D01*
X135838311Y-92069487D01*
X135913000Y-92076843D01*
X136883000Y-92076843D01*
X136957689Y-92069487D01*
X137029508Y-92047701D01*
X137033000Y-92045834D01*
X137036492Y-92047701D01*
X137108311Y-92069487D01*
X137183000Y-92076843D01*
X137210801Y-92076843D01*
X137210800Y-99037550D01*
X137208589Y-99060000D01*
X137210800Y-99082450D01*
X137210800Y-99082459D01*
X137217415Y-99149626D01*
X137243559Y-99235808D01*
X137286013Y-99315235D01*
X137343147Y-99384853D01*
X137360597Y-99399174D01*
X137836830Y-99875408D01*
X137851147Y-99892853D01*
X137868592Y-99907170D01*
X137920763Y-99949987D01*
X137963217Y-99972678D01*
X138000191Y-99992441D01*
X138086373Y-100018585D01*
X138153540Y-100025200D01*
X138153549Y-100025200D01*
X138175999Y-100027411D01*
X138198449Y-100025200D01*
X140531864Y-100025200D01*
X140534710Y-100029460D01*
X140635540Y-100130290D01*
X140754105Y-100209512D01*
X140885846Y-100264081D01*
X141025702Y-100291900D01*
X141168298Y-100291900D01*
X141308154Y-100264081D01*
X141439895Y-100209512D01*
X141558460Y-100130290D01*
X141659290Y-100029460D01*
X141738512Y-99910895D01*
X141793081Y-99779154D01*
X141820900Y-99639298D01*
X141820900Y-99496702D01*
X141793081Y-99356846D01*
X141738512Y-99225105D01*
X141683649Y-99142996D01*
X142325446Y-98501200D01*
X145611864Y-98501200D01*
X145614710Y-98505460D01*
X145715540Y-98606290D01*
X145834105Y-98685512D01*
X145965846Y-98740081D01*
X146105702Y-98767900D01*
X146248298Y-98767900D01*
X146388154Y-98740081D01*
X146519895Y-98685512D01*
X146638460Y-98606290D01*
X146739290Y-98505460D01*
X146818512Y-98386895D01*
X146873081Y-98255154D01*
X146900900Y-98115298D01*
X146900900Y-97972702D01*
X146873081Y-97832846D01*
X146818512Y-97701105D01*
X146739290Y-97582540D01*
X146638460Y-97481710D01*
X146519895Y-97402488D01*
X146388154Y-97347919D01*
X146248298Y-97320100D01*
X146105702Y-97320100D01*
X145965846Y-97347919D01*
X145834105Y-97402488D01*
X145715540Y-97481710D01*
X145614710Y-97582540D01*
X145611864Y-97586800D01*
X145436320Y-97586800D01*
X145480154Y-97578081D01*
X145611895Y-97523512D01*
X145730460Y-97444290D01*
X145831290Y-97343460D01*
X145910512Y-97224895D01*
X145965081Y-97093154D01*
X145992900Y-96953298D01*
X145992900Y-96810702D01*
X145965081Y-96670846D01*
X145910512Y-96539105D01*
X145831290Y-96420540D01*
X145730460Y-96319710D01*
X145720112Y-96312796D01*
X145719585Y-96307440D01*
X145693441Y-96221258D01*
X145667670Y-96173043D01*
X145650987Y-96141830D01*
X145608170Y-96089659D01*
X145593853Y-96072214D01*
X145576408Y-96057897D01*
X144221200Y-94702690D01*
X144221200Y-92076843D01*
X144249000Y-92076843D01*
X144323689Y-92069487D01*
X144395508Y-92047701D01*
X144399000Y-92045834D01*
X144402492Y-92047701D01*
X144474311Y-92069487D01*
X144549000Y-92076843D01*
X145519000Y-92076843D01*
X145593689Y-92069487D01*
X145665508Y-92047701D01*
X145731696Y-92012322D01*
X145789711Y-91964711D01*
X145837322Y-91906696D01*
X145872701Y-91840508D01*
X145894487Y-91768689D01*
X145901843Y-91694000D01*
X145901843Y-91516200D01*
X147130623Y-91516200D01*
X147192990Y-91578568D01*
X147192991Y-99175431D01*
X146876623Y-99491800D01*
X145980136Y-99491800D01*
X145977290Y-99487540D01*
X145876460Y-99386710D01*
X145757895Y-99307488D01*
X145626154Y-99252919D01*
X145486298Y-99225100D01*
X145343702Y-99225100D01*
X145203846Y-99252919D01*
X145072105Y-99307488D01*
X144953540Y-99386710D01*
X144852710Y-99487540D01*
X144773488Y-99606105D01*
X144718919Y-99737846D01*
X144691100Y-99877702D01*
X144691100Y-100020298D01*
X144718919Y-100160154D01*
X144773488Y-100291895D01*
X144852710Y-100410460D01*
X144953540Y-100511290D01*
X145072105Y-100590512D01*
X145203846Y-100645081D01*
X145343702Y-100672900D01*
X145486298Y-100672900D01*
X145626154Y-100645081D01*
X145757895Y-100590512D01*
X145876460Y-100511290D01*
X145977290Y-100410460D01*
X145980136Y-100406200D01*
X146123963Y-100406200D01*
X146106989Y-100431604D01*
X146052420Y-100563345D01*
X146024601Y-100703201D01*
X146024601Y-100845797D01*
X146052420Y-100985653D01*
X146106989Y-101117394D01*
X146186211Y-101235959D01*
X146287041Y-101336789D01*
X146405606Y-101416011D01*
X146537347Y-101470580D01*
X146677203Y-101498399D01*
X146819799Y-101498399D01*
X146959655Y-101470580D01*
X147091396Y-101416011D01*
X147209961Y-101336789D01*
X147310791Y-101235959D01*
X147390013Y-101117394D01*
X147444582Y-100985653D01*
X147472401Y-100845797D01*
X147472401Y-100703201D01*
X147471401Y-100698176D01*
X148262409Y-99907169D01*
X148279853Y-99892853D01*
X148326357Y-99836189D01*
X148336987Y-99823237D01*
X148372517Y-99756763D01*
X148379441Y-99743809D01*
X148405585Y-99657627D01*
X148412200Y-99590460D01*
X148412200Y-99590451D01*
X148414411Y-99568001D01*
X148412200Y-99545551D01*
X148412200Y-93450000D01*
X151649428Y-93450000D01*
X151652500Y-93464250D01*
X151811250Y-93623000D01*
X152935500Y-93623000D01*
X152935500Y-92973750D01*
X152776750Y-92815000D01*
X152287500Y-92811928D01*
X152163018Y-92824188D01*
X152043320Y-92860498D01*
X151933006Y-92919463D01*
X151836315Y-92998815D01*
X151756963Y-93095506D01*
X151697998Y-93205820D01*
X151661688Y-93325518D01*
X151649428Y-93450000D01*
X148412200Y-93450000D01*
X148412200Y-89176450D01*
X148414411Y-89154000D01*
X148412200Y-89131550D01*
X148412200Y-89131540D01*
X148405585Y-89064373D01*
X148379441Y-88978191D01*
X148336987Y-88898764D01*
X148279853Y-88829147D01*
X148262408Y-88814830D01*
X147864968Y-88417390D01*
X148437740Y-88417390D01*
X148460190Y-88419601D01*
X148482640Y-88417390D01*
X148482650Y-88417390D01*
X148549817Y-88410775D01*
X148635999Y-88384631D01*
X148715426Y-88342177D01*
X148785043Y-88285043D01*
X148799364Y-88267593D01*
X149582416Y-87484543D01*
X149599854Y-87470232D01*
X149614166Y-87452793D01*
X149614172Y-87452787D01*
X149656988Y-87400615D01*
X149699442Y-87321189D01*
X149715990Y-87266637D01*
X149725586Y-87235006D01*
X149732201Y-87167839D01*
X149732201Y-87167829D01*
X149734412Y-87145379D01*
X149732201Y-87122929D01*
X149732201Y-86029047D01*
X149858098Y-85976899D01*
X150059718Y-85842181D01*
X150231181Y-85670718D01*
X150365899Y-85469098D01*
X150458694Y-85245070D01*
X150506001Y-85007244D01*
X150506001Y-84764758D01*
X150458694Y-84526932D01*
X150365899Y-84302904D01*
X150231181Y-84101284D01*
X150126897Y-83997000D01*
X150963105Y-83997000D01*
X150858821Y-84101284D01*
X150724103Y-84302904D01*
X150631308Y-84526932D01*
X150584001Y-84764758D01*
X150584001Y-85007244D01*
X150631308Y-85245070D01*
X150724103Y-85469098D01*
X150858821Y-85670718D01*
X151030284Y-85842181D01*
X151231904Y-85976899D01*
X151455932Y-86069694D01*
X151693758Y-86117001D01*
X151936244Y-86117001D01*
X152174070Y-86069694D01*
X152353526Y-85995361D01*
X153994001Y-85995361D01*
X153994001Y-86316641D01*
X154056679Y-86631746D01*
X154179627Y-86928569D01*
X154358120Y-87195703D01*
X154585299Y-87422882D01*
X154852433Y-87601375D01*
X155149256Y-87724323D01*
X155464361Y-87787001D01*
X155785641Y-87787001D01*
X156100746Y-87724323D01*
X156397569Y-87601375D01*
X156664703Y-87422882D01*
X156891882Y-87195703D01*
X157070375Y-86928569D01*
X157193323Y-86631746D01*
X157256001Y-86316641D01*
X157256001Y-85995361D01*
X157193323Y-85680256D01*
X157070375Y-85383433D01*
X156891882Y-85116299D01*
X156664703Y-84889120D01*
X156397569Y-84710627D01*
X156100746Y-84587679D01*
X155785641Y-84525001D01*
X155464361Y-84525001D01*
X155149256Y-84587679D01*
X154852433Y-84710627D01*
X154585299Y-84889120D01*
X154358120Y-85116299D01*
X154179627Y-85383433D01*
X154056679Y-85680256D01*
X153994001Y-85995361D01*
X152353526Y-85995361D01*
X152398098Y-85976899D01*
X152599718Y-85842181D01*
X152771181Y-85670718D01*
X152905899Y-85469098D01*
X152998694Y-85245070D01*
X153046001Y-85007244D01*
X153046001Y-84764758D01*
X152998694Y-84526932D01*
X152905899Y-84302904D01*
X152771181Y-84101284D01*
X152666897Y-83997000D01*
X155680921Y-83997000D01*
X156111238Y-84039193D01*
X156504893Y-84158044D01*
X156867957Y-84351089D01*
X157186615Y-84610979D01*
X157448728Y-84927820D01*
X157644303Y-85289528D01*
X157765899Y-85682343D01*
X157811001Y-86111456D01*
X157811001Y-91467157D01*
X156037500Y-91467157D01*
X155962811Y-91474513D01*
X155890992Y-91496299D01*
X155824804Y-91531678D01*
X155766789Y-91579289D01*
X155719178Y-91637304D01*
X155683799Y-91703492D01*
X155662013Y-91775311D01*
X155654657Y-91850000D01*
X155654657Y-93050000D01*
X155662013Y-93124689D01*
X155683799Y-93196508D01*
X155719178Y-93262696D01*
X155766789Y-93320711D01*
X155824804Y-93368322D01*
X155890992Y-93403701D01*
X155962811Y-93425487D01*
X156037500Y-93432843D01*
X157811001Y-93432843D01*
X157811000Y-97067157D01*
X156037500Y-97067157D01*
X155962811Y-97074513D01*
X155890992Y-97096299D01*
X155824804Y-97131678D01*
X155766789Y-97179289D01*
X155719178Y-97237304D01*
X155683799Y-97303492D01*
X155683161Y-97305595D01*
X155683161Y-96963416D01*
X156307408Y-96339170D01*
X156324853Y-96324853D01*
X156352973Y-96290589D01*
X156381987Y-96255237D01*
X156419037Y-96185919D01*
X156424441Y-96175809D01*
X156450585Y-96089627D01*
X156457200Y-96022460D01*
X156457200Y-96022451D01*
X156459411Y-96000001D01*
X156457200Y-95977551D01*
X156457200Y-94672450D01*
X156459411Y-94650000D01*
X156457200Y-94627550D01*
X156457200Y-94627540D01*
X156450585Y-94560373D01*
X156424642Y-94474853D01*
X156424441Y-94474190D01*
X156381987Y-94394764D01*
X156339170Y-94342592D01*
X156324853Y-94325147D01*
X156307409Y-94310831D01*
X155839174Y-93842597D01*
X155824853Y-93825147D01*
X155755236Y-93768013D01*
X155675809Y-93725559D01*
X155589627Y-93699415D01*
X155522460Y-93692800D01*
X155522450Y-93692800D01*
X155500000Y-93690589D01*
X155477550Y-93692800D01*
X155365136Y-93692800D01*
X155362290Y-93688540D01*
X155261460Y-93587710D01*
X155142895Y-93508488D01*
X155011154Y-93453919D01*
X154871298Y-93426100D01*
X154728702Y-93426100D01*
X154588846Y-93453919D01*
X154457105Y-93508488D01*
X154370183Y-93566567D01*
X154472500Y-93464250D01*
X154475572Y-93450000D01*
X154463312Y-93325518D01*
X154427002Y-93205820D01*
X154368037Y-93095506D01*
X154288685Y-92998815D01*
X154191994Y-92919463D01*
X154081680Y-92860498D01*
X153961982Y-92824188D01*
X153837500Y-92811928D01*
X153348250Y-92815000D01*
X153189500Y-92973750D01*
X153189500Y-93623000D01*
X153209500Y-93623000D01*
X153209500Y-93877000D01*
X153189500Y-93877000D01*
X153189500Y-93897000D01*
X152935500Y-93897000D01*
X152935500Y-93877000D01*
X151811250Y-93877000D01*
X151652500Y-94035750D01*
X151649428Y-94050000D01*
X151661688Y-94174482D01*
X151697998Y-94294180D01*
X151756963Y-94404494D01*
X151836315Y-94501185D01*
X151904657Y-94557272D01*
X151904657Y-95050000D01*
X151912013Y-95124689D01*
X151933799Y-95196508D01*
X151962392Y-95250000D01*
X151933799Y-95303492D01*
X151912013Y-95375311D01*
X151904657Y-95450000D01*
X151904657Y-96050000D01*
X151912013Y-96124689D01*
X151933799Y-96196508D01*
X151962392Y-96250000D01*
X151933799Y-96303492D01*
X151912013Y-96375311D01*
X151904657Y-96450000D01*
X151904657Y-97050000D01*
X151912013Y-97124689D01*
X151933799Y-97196508D01*
X151969178Y-97262696D01*
X152016789Y-97320711D01*
X152074804Y-97368322D01*
X152140992Y-97403701D01*
X152212811Y-97425487D01*
X152287500Y-97432843D01*
X152492801Y-97432843D01*
X152492800Y-97684863D01*
X152488540Y-97687710D01*
X152387710Y-97788540D01*
X152308488Y-97907105D01*
X152253919Y-98038846D01*
X152226100Y-98178702D01*
X152226100Y-98321298D01*
X152253919Y-98461154D01*
X152308488Y-98592895D01*
X152387710Y-98711460D01*
X152488540Y-98812290D01*
X152607105Y-98891512D01*
X152738846Y-98946081D01*
X152878702Y-98973900D01*
X153021298Y-98973900D01*
X153161154Y-98946081D01*
X153292895Y-98891512D01*
X153411460Y-98812290D01*
X153512290Y-98711460D01*
X153591512Y-98592895D01*
X153646081Y-98461154D01*
X153673900Y-98321298D01*
X153673900Y-98178702D01*
X153646081Y-98038846D01*
X153591512Y-97907105D01*
X153512290Y-97788540D01*
X153411460Y-97687710D01*
X153407200Y-97684864D01*
X153407200Y-97432843D01*
X153837500Y-97432843D01*
X153912189Y-97425487D01*
X153984008Y-97403701D01*
X154050196Y-97368322D01*
X154108211Y-97320711D01*
X154155822Y-97262696D01*
X154191201Y-97196508D01*
X154212987Y-97124689D01*
X154220343Y-97050000D01*
X154220343Y-96450000D01*
X154212987Y-96375311D01*
X154191201Y-96303492D01*
X154162608Y-96250000D01*
X154185486Y-96207200D01*
X154284864Y-96207200D01*
X154287710Y-96211460D01*
X154388540Y-96312290D01*
X154507105Y-96391512D01*
X154638846Y-96446081D01*
X154778702Y-96473900D01*
X154880826Y-96473900D01*
X154843974Y-96518804D01*
X154801520Y-96598231D01*
X154775376Y-96684413D01*
X154768761Y-96751580D01*
X154768761Y-96751589D01*
X154766550Y-96774039D01*
X154768761Y-96796489D01*
X154768762Y-98384660D01*
X151610623Y-101542800D01*
X143589378Y-101542800D01*
X143459200Y-101412623D01*
X143459200Y-100133136D01*
X143463460Y-100130290D01*
X143564290Y-100029460D01*
X143643512Y-99910895D01*
X143698081Y-99779154D01*
X143725900Y-99639298D01*
X143725900Y-99496702D01*
X143698081Y-99356846D01*
X143643512Y-99225105D01*
X143564290Y-99106540D01*
X143463460Y-99005710D01*
X143344895Y-98926488D01*
X143213154Y-98871919D01*
X143073298Y-98844100D01*
X142930702Y-98844100D01*
X142790846Y-98871919D01*
X142659105Y-98926488D01*
X142540540Y-99005710D01*
X142439710Y-99106540D01*
X142360488Y-99225105D01*
X142305919Y-99356846D01*
X142278100Y-99496702D01*
X142278100Y-99639298D01*
X142305919Y-99779154D01*
X142360488Y-99910895D01*
X142439710Y-100029460D01*
X142540540Y-100130290D01*
X142544801Y-100133137D01*
X142544800Y-101579550D01*
X142542589Y-101602000D01*
X142544800Y-101624450D01*
X142544800Y-101624459D01*
X142551415Y-101691626D01*
X142577559Y-101777808D01*
X142620013Y-101857235D01*
X142677147Y-101926853D01*
X142694597Y-101941174D01*
X143060830Y-102307408D01*
X143075147Y-102324853D01*
X143144764Y-102381987D01*
X143224191Y-102424441D01*
X143310373Y-102450585D01*
X143377540Y-102457200D01*
X143377550Y-102457200D01*
X143400000Y-102459411D01*
X143422450Y-102457200D01*
X151777550Y-102457200D01*
X151800000Y-102459411D01*
X151822450Y-102457200D01*
X151822460Y-102457200D01*
X151889627Y-102450585D01*
X151975809Y-102424441D01*
X152055236Y-102381987D01*
X152124853Y-102324853D01*
X152139174Y-102307403D01*
X155516390Y-98930188D01*
X155542359Y-98906348D01*
X155561461Y-98880247D01*
X155581987Y-98855236D01*
X155588006Y-98843976D01*
X155595547Y-98833671D01*
X155609195Y-98804332D01*
X155624440Y-98775810D01*
X155634674Y-98742074D01*
X155645762Y-98710450D01*
X155650402Y-98701770D01*
X155657463Y-98678493D01*
X155662013Y-98724689D01*
X155683799Y-98796508D01*
X155719178Y-98862696D01*
X155766789Y-98920711D01*
X155824804Y-98968322D01*
X155890992Y-99003701D01*
X155962811Y-99025487D01*
X156037500Y-99032843D01*
X157811000Y-99032843D01*
X157811000Y-103864921D01*
X157768807Y-104295237D01*
X157649957Y-104688889D01*
X157456911Y-105051957D01*
X157197018Y-105370617D01*
X156880183Y-105632726D01*
X156518472Y-105828303D01*
X156125658Y-105949899D01*
X155696554Y-105995000D01*
X152766899Y-105995000D01*
X152771181Y-105990718D01*
X152905899Y-105789098D01*
X152998694Y-105565070D01*
X153046001Y-105327244D01*
X153046001Y-105084758D01*
X152998694Y-104846932D01*
X152905899Y-104622904D01*
X152771181Y-104421284D01*
X152599718Y-104249821D01*
X152398098Y-104115103D01*
X152174070Y-104022308D01*
X151936244Y-103975001D01*
X151693758Y-103975001D01*
X151455932Y-104022308D01*
X151231904Y-104115103D01*
X151030284Y-104249821D01*
X150858821Y-104421284D01*
X150724103Y-104622904D01*
X150631308Y-104846932D01*
X150584001Y-105084758D01*
X150584001Y-105327244D01*
X150631308Y-105565070D01*
X150724103Y-105789098D01*
X150858821Y-105990718D01*
X150863103Y-105995000D01*
X150226899Y-105995000D01*
X150231181Y-105990718D01*
X150365899Y-105789098D01*
X150458694Y-105565070D01*
X150506001Y-105327244D01*
X150506001Y-105084758D01*
X150458694Y-104846932D01*
X150365899Y-104622904D01*
X150231181Y-104421284D01*
X150059718Y-104249821D01*
X149858098Y-104115103D01*
X149634070Y-104022308D01*
X149396244Y-103975001D01*
X149153758Y-103975001D01*
X148915932Y-104022308D01*
X148691904Y-104115103D01*
X148490284Y-104249821D01*
X148318821Y-104421284D01*
X148184103Y-104622904D01*
X148091308Y-104846932D01*
X148044001Y-105084758D01*
X148044001Y-105327244D01*
X148091308Y-105565070D01*
X148184103Y-105789098D01*
X148318821Y-105990718D01*
X148323103Y-105995000D01*
X147686899Y-105995000D01*
X147691181Y-105990718D01*
X147825899Y-105789098D01*
X147918694Y-105565070D01*
X147966001Y-105327244D01*
X147966001Y-105084758D01*
X147918694Y-104846932D01*
X147825899Y-104622904D01*
X147691181Y-104421284D01*
X147519718Y-104249821D01*
X147318098Y-104115103D01*
X147094070Y-104022308D01*
X146856244Y-103975001D01*
X146613758Y-103975001D01*
X146375932Y-104022308D01*
X146151904Y-104115103D01*
X145950284Y-104249821D01*
X145778821Y-104421284D01*
X145644103Y-104622904D01*
X145551308Y-104846932D01*
X145504001Y-105084758D01*
X145504001Y-105327244D01*
X145551308Y-105565070D01*
X145644103Y-105789098D01*
X145778821Y-105990718D01*
X145783103Y-105995000D01*
X145146899Y-105995000D01*
X145151181Y-105990718D01*
X145285899Y-105789098D01*
X145378694Y-105565070D01*
X145426001Y-105327244D01*
X145426001Y-105084758D01*
X145378694Y-104846932D01*
X145285899Y-104622904D01*
X145151181Y-104421284D01*
X144979718Y-104249821D01*
X144778098Y-104115103D01*
X144554070Y-104022308D01*
X144316244Y-103975001D01*
X144073758Y-103975001D01*
X143835932Y-104022308D01*
X143611904Y-104115103D01*
X143410284Y-104249821D01*
X143238821Y-104421284D01*
X143104103Y-104622904D01*
X143011308Y-104846932D01*
X142964001Y-105084758D01*
X142964001Y-105327244D01*
X143011308Y-105565070D01*
X143104103Y-105789098D01*
X143238821Y-105990718D01*
X143243103Y-105995000D01*
X142606899Y-105995000D01*
X142611181Y-105990718D01*
X142745899Y-105789098D01*
X142838694Y-105565070D01*
X142886001Y-105327244D01*
X142886001Y-105084758D01*
X142838694Y-104846932D01*
X142745899Y-104622904D01*
X142611181Y-104421284D01*
X142439718Y-104249821D01*
X142238098Y-104115103D01*
X142014070Y-104022308D01*
X141776244Y-103975001D01*
X141533758Y-103975001D01*
X141295932Y-104022308D01*
X141071904Y-104115103D01*
X140870284Y-104249821D01*
X140698821Y-104421284D01*
X140564103Y-104622904D01*
X140471308Y-104846932D01*
X140424001Y-105084758D01*
X140424001Y-105327244D01*
X140471308Y-105565070D01*
X140564103Y-105789098D01*
X140698821Y-105990718D01*
X140703103Y-105995000D01*
X140066899Y-105995000D01*
X140071181Y-105990718D01*
X140205899Y-105789098D01*
X140298694Y-105565070D01*
X140346001Y-105327244D01*
X140346001Y-105084758D01*
X140298694Y-104846932D01*
X140205899Y-104622904D01*
X140071181Y-104421284D01*
X139899718Y-104249821D01*
X139698098Y-104115103D01*
X139474070Y-104022308D01*
X139236244Y-103975001D01*
X138993758Y-103975001D01*
X138755932Y-104022308D01*
X138531904Y-104115103D01*
X138330284Y-104249821D01*
X138158821Y-104421284D01*
X138024103Y-104622904D01*
X137931308Y-104846932D01*
X137884001Y-105084758D01*
X137884001Y-105327244D01*
X137931308Y-105565070D01*
X138024103Y-105789098D01*
X138158821Y-105990718D01*
X138163103Y-105995000D01*
X137526899Y-105995000D01*
X137531181Y-105990718D01*
X137665899Y-105789098D01*
X137758694Y-105565070D01*
X137806001Y-105327244D01*
X137806001Y-105084758D01*
X137758694Y-104846932D01*
X137665899Y-104622904D01*
X137531181Y-104421284D01*
X137359718Y-104249821D01*
X137158098Y-104115103D01*
X136934070Y-104022308D01*
X136696244Y-103975001D01*
X136453758Y-103975001D01*
X136215932Y-104022308D01*
X135991904Y-104115103D01*
X135790284Y-104249821D01*
X135618821Y-104421284D01*
X135484103Y-104622904D01*
X135391308Y-104846932D01*
X135344001Y-105084758D01*
X135344001Y-105327244D01*
X135391308Y-105565070D01*
X135484103Y-105789098D01*
X135618821Y-105990718D01*
X135623103Y-105995000D01*
X134986899Y-105995000D01*
X134991181Y-105990718D01*
X135125899Y-105789098D01*
X135218694Y-105565070D01*
X135266001Y-105327244D01*
X135266001Y-105084758D01*
X135218694Y-104846932D01*
X135125899Y-104622904D01*
X134991181Y-104421284D01*
X134819718Y-104249821D01*
X134618098Y-104115103D01*
X134394070Y-104022308D01*
X134156244Y-103975001D01*
X133913758Y-103975001D01*
X133675932Y-104022308D01*
X133451904Y-104115103D01*
X133250284Y-104249821D01*
X133078821Y-104421284D01*
X132944103Y-104622904D01*
X132851308Y-104846932D01*
X132804001Y-105084758D01*
X132804001Y-105327244D01*
X132851308Y-105565070D01*
X132944103Y-105789098D01*
X133078821Y-105990718D01*
X133083103Y-105995000D01*
X132446899Y-105995000D01*
X132451181Y-105990718D01*
X132585899Y-105789098D01*
X132678694Y-105565070D01*
X132726001Y-105327244D01*
X132726001Y-105084758D01*
X132678694Y-104846932D01*
X132585899Y-104622904D01*
X132451181Y-104421284D01*
X132279718Y-104249821D01*
X132078098Y-104115103D01*
X131854070Y-104022308D01*
X131616244Y-103975001D01*
X131373758Y-103975001D01*
X131135932Y-104022308D01*
X130911904Y-104115103D01*
X130710284Y-104249821D01*
X130538821Y-104421284D01*
X130404103Y-104622904D01*
X130311308Y-104846932D01*
X130264001Y-105084758D01*
X130264001Y-105327244D01*
X130311308Y-105565070D01*
X130404103Y-105789098D01*
X130538821Y-105990718D01*
X130543103Y-105995000D01*
X129906899Y-105995000D01*
X129911181Y-105990718D01*
X130045899Y-105789098D01*
X130138694Y-105565070D01*
X130186001Y-105327244D01*
X130186001Y-105084758D01*
X130138694Y-104846932D01*
X130045899Y-104622904D01*
X129911181Y-104421284D01*
X129739718Y-104249821D01*
X129538098Y-104115103D01*
X129314070Y-104022308D01*
X129076244Y-103975001D01*
X128833758Y-103975001D01*
X128595932Y-104022308D01*
X128371904Y-104115103D01*
X128170284Y-104249821D01*
X127998821Y-104421284D01*
X127864103Y-104622904D01*
X127771308Y-104846932D01*
X127724001Y-105084758D01*
X127724001Y-105327244D01*
X127771308Y-105565070D01*
X127864103Y-105789098D01*
X127998821Y-105990718D01*
X128003103Y-105995000D01*
X127366899Y-105995000D01*
X127371181Y-105990718D01*
X127505899Y-105789098D01*
X127598694Y-105565070D01*
X127646001Y-105327244D01*
X127646001Y-105084758D01*
X127598694Y-104846932D01*
X127505899Y-104622904D01*
X127371181Y-104421284D01*
X127199718Y-104249821D01*
X126998098Y-104115103D01*
X126774070Y-104022308D01*
X126536244Y-103975001D01*
X126293758Y-103975001D01*
X126055932Y-104022308D01*
X125831904Y-104115103D01*
X125630284Y-104249821D01*
X125458821Y-104421284D01*
X125324103Y-104622904D01*
X125231308Y-104846932D01*
X125184001Y-105084758D01*
X125184001Y-105327244D01*
X125231308Y-105565070D01*
X125324103Y-105789098D01*
X125458821Y-105990718D01*
X125463103Y-105995000D01*
X124826899Y-105995000D01*
X124831181Y-105990718D01*
X124965899Y-105789098D01*
X125058694Y-105565070D01*
X125106001Y-105327244D01*
X125106001Y-105084758D01*
X125058694Y-104846932D01*
X124965899Y-104622904D01*
X124831181Y-104421284D01*
X124659718Y-104249821D01*
X124458098Y-104115103D01*
X124234070Y-104022308D01*
X123996244Y-103975001D01*
X123753758Y-103975001D01*
X123515932Y-104022308D01*
X123291904Y-104115103D01*
X123090284Y-104249821D01*
X122918821Y-104421284D01*
X122784103Y-104622904D01*
X122740853Y-104727318D01*
X122685920Y-104572254D01*
X122612473Y-104434844D01*
X122363398Y-104357209D01*
X121514606Y-105206001D01*
X121528749Y-105220144D01*
X121349144Y-105399749D01*
X121335001Y-105385606D01*
X121320859Y-105399749D01*
X121141254Y-105220144D01*
X121155396Y-105206001D01*
X120306604Y-104357209D01*
X120057529Y-104434844D01*
X119931630Y-104698884D01*
X119926212Y-104720229D01*
X119885899Y-104622904D01*
X119751181Y-104421284D01*
X119579718Y-104249821D01*
X119471638Y-104177604D01*
X120486209Y-104177604D01*
X121335001Y-105026396D01*
X122183793Y-104177604D01*
X122106158Y-103928529D01*
X121842118Y-103802630D01*
X121734688Y-103775361D01*
X153994001Y-103775361D01*
X153994001Y-104096641D01*
X154056679Y-104411746D01*
X154179627Y-104708569D01*
X154358120Y-104975703D01*
X154585299Y-105202882D01*
X154852433Y-105381375D01*
X155149256Y-105504323D01*
X155464361Y-105567001D01*
X155785641Y-105567001D01*
X156100746Y-105504323D01*
X156397569Y-105381375D01*
X156664703Y-105202882D01*
X156891882Y-104975703D01*
X157070375Y-104708569D01*
X157193323Y-104411746D01*
X157256001Y-104096641D01*
X157256001Y-103775361D01*
X157193323Y-103460256D01*
X157070375Y-103163433D01*
X156891882Y-102896299D01*
X156664703Y-102669120D01*
X156397569Y-102490627D01*
X156100746Y-102367679D01*
X155785641Y-102305001D01*
X155464361Y-102305001D01*
X155149256Y-102367679D01*
X154852433Y-102490627D01*
X154585299Y-102669120D01*
X154358120Y-102896299D01*
X154179627Y-103163433D01*
X154056679Y-103460256D01*
X153994001Y-103775361D01*
X121734688Y-103775361D01*
X121558590Y-103730662D01*
X121266470Y-103715390D01*
X120976982Y-103757402D01*
X120701254Y-103855082D01*
X120563844Y-103928529D01*
X120486209Y-104177604D01*
X119471638Y-104177604D01*
X119378098Y-104115103D01*
X119154070Y-104022308D01*
X118916244Y-103975001D01*
X118673758Y-103975001D01*
X118435932Y-104022308D01*
X118211904Y-104115103D01*
X118010284Y-104249821D01*
X117838821Y-104421284D01*
X117704103Y-104622904D01*
X117611308Y-104846932D01*
X117564001Y-105084758D01*
X117564001Y-105327244D01*
X117611308Y-105565070D01*
X117704103Y-105789098D01*
X117838821Y-105990718D01*
X117843103Y-105995000D01*
X117206899Y-105995000D01*
X117211181Y-105990718D01*
X117345899Y-105789098D01*
X117438694Y-105565070D01*
X117486001Y-105327244D01*
X117486001Y-105084758D01*
X117438694Y-104846932D01*
X117345899Y-104622904D01*
X117211181Y-104421284D01*
X117039718Y-104249821D01*
X116838098Y-104115103D01*
X116614070Y-104022308D01*
X116376244Y-103975001D01*
X116133758Y-103975001D01*
X115895932Y-104022308D01*
X115671904Y-104115103D01*
X115470284Y-104249821D01*
X115298821Y-104421284D01*
X115164103Y-104622904D01*
X115071308Y-104846932D01*
X115024001Y-105084758D01*
X115024001Y-105327244D01*
X115071308Y-105565070D01*
X115164103Y-105789098D01*
X115298821Y-105990718D01*
X115303103Y-105995000D01*
X114666899Y-105995000D01*
X114671181Y-105990718D01*
X114805899Y-105789098D01*
X114898694Y-105565070D01*
X114946001Y-105327244D01*
X114946001Y-105084758D01*
X114898694Y-104846932D01*
X114805899Y-104622904D01*
X114671181Y-104421284D01*
X114499718Y-104249821D01*
X114298098Y-104115103D01*
X114172201Y-104062955D01*
X114172201Y-103189377D01*
X114204378Y-103157200D01*
X118977550Y-103157200D01*
X119000000Y-103159411D01*
X119022450Y-103157200D01*
X119022460Y-103157200D01*
X119089627Y-103150585D01*
X119175809Y-103124441D01*
X119255236Y-103081987D01*
X119324853Y-103024853D01*
X119339174Y-103007403D01*
X119607404Y-102739173D01*
X119624853Y-102724853D01*
X119681987Y-102655236D01*
X119724441Y-102575809D01*
X119750585Y-102489627D01*
X119757200Y-102422460D01*
X119757200Y-102422451D01*
X119759411Y-102400001D01*
X119757200Y-102377551D01*
X119757200Y-100572449D01*
X119759411Y-100549999D01*
X119757200Y-100527549D01*
X119757200Y-100527540D01*
X119750585Y-100460373D01*
X119724441Y-100374191D01*
X119681987Y-100294764D01*
X119624853Y-100225147D01*
X119607403Y-100210826D01*
X119339174Y-99942597D01*
X119324853Y-99925147D01*
X119255236Y-99868013D01*
X119175809Y-99825559D01*
X119089627Y-99799415D01*
X119022460Y-99792800D01*
X119022450Y-99792800D01*
X119000000Y-99790589D01*
X118977550Y-99792800D01*
X117820444Y-99792800D01*
X117419220Y-99391577D01*
X117419220Y-97296864D01*
X117634578Y-97512222D01*
X117648890Y-97529661D01*
X117666329Y-97543973D01*
X117666335Y-97543979D01*
X117718507Y-97586796D01*
X117797933Y-97629249D01*
X117884116Y-97655393D01*
X117973743Y-97664220D01*
X117996202Y-97662008D01*
X119515432Y-97662010D01*
X119714836Y-97861414D01*
X119637710Y-97938540D01*
X119558488Y-98057105D01*
X119503919Y-98188846D01*
X119476100Y-98328702D01*
X119476100Y-98471298D01*
X119503919Y-98611154D01*
X119558488Y-98742895D01*
X119637710Y-98861460D01*
X119738540Y-98962290D01*
X119857105Y-99041512D01*
X119988846Y-99096081D01*
X120128702Y-99123900D01*
X120271298Y-99123900D01*
X120411154Y-99096081D01*
X120542895Y-99041512D01*
X120661460Y-98962290D01*
X120762290Y-98861460D01*
X120841512Y-98742895D01*
X120896081Y-98611154D01*
X120923900Y-98471298D01*
X120923900Y-98328702D01*
X120896081Y-98188846D01*
X120841512Y-98057105D01*
X120762290Y-97938540D01*
X120661460Y-97837710D01*
X120657200Y-97834864D01*
X120657200Y-97722449D01*
X120659411Y-97699999D01*
X120657200Y-97677549D01*
X120657200Y-97677540D01*
X120650585Y-97610373D01*
X120624441Y-97524191D01*
X120592622Y-97464661D01*
X120581987Y-97444763D01*
X120539170Y-97392592D01*
X120524853Y-97375147D01*
X120507408Y-97360830D01*
X120503778Y-97357200D01*
X123310623Y-97357200D01*
X123510026Y-97556604D01*
X123432900Y-97633730D01*
X123353678Y-97752295D01*
X123299109Y-97884036D01*
X123271290Y-98023892D01*
X123271290Y-98166488D01*
X123299109Y-98306344D01*
X123353678Y-98438085D01*
X123432900Y-98556650D01*
X123533730Y-98657480D01*
X123652295Y-98736702D01*
X123784036Y-98791271D01*
X123923892Y-98819090D01*
X124066488Y-98819090D01*
X124206344Y-98791271D01*
X124338085Y-98736702D01*
X124456650Y-98657480D01*
X124557480Y-98556650D01*
X124636702Y-98438085D01*
X124691271Y-98306344D01*
X124719090Y-98166488D01*
X124719090Y-98023892D01*
X124691271Y-97884036D01*
X124636702Y-97752295D01*
X124557480Y-97633730D01*
X124456650Y-97532900D01*
X124452390Y-97530054D01*
X124452390Y-97417639D01*
X124454601Y-97395189D01*
X124452390Y-97372739D01*
X124452390Y-97372730D01*
X124445775Y-97305563D01*
X124419631Y-97219381D01*
X124385768Y-97156026D01*
X124377177Y-97139953D01*
X124334360Y-97087782D01*
X124320043Y-97070337D01*
X124302598Y-97056020D01*
X123839174Y-96592597D01*
X123824853Y-96575147D01*
X123755236Y-96518013D01*
X123675809Y-96475559D01*
X123589627Y-96449415D01*
X123522460Y-96442800D01*
X123522450Y-96442800D01*
X123500000Y-96440589D01*
X123477550Y-96442800D01*
X118289378Y-96442800D01*
X118028840Y-96182263D01*
X118028840Y-92510935D01*
X118971838Y-91567938D01*
X118989282Y-91553622D01*
X119046416Y-91484005D01*
X119088870Y-91404578D01*
X119115014Y-91318396D01*
X119121629Y-91251229D01*
X119121629Y-91251220D01*
X119123840Y-91228770D01*
X119121629Y-91206320D01*
X119121629Y-87884000D01*
X119507000Y-87884000D01*
X119507000Y-92710000D01*
X119509440Y-92734776D01*
X119516667Y-92758601D01*
X119528403Y-92780557D01*
X119544197Y-92799803D01*
X119563443Y-92815597D01*
X119585399Y-92827333D01*
X119609224Y-92834560D01*
X119634000Y-92837000D01*
X121145477Y-92837000D01*
X121176815Y-92875185D01*
X121273506Y-92954537D01*
X121383820Y-93013502D01*
X121503518Y-93049812D01*
X121628000Y-93062072D01*
X122142250Y-93059000D01*
X122301000Y-92900250D01*
X122301000Y-92837000D01*
X122555000Y-92837000D01*
X122555000Y-92900250D01*
X122713750Y-93059000D01*
X123228000Y-93062072D01*
X123352482Y-93049812D01*
X123472180Y-93013502D01*
X123582494Y-92954537D01*
X123679185Y-92875185D01*
X123710523Y-92837000D01*
X125222000Y-92837000D01*
X125246776Y-92834560D01*
X125270601Y-92827333D01*
X125292557Y-92815597D01*
X125311803Y-92799803D01*
X125327597Y-92780557D01*
X125339333Y-92758601D01*
X125346560Y-92734776D01*
X125349000Y-92710000D01*
X125349000Y-89081200D01*
X132249623Y-89081200D01*
X132511801Y-89343379D01*
X132511800Y-97605864D01*
X132507540Y-97608710D01*
X132406710Y-97709540D01*
X132327488Y-97828105D01*
X132272919Y-97959846D01*
X132245100Y-98099702D01*
X132245100Y-98242298D01*
X132272919Y-98382154D01*
X132327488Y-98513895D01*
X132406710Y-98632460D01*
X132507540Y-98733290D01*
X132626105Y-98812512D01*
X132757846Y-98867081D01*
X132897702Y-98894900D01*
X133040298Y-98894900D01*
X133180154Y-98867081D01*
X133311895Y-98812512D01*
X133430460Y-98733290D01*
X133531290Y-98632460D01*
X133610512Y-98513895D01*
X133665081Y-98382154D01*
X133692900Y-98242298D01*
X133692900Y-98099702D01*
X133665081Y-97959846D01*
X133610512Y-97828105D01*
X133531290Y-97709540D01*
X133430460Y-97608710D01*
X133426200Y-97605864D01*
X133426200Y-95940702D01*
X135166100Y-95940702D01*
X135166100Y-96083298D01*
X135193919Y-96223154D01*
X135248488Y-96354895D01*
X135327710Y-96473460D01*
X135428540Y-96574290D01*
X135547105Y-96653512D01*
X135678846Y-96708081D01*
X135818702Y-96735900D01*
X135836700Y-96735900D01*
X135836699Y-97516654D01*
X135739846Y-97535919D01*
X135608105Y-97590488D01*
X135489540Y-97669710D01*
X135388710Y-97770540D01*
X135309488Y-97889105D01*
X135254919Y-98020846D01*
X135227100Y-98160702D01*
X135227100Y-98303298D01*
X135254919Y-98443154D01*
X135309488Y-98574895D01*
X135388710Y-98693460D01*
X135489540Y-98794290D01*
X135608105Y-98873512D01*
X135739846Y-98928081D01*
X135879702Y-98955900D01*
X136022298Y-98955900D01*
X136162154Y-98928081D01*
X136293895Y-98873512D01*
X136412460Y-98794290D01*
X136513290Y-98693460D01*
X136592512Y-98574895D01*
X136647081Y-98443154D01*
X136674900Y-98303298D01*
X136674900Y-98160702D01*
X136672472Y-98148497D01*
X136675886Y-98144338D01*
X136702155Y-98095190D01*
X136718340Y-98064910D01*
X136744484Y-97978728D01*
X136751099Y-97911561D01*
X136751099Y-97911552D01*
X136753310Y-97889102D01*
X136751099Y-97866652D01*
X136751099Y-96438348D01*
X136753310Y-96415898D01*
X136751099Y-96393449D01*
X136751099Y-96393439D01*
X136744484Y-96326272D01*
X136718340Y-96240090D01*
X136675886Y-96160663D01*
X136618752Y-96091046D01*
X136613256Y-96086536D01*
X136613900Y-96083298D01*
X136613900Y-95940702D01*
X136586081Y-95800846D01*
X136531512Y-95669105D01*
X136452290Y-95550540D01*
X136351460Y-95449710D01*
X136232895Y-95370488D01*
X136101154Y-95315919D01*
X135961298Y-95288100D01*
X135818702Y-95288100D01*
X135678846Y-95315919D01*
X135547105Y-95370488D01*
X135428540Y-95449710D01*
X135327710Y-95550540D01*
X135248488Y-95669105D01*
X135193919Y-95800846D01*
X135166100Y-95940702D01*
X133426200Y-95940702D01*
X133426200Y-89176449D01*
X133428411Y-89153999D01*
X133426200Y-89131549D01*
X133426200Y-89131540D01*
X133419585Y-89064373D01*
X133393441Y-88978191D01*
X133350987Y-88898764D01*
X133293853Y-88829147D01*
X133276408Y-88814830D01*
X132778174Y-88316597D01*
X132763853Y-88299147D01*
X132694236Y-88242013D01*
X132614809Y-88199559D01*
X132528627Y-88173415D01*
X132461460Y-88166800D01*
X132461450Y-88166800D01*
X132439000Y-88164589D01*
X132416550Y-88166800D01*
X125349000Y-88166800D01*
X125349000Y-87884000D01*
X125346560Y-87859224D01*
X125339333Y-87835399D01*
X125327597Y-87813443D01*
X125311803Y-87794197D01*
X125292557Y-87778403D01*
X125270601Y-87766667D01*
X125246776Y-87759440D01*
X125222000Y-87757000D01*
X123501756Y-87757000D01*
X123498711Y-87753289D01*
X123440696Y-87705678D01*
X123374508Y-87670299D01*
X123302689Y-87648513D01*
X123228000Y-87641157D01*
X121628000Y-87641157D01*
X121553311Y-87648513D01*
X121481492Y-87670299D01*
X121415304Y-87705678D01*
X121357289Y-87753289D01*
X121354244Y-87757000D01*
X119634000Y-87757000D01*
X119609224Y-87759440D01*
X119585399Y-87766667D01*
X119563443Y-87778403D01*
X119544197Y-87794197D01*
X119528403Y-87813443D01*
X119516667Y-87835399D01*
X119509440Y-87859224D01*
X119507000Y-87884000D01*
X119121629Y-87884000D01*
X119121629Y-87456014D01*
X119265634Y-87312010D01*
X124469243Y-87312010D01*
X124537737Y-87380504D01*
X124552058Y-87397954D01*
X124621675Y-87455088D01*
X124701102Y-87497542D01*
X124787284Y-87523686D01*
X124854451Y-87530301D01*
X124854460Y-87530301D01*
X124876910Y-87532512D01*
X124899360Y-87530301D01*
X125904449Y-87530301D01*
X125926899Y-87532512D01*
X125949349Y-87530301D01*
X125949359Y-87530301D01*
X126016526Y-87523686D01*
X126102708Y-87497542D01*
X126182135Y-87455088D01*
X126251752Y-87397954D01*
X126266073Y-87380504D01*
X126339377Y-87307200D01*
X128377550Y-87307200D01*
X128400000Y-87309411D01*
X128422450Y-87307200D01*
X128422460Y-87307200D01*
X128489627Y-87300585D01*
X128575809Y-87274441D01*
X128655236Y-87231987D01*
X128724853Y-87174853D01*
X128739174Y-87157403D01*
X129262410Y-86634168D01*
X129279854Y-86619852D01*
X129300444Y-86594764D01*
X129336988Y-86550235D01*
X129348607Y-86528497D01*
X129379442Y-86470808D01*
X129405586Y-86384626D01*
X129412201Y-86317459D01*
X129412201Y-86317449D01*
X129414412Y-86294999D01*
X129412201Y-86272549D01*
X129412201Y-86029047D01*
X129538098Y-85976899D01*
X129739718Y-85842181D01*
X129911181Y-85670718D01*
X130045899Y-85469098D01*
X130138694Y-85245070D01*
X130186001Y-85007244D01*
X130186001Y-84764758D01*
X130138694Y-84526932D01*
X130045899Y-84302904D01*
X129911181Y-84101284D01*
X129806897Y-83997000D01*
X130643105Y-83997000D01*
X130538821Y-84101284D01*
G36*
X122918821Y-84101284D02*
G01*
X122784103Y-84302904D01*
X122691308Y-84526932D01*
X122644001Y-84764758D01*
X122644001Y-85007244D01*
X122691308Y-85245070D01*
X122784103Y-85469098D01*
X122918821Y-85670718D01*
X123090284Y-85842181D01*
X123291904Y-85976899D01*
X123351739Y-86001683D01*
X123260623Y-86092800D01*
X118972449Y-86092800D01*
X118949999Y-86090589D01*
X118927549Y-86092800D01*
X118927540Y-86092800D01*
X118860373Y-86099415D01*
X118774191Y-86125559D01*
X118737217Y-86145322D01*
X118694763Y-86168013D01*
X118649241Y-86205373D01*
X118625147Y-86225147D01*
X118610830Y-86242592D01*
X118247595Y-86605827D01*
X118218091Y-86576323D01*
X118219090Y-86571298D01*
X118219090Y-86428702D01*
X118191271Y-86288846D01*
X118136702Y-86157105D01*
X118057480Y-86038540D01*
X117956650Y-85937710D01*
X117838085Y-85858488D01*
X117706344Y-85803919D01*
X117566488Y-85776100D01*
X117423892Y-85776100D01*
X117284036Y-85803919D01*
X117152295Y-85858488D01*
X117033730Y-85937710D01*
X116932900Y-86038540D01*
X116853678Y-86157105D01*
X116799109Y-86288846D01*
X116771290Y-86428702D01*
X116771290Y-86571298D01*
X116799109Y-86711154D01*
X116853678Y-86842895D01*
X116932900Y-86961460D01*
X117033730Y-87062290D01*
X117152295Y-87141512D01*
X117284036Y-87196081D01*
X117423892Y-87223900D01*
X117566488Y-87223900D01*
X117571513Y-87222901D01*
X117597611Y-87248999D01*
X117597611Y-87519020D01*
X117561154Y-87503919D01*
X117421298Y-87476100D01*
X117278702Y-87476100D01*
X117138846Y-87503919D01*
X117007105Y-87558488D01*
X116888540Y-87637710D01*
X116787710Y-87738540D01*
X116784864Y-87742800D01*
X115672449Y-87742800D01*
X115649999Y-87740589D01*
X115627549Y-87742800D01*
X115627540Y-87742800D01*
X115560373Y-87749415D01*
X115474191Y-87775559D01*
X115439321Y-87794197D01*
X115394763Y-87818013D01*
X115347131Y-87857105D01*
X115325147Y-87875147D01*
X115310830Y-87892592D01*
X114792592Y-88410831D01*
X114775148Y-88425147D01*
X114760831Y-88442592D01*
X114760830Y-88442593D01*
X114718013Y-88494765D01*
X114704399Y-88520236D01*
X114675560Y-88574191D01*
X114649416Y-88660373D01*
X114645177Y-88703415D01*
X114640589Y-88750000D01*
X114642801Y-88772459D01*
X114642801Y-89032157D01*
X114615000Y-89032157D01*
X114540311Y-89039513D01*
X114468492Y-89061299D01*
X114465000Y-89063166D01*
X114461508Y-89061299D01*
X114389689Y-89039513D01*
X114315000Y-89032157D01*
X113345000Y-89032157D01*
X113270311Y-89039513D01*
X113198492Y-89061299D01*
X113132304Y-89096678D01*
X113074289Y-89144289D01*
X113026678Y-89202304D01*
X112991299Y-89268492D01*
X112969513Y-89340311D01*
X112962157Y-89415000D01*
X112962157Y-90685000D01*
X112969513Y-90759689D01*
X112991299Y-90831508D01*
X113026678Y-90897696D01*
X113074289Y-90955711D01*
X113132304Y-91003322D01*
X113198492Y-91038701D01*
X113270311Y-91060487D01*
X113345000Y-91067843D01*
X114315000Y-91067843D01*
X114389689Y-91060487D01*
X114461508Y-91038701D01*
X114465000Y-91036834D01*
X114468492Y-91038701D01*
X114540311Y-91060487D01*
X114615000Y-91067843D01*
X115585000Y-91067843D01*
X115659689Y-91060487D01*
X115692001Y-91050685D01*
X115692000Y-100320244D01*
X115633296Y-100359469D01*
X115509469Y-100483296D01*
X115412179Y-100628901D01*
X115345164Y-100790688D01*
X115311000Y-100962441D01*
X115311000Y-101137559D01*
X115345164Y-101309312D01*
X115412179Y-101471099D01*
X115509469Y-101616704D01*
X115633296Y-101740531D01*
X115778901Y-101837821D01*
X115940688Y-101904836D01*
X116112441Y-101939000D01*
X116287559Y-101939000D01*
X116459312Y-101904836D01*
X116621099Y-101837821D01*
X116766704Y-101740531D01*
X116890531Y-101616704D01*
X116987821Y-101471099D01*
X117054836Y-101309312D01*
X117089000Y-101137559D01*
X117089000Y-100962441D01*
X117054836Y-100790688D01*
X117027064Y-100723642D01*
X117427099Y-101123677D01*
X117426100Y-101128702D01*
X117426100Y-101271298D01*
X117453919Y-101411154D01*
X117508488Y-101542895D01*
X117587710Y-101661460D01*
X117688540Y-101762290D01*
X117807105Y-101841512D01*
X117938846Y-101896081D01*
X118078702Y-101923900D01*
X118221298Y-101923900D01*
X118361154Y-101896081D01*
X118492895Y-101841512D01*
X118611460Y-101762290D01*
X118712290Y-101661460D01*
X118791512Y-101542895D01*
X118842801Y-101419074D01*
X118842800Y-102210623D01*
X118810623Y-102242800D01*
X114037450Y-102242800D01*
X114015000Y-102240589D01*
X113992550Y-102242800D01*
X113992541Y-102242800D01*
X113925374Y-102249415D01*
X113839192Y-102275559D01*
X113759765Y-102318013D01*
X113690148Y-102375147D01*
X113675827Y-102392597D01*
X113407594Y-102660830D01*
X113390149Y-102675147D01*
X113375832Y-102692592D01*
X113375831Y-102692593D01*
X113333014Y-102744765D01*
X113290561Y-102824191D01*
X113268687Y-102896299D01*
X113264417Y-102910374D01*
X113255590Y-103000000D01*
X113257802Y-103022460D01*
X113257802Y-104062955D01*
X113131904Y-104115103D01*
X112930284Y-104249821D01*
X112758821Y-104421284D01*
X112624103Y-104622904D01*
X112531308Y-104846932D01*
X112484001Y-105084758D01*
X112484001Y-105327244D01*
X112531308Y-105565070D01*
X112624103Y-105789098D01*
X112758821Y-105990718D01*
X112763103Y-105995000D01*
X110003079Y-105995000D01*
X109572763Y-105952807D01*
X109179111Y-105833957D01*
X108816043Y-105640911D01*
X108497383Y-105381018D01*
X108235274Y-105064183D01*
X108039697Y-104702472D01*
X107918101Y-104309658D01*
X107873000Y-103880554D01*
X107873000Y-103750739D01*
X108024001Y-103750739D01*
X108024001Y-104121263D01*
X108096287Y-104484668D01*
X108238081Y-104826988D01*
X108443933Y-105135068D01*
X108705934Y-105397069D01*
X109014014Y-105602921D01*
X109356334Y-105744715D01*
X109719739Y-105817001D01*
X110090263Y-105817001D01*
X110453668Y-105744715D01*
X110795988Y-105602921D01*
X111104068Y-105397069D01*
X111366069Y-105135068D01*
X111571921Y-104826988D01*
X111713715Y-104484668D01*
X111786001Y-104121263D01*
X111786001Y-103750739D01*
X111713715Y-103387334D01*
X111571921Y-103045014D01*
X111366069Y-102736934D01*
X111104068Y-102474933D01*
X110795988Y-102269081D01*
X110453668Y-102127287D01*
X110090263Y-102055001D01*
X109719739Y-102055001D01*
X109356334Y-102127287D01*
X109014014Y-102269081D01*
X108705934Y-102474933D01*
X108443933Y-102736934D01*
X108238081Y-103045014D01*
X108096287Y-103387334D01*
X108024001Y-103750739D01*
X107873000Y-103750739D01*
X107873000Y-99032843D01*
X109662500Y-99032843D01*
X109737189Y-99025487D01*
X109809008Y-99003701D01*
X109875196Y-98968322D01*
X109933211Y-98920711D01*
X109980822Y-98862696D01*
X110016201Y-98796508D01*
X110037987Y-98724689D01*
X110045343Y-98650000D01*
X110045343Y-97450000D01*
X110037987Y-97375311D01*
X110016201Y-97303492D01*
X109980822Y-97237304D01*
X109933211Y-97179289D01*
X109875196Y-97131678D01*
X109809008Y-97096299D01*
X109737189Y-97074513D01*
X109662500Y-97067157D01*
X107873000Y-97067157D01*
X107873000Y-97050000D01*
X111224428Y-97050000D01*
X111236688Y-97174482D01*
X111272998Y-97294180D01*
X111331963Y-97404494D01*
X111411315Y-97501185D01*
X111508006Y-97580537D01*
X111618320Y-97639502D01*
X111738018Y-97675812D01*
X111862500Y-97688072D01*
X112351750Y-97685000D01*
X112510500Y-97526250D01*
X112510500Y-96877000D01*
X112764500Y-96877000D01*
X112764500Y-97526250D01*
X112923250Y-97685000D01*
X113412500Y-97688072D01*
X113536982Y-97675812D01*
X113656680Y-97639502D01*
X113766994Y-97580537D01*
X113863685Y-97501185D01*
X113943037Y-97404494D01*
X114002002Y-97294180D01*
X114038312Y-97174482D01*
X114050572Y-97050000D01*
X114047500Y-97035750D01*
X113888750Y-96877000D01*
X112764500Y-96877000D01*
X112510500Y-96877000D01*
X111386250Y-96877000D01*
X111227500Y-97035750D01*
X111224428Y-97050000D01*
X107873000Y-97050000D01*
X107873000Y-96128702D01*
X109826100Y-96128702D01*
X109826100Y-96271298D01*
X109853919Y-96411154D01*
X109908488Y-96542895D01*
X109987710Y-96661460D01*
X110088540Y-96762290D01*
X110207105Y-96841512D01*
X110338846Y-96896081D01*
X110478702Y-96923900D01*
X110621298Y-96923900D01*
X110761154Y-96896081D01*
X110892895Y-96841512D01*
X111011460Y-96762290D01*
X111112290Y-96661460D01*
X111191512Y-96542895D01*
X111226332Y-96458832D01*
X111227500Y-96464250D01*
X111386250Y-96623000D01*
X112510500Y-96623000D01*
X112510500Y-96603000D01*
X112764500Y-96603000D01*
X112764500Y-96623000D01*
X113888750Y-96623000D01*
X114047500Y-96464250D01*
X114050572Y-96450000D01*
X114038312Y-96325518D01*
X114002002Y-96205820D01*
X113943037Y-96095506D01*
X113863685Y-95998815D01*
X113795343Y-95942728D01*
X113795343Y-95450000D01*
X113787987Y-95375311D01*
X113766201Y-95303492D01*
X113737608Y-95250000D01*
X113766201Y-95196508D01*
X113787987Y-95124689D01*
X113795343Y-95050000D01*
X113795343Y-94450000D01*
X113787987Y-94375311D01*
X113766201Y-94303492D01*
X113737608Y-94250000D01*
X113766201Y-94196508D01*
X113787987Y-94124689D01*
X113795343Y-94050000D01*
X113795343Y-93450000D01*
X113787987Y-93375311D01*
X113766201Y-93303492D01*
X113730822Y-93237304D01*
X113683211Y-93179289D01*
X113625196Y-93131678D01*
X113559008Y-93096299D01*
X113487189Y-93074513D01*
X113412500Y-93067157D01*
X113094700Y-93067157D01*
X113094700Y-92911475D01*
X113142895Y-92891512D01*
X113261460Y-92812290D01*
X113362290Y-92711460D01*
X113441512Y-92592895D01*
X113496081Y-92461154D01*
X113523900Y-92321298D01*
X113523900Y-92178702D01*
X113496081Y-92038846D01*
X113441512Y-91907105D01*
X113362290Y-91788540D01*
X113261460Y-91687710D01*
X113142895Y-91608488D01*
X113011154Y-91553919D01*
X112871298Y-91526100D01*
X112728702Y-91526100D01*
X112588846Y-91553919D01*
X112457105Y-91608488D01*
X112338540Y-91687710D01*
X112237710Y-91788540D01*
X112158488Y-91907105D01*
X112103919Y-92038846D01*
X112076100Y-92178702D01*
X112076100Y-92321298D01*
X112103919Y-92461154D01*
X112158488Y-92592895D01*
X112180301Y-92625540D01*
X112180301Y-93067157D01*
X111862500Y-93067157D01*
X111787811Y-93074513D01*
X111715992Y-93096299D01*
X111649804Y-93131678D01*
X111591789Y-93179289D01*
X111544178Y-93237304D01*
X111508799Y-93303492D01*
X111487013Y-93375311D01*
X111479657Y-93450000D01*
X111479657Y-93603005D01*
X111361154Y-93553919D01*
X111221298Y-93526100D01*
X111078702Y-93526100D01*
X110938846Y-93553919D01*
X110807105Y-93608488D01*
X110688540Y-93687710D01*
X110587710Y-93788540D01*
X110508488Y-93907105D01*
X110453919Y-94038846D01*
X110426100Y-94178702D01*
X110426100Y-94321298D01*
X110453919Y-94461154D01*
X110508488Y-94592895D01*
X110587710Y-94711460D01*
X110688540Y-94812290D01*
X110807105Y-94891512D01*
X110938846Y-94946081D01*
X111078702Y-94973900D01*
X111221298Y-94973900D01*
X111226323Y-94972901D01*
X111310830Y-95057408D01*
X111325147Y-95074853D01*
X111342592Y-95089170D01*
X111394764Y-95131987D01*
X111474190Y-95174441D01*
X111489704Y-95179147D01*
X111504934Y-95183767D01*
X111508799Y-95196508D01*
X111537392Y-95250000D01*
X111514514Y-95292800D01*
X111022449Y-95292800D01*
X110999999Y-95290589D01*
X110977549Y-95292800D01*
X110977540Y-95292800D01*
X110910373Y-95299415D01*
X110824191Y-95325559D01*
X110744764Y-95368013D01*
X110675147Y-95425147D01*
X110660830Y-95442592D01*
X110626323Y-95477099D01*
X110621298Y-95476100D01*
X110478702Y-95476100D01*
X110338846Y-95503919D01*
X110207105Y-95558488D01*
X110088540Y-95637710D01*
X109987710Y-95738540D01*
X109908488Y-95857105D01*
X109853919Y-95988846D01*
X109826100Y-96128702D01*
X107873000Y-96128702D01*
X107873000Y-93432843D01*
X109662500Y-93432843D01*
X109737189Y-93425487D01*
X109809008Y-93403701D01*
X109875196Y-93368322D01*
X109933211Y-93320711D01*
X109980822Y-93262696D01*
X110016201Y-93196508D01*
X110037987Y-93124689D01*
X110045343Y-93050000D01*
X110045343Y-91850000D01*
X110037987Y-91775311D01*
X110016201Y-91703492D01*
X109980822Y-91637304D01*
X109933211Y-91579289D01*
X109875196Y-91531678D01*
X109809008Y-91496299D01*
X109737189Y-91474513D01*
X109662500Y-91467157D01*
X107873000Y-91467157D01*
X107873000Y-86127079D01*
X107888329Y-85970739D01*
X108024001Y-85970739D01*
X108024001Y-86341263D01*
X108096287Y-86704668D01*
X108238081Y-87046988D01*
X108443933Y-87355068D01*
X108705934Y-87617069D01*
X109014014Y-87822921D01*
X109356334Y-87964715D01*
X109719739Y-88037001D01*
X110090263Y-88037001D01*
X110453668Y-87964715D01*
X110795988Y-87822921D01*
X111104068Y-87617069D01*
X111366069Y-87355068D01*
X111571921Y-87046988D01*
X111713715Y-86704668D01*
X111786001Y-86341263D01*
X111786001Y-85970739D01*
X111713715Y-85607334D01*
X111571921Y-85265014D01*
X111366069Y-84956934D01*
X111104068Y-84694933D01*
X110795988Y-84489081D01*
X110453668Y-84347287D01*
X110090263Y-84275001D01*
X109719739Y-84275001D01*
X109356334Y-84347287D01*
X109014014Y-84489081D01*
X108705934Y-84694933D01*
X108443933Y-84956934D01*
X108238081Y-85265014D01*
X108096287Y-85607334D01*
X108024001Y-85970739D01*
X107888329Y-85970739D01*
X107915193Y-85696762D01*
X108034044Y-85303107D01*
X108227089Y-84940043D01*
X108486979Y-84621385D01*
X108803820Y-84359272D01*
X109165528Y-84163697D01*
X109558343Y-84042101D01*
X109987446Y-83997000D01*
X123023105Y-83997000D01*
X122918821Y-84101284D01*
G37*
X122918821Y-84101284D02*
X122784103Y-84302904D01*
X122691308Y-84526932D01*
X122644001Y-84764758D01*
X122644001Y-85007244D01*
X122691308Y-85245070D01*
X122784103Y-85469098D01*
X122918821Y-85670718D01*
X123090284Y-85842181D01*
X123291904Y-85976899D01*
X123351739Y-86001683D01*
X123260623Y-86092800D01*
X118972449Y-86092800D01*
X118949999Y-86090589D01*
X118927549Y-86092800D01*
X118927540Y-86092800D01*
X118860373Y-86099415D01*
X118774191Y-86125559D01*
X118737217Y-86145322D01*
X118694763Y-86168013D01*
X118649241Y-86205373D01*
X118625147Y-86225147D01*
X118610830Y-86242592D01*
X118247595Y-86605827D01*
X118218091Y-86576323D01*
X118219090Y-86571298D01*
X118219090Y-86428702D01*
X118191271Y-86288846D01*
X118136702Y-86157105D01*
X118057480Y-86038540D01*
X117956650Y-85937710D01*
X117838085Y-85858488D01*
X117706344Y-85803919D01*
X117566488Y-85776100D01*
X117423892Y-85776100D01*
X117284036Y-85803919D01*
X117152295Y-85858488D01*
X117033730Y-85937710D01*
X116932900Y-86038540D01*
X116853678Y-86157105D01*
X116799109Y-86288846D01*
X116771290Y-86428702D01*
X116771290Y-86571298D01*
X116799109Y-86711154D01*
X116853678Y-86842895D01*
X116932900Y-86961460D01*
X117033730Y-87062290D01*
X117152295Y-87141512D01*
X117284036Y-87196081D01*
X117423892Y-87223900D01*
X117566488Y-87223900D01*
X117571513Y-87222901D01*
X117597611Y-87248999D01*
X117597611Y-87519020D01*
X117561154Y-87503919D01*
X117421298Y-87476100D01*
X117278702Y-87476100D01*
X117138846Y-87503919D01*
X117007105Y-87558488D01*
X116888540Y-87637710D01*
X116787710Y-87738540D01*
X116784864Y-87742800D01*
X115672449Y-87742800D01*
X115649999Y-87740589D01*
X115627549Y-87742800D01*
X115627540Y-87742800D01*
X115560373Y-87749415D01*
X115474191Y-87775559D01*
X115439321Y-87794197D01*
X115394763Y-87818013D01*
X115347131Y-87857105D01*
X115325147Y-87875147D01*
X115310830Y-87892592D01*
X114792592Y-88410831D01*
X114775148Y-88425147D01*
X114760831Y-88442592D01*
X114760830Y-88442593D01*
X114718013Y-88494765D01*
X114704399Y-88520236D01*
X114675560Y-88574191D01*
X114649416Y-88660373D01*
X114645177Y-88703415D01*
X114640589Y-88750000D01*
X114642801Y-88772459D01*
X114642801Y-89032157D01*
X114615000Y-89032157D01*
X114540311Y-89039513D01*
X114468492Y-89061299D01*
X114465000Y-89063166D01*
X114461508Y-89061299D01*
X114389689Y-89039513D01*
X114315000Y-89032157D01*
X113345000Y-89032157D01*
X113270311Y-89039513D01*
X113198492Y-89061299D01*
X113132304Y-89096678D01*
X113074289Y-89144289D01*
X113026678Y-89202304D01*
X112991299Y-89268492D01*
X112969513Y-89340311D01*
X112962157Y-89415000D01*
X112962157Y-90685000D01*
X112969513Y-90759689D01*
X112991299Y-90831508D01*
X113026678Y-90897696D01*
X113074289Y-90955711D01*
X113132304Y-91003322D01*
X113198492Y-91038701D01*
X113270311Y-91060487D01*
X113345000Y-91067843D01*
X114315000Y-91067843D01*
X114389689Y-91060487D01*
X114461508Y-91038701D01*
X114465000Y-91036834D01*
X114468492Y-91038701D01*
X114540311Y-91060487D01*
X114615000Y-91067843D01*
X115585000Y-91067843D01*
X115659689Y-91060487D01*
X115692001Y-91050685D01*
X115692000Y-100320244D01*
X115633296Y-100359469D01*
X115509469Y-100483296D01*
X115412179Y-100628901D01*
X115345164Y-100790688D01*
X115311000Y-100962441D01*
X115311000Y-101137559D01*
X115345164Y-101309312D01*
X115412179Y-101471099D01*
X115509469Y-101616704D01*
X115633296Y-101740531D01*
X115778901Y-101837821D01*
X115940688Y-101904836D01*
X116112441Y-101939000D01*
X116287559Y-101939000D01*
X116459312Y-101904836D01*
X116621099Y-101837821D01*
X116766704Y-101740531D01*
X116890531Y-101616704D01*
X116987821Y-101471099D01*
X117054836Y-101309312D01*
X117089000Y-101137559D01*
X117089000Y-100962441D01*
X117054836Y-100790688D01*
X117027064Y-100723642D01*
X117427099Y-101123677D01*
X117426100Y-101128702D01*
X117426100Y-101271298D01*
X117453919Y-101411154D01*
X117508488Y-101542895D01*
X117587710Y-101661460D01*
X117688540Y-101762290D01*
X117807105Y-101841512D01*
X117938846Y-101896081D01*
X118078702Y-101923900D01*
X118221298Y-101923900D01*
X118361154Y-101896081D01*
X118492895Y-101841512D01*
X118611460Y-101762290D01*
X118712290Y-101661460D01*
X118791512Y-101542895D01*
X118842801Y-101419074D01*
X118842800Y-102210623D01*
X118810623Y-102242800D01*
X114037450Y-102242800D01*
X114015000Y-102240589D01*
X113992550Y-102242800D01*
X113992541Y-102242800D01*
X113925374Y-102249415D01*
X113839192Y-102275559D01*
X113759765Y-102318013D01*
X113690148Y-102375147D01*
X113675827Y-102392597D01*
X113407594Y-102660830D01*
X113390149Y-102675147D01*
X113375832Y-102692592D01*
X113375831Y-102692593D01*
X113333014Y-102744765D01*
X113290561Y-102824191D01*
X113268687Y-102896299D01*
X113264417Y-102910374D01*
X113255590Y-103000000D01*
X113257802Y-103022460D01*
X113257802Y-104062955D01*
X113131904Y-104115103D01*
X112930284Y-104249821D01*
X112758821Y-104421284D01*
X112624103Y-104622904D01*
X112531308Y-104846932D01*
X112484001Y-105084758D01*
X112484001Y-105327244D01*
X112531308Y-105565070D01*
X112624103Y-105789098D01*
X112758821Y-105990718D01*
X112763103Y-105995000D01*
X110003079Y-105995000D01*
X109572763Y-105952807D01*
X109179111Y-105833957D01*
X108816043Y-105640911D01*
X108497383Y-105381018D01*
X108235274Y-105064183D01*
X108039697Y-104702472D01*
X107918101Y-104309658D01*
X107873000Y-103880554D01*
X107873000Y-103750739D01*
X108024001Y-103750739D01*
X108024001Y-104121263D01*
X108096287Y-104484668D01*
X108238081Y-104826988D01*
X108443933Y-105135068D01*
X108705934Y-105397069D01*
X109014014Y-105602921D01*
X109356334Y-105744715D01*
X109719739Y-105817001D01*
X110090263Y-105817001D01*
X110453668Y-105744715D01*
X110795988Y-105602921D01*
X111104068Y-105397069D01*
X111366069Y-105135068D01*
X111571921Y-104826988D01*
X111713715Y-104484668D01*
X111786001Y-104121263D01*
X111786001Y-103750739D01*
X111713715Y-103387334D01*
X111571921Y-103045014D01*
X111366069Y-102736934D01*
X111104068Y-102474933D01*
X110795988Y-102269081D01*
X110453668Y-102127287D01*
X110090263Y-102055001D01*
X109719739Y-102055001D01*
X109356334Y-102127287D01*
X109014014Y-102269081D01*
X108705934Y-102474933D01*
X108443933Y-102736934D01*
X108238081Y-103045014D01*
X108096287Y-103387334D01*
X108024001Y-103750739D01*
X107873000Y-103750739D01*
X107873000Y-99032843D01*
X109662500Y-99032843D01*
X109737189Y-99025487D01*
X109809008Y-99003701D01*
X109875196Y-98968322D01*
X109933211Y-98920711D01*
X109980822Y-98862696D01*
X110016201Y-98796508D01*
X110037987Y-98724689D01*
X110045343Y-98650000D01*
X110045343Y-97450000D01*
X110037987Y-97375311D01*
X110016201Y-97303492D01*
X109980822Y-97237304D01*
X109933211Y-97179289D01*
X109875196Y-97131678D01*
X109809008Y-97096299D01*
X109737189Y-97074513D01*
X109662500Y-97067157D01*
X107873000Y-97067157D01*
X107873000Y-97050000D01*
X111224428Y-97050000D01*
X111236688Y-97174482D01*
X111272998Y-97294180D01*
X111331963Y-97404494D01*
X111411315Y-97501185D01*
X111508006Y-97580537D01*
X111618320Y-97639502D01*
X111738018Y-97675812D01*
X111862500Y-97688072D01*
X112351750Y-97685000D01*
X112510500Y-97526250D01*
X112510500Y-96877000D01*
X112764500Y-96877000D01*
X112764500Y-97526250D01*
X112923250Y-97685000D01*
X113412500Y-97688072D01*
X113536982Y-97675812D01*
X113656680Y-97639502D01*
X113766994Y-97580537D01*
X113863685Y-97501185D01*
X113943037Y-97404494D01*
X114002002Y-97294180D01*
X114038312Y-97174482D01*
X114050572Y-97050000D01*
X114047500Y-97035750D01*
X113888750Y-96877000D01*
X112764500Y-96877000D01*
X112510500Y-96877000D01*
X111386250Y-96877000D01*
X111227500Y-97035750D01*
X111224428Y-97050000D01*
X107873000Y-97050000D01*
X107873000Y-96128702D01*
X109826100Y-96128702D01*
X109826100Y-96271298D01*
X109853919Y-96411154D01*
X109908488Y-96542895D01*
X109987710Y-96661460D01*
X110088540Y-96762290D01*
X110207105Y-96841512D01*
X110338846Y-96896081D01*
X110478702Y-96923900D01*
X110621298Y-96923900D01*
X110761154Y-96896081D01*
X110892895Y-96841512D01*
X111011460Y-96762290D01*
X111112290Y-96661460D01*
X111191512Y-96542895D01*
X111226332Y-96458832D01*
X111227500Y-96464250D01*
X111386250Y-96623000D01*
X112510500Y-96623000D01*
X112510500Y-96603000D01*
X112764500Y-96603000D01*
X112764500Y-96623000D01*
X113888750Y-96623000D01*
X114047500Y-96464250D01*
X114050572Y-96450000D01*
X114038312Y-96325518D01*
X114002002Y-96205820D01*
X113943037Y-96095506D01*
X113863685Y-95998815D01*
X113795343Y-95942728D01*
X113795343Y-95450000D01*
X113787987Y-95375311D01*
X113766201Y-95303492D01*
X113737608Y-95250000D01*
X113766201Y-95196508D01*
X113787987Y-95124689D01*
X113795343Y-95050000D01*
X113795343Y-94450000D01*
X113787987Y-94375311D01*
X113766201Y-94303492D01*
X113737608Y-94250000D01*
X113766201Y-94196508D01*
X113787987Y-94124689D01*
X113795343Y-94050000D01*
X113795343Y-93450000D01*
X113787987Y-93375311D01*
X113766201Y-93303492D01*
X113730822Y-93237304D01*
X113683211Y-93179289D01*
X113625196Y-93131678D01*
X113559008Y-93096299D01*
X113487189Y-93074513D01*
X113412500Y-93067157D01*
X113094700Y-93067157D01*
X113094700Y-92911475D01*
X113142895Y-92891512D01*
X113261460Y-92812290D01*
X113362290Y-92711460D01*
X113441512Y-92592895D01*
X113496081Y-92461154D01*
X113523900Y-92321298D01*
X113523900Y-92178702D01*
X113496081Y-92038846D01*
X113441512Y-91907105D01*
X113362290Y-91788540D01*
X113261460Y-91687710D01*
X113142895Y-91608488D01*
X113011154Y-91553919D01*
X112871298Y-91526100D01*
X112728702Y-91526100D01*
X112588846Y-91553919D01*
X112457105Y-91608488D01*
X112338540Y-91687710D01*
X112237710Y-91788540D01*
X112158488Y-91907105D01*
X112103919Y-92038846D01*
X112076100Y-92178702D01*
X112076100Y-92321298D01*
X112103919Y-92461154D01*
X112158488Y-92592895D01*
X112180301Y-92625540D01*
X112180301Y-93067157D01*
X111862500Y-93067157D01*
X111787811Y-93074513D01*
X111715992Y-93096299D01*
X111649804Y-93131678D01*
X111591789Y-93179289D01*
X111544178Y-93237304D01*
X111508799Y-93303492D01*
X111487013Y-93375311D01*
X111479657Y-93450000D01*
X111479657Y-93603005D01*
X111361154Y-93553919D01*
X111221298Y-93526100D01*
X111078702Y-93526100D01*
X110938846Y-93553919D01*
X110807105Y-93608488D01*
X110688540Y-93687710D01*
X110587710Y-93788540D01*
X110508488Y-93907105D01*
X110453919Y-94038846D01*
X110426100Y-94178702D01*
X110426100Y-94321298D01*
X110453919Y-94461154D01*
X110508488Y-94592895D01*
X110587710Y-94711460D01*
X110688540Y-94812290D01*
X110807105Y-94891512D01*
X110938846Y-94946081D01*
X111078702Y-94973900D01*
X111221298Y-94973900D01*
X111226323Y-94972901D01*
X111310830Y-95057408D01*
X111325147Y-95074853D01*
X111342592Y-95089170D01*
X111394764Y-95131987D01*
X111474190Y-95174441D01*
X111489704Y-95179147D01*
X111504934Y-95183767D01*
X111508799Y-95196508D01*
X111537392Y-95250000D01*
X111514514Y-95292800D01*
X111022449Y-95292800D01*
X110999999Y-95290589D01*
X110977549Y-95292800D01*
X110977540Y-95292800D01*
X110910373Y-95299415D01*
X110824191Y-95325559D01*
X110744764Y-95368013D01*
X110675147Y-95425147D01*
X110660830Y-95442592D01*
X110626323Y-95477099D01*
X110621298Y-95476100D01*
X110478702Y-95476100D01*
X110338846Y-95503919D01*
X110207105Y-95558488D01*
X110088540Y-95637710D01*
X109987710Y-95738540D01*
X109908488Y-95857105D01*
X109853919Y-95988846D01*
X109826100Y-96128702D01*
X107873000Y-96128702D01*
X107873000Y-93432843D01*
X109662500Y-93432843D01*
X109737189Y-93425487D01*
X109809008Y-93403701D01*
X109875196Y-93368322D01*
X109933211Y-93320711D01*
X109980822Y-93262696D01*
X110016201Y-93196508D01*
X110037987Y-93124689D01*
X110045343Y-93050000D01*
X110045343Y-91850000D01*
X110037987Y-91775311D01*
X110016201Y-91703492D01*
X109980822Y-91637304D01*
X109933211Y-91579289D01*
X109875196Y-91531678D01*
X109809008Y-91496299D01*
X109737189Y-91474513D01*
X109662500Y-91467157D01*
X107873000Y-91467157D01*
X107873000Y-86127079D01*
X107888329Y-85970739D01*
X108024001Y-85970739D01*
X108024001Y-86341263D01*
X108096287Y-86704668D01*
X108238081Y-87046988D01*
X108443933Y-87355068D01*
X108705934Y-87617069D01*
X109014014Y-87822921D01*
X109356334Y-87964715D01*
X109719739Y-88037001D01*
X110090263Y-88037001D01*
X110453668Y-87964715D01*
X110795988Y-87822921D01*
X111104068Y-87617069D01*
X111366069Y-87355068D01*
X111571921Y-87046988D01*
X111713715Y-86704668D01*
X111786001Y-86341263D01*
X111786001Y-85970739D01*
X111713715Y-85607334D01*
X111571921Y-85265014D01*
X111366069Y-84956934D01*
X111104068Y-84694933D01*
X110795988Y-84489081D01*
X110453668Y-84347287D01*
X110090263Y-84275001D01*
X109719739Y-84275001D01*
X109356334Y-84347287D01*
X109014014Y-84489081D01*
X108705934Y-84694933D01*
X108443933Y-84956934D01*
X108238081Y-85265014D01*
X108096287Y-85607334D01*
X108024001Y-85970739D01*
X107888329Y-85970739D01*
X107915193Y-85696762D01*
X108034044Y-85303107D01*
X108227089Y-84940043D01*
X108486979Y-84621385D01*
X108803820Y-84359272D01*
X109165528Y-84163697D01*
X109558343Y-84042101D01*
X109987446Y-83997000D01*
X123023105Y-83997000D01*
X122918821Y-84101284D01*
G36*
X141852488Y-88811105D02*
G01*
X141797919Y-88942846D01*
X141770100Y-89082702D01*
X141770100Y-89225298D01*
X141797919Y-89365154D01*
X141852488Y-89496895D01*
X141931710Y-89615460D01*
X142032540Y-89716290D01*
X142036800Y-89719137D01*
X142036800Y-90041157D01*
X142009000Y-90041157D01*
X141934311Y-90048513D01*
X141862492Y-90070299D01*
X141796304Y-90105678D01*
X141738289Y-90153289D01*
X141690678Y-90211304D01*
X141655299Y-90277492D01*
X141633513Y-90349311D01*
X141626157Y-90424000D01*
X141626157Y-91694000D01*
X141633513Y-91768689D01*
X141655299Y-91840508D01*
X141690678Y-91906696D01*
X141738289Y-91964711D01*
X141796304Y-92012322D01*
X141862492Y-92047701D01*
X141934311Y-92069487D01*
X142009000Y-92076843D01*
X142979000Y-92076843D01*
X143053689Y-92069487D01*
X143125508Y-92047701D01*
X143129000Y-92045834D01*
X143132492Y-92047701D01*
X143204311Y-92069487D01*
X143279000Y-92076843D01*
X143306801Y-92076843D01*
X143306800Y-94869617D01*
X143304589Y-94892067D01*
X143306800Y-94914517D01*
X143306800Y-94914526D01*
X143313415Y-94981693D01*
X143339559Y-95067875D01*
X143382013Y-95147302D01*
X143439147Y-95216920D01*
X143456597Y-95231241D01*
X144650155Y-96424800D01*
X140759378Y-96424800D01*
X139709664Y-95375086D01*
X139754290Y-95330460D01*
X139833512Y-95211895D01*
X139888081Y-95080154D01*
X139915900Y-94940298D01*
X139915900Y-94797702D01*
X139888081Y-94657846D01*
X139833512Y-94526105D01*
X139754290Y-94407540D01*
X139653460Y-94306710D01*
X139534895Y-94227488D01*
X139403154Y-94172919D01*
X139263298Y-94145100D01*
X139120702Y-94145100D01*
X138980846Y-94172919D01*
X138849105Y-94227488D01*
X138730540Y-94306710D01*
X138629710Y-94407540D01*
X138550488Y-94526105D01*
X138495919Y-94657846D01*
X138468100Y-94797702D01*
X138468100Y-94940298D01*
X138495919Y-95080154D01*
X138550488Y-95211895D01*
X138629710Y-95330460D01*
X138730540Y-95431290D01*
X138734800Y-95434137D01*
X138734800Y-95481550D01*
X138732589Y-95504000D01*
X138734800Y-95526450D01*
X138734800Y-95526459D01*
X138741415Y-95593626D01*
X138767559Y-95679808D01*
X138810013Y-95759235D01*
X138867147Y-95828853D01*
X138884597Y-95843174D01*
X140230830Y-97189408D01*
X140245147Y-97206853D01*
X140262592Y-97221170D01*
X140314763Y-97263987D01*
X140336414Y-97275559D01*
X140394191Y-97306441D01*
X140480373Y-97332585D01*
X140547540Y-97339200D01*
X140547549Y-97339200D01*
X140569999Y-97341411D01*
X140592449Y-97339200D01*
X144703864Y-97339200D01*
X144706710Y-97343460D01*
X144807540Y-97444290D01*
X144926105Y-97523512D01*
X145057846Y-97578081D01*
X145101680Y-97586800D01*
X142158517Y-97586800D01*
X142136067Y-97584589D01*
X142113617Y-97586800D01*
X142113607Y-97586800D01*
X142046440Y-97593415D01*
X141980316Y-97613474D01*
X141960257Y-97619559D01*
X141880831Y-97662013D01*
X141828659Y-97704829D01*
X141828653Y-97704835D01*
X141811214Y-97719147D01*
X141796902Y-97736586D01*
X140789592Y-98743898D01*
X140772148Y-98758214D01*
X140757831Y-98775659D01*
X140757830Y-98775660D01*
X140715013Y-98827832D01*
X140695994Y-98863415D01*
X140672560Y-98907258D01*
X140646416Y-98993440D01*
X140645889Y-98998795D01*
X140635540Y-99005710D01*
X140534710Y-99106540D01*
X140531864Y-99110800D01*
X138365378Y-99110800D01*
X138125200Y-98870623D01*
X138125200Y-92076843D01*
X138153000Y-92076843D01*
X138227689Y-92069487D01*
X138299508Y-92047701D01*
X138303000Y-92045834D01*
X138306492Y-92047701D01*
X138378311Y-92069487D01*
X138453000Y-92076843D01*
X139423000Y-92076843D01*
X139497689Y-92069487D01*
X139569508Y-92047701D01*
X139635696Y-92012322D01*
X139693711Y-91964711D01*
X139741322Y-91906696D01*
X139776701Y-91840508D01*
X139798487Y-91768689D01*
X139805843Y-91694000D01*
X139805843Y-90424000D01*
X139798487Y-90349311D01*
X139776701Y-90277492D01*
X139741322Y-90211304D01*
X139693711Y-90153289D01*
X139635696Y-90105678D01*
X139569508Y-90070299D01*
X139497689Y-90048513D01*
X139423000Y-90041157D01*
X139395200Y-90041157D01*
X139395200Y-89343377D01*
X140016378Y-88722200D01*
X141911892Y-88722200D01*
X141852488Y-88811105D01*
G37*
X141852488Y-88811105D02*
X141797919Y-88942846D01*
X141770100Y-89082702D01*
X141770100Y-89225298D01*
X141797919Y-89365154D01*
X141852488Y-89496895D01*
X141931710Y-89615460D01*
X142032540Y-89716290D01*
X142036800Y-89719137D01*
X142036800Y-90041157D01*
X142009000Y-90041157D01*
X141934311Y-90048513D01*
X141862492Y-90070299D01*
X141796304Y-90105678D01*
X141738289Y-90153289D01*
X141690678Y-90211304D01*
X141655299Y-90277492D01*
X141633513Y-90349311D01*
X141626157Y-90424000D01*
X141626157Y-91694000D01*
X141633513Y-91768689D01*
X141655299Y-91840508D01*
X141690678Y-91906696D01*
X141738289Y-91964711D01*
X141796304Y-92012322D01*
X141862492Y-92047701D01*
X141934311Y-92069487D01*
X142009000Y-92076843D01*
X142979000Y-92076843D01*
X143053689Y-92069487D01*
X143125508Y-92047701D01*
X143129000Y-92045834D01*
X143132492Y-92047701D01*
X143204311Y-92069487D01*
X143279000Y-92076843D01*
X143306801Y-92076843D01*
X143306800Y-94869617D01*
X143304589Y-94892067D01*
X143306800Y-94914517D01*
X143306800Y-94914526D01*
X143313415Y-94981693D01*
X143339559Y-95067875D01*
X143382013Y-95147302D01*
X143439147Y-95216920D01*
X143456597Y-95231241D01*
X144650155Y-96424800D01*
X140759378Y-96424800D01*
X139709664Y-95375086D01*
X139754290Y-95330460D01*
X139833512Y-95211895D01*
X139888081Y-95080154D01*
X139915900Y-94940298D01*
X139915900Y-94797702D01*
X139888081Y-94657846D01*
X139833512Y-94526105D01*
X139754290Y-94407540D01*
X139653460Y-94306710D01*
X139534895Y-94227488D01*
X139403154Y-94172919D01*
X139263298Y-94145100D01*
X139120702Y-94145100D01*
X138980846Y-94172919D01*
X138849105Y-94227488D01*
X138730540Y-94306710D01*
X138629710Y-94407540D01*
X138550488Y-94526105D01*
X138495919Y-94657846D01*
X138468100Y-94797702D01*
X138468100Y-94940298D01*
X138495919Y-95080154D01*
X138550488Y-95211895D01*
X138629710Y-95330460D01*
X138730540Y-95431290D01*
X138734800Y-95434137D01*
X138734800Y-95481550D01*
X138732589Y-95504000D01*
X138734800Y-95526450D01*
X138734800Y-95526459D01*
X138741415Y-95593626D01*
X138767559Y-95679808D01*
X138810013Y-95759235D01*
X138867147Y-95828853D01*
X138884597Y-95843174D01*
X140230830Y-97189408D01*
X140245147Y-97206853D01*
X140262592Y-97221170D01*
X140314763Y-97263987D01*
X140336414Y-97275559D01*
X140394191Y-97306441D01*
X140480373Y-97332585D01*
X140547540Y-97339200D01*
X140547549Y-97339200D01*
X140569999Y-97341411D01*
X140592449Y-97339200D01*
X144703864Y-97339200D01*
X144706710Y-97343460D01*
X144807540Y-97444290D01*
X144926105Y-97523512D01*
X145057846Y-97578081D01*
X145101680Y-97586800D01*
X142158517Y-97586800D01*
X142136067Y-97584589D01*
X142113617Y-97586800D01*
X142113607Y-97586800D01*
X142046440Y-97593415D01*
X141980316Y-97613474D01*
X141960257Y-97619559D01*
X141880831Y-97662013D01*
X141828659Y-97704829D01*
X141828653Y-97704835D01*
X141811214Y-97719147D01*
X141796902Y-97736586D01*
X140789592Y-98743898D01*
X140772148Y-98758214D01*
X140757831Y-98775659D01*
X140757830Y-98775660D01*
X140715013Y-98827832D01*
X140695994Y-98863415D01*
X140672560Y-98907258D01*
X140646416Y-98993440D01*
X140645889Y-98998795D01*
X140635540Y-99005710D01*
X140534710Y-99106540D01*
X140531864Y-99110800D01*
X138365378Y-99110800D01*
X138125200Y-98870623D01*
X138125200Y-92076843D01*
X138153000Y-92076843D01*
X138227689Y-92069487D01*
X138299508Y-92047701D01*
X138303000Y-92045834D01*
X138306492Y-92047701D01*
X138378311Y-92069487D01*
X138453000Y-92076843D01*
X139423000Y-92076843D01*
X139497689Y-92069487D01*
X139569508Y-92047701D01*
X139635696Y-92012322D01*
X139693711Y-91964711D01*
X139741322Y-91906696D01*
X139776701Y-91840508D01*
X139798487Y-91768689D01*
X139805843Y-91694000D01*
X139805843Y-90424000D01*
X139798487Y-90349311D01*
X139776701Y-90277492D01*
X139741322Y-90211304D01*
X139693711Y-90153289D01*
X139635696Y-90105678D01*
X139569508Y-90070299D01*
X139497689Y-90048513D01*
X139423000Y-90041157D01*
X139395200Y-90041157D01*
X139395200Y-89343377D01*
X140016378Y-88722200D01*
X141911892Y-88722200D01*
X141852488Y-88811105D01*
G36*
X147497801Y-89343379D02*
G01*
X147497801Y-90635624D01*
X147495809Y-90634559D01*
X147409627Y-90608415D01*
X147342460Y-90601800D01*
X147342450Y-90601800D01*
X147320000Y-90599589D01*
X147297550Y-90601800D01*
X145901843Y-90601800D01*
X145901843Y-90424000D01*
X145894487Y-90349311D01*
X145872701Y-90277492D01*
X145837322Y-90211304D01*
X145789711Y-90153289D01*
X145731696Y-90105678D01*
X145665508Y-90070299D01*
X145593689Y-90048513D01*
X145519000Y-90041157D01*
X144549000Y-90041157D01*
X144474311Y-90048513D01*
X144402492Y-90070299D01*
X144399000Y-90072166D01*
X144395508Y-90070299D01*
X144323689Y-90048513D01*
X144249000Y-90041157D01*
X143279000Y-90041157D01*
X143204311Y-90048513D01*
X143132492Y-90070299D01*
X143129000Y-90072166D01*
X143125508Y-90070299D01*
X143053689Y-90048513D01*
X142979000Y-90041157D01*
X142951200Y-90041157D01*
X142951200Y-89719136D01*
X142955460Y-89716290D01*
X143056290Y-89615460D01*
X143135512Y-89496895D01*
X143190081Y-89365154D01*
X143217900Y-89225298D01*
X143217900Y-89082702D01*
X143190081Y-88942846D01*
X143135512Y-88811105D01*
X143076108Y-88722200D01*
X146876623Y-88722200D01*
X147497801Y-89343379D01*
G37*
X147497801Y-89343379D02*
X147497801Y-90635624D01*
X147495809Y-90634559D01*
X147409627Y-90608415D01*
X147342460Y-90601800D01*
X147342450Y-90601800D01*
X147320000Y-90599589D01*
X147297550Y-90601800D01*
X145901843Y-90601800D01*
X145901843Y-90424000D01*
X145894487Y-90349311D01*
X145872701Y-90277492D01*
X145837322Y-90211304D01*
X145789711Y-90153289D01*
X145731696Y-90105678D01*
X145665508Y-90070299D01*
X145593689Y-90048513D01*
X145519000Y-90041157D01*
X144549000Y-90041157D01*
X144474311Y-90048513D01*
X144402492Y-90070299D01*
X144399000Y-90072166D01*
X144395508Y-90070299D01*
X144323689Y-90048513D01*
X144249000Y-90041157D01*
X143279000Y-90041157D01*
X143204311Y-90048513D01*
X143132492Y-90070299D01*
X143129000Y-90072166D01*
X143125508Y-90070299D01*
X143053689Y-90048513D01*
X142979000Y-90041157D01*
X142951200Y-90041157D01*
X142951200Y-89719136D01*
X142955460Y-89716290D01*
X143056290Y-89615460D01*
X143135512Y-89496895D01*
X143190081Y-89365154D01*
X143217900Y-89225298D01*
X143217900Y-89082702D01*
X143190081Y-88942846D01*
X143135512Y-88811105D01*
X143076108Y-88722200D01*
X146876623Y-88722200D01*
X147497801Y-89343379D01*
G36*
X138630597Y-88814826D02*
G01*
X138613147Y-88829147D01*
X138556013Y-88898765D01*
X138513559Y-88978192D01*
X138487415Y-89064374D01*
X138480800Y-89131541D01*
X138480800Y-89131550D01*
X138478589Y-89154000D01*
X138480800Y-89176450D01*
X138480800Y-90041157D01*
X138453000Y-90041157D01*
X138378311Y-90048513D01*
X138306492Y-90070299D01*
X138303000Y-90072166D01*
X138299508Y-90070299D01*
X138227689Y-90048513D01*
X138153000Y-90041157D01*
X137183000Y-90041157D01*
X137108311Y-90048513D01*
X137036492Y-90070299D01*
X137033000Y-90072166D01*
X137029508Y-90070299D01*
X136957689Y-90048513D01*
X136883000Y-90041157D01*
X136855200Y-90041157D01*
X136855200Y-88791377D01*
X137229188Y-88417390D01*
X139028033Y-88417390D01*
X138630597Y-88814826D01*
G37*
X138630597Y-88814826D02*
X138613147Y-88829147D01*
X138556013Y-88898765D01*
X138513559Y-88978192D01*
X138487415Y-89064374D01*
X138480800Y-89131541D01*
X138480800Y-89131550D01*
X138478589Y-89154000D01*
X138480800Y-89176450D01*
X138480800Y-90041157D01*
X138453000Y-90041157D01*
X138378311Y-90048513D01*
X138306492Y-90070299D01*
X138303000Y-90072166D01*
X138299508Y-90070299D01*
X138227689Y-90048513D01*
X138153000Y-90041157D01*
X137183000Y-90041157D01*
X137108311Y-90048513D01*
X137036492Y-90070299D01*
X137033000Y-90072166D01*
X137029508Y-90070299D01*
X136957689Y-90048513D01*
X136883000Y-90041157D01*
X136855200Y-90041157D01*
X136855200Y-88791377D01*
X137229188Y-88417390D01*
X139028033Y-88417390D01*
X138630597Y-88814826D01*
G36*
X125458821Y-84101284D02*
G01*
X125324103Y-84302904D01*
X125231308Y-84526932D01*
X125184001Y-84764758D01*
X125184001Y-85007244D01*
X125231308Y-85245070D01*
X125324103Y-85469098D01*
X125458821Y-85670718D01*
X125630284Y-85842181D01*
X125831904Y-85976899D01*
X126055932Y-86069694D01*
X126293758Y-86117001D01*
X126536244Y-86117001D01*
X126774070Y-86069694D01*
X126998098Y-85976899D01*
X127199718Y-85842181D01*
X127371181Y-85670718D01*
X127505899Y-85469098D01*
X127598694Y-85245070D01*
X127646001Y-85007244D01*
X127646001Y-84764758D01*
X127598694Y-84526932D01*
X127505899Y-84302904D01*
X127371181Y-84101284D01*
X127266897Y-83997000D01*
X128103105Y-83997000D01*
X127998821Y-84101284D01*
X127864103Y-84302904D01*
X127771308Y-84526932D01*
X127724001Y-84764758D01*
X127724001Y-85007244D01*
X127771308Y-85245070D01*
X127864103Y-85469098D01*
X127998821Y-85670718D01*
X128170284Y-85842181D01*
X128371904Y-85976899D01*
X128497801Y-86029047D01*
X128497801Y-86105621D01*
X128210623Y-86392800D01*
X126172449Y-86392800D01*
X126149999Y-86390589D01*
X126127549Y-86392800D01*
X126127540Y-86392800D01*
X126060373Y-86399415D01*
X125974191Y-86425559D01*
X125894764Y-86468013D01*
X125825147Y-86525147D01*
X125810826Y-86542597D01*
X125737522Y-86615901D01*
X125066288Y-86615901D01*
X124997794Y-86547407D01*
X124983473Y-86529957D01*
X124913856Y-86472823D01*
X124834429Y-86430369D01*
X124748247Y-86404225D01*
X124681080Y-86397610D01*
X124681070Y-86397610D01*
X124658620Y-86395399D01*
X124636170Y-86397610D01*
X124242729Y-86397610D01*
X124256988Y-86380235D01*
X124299442Y-86300808D01*
X124325586Y-86214626D01*
X124332201Y-86147459D01*
X124332201Y-86147450D01*
X124334412Y-86125000D01*
X124332201Y-86102550D01*
X124332201Y-86029047D01*
X124458098Y-85976899D01*
X124659718Y-85842181D01*
X124831181Y-85670718D01*
X124965899Y-85469098D01*
X125058694Y-85245070D01*
X125106001Y-85007244D01*
X125106001Y-84764758D01*
X125058694Y-84526932D01*
X124965899Y-84302904D01*
X124831181Y-84101284D01*
X124726897Y-83997000D01*
X125563105Y-83997000D01*
X125458821Y-84101284D01*
G37*
X125458821Y-84101284D02*
X125324103Y-84302904D01*
X125231308Y-84526932D01*
X125184001Y-84764758D01*
X125184001Y-85007244D01*
X125231308Y-85245070D01*
X125324103Y-85469098D01*
X125458821Y-85670718D01*
X125630284Y-85842181D01*
X125831904Y-85976899D01*
X126055932Y-86069694D01*
X126293758Y-86117001D01*
X126536244Y-86117001D01*
X126774070Y-86069694D01*
X126998098Y-85976899D01*
X127199718Y-85842181D01*
X127371181Y-85670718D01*
X127505899Y-85469098D01*
X127598694Y-85245070D01*
X127646001Y-85007244D01*
X127646001Y-84764758D01*
X127598694Y-84526932D01*
X127505899Y-84302904D01*
X127371181Y-84101284D01*
X127266897Y-83997000D01*
X128103105Y-83997000D01*
X127998821Y-84101284D01*
X127864103Y-84302904D01*
X127771308Y-84526932D01*
X127724001Y-84764758D01*
X127724001Y-85007244D01*
X127771308Y-85245070D01*
X127864103Y-85469098D01*
X127998821Y-85670718D01*
X128170284Y-85842181D01*
X128371904Y-85976899D01*
X128497801Y-86029047D01*
X128497801Y-86105621D01*
X128210623Y-86392800D01*
X126172449Y-86392800D01*
X126149999Y-86390589D01*
X126127549Y-86392800D01*
X126127540Y-86392800D01*
X126060373Y-86399415D01*
X125974191Y-86425559D01*
X125894764Y-86468013D01*
X125825147Y-86525147D01*
X125810826Y-86542597D01*
X125737522Y-86615901D01*
X125066288Y-86615901D01*
X124997794Y-86547407D01*
X124983473Y-86529957D01*
X124913856Y-86472823D01*
X124834429Y-86430369D01*
X124748247Y-86404225D01*
X124681080Y-86397610D01*
X124681070Y-86397610D01*
X124658620Y-86395399D01*
X124636170Y-86397610D01*
X124242729Y-86397610D01*
X124256988Y-86380235D01*
X124299442Y-86300808D01*
X124325586Y-86214626D01*
X124332201Y-86147459D01*
X124332201Y-86147450D01*
X124334412Y-86125000D01*
X124332201Y-86102550D01*
X124332201Y-86029047D01*
X124458098Y-85976899D01*
X124659718Y-85842181D01*
X124831181Y-85670718D01*
X124965899Y-85469098D01*
X125058694Y-85245070D01*
X125106001Y-85007244D01*
X125106001Y-84764758D01*
X125058694Y-84526932D01*
X124965899Y-84302904D01*
X124831181Y-84101284D01*
X124726897Y-83997000D01*
X125563105Y-83997000D01*
X125458821Y-84101284D01*
M02*
