G04 #@! TF.GenerationSoftware,KiCad,Pcbnew,(5.0.0-rc2-dev-444-g2974a2c10)*
G04 #@! TF.CreationDate,2019-12-09T12:09:48-08:00*
G04 #@! TF.ProjectId,Stemma_Host_FeatherWing,5374656D6D615F486F73745F46656174,v02*
G04 #@! TF.SameCoordinates,Original*
G04 #@! TF.FileFunction,Soldermask,Bot*
G04 #@! TF.FilePolarity,Negative*
%FSLAX46Y46*%
G04 Gerber Fmt 4.6, Leading zero omitted, Abs format (unit mm)*
G04 Created by KiCad (PCBNEW (5.0.0-rc2-dev-444-g2974a2c10)) date 12/09/19 12:09:48*
%MOMM*%
%LPD*%
G01*
G04 APERTURE LIST*
%ADD10C,0.150000*%
%ADD11R,1.071600X1.371600*%
%ADD12C,1.801600*%
%ADD13C,2.601600*%
%ADD14C,3.101600*%
%ADD15R,1.701600X1.301600*%
%ADD16R,1.371600X1.071600*%
G04 APERTURE END LIST*
D10*
G36*
X114450000Y-89150000D02*
X113300000Y-89150000D01*
X113300000Y-92500000D01*
X114450000Y-92500000D01*
X114450000Y-89150000D01*
G37*
X114450000Y-89150000D02*
X113300000Y-89150000D01*
X113300000Y-92500000D01*
X114450000Y-92500000D01*
X114450000Y-89150000D01*
G36*
X145450000Y-91650000D02*
X145450000Y-90500000D01*
X142100000Y-90500000D01*
X142100000Y-91650000D01*
X145450000Y-91650000D01*
G37*
X145450000Y-91650000D02*
X145450000Y-90500000D01*
X142100000Y-90500000D01*
X142100000Y-91650000D01*
X145450000Y-91650000D01*
G36*
X139300000Y-91600000D02*
X139300000Y-90500000D01*
X136000000Y-90500000D01*
X136000000Y-91600000D01*
X139300000Y-91600000D01*
G37*
X139300000Y-91600000D02*
X139300000Y-90500000D01*
X136000000Y-90500000D01*
X136000000Y-91600000D01*
X139300000Y-91600000D01*
G36*
X121038000Y-89054000D02*
X119938000Y-90224000D01*
X120818000Y-89794000D01*
X119838000Y-90814000D01*
X120708000Y-90554000D01*
X119858000Y-91594000D01*
X120858000Y-91284000D01*
X120858000Y-92554000D01*
X121188000Y-92554000D01*
X121188000Y-91284000D01*
X122178000Y-91594000D01*
X121368000Y-90584000D01*
X122158000Y-90774000D01*
X121348000Y-89894000D01*
X121978000Y-90094000D01*
X121038000Y-89054000D01*
G37*
X121038000Y-89054000D02*
X119938000Y-90224000D01*
X120818000Y-89794000D01*
X119838000Y-90814000D01*
X120708000Y-90554000D01*
X119858000Y-91594000D01*
X120858000Y-91284000D01*
X120858000Y-92554000D01*
X121188000Y-92554000D01*
X121188000Y-91284000D01*
X122178000Y-91594000D01*
X121368000Y-90584000D01*
X122158000Y-90774000D01*
X121348000Y-89894000D01*
X121978000Y-90094000D01*
X121038000Y-89054000D01*
G36*
X122428000Y-88284000D02*
X121318000Y-89384000D01*
X122304000Y-89047000D01*
X121218000Y-90034000D01*
X122304000Y-89682000D01*
X121208000Y-90824000D01*
X122258000Y-90444000D01*
X122258000Y-91774000D01*
X122638000Y-91774000D01*
X122638000Y-90444000D01*
X123768000Y-90764000D01*
X122558000Y-89682000D01*
X123668000Y-89984000D01*
X122558000Y-89047000D01*
X123488000Y-89404000D01*
X122428000Y-88284000D01*
G37*
X122428000Y-88284000D02*
X121318000Y-89384000D01*
X122304000Y-89047000D01*
X121218000Y-90034000D01*
X122304000Y-89682000D01*
X121208000Y-90824000D01*
X122258000Y-90444000D01*
X122258000Y-91774000D01*
X122638000Y-91774000D01*
X122638000Y-90444000D01*
X123768000Y-90764000D01*
X122558000Y-89682000D01*
X123668000Y-89984000D01*
X122558000Y-89047000D01*
X123488000Y-89404000D01*
X122428000Y-88284000D01*
G36*
X123818000Y-89034000D02*
X122748000Y-90214000D01*
X123618000Y-89824000D01*
X122658000Y-90824000D01*
X123568000Y-90504000D01*
X122648000Y-91624000D01*
X123658000Y-91264000D01*
X123655000Y-92552000D01*
X124018000Y-92564000D01*
X123998000Y-91284000D01*
X125008000Y-91624000D01*
X124108000Y-90544000D01*
X125008000Y-90804000D01*
X123998000Y-89774000D01*
X124918000Y-90234000D01*
X123818000Y-89034000D01*
G37*
X123818000Y-89034000D02*
X122748000Y-90214000D01*
X123618000Y-89824000D01*
X122658000Y-90824000D01*
X123568000Y-90504000D01*
X122648000Y-91624000D01*
X123658000Y-91264000D01*
X123655000Y-92552000D01*
X124018000Y-92564000D01*
X123998000Y-91284000D01*
X125008000Y-91624000D01*
X124108000Y-90544000D01*
X125008000Y-90804000D01*
X123998000Y-89774000D01*
X124918000Y-90234000D01*
X123818000Y-89034000D01*
G36*
X121408000Y-89354000D02*
X121408000Y-91154000D01*
X123418000Y-91174000D01*
X123418000Y-89374000D01*
X121408000Y-89354000D01*
G37*
X121408000Y-89354000D02*
X121408000Y-91154000D01*
X123418000Y-91174000D01*
X123418000Y-89374000D01*
X121408000Y-89354000D01*
D11*
X136398000Y-91059000D03*
X137668000Y-91059000D03*
X138938000Y-91059000D03*
X145034000Y-91059000D03*
X143764000Y-91059000D03*
X142494000Y-91059000D03*
D12*
X113715001Y-105206001D03*
X116255001Y-105206001D03*
X118795001Y-105206001D03*
X121335001Y-105206001D03*
X123875001Y-105206001D03*
X126415001Y-105206001D03*
X128955001Y-105206001D03*
X131495001Y-105206001D03*
X134035001Y-105206001D03*
X136575001Y-105206001D03*
X139115001Y-105206001D03*
X141655001Y-105206001D03*
X144195001Y-105206001D03*
X146735001Y-105206001D03*
X149275001Y-105206001D03*
X151815001Y-105206001D03*
X123875001Y-84886001D03*
X126415001Y-84886001D03*
X128955001Y-84886001D03*
X131495001Y-84886001D03*
X134035001Y-84886001D03*
X136575001Y-84886001D03*
X139115001Y-84886001D03*
X141655001Y-84886001D03*
X144195001Y-84886001D03*
X146735001Y-84886001D03*
X149275001Y-84886001D03*
X151815001Y-84886001D03*
D13*
X155625001Y-86156001D03*
X155625001Y-103936001D03*
D14*
X109905001Y-103936001D03*
X109905001Y-86156001D03*
D15*
X122428000Y-91824000D03*
X122428000Y-88624000D03*
D16*
X113900000Y-92070000D03*
X113900000Y-90800000D03*
X113900000Y-89530000D03*
M02*
