%FSLAX45Y45*%
G04 Gerber Fmt 4.5, Leading zero omitted, Abs format (unit mm)*
G04 Created by KiCad (PCBNEW (5.0.0-rc2-dev-444-g2974a2c10)) date 12/09/19 12:09:51*
%MOMM*%
%LPD*%
G01*
G04 APERTURE LIST*
%ADD10C,0.100000*%
%ADD11C,0.200000*%
%ADD12C,0.300000*%
G04 APERTURE END LIST*
D10*
X10998200Y-10642600D02*
G75*
G02X10744200Y-10388600I0J254000D01*
G01*
X15824200Y-10388600D02*
G75*
G02X15570200Y-10642600I-254000J0D01*
G01*
X10744200Y-8610600D02*
G75*
G02X10998200Y-8356600I254000J0D01*
G01*
X15570200Y-8356600D02*
G75*
G02X15824200Y-8610600I0J-254000D01*
G01*
X10744200Y-8610600D02*
X10744200Y-10388600D01*
X15570200Y-8356600D02*
X10998200Y-8356600D01*
X15824200Y-10388600D02*
X15824200Y-8610600D01*
X10998200Y-10642600D02*
X15570200Y-10642600D01*
D11*
X11053490Y-9513490D02*
X11086510Y-9546510D01*
X11086510Y-9513490D02*
X11053490Y-9546510D01*
X11223490Y-10353490D02*
X11256510Y-10386510D01*
X11256510Y-10353490D02*
X11223490Y-10386510D01*
X11286490Y-8542490D02*
X11319510Y-8575510D01*
X11319510Y-8542490D02*
X11286490Y-8575510D01*
X11373490Y-10103490D02*
X11406510Y-10136510D01*
X11406510Y-10103490D02*
X11373490Y-10136510D01*
X11733009Y-8633490D02*
X11766029Y-8666510D01*
X11766029Y-8633490D02*
X11733009Y-8666510D01*
X12003490Y-9823490D02*
X12036510Y-9856510D01*
X12036510Y-9823490D02*
X12003490Y-9856510D01*
X12150090Y-8542490D02*
X12183110Y-8575510D01*
X12183110Y-8542490D02*
X12150090Y-8575510D01*
X12383009Y-9793009D02*
X12416029Y-9826029D01*
X12416029Y-9793009D02*
X12383009Y-9826029D01*
X12503490Y-8623490D02*
X12536510Y-8656510D01*
X12536510Y-8623490D02*
X12503490Y-8656510D01*
X12773490Y-9763490D02*
X12806510Y-9796510D01*
X12806510Y-9763490D02*
X12773490Y-9796510D01*
X13280390Y-9800590D02*
X13313410Y-9833610D01*
X13313410Y-9800590D02*
X13280390Y-9833610D01*
X13572490Y-9584690D02*
X13605510Y-9617710D01*
X13605510Y-9584690D02*
X13572490Y-9617710D01*
X13578590Y-9806690D02*
X13611610Y-9839710D01*
X13611610Y-9806690D02*
X13578590Y-9839710D01*
X13743490Y-8883490D02*
X13776510Y-8916510D01*
X13776510Y-8883490D02*
X13743490Y-8916510D01*
X13902690Y-9470390D02*
X13935710Y-9503410D01*
X13935710Y-9470390D02*
X13902690Y-9503410D01*
X14067790Y-9279890D02*
X14100810Y-9312910D01*
X14100810Y-9279890D02*
X14067790Y-9312910D01*
X14093190Y-9940290D02*
X14126210Y-9973310D01*
X14126210Y-9940290D02*
X14093190Y-9973310D01*
X14232890Y-8898890D02*
X14265910Y-8931910D01*
X14265910Y-8898890D02*
X14232890Y-8931910D01*
X14283690Y-9940290D02*
X14316710Y-9973310D01*
X14316710Y-9940290D02*
X14283690Y-9973310D01*
X14510390Y-9671690D02*
X14543410Y-9704710D01*
X14543410Y-9671690D02*
X14510390Y-9704710D01*
X14524990Y-9978390D02*
X14558010Y-10011410D01*
X14558010Y-9978390D02*
X14524990Y-10011410D01*
X14601190Y-9787890D02*
X14634210Y-9820910D01*
X14634210Y-9787890D02*
X14601190Y-9820910D01*
X14623490Y-8938490D02*
X14656510Y-8971510D01*
X14656510Y-8938490D02*
X14623490Y-8971510D01*
X14638490Y-9638490D02*
X14671510Y-9671510D01*
X14671510Y-9638490D02*
X14638490Y-9671510D01*
X14658340Y-10060940D02*
X14691360Y-10093960D01*
X14691360Y-10060940D02*
X14658340Y-10093960D01*
X14778990Y-10270490D02*
X14812010Y-10303510D01*
X14812010Y-10270490D02*
X14778990Y-10303510D01*
X15045690Y-8670290D02*
X15078710Y-8703310D01*
X15078710Y-8670290D02*
X15045690Y-8703310D01*
X15045690Y-10270490D02*
X15078710Y-10303510D01*
X15078710Y-10270490D02*
X15045690Y-10303510D01*
X15312390Y-8771890D02*
X15345410Y-8804910D01*
X15345410Y-8771890D02*
X15312390Y-8804910D01*
X15312390Y-10270490D02*
X15345410Y-10303510D01*
X15345410Y-10270490D02*
X15312390Y-10303510D01*
X15503490Y-9463490D02*
X15536510Y-9496510D01*
X15536510Y-9463490D02*
X15503490Y-9496510D01*
X11235400Y-9850000D02*
G75*
G03X11235400Y-9850000I-25400J0D01*
G01*
X11371500Y-10470600D02*
X11371500Y-10570600D01*
X11321500Y-10520600D02*
X11421500Y-10520600D01*
X11625500Y-10470600D02*
X11625500Y-10570600D01*
X11575500Y-10520600D02*
X11675500Y-10520600D01*
X11879500Y-10470600D02*
X11879500Y-10570600D01*
X11829500Y-10520600D02*
X11929500Y-10520600D01*
X12133500Y-10470600D02*
X12133500Y-10570600D01*
X12083500Y-10520600D02*
X12183500Y-10520600D01*
X12387500Y-8438600D02*
X12387500Y-8538600D01*
X12337500Y-8488600D02*
X12437500Y-8488600D01*
X12387500Y-10470600D02*
X12387500Y-10570600D01*
X12337500Y-10520600D02*
X12437500Y-10520600D01*
X12641500Y-8438600D02*
X12641500Y-8538600D01*
X12591500Y-8488600D02*
X12691500Y-8488600D01*
X12641500Y-10470600D02*
X12641500Y-10570600D01*
X12591500Y-10520600D02*
X12691500Y-10520600D01*
X12895500Y-8438600D02*
X12895500Y-8538600D01*
X12845500Y-8488600D02*
X12945500Y-8488600D01*
X12895500Y-10470600D02*
X12895500Y-10570600D01*
X12845500Y-10520600D02*
X12945500Y-10520600D01*
X13149500Y-8438600D02*
X13149500Y-8538600D01*
X13099500Y-8488600D02*
X13199500Y-8488600D01*
X13149500Y-10470600D02*
X13149500Y-10570600D01*
X13099500Y-10520600D02*
X13199500Y-10520600D01*
X13403500Y-8438600D02*
X13403500Y-8538600D01*
X13353500Y-8488600D02*
X13453500Y-8488600D01*
X13403500Y-10470600D02*
X13403500Y-10570600D01*
X13353500Y-10520600D02*
X13453500Y-10520600D01*
X13657500Y-8438600D02*
X13657500Y-8538600D01*
X13607500Y-8488600D02*
X13707500Y-8488600D01*
X13657500Y-10470600D02*
X13657500Y-10570600D01*
X13607500Y-10520600D02*
X13707500Y-10520600D01*
X13911500Y-8438600D02*
X13911500Y-8538600D01*
X13861500Y-8488600D02*
X13961500Y-8488600D01*
X13911500Y-10470600D02*
X13911500Y-10570600D01*
X13861500Y-10520600D02*
X13961500Y-10520600D01*
X14165500Y-8438600D02*
X14165500Y-8538600D01*
X14115500Y-8488600D02*
X14215500Y-8488600D01*
X14165500Y-10470600D02*
X14165500Y-10570600D01*
X14115500Y-10520600D02*
X14215500Y-10520600D01*
X14419500Y-8438600D02*
X14419500Y-8538600D01*
X14369500Y-8488600D02*
X14469500Y-8488600D01*
X14419500Y-10470600D02*
X14419500Y-10570600D01*
X14369500Y-10520600D02*
X14469500Y-10520600D01*
X14673500Y-8438600D02*
X14673500Y-8538600D01*
X14623500Y-8488600D02*
X14723500Y-8488600D01*
X14673500Y-10470600D02*
X14673500Y-10570600D01*
X14623500Y-10520600D02*
X14723500Y-10520600D01*
X14927500Y-8438600D02*
X14927500Y-8538600D01*
X14877500Y-8488600D02*
X14977500Y-8488600D01*
X14927500Y-10470600D02*
X14927500Y-10570600D01*
X14877500Y-10520600D02*
X14977500Y-10520600D01*
X15181500Y-8438600D02*
X15181500Y-8538600D01*
X15131500Y-8488600D02*
X15231500Y-8488600D01*
X15181500Y-10470600D02*
X15181500Y-10570600D01*
X15131500Y-10520600D02*
X15231500Y-10520600D01*
X11078889Y-8703989D02*
X11078889Y-8527211D01*
X10902111Y-8527211D01*
X10902111Y-8703989D01*
X11078889Y-8703989D01*
X11078889Y-10481989D02*
X11078889Y-10305211D01*
X10902111Y-10305211D01*
X10902111Y-10481989D01*
X11078889Y-10481989D01*
X15562500Y-8740600D02*
X15687500Y-8615600D01*
X15562500Y-8490600D01*
X15437500Y-8615600D01*
X15562500Y-8740600D01*
X15562500Y-10518600D02*
X15687500Y-10393600D01*
X15562500Y-10268600D01*
X15437500Y-10393600D01*
X15562500Y-10518600D01*
D12*
X11025628Y-11113314D02*
X11025628Y-10813314D01*
X11097057Y-10813314D01*
X11139914Y-10827600D01*
X11168486Y-10856172D01*
X11182771Y-10884743D01*
X11197057Y-10941886D01*
X11197057Y-10984743D01*
X11182771Y-11041886D01*
X11168486Y-11070457D01*
X11139914Y-11099029D01*
X11097057Y-11113314D01*
X11025628Y-11113314D01*
X11325628Y-11113314D02*
X11325628Y-10913314D01*
X11325628Y-10970457D02*
X11339914Y-10941886D01*
X11354200Y-10927600D01*
X11382771Y-10913314D01*
X11411343Y-10913314D01*
X11511343Y-11113314D02*
X11511343Y-10913314D01*
X11511343Y-10813314D02*
X11497057Y-10827600D01*
X11511343Y-10841886D01*
X11525628Y-10827600D01*
X11511343Y-10813314D01*
X11511343Y-10841886D01*
X11697057Y-11113314D02*
X11668486Y-11099029D01*
X11654200Y-11070457D01*
X11654200Y-10813314D01*
X11854200Y-11113314D02*
X11825628Y-11099029D01*
X11811343Y-11070457D01*
X11811343Y-10813314D01*
X12197057Y-11113314D02*
X12197057Y-10813314D01*
X12297057Y-11027600D01*
X12397057Y-10813314D01*
X12397057Y-11113314D01*
X12668486Y-11113314D02*
X12668486Y-10956172D01*
X12654200Y-10927600D01*
X12625628Y-10913314D01*
X12568486Y-10913314D01*
X12539914Y-10927600D01*
X12668486Y-11099029D02*
X12639914Y-11113314D01*
X12568486Y-11113314D01*
X12539914Y-11099029D01*
X12525628Y-11070457D01*
X12525628Y-11041886D01*
X12539914Y-11013314D01*
X12568486Y-10999029D01*
X12639914Y-10999029D01*
X12668486Y-10984743D01*
X12811343Y-10913314D02*
X12811343Y-11213314D01*
X12811343Y-10927600D02*
X12839914Y-10913314D01*
X12897057Y-10913314D01*
X12925628Y-10927600D01*
X12939914Y-10941886D01*
X12954200Y-10970457D01*
X12954200Y-11056172D01*
X12939914Y-11084743D01*
X12925628Y-11099029D01*
X12897057Y-11113314D01*
X12839914Y-11113314D01*
X12811343Y-11099029D01*
X13082771Y-11084743D02*
X13097057Y-11099029D01*
X13082771Y-11113314D01*
X13068486Y-11099029D01*
X13082771Y-11084743D01*
X13082771Y-11113314D01*
X13082771Y-10927600D02*
X13097057Y-10941886D01*
X13082771Y-10956172D01*
X13068486Y-10941886D01*
X13082771Y-10927600D01*
X13082771Y-10956172D01*
X10706180Y-11591090D02*
X10739200Y-11624110D01*
X10739200Y-11591090D02*
X10706180Y-11624110D01*
X11082771Y-11443314D02*
X11111343Y-11443314D01*
X11139914Y-11457600D01*
X11154200Y-11471886D01*
X11168486Y-11500457D01*
X11182771Y-11557600D01*
X11182771Y-11629029D01*
X11168486Y-11686171D01*
X11154200Y-11714743D01*
X11139914Y-11729029D01*
X11111343Y-11743314D01*
X11082771Y-11743314D01*
X11054200Y-11729029D01*
X11039914Y-11714743D01*
X11025628Y-11686171D01*
X11011343Y-11629029D01*
X11011343Y-11557600D01*
X11025628Y-11500457D01*
X11039914Y-11471886D01*
X11054200Y-11457600D01*
X11082771Y-11443314D01*
X11311343Y-11714743D02*
X11325628Y-11729029D01*
X11311343Y-11743314D01*
X11297057Y-11729029D01*
X11311343Y-11714743D01*
X11311343Y-11743314D01*
X11425628Y-11443314D02*
X11611343Y-11443314D01*
X11511343Y-11557600D01*
X11554200Y-11557600D01*
X11582771Y-11571886D01*
X11597057Y-11586171D01*
X11611343Y-11614743D01*
X11611343Y-11686171D01*
X11597057Y-11714743D01*
X11582771Y-11729029D01*
X11554200Y-11743314D01*
X11468486Y-11743314D01*
X11439914Y-11729029D01*
X11425628Y-11714743D01*
X11711343Y-11443314D02*
X11897057Y-11443314D01*
X11797057Y-11557600D01*
X11839914Y-11557600D01*
X11868486Y-11571886D01*
X11882771Y-11586171D01*
X11897057Y-11614743D01*
X11897057Y-11686171D01*
X11882771Y-11714743D01*
X11868486Y-11729029D01*
X11839914Y-11743314D01*
X11754200Y-11743314D01*
X11725628Y-11729029D01*
X11711343Y-11714743D01*
X12025628Y-11743314D02*
X12025628Y-11543314D01*
X12025628Y-11571886D02*
X12039914Y-11557600D01*
X12068486Y-11543314D01*
X12111343Y-11543314D01*
X12139914Y-11557600D01*
X12154200Y-11586171D01*
X12154200Y-11743314D01*
X12154200Y-11586171D02*
X12168486Y-11557600D01*
X12197057Y-11543314D01*
X12239914Y-11543314D01*
X12268486Y-11557600D01*
X12282771Y-11586171D01*
X12282771Y-11743314D01*
X12425628Y-11743314D02*
X12425628Y-11543314D01*
X12425628Y-11571886D02*
X12439914Y-11557600D01*
X12468486Y-11543314D01*
X12511343Y-11543314D01*
X12539914Y-11557600D01*
X12554200Y-11586171D01*
X12554200Y-11743314D01*
X12554200Y-11586171D02*
X12568486Y-11557600D01*
X12597057Y-11543314D01*
X12639914Y-11543314D01*
X12668486Y-11557600D01*
X12682771Y-11586171D01*
X12682771Y-11743314D01*
X13268486Y-11429029D02*
X13011343Y-11814743D01*
X13654200Y-11443314D02*
X13682771Y-11443314D01*
X13711343Y-11457600D01*
X13725628Y-11471886D01*
X13739914Y-11500457D01*
X13754200Y-11557600D01*
X13754200Y-11629029D01*
X13739914Y-11686171D01*
X13725628Y-11714743D01*
X13711343Y-11729029D01*
X13682771Y-11743314D01*
X13654200Y-11743314D01*
X13625628Y-11729029D01*
X13611343Y-11714743D01*
X13597057Y-11686171D01*
X13582771Y-11629029D01*
X13582771Y-11557600D01*
X13597057Y-11500457D01*
X13611343Y-11471886D01*
X13625628Y-11457600D01*
X13654200Y-11443314D01*
X13882771Y-11714743D02*
X13897057Y-11729029D01*
X13882771Y-11743314D01*
X13868486Y-11729029D01*
X13882771Y-11714743D01*
X13882771Y-11743314D01*
X14082771Y-11443314D02*
X14111343Y-11443314D01*
X14139914Y-11457600D01*
X14154200Y-11471886D01*
X14168486Y-11500457D01*
X14182771Y-11557600D01*
X14182771Y-11629029D01*
X14168486Y-11686171D01*
X14154200Y-11714743D01*
X14139914Y-11729029D01*
X14111343Y-11743314D01*
X14082771Y-11743314D01*
X14054200Y-11729029D01*
X14039914Y-11714743D01*
X14025628Y-11686171D01*
X14011343Y-11629029D01*
X14011343Y-11557600D01*
X14025628Y-11500457D01*
X14039914Y-11471886D01*
X14054200Y-11457600D01*
X14082771Y-11443314D01*
X14468486Y-11743314D02*
X14297057Y-11743314D01*
X14382771Y-11743314D02*
X14382771Y-11443314D01*
X14354200Y-11486171D01*
X14325628Y-11514743D01*
X14297057Y-11529029D01*
X14568486Y-11443314D02*
X14754200Y-11443314D01*
X14654200Y-11557600D01*
X14697057Y-11557600D01*
X14725628Y-11571886D01*
X14739914Y-11586171D01*
X14754200Y-11614743D01*
X14754200Y-11686171D01*
X14739914Y-11714743D01*
X14725628Y-11729029D01*
X14697057Y-11743314D01*
X14611343Y-11743314D01*
X14582771Y-11729029D01*
X14568486Y-11714743D01*
X14868486Y-11443314D02*
X14868486Y-11500457D01*
X14982771Y-11443314D02*
X14982771Y-11500457D01*
X15425628Y-11857600D02*
X15411343Y-11843314D01*
X15382771Y-11800457D01*
X15368486Y-11771886D01*
X15354200Y-11729029D01*
X15339914Y-11657600D01*
X15339914Y-11600457D01*
X15354200Y-11529029D01*
X15368486Y-11486171D01*
X15382771Y-11457600D01*
X15411343Y-11414743D01*
X15425628Y-11400457D01*
X15511343Y-11443314D02*
X15697057Y-11443314D01*
X15597057Y-11557600D01*
X15639914Y-11557600D01*
X15668486Y-11571886D01*
X15682771Y-11586171D01*
X15697057Y-11614743D01*
X15697057Y-11686171D01*
X15682771Y-11714743D01*
X15668486Y-11729029D01*
X15639914Y-11743314D01*
X15554200Y-11743314D01*
X15525628Y-11729029D01*
X15511343Y-11714743D01*
X15982771Y-11743314D02*
X15811343Y-11743314D01*
X15897057Y-11743314D02*
X15897057Y-11443314D01*
X15868486Y-11486171D01*
X15839914Y-11514743D01*
X15811343Y-11529029D01*
X16339914Y-11743314D02*
X16339914Y-11443314D01*
X16468486Y-11743314D02*
X16468486Y-11586171D01*
X16454200Y-11557600D01*
X16425628Y-11543314D01*
X16382771Y-11543314D01*
X16354200Y-11557600D01*
X16339914Y-11571886D01*
X16654200Y-11743314D02*
X16625628Y-11729029D01*
X16611343Y-11714743D01*
X16597057Y-11686171D01*
X16597057Y-11600457D01*
X16611343Y-11571886D01*
X16625628Y-11557600D01*
X16654200Y-11543314D01*
X16697057Y-11543314D01*
X16725628Y-11557600D01*
X16739914Y-11571886D01*
X16754200Y-11600457D01*
X16754200Y-11686171D01*
X16739914Y-11714743D01*
X16725628Y-11729029D01*
X16697057Y-11743314D01*
X16654200Y-11743314D01*
X16925628Y-11743314D02*
X16897057Y-11729029D01*
X16882771Y-11700457D01*
X16882771Y-11443314D01*
X17154200Y-11729029D02*
X17125628Y-11743314D01*
X17068486Y-11743314D01*
X17039914Y-11729029D01*
X17025628Y-11700457D01*
X17025628Y-11586171D01*
X17039914Y-11557600D01*
X17068486Y-11543314D01*
X17125628Y-11543314D01*
X17154200Y-11557600D01*
X17168486Y-11586171D01*
X17168486Y-11614743D01*
X17025628Y-11643314D01*
X17282771Y-11729029D02*
X17311343Y-11743314D01*
X17368486Y-11743314D01*
X17397057Y-11729029D01*
X17411343Y-11700457D01*
X17411343Y-11686171D01*
X17397057Y-11657600D01*
X17368486Y-11643314D01*
X17325628Y-11643314D01*
X17297057Y-11629029D01*
X17282771Y-11600457D01*
X17282771Y-11586171D01*
X17297057Y-11557600D01*
X17325628Y-11543314D01*
X17368486Y-11543314D01*
X17397057Y-11557600D01*
X17511343Y-11857600D02*
X17525628Y-11843314D01*
X17554200Y-11800457D01*
X17568486Y-11771886D01*
X17582771Y-11729029D01*
X17597057Y-11657600D01*
X17597057Y-11600457D01*
X17582771Y-11529029D01*
X17568486Y-11486171D01*
X17554200Y-11457600D01*
X17525628Y-11414743D01*
X17511343Y-11400457D01*
X10739200Y-12003600D02*
G75*
G03X10739200Y-12003600I-25400J0D01*
G01*
X11082771Y-11839314D02*
X11111343Y-11839314D01*
X11139914Y-11853600D01*
X11154200Y-11867886D01*
X11168486Y-11896457D01*
X11182771Y-11953600D01*
X11182771Y-12025029D01*
X11168486Y-12082171D01*
X11154200Y-12110743D01*
X11139914Y-12125029D01*
X11111343Y-12139314D01*
X11082771Y-12139314D01*
X11054200Y-12125029D01*
X11039914Y-12110743D01*
X11025628Y-12082171D01*
X11011343Y-12025029D01*
X11011343Y-11953600D01*
X11025628Y-11896457D01*
X11039914Y-11867886D01*
X11054200Y-11853600D01*
X11082771Y-11839314D01*
X11311343Y-12110743D02*
X11325628Y-12125029D01*
X11311343Y-12139314D01*
X11297057Y-12125029D01*
X11311343Y-12110743D01*
X11311343Y-12139314D01*
X11597057Y-11839314D02*
X11454200Y-11839314D01*
X11439914Y-11982171D01*
X11454200Y-11967886D01*
X11482771Y-11953600D01*
X11554200Y-11953600D01*
X11582771Y-11967886D01*
X11597057Y-11982171D01*
X11611343Y-12010743D01*
X11611343Y-12082171D01*
X11597057Y-12110743D01*
X11582771Y-12125029D01*
X11554200Y-12139314D01*
X11482771Y-12139314D01*
X11454200Y-12125029D01*
X11439914Y-12110743D01*
X11897057Y-12139314D02*
X11725628Y-12139314D01*
X11811343Y-12139314D02*
X11811343Y-11839314D01*
X11782771Y-11882171D01*
X11754200Y-11910743D01*
X11725628Y-11925029D01*
X12025628Y-12139314D02*
X12025628Y-11939314D01*
X12025628Y-11967886D02*
X12039914Y-11953600D01*
X12068486Y-11939314D01*
X12111343Y-11939314D01*
X12139914Y-11953600D01*
X12154200Y-11982171D01*
X12154200Y-12139314D01*
X12154200Y-11982171D02*
X12168486Y-11953600D01*
X12197057Y-11939314D01*
X12239914Y-11939314D01*
X12268486Y-11953600D01*
X12282771Y-11982171D01*
X12282771Y-12139314D01*
X12425628Y-12139314D02*
X12425628Y-11939314D01*
X12425628Y-11967886D02*
X12439914Y-11953600D01*
X12468486Y-11939314D01*
X12511343Y-11939314D01*
X12539914Y-11953600D01*
X12554200Y-11982171D01*
X12554200Y-12139314D01*
X12554200Y-11982171D02*
X12568486Y-11953600D01*
X12597057Y-11939314D01*
X12639914Y-11939314D01*
X12668486Y-11953600D01*
X12682771Y-11982171D01*
X12682771Y-12139314D01*
X13268486Y-11825029D02*
X13011343Y-12210743D01*
X13654200Y-11839314D02*
X13682771Y-11839314D01*
X13711343Y-11853600D01*
X13725628Y-11867886D01*
X13739914Y-11896457D01*
X13754200Y-11953600D01*
X13754200Y-12025029D01*
X13739914Y-12082171D01*
X13725628Y-12110743D01*
X13711343Y-12125029D01*
X13682771Y-12139314D01*
X13654200Y-12139314D01*
X13625628Y-12125029D01*
X13611343Y-12110743D01*
X13597057Y-12082171D01*
X13582771Y-12025029D01*
X13582771Y-11953600D01*
X13597057Y-11896457D01*
X13611343Y-11867886D01*
X13625628Y-11853600D01*
X13654200Y-11839314D01*
X13882771Y-12110743D02*
X13897057Y-12125029D01*
X13882771Y-12139314D01*
X13868486Y-12125029D01*
X13882771Y-12110743D01*
X13882771Y-12139314D01*
X14082771Y-11839314D02*
X14111343Y-11839314D01*
X14139914Y-11853600D01*
X14154200Y-11867886D01*
X14168486Y-11896457D01*
X14182771Y-11953600D01*
X14182771Y-12025029D01*
X14168486Y-12082171D01*
X14154200Y-12110743D01*
X14139914Y-12125029D01*
X14111343Y-12139314D01*
X14082771Y-12139314D01*
X14054200Y-12125029D01*
X14039914Y-12110743D01*
X14025628Y-12082171D01*
X14011343Y-12025029D01*
X14011343Y-11953600D01*
X14025628Y-11896457D01*
X14039914Y-11867886D01*
X14054200Y-11853600D01*
X14082771Y-11839314D01*
X14297057Y-11867886D02*
X14311343Y-11853600D01*
X14339914Y-11839314D01*
X14411343Y-11839314D01*
X14439914Y-11853600D01*
X14454200Y-11867886D01*
X14468486Y-11896457D01*
X14468486Y-11925029D01*
X14454200Y-11967886D01*
X14282771Y-12139314D01*
X14468486Y-12139314D01*
X14654200Y-11839314D02*
X14682771Y-11839314D01*
X14711343Y-11853600D01*
X14725628Y-11867886D01*
X14739914Y-11896457D01*
X14754200Y-11953600D01*
X14754200Y-12025029D01*
X14739914Y-12082171D01*
X14725628Y-12110743D01*
X14711343Y-12125029D01*
X14682771Y-12139314D01*
X14654200Y-12139314D01*
X14625628Y-12125029D01*
X14611343Y-12110743D01*
X14597057Y-12082171D01*
X14582771Y-12025029D01*
X14582771Y-11953600D01*
X14597057Y-11896457D01*
X14611343Y-11867886D01*
X14625628Y-11853600D01*
X14654200Y-11839314D01*
X14868486Y-11839314D02*
X14868486Y-11896457D01*
X14982771Y-11839314D02*
X14982771Y-11896457D01*
X15425628Y-12253600D02*
X15411343Y-12239314D01*
X15382771Y-12196457D01*
X15368486Y-12167886D01*
X15354200Y-12125029D01*
X15339914Y-12053600D01*
X15339914Y-11996457D01*
X15354200Y-11925029D01*
X15368486Y-11882171D01*
X15382771Y-11853600D01*
X15411343Y-11810743D01*
X15425628Y-11796457D01*
X15697057Y-12139314D02*
X15525628Y-12139314D01*
X15611343Y-12139314D02*
X15611343Y-11839314D01*
X15582771Y-11882171D01*
X15554200Y-11910743D01*
X15525628Y-11925029D01*
X16054200Y-12139314D02*
X16054200Y-11839314D01*
X16182771Y-12139314D02*
X16182771Y-11982171D01*
X16168486Y-11953600D01*
X16139914Y-11939314D01*
X16097057Y-11939314D01*
X16068486Y-11953600D01*
X16054200Y-11967886D01*
X16368486Y-12139314D02*
X16339914Y-12125029D01*
X16325628Y-12110743D01*
X16311343Y-12082171D01*
X16311343Y-11996457D01*
X16325628Y-11967886D01*
X16339914Y-11953600D01*
X16368486Y-11939314D01*
X16411343Y-11939314D01*
X16439914Y-11953600D01*
X16454200Y-11967886D01*
X16468486Y-11996457D01*
X16468486Y-12082171D01*
X16454200Y-12110743D01*
X16439914Y-12125029D01*
X16411343Y-12139314D01*
X16368486Y-12139314D01*
X16639914Y-12139314D02*
X16611343Y-12125029D01*
X16597057Y-12096457D01*
X16597057Y-11839314D01*
X16868486Y-12125029D02*
X16839914Y-12139314D01*
X16782771Y-12139314D01*
X16754200Y-12125029D01*
X16739914Y-12096457D01*
X16739914Y-11982171D01*
X16754200Y-11953600D01*
X16782771Y-11939314D01*
X16839914Y-11939314D01*
X16868486Y-11953600D01*
X16882771Y-11982171D01*
X16882771Y-12010743D01*
X16739914Y-12039314D01*
X16982771Y-12253600D02*
X16997057Y-12239314D01*
X17025628Y-12196457D01*
X17039914Y-12167886D01*
X17054200Y-12125029D01*
X17068486Y-12053600D01*
X17068486Y-11996457D01*
X17054200Y-11925029D01*
X17039914Y-11882171D01*
X17025628Y-11853600D01*
X16997057Y-11810743D01*
X16982771Y-11796457D01*
X10689200Y-12349600D02*
X10689200Y-12449600D01*
X10639200Y-12399600D02*
X10739200Y-12399600D01*
X11182771Y-12535314D02*
X11011343Y-12535314D01*
X11097057Y-12535314D02*
X11097057Y-12235314D01*
X11068486Y-12278171D01*
X11039914Y-12306743D01*
X11011343Y-12321029D01*
X11311343Y-12506743D02*
X11325628Y-12521029D01*
X11311343Y-12535314D01*
X11297057Y-12521029D01*
X11311343Y-12506743D01*
X11311343Y-12535314D01*
X11511343Y-12235314D02*
X11539914Y-12235314D01*
X11568486Y-12249600D01*
X11582771Y-12263886D01*
X11597057Y-12292457D01*
X11611343Y-12349600D01*
X11611343Y-12421029D01*
X11597057Y-12478171D01*
X11582771Y-12506743D01*
X11568486Y-12521029D01*
X11539914Y-12535314D01*
X11511343Y-12535314D01*
X11482771Y-12521029D01*
X11468486Y-12506743D01*
X11454200Y-12478171D01*
X11439914Y-12421029D01*
X11439914Y-12349600D01*
X11454200Y-12292457D01*
X11468486Y-12263886D01*
X11482771Y-12249600D01*
X11511343Y-12235314D01*
X11797057Y-12235314D02*
X11825628Y-12235314D01*
X11854200Y-12249600D01*
X11868486Y-12263886D01*
X11882771Y-12292457D01*
X11897057Y-12349600D01*
X11897057Y-12421029D01*
X11882771Y-12478171D01*
X11868486Y-12506743D01*
X11854200Y-12521029D01*
X11825628Y-12535314D01*
X11797057Y-12535314D01*
X11768486Y-12521029D01*
X11754200Y-12506743D01*
X11739914Y-12478171D01*
X11725628Y-12421029D01*
X11725628Y-12349600D01*
X11739914Y-12292457D01*
X11754200Y-12263886D01*
X11768486Y-12249600D01*
X11797057Y-12235314D01*
X12025628Y-12535314D02*
X12025628Y-12335314D01*
X12025628Y-12363886D02*
X12039914Y-12349600D01*
X12068486Y-12335314D01*
X12111343Y-12335314D01*
X12139914Y-12349600D01*
X12154200Y-12378171D01*
X12154200Y-12535314D01*
X12154200Y-12378171D02*
X12168486Y-12349600D01*
X12197057Y-12335314D01*
X12239914Y-12335314D01*
X12268486Y-12349600D01*
X12282771Y-12378171D01*
X12282771Y-12535314D01*
X12425628Y-12535314D02*
X12425628Y-12335314D01*
X12425628Y-12363886D02*
X12439914Y-12349600D01*
X12468486Y-12335314D01*
X12511343Y-12335314D01*
X12539914Y-12349600D01*
X12554200Y-12378171D01*
X12554200Y-12535314D01*
X12554200Y-12378171D02*
X12568486Y-12349600D01*
X12597057Y-12335314D01*
X12639914Y-12335314D01*
X12668486Y-12349600D01*
X12682771Y-12378171D01*
X12682771Y-12535314D01*
X13268486Y-12221029D02*
X13011343Y-12606743D01*
X13654200Y-12235314D02*
X13682771Y-12235314D01*
X13711343Y-12249600D01*
X13725628Y-12263886D01*
X13739914Y-12292457D01*
X13754200Y-12349600D01*
X13754200Y-12421029D01*
X13739914Y-12478171D01*
X13725628Y-12506743D01*
X13711343Y-12521029D01*
X13682771Y-12535314D01*
X13654200Y-12535314D01*
X13625628Y-12521029D01*
X13611343Y-12506743D01*
X13597057Y-12478171D01*
X13582771Y-12421029D01*
X13582771Y-12349600D01*
X13597057Y-12292457D01*
X13611343Y-12263886D01*
X13625628Y-12249600D01*
X13654200Y-12235314D01*
X13882771Y-12506743D02*
X13897057Y-12521029D01*
X13882771Y-12535314D01*
X13868486Y-12521029D01*
X13882771Y-12506743D01*
X13882771Y-12535314D01*
X14082771Y-12235314D02*
X14111343Y-12235314D01*
X14139914Y-12249600D01*
X14154200Y-12263886D01*
X14168486Y-12292457D01*
X14182771Y-12349600D01*
X14182771Y-12421029D01*
X14168486Y-12478171D01*
X14154200Y-12506743D01*
X14139914Y-12521029D01*
X14111343Y-12535314D01*
X14082771Y-12535314D01*
X14054200Y-12521029D01*
X14039914Y-12506743D01*
X14025628Y-12478171D01*
X14011343Y-12421029D01*
X14011343Y-12349600D01*
X14025628Y-12292457D01*
X14039914Y-12263886D01*
X14054200Y-12249600D01*
X14082771Y-12235314D01*
X14282771Y-12235314D02*
X14468486Y-12235314D01*
X14368486Y-12349600D01*
X14411343Y-12349600D01*
X14439914Y-12363886D01*
X14454200Y-12378171D01*
X14468486Y-12406743D01*
X14468486Y-12478171D01*
X14454200Y-12506743D01*
X14439914Y-12521029D01*
X14411343Y-12535314D01*
X14325628Y-12535314D01*
X14297057Y-12521029D01*
X14282771Y-12506743D01*
X14611343Y-12535314D02*
X14668486Y-12535314D01*
X14697057Y-12521029D01*
X14711343Y-12506743D01*
X14739914Y-12463886D01*
X14754200Y-12406743D01*
X14754200Y-12292457D01*
X14739914Y-12263886D01*
X14725628Y-12249600D01*
X14697057Y-12235314D01*
X14639914Y-12235314D01*
X14611343Y-12249600D01*
X14597057Y-12263886D01*
X14582771Y-12292457D01*
X14582771Y-12363886D01*
X14597057Y-12392457D01*
X14611343Y-12406743D01*
X14639914Y-12421029D01*
X14697057Y-12421029D01*
X14725628Y-12406743D01*
X14739914Y-12392457D01*
X14754200Y-12363886D01*
X14868486Y-12235314D02*
X14868486Y-12292457D01*
X14982771Y-12235314D02*
X14982771Y-12292457D01*
X15425628Y-12649600D02*
X15411343Y-12635314D01*
X15382771Y-12592457D01*
X15368486Y-12563886D01*
X15354200Y-12521029D01*
X15339914Y-12449600D01*
X15339914Y-12392457D01*
X15354200Y-12321029D01*
X15368486Y-12278171D01*
X15382771Y-12249600D01*
X15411343Y-12206743D01*
X15425628Y-12192457D01*
X15525628Y-12263886D02*
X15539914Y-12249600D01*
X15568486Y-12235314D01*
X15639914Y-12235314D01*
X15668486Y-12249600D01*
X15682771Y-12263886D01*
X15697057Y-12292457D01*
X15697057Y-12321029D01*
X15682771Y-12363886D01*
X15511343Y-12535314D01*
X15697057Y-12535314D01*
X15868486Y-12363886D02*
X15839914Y-12349600D01*
X15825628Y-12335314D01*
X15811343Y-12306743D01*
X15811343Y-12292457D01*
X15825628Y-12263886D01*
X15839914Y-12249600D01*
X15868486Y-12235314D01*
X15925628Y-12235314D01*
X15954200Y-12249600D01*
X15968486Y-12263886D01*
X15982771Y-12292457D01*
X15982771Y-12306743D01*
X15968486Y-12335314D01*
X15954200Y-12349600D01*
X15925628Y-12363886D01*
X15868486Y-12363886D01*
X15839914Y-12378171D01*
X15825628Y-12392457D01*
X15811343Y-12421029D01*
X15811343Y-12478171D01*
X15825628Y-12506743D01*
X15839914Y-12521029D01*
X15868486Y-12535314D01*
X15925628Y-12535314D01*
X15954200Y-12521029D01*
X15968486Y-12506743D01*
X15982771Y-12478171D01*
X15982771Y-12421029D01*
X15968486Y-12392457D01*
X15954200Y-12378171D01*
X15925628Y-12363886D01*
X16339914Y-12535314D02*
X16339914Y-12235314D01*
X16468486Y-12535314D02*
X16468486Y-12378171D01*
X16454200Y-12349600D01*
X16425628Y-12335314D01*
X16382771Y-12335314D01*
X16354200Y-12349600D01*
X16339914Y-12363886D01*
X16654200Y-12535314D02*
X16625628Y-12521029D01*
X16611343Y-12506743D01*
X16597057Y-12478171D01*
X16597057Y-12392457D01*
X16611343Y-12363886D01*
X16625628Y-12349600D01*
X16654200Y-12335314D01*
X16697057Y-12335314D01*
X16725628Y-12349600D01*
X16739914Y-12363886D01*
X16754200Y-12392457D01*
X16754200Y-12478171D01*
X16739914Y-12506743D01*
X16725628Y-12521029D01*
X16697057Y-12535314D01*
X16654200Y-12535314D01*
X16925628Y-12535314D02*
X16897057Y-12521029D01*
X16882771Y-12492457D01*
X16882771Y-12235314D01*
X17154200Y-12521029D02*
X17125628Y-12535314D01*
X17068486Y-12535314D01*
X17039914Y-12521029D01*
X17025628Y-12492457D01*
X17025628Y-12378171D01*
X17039914Y-12349600D01*
X17068486Y-12335314D01*
X17125628Y-12335314D01*
X17154200Y-12349600D01*
X17168486Y-12378171D01*
X17168486Y-12406743D01*
X17025628Y-12435314D01*
X17282771Y-12521029D02*
X17311343Y-12535314D01*
X17368486Y-12535314D01*
X17397057Y-12521029D01*
X17411343Y-12492457D01*
X17411343Y-12478171D01*
X17397057Y-12449600D01*
X17368486Y-12435314D01*
X17325628Y-12435314D01*
X17297057Y-12421029D01*
X17282771Y-12392457D01*
X17282771Y-12378171D01*
X17297057Y-12349600D01*
X17325628Y-12335314D01*
X17368486Y-12335314D01*
X17397057Y-12349600D01*
X17511343Y-12649600D02*
X17525628Y-12635314D01*
X17554200Y-12592457D01*
X17568486Y-12563886D01*
X17582771Y-12521029D01*
X17597057Y-12449600D01*
X17597057Y-12392457D01*
X17582771Y-12321029D01*
X17568486Y-12278171D01*
X17554200Y-12249600D01*
X17525628Y-12206743D01*
X17511343Y-12192457D01*
X10702589Y-12883989D02*
X10702589Y-12707211D01*
X10525811Y-12707211D01*
X10525811Y-12883989D01*
X10702589Y-12883989D01*
X11011343Y-12659886D02*
X11025628Y-12645600D01*
X11054200Y-12631314D01*
X11125628Y-12631314D01*
X11154200Y-12645600D01*
X11168486Y-12659886D01*
X11182771Y-12688457D01*
X11182771Y-12717029D01*
X11168486Y-12759886D01*
X10997057Y-12931314D01*
X11182771Y-12931314D01*
X11311343Y-12902743D02*
X11325628Y-12917029D01*
X11311343Y-12931314D01*
X11297057Y-12917029D01*
X11311343Y-12902743D01*
X11311343Y-12931314D01*
X11597057Y-12631314D02*
X11454200Y-12631314D01*
X11439914Y-12774171D01*
X11454200Y-12759886D01*
X11482771Y-12745600D01*
X11554200Y-12745600D01*
X11582771Y-12759886D01*
X11597057Y-12774171D01*
X11611343Y-12802743D01*
X11611343Y-12874171D01*
X11597057Y-12902743D01*
X11582771Y-12917029D01*
X11554200Y-12931314D01*
X11482771Y-12931314D01*
X11454200Y-12917029D01*
X11439914Y-12902743D01*
X11797057Y-12631314D02*
X11825628Y-12631314D01*
X11854200Y-12645600D01*
X11868486Y-12659886D01*
X11882771Y-12688457D01*
X11897057Y-12745600D01*
X11897057Y-12817029D01*
X11882771Y-12874171D01*
X11868486Y-12902743D01*
X11854200Y-12917029D01*
X11825628Y-12931314D01*
X11797057Y-12931314D01*
X11768486Y-12917029D01*
X11754200Y-12902743D01*
X11739914Y-12874171D01*
X11725628Y-12817029D01*
X11725628Y-12745600D01*
X11739914Y-12688457D01*
X11754200Y-12659886D01*
X11768486Y-12645600D01*
X11797057Y-12631314D01*
X12025628Y-12931314D02*
X12025628Y-12731314D01*
X12025628Y-12759886D02*
X12039914Y-12745600D01*
X12068486Y-12731314D01*
X12111343Y-12731314D01*
X12139914Y-12745600D01*
X12154200Y-12774171D01*
X12154200Y-12931314D01*
X12154200Y-12774171D02*
X12168486Y-12745600D01*
X12197057Y-12731314D01*
X12239914Y-12731314D01*
X12268486Y-12745600D01*
X12282771Y-12774171D01*
X12282771Y-12931314D01*
X12425628Y-12931314D02*
X12425628Y-12731314D01*
X12425628Y-12759886D02*
X12439914Y-12745600D01*
X12468486Y-12731314D01*
X12511343Y-12731314D01*
X12539914Y-12745600D01*
X12554200Y-12774171D01*
X12554200Y-12931314D01*
X12554200Y-12774171D02*
X12568486Y-12745600D01*
X12597057Y-12731314D01*
X12639914Y-12731314D01*
X12668486Y-12745600D01*
X12682771Y-12774171D01*
X12682771Y-12931314D01*
X13268486Y-12617029D02*
X13011343Y-13002743D01*
X13654200Y-12631314D02*
X13682771Y-12631314D01*
X13711343Y-12645600D01*
X13725628Y-12659886D01*
X13739914Y-12688457D01*
X13754200Y-12745600D01*
X13754200Y-12817029D01*
X13739914Y-12874171D01*
X13725628Y-12902743D01*
X13711343Y-12917029D01*
X13682771Y-12931314D01*
X13654200Y-12931314D01*
X13625628Y-12917029D01*
X13611343Y-12902743D01*
X13597057Y-12874171D01*
X13582771Y-12817029D01*
X13582771Y-12745600D01*
X13597057Y-12688457D01*
X13611343Y-12659886D01*
X13625628Y-12645600D01*
X13654200Y-12631314D01*
X13882771Y-12902743D02*
X13897057Y-12917029D01*
X13882771Y-12931314D01*
X13868486Y-12917029D01*
X13882771Y-12902743D01*
X13882771Y-12931314D01*
X14082771Y-12631314D02*
X14111343Y-12631314D01*
X14139914Y-12645600D01*
X14154200Y-12659886D01*
X14168486Y-12688457D01*
X14182771Y-12745600D01*
X14182771Y-12817029D01*
X14168486Y-12874171D01*
X14154200Y-12902743D01*
X14139914Y-12917029D01*
X14111343Y-12931314D01*
X14082771Y-12931314D01*
X14054200Y-12917029D01*
X14039914Y-12902743D01*
X14025628Y-12874171D01*
X14011343Y-12817029D01*
X14011343Y-12745600D01*
X14025628Y-12688457D01*
X14039914Y-12659886D01*
X14054200Y-12645600D01*
X14082771Y-12631314D01*
X14325628Y-12931314D02*
X14382771Y-12931314D01*
X14411343Y-12917029D01*
X14425628Y-12902743D01*
X14454200Y-12859886D01*
X14468486Y-12802743D01*
X14468486Y-12688457D01*
X14454200Y-12659886D01*
X14439914Y-12645600D01*
X14411343Y-12631314D01*
X14354200Y-12631314D01*
X14325628Y-12645600D01*
X14311343Y-12659886D01*
X14297057Y-12688457D01*
X14297057Y-12759886D01*
X14311343Y-12788457D01*
X14325628Y-12802743D01*
X14354200Y-12817029D01*
X14411343Y-12817029D01*
X14439914Y-12802743D01*
X14454200Y-12788457D01*
X14468486Y-12759886D01*
X14639914Y-12759886D02*
X14611343Y-12745600D01*
X14597057Y-12731314D01*
X14582771Y-12702743D01*
X14582771Y-12688457D01*
X14597057Y-12659886D01*
X14611343Y-12645600D01*
X14639914Y-12631314D01*
X14697057Y-12631314D01*
X14725628Y-12645600D01*
X14739914Y-12659886D01*
X14754200Y-12688457D01*
X14754200Y-12702743D01*
X14739914Y-12731314D01*
X14725628Y-12745600D01*
X14697057Y-12759886D01*
X14639914Y-12759886D01*
X14611343Y-12774171D01*
X14597057Y-12788457D01*
X14582771Y-12817029D01*
X14582771Y-12874171D01*
X14597057Y-12902743D01*
X14611343Y-12917029D01*
X14639914Y-12931314D01*
X14697057Y-12931314D01*
X14725628Y-12917029D01*
X14739914Y-12902743D01*
X14754200Y-12874171D01*
X14754200Y-12817029D01*
X14739914Y-12788457D01*
X14725628Y-12774171D01*
X14697057Y-12759886D01*
X14868486Y-12631314D02*
X14868486Y-12688457D01*
X14982771Y-12631314D02*
X14982771Y-12688457D01*
X15425628Y-13045600D02*
X15411343Y-13031314D01*
X15382771Y-12988457D01*
X15368486Y-12959886D01*
X15354200Y-12917029D01*
X15339914Y-12845600D01*
X15339914Y-12788457D01*
X15354200Y-12717029D01*
X15368486Y-12674171D01*
X15382771Y-12645600D01*
X15411343Y-12602743D01*
X15425628Y-12588457D01*
X15525628Y-12659886D02*
X15539914Y-12645600D01*
X15568486Y-12631314D01*
X15639914Y-12631314D01*
X15668486Y-12645600D01*
X15682771Y-12659886D01*
X15697057Y-12688457D01*
X15697057Y-12717029D01*
X15682771Y-12759886D01*
X15511343Y-12931314D01*
X15697057Y-12931314D01*
X16054200Y-12931314D02*
X16054200Y-12631314D01*
X16182771Y-12931314D02*
X16182771Y-12774171D01*
X16168486Y-12745600D01*
X16139914Y-12731314D01*
X16097057Y-12731314D01*
X16068486Y-12745600D01*
X16054200Y-12759886D01*
X16368486Y-12931314D02*
X16339914Y-12917029D01*
X16325628Y-12902743D01*
X16311343Y-12874171D01*
X16311343Y-12788457D01*
X16325628Y-12759886D01*
X16339914Y-12745600D01*
X16368486Y-12731314D01*
X16411343Y-12731314D01*
X16439914Y-12745600D01*
X16454200Y-12759886D01*
X16468486Y-12788457D01*
X16468486Y-12874171D01*
X16454200Y-12902743D01*
X16439914Y-12917029D01*
X16411343Y-12931314D01*
X16368486Y-12931314D01*
X16639914Y-12931314D02*
X16611343Y-12917029D01*
X16597057Y-12888457D01*
X16597057Y-12631314D01*
X16868486Y-12917029D02*
X16839914Y-12931314D01*
X16782771Y-12931314D01*
X16754200Y-12917029D01*
X16739914Y-12888457D01*
X16739914Y-12774171D01*
X16754200Y-12745600D01*
X16782771Y-12731314D01*
X16839914Y-12731314D01*
X16868486Y-12745600D01*
X16882771Y-12774171D01*
X16882771Y-12802743D01*
X16739914Y-12831314D01*
X16997057Y-12917029D02*
X17025628Y-12931314D01*
X17082771Y-12931314D01*
X17111343Y-12917029D01*
X17125628Y-12888457D01*
X17125628Y-12874171D01*
X17111343Y-12845600D01*
X17082771Y-12831314D01*
X17039914Y-12831314D01*
X17011343Y-12817029D01*
X16997057Y-12788457D01*
X16997057Y-12774171D01*
X17011343Y-12745600D01*
X17039914Y-12731314D01*
X17082771Y-12731314D01*
X17111343Y-12745600D01*
X17225628Y-13045600D02*
X17239914Y-13031314D01*
X17268486Y-12988457D01*
X17282771Y-12959886D01*
X17297057Y-12917029D01*
X17311343Y-12845600D01*
X17311343Y-12788457D01*
X17297057Y-12717029D01*
X17282771Y-12674171D01*
X17268486Y-12645600D01*
X17239914Y-12602743D01*
X17225628Y-12588457D01*
X10614200Y-13316600D02*
X10739200Y-13191600D01*
X10614200Y-13066600D01*
X10489200Y-13191600D01*
X10614200Y-13316600D01*
X11011343Y-13055886D02*
X11025628Y-13041600D01*
X11054200Y-13027314D01*
X11125628Y-13027314D01*
X11154200Y-13041600D01*
X11168486Y-13055886D01*
X11182771Y-13084457D01*
X11182771Y-13113029D01*
X11168486Y-13155886D01*
X10997057Y-13327314D01*
X11182771Y-13327314D01*
X11311343Y-13298743D02*
X11325628Y-13313029D01*
X11311343Y-13327314D01*
X11297057Y-13313029D01*
X11311343Y-13298743D01*
X11311343Y-13327314D01*
X11597057Y-13027314D02*
X11454200Y-13027314D01*
X11439914Y-13170171D01*
X11454200Y-13155886D01*
X11482771Y-13141600D01*
X11554200Y-13141600D01*
X11582771Y-13155886D01*
X11597057Y-13170171D01*
X11611343Y-13198743D01*
X11611343Y-13270171D01*
X11597057Y-13298743D01*
X11582771Y-13313029D01*
X11554200Y-13327314D01*
X11482771Y-13327314D01*
X11454200Y-13313029D01*
X11439914Y-13298743D01*
X11797057Y-13027314D02*
X11825628Y-13027314D01*
X11854200Y-13041600D01*
X11868486Y-13055886D01*
X11882771Y-13084457D01*
X11897057Y-13141600D01*
X11897057Y-13213029D01*
X11882771Y-13270171D01*
X11868486Y-13298743D01*
X11854200Y-13313029D01*
X11825628Y-13327314D01*
X11797057Y-13327314D01*
X11768486Y-13313029D01*
X11754200Y-13298743D01*
X11739914Y-13270171D01*
X11725628Y-13213029D01*
X11725628Y-13141600D01*
X11739914Y-13084457D01*
X11754200Y-13055886D01*
X11768486Y-13041600D01*
X11797057Y-13027314D01*
X12025628Y-13327314D02*
X12025628Y-13127314D01*
X12025628Y-13155886D02*
X12039914Y-13141600D01*
X12068486Y-13127314D01*
X12111343Y-13127314D01*
X12139914Y-13141600D01*
X12154200Y-13170171D01*
X12154200Y-13327314D01*
X12154200Y-13170171D02*
X12168486Y-13141600D01*
X12197057Y-13127314D01*
X12239914Y-13127314D01*
X12268486Y-13141600D01*
X12282771Y-13170171D01*
X12282771Y-13327314D01*
X12425628Y-13327314D02*
X12425628Y-13127314D01*
X12425628Y-13155886D02*
X12439914Y-13141600D01*
X12468486Y-13127314D01*
X12511343Y-13127314D01*
X12539914Y-13141600D01*
X12554200Y-13170171D01*
X12554200Y-13327314D01*
X12554200Y-13170171D02*
X12568486Y-13141600D01*
X12597057Y-13127314D01*
X12639914Y-13127314D01*
X12668486Y-13141600D01*
X12682771Y-13170171D01*
X12682771Y-13327314D01*
X13268486Y-13013029D02*
X13011343Y-13398743D01*
X13654200Y-13027314D02*
X13682771Y-13027314D01*
X13711343Y-13041600D01*
X13725628Y-13055886D01*
X13739914Y-13084457D01*
X13754200Y-13141600D01*
X13754200Y-13213029D01*
X13739914Y-13270171D01*
X13725628Y-13298743D01*
X13711343Y-13313029D01*
X13682771Y-13327314D01*
X13654200Y-13327314D01*
X13625628Y-13313029D01*
X13611343Y-13298743D01*
X13597057Y-13270171D01*
X13582771Y-13213029D01*
X13582771Y-13141600D01*
X13597057Y-13084457D01*
X13611343Y-13055886D01*
X13625628Y-13041600D01*
X13654200Y-13027314D01*
X13882771Y-13298743D02*
X13897057Y-13313029D01*
X13882771Y-13327314D01*
X13868486Y-13313029D01*
X13882771Y-13298743D01*
X13882771Y-13327314D01*
X14082771Y-13027314D02*
X14111343Y-13027314D01*
X14139914Y-13041600D01*
X14154200Y-13055886D01*
X14168486Y-13084457D01*
X14182771Y-13141600D01*
X14182771Y-13213029D01*
X14168486Y-13270171D01*
X14154200Y-13298743D01*
X14139914Y-13313029D01*
X14111343Y-13327314D01*
X14082771Y-13327314D01*
X14054200Y-13313029D01*
X14039914Y-13298743D01*
X14025628Y-13270171D01*
X14011343Y-13213029D01*
X14011343Y-13141600D01*
X14025628Y-13084457D01*
X14039914Y-13055886D01*
X14054200Y-13041600D01*
X14082771Y-13027314D01*
X14325628Y-13327314D02*
X14382771Y-13327314D01*
X14411343Y-13313029D01*
X14425628Y-13298743D01*
X14454200Y-13255886D01*
X14468486Y-13198743D01*
X14468486Y-13084457D01*
X14454200Y-13055886D01*
X14439914Y-13041600D01*
X14411343Y-13027314D01*
X14354200Y-13027314D01*
X14325628Y-13041600D01*
X14311343Y-13055886D01*
X14297057Y-13084457D01*
X14297057Y-13155886D01*
X14311343Y-13184457D01*
X14325628Y-13198743D01*
X14354200Y-13213029D01*
X14411343Y-13213029D01*
X14439914Y-13198743D01*
X14454200Y-13184457D01*
X14468486Y-13155886D01*
X14639914Y-13155886D02*
X14611343Y-13141600D01*
X14597057Y-13127314D01*
X14582771Y-13098743D01*
X14582771Y-13084457D01*
X14597057Y-13055886D01*
X14611343Y-13041600D01*
X14639914Y-13027314D01*
X14697057Y-13027314D01*
X14725628Y-13041600D01*
X14739914Y-13055886D01*
X14754200Y-13084457D01*
X14754200Y-13098743D01*
X14739914Y-13127314D01*
X14725628Y-13141600D01*
X14697057Y-13155886D01*
X14639914Y-13155886D01*
X14611343Y-13170171D01*
X14597057Y-13184457D01*
X14582771Y-13213029D01*
X14582771Y-13270171D01*
X14597057Y-13298743D01*
X14611343Y-13313029D01*
X14639914Y-13327314D01*
X14697057Y-13327314D01*
X14725628Y-13313029D01*
X14739914Y-13298743D01*
X14754200Y-13270171D01*
X14754200Y-13213029D01*
X14739914Y-13184457D01*
X14725628Y-13170171D01*
X14697057Y-13155886D01*
X14868486Y-13027314D02*
X14868486Y-13084457D01*
X14982771Y-13027314D02*
X14982771Y-13084457D01*
X15425628Y-13441600D02*
X15411343Y-13427314D01*
X15382771Y-13384457D01*
X15368486Y-13355886D01*
X15354200Y-13313029D01*
X15339914Y-13241600D01*
X15339914Y-13184457D01*
X15354200Y-13113029D01*
X15368486Y-13070171D01*
X15382771Y-13041600D01*
X15411343Y-12998743D01*
X15425628Y-12984457D01*
X15525628Y-13055886D02*
X15539914Y-13041600D01*
X15568486Y-13027314D01*
X15639914Y-13027314D01*
X15668486Y-13041600D01*
X15682771Y-13055886D01*
X15697057Y-13084457D01*
X15697057Y-13113029D01*
X15682771Y-13155886D01*
X15511343Y-13327314D01*
X15697057Y-13327314D01*
X16054200Y-13327314D02*
X16054200Y-13027314D01*
X16182771Y-13327314D02*
X16182771Y-13170171D01*
X16168486Y-13141600D01*
X16139914Y-13127314D01*
X16097057Y-13127314D01*
X16068486Y-13141600D01*
X16054200Y-13155886D01*
X16368486Y-13327314D02*
X16339914Y-13313029D01*
X16325628Y-13298743D01*
X16311343Y-13270171D01*
X16311343Y-13184457D01*
X16325628Y-13155886D01*
X16339914Y-13141600D01*
X16368486Y-13127314D01*
X16411343Y-13127314D01*
X16439914Y-13141600D01*
X16454200Y-13155886D01*
X16468486Y-13184457D01*
X16468486Y-13270171D01*
X16454200Y-13298743D01*
X16439914Y-13313029D01*
X16411343Y-13327314D01*
X16368486Y-13327314D01*
X16639914Y-13327314D02*
X16611343Y-13313029D01*
X16597057Y-13284457D01*
X16597057Y-13027314D01*
X16868486Y-13313029D02*
X16839914Y-13327314D01*
X16782771Y-13327314D01*
X16754200Y-13313029D01*
X16739914Y-13284457D01*
X16739914Y-13170171D01*
X16754200Y-13141600D01*
X16782771Y-13127314D01*
X16839914Y-13127314D01*
X16868486Y-13141600D01*
X16882771Y-13170171D01*
X16882771Y-13198743D01*
X16739914Y-13227314D01*
X16997057Y-13313029D02*
X17025628Y-13327314D01*
X17082771Y-13327314D01*
X17111343Y-13313029D01*
X17125628Y-13284457D01*
X17125628Y-13270171D01*
X17111343Y-13241600D01*
X17082771Y-13227314D01*
X17039914Y-13227314D01*
X17011343Y-13213029D01*
X16997057Y-13184457D01*
X16997057Y-13170171D01*
X17011343Y-13141600D01*
X17039914Y-13127314D01*
X17082771Y-13127314D01*
X17111343Y-13141600D01*
X17225628Y-13441600D02*
X17239914Y-13427314D01*
X17268486Y-13384457D01*
X17282771Y-13355886D01*
X17297057Y-13313029D01*
X17311343Y-13241600D01*
X17311343Y-13184457D01*
X17297057Y-13113029D01*
X17282771Y-13070171D01*
X17268486Y-13041600D01*
X17239914Y-12998743D01*
X17225628Y-12984457D01*
X17768486Y-13441600D02*
X17754200Y-13427314D01*
X17725628Y-13384457D01*
X17711343Y-13355886D01*
X17697057Y-13313029D01*
X17682771Y-13241600D01*
X17682771Y-13184457D01*
X17697057Y-13113029D01*
X17711343Y-13070171D01*
X17725628Y-13041600D01*
X17754200Y-12998743D01*
X17768486Y-12984457D01*
X17882771Y-13127314D02*
X17882771Y-13327314D01*
X17882771Y-13155886D02*
X17897057Y-13141600D01*
X17925628Y-13127314D01*
X17968486Y-13127314D01*
X17997057Y-13141600D01*
X18011343Y-13170171D01*
X18011343Y-13327314D01*
X18197057Y-13327314D02*
X18168486Y-13313029D01*
X18154200Y-13298743D01*
X18139914Y-13270171D01*
X18139914Y-13184457D01*
X18154200Y-13155886D01*
X18168486Y-13141600D01*
X18197057Y-13127314D01*
X18239914Y-13127314D01*
X18268486Y-13141600D01*
X18282771Y-13155886D01*
X18297057Y-13184457D01*
X18297057Y-13270171D01*
X18282771Y-13298743D01*
X18268486Y-13313029D01*
X18239914Y-13327314D01*
X18197057Y-13327314D01*
X18382771Y-13127314D02*
X18497057Y-13127314D01*
X18425628Y-13027314D02*
X18425628Y-13284457D01*
X18439914Y-13313029D01*
X18468486Y-13327314D01*
X18497057Y-13327314D01*
X18825628Y-13127314D02*
X18825628Y-13427314D01*
X18825628Y-13141600D02*
X18854200Y-13127314D01*
X18911343Y-13127314D01*
X18939914Y-13141600D01*
X18954200Y-13155886D01*
X18968486Y-13184457D01*
X18968486Y-13270171D01*
X18954200Y-13298743D01*
X18939914Y-13313029D01*
X18911343Y-13327314D01*
X18854200Y-13327314D01*
X18825628Y-13313029D01*
X19139914Y-13327314D02*
X19111343Y-13313029D01*
X19097057Y-13284457D01*
X19097057Y-13027314D01*
X19382771Y-13327314D02*
X19382771Y-13170171D01*
X19368486Y-13141600D01*
X19339914Y-13127314D01*
X19282771Y-13127314D01*
X19254200Y-13141600D01*
X19382771Y-13313029D02*
X19354200Y-13327314D01*
X19282771Y-13327314D01*
X19254200Y-13313029D01*
X19239914Y-13284457D01*
X19239914Y-13255886D01*
X19254200Y-13227314D01*
X19282771Y-13213029D01*
X19354200Y-13213029D01*
X19382771Y-13198743D01*
X19482771Y-13127314D02*
X19597057Y-13127314D01*
X19525628Y-13027314D02*
X19525628Y-13284457D01*
X19539914Y-13313029D01*
X19568486Y-13327314D01*
X19597057Y-13327314D01*
X19811343Y-13313029D02*
X19782771Y-13327314D01*
X19725628Y-13327314D01*
X19697057Y-13313029D01*
X19682771Y-13284457D01*
X19682771Y-13170171D01*
X19697057Y-13141600D01*
X19725628Y-13127314D01*
X19782771Y-13127314D01*
X19811343Y-13141600D01*
X19825628Y-13170171D01*
X19825628Y-13198743D01*
X19682771Y-13227314D01*
X20082771Y-13327314D02*
X20082771Y-13027314D01*
X20082771Y-13313029D02*
X20054200Y-13327314D01*
X19997057Y-13327314D01*
X19968486Y-13313029D01*
X19954200Y-13298743D01*
X19939914Y-13270171D01*
X19939914Y-13184457D01*
X19954200Y-13155886D01*
X19968486Y-13141600D01*
X19997057Y-13127314D01*
X20054200Y-13127314D01*
X20082771Y-13141600D01*
X20197057Y-13441600D02*
X20211343Y-13427314D01*
X20239914Y-13384457D01*
X20254200Y-13355886D01*
X20268486Y-13313029D01*
X20282771Y-13241600D01*
X20282771Y-13184457D01*
X20268486Y-13113029D01*
X20254200Y-13070171D01*
X20239914Y-13041600D01*
X20211343Y-12998743D01*
X20197057Y-12984457D01*
M02*
