G04 #@! TF.GenerationSoftware,KiCad,Pcbnew,(5.0.0-rc2-dev-444-g2974a2c10)*
G04 #@! TF.CreationDate,2019-11-26T22:46:32-08:00*
G04 #@! TF.ProjectId,Stemma_Host_FeatherWing,5374656D6D615F486F73745F46656174,v01*
G04 #@! TF.SameCoordinates,Original*
G04 #@! TF.FileFunction,Copper,L2,Bot,Signal*
G04 #@! TF.FilePolarity,Positive*
%FSLAX46Y46*%
G04 Gerber Fmt 4.6, Leading zero omitted, Abs format (unit mm)*
G04 Created by KiCad (PCBNEW (5.0.0-rc2-dev-444-g2974a2c10)) date 11/26/19 22:46:32*
%MOMM*%
%LPD*%
G01*
G04 APERTURE LIST*
%ADD10R,0.970000X1.270000*%
%ADD11C,1.700000*%
%ADD12C,3.000000*%
%ADD13R,1.600000X1.200000*%
%ADD14C,0.685800*%
%ADD15C,0.152400*%
%ADD16C,0.254000*%
G04 APERTURE END LIST*
D10*
X136398000Y-91059000D03*
X137668000Y-91059000D03*
X138938000Y-91059000D03*
X145034000Y-91059000D03*
X143764000Y-91059000D03*
X142494000Y-91059000D03*
D11*
X113715001Y-105206001D03*
X116255001Y-105206001D03*
X118795001Y-105206001D03*
X121335001Y-105206001D03*
X123875001Y-105206001D03*
X126415001Y-105206001D03*
X128955001Y-105206001D03*
X131495001Y-105206001D03*
X134035001Y-105206001D03*
X136575001Y-105206001D03*
X139115001Y-105206001D03*
X141655001Y-105206001D03*
X144195001Y-105206001D03*
X146735001Y-105206001D03*
X149275001Y-105206001D03*
X151815001Y-105206001D03*
X123875001Y-84886001D03*
X126415001Y-84886001D03*
X128955001Y-84886001D03*
X131495001Y-84886001D03*
X134035001Y-84886001D03*
X136575001Y-84886001D03*
X139115001Y-84886001D03*
X141655001Y-84886001D03*
X144195001Y-84886001D03*
X146735001Y-84886001D03*
X149275001Y-84886001D03*
X151815001Y-84886001D03*
D12*
X109905001Y-103936001D03*
X109905001Y-86156001D03*
D13*
X122428000Y-91824000D03*
X122428000Y-88624000D03*
D14*
X141097000Y-99568000D03*
X146177000Y-98044000D03*
X139192000Y-94869000D03*
X145269000Y-96882000D03*
X142494000Y-89154000D03*
X135890000Y-96012000D03*
X135951000Y-98232000D03*
X131182254Y-101608746D03*
X155829000Y-94750000D03*
X143002000Y-99568000D03*
X146748501Y-100774499D03*
X145415000Y-99949000D03*
X147955000Y-102870000D03*
X150622000Y-102870000D03*
X140843000Y-92964000D03*
X146400000Y-89550000D03*
X150622000Y-86868000D03*
X113030000Y-85590000D03*
X113030000Y-102870000D03*
X153289000Y-87884000D03*
X153289000Y-102870000D03*
X121666000Y-85590000D03*
X127900000Y-97800000D03*
X146550000Y-96550000D03*
X137600000Y-89000000D03*
X125200000Y-86400000D03*
X132969000Y-98171000D03*
X120200000Y-98400000D03*
X123995190Y-98095190D03*
X117495190Y-86500000D03*
D15*
X145692067Y-98044000D02*
X146177000Y-98044000D01*
X142136067Y-98044000D02*
X145692067Y-98044000D01*
X141097000Y-99083067D02*
X142136067Y-98044000D01*
X141097000Y-99568000D02*
X141097000Y-99083067D01*
X141097000Y-99568000D02*
X138176000Y-99568000D01*
X137668000Y-99060000D02*
X137668000Y-91059000D01*
X138176000Y-99568000D02*
X137668000Y-99060000D01*
X139192000Y-95504000D02*
X139192000Y-94869000D01*
X140570000Y-96882000D02*
X139192000Y-95504000D01*
X145269000Y-96882000D02*
X140570000Y-96882000D01*
X143764000Y-91846400D02*
X143764000Y-91059000D01*
X143764000Y-94892067D02*
X143764000Y-91846400D01*
X145269000Y-96397067D02*
X143764000Y-94892067D01*
X145269000Y-96882000D02*
X145269000Y-96397067D01*
X142494000Y-91059000D02*
X142494000Y-90271600D01*
X142494000Y-90271600D02*
X142494000Y-89154000D01*
X142494000Y-89154000D02*
X142494000Y-89154000D01*
X136232899Y-96354899D02*
X135890000Y-96012000D01*
X136293899Y-96415899D02*
X136232899Y-96354899D01*
X136293899Y-97889101D02*
X136293899Y-96415899D01*
X135951000Y-98232000D02*
X136293899Y-97889101D01*
X131173508Y-101600000D02*
X131182254Y-101608746D01*
X155829000Y-95758000D02*
X155829000Y-95758000D01*
X155829000Y-95758000D02*
X155829000Y-98679000D01*
X131667187Y-101608746D02*
X131675933Y-101600000D01*
X131182254Y-101608746D02*
X131667187Y-101608746D01*
X131675933Y-101600000D02*
X142494000Y-101600000D01*
X142494000Y-101600000D02*
X143002000Y-101092000D01*
X143002000Y-101092000D02*
X143002000Y-99568000D01*
X142494000Y-101600000D02*
X155067000Y-101600000D01*
X155829000Y-100838000D02*
X155829000Y-95758000D01*
X155067000Y-101600000D02*
X155829000Y-100838000D01*
X146748501Y-100774499D02*
X146748501Y-100774499D01*
X138938000Y-89154000D02*
X138938000Y-91059000D01*
X139827000Y-88265000D02*
X138938000Y-89154000D01*
X147066000Y-88265000D02*
X139827000Y-88265000D01*
X147955000Y-89154000D02*
X147066000Y-88265000D01*
X147955000Y-99568000D02*
X147955000Y-89154000D01*
X146748501Y-100774499D02*
X147955000Y-99568000D01*
X145034000Y-91059000D02*
X145671400Y-91059000D01*
X147320000Y-91059000D02*
X147650190Y-91389190D01*
X145671400Y-91059000D02*
X147320000Y-91059000D01*
X147650190Y-91389190D02*
X147650190Y-99314000D01*
X147650190Y-99314000D02*
X147650190Y-99364810D01*
X147650190Y-99364810D02*
X147066000Y-99949000D01*
X147066000Y-99949000D02*
X145415000Y-99949000D01*
X145415000Y-99949000D02*
X145415000Y-99949000D01*
D16*
X122428000Y-91824000D02*
X122428000Y-92928000D01*
D15*
X136398000Y-91059000D02*
X137668000Y-91059000D01*
X149275001Y-87145379D02*
X149275001Y-84886001D01*
X148460190Y-87960190D02*
X149275001Y-87145379D01*
X137039810Y-87960190D02*
X148460190Y-87960190D01*
X136398000Y-88602000D02*
X137039810Y-87960190D01*
X136398000Y-91059000D02*
X136398000Y-88602000D01*
X142494000Y-91059000D02*
X143764000Y-91059000D01*
X155829000Y-95758000D02*
X155829000Y-94750000D01*
X132439000Y-88624000D02*
X122428000Y-88624000D01*
X132969000Y-98171000D02*
X132969000Y-89154000D01*
X132969000Y-89154000D02*
X132439000Y-88624000D01*
X123875001Y-86088082D02*
X123800000Y-86163083D01*
X123875001Y-84886001D02*
X123875001Y-86088082D01*
X123800000Y-86163083D02*
X123800000Y-86200000D01*
X123800000Y-86200000D02*
X122900000Y-87100000D01*
X122900000Y-87100000D02*
X118300000Y-87100000D01*
X118300000Y-87100000D02*
X117800000Y-87600000D01*
X117800000Y-87600000D02*
X117800000Y-97800000D01*
X117800000Y-97800000D02*
X118400000Y-98400000D01*
X118400000Y-98400000D02*
X120200000Y-98400000D01*
X120200000Y-98400000D02*
X120200000Y-98400000D01*
X128955001Y-86088082D02*
X128800000Y-86243083D01*
X128955001Y-84886001D02*
X128955001Y-86088082D01*
X128800000Y-86243083D02*
X128800000Y-86900000D01*
X128295190Y-87404810D02*
X118426256Y-87404810D01*
X128800000Y-86900000D02*
X128295190Y-87404810D01*
X118104810Y-87726256D02*
X118104810Y-97673744D01*
X118426256Y-87404810D02*
X118104810Y-87726256D01*
X118104810Y-97673744D02*
X118526256Y-98095190D01*
X123995190Y-98095190D02*
X123995190Y-98095190D01*
X123652291Y-97752291D02*
X123995190Y-98095190D01*
X120001887Y-97752291D02*
X123652291Y-97752291D01*
X119658988Y-98095190D02*
X120001887Y-97752291D01*
X118526256Y-98095190D02*
X119658988Y-98095190D01*
X113715001Y-105206001D02*
X113715001Y-98684999D01*
X113715001Y-98684999D02*
X114300000Y-98100000D01*
X117300000Y-98100000D02*
X117495190Y-97904810D01*
X114300000Y-98100000D02*
X117300000Y-98100000D01*
X117495190Y-97904810D02*
X117495190Y-86500000D01*
X117495190Y-86500000D02*
X117495190Y-86495190D01*
D16*
G36*
X130451409Y-84188695D02*
X130264001Y-84641140D01*
X130264001Y-85130862D01*
X130451409Y-85583307D01*
X130797695Y-85929593D01*
X131250140Y-86117001D01*
X131739862Y-86117001D01*
X132192307Y-85929593D01*
X132538593Y-85583307D01*
X132726001Y-85130862D01*
X132726001Y-84641140D01*
X132538593Y-84188695D01*
X132346898Y-83997000D01*
X133183104Y-83997000D01*
X132991409Y-84188695D01*
X132804001Y-84641140D01*
X132804001Y-85130862D01*
X132991409Y-85583307D01*
X133337695Y-85929593D01*
X133790140Y-86117001D01*
X134279862Y-86117001D01*
X134732307Y-85929593D01*
X135078593Y-85583307D01*
X135266001Y-85130862D01*
X135266001Y-84641140D01*
X135078593Y-84188695D01*
X134886898Y-83997000D01*
X135723104Y-83997000D01*
X135531409Y-84188695D01*
X135344001Y-84641140D01*
X135344001Y-85130862D01*
X135531409Y-85583307D01*
X135877695Y-85929593D01*
X136330140Y-86117001D01*
X136819862Y-86117001D01*
X137272307Y-85929593D01*
X137618593Y-85583307D01*
X137806001Y-85130862D01*
X137806001Y-84641140D01*
X137618593Y-84188695D01*
X137426898Y-83997000D01*
X138263104Y-83997000D01*
X138071409Y-84188695D01*
X137884001Y-84641140D01*
X137884001Y-85130862D01*
X138071409Y-85583307D01*
X138417695Y-85929593D01*
X138870140Y-86117001D01*
X139359862Y-86117001D01*
X139812307Y-85929593D01*
X140158593Y-85583307D01*
X140346001Y-85130862D01*
X140346001Y-84641140D01*
X140158593Y-84188695D01*
X139966898Y-83997000D01*
X140803104Y-83997000D01*
X140611409Y-84188695D01*
X140424001Y-84641140D01*
X140424001Y-85130862D01*
X140611409Y-85583307D01*
X140957695Y-85929593D01*
X141410140Y-86117001D01*
X141899862Y-86117001D01*
X142352307Y-85929593D01*
X142698593Y-85583307D01*
X142886001Y-85130862D01*
X142886001Y-84641140D01*
X142698593Y-84188695D01*
X142506898Y-83997000D01*
X143343104Y-83997000D01*
X143151409Y-84188695D01*
X142964001Y-84641140D01*
X142964001Y-85130862D01*
X143151409Y-85583307D01*
X143497695Y-85929593D01*
X143950140Y-86117001D01*
X144439862Y-86117001D01*
X144892307Y-85929593D01*
X145238593Y-85583307D01*
X145426001Y-85130862D01*
X145426001Y-84641140D01*
X145238593Y-84188695D01*
X145046898Y-83997000D01*
X145883104Y-83997000D01*
X145691409Y-84188695D01*
X145504001Y-84641140D01*
X145504001Y-85130862D01*
X145691409Y-85583307D01*
X146037695Y-85929593D01*
X146490140Y-86117001D01*
X146979862Y-86117001D01*
X147432307Y-85929593D01*
X147778593Y-85583307D01*
X147966001Y-85130862D01*
X147966001Y-84641140D01*
X147778593Y-84188695D01*
X147586898Y-83997000D01*
X148423104Y-83997000D01*
X148231409Y-84188695D01*
X148044001Y-84641140D01*
X148044001Y-85130862D01*
X148231409Y-85583307D01*
X148577695Y-85929593D01*
X148817801Y-86029048D01*
X148817801Y-86956000D01*
X148270812Y-87502990D01*
X137084838Y-87502990D01*
X137039809Y-87494033D01*
X136994780Y-87502990D01*
X136861419Y-87529517D01*
X136710187Y-87630567D01*
X136684678Y-87668744D01*
X136106552Y-88246870D01*
X136068378Y-88272377D01*
X136042871Y-88310551D01*
X136042870Y-88310552D01*
X135967327Y-88423610D01*
X135931843Y-88602000D01*
X135940801Y-88647035D01*
X135940800Y-90035536D01*
X135913000Y-90035536D01*
X135764341Y-90065106D01*
X135638314Y-90149314D01*
X135554106Y-90275341D01*
X135524536Y-90424000D01*
X135524536Y-91694000D01*
X135554106Y-91842659D01*
X135638314Y-91968686D01*
X135764341Y-92052894D01*
X135913000Y-92082464D01*
X136883000Y-92082464D01*
X137031659Y-92052894D01*
X137033000Y-92051998D01*
X137034341Y-92052894D01*
X137183000Y-92082464D01*
X137210801Y-92082464D01*
X137210800Y-99014970D01*
X137201843Y-99060000D01*
X137210800Y-99105029D01*
X137237327Y-99238390D01*
X137338377Y-99389623D01*
X137376554Y-99415132D01*
X137820868Y-99859446D01*
X137846377Y-99897623D01*
X137997609Y-99998673D01*
X138130970Y-100025200D01*
X138130974Y-100025200D01*
X138175999Y-100034156D01*
X138221024Y-100025200D01*
X140530451Y-100025200D01*
X140686944Y-100181693D01*
X140953007Y-100291900D01*
X141240993Y-100291900D01*
X141507056Y-100181693D01*
X141710693Y-99978056D01*
X141820900Y-99711993D01*
X141820900Y-99424007D01*
X141710693Y-99157944D01*
X141689697Y-99136948D01*
X142325445Y-98501200D01*
X145610451Y-98501200D01*
X145766944Y-98657693D01*
X146033007Y-98767900D01*
X146320993Y-98767900D01*
X146587056Y-98657693D01*
X146790693Y-98454056D01*
X146900900Y-98187993D01*
X146900900Y-97900007D01*
X146790693Y-97633944D01*
X146587056Y-97430307D01*
X146320993Y-97320100D01*
X146033007Y-97320100D01*
X145766944Y-97430307D01*
X145610451Y-97586800D01*
X145459104Y-97586800D01*
X145679056Y-97495693D01*
X145882693Y-97292056D01*
X145992900Y-97025993D01*
X145992900Y-96738007D01*
X145882693Y-96471944D01*
X145717115Y-96306366D01*
X145709545Y-96268307D01*
X145699673Y-96218676D01*
X145598623Y-96067444D01*
X145560446Y-96041935D01*
X144221200Y-94702689D01*
X144221200Y-92082464D01*
X144249000Y-92082464D01*
X144397659Y-92052894D01*
X144399000Y-92051998D01*
X144400341Y-92052894D01*
X144549000Y-92082464D01*
X145519000Y-92082464D01*
X145667659Y-92052894D01*
X145793686Y-91968686D01*
X145877894Y-91842659D01*
X145907464Y-91694000D01*
X145907464Y-91516200D01*
X147130622Y-91516200D01*
X147192990Y-91578569D01*
X147192991Y-99175431D01*
X146876622Y-99491800D01*
X145981549Y-99491800D01*
X145825056Y-99335307D01*
X145558993Y-99225100D01*
X145271007Y-99225100D01*
X145004944Y-99335307D01*
X144801307Y-99538944D01*
X144691100Y-99805007D01*
X144691100Y-100092993D01*
X144801307Y-100359056D01*
X145004944Y-100562693D01*
X145271007Y-100672900D01*
X145558993Y-100672900D01*
X145825056Y-100562693D01*
X145981549Y-100406200D01*
X146117512Y-100406200D01*
X146024601Y-100630506D01*
X146024601Y-100918492D01*
X146117512Y-101142800D01*
X143458052Y-101142800D01*
X143459200Y-101137030D01*
X143459200Y-101137026D01*
X143468156Y-101092001D01*
X143459200Y-101046976D01*
X143459200Y-100134549D01*
X143615693Y-99978056D01*
X143725900Y-99711993D01*
X143725900Y-99424007D01*
X143615693Y-99157944D01*
X143412056Y-98954307D01*
X143145993Y-98844100D01*
X142858007Y-98844100D01*
X142591944Y-98954307D01*
X142388307Y-99157944D01*
X142278100Y-99424007D01*
X142278100Y-99711993D01*
X142388307Y-99978056D01*
X142544801Y-100134550D01*
X142544800Y-100902622D01*
X142304622Y-101142800D01*
X131740057Y-101142800D01*
X131592310Y-100995053D01*
X131326247Y-100884846D01*
X131038261Y-100884846D01*
X130772198Y-100995053D01*
X130568561Y-101198690D01*
X130458354Y-101464753D01*
X130458354Y-101752739D01*
X130568561Y-102018802D01*
X130772198Y-102222439D01*
X131038261Y-102332646D01*
X131326247Y-102332646D01*
X131592310Y-102222439D01*
X131757549Y-102057200D01*
X142448970Y-102057200D01*
X142494000Y-102066157D01*
X142539030Y-102057200D01*
X155021970Y-102057200D01*
X155067000Y-102066157D01*
X155112030Y-102057200D01*
X155245391Y-102030673D01*
X155396623Y-101929623D01*
X155422132Y-101891446D01*
X156120449Y-101193130D01*
X156158623Y-101167623D01*
X156259673Y-101016391D01*
X156286200Y-100883030D01*
X156286200Y-100883029D01*
X156295157Y-100838000D01*
X156286200Y-100792970D01*
X156286200Y-95803029D01*
X156295157Y-95758000D01*
X156286200Y-95712970D01*
X156286200Y-95316549D01*
X156442693Y-95160056D01*
X156552900Y-94893993D01*
X156552900Y-94606007D01*
X156442693Y-94339944D01*
X156239056Y-94136307D01*
X155972993Y-94026100D01*
X155685007Y-94026100D01*
X155418944Y-94136307D01*
X155215307Y-94339944D01*
X155105100Y-94606007D01*
X155105100Y-94893993D01*
X155215307Y-95160056D01*
X155371800Y-95316549D01*
X155371800Y-95712969D01*
X155362843Y-95758000D01*
X155371800Y-95803029D01*
X155371801Y-97237130D01*
X155371800Y-100648621D01*
X154877622Y-101142800D01*
X147379490Y-101142800D01*
X147472401Y-100918492D01*
X147472401Y-100697177D01*
X148246450Y-99923129D01*
X148284623Y-99897623D01*
X148385673Y-99746391D01*
X148412200Y-99613030D01*
X148412200Y-99613029D01*
X148421157Y-99568001D01*
X148412200Y-99522970D01*
X148412200Y-89199030D01*
X148421157Y-89154000D01*
X148385673Y-88975609D01*
X148310130Y-88862551D01*
X148284623Y-88824377D01*
X148246449Y-88798870D01*
X147864969Y-88417390D01*
X148415160Y-88417390D01*
X148460190Y-88426347D01*
X148505220Y-88417390D01*
X148638581Y-88390863D01*
X148789813Y-88289813D01*
X148815322Y-88251636D01*
X149566450Y-87500509D01*
X149604624Y-87475002D01*
X149705674Y-87323770D01*
X149732201Y-87190409D01*
X149732201Y-87190408D01*
X149741158Y-87145379D01*
X149732201Y-87100349D01*
X149732201Y-86029048D01*
X149972307Y-85929593D01*
X150318593Y-85583307D01*
X150506001Y-85130862D01*
X150506001Y-84641140D01*
X150318593Y-84188695D01*
X150126898Y-83997000D01*
X150963104Y-83997000D01*
X150771409Y-84188695D01*
X150584001Y-84641140D01*
X150584001Y-85130862D01*
X150771409Y-85583307D01*
X151117695Y-85929593D01*
X151570140Y-86117001D01*
X152059862Y-86117001D01*
X152512307Y-85929593D01*
X152610325Y-85831575D01*
X153994001Y-85831575D01*
X153994001Y-86480427D01*
X154242306Y-87079888D01*
X154701114Y-87538696D01*
X155300575Y-87787001D01*
X155949427Y-87787001D01*
X156548888Y-87538696D01*
X157007696Y-87079888D01*
X157256001Y-86480427D01*
X157256001Y-85831575D01*
X157007696Y-85232114D01*
X156548888Y-84773306D01*
X155949427Y-84525001D01*
X155300575Y-84525001D01*
X154701114Y-84773306D01*
X154242306Y-85232114D01*
X153994001Y-85831575D01*
X152610325Y-85831575D01*
X152858593Y-85583307D01*
X153046001Y-85130862D01*
X153046001Y-84641140D01*
X152858593Y-84188695D01*
X152666898Y-83997000D01*
X155674887Y-83997000D01*
X156225631Y-84066575D01*
X156716370Y-84260872D01*
X157143366Y-84571103D01*
X157479797Y-84977779D01*
X157704520Y-85455340D01*
X157807267Y-85993957D01*
X157811001Y-86112792D01*
X157811000Y-103858887D01*
X157741425Y-104409632D01*
X157547128Y-104900369D01*
X157236899Y-105327364D01*
X156830222Y-105663796D01*
X156352660Y-105888520D01*
X155814043Y-105991267D01*
X155695240Y-105995000D01*
X152766900Y-105995000D01*
X152858593Y-105903307D01*
X153046001Y-105450862D01*
X153046001Y-104961140D01*
X152858593Y-104508695D01*
X152512307Y-104162409D01*
X152059862Y-103975001D01*
X151570140Y-103975001D01*
X151117695Y-104162409D01*
X150771409Y-104508695D01*
X150584001Y-104961140D01*
X150584001Y-105450862D01*
X150771409Y-105903307D01*
X150863102Y-105995000D01*
X150226900Y-105995000D01*
X150318593Y-105903307D01*
X150506001Y-105450862D01*
X150506001Y-104961140D01*
X150318593Y-104508695D01*
X149972307Y-104162409D01*
X149519862Y-103975001D01*
X149030140Y-103975001D01*
X148577695Y-104162409D01*
X148231409Y-104508695D01*
X148044001Y-104961140D01*
X148044001Y-105450862D01*
X148231409Y-105903307D01*
X148323102Y-105995000D01*
X147686900Y-105995000D01*
X147778593Y-105903307D01*
X147966001Y-105450862D01*
X147966001Y-104961140D01*
X147778593Y-104508695D01*
X147432307Y-104162409D01*
X146979862Y-103975001D01*
X146490140Y-103975001D01*
X146037695Y-104162409D01*
X145691409Y-104508695D01*
X145504001Y-104961140D01*
X145504001Y-105450862D01*
X145691409Y-105903307D01*
X145783102Y-105995000D01*
X145146900Y-105995000D01*
X145238593Y-105903307D01*
X145426001Y-105450862D01*
X145426001Y-104961140D01*
X145238593Y-104508695D01*
X144892307Y-104162409D01*
X144439862Y-103975001D01*
X143950140Y-103975001D01*
X143497695Y-104162409D01*
X143151409Y-104508695D01*
X142964001Y-104961140D01*
X142964001Y-105450862D01*
X143151409Y-105903307D01*
X143243102Y-105995000D01*
X142606900Y-105995000D01*
X142698593Y-105903307D01*
X142886001Y-105450862D01*
X142886001Y-104961140D01*
X142698593Y-104508695D01*
X142352307Y-104162409D01*
X141899862Y-103975001D01*
X141410140Y-103975001D01*
X140957695Y-104162409D01*
X140611409Y-104508695D01*
X140424001Y-104961140D01*
X140424001Y-105450862D01*
X140611409Y-105903307D01*
X140703102Y-105995000D01*
X140066900Y-105995000D01*
X140158593Y-105903307D01*
X140346001Y-105450862D01*
X140346001Y-104961140D01*
X140158593Y-104508695D01*
X139812307Y-104162409D01*
X139359862Y-103975001D01*
X138870140Y-103975001D01*
X138417695Y-104162409D01*
X138071409Y-104508695D01*
X137884001Y-104961140D01*
X137884001Y-105450862D01*
X138071409Y-105903307D01*
X138163102Y-105995000D01*
X137526900Y-105995000D01*
X137618593Y-105903307D01*
X137806001Y-105450862D01*
X137806001Y-104961140D01*
X137618593Y-104508695D01*
X137272307Y-104162409D01*
X136819862Y-103975001D01*
X136330140Y-103975001D01*
X135877695Y-104162409D01*
X135531409Y-104508695D01*
X135344001Y-104961140D01*
X135344001Y-105450862D01*
X135531409Y-105903307D01*
X135623102Y-105995000D01*
X134986900Y-105995000D01*
X135078593Y-105903307D01*
X135266001Y-105450862D01*
X135266001Y-104961140D01*
X135078593Y-104508695D01*
X134732307Y-104162409D01*
X134279862Y-103975001D01*
X133790140Y-103975001D01*
X133337695Y-104162409D01*
X132991409Y-104508695D01*
X132804001Y-104961140D01*
X132804001Y-105450862D01*
X132991409Y-105903307D01*
X133083102Y-105995000D01*
X132446900Y-105995000D01*
X132538593Y-105903307D01*
X132726001Y-105450862D01*
X132726001Y-104961140D01*
X132538593Y-104508695D01*
X132192307Y-104162409D01*
X131739862Y-103975001D01*
X131250140Y-103975001D01*
X130797695Y-104162409D01*
X130451409Y-104508695D01*
X130264001Y-104961140D01*
X130264001Y-105450862D01*
X130451409Y-105903307D01*
X130543102Y-105995000D01*
X129906900Y-105995000D01*
X129998593Y-105903307D01*
X130186001Y-105450862D01*
X130186001Y-104961140D01*
X129998593Y-104508695D01*
X129652307Y-104162409D01*
X129199862Y-103975001D01*
X128710140Y-103975001D01*
X128257695Y-104162409D01*
X127911409Y-104508695D01*
X127724001Y-104961140D01*
X127724001Y-105450862D01*
X127911409Y-105903307D01*
X128003102Y-105995000D01*
X127366900Y-105995000D01*
X127458593Y-105903307D01*
X127646001Y-105450862D01*
X127646001Y-104961140D01*
X127458593Y-104508695D01*
X127112307Y-104162409D01*
X126659862Y-103975001D01*
X126170140Y-103975001D01*
X125717695Y-104162409D01*
X125371409Y-104508695D01*
X125184001Y-104961140D01*
X125184001Y-105450862D01*
X125371409Y-105903307D01*
X125463102Y-105995000D01*
X124826900Y-105995000D01*
X124918593Y-105903307D01*
X125106001Y-105450862D01*
X125106001Y-104961140D01*
X124918593Y-104508695D01*
X124572307Y-104162409D01*
X124119862Y-103975001D01*
X123630140Y-103975001D01*
X123177695Y-104162409D01*
X122831409Y-104508695D01*
X122748806Y-104708117D01*
X122630260Y-104421921D01*
X122378959Y-104341648D01*
X121514606Y-105206001D01*
X121528749Y-105220144D01*
X121349144Y-105399749D01*
X121335001Y-105385606D01*
X121320859Y-105399749D01*
X121141254Y-105220144D01*
X121155396Y-105206001D01*
X120291043Y-104341648D01*
X120039742Y-104421921D01*
X119929047Y-104727072D01*
X119838593Y-104508695D01*
X119492307Y-104162409D01*
X119491424Y-104162043D01*
X120470648Y-104162043D01*
X121335001Y-105026396D01*
X122199354Y-104162043D01*
X122119081Y-103910742D01*
X121563722Y-103709283D01*
X120973543Y-103735686D01*
X120550921Y-103910742D01*
X120470648Y-104162043D01*
X119491424Y-104162043D01*
X119039862Y-103975001D01*
X118550140Y-103975001D01*
X118097695Y-104162409D01*
X117751409Y-104508695D01*
X117564001Y-104961140D01*
X117564001Y-105450862D01*
X117751409Y-105903307D01*
X117843102Y-105995000D01*
X117206900Y-105995000D01*
X117298593Y-105903307D01*
X117486001Y-105450862D01*
X117486001Y-104961140D01*
X117298593Y-104508695D01*
X116952307Y-104162409D01*
X116499862Y-103975001D01*
X116010140Y-103975001D01*
X115557695Y-104162409D01*
X115211409Y-104508695D01*
X115024001Y-104961140D01*
X115024001Y-105450862D01*
X115211409Y-105903307D01*
X115303102Y-105995000D01*
X114666900Y-105995000D01*
X114758593Y-105903307D01*
X114946001Y-105450862D01*
X114946001Y-104961140D01*
X114758593Y-104508695D01*
X114412307Y-104162409D01*
X114172201Y-104062954D01*
X114172201Y-103611575D01*
X153994001Y-103611575D01*
X153994001Y-104260427D01*
X154242306Y-104859888D01*
X154701114Y-105318696D01*
X155300575Y-105567001D01*
X155949427Y-105567001D01*
X156548888Y-105318696D01*
X157007696Y-104859888D01*
X157256001Y-104260427D01*
X157256001Y-103611575D01*
X157007696Y-103012114D01*
X156548888Y-102553306D01*
X155949427Y-102305001D01*
X155300575Y-102305001D01*
X154701114Y-102553306D01*
X154242306Y-103012114D01*
X153994001Y-103611575D01*
X114172201Y-103611575D01*
X114172201Y-98874377D01*
X114489378Y-98557200D01*
X117254970Y-98557200D01*
X117300000Y-98566157D01*
X117345030Y-98557200D01*
X117478391Y-98530673D01*
X117629623Y-98429623D01*
X117655133Y-98391445D01*
X117700000Y-98346578D01*
X118044870Y-98691449D01*
X118070377Y-98729623D01*
X118204274Y-98819090D01*
X118221609Y-98830673D01*
X118399999Y-98866157D01*
X118445029Y-98857200D01*
X119633451Y-98857200D01*
X119789944Y-99013693D01*
X120056007Y-99123900D01*
X120343993Y-99123900D01*
X120610056Y-99013693D01*
X120813693Y-98810056D01*
X120923900Y-98543993D01*
X120923900Y-98256007D01*
X120904632Y-98209491D01*
X123271290Y-98209491D01*
X123271290Y-98239183D01*
X123381497Y-98505246D01*
X123585134Y-98708883D01*
X123851197Y-98819090D01*
X124139183Y-98819090D01*
X124405246Y-98708883D01*
X124608883Y-98505246D01*
X124719090Y-98239183D01*
X124719090Y-97951197D01*
X124608883Y-97685134D01*
X124405246Y-97481497D01*
X124139183Y-97371290D01*
X123905021Y-97371290D01*
X123830682Y-97321618D01*
X123697321Y-97295091D01*
X123652291Y-97286134D01*
X123607261Y-97295091D01*
X120046915Y-97295091D01*
X120001886Y-97286134D01*
X119956857Y-97295091D01*
X119823496Y-97321618D01*
X119672264Y-97422668D01*
X119646755Y-97460845D01*
X119469610Y-97637990D01*
X118715634Y-97637990D01*
X118562010Y-97484366D01*
X118562010Y-87915634D01*
X118615635Y-87862010D01*
X119511374Y-87862010D01*
X119507000Y-87884000D01*
X119507000Y-92710000D01*
X119516667Y-92758601D01*
X119544197Y-92799803D01*
X119585399Y-92827333D01*
X119634000Y-92837000D01*
X121142974Y-92837000D01*
X121268302Y-92962327D01*
X121501691Y-93059000D01*
X122142250Y-93059000D01*
X122301000Y-92900250D01*
X122301000Y-92837000D01*
X122555000Y-92837000D01*
X122555000Y-92900250D01*
X122713750Y-93059000D01*
X123354309Y-93059000D01*
X123587698Y-92962327D01*
X123713026Y-92837000D01*
X125222000Y-92837000D01*
X125270601Y-92827333D01*
X125311803Y-92799803D01*
X125339333Y-92758601D01*
X125349000Y-92710000D01*
X125349000Y-89081200D01*
X132249622Y-89081200D01*
X132511801Y-89343380D01*
X132511800Y-97604451D01*
X132355307Y-97760944D01*
X132245100Y-98027007D01*
X132245100Y-98314993D01*
X132355307Y-98581056D01*
X132558944Y-98784693D01*
X132825007Y-98894900D01*
X133112993Y-98894900D01*
X133379056Y-98784693D01*
X133582693Y-98581056D01*
X133692900Y-98314993D01*
X133692900Y-98027007D01*
X133582693Y-97760944D01*
X133426200Y-97604451D01*
X133426200Y-95868007D01*
X135166100Y-95868007D01*
X135166100Y-96155993D01*
X135276307Y-96422056D01*
X135479944Y-96625693D01*
X135746007Y-96735900D01*
X135836700Y-96735900D01*
X135836699Y-97508100D01*
X135807007Y-97508100D01*
X135540944Y-97618307D01*
X135337307Y-97821944D01*
X135227100Y-98088007D01*
X135227100Y-98375993D01*
X135337307Y-98642056D01*
X135540944Y-98845693D01*
X135807007Y-98955900D01*
X136094993Y-98955900D01*
X136361056Y-98845693D01*
X136564693Y-98642056D01*
X136674900Y-98375993D01*
X136674900Y-98141831D01*
X136724572Y-98067492D01*
X136751099Y-97934131D01*
X136751099Y-97934130D01*
X136760056Y-97889102D01*
X136751099Y-97844073D01*
X136751099Y-96460928D01*
X136760056Y-96415898D01*
X136724572Y-96237509D01*
X136724572Y-96237508D01*
X136623522Y-96086276D01*
X136613900Y-96079847D01*
X136613900Y-95868007D01*
X136503693Y-95601944D01*
X136300056Y-95398307D01*
X136033993Y-95288100D01*
X135746007Y-95288100D01*
X135479944Y-95398307D01*
X135276307Y-95601944D01*
X135166100Y-95868007D01*
X133426200Y-95868007D01*
X133426200Y-89199029D01*
X133435157Y-89153999D01*
X133399673Y-88975609D01*
X133324130Y-88862551D01*
X133298623Y-88824377D01*
X133260449Y-88798870D01*
X132794132Y-88332554D01*
X132768623Y-88294377D01*
X132617391Y-88193327D01*
X132484030Y-88166800D01*
X132439000Y-88157843D01*
X132393970Y-88166800D01*
X125349000Y-88166800D01*
X125349000Y-87884000D01*
X125344626Y-87862010D01*
X128250160Y-87862010D01*
X128295190Y-87870967D01*
X128340220Y-87862010D01*
X128473581Y-87835483D01*
X128624813Y-87734433D01*
X128650322Y-87696256D01*
X129091449Y-87255130D01*
X129129623Y-87229623D01*
X129230673Y-87078391D01*
X129257200Y-86945030D01*
X129266157Y-86900001D01*
X129257200Y-86854971D01*
X129257200Y-86436029D01*
X129284624Y-86417705D01*
X129385674Y-86266473D01*
X129412201Y-86133112D01*
X129421158Y-86088082D01*
X129412201Y-86043052D01*
X129412201Y-86029048D01*
X129652307Y-85929593D01*
X129998593Y-85583307D01*
X130186001Y-85130862D01*
X130186001Y-84641140D01*
X129998593Y-84188695D01*
X129806898Y-83997000D01*
X130643104Y-83997000D01*
X130451409Y-84188695D01*
X130451409Y-84188695D01*
G37*
X130451409Y-84188695D02*
X130264001Y-84641140D01*
X130264001Y-85130862D01*
X130451409Y-85583307D01*
X130797695Y-85929593D01*
X131250140Y-86117001D01*
X131739862Y-86117001D01*
X132192307Y-85929593D01*
X132538593Y-85583307D01*
X132726001Y-85130862D01*
X132726001Y-84641140D01*
X132538593Y-84188695D01*
X132346898Y-83997000D01*
X133183104Y-83997000D01*
X132991409Y-84188695D01*
X132804001Y-84641140D01*
X132804001Y-85130862D01*
X132991409Y-85583307D01*
X133337695Y-85929593D01*
X133790140Y-86117001D01*
X134279862Y-86117001D01*
X134732307Y-85929593D01*
X135078593Y-85583307D01*
X135266001Y-85130862D01*
X135266001Y-84641140D01*
X135078593Y-84188695D01*
X134886898Y-83997000D01*
X135723104Y-83997000D01*
X135531409Y-84188695D01*
X135344001Y-84641140D01*
X135344001Y-85130862D01*
X135531409Y-85583307D01*
X135877695Y-85929593D01*
X136330140Y-86117001D01*
X136819862Y-86117001D01*
X137272307Y-85929593D01*
X137618593Y-85583307D01*
X137806001Y-85130862D01*
X137806001Y-84641140D01*
X137618593Y-84188695D01*
X137426898Y-83997000D01*
X138263104Y-83997000D01*
X138071409Y-84188695D01*
X137884001Y-84641140D01*
X137884001Y-85130862D01*
X138071409Y-85583307D01*
X138417695Y-85929593D01*
X138870140Y-86117001D01*
X139359862Y-86117001D01*
X139812307Y-85929593D01*
X140158593Y-85583307D01*
X140346001Y-85130862D01*
X140346001Y-84641140D01*
X140158593Y-84188695D01*
X139966898Y-83997000D01*
X140803104Y-83997000D01*
X140611409Y-84188695D01*
X140424001Y-84641140D01*
X140424001Y-85130862D01*
X140611409Y-85583307D01*
X140957695Y-85929593D01*
X141410140Y-86117001D01*
X141899862Y-86117001D01*
X142352307Y-85929593D01*
X142698593Y-85583307D01*
X142886001Y-85130862D01*
X142886001Y-84641140D01*
X142698593Y-84188695D01*
X142506898Y-83997000D01*
X143343104Y-83997000D01*
X143151409Y-84188695D01*
X142964001Y-84641140D01*
X142964001Y-85130862D01*
X143151409Y-85583307D01*
X143497695Y-85929593D01*
X143950140Y-86117001D01*
X144439862Y-86117001D01*
X144892307Y-85929593D01*
X145238593Y-85583307D01*
X145426001Y-85130862D01*
X145426001Y-84641140D01*
X145238593Y-84188695D01*
X145046898Y-83997000D01*
X145883104Y-83997000D01*
X145691409Y-84188695D01*
X145504001Y-84641140D01*
X145504001Y-85130862D01*
X145691409Y-85583307D01*
X146037695Y-85929593D01*
X146490140Y-86117001D01*
X146979862Y-86117001D01*
X147432307Y-85929593D01*
X147778593Y-85583307D01*
X147966001Y-85130862D01*
X147966001Y-84641140D01*
X147778593Y-84188695D01*
X147586898Y-83997000D01*
X148423104Y-83997000D01*
X148231409Y-84188695D01*
X148044001Y-84641140D01*
X148044001Y-85130862D01*
X148231409Y-85583307D01*
X148577695Y-85929593D01*
X148817801Y-86029048D01*
X148817801Y-86956000D01*
X148270812Y-87502990D01*
X137084838Y-87502990D01*
X137039809Y-87494033D01*
X136994780Y-87502990D01*
X136861419Y-87529517D01*
X136710187Y-87630567D01*
X136684678Y-87668744D01*
X136106552Y-88246870D01*
X136068378Y-88272377D01*
X136042871Y-88310551D01*
X136042870Y-88310552D01*
X135967327Y-88423610D01*
X135931843Y-88602000D01*
X135940801Y-88647035D01*
X135940800Y-90035536D01*
X135913000Y-90035536D01*
X135764341Y-90065106D01*
X135638314Y-90149314D01*
X135554106Y-90275341D01*
X135524536Y-90424000D01*
X135524536Y-91694000D01*
X135554106Y-91842659D01*
X135638314Y-91968686D01*
X135764341Y-92052894D01*
X135913000Y-92082464D01*
X136883000Y-92082464D01*
X137031659Y-92052894D01*
X137033000Y-92051998D01*
X137034341Y-92052894D01*
X137183000Y-92082464D01*
X137210801Y-92082464D01*
X137210800Y-99014970D01*
X137201843Y-99060000D01*
X137210800Y-99105029D01*
X137237327Y-99238390D01*
X137338377Y-99389623D01*
X137376554Y-99415132D01*
X137820868Y-99859446D01*
X137846377Y-99897623D01*
X137997609Y-99998673D01*
X138130970Y-100025200D01*
X138130974Y-100025200D01*
X138175999Y-100034156D01*
X138221024Y-100025200D01*
X140530451Y-100025200D01*
X140686944Y-100181693D01*
X140953007Y-100291900D01*
X141240993Y-100291900D01*
X141507056Y-100181693D01*
X141710693Y-99978056D01*
X141820900Y-99711993D01*
X141820900Y-99424007D01*
X141710693Y-99157944D01*
X141689697Y-99136948D01*
X142325445Y-98501200D01*
X145610451Y-98501200D01*
X145766944Y-98657693D01*
X146033007Y-98767900D01*
X146320993Y-98767900D01*
X146587056Y-98657693D01*
X146790693Y-98454056D01*
X146900900Y-98187993D01*
X146900900Y-97900007D01*
X146790693Y-97633944D01*
X146587056Y-97430307D01*
X146320993Y-97320100D01*
X146033007Y-97320100D01*
X145766944Y-97430307D01*
X145610451Y-97586800D01*
X145459104Y-97586800D01*
X145679056Y-97495693D01*
X145882693Y-97292056D01*
X145992900Y-97025993D01*
X145992900Y-96738007D01*
X145882693Y-96471944D01*
X145717115Y-96306366D01*
X145709545Y-96268307D01*
X145699673Y-96218676D01*
X145598623Y-96067444D01*
X145560446Y-96041935D01*
X144221200Y-94702689D01*
X144221200Y-92082464D01*
X144249000Y-92082464D01*
X144397659Y-92052894D01*
X144399000Y-92051998D01*
X144400341Y-92052894D01*
X144549000Y-92082464D01*
X145519000Y-92082464D01*
X145667659Y-92052894D01*
X145793686Y-91968686D01*
X145877894Y-91842659D01*
X145907464Y-91694000D01*
X145907464Y-91516200D01*
X147130622Y-91516200D01*
X147192990Y-91578569D01*
X147192991Y-99175431D01*
X146876622Y-99491800D01*
X145981549Y-99491800D01*
X145825056Y-99335307D01*
X145558993Y-99225100D01*
X145271007Y-99225100D01*
X145004944Y-99335307D01*
X144801307Y-99538944D01*
X144691100Y-99805007D01*
X144691100Y-100092993D01*
X144801307Y-100359056D01*
X145004944Y-100562693D01*
X145271007Y-100672900D01*
X145558993Y-100672900D01*
X145825056Y-100562693D01*
X145981549Y-100406200D01*
X146117512Y-100406200D01*
X146024601Y-100630506D01*
X146024601Y-100918492D01*
X146117512Y-101142800D01*
X143458052Y-101142800D01*
X143459200Y-101137030D01*
X143459200Y-101137026D01*
X143468156Y-101092001D01*
X143459200Y-101046976D01*
X143459200Y-100134549D01*
X143615693Y-99978056D01*
X143725900Y-99711993D01*
X143725900Y-99424007D01*
X143615693Y-99157944D01*
X143412056Y-98954307D01*
X143145993Y-98844100D01*
X142858007Y-98844100D01*
X142591944Y-98954307D01*
X142388307Y-99157944D01*
X142278100Y-99424007D01*
X142278100Y-99711993D01*
X142388307Y-99978056D01*
X142544801Y-100134550D01*
X142544800Y-100902622D01*
X142304622Y-101142800D01*
X131740057Y-101142800D01*
X131592310Y-100995053D01*
X131326247Y-100884846D01*
X131038261Y-100884846D01*
X130772198Y-100995053D01*
X130568561Y-101198690D01*
X130458354Y-101464753D01*
X130458354Y-101752739D01*
X130568561Y-102018802D01*
X130772198Y-102222439D01*
X131038261Y-102332646D01*
X131326247Y-102332646D01*
X131592310Y-102222439D01*
X131757549Y-102057200D01*
X142448970Y-102057200D01*
X142494000Y-102066157D01*
X142539030Y-102057200D01*
X155021970Y-102057200D01*
X155067000Y-102066157D01*
X155112030Y-102057200D01*
X155245391Y-102030673D01*
X155396623Y-101929623D01*
X155422132Y-101891446D01*
X156120449Y-101193130D01*
X156158623Y-101167623D01*
X156259673Y-101016391D01*
X156286200Y-100883030D01*
X156286200Y-100883029D01*
X156295157Y-100838000D01*
X156286200Y-100792970D01*
X156286200Y-95803029D01*
X156295157Y-95758000D01*
X156286200Y-95712970D01*
X156286200Y-95316549D01*
X156442693Y-95160056D01*
X156552900Y-94893993D01*
X156552900Y-94606007D01*
X156442693Y-94339944D01*
X156239056Y-94136307D01*
X155972993Y-94026100D01*
X155685007Y-94026100D01*
X155418944Y-94136307D01*
X155215307Y-94339944D01*
X155105100Y-94606007D01*
X155105100Y-94893993D01*
X155215307Y-95160056D01*
X155371800Y-95316549D01*
X155371800Y-95712969D01*
X155362843Y-95758000D01*
X155371800Y-95803029D01*
X155371801Y-97237130D01*
X155371800Y-100648621D01*
X154877622Y-101142800D01*
X147379490Y-101142800D01*
X147472401Y-100918492D01*
X147472401Y-100697177D01*
X148246450Y-99923129D01*
X148284623Y-99897623D01*
X148385673Y-99746391D01*
X148412200Y-99613030D01*
X148412200Y-99613029D01*
X148421157Y-99568001D01*
X148412200Y-99522970D01*
X148412200Y-89199030D01*
X148421157Y-89154000D01*
X148385673Y-88975609D01*
X148310130Y-88862551D01*
X148284623Y-88824377D01*
X148246449Y-88798870D01*
X147864969Y-88417390D01*
X148415160Y-88417390D01*
X148460190Y-88426347D01*
X148505220Y-88417390D01*
X148638581Y-88390863D01*
X148789813Y-88289813D01*
X148815322Y-88251636D01*
X149566450Y-87500509D01*
X149604624Y-87475002D01*
X149705674Y-87323770D01*
X149732201Y-87190409D01*
X149732201Y-87190408D01*
X149741158Y-87145379D01*
X149732201Y-87100349D01*
X149732201Y-86029048D01*
X149972307Y-85929593D01*
X150318593Y-85583307D01*
X150506001Y-85130862D01*
X150506001Y-84641140D01*
X150318593Y-84188695D01*
X150126898Y-83997000D01*
X150963104Y-83997000D01*
X150771409Y-84188695D01*
X150584001Y-84641140D01*
X150584001Y-85130862D01*
X150771409Y-85583307D01*
X151117695Y-85929593D01*
X151570140Y-86117001D01*
X152059862Y-86117001D01*
X152512307Y-85929593D01*
X152610325Y-85831575D01*
X153994001Y-85831575D01*
X153994001Y-86480427D01*
X154242306Y-87079888D01*
X154701114Y-87538696D01*
X155300575Y-87787001D01*
X155949427Y-87787001D01*
X156548888Y-87538696D01*
X157007696Y-87079888D01*
X157256001Y-86480427D01*
X157256001Y-85831575D01*
X157007696Y-85232114D01*
X156548888Y-84773306D01*
X155949427Y-84525001D01*
X155300575Y-84525001D01*
X154701114Y-84773306D01*
X154242306Y-85232114D01*
X153994001Y-85831575D01*
X152610325Y-85831575D01*
X152858593Y-85583307D01*
X153046001Y-85130862D01*
X153046001Y-84641140D01*
X152858593Y-84188695D01*
X152666898Y-83997000D01*
X155674887Y-83997000D01*
X156225631Y-84066575D01*
X156716370Y-84260872D01*
X157143366Y-84571103D01*
X157479797Y-84977779D01*
X157704520Y-85455340D01*
X157807267Y-85993957D01*
X157811001Y-86112792D01*
X157811000Y-103858887D01*
X157741425Y-104409632D01*
X157547128Y-104900369D01*
X157236899Y-105327364D01*
X156830222Y-105663796D01*
X156352660Y-105888520D01*
X155814043Y-105991267D01*
X155695240Y-105995000D01*
X152766900Y-105995000D01*
X152858593Y-105903307D01*
X153046001Y-105450862D01*
X153046001Y-104961140D01*
X152858593Y-104508695D01*
X152512307Y-104162409D01*
X152059862Y-103975001D01*
X151570140Y-103975001D01*
X151117695Y-104162409D01*
X150771409Y-104508695D01*
X150584001Y-104961140D01*
X150584001Y-105450862D01*
X150771409Y-105903307D01*
X150863102Y-105995000D01*
X150226900Y-105995000D01*
X150318593Y-105903307D01*
X150506001Y-105450862D01*
X150506001Y-104961140D01*
X150318593Y-104508695D01*
X149972307Y-104162409D01*
X149519862Y-103975001D01*
X149030140Y-103975001D01*
X148577695Y-104162409D01*
X148231409Y-104508695D01*
X148044001Y-104961140D01*
X148044001Y-105450862D01*
X148231409Y-105903307D01*
X148323102Y-105995000D01*
X147686900Y-105995000D01*
X147778593Y-105903307D01*
X147966001Y-105450862D01*
X147966001Y-104961140D01*
X147778593Y-104508695D01*
X147432307Y-104162409D01*
X146979862Y-103975001D01*
X146490140Y-103975001D01*
X146037695Y-104162409D01*
X145691409Y-104508695D01*
X145504001Y-104961140D01*
X145504001Y-105450862D01*
X145691409Y-105903307D01*
X145783102Y-105995000D01*
X145146900Y-105995000D01*
X145238593Y-105903307D01*
X145426001Y-105450862D01*
X145426001Y-104961140D01*
X145238593Y-104508695D01*
X144892307Y-104162409D01*
X144439862Y-103975001D01*
X143950140Y-103975001D01*
X143497695Y-104162409D01*
X143151409Y-104508695D01*
X142964001Y-104961140D01*
X142964001Y-105450862D01*
X143151409Y-105903307D01*
X143243102Y-105995000D01*
X142606900Y-105995000D01*
X142698593Y-105903307D01*
X142886001Y-105450862D01*
X142886001Y-104961140D01*
X142698593Y-104508695D01*
X142352307Y-104162409D01*
X141899862Y-103975001D01*
X141410140Y-103975001D01*
X140957695Y-104162409D01*
X140611409Y-104508695D01*
X140424001Y-104961140D01*
X140424001Y-105450862D01*
X140611409Y-105903307D01*
X140703102Y-105995000D01*
X140066900Y-105995000D01*
X140158593Y-105903307D01*
X140346001Y-105450862D01*
X140346001Y-104961140D01*
X140158593Y-104508695D01*
X139812307Y-104162409D01*
X139359862Y-103975001D01*
X138870140Y-103975001D01*
X138417695Y-104162409D01*
X138071409Y-104508695D01*
X137884001Y-104961140D01*
X137884001Y-105450862D01*
X138071409Y-105903307D01*
X138163102Y-105995000D01*
X137526900Y-105995000D01*
X137618593Y-105903307D01*
X137806001Y-105450862D01*
X137806001Y-104961140D01*
X137618593Y-104508695D01*
X137272307Y-104162409D01*
X136819862Y-103975001D01*
X136330140Y-103975001D01*
X135877695Y-104162409D01*
X135531409Y-104508695D01*
X135344001Y-104961140D01*
X135344001Y-105450862D01*
X135531409Y-105903307D01*
X135623102Y-105995000D01*
X134986900Y-105995000D01*
X135078593Y-105903307D01*
X135266001Y-105450862D01*
X135266001Y-104961140D01*
X135078593Y-104508695D01*
X134732307Y-104162409D01*
X134279862Y-103975001D01*
X133790140Y-103975001D01*
X133337695Y-104162409D01*
X132991409Y-104508695D01*
X132804001Y-104961140D01*
X132804001Y-105450862D01*
X132991409Y-105903307D01*
X133083102Y-105995000D01*
X132446900Y-105995000D01*
X132538593Y-105903307D01*
X132726001Y-105450862D01*
X132726001Y-104961140D01*
X132538593Y-104508695D01*
X132192307Y-104162409D01*
X131739862Y-103975001D01*
X131250140Y-103975001D01*
X130797695Y-104162409D01*
X130451409Y-104508695D01*
X130264001Y-104961140D01*
X130264001Y-105450862D01*
X130451409Y-105903307D01*
X130543102Y-105995000D01*
X129906900Y-105995000D01*
X129998593Y-105903307D01*
X130186001Y-105450862D01*
X130186001Y-104961140D01*
X129998593Y-104508695D01*
X129652307Y-104162409D01*
X129199862Y-103975001D01*
X128710140Y-103975001D01*
X128257695Y-104162409D01*
X127911409Y-104508695D01*
X127724001Y-104961140D01*
X127724001Y-105450862D01*
X127911409Y-105903307D01*
X128003102Y-105995000D01*
X127366900Y-105995000D01*
X127458593Y-105903307D01*
X127646001Y-105450862D01*
X127646001Y-104961140D01*
X127458593Y-104508695D01*
X127112307Y-104162409D01*
X126659862Y-103975001D01*
X126170140Y-103975001D01*
X125717695Y-104162409D01*
X125371409Y-104508695D01*
X125184001Y-104961140D01*
X125184001Y-105450862D01*
X125371409Y-105903307D01*
X125463102Y-105995000D01*
X124826900Y-105995000D01*
X124918593Y-105903307D01*
X125106001Y-105450862D01*
X125106001Y-104961140D01*
X124918593Y-104508695D01*
X124572307Y-104162409D01*
X124119862Y-103975001D01*
X123630140Y-103975001D01*
X123177695Y-104162409D01*
X122831409Y-104508695D01*
X122748806Y-104708117D01*
X122630260Y-104421921D01*
X122378959Y-104341648D01*
X121514606Y-105206001D01*
X121528749Y-105220144D01*
X121349144Y-105399749D01*
X121335001Y-105385606D01*
X121320859Y-105399749D01*
X121141254Y-105220144D01*
X121155396Y-105206001D01*
X120291043Y-104341648D01*
X120039742Y-104421921D01*
X119929047Y-104727072D01*
X119838593Y-104508695D01*
X119492307Y-104162409D01*
X119491424Y-104162043D01*
X120470648Y-104162043D01*
X121335001Y-105026396D01*
X122199354Y-104162043D01*
X122119081Y-103910742D01*
X121563722Y-103709283D01*
X120973543Y-103735686D01*
X120550921Y-103910742D01*
X120470648Y-104162043D01*
X119491424Y-104162043D01*
X119039862Y-103975001D01*
X118550140Y-103975001D01*
X118097695Y-104162409D01*
X117751409Y-104508695D01*
X117564001Y-104961140D01*
X117564001Y-105450862D01*
X117751409Y-105903307D01*
X117843102Y-105995000D01*
X117206900Y-105995000D01*
X117298593Y-105903307D01*
X117486001Y-105450862D01*
X117486001Y-104961140D01*
X117298593Y-104508695D01*
X116952307Y-104162409D01*
X116499862Y-103975001D01*
X116010140Y-103975001D01*
X115557695Y-104162409D01*
X115211409Y-104508695D01*
X115024001Y-104961140D01*
X115024001Y-105450862D01*
X115211409Y-105903307D01*
X115303102Y-105995000D01*
X114666900Y-105995000D01*
X114758593Y-105903307D01*
X114946001Y-105450862D01*
X114946001Y-104961140D01*
X114758593Y-104508695D01*
X114412307Y-104162409D01*
X114172201Y-104062954D01*
X114172201Y-103611575D01*
X153994001Y-103611575D01*
X153994001Y-104260427D01*
X154242306Y-104859888D01*
X154701114Y-105318696D01*
X155300575Y-105567001D01*
X155949427Y-105567001D01*
X156548888Y-105318696D01*
X157007696Y-104859888D01*
X157256001Y-104260427D01*
X157256001Y-103611575D01*
X157007696Y-103012114D01*
X156548888Y-102553306D01*
X155949427Y-102305001D01*
X155300575Y-102305001D01*
X154701114Y-102553306D01*
X154242306Y-103012114D01*
X153994001Y-103611575D01*
X114172201Y-103611575D01*
X114172201Y-98874377D01*
X114489378Y-98557200D01*
X117254970Y-98557200D01*
X117300000Y-98566157D01*
X117345030Y-98557200D01*
X117478391Y-98530673D01*
X117629623Y-98429623D01*
X117655133Y-98391445D01*
X117700000Y-98346578D01*
X118044870Y-98691449D01*
X118070377Y-98729623D01*
X118204274Y-98819090D01*
X118221609Y-98830673D01*
X118399999Y-98866157D01*
X118445029Y-98857200D01*
X119633451Y-98857200D01*
X119789944Y-99013693D01*
X120056007Y-99123900D01*
X120343993Y-99123900D01*
X120610056Y-99013693D01*
X120813693Y-98810056D01*
X120923900Y-98543993D01*
X120923900Y-98256007D01*
X120904632Y-98209491D01*
X123271290Y-98209491D01*
X123271290Y-98239183D01*
X123381497Y-98505246D01*
X123585134Y-98708883D01*
X123851197Y-98819090D01*
X124139183Y-98819090D01*
X124405246Y-98708883D01*
X124608883Y-98505246D01*
X124719090Y-98239183D01*
X124719090Y-97951197D01*
X124608883Y-97685134D01*
X124405246Y-97481497D01*
X124139183Y-97371290D01*
X123905021Y-97371290D01*
X123830682Y-97321618D01*
X123697321Y-97295091D01*
X123652291Y-97286134D01*
X123607261Y-97295091D01*
X120046915Y-97295091D01*
X120001886Y-97286134D01*
X119956857Y-97295091D01*
X119823496Y-97321618D01*
X119672264Y-97422668D01*
X119646755Y-97460845D01*
X119469610Y-97637990D01*
X118715634Y-97637990D01*
X118562010Y-97484366D01*
X118562010Y-87915634D01*
X118615635Y-87862010D01*
X119511374Y-87862010D01*
X119507000Y-87884000D01*
X119507000Y-92710000D01*
X119516667Y-92758601D01*
X119544197Y-92799803D01*
X119585399Y-92827333D01*
X119634000Y-92837000D01*
X121142974Y-92837000D01*
X121268302Y-92962327D01*
X121501691Y-93059000D01*
X122142250Y-93059000D01*
X122301000Y-92900250D01*
X122301000Y-92837000D01*
X122555000Y-92837000D01*
X122555000Y-92900250D01*
X122713750Y-93059000D01*
X123354309Y-93059000D01*
X123587698Y-92962327D01*
X123713026Y-92837000D01*
X125222000Y-92837000D01*
X125270601Y-92827333D01*
X125311803Y-92799803D01*
X125339333Y-92758601D01*
X125349000Y-92710000D01*
X125349000Y-89081200D01*
X132249622Y-89081200D01*
X132511801Y-89343380D01*
X132511800Y-97604451D01*
X132355307Y-97760944D01*
X132245100Y-98027007D01*
X132245100Y-98314993D01*
X132355307Y-98581056D01*
X132558944Y-98784693D01*
X132825007Y-98894900D01*
X133112993Y-98894900D01*
X133379056Y-98784693D01*
X133582693Y-98581056D01*
X133692900Y-98314993D01*
X133692900Y-98027007D01*
X133582693Y-97760944D01*
X133426200Y-97604451D01*
X133426200Y-95868007D01*
X135166100Y-95868007D01*
X135166100Y-96155993D01*
X135276307Y-96422056D01*
X135479944Y-96625693D01*
X135746007Y-96735900D01*
X135836700Y-96735900D01*
X135836699Y-97508100D01*
X135807007Y-97508100D01*
X135540944Y-97618307D01*
X135337307Y-97821944D01*
X135227100Y-98088007D01*
X135227100Y-98375993D01*
X135337307Y-98642056D01*
X135540944Y-98845693D01*
X135807007Y-98955900D01*
X136094993Y-98955900D01*
X136361056Y-98845693D01*
X136564693Y-98642056D01*
X136674900Y-98375993D01*
X136674900Y-98141831D01*
X136724572Y-98067492D01*
X136751099Y-97934131D01*
X136751099Y-97934130D01*
X136760056Y-97889102D01*
X136751099Y-97844073D01*
X136751099Y-96460928D01*
X136760056Y-96415898D01*
X136724572Y-96237509D01*
X136724572Y-96237508D01*
X136623522Y-96086276D01*
X136613900Y-96079847D01*
X136613900Y-95868007D01*
X136503693Y-95601944D01*
X136300056Y-95398307D01*
X136033993Y-95288100D01*
X135746007Y-95288100D01*
X135479944Y-95398307D01*
X135276307Y-95601944D01*
X135166100Y-95868007D01*
X133426200Y-95868007D01*
X133426200Y-89199029D01*
X133435157Y-89153999D01*
X133399673Y-88975609D01*
X133324130Y-88862551D01*
X133298623Y-88824377D01*
X133260449Y-88798870D01*
X132794132Y-88332554D01*
X132768623Y-88294377D01*
X132617391Y-88193327D01*
X132484030Y-88166800D01*
X132439000Y-88157843D01*
X132393970Y-88166800D01*
X125349000Y-88166800D01*
X125349000Y-87884000D01*
X125344626Y-87862010D01*
X128250160Y-87862010D01*
X128295190Y-87870967D01*
X128340220Y-87862010D01*
X128473581Y-87835483D01*
X128624813Y-87734433D01*
X128650322Y-87696256D01*
X129091449Y-87255130D01*
X129129623Y-87229623D01*
X129230673Y-87078391D01*
X129257200Y-86945030D01*
X129266157Y-86900001D01*
X129257200Y-86854971D01*
X129257200Y-86436029D01*
X129284624Y-86417705D01*
X129385674Y-86266473D01*
X129412201Y-86133112D01*
X129421158Y-86088082D01*
X129412201Y-86043052D01*
X129412201Y-86029048D01*
X129652307Y-85929593D01*
X129998593Y-85583307D01*
X130186001Y-85130862D01*
X130186001Y-84641140D01*
X129998593Y-84188695D01*
X129806898Y-83997000D01*
X130643104Y-83997000D01*
X130451409Y-84188695D01*
G36*
X122831409Y-84188695D02*
X122644001Y-84641140D01*
X122644001Y-85130862D01*
X122831409Y-85583307D01*
X123177695Y-85929593D01*
X123351738Y-86001684D01*
X122710622Y-86642800D01*
X118345030Y-86642800D01*
X118300000Y-86633843D01*
X118254970Y-86642800D01*
X118216407Y-86650471D01*
X118219090Y-86643993D01*
X118219090Y-86356007D01*
X118108883Y-86089944D01*
X117905246Y-85886307D01*
X117639183Y-85776100D01*
X117351197Y-85776100D01*
X117085134Y-85886307D01*
X116881497Y-86089944D01*
X116771290Y-86356007D01*
X116771290Y-86643993D01*
X116881497Y-86910056D01*
X117037991Y-87066550D01*
X117037990Y-97642800D01*
X114345030Y-97642800D01*
X114300000Y-97633843D01*
X114254970Y-97642800D01*
X114121609Y-97669327D01*
X113970377Y-97770377D01*
X113944868Y-97808554D01*
X113423553Y-98329869D01*
X113385379Y-98355376D01*
X113359872Y-98393550D01*
X113359871Y-98393551D01*
X113284328Y-98506609D01*
X113248844Y-98684999D01*
X113257802Y-98730034D01*
X113257801Y-104062954D01*
X113017695Y-104162409D01*
X112671409Y-104508695D01*
X112484001Y-104961140D01*
X112484001Y-105450862D01*
X112671409Y-105903307D01*
X112763102Y-105995000D01*
X110009113Y-105995000D01*
X109458368Y-105925425D01*
X108967631Y-105731128D01*
X108540636Y-105420899D01*
X108204204Y-105014222D01*
X107979480Y-104536660D01*
X107876733Y-103998043D01*
X107873000Y-103879240D01*
X107873000Y-103561847D01*
X108024001Y-103561847D01*
X108024001Y-104310155D01*
X108310366Y-105001502D01*
X108839500Y-105530636D01*
X109530847Y-105817001D01*
X110279155Y-105817001D01*
X110970502Y-105530636D01*
X111499636Y-105001502D01*
X111786001Y-104310155D01*
X111786001Y-103561847D01*
X111499636Y-102870500D01*
X110970502Y-102341366D01*
X110279155Y-102055001D01*
X109530847Y-102055001D01*
X108839500Y-102341366D01*
X108310366Y-102870500D01*
X108024001Y-103561847D01*
X107873000Y-103561847D01*
X107873000Y-86133112D01*
X107917375Y-85781847D01*
X108024001Y-85781847D01*
X108024001Y-86530155D01*
X108310366Y-87221502D01*
X108839500Y-87750636D01*
X109530847Y-88037001D01*
X110279155Y-88037001D01*
X110970502Y-87750636D01*
X111499636Y-87221502D01*
X111786001Y-86530155D01*
X111786001Y-85781847D01*
X111499636Y-85090500D01*
X110970502Y-84561366D01*
X110279155Y-84275001D01*
X109530847Y-84275001D01*
X108839500Y-84561366D01*
X108310366Y-85090500D01*
X108024001Y-85781847D01*
X107917375Y-85781847D01*
X107942575Y-85582369D01*
X108136872Y-85091630D01*
X108447103Y-84664634D01*
X108853779Y-84328203D01*
X109331340Y-84103480D01*
X109869957Y-84000733D01*
X109988760Y-83997000D01*
X123023104Y-83997000D01*
X122831409Y-84188695D01*
X122831409Y-84188695D01*
G37*
X122831409Y-84188695D02*
X122644001Y-84641140D01*
X122644001Y-85130862D01*
X122831409Y-85583307D01*
X123177695Y-85929593D01*
X123351738Y-86001684D01*
X122710622Y-86642800D01*
X118345030Y-86642800D01*
X118300000Y-86633843D01*
X118254970Y-86642800D01*
X118216407Y-86650471D01*
X118219090Y-86643993D01*
X118219090Y-86356007D01*
X118108883Y-86089944D01*
X117905246Y-85886307D01*
X117639183Y-85776100D01*
X117351197Y-85776100D01*
X117085134Y-85886307D01*
X116881497Y-86089944D01*
X116771290Y-86356007D01*
X116771290Y-86643993D01*
X116881497Y-86910056D01*
X117037991Y-87066550D01*
X117037990Y-97642800D01*
X114345030Y-97642800D01*
X114300000Y-97633843D01*
X114254970Y-97642800D01*
X114121609Y-97669327D01*
X113970377Y-97770377D01*
X113944868Y-97808554D01*
X113423553Y-98329869D01*
X113385379Y-98355376D01*
X113359872Y-98393550D01*
X113359871Y-98393551D01*
X113284328Y-98506609D01*
X113248844Y-98684999D01*
X113257802Y-98730034D01*
X113257801Y-104062954D01*
X113017695Y-104162409D01*
X112671409Y-104508695D01*
X112484001Y-104961140D01*
X112484001Y-105450862D01*
X112671409Y-105903307D01*
X112763102Y-105995000D01*
X110009113Y-105995000D01*
X109458368Y-105925425D01*
X108967631Y-105731128D01*
X108540636Y-105420899D01*
X108204204Y-105014222D01*
X107979480Y-104536660D01*
X107876733Y-103998043D01*
X107873000Y-103879240D01*
X107873000Y-103561847D01*
X108024001Y-103561847D01*
X108024001Y-104310155D01*
X108310366Y-105001502D01*
X108839500Y-105530636D01*
X109530847Y-105817001D01*
X110279155Y-105817001D01*
X110970502Y-105530636D01*
X111499636Y-105001502D01*
X111786001Y-104310155D01*
X111786001Y-103561847D01*
X111499636Y-102870500D01*
X110970502Y-102341366D01*
X110279155Y-102055001D01*
X109530847Y-102055001D01*
X108839500Y-102341366D01*
X108310366Y-102870500D01*
X108024001Y-103561847D01*
X107873000Y-103561847D01*
X107873000Y-86133112D01*
X107917375Y-85781847D01*
X108024001Y-85781847D01*
X108024001Y-86530155D01*
X108310366Y-87221502D01*
X108839500Y-87750636D01*
X109530847Y-88037001D01*
X110279155Y-88037001D01*
X110970502Y-87750636D01*
X111499636Y-87221502D01*
X111786001Y-86530155D01*
X111786001Y-85781847D01*
X111499636Y-85090500D01*
X110970502Y-84561366D01*
X110279155Y-84275001D01*
X109530847Y-84275001D01*
X108839500Y-84561366D01*
X108310366Y-85090500D01*
X108024001Y-85781847D01*
X107917375Y-85781847D01*
X107942575Y-85582369D01*
X108136872Y-85091630D01*
X108447103Y-84664634D01*
X108853779Y-84328203D01*
X109331340Y-84103480D01*
X109869957Y-84000733D01*
X109988760Y-83997000D01*
X123023104Y-83997000D01*
X122831409Y-84188695D01*
G36*
X141880307Y-88743944D02*
X141770100Y-89010007D01*
X141770100Y-89297993D01*
X141880307Y-89564056D01*
X142036800Y-89720549D01*
X142036800Y-90035536D01*
X142009000Y-90035536D01*
X141860341Y-90065106D01*
X141734314Y-90149314D01*
X141650106Y-90275341D01*
X141620536Y-90424000D01*
X141620536Y-91694000D01*
X141650106Y-91842659D01*
X141734314Y-91968686D01*
X141860341Y-92052894D01*
X142009000Y-92082464D01*
X142979000Y-92082464D01*
X143127659Y-92052894D01*
X143129000Y-92051998D01*
X143130341Y-92052894D01*
X143279000Y-92082464D01*
X143306801Y-92082464D01*
X143306800Y-94847037D01*
X143297843Y-94892067D01*
X143306800Y-94937096D01*
X143333327Y-95070457D01*
X143434377Y-95221690D01*
X143472554Y-95247199D01*
X144650155Y-96424800D01*
X140759379Y-96424800D01*
X139709664Y-95375085D01*
X139805693Y-95279056D01*
X139915900Y-95012993D01*
X139915900Y-94725007D01*
X139805693Y-94458944D01*
X139602056Y-94255307D01*
X139335993Y-94145100D01*
X139048007Y-94145100D01*
X138781944Y-94255307D01*
X138578307Y-94458944D01*
X138468100Y-94725007D01*
X138468100Y-95012993D01*
X138578307Y-95279056D01*
X138734800Y-95435549D01*
X138734800Y-95458970D01*
X138725843Y-95504000D01*
X138734800Y-95549029D01*
X138761327Y-95682390D01*
X138862377Y-95833623D01*
X138900554Y-95859132D01*
X140214870Y-97173449D01*
X140240377Y-97211623D01*
X140365296Y-97295091D01*
X140391609Y-97312673D01*
X140569999Y-97348157D01*
X140615029Y-97339200D01*
X144702451Y-97339200D01*
X144858944Y-97495693D01*
X145078896Y-97586800D01*
X142181097Y-97586800D01*
X142136067Y-97577843D01*
X142091037Y-97586800D01*
X141957676Y-97613327D01*
X141806444Y-97714377D01*
X141780935Y-97752554D01*
X140805552Y-98727937D01*
X140767378Y-98753444D01*
X140741871Y-98791618D01*
X140741870Y-98791619D01*
X140666327Y-98904677D01*
X140648884Y-98992367D01*
X140530451Y-99110800D01*
X138365378Y-99110800D01*
X138125200Y-98870622D01*
X138125200Y-92082464D01*
X138153000Y-92082464D01*
X138301659Y-92052894D01*
X138303000Y-92051998D01*
X138304341Y-92052894D01*
X138453000Y-92082464D01*
X139423000Y-92082464D01*
X139571659Y-92052894D01*
X139697686Y-91968686D01*
X139781894Y-91842659D01*
X139811464Y-91694000D01*
X139811464Y-90424000D01*
X139781894Y-90275341D01*
X139697686Y-90149314D01*
X139571659Y-90065106D01*
X139423000Y-90035536D01*
X139395200Y-90035536D01*
X139395200Y-89343378D01*
X140016379Y-88722200D01*
X141902051Y-88722200D01*
X141880307Y-88743944D01*
X141880307Y-88743944D01*
G37*
X141880307Y-88743944D02*
X141770100Y-89010007D01*
X141770100Y-89297993D01*
X141880307Y-89564056D01*
X142036800Y-89720549D01*
X142036800Y-90035536D01*
X142009000Y-90035536D01*
X141860341Y-90065106D01*
X141734314Y-90149314D01*
X141650106Y-90275341D01*
X141620536Y-90424000D01*
X141620536Y-91694000D01*
X141650106Y-91842659D01*
X141734314Y-91968686D01*
X141860341Y-92052894D01*
X142009000Y-92082464D01*
X142979000Y-92082464D01*
X143127659Y-92052894D01*
X143129000Y-92051998D01*
X143130341Y-92052894D01*
X143279000Y-92082464D01*
X143306801Y-92082464D01*
X143306800Y-94847037D01*
X143297843Y-94892067D01*
X143306800Y-94937096D01*
X143333327Y-95070457D01*
X143434377Y-95221690D01*
X143472554Y-95247199D01*
X144650155Y-96424800D01*
X140759379Y-96424800D01*
X139709664Y-95375085D01*
X139805693Y-95279056D01*
X139915900Y-95012993D01*
X139915900Y-94725007D01*
X139805693Y-94458944D01*
X139602056Y-94255307D01*
X139335993Y-94145100D01*
X139048007Y-94145100D01*
X138781944Y-94255307D01*
X138578307Y-94458944D01*
X138468100Y-94725007D01*
X138468100Y-95012993D01*
X138578307Y-95279056D01*
X138734800Y-95435549D01*
X138734800Y-95458970D01*
X138725843Y-95504000D01*
X138734800Y-95549029D01*
X138761327Y-95682390D01*
X138862377Y-95833623D01*
X138900554Y-95859132D01*
X140214870Y-97173449D01*
X140240377Y-97211623D01*
X140365296Y-97295091D01*
X140391609Y-97312673D01*
X140569999Y-97348157D01*
X140615029Y-97339200D01*
X144702451Y-97339200D01*
X144858944Y-97495693D01*
X145078896Y-97586800D01*
X142181097Y-97586800D01*
X142136067Y-97577843D01*
X142091037Y-97586800D01*
X141957676Y-97613327D01*
X141806444Y-97714377D01*
X141780935Y-97752554D01*
X140805552Y-98727937D01*
X140767378Y-98753444D01*
X140741871Y-98791618D01*
X140741870Y-98791619D01*
X140666327Y-98904677D01*
X140648884Y-98992367D01*
X140530451Y-99110800D01*
X138365378Y-99110800D01*
X138125200Y-98870622D01*
X138125200Y-92082464D01*
X138153000Y-92082464D01*
X138301659Y-92052894D01*
X138303000Y-92051998D01*
X138304341Y-92052894D01*
X138453000Y-92082464D01*
X139423000Y-92082464D01*
X139571659Y-92052894D01*
X139697686Y-91968686D01*
X139781894Y-91842659D01*
X139811464Y-91694000D01*
X139811464Y-90424000D01*
X139781894Y-90275341D01*
X139697686Y-90149314D01*
X139571659Y-90065106D01*
X139423000Y-90035536D01*
X139395200Y-90035536D01*
X139395200Y-89343378D01*
X140016379Y-88722200D01*
X141902051Y-88722200D01*
X141880307Y-88743944D01*
G36*
X147497801Y-89343380D02*
X147497801Y-90628210D01*
X147365030Y-90601800D01*
X147320000Y-90592843D01*
X147274970Y-90601800D01*
X145907464Y-90601800D01*
X145907464Y-90424000D01*
X145877894Y-90275341D01*
X145793686Y-90149314D01*
X145667659Y-90065106D01*
X145519000Y-90035536D01*
X144549000Y-90035536D01*
X144400341Y-90065106D01*
X144399000Y-90066002D01*
X144397659Y-90065106D01*
X144249000Y-90035536D01*
X143279000Y-90035536D01*
X143130341Y-90065106D01*
X143129000Y-90066002D01*
X143127659Y-90065106D01*
X142979000Y-90035536D01*
X142951200Y-90035536D01*
X142951200Y-89720549D01*
X143107693Y-89564056D01*
X143217900Y-89297993D01*
X143217900Y-89010007D01*
X143107693Y-88743944D01*
X143085949Y-88722200D01*
X146876622Y-88722200D01*
X147497801Y-89343380D01*
X147497801Y-89343380D01*
G37*
X147497801Y-89343380D02*
X147497801Y-90628210D01*
X147365030Y-90601800D01*
X147320000Y-90592843D01*
X147274970Y-90601800D01*
X145907464Y-90601800D01*
X145907464Y-90424000D01*
X145877894Y-90275341D01*
X145793686Y-90149314D01*
X145667659Y-90065106D01*
X145519000Y-90035536D01*
X144549000Y-90035536D01*
X144400341Y-90065106D01*
X144399000Y-90066002D01*
X144397659Y-90065106D01*
X144249000Y-90035536D01*
X143279000Y-90035536D01*
X143130341Y-90065106D01*
X143129000Y-90066002D01*
X143127659Y-90065106D01*
X142979000Y-90035536D01*
X142951200Y-90035536D01*
X142951200Y-89720549D01*
X143107693Y-89564056D01*
X143217900Y-89297993D01*
X143217900Y-89010007D01*
X143107693Y-88743944D01*
X143085949Y-88722200D01*
X146876622Y-88722200D01*
X147497801Y-89343380D01*
G36*
X138646554Y-88798868D02*
X138608377Y-88824377D01*
X138547526Y-88915448D01*
X138507327Y-88975610D01*
X138471843Y-89154000D01*
X138480800Y-89199030D01*
X138480800Y-90035536D01*
X138453000Y-90035536D01*
X138304341Y-90065106D01*
X138303000Y-90066002D01*
X138301659Y-90065106D01*
X138153000Y-90035536D01*
X137183000Y-90035536D01*
X137034341Y-90065106D01*
X137033000Y-90066002D01*
X137031659Y-90065106D01*
X136883000Y-90035536D01*
X136855200Y-90035536D01*
X136855200Y-88791378D01*
X137229188Y-88417390D01*
X139028032Y-88417390D01*
X138646554Y-88798868D01*
X138646554Y-88798868D01*
G37*
X138646554Y-88798868D02*
X138608377Y-88824377D01*
X138547526Y-88915448D01*
X138507327Y-88975610D01*
X138471843Y-89154000D01*
X138480800Y-89199030D01*
X138480800Y-90035536D01*
X138453000Y-90035536D01*
X138304341Y-90065106D01*
X138303000Y-90066002D01*
X138301659Y-90065106D01*
X138153000Y-90035536D01*
X137183000Y-90035536D01*
X137034341Y-90065106D01*
X137033000Y-90066002D01*
X137031659Y-90065106D01*
X136883000Y-90035536D01*
X136855200Y-90035536D01*
X136855200Y-88791378D01*
X137229188Y-88417390D01*
X139028032Y-88417390D01*
X138646554Y-88798868D01*
G36*
X125371409Y-84188695D02*
X125184001Y-84641140D01*
X125184001Y-85130862D01*
X125371409Y-85583307D01*
X125717695Y-85929593D01*
X126170140Y-86117001D01*
X126659862Y-86117001D01*
X127112307Y-85929593D01*
X127458593Y-85583307D01*
X127646001Y-85130862D01*
X127646001Y-84641140D01*
X127458593Y-84188695D01*
X127266898Y-83997000D01*
X128103104Y-83997000D01*
X127911409Y-84188695D01*
X127724001Y-84641140D01*
X127724001Y-85130862D01*
X127911409Y-85583307D01*
X128257695Y-85929593D01*
X128415831Y-85995095D01*
X128393154Y-86029033D01*
X128369327Y-86064693D01*
X128333843Y-86243083D01*
X128342800Y-86288113D01*
X128342801Y-86710621D01*
X128105812Y-86947610D01*
X123698969Y-86947610D01*
X124091449Y-86555130D01*
X124129623Y-86529623D01*
X124169911Y-86469327D01*
X124204227Y-86417970D01*
X124204624Y-86417705D01*
X124305674Y-86266473D01*
X124332201Y-86133112D01*
X124332201Y-86133111D01*
X124341158Y-86088083D01*
X124332201Y-86043054D01*
X124332201Y-86029048D01*
X124572307Y-85929593D01*
X124918593Y-85583307D01*
X125106001Y-85130862D01*
X125106001Y-84641140D01*
X124918593Y-84188695D01*
X124726898Y-83997000D01*
X125563104Y-83997000D01*
X125371409Y-84188695D01*
X125371409Y-84188695D01*
G37*
X125371409Y-84188695D02*
X125184001Y-84641140D01*
X125184001Y-85130862D01*
X125371409Y-85583307D01*
X125717695Y-85929593D01*
X126170140Y-86117001D01*
X126659862Y-86117001D01*
X127112307Y-85929593D01*
X127458593Y-85583307D01*
X127646001Y-85130862D01*
X127646001Y-84641140D01*
X127458593Y-84188695D01*
X127266898Y-83997000D01*
X128103104Y-83997000D01*
X127911409Y-84188695D01*
X127724001Y-84641140D01*
X127724001Y-85130862D01*
X127911409Y-85583307D01*
X128257695Y-85929593D01*
X128415831Y-85995095D01*
X128393154Y-86029033D01*
X128369327Y-86064693D01*
X128333843Y-86243083D01*
X128342800Y-86288113D01*
X128342801Y-86710621D01*
X128105812Y-86947610D01*
X123698969Y-86947610D01*
X124091449Y-86555130D01*
X124129623Y-86529623D01*
X124169911Y-86469327D01*
X124204227Y-86417970D01*
X124204624Y-86417705D01*
X124305674Y-86266473D01*
X124332201Y-86133112D01*
X124332201Y-86133111D01*
X124341158Y-86088083D01*
X124332201Y-86043054D01*
X124332201Y-86029048D01*
X124572307Y-85929593D01*
X124918593Y-85583307D01*
X125106001Y-85130862D01*
X125106001Y-84641140D01*
X124918593Y-84188695D01*
X124726898Y-83997000D01*
X125563104Y-83997000D01*
X125371409Y-84188695D01*
M02*
