G04 #@! TF.GenerationSoftware,KiCad,Pcbnew,(5.0.0-rc2-dev-444-g2974a2c10)*
G04 #@! TF.CreationDate,2019-12-09T12:09:48-08:00*
G04 #@! TF.ProjectId,Stemma_Host_FeatherWing,5374656D6D615F486F73745F46656174,v02*
G04 #@! TF.SameCoordinates,Original*
G04 #@! TF.FileFunction,Copper,L1,Top,Signal*
G04 #@! TF.FilePolarity,Positive*
%FSLAX46Y46*%
G04 Gerber Fmt 4.6, Leading zero omitted, Abs format (unit mm)*
G04 Created by KiCad (PCBNEW (5.0.0-rc2-dev-444-g2974a2c10)) date 12/09/19 12:09:48*
%MOMM*%
%LPD*%
G01*
G04 APERTURE LIST*
%ADD10R,0.650000X0.400000*%
%ADD11R,1.800000X1.200000*%
%ADD12R,1.550000X0.600000*%
%ADD13R,1.250000X1.000000*%
%ADD14C,1.700000*%
%ADD15C,3.000000*%
%ADD16R,1.300000X0.700000*%
%ADD17R,0.800000X0.500000*%
%ADD18R,0.800000X0.400000*%
%ADD19R,3.500000X1.000000*%
%ADD20R,3.400000X1.500000*%
%ADD21R,1.100000X1.100000*%
%ADD22R,0.900000X1.270000*%
%ADD23R,1.450000X0.800000*%
%ADD24C,0.685800*%
%ADD25C,1.016000*%
%ADD26C,0.254000*%
%ADD27C,0.152400*%
G04 APERTURE END LIST*
D10*
X138242000Y-96632000D03*
X138242000Y-97932000D03*
X140142000Y-97282000D03*
X138242000Y-97282000D03*
X140142000Y-97932000D03*
X140142000Y-96632000D03*
D11*
X108762500Y-98050000D03*
X108762500Y-92450000D03*
D12*
X112637500Y-96750000D03*
X112637500Y-95750000D03*
X112637500Y-94750000D03*
X112637500Y-93750000D03*
D11*
X156937500Y-92450000D03*
X156937500Y-98050000D03*
D12*
X153062500Y-93750000D03*
X153062500Y-94750000D03*
X153062500Y-95750000D03*
X153062500Y-96750000D03*
D13*
X129880683Y-99658746D03*
X129880683Y-101658746D03*
D14*
X113715001Y-105206001D03*
X116255001Y-105206001D03*
X118795001Y-105206001D03*
X121335001Y-105206001D03*
X123875001Y-105206001D03*
X126415001Y-105206001D03*
X128955001Y-105206001D03*
X131495001Y-105206001D03*
X134035001Y-105206001D03*
X136575001Y-105206001D03*
X139115001Y-105206001D03*
X141655001Y-105206001D03*
X144195001Y-105206001D03*
X146735001Y-105206001D03*
X149275001Y-105206001D03*
X151815001Y-105206001D03*
X123875001Y-84886001D03*
X126415001Y-84886001D03*
X128955001Y-84886001D03*
X131495001Y-84886001D03*
X134035001Y-84886001D03*
X136575001Y-84886001D03*
X139115001Y-84886001D03*
X141655001Y-84886001D03*
X144195001Y-84886001D03*
X146735001Y-84886001D03*
X149275001Y-84886001D03*
X151815001Y-84886001D03*
D15*
X109905001Y-103936001D03*
X109905001Y-86156001D03*
D16*
X132969000Y-99908746D03*
X132969000Y-101808746D03*
D17*
X143902000Y-98482000D03*
D18*
X143902000Y-97682000D03*
D17*
X143902000Y-96082000D03*
D18*
X143902000Y-96882000D03*
D17*
X142102000Y-98482000D03*
D18*
X142102000Y-96882000D03*
X142102000Y-97682000D03*
D17*
X142102000Y-96082000D03*
D19*
X115625000Y-92250000D03*
X115625000Y-94250000D03*
X115625000Y-96250000D03*
X115625000Y-98250000D03*
D20*
X109875000Y-89900000D03*
X109875000Y-100600000D03*
X155825000Y-89900000D03*
X155825000Y-100600000D03*
D19*
X150075000Y-92250000D03*
X150075000Y-94250000D03*
X150075000Y-96250000D03*
X150075000Y-98250000D03*
D21*
X122100000Y-98400000D03*
X122100000Y-101200000D03*
X125700000Y-101200000D03*
X125700000Y-98400000D03*
D22*
X119400000Y-86400000D03*
X115200000Y-86400000D03*
D23*
X113950000Y-84500000D03*
X120650000Y-84500000D03*
D24*
X141097000Y-99568000D03*
X146177000Y-98044000D03*
X139192000Y-94869000D03*
X145269000Y-96882000D03*
X142494000Y-89154000D03*
X135890000Y-96012000D03*
X135951000Y-98232000D03*
X143002000Y-99568000D03*
X146748501Y-100774499D03*
X145415000Y-99949000D03*
X147955000Y-102870000D03*
X150622000Y-102870000D03*
X140843000Y-92964000D03*
X146400000Y-89550000D03*
X150622000Y-86868000D03*
X113030000Y-85590000D03*
X112400000Y-103700000D03*
X153289000Y-87884000D03*
X153289000Y-102870000D03*
X121666000Y-85590000D03*
X127900000Y-97800000D03*
X146550000Y-96550000D03*
X137600000Y-89000000D03*
X125200000Y-86400000D03*
D25*
X112100000Y-98500000D03*
D24*
X113900000Y-101200000D03*
X110700000Y-95300000D03*
X155200000Y-94800000D03*
X132969000Y-98171000D03*
X120200000Y-98400000D03*
X123995190Y-98095190D03*
X117495190Y-86500000D03*
D26*
X116255001Y-103200999D02*
X116255001Y-105206001D01*
X116713000Y-102743000D02*
X116255001Y-103200999D01*
X120483429Y-102743000D02*
X116713000Y-102743000D01*
X142102000Y-97682000D02*
X142102000Y-96882000D01*
X141702000Y-97282000D02*
X140292000Y-97282000D01*
X142102000Y-96882000D02*
X141702000Y-97282000D01*
X140292000Y-97282000D02*
X138092000Y-97282000D01*
D27*
X150287000Y-96250000D02*
X151537000Y-96250000D01*
X143902000Y-95679600D02*
X143902000Y-96082000D01*
X143345400Y-95123000D02*
X143902000Y-95679600D01*
X141023600Y-95123000D02*
X143345400Y-95123000D01*
X143902000Y-97682000D02*
X144672000Y-97682000D01*
X144672000Y-97682000D02*
X145034000Y-98044000D01*
X145034000Y-98044000D02*
X146177000Y-98044000D01*
X141097000Y-99568000D02*
X141097000Y-99568000D01*
X146177000Y-98044000D02*
X146177000Y-98044000D01*
X139192000Y-94869000D02*
X139192000Y-94869000D01*
X143902000Y-96882000D02*
X145269000Y-96882000D01*
X145269000Y-96882000D02*
X145269000Y-96882000D01*
X142494000Y-88669067D02*
X143152067Y-88011000D01*
X142494000Y-89154000D02*
X142494000Y-88669067D01*
X143152067Y-88011000D02*
X151257000Y-88011000D01*
X151815001Y-87452999D02*
X151815001Y-84886001D01*
X151257000Y-88011000D02*
X151815001Y-87452999D01*
X144052000Y-98482000D02*
X143902000Y-98482000D01*
X144454400Y-98884400D02*
X144052000Y-98482000D01*
X147750200Y-98884400D02*
X144454400Y-98884400D01*
X148384600Y-98250000D02*
X147750200Y-98884400D01*
X150287000Y-98250000D02*
X148384600Y-98250000D01*
X135951000Y-98232000D02*
X135890000Y-98171000D01*
X135890000Y-96012000D02*
X135890000Y-96012000D01*
X135951000Y-98232000D02*
X135951000Y-98232000D01*
X142654400Y-96082000D02*
X143002000Y-96429600D01*
X142102000Y-96082000D02*
X142654400Y-96082000D01*
X143002000Y-96429600D02*
X143002000Y-99568000D01*
X142785600Y-99568000D02*
X143002000Y-99568000D01*
X142102000Y-98884400D02*
X142785600Y-99568000D01*
X142102000Y-98482000D02*
X142102000Y-98884400D01*
X143002000Y-99568000D02*
X143002000Y-99568000D01*
X146735001Y-100787999D02*
X146748501Y-100774499D01*
X146735001Y-105206001D02*
X146735001Y-100787999D01*
X149275001Y-104003920D02*
X149225000Y-103953919D01*
X149275001Y-105206001D02*
X149275001Y-104003920D01*
X149225000Y-103953919D02*
X149225000Y-100584000D01*
X148590000Y-99949000D02*
X145415000Y-99949000D01*
X149225000Y-100584000D02*
X148590000Y-99949000D01*
X140142000Y-98613000D02*
X140142000Y-97932000D01*
X141097000Y-99568000D02*
X140142000Y-98613000D01*
X138242000Y-95819000D02*
X139192000Y-94869000D01*
X138242000Y-96632000D02*
X138242000Y-95819000D01*
D26*
X134747000Y-97282000D02*
X138092000Y-97282000D01*
X134366000Y-97663000D02*
X134747000Y-97282000D01*
X134366000Y-102362000D02*
X134366000Y-97663000D01*
X133985000Y-102743000D02*
X134366000Y-102362000D01*
X132969000Y-102743000D02*
X133985000Y-102743000D01*
X122692429Y-102743000D02*
X122682000Y-102743000D01*
X122682000Y-102743000D02*
X120483429Y-102743000D01*
X125702937Y-102743000D02*
X124587000Y-102743000D01*
X124587000Y-102743000D02*
X122682000Y-102743000D01*
X132638746Y-102743000D02*
X132334000Y-102743000D01*
X132969000Y-102412746D02*
X132638746Y-102743000D01*
X132969000Y-101808746D02*
X132969000Y-102412746D01*
X125702937Y-102743000D02*
X132334000Y-102743000D01*
X132334000Y-102743000D02*
X132969000Y-102743000D01*
X116713000Y-102743000D02*
X113243000Y-102743000D01*
X113243000Y-102743000D02*
X112600000Y-102100000D01*
X112600000Y-102100000D02*
X112600000Y-102100000D01*
X112100000Y-98500000D02*
X112607999Y-99007999D01*
X112600000Y-99407999D02*
X112607999Y-99400000D01*
X112600000Y-102100000D02*
X112600000Y-99407999D01*
X112607999Y-99007999D02*
X112607999Y-99400000D01*
D27*
X152825000Y-96750000D02*
X153062500Y-96750000D01*
X151325000Y-98250000D02*
X152825000Y-96750000D01*
X150075000Y-98250000D02*
X151325000Y-98250000D01*
X116875000Y-92250000D02*
X115625000Y-92250000D01*
X117983000Y-93358000D02*
X116875000Y-92250000D01*
X113722600Y-92250000D02*
X115625000Y-92250000D01*
X113685100Y-92250000D02*
X113722600Y-92250000D01*
X112637500Y-93297600D02*
X113685100Y-92250000D01*
X112637500Y-93750000D02*
X112637500Y-93297600D01*
X117983000Y-93358000D02*
X117983000Y-93383000D01*
X117983000Y-93383000D02*
X118800000Y-94200000D01*
X119900000Y-96000000D02*
X119900000Y-96012000D01*
X118800000Y-94900000D02*
X119900000Y-96000000D01*
X118800000Y-94200000D02*
X118800000Y-94900000D01*
X119900000Y-96012000D02*
X120015000Y-96012000D01*
X120015000Y-96012000D02*
X135890000Y-96012000D01*
X136251000Y-97932000D02*
X135951000Y-98232000D01*
X138242000Y-97932000D02*
X136251000Y-97932000D01*
X138367000Y-97932000D02*
X138242000Y-97932000D01*
X140638000Y-100203000D02*
X138367000Y-97932000D01*
X143212822Y-100203000D02*
X140638000Y-100203000D01*
X143902000Y-99513822D02*
X143212822Y-100203000D01*
X143902000Y-98482000D02*
X143902000Y-99513822D01*
X152587500Y-95750000D02*
X153062500Y-95750000D01*
X152087500Y-96250000D02*
X152587500Y-95750000D01*
X150075000Y-96250000D02*
X152087500Y-96250000D01*
X115125000Y-94750000D02*
X115625000Y-94250000D01*
X112637500Y-94750000D02*
X115125000Y-94750000D01*
X137795000Y-94234000D02*
X140134600Y-94234000D01*
X136779000Y-95250000D02*
X137795000Y-94234000D01*
X136779000Y-95968822D02*
X136779000Y-95250000D01*
X136164321Y-96583501D02*
X136779000Y-95968822D01*
X115625000Y-94250000D02*
X117718934Y-94250000D01*
X117718934Y-94250000D02*
X118495191Y-95026257D01*
X118495191Y-95026257D02*
X118495191Y-95038257D01*
X118495191Y-95038257D02*
X119773744Y-96316810D01*
X140134600Y-94234000D02*
X141023600Y-95123000D01*
X119773744Y-96316810D02*
X134924810Y-96316810D01*
X135191501Y-96583501D02*
X136164321Y-96583501D01*
X134924810Y-96316810D02*
X135191501Y-96583501D01*
X143345400Y-95123000D02*
X146600000Y-95123000D01*
X148825000Y-96250000D02*
X150075000Y-96250000D01*
X147698000Y-95123000D02*
X148825000Y-96250000D01*
X141023600Y-95123000D02*
X147698000Y-95123000D01*
X140142000Y-96004600D02*
X141023600Y-95123000D01*
X140142000Y-96632000D02*
X140142000Y-96004600D01*
X150075000Y-94250000D02*
X150919362Y-94250000D01*
X152477400Y-94750000D02*
X153062500Y-94750000D01*
X151977400Y-94250000D02*
X152477400Y-94750000D01*
X150075000Y-94250000D02*
X151977400Y-94250000D01*
X119300000Y-101200000D02*
X122100000Y-101200000D01*
X122100000Y-101200000D02*
X125700000Y-101200000D01*
X129421937Y-101200000D02*
X129880683Y-101658746D01*
X125700000Y-101200000D02*
X129421937Y-101200000D01*
X119300000Y-101200000D02*
X113900000Y-101200000D01*
X113900000Y-101200000D02*
X113900000Y-101200000D01*
X111150000Y-95750000D02*
X112637500Y-95750000D01*
X110700000Y-95300000D02*
X111150000Y-95750000D01*
X115125000Y-95750000D02*
X115625000Y-96250000D01*
X112637500Y-95750000D02*
X115125000Y-95750000D01*
X118000000Y-92943934D02*
X118287809Y-93231743D01*
X118000000Y-91700000D02*
X118000000Y-92943934D01*
X119104810Y-94773744D02*
X120038256Y-95707190D01*
X117600000Y-91300000D02*
X118000000Y-91700000D01*
X112800000Y-91300000D02*
X117600000Y-91300000D01*
X110700000Y-93400000D02*
X112800000Y-91300000D01*
X110700000Y-95300000D02*
X110700000Y-93400000D01*
X118287809Y-93231743D02*
X118287809Y-93256743D01*
X137668744Y-93929190D02*
X140260857Y-93929191D01*
X118287809Y-93256743D02*
X119104810Y-94073744D01*
X119104810Y-94073744D02*
X119104810Y-94773744D01*
X120038256Y-95707190D02*
X135348988Y-95707190D01*
X136157435Y-95440499D02*
X137668744Y-93929190D01*
X135348988Y-95707190D02*
X135615679Y-95440499D01*
X140260857Y-93929191D02*
X141149856Y-94818190D01*
X135615679Y-95440499D02*
X136157435Y-95440499D01*
X147604410Y-94818190D02*
X141149856Y-94818190D01*
X148172600Y-94250000D02*
X147604410Y-94818190D01*
X150075000Y-94250000D02*
X148172600Y-94250000D01*
X153112500Y-94800000D02*
X153062500Y-94750000D01*
X155200000Y-94800000D02*
X153112500Y-94800000D01*
X132969000Y-99908746D02*
X132969000Y-99406346D01*
X132969000Y-99406346D02*
X132969000Y-98171000D01*
X132969000Y-98171000D02*
X132969000Y-98171000D01*
X120684933Y-98400000D02*
X122100000Y-98400000D01*
X120200000Y-98400000D02*
X120684933Y-98400000D01*
X124300000Y-98400000D02*
X123995190Y-98095190D01*
X125700000Y-98400000D02*
X124300000Y-98400000D01*
X119300000Y-86500000D02*
X119400000Y-86400000D01*
X117495190Y-86500000D02*
X119300000Y-86500000D01*
D26*
G36*
X112836536Y-84100000D02*
X112836536Y-84900000D01*
X112866106Y-85048659D01*
X112950314Y-85174686D01*
X113076341Y-85258894D01*
X113225000Y-85288464D01*
X114328511Y-85288464D01*
X114211673Y-85405301D01*
X114115000Y-85638690D01*
X114115000Y-86114250D01*
X114273750Y-86273000D01*
X115073000Y-86273000D01*
X115073000Y-85288750D01*
X115327000Y-85288750D01*
X115327000Y-86273000D01*
X116126250Y-86273000D01*
X116285000Y-86114250D01*
X116285000Y-85638690D01*
X116188327Y-85405301D01*
X116009698Y-85226673D01*
X115776309Y-85130000D01*
X115485750Y-85130000D01*
X115327000Y-85288750D01*
X115073000Y-85288750D01*
X114953391Y-85169141D01*
X115033894Y-85048659D01*
X115063464Y-84900000D01*
X115063464Y-84100000D01*
X115042976Y-83997000D01*
X119557024Y-83997000D01*
X119536536Y-84100000D01*
X119536536Y-84900000D01*
X119566106Y-85048659D01*
X119650314Y-85174686D01*
X119776341Y-85258894D01*
X119925000Y-85288464D01*
X121375000Y-85288464D01*
X121523659Y-85258894D01*
X121649686Y-85174686D01*
X121733894Y-85048659D01*
X121763464Y-84900000D01*
X121763464Y-84100000D01*
X121742976Y-83997000D01*
X123023104Y-83997000D01*
X122831409Y-84188695D01*
X122644001Y-84641140D01*
X122644001Y-85130862D01*
X122831409Y-85583307D01*
X123177695Y-85929593D01*
X123630140Y-86117001D01*
X124119862Y-86117001D01*
X124572307Y-85929593D01*
X124918593Y-85583307D01*
X125106001Y-85130862D01*
X125106001Y-84641140D01*
X124918593Y-84188695D01*
X124726898Y-83997000D01*
X125563104Y-83997000D01*
X125371409Y-84188695D01*
X125184001Y-84641140D01*
X125184001Y-85130862D01*
X125371409Y-85583307D01*
X125717695Y-85929593D01*
X126170140Y-86117001D01*
X126659862Y-86117001D01*
X127112307Y-85929593D01*
X127458593Y-85583307D01*
X127646001Y-85130862D01*
X127646001Y-84641140D01*
X127458593Y-84188695D01*
X127266898Y-83997000D01*
X128103104Y-83997000D01*
X127911409Y-84188695D01*
X127724001Y-84641140D01*
X127724001Y-85130862D01*
X127911409Y-85583307D01*
X128257695Y-85929593D01*
X128710140Y-86117001D01*
X129199862Y-86117001D01*
X129652307Y-85929593D01*
X129998593Y-85583307D01*
X130186001Y-85130862D01*
X130186001Y-84641140D01*
X129998593Y-84188695D01*
X129806898Y-83997000D01*
X130643104Y-83997000D01*
X130451409Y-84188695D01*
X130264001Y-84641140D01*
X130264001Y-85130862D01*
X130451409Y-85583307D01*
X130797695Y-85929593D01*
X131250140Y-86117001D01*
X131739862Y-86117001D01*
X132192307Y-85929593D01*
X132538593Y-85583307D01*
X132726001Y-85130862D01*
X132726001Y-84641140D01*
X132538593Y-84188695D01*
X132346898Y-83997000D01*
X133183104Y-83997000D01*
X132991409Y-84188695D01*
X132804001Y-84641140D01*
X132804001Y-85130862D01*
X132991409Y-85583307D01*
X133337695Y-85929593D01*
X133790140Y-86117001D01*
X134279862Y-86117001D01*
X134732307Y-85929593D01*
X135078593Y-85583307D01*
X135266001Y-85130862D01*
X135266001Y-84641140D01*
X135078593Y-84188695D01*
X134886898Y-83997000D01*
X135723104Y-83997000D01*
X135531409Y-84188695D01*
X135344001Y-84641140D01*
X135344001Y-85130862D01*
X135531409Y-85583307D01*
X135877695Y-85929593D01*
X136330140Y-86117001D01*
X136819862Y-86117001D01*
X137272307Y-85929593D01*
X137618593Y-85583307D01*
X137806001Y-85130862D01*
X137806001Y-84641140D01*
X137618593Y-84188695D01*
X137426898Y-83997000D01*
X138263104Y-83997000D01*
X138071409Y-84188695D01*
X137884001Y-84641140D01*
X137884001Y-85130862D01*
X138071409Y-85583307D01*
X138417695Y-85929593D01*
X138870140Y-86117001D01*
X139359862Y-86117001D01*
X139812307Y-85929593D01*
X140158593Y-85583307D01*
X140346001Y-85130862D01*
X140346001Y-84641140D01*
X140158593Y-84188695D01*
X139966898Y-83997000D01*
X140803104Y-83997000D01*
X140611409Y-84188695D01*
X140424001Y-84641140D01*
X140424001Y-85130862D01*
X140611409Y-85583307D01*
X140957695Y-85929593D01*
X141410140Y-86117001D01*
X141899862Y-86117001D01*
X142352307Y-85929593D01*
X142698593Y-85583307D01*
X142886001Y-85130862D01*
X142886001Y-84641140D01*
X142698593Y-84188695D01*
X142506898Y-83997000D01*
X143343104Y-83997000D01*
X143151409Y-84188695D01*
X142964001Y-84641140D01*
X142964001Y-85130862D01*
X143151409Y-85583307D01*
X143497695Y-85929593D01*
X143950140Y-86117001D01*
X144439862Y-86117001D01*
X144892307Y-85929593D01*
X145238593Y-85583307D01*
X145426001Y-85130862D01*
X145426001Y-84641140D01*
X145238593Y-84188695D01*
X145046898Y-83997000D01*
X145883104Y-83997000D01*
X145691409Y-84188695D01*
X145504001Y-84641140D01*
X145504001Y-85130862D01*
X145691409Y-85583307D01*
X146037695Y-85929593D01*
X146490140Y-86117001D01*
X146979862Y-86117001D01*
X147432307Y-85929593D01*
X147778593Y-85583307D01*
X147966001Y-85130862D01*
X147966001Y-84641140D01*
X147778593Y-84188695D01*
X147586898Y-83997000D01*
X148423104Y-83997000D01*
X148231409Y-84188695D01*
X148044001Y-84641140D01*
X148044001Y-85130862D01*
X148231409Y-85583307D01*
X148577695Y-85929593D01*
X149030140Y-86117001D01*
X149519862Y-86117001D01*
X149972307Y-85929593D01*
X150318593Y-85583307D01*
X150506001Y-85130862D01*
X150506001Y-84641140D01*
X150318593Y-84188695D01*
X150126898Y-83997000D01*
X150963104Y-83997000D01*
X150771409Y-84188695D01*
X150584001Y-84641140D01*
X150584001Y-85130862D01*
X150771409Y-85583307D01*
X151117695Y-85929593D01*
X151357802Y-86029048D01*
X151357801Y-87263621D01*
X151067622Y-87553800D01*
X143197096Y-87553800D01*
X143152066Y-87544843D01*
X142973676Y-87580327D01*
X142822444Y-87681377D01*
X142796937Y-87719551D01*
X142202552Y-88313937D01*
X142164378Y-88339444D01*
X142138871Y-88377618D01*
X142138870Y-88377619D01*
X142063327Y-88490677D01*
X142045884Y-88578367D01*
X141880307Y-88743944D01*
X141770100Y-89010007D01*
X141770100Y-89297993D01*
X141880307Y-89564056D01*
X142083944Y-89767693D01*
X142350007Y-89877900D01*
X142637993Y-89877900D01*
X142904056Y-89767693D01*
X143107693Y-89564056D01*
X143217900Y-89297993D01*
X143217900Y-89010007D01*
X143107693Y-88743944D01*
X143086697Y-88722948D01*
X143341446Y-88468200D01*
X151211970Y-88468200D01*
X151257000Y-88477157D01*
X151302030Y-88468200D01*
X151435391Y-88441673D01*
X151586623Y-88340623D01*
X151612132Y-88302446D01*
X152106447Y-87808131D01*
X152144624Y-87782622D01*
X152245674Y-87631390D01*
X152272201Y-87498029D01*
X152272201Y-87498028D01*
X152281158Y-87452999D01*
X152272201Y-87407969D01*
X152272201Y-86029048D01*
X152512307Y-85929593D01*
X152610325Y-85831575D01*
X153994001Y-85831575D01*
X153994001Y-86480427D01*
X154242306Y-87079888D01*
X154701114Y-87538696D01*
X155300575Y-87787001D01*
X155949427Y-87787001D01*
X156548888Y-87538696D01*
X157007696Y-87079888D01*
X157256001Y-86480427D01*
X157256001Y-85831575D01*
X157007696Y-85232114D01*
X156548888Y-84773306D01*
X155949427Y-84525001D01*
X155300575Y-84525001D01*
X154701114Y-84773306D01*
X154242306Y-85232114D01*
X153994001Y-85831575D01*
X152610325Y-85831575D01*
X152858593Y-85583307D01*
X153046001Y-85130862D01*
X153046001Y-84641140D01*
X152858593Y-84188695D01*
X152666898Y-83997000D01*
X155674887Y-83997000D01*
X156225631Y-84066575D01*
X156716370Y-84260872D01*
X157143366Y-84571103D01*
X157479797Y-84977779D01*
X157704520Y-85455340D01*
X157807267Y-85993957D01*
X157811001Y-86112792D01*
X157811001Y-88892248D01*
X157799686Y-88875314D01*
X157673659Y-88791106D01*
X157525000Y-88761536D01*
X154125000Y-88761536D01*
X153976341Y-88791106D01*
X153850314Y-88875314D01*
X153766106Y-89001341D01*
X153736536Y-89150000D01*
X153736536Y-90650000D01*
X153766106Y-90798659D01*
X153850314Y-90924686D01*
X153976341Y-91008894D01*
X154125000Y-91038464D01*
X157525000Y-91038464D01*
X157673659Y-91008894D01*
X157799686Y-90924686D01*
X157811001Y-90907752D01*
X157811001Y-91461536D01*
X156037500Y-91461536D01*
X155888841Y-91491106D01*
X155762814Y-91575314D01*
X155678606Y-91701341D01*
X155649036Y-91850000D01*
X155649036Y-93050000D01*
X155678606Y-93198659D01*
X155762814Y-93324686D01*
X155888841Y-93408894D01*
X156037500Y-93438464D01*
X157811001Y-93438464D01*
X157811000Y-97061536D01*
X156037500Y-97061536D01*
X155888841Y-97091106D01*
X155762814Y-97175314D01*
X155678606Y-97301341D01*
X155649036Y-97450000D01*
X155649036Y-98650000D01*
X155678606Y-98798659D01*
X155762814Y-98924686D01*
X155888841Y-99008894D01*
X156037500Y-99038464D01*
X157811000Y-99038464D01*
X157811000Y-99592247D01*
X157799686Y-99575314D01*
X157673659Y-99491106D01*
X157525000Y-99461536D01*
X154125000Y-99461536D01*
X153976341Y-99491106D01*
X153850314Y-99575314D01*
X153766106Y-99701341D01*
X153736536Y-99850000D01*
X153736536Y-101350000D01*
X153766106Y-101498659D01*
X153850314Y-101624686D01*
X153976341Y-101708894D01*
X154125000Y-101738464D01*
X157525000Y-101738464D01*
X157673659Y-101708894D01*
X157799686Y-101624686D01*
X157811000Y-101607753D01*
X157811000Y-103858887D01*
X157741425Y-104409632D01*
X157547128Y-104900369D01*
X157236899Y-105327364D01*
X156830222Y-105663796D01*
X156352660Y-105888520D01*
X155814043Y-105991267D01*
X155695240Y-105995000D01*
X152766900Y-105995000D01*
X152858593Y-105903307D01*
X153046001Y-105450862D01*
X153046001Y-104961140D01*
X152858593Y-104508695D01*
X152512307Y-104162409D01*
X152059862Y-103975001D01*
X151570140Y-103975001D01*
X151117695Y-104162409D01*
X150771409Y-104508695D01*
X150584001Y-104961140D01*
X150584001Y-105450862D01*
X150771409Y-105903307D01*
X150863102Y-105995000D01*
X150226900Y-105995000D01*
X150318593Y-105903307D01*
X150506001Y-105450862D01*
X150506001Y-104961140D01*
X150318593Y-104508695D01*
X149972307Y-104162409D01*
X149732201Y-104062954D01*
X149732201Y-104048949D01*
X149741158Y-104003919D01*
X149720395Y-103899538D01*
X149705674Y-103825529D01*
X149682200Y-103790398D01*
X149682200Y-103611575D01*
X153994001Y-103611575D01*
X153994001Y-104260427D01*
X154242306Y-104859888D01*
X154701114Y-105318696D01*
X155300575Y-105567001D01*
X155949427Y-105567001D01*
X156548888Y-105318696D01*
X157007696Y-104859888D01*
X157256001Y-104260427D01*
X157256001Y-103611575D01*
X157007696Y-103012114D01*
X156548888Y-102553306D01*
X155949427Y-102305001D01*
X155300575Y-102305001D01*
X154701114Y-102553306D01*
X154242306Y-103012114D01*
X153994001Y-103611575D01*
X149682200Y-103611575D01*
X149682200Y-100629030D01*
X149691157Y-100584000D01*
X149655673Y-100405609D01*
X149638343Y-100379673D01*
X149554623Y-100254377D01*
X149516446Y-100228868D01*
X148945132Y-99657554D01*
X148919623Y-99619377D01*
X148768391Y-99518327D01*
X148635030Y-99491800D01*
X148590000Y-99482843D01*
X148544970Y-99491800D01*
X145981549Y-99491800D01*
X145831349Y-99341600D01*
X147705170Y-99341600D01*
X147750200Y-99350557D01*
X147795230Y-99341600D01*
X147928591Y-99315073D01*
X148079823Y-99214023D01*
X148105332Y-99175846D01*
X148173909Y-99107269D01*
X148176341Y-99108894D01*
X148325000Y-99138464D01*
X151825000Y-99138464D01*
X151973659Y-99108894D01*
X152099686Y-99024686D01*
X152183894Y-98898659D01*
X152213464Y-98750000D01*
X152213464Y-98008114D01*
X152783114Y-97438464D01*
X153837500Y-97438464D01*
X153986159Y-97408894D01*
X154112186Y-97324686D01*
X154196394Y-97198659D01*
X154225964Y-97050000D01*
X154225964Y-96450000D01*
X154196394Y-96301341D01*
X154162089Y-96250000D01*
X154196394Y-96198659D01*
X154225964Y-96050000D01*
X154225964Y-95450000D01*
X154196394Y-95301341D01*
X154166900Y-95257200D01*
X154633451Y-95257200D01*
X154789944Y-95413693D01*
X155056007Y-95523900D01*
X155343993Y-95523900D01*
X155610056Y-95413693D01*
X155813693Y-95210056D01*
X155923900Y-94943993D01*
X155923900Y-94656007D01*
X155813693Y-94389944D01*
X155610056Y-94186307D01*
X155343993Y-94076100D01*
X155056007Y-94076100D01*
X154789944Y-94186307D01*
X154633451Y-94342800D01*
X154403537Y-94342800D01*
X154472500Y-94176309D01*
X154472500Y-94035750D01*
X154313750Y-93877000D01*
X153189500Y-93877000D01*
X153189500Y-93897000D01*
X152935500Y-93897000D01*
X152935500Y-93877000D01*
X152915500Y-93877000D01*
X152915500Y-93623000D01*
X152935500Y-93623000D01*
X152935500Y-92973750D01*
X153189500Y-92973750D01*
X153189500Y-93623000D01*
X154313750Y-93623000D01*
X154472500Y-93464250D01*
X154472500Y-93323691D01*
X154375827Y-93090302D01*
X154197199Y-92911673D01*
X153963810Y-92815000D01*
X153348250Y-92815000D01*
X153189500Y-92973750D01*
X152935500Y-92973750D01*
X152776750Y-92815000D01*
X152460000Y-92815000D01*
X152460000Y-92535750D01*
X152301250Y-92377000D01*
X150202000Y-92377000D01*
X150202000Y-92397000D01*
X149948000Y-92397000D01*
X149948000Y-92377000D01*
X147848750Y-92377000D01*
X147690000Y-92535750D01*
X147690000Y-92876309D01*
X147786673Y-93109698D01*
X147965301Y-93288327D01*
X148198690Y-93385000D01*
X148207038Y-93385000D01*
X148176341Y-93391106D01*
X148050314Y-93475314D01*
X147966106Y-93601341D01*
X147936536Y-93750000D01*
X147936536Y-93857863D01*
X147842977Y-93920377D01*
X147817470Y-93958551D01*
X147415032Y-94360990D01*
X141339234Y-94360990D01*
X140615987Y-93637743D01*
X140590480Y-93599569D01*
X140552305Y-93574061D01*
X140439247Y-93498518D01*
X140260857Y-93463034D01*
X140215822Y-93471992D01*
X137713774Y-93471990D01*
X137668744Y-93463033D01*
X137490353Y-93498517D01*
X137396295Y-93561365D01*
X137339122Y-93599567D01*
X137313615Y-93637741D01*
X135968057Y-94983299D01*
X135660708Y-94983299D01*
X135615678Y-94974342D01*
X135503875Y-94996581D01*
X135437288Y-95009826D01*
X135286056Y-95110876D01*
X135260547Y-95149053D01*
X135159610Y-95249990D01*
X120227635Y-95249990D01*
X119562010Y-94584366D01*
X119562010Y-94118774D01*
X119570967Y-94073744D01*
X119535483Y-93895353D01*
X119459940Y-93782295D01*
X119434433Y-93744121D01*
X119396259Y-93718614D01*
X118693283Y-93015639D01*
X118617432Y-92902120D01*
X118579253Y-92876610D01*
X118457200Y-92754556D01*
X118457200Y-91745028D01*
X118466157Y-91699999D01*
X118450978Y-91623691D01*
X118430673Y-91521609D01*
X118375352Y-91438815D01*
X119923494Y-91438815D01*
X119928843Y-91488078D01*
X119952637Y-91531544D01*
X119991254Y-91562596D01*
X120038815Y-91576506D01*
X120088078Y-91571157D01*
X120798000Y-91348039D01*
X120798000Y-92475000D01*
X120807667Y-92523601D01*
X120835197Y-92564803D01*
X120876399Y-92592333D01*
X120925000Y-92602000D01*
X121125000Y-92602000D01*
X121173601Y-92592333D01*
X121214803Y-92564803D01*
X121242333Y-92523601D01*
X121252000Y-92475000D01*
X121252000Y-91352800D01*
X121958811Y-91595135D01*
X122029523Y-91598521D01*
X122074545Y-91577821D01*
X122108218Y-91541467D01*
X122125416Y-91494994D01*
X122123521Y-91445477D01*
X122102821Y-91400455D01*
X121614504Y-90726914D01*
X121883457Y-90820013D01*
X121915260Y-90826626D01*
X121964459Y-90820715D01*
X122007651Y-90796426D01*
X122038260Y-90757457D01*
X122051626Y-90709740D01*
X122045715Y-90660541D01*
X122021426Y-90617349D01*
X122016581Y-90611697D01*
X122211770Y-90546788D01*
X122211770Y-91670717D01*
X122221437Y-91719318D01*
X122248967Y-91760520D01*
X122290169Y-91788050D01*
X122338770Y-91797717D01*
X122538770Y-91797717D01*
X122587371Y-91788050D01*
X122628573Y-91760520D01*
X122656103Y-91719318D01*
X122665770Y-91670717D01*
X122665770Y-90543075D01*
X122785992Y-90580363D01*
X122785197Y-90581158D01*
X122765607Y-90606447D01*
X122749245Y-90653221D01*
X122752029Y-90702696D01*
X122773534Y-90747339D01*
X122810486Y-90780354D01*
X122857260Y-90796716D01*
X122906735Y-90793932D01*
X123314739Y-90688641D01*
X122775581Y-91366936D01*
X122748494Y-91434776D01*
X122753843Y-91484039D01*
X122777637Y-91527505D01*
X122816254Y-91558557D01*
X122863815Y-91572467D01*
X122913078Y-91567118D01*
X123623000Y-91344000D01*
X123623000Y-92470961D01*
X123632667Y-92519562D01*
X123660197Y-92560764D01*
X123701399Y-92588294D01*
X123750000Y-92597961D01*
X123950000Y-92597961D01*
X123998601Y-92588294D01*
X124039803Y-92560764D01*
X124067333Y-92519562D01*
X124077000Y-92470961D01*
X124077000Y-91623691D01*
X147690000Y-91623691D01*
X147690000Y-91964250D01*
X147848750Y-92123000D01*
X149948000Y-92123000D01*
X149948000Y-91273750D01*
X150202000Y-91273750D01*
X150202000Y-92123000D01*
X152301250Y-92123000D01*
X152460000Y-91964250D01*
X152460000Y-91623691D01*
X152363327Y-91390302D01*
X152184699Y-91211673D01*
X151951310Y-91115000D01*
X150360750Y-91115000D01*
X150202000Y-91273750D01*
X149948000Y-91273750D01*
X149789250Y-91115000D01*
X148198690Y-91115000D01*
X147965301Y-91211673D01*
X147786673Y-91390302D01*
X147690000Y-91623691D01*
X124077000Y-91623691D01*
X124077000Y-91348761D01*
X124783811Y-91591096D01*
X124854523Y-91594482D01*
X124899545Y-91573782D01*
X124933218Y-91537428D01*
X124950416Y-91490955D01*
X124948521Y-91441438D01*
X124927821Y-91396416D01*
X124415343Y-90689550D01*
X124716275Y-90772440D01*
X124743651Y-90776841D01*
X124792674Y-90769616D01*
X124835201Y-90744180D01*
X124864756Y-90704406D01*
X124876841Y-90656349D01*
X124869616Y-90607326D01*
X124844180Y-90564799D01*
X124407359Y-90081943D01*
X124611964Y-90146170D01*
X124643845Y-90151851D01*
X124692858Y-90144550D01*
X124735345Y-90119049D01*
X124764840Y-90079230D01*
X124776851Y-90031155D01*
X124769550Y-89982142D01*
X124744049Y-89939655D01*
X123969049Y-89085616D01*
X123923601Y-89053628D01*
X123875000Y-89043961D01*
X123826399Y-89053628D01*
X123785197Y-89081158D01*
X123265218Y-89601137D01*
X123247564Y-89568697D01*
X123017746Y-89292916D01*
X123113507Y-89321644D01*
X123138065Y-89326438D01*
X123187359Y-89321381D01*
X123230966Y-89297844D01*
X123262246Y-89259412D01*
X123276438Y-89211935D01*
X123271381Y-89162641D01*
X123247844Y-89119034D01*
X122561614Y-88289751D01*
X122509324Y-88252168D01*
X122460490Y-88243759D01*
X122412155Y-88254679D01*
X122371678Y-88283264D01*
X121607908Y-89087547D01*
X121575414Y-89150354D01*
X121575466Y-89199907D01*
X121594477Y-89245668D01*
X121629553Y-89280670D01*
X121675354Y-89299586D01*
X121724907Y-89299534D01*
X121869888Y-89270538D01*
X121578689Y-89617203D01*
X121148035Y-89094265D01*
X121098601Y-89057667D01*
X121050000Y-89048000D01*
X121001399Y-89057667D01*
X120960197Y-89085197D01*
X120160197Y-89885197D01*
X120142304Y-89907690D01*
X120124744Y-89954027D01*
X120126252Y-90003557D01*
X120146600Y-90048740D01*
X120182690Y-90082696D01*
X120229027Y-90100256D01*
X120278557Y-90098748D01*
X120497073Y-90048321D01*
X119960197Y-90585197D01*
X119940607Y-90610486D01*
X119924245Y-90657260D01*
X119927029Y-90706735D01*
X119948534Y-90751378D01*
X119985486Y-90784393D01*
X120032260Y-90800755D01*
X120081735Y-90797971D01*
X120489739Y-90692680D01*
X119950581Y-91370975D01*
X119923494Y-91438815D01*
X118375352Y-91438815D01*
X118329623Y-91370377D01*
X118291446Y-91344868D01*
X117955132Y-91008554D01*
X117929623Y-90970377D01*
X117778391Y-90869327D01*
X117645030Y-90842800D01*
X117600000Y-90833843D01*
X117554970Y-90842800D01*
X112845024Y-90842800D01*
X112799999Y-90833844D01*
X112754974Y-90842800D01*
X112754970Y-90842800D01*
X112621609Y-90869327D01*
X112470377Y-90970377D01*
X112444868Y-91008554D01*
X110408552Y-93044870D01*
X110370378Y-93070377D01*
X110344871Y-93108551D01*
X110344870Y-93108552D01*
X110269327Y-93221610D01*
X110233843Y-93400000D01*
X110242801Y-93445035D01*
X110242800Y-94733451D01*
X110086307Y-94889944D01*
X109976100Y-95156007D01*
X109976100Y-95443993D01*
X110086307Y-95710056D01*
X110289944Y-95913693D01*
X110556007Y-96023900D01*
X110777321Y-96023900D01*
X110794870Y-96041448D01*
X110820377Y-96079623D01*
X110858551Y-96105130D01*
X110971609Y-96180673D01*
X111149999Y-96216157D01*
X111195029Y-96207200D01*
X111275752Y-96207200D01*
X111227500Y-96323691D01*
X111227500Y-96464250D01*
X111386250Y-96623000D01*
X112510500Y-96623000D01*
X112510500Y-96603000D01*
X112764500Y-96603000D01*
X112764500Y-96623000D01*
X112784500Y-96623000D01*
X112784500Y-96877000D01*
X112764500Y-96877000D01*
X112764500Y-97526250D01*
X112923250Y-97685000D01*
X113240000Y-97685000D01*
X113240000Y-97964250D01*
X113398750Y-98123000D01*
X115498000Y-98123000D01*
X115498000Y-98103000D01*
X115752000Y-98103000D01*
X115752000Y-98123000D01*
X117851250Y-98123000D01*
X118010000Y-97964250D01*
X118010000Y-97623691D01*
X117913327Y-97390302D01*
X117734699Y-97211673D01*
X117501310Y-97115000D01*
X117492962Y-97115000D01*
X117523659Y-97108894D01*
X117649686Y-97024686D01*
X117733894Y-96898659D01*
X117763464Y-96750000D01*
X117763464Y-95750000D01*
X117733894Y-95601341D01*
X117649686Y-95475314D01*
X117523659Y-95391106D01*
X117375000Y-95361536D01*
X115366561Y-95361536D01*
X115303391Y-95319327D01*
X115170030Y-95292800D01*
X115125000Y-95283843D01*
X115079970Y-95292800D01*
X113765687Y-95292800D01*
X113737089Y-95250000D01*
X113765687Y-95207200D01*
X115079970Y-95207200D01*
X115125000Y-95216157D01*
X115170030Y-95207200D01*
X115303391Y-95180673D01*
X115366561Y-95138464D01*
X117375000Y-95138464D01*
X117523659Y-95108894D01*
X117649686Y-95024686D01*
X117728735Y-94906380D01*
X118115897Y-95293541D01*
X118165568Y-95367880D01*
X118203745Y-95393389D01*
X119418613Y-96608258D01*
X119444121Y-96646433D01*
X119482295Y-96671940D01*
X119595353Y-96747483D01*
X119773744Y-96782967D01*
X119818774Y-96774010D01*
X134696918Y-96774010D01*
X134548788Y-96803475D01*
X134380753Y-96915753D01*
X134352412Y-96958168D01*
X134042166Y-97268414D01*
X133999754Y-97296753D01*
X133971415Y-97339165D01*
X133971412Y-97339168D01*
X133887475Y-97464789D01*
X133848049Y-97663000D01*
X133858001Y-97713033D01*
X133858001Y-99260216D01*
X133767659Y-99199852D01*
X133619000Y-99170282D01*
X133426200Y-99170282D01*
X133426200Y-98737549D01*
X133582693Y-98581056D01*
X133692900Y-98314993D01*
X133692900Y-98027007D01*
X133582693Y-97760944D01*
X133379056Y-97557307D01*
X133112993Y-97447100D01*
X132825007Y-97447100D01*
X132558944Y-97557307D01*
X132355307Y-97760944D01*
X132245100Y-98027007D01*
X132245100Y-98314993D01*
X132355307Y-98581056D01*
X132511801Y-98737550D01*
X132511800Y-99170282D01*
X132319000Y-99170282D01*
X132170341Y-99199852D01*
X132044314Y-99284060D01*
X131960106Y-99410087D01*
X131930536Y-99558746D01*
X131930536Y-100258746D01*
X131960106Y-100407405D01*
X132044314Y-100533432D01*
X132170341Y-100617640D01*
X132319000Y-100647210D01*
X133619000Y-100647210D01*
X133767659Y-100617640D01*
X133858000Y-100557276D01*
X133858000Y-101160216D01*
X133767659Y-101099852D01*
X133619000Y-101070282D01*
X132319000Y-101070282D01*
X132170341Y-101099852D01*
X132044314Y-101184060D01*
X131960106Y-101310087D01*
X131930536Y-101458746D01*
X131930536Y-102158746D01*
X131945704Y-102235000D01*
X130878979Y-102235000D01*
X130894147Y-102158746D01*
X130894147Y-101158746D01*
X130864577Y-101010087D01*
X130780369Y-100884060D01*
X130654342Y-100799852D01*
X130623645Y-100793746D01*
X130631993Y-100793746D01*
X130865382Y-100697073D01*
X131044010Y-100518444D01*
X131140683Y-100285055D01*
X131140683Y-99944496D01*
X130981933Y-99785746D01*
X130007683Y-99785746D01*
X130007683Y-99805746D01*
X129753683Y-99805746D01*
X129753683Y-99785746D01*
X128779433Y-99785746D01*
X128620683Y-99944496D01*
X128620683Y-100285055D01*
X128717356Y-100518444D01*
X128895984Y-100697073D01*
X129006379Y-100742800D01*
X126638464Y-100742800D01*
X126638464Y-100650000D01*
X126608894Y-100501341D01*
X126524686Y-100375314D01*
X126398659Y-100291106D01*
X126250000Y-100261536D01*
X125150000Y-100261536D01*
X125001341Y-100291106D01*
X124875314Y-100375314D01*
X124791106Y-100501341D01*
X124761536Y-100650000D01*
X124761536Y-100742800D01*
X123038464Y-100742800D01*
X123038464Y-100650000D01*
X123008894Y-100501341D01*
X122924686Y-100375314D01*
X122798659Y-100291106D01*
X122650000Y-100261536D01*
X121550000Y-100261536D01*
X121401341Y-100291106D01*
X121275314Y-100375314D01*
X121191106Y-100501341D01*
X121161536Y-100650000D01*
X121161536Y-100742800D01*
X114466549Y-100742800D01*
X114310056Y-100586307D01*
X114043993Y-100476100D01*
X113756007Y-100476100D01*
X113489944Y-100586307D01*
X113286307Y-100789944D01*
X113176100Y-101056007D01*
X113176100Y-101343993D01*
X113286307Y-101610056D01*
X113489944Y-101813693D01*
X113756007Y-101923900D01*
X114043993Y-101923900D01*
X114310056Y-101813693D01*
X114466549Y-101657200D01*
X121161536Y-101657200D01*
X121161536Y-101750000D01*
X121191106Y-101898659D01*
X121275314Y-102024686D01*
X121401341Y-102108894D01*
X121550000Y-102138464D01*
X122650000Y-102138464D01*
X122798659Y-102108894D01*
X122924686Y-102024686D01*
X123008894Y-101898659D01*
X123038464Y-101750000D01*
X123038464Y-101657200D01*
X124761536Y-101657200D01*
X124761536Y-101750000D01*
X124791106Y-101898659D01*
X124875314Y-102024686D01*
X125001341Y-102108894D01*
X125150000Y-102138464D01*
X126250000Y-102138464D01*
X126398659Y-102108894D01*
X126524686Y-102024686D01*
X126608894Y-101898659D01*
X126638464Y-101750000D01*
X126638464Y-101657200D01*
X128867219Y-101657200D01*
X128867219Y-102158746D01*
X128882387Y-102235000D01*
X116763027Y-102235000D01*
X116712999Y-102225049D01*
X116662971Y-102235000D01*
X113453420Y-102235000D01*
X113108000Y-101889580D01*
X113108000Y-99490245D01*
X113115999Y-99450031D01*
X113115999Y-99450029D01*
X113125950Y-99400001D01*
X113115999Y-99349973D01*
X113115999Y-99058026D01*
X113125950Y-99007998D01*
X113115999Y-98957968D01*
X113115999Y-98957967D01*
X113086524Y-98809787D01*
X113079348Y-98799048D01*
X113002587Y-98684166D01*
X113002585Y-98684164D01*
X112989000Y-98663833D01*
X112989000Y-98535750D01*
X113240000Y-98535750D01*
X113240000Y-98876309D01*
X113336673Y-99109698D01*
X113515301Y-99288327D01*
X113748690Y-99385000D01*
X115339250Y-99385000D01*
X115498000Y-99226250D01*
X115498000Y-98377000D01*
X115752000Y-98377000D01*
X115752000Y-99226250D01*
X115910750Y-99385000D01*
X117501310Y-99385000D01*
X117734699Y-99288327D01*
X117913327Y-99109698D01*
X118010000Y-98876309D01*
X118010000Y-98535750D01*
X117851250Y-98377000D01*
X115752000Y-98377000D01*
X115498000Y-98377000D01*
X113398750Y-98377000D01*
X113240000Y-98535750D01*
X112989000Y-98535750D01*
X112989000Y-98323167D01*
X112961182Y-98256007D01*
X119476100Y-98256007D01*
X119476100Y-98543993D01*
X119586307Y-98810056D01*
X119789944Y-99013693D01*
X120056007Y-99123900D01*
X120343993Y-99123900D01*
X120610056Y-99013693D01*
X120766549Y-98857200D01*
X121161536Y-98857200D01*
X121161536Y-98950000D01*
X121191106Y-99098659D01*
X121275314Y-99224686D01*
X121401341Y-99308894D01*
X121550000Y-99338464D01*
X122650000Y-99338464D01*
X122798659Y-99308894D01*
X122924686Y-99224686D01*
X123008894Y-99098659D01*
X123038464Y-98950000D01*
X123038464Y-97951197D01*
X123271290Y-97951197D01*
X123271290Y-98239183D01*
X123381497Y-98505246D01*
X123585134Y-98708883D01*
X123851197Y-98819090D01*
X124104274Y-98819090D01*
X124121609Y-98830673D01*
X124254970Y-98857200D01*
X124299999Y-98866157D01*
X124345028Y-98857200D01*
X124761536Y-98857200D01*
X124761536Y-98950000D01*
X124791106Y-99098659D01*
X124875314Y-99224686D01*
X125001341Y-99308894D01*
X125150000Y-99338464D01*
X126250000Y-99338464D01*
X126398659Y-99308894D01*
X126524686Y-99224686D01*
X126608894Y-99098659D01*
X126622066Y-99032437D01*
X128620683Y-99032437D01*
X128620683Y-99372996D01*
X128779433Y-99531746D01*
X129753683Y-99531746D01*
X129753683Y-98682496D01*
X130007683Y-98682496D01*
X130007683Y-99531746D01*
X130981933Y-99531746D01*
X131140683Y-99372996D01*
X131140683Y-99032437D01*
X131044010Y-98799048D01*
X130865382Y-98620419D01*
X130631993Y-98523746D01*
X130166433Y-98523746D01*
X130007683Y-98682496D01*
X129753683Y-98682496D01*
X129594933Y-98523746D01*
X129129373Y-98523746D01*
X128895984Y-98620419D01*
X128717356Y-98799048D01*
X128620683Y-99032437D01*
X126622066Y-99032437D01*
X126638464Y-98950000D01*
X126638464Y-97850000D01*
X126608894Y-97701341D01*
X126524686Y-97575314D01*
X126398659Y-97491106D01*
X126250000Y-97461536D01*
X125150000Y-97461536D01*
X125001341Y-97491106D01*
X124875314Y-97575314D01*
X124791106Y-97701341D01*
X124761536Y-97850000D01*
X124761536Y-97942800D01*
X124715612Y-97942800D01*
X124608883Y-97685134D01*
X124405246Y-97481497D01*
X124139183Y-97371290D01*
X123851197Y-97371290D01*
X123585134Y-97481497D01*
X123381497Y-97685134D01*
X123271290Y-97951197D01*
X123038464Y-97951197D01*
X123038464Y-97850000D01*
X123008894Y-97701341D01*
X122924686Y-97575314D01*
X122798659Y-97491106D01*
X122650000Y-97461536D01*
X121550000Y-97461536D01*
X121401341Y-97491106D01*
X121275314Y-97575314D01*
X121191106Y-97701341D01*
X121161536Y-97850000D01*
X121161536Y-97942800D01*
X120766549Y-97942800D01*
X120610056Y-97786307D01*
X120343993Y-97676100D01*
X120056007Y-97676100D01*
X119789944Y-97786307D01*
X119586307Y-97989944D01*
X119476100Y-98256007D01*
X112961182Y-98256007D01*
X112853658Y-97996422D01*
X112603578Y-97746342D01*
X112382133Y-97654617D01*
X112510500Y-97526250D01*
X112510500Y-96877000D01*
X111386250Y-96877000D01*
X111227500Y-97035750D01*
X111227500Y-97176309D01*
X111324173Y-97409698D01*
X111502801Y-97588327D01*
X111736190Y-97685000D01*
X111744515Y-97685000D01*
X111596422Y-97746342D01*
X111346342Y-97996422D01*
X111211000Y-98323167D01*
X111211000Y-98676833D01*
X111346342Y-99003578D01*
X111596422Y-99253658D01*
X111923167Y-99389000D01*
X112085828Y-99389000D01*
X112082049Y-99407999D01*
X112092001Y-99458032D01*
X112092000Y-102049968D01*
X112082048Y-102100000D01*
X112121475Y-102298212D01*
X112164098Y-102362001D01*
X112233753Y-102466247D01*
X112276168Y-102494588D01*
X112848412Y-103066832D01*
X112876753Y-103109247D01*
X113044788Y-103221525D01*
X113192968Y-103251000D01*
X113192971Y-103251000D01*
X113242999Y-103260951D01*
X113293027Y-103251000D01*
X115746996Y-103251000D01*
X115747001Y-103251027D01*
X115747001Y-104083996D01*
X115557695Y-104162409D01*
X115211409Y-104508695D01*
X115024001Y-104961140D01*
X115024001Y-105450862D01*
X115211409Y-105903307D01*
X115303102Y-105995000D01*
X114666900Y-105995000D01*
X114758593Y-105903307D01*
X114946001Y-105450862D01*
X114946001Y-104961140D01*
X114758593Y-104508695D01*
X114412307Y-104162409D01*
X113959862Y-103975001D01*
X113470140Y-103975001D01*
X113017695Y-104162409D01*
X112671409Y-104508695D01*
X112484001Y-104961140D01*
X112484001Y-105450862D01*
X112671409Y-105903307D01*
X112763102Y-105995000D01*
X110009113Y-105995000D01*
X109458368Y-105925425D01*
X108967631Y-105731128D01*
X108540636Y-105420899D01*
X108204204Y-105014222D01*
X107979480Y-104536660D01*
X107876733Y-103998043D01*
X107873000Y-103879240D01*
X107873000Y-103561847D01*
X108024001Y-103561847D01*
X108024001Y-104310155D01*
X108310366Y-105001502D01*
X108839500Y-105530636D01*
X109530847Y-105817001D01*
X110279155Y-105817001D01*
X110970502Y-105530636D01*
X111499636Y-105001502D01*
X111786001Y-104310155D01*
X111786001Y-103561847D01*
X111499636Y-102870500D01*
X110970502Y-102341366D01*
X110279155Y-102055001D01*
X109530847Y-102055001D01*
X108839500Y-102341366D01*
X108310366Y-102870500D01*
X108024001Y-103561847D01*
X107873000Y-103561847D01*
X107873000Y-101583807D01*
X107900314Y-101624686D01*
X108026341Y-101708894D01*
X108175000Y-101738464D01*
X111575000Y-101738464D01*
X111723659Y-101708894D01*
X111849686Y-101624686D01*
X111933894Y-101498659D01*
X111963464Y-101350000D01*
X111963464Y-99850000D01*
X111933894Y-99701341D01*
X111849686Y-99575314D01*
X111723659Y-99491106D01*
X111575000Y-99461536D01*
X108175000Y-99461536D01*
X108026341Y-99491106D01*
X107900314Y-99575314D01*
X107873000Y-99616193D01*
X107873000Y-99038464D01*
X109662500Y-99038464D01*
X109811159Y-99008894D01*
X109937186Y-98924686D01*
X110021394Y-98798659D01*
X110050964Y-98650000D01*
X110050964Y-97450000D01*
X110021394Y-97301341D01*
X109937186Y-97175314D01*
X109811159Y-97091106D01*
X109662500Y-97061536D01*
X107873000Y-97061536D01*
X107873000Y-93438464D01*
X109662500Y-93438464D01*
X109811159Y-93408894D01*
X109937186Y-93324686D01*
X110021394Y-93198659D01*
X110050964Y-93050000D01*
X110050964Y-91850000D01*
X110021394Y-91701341D01*
X109937186Y-91575314D01*
X109811159Y-91491106D01*
X109662500Y-91461536D01*
X107873000Y-91461536D01*
X107873000Y-90883807D01*
X107900314Y-90924686D01*
X108026341Y-91008894D01*
X108175000Y-91038464D01*
X111575000Y-91038464D01*
X111723659Y-91008894D01*
X111849686Y-90924686D01*
X111933894Y-90798659D01*
X111963464Y-90650000D01*
X111963464Y-89150000D01*
X111933894Y-89001341D01*
X111849686Y-88875314D01*
X111723659Y-88791106D01*
X111575000Y-88761536D01*
X108175000Y-88761536D01*
X108026341Y-88791106D01*
X107900314Y-88875314D01*
X107873000Y-88916193D01*
X107873000Y-86133113D01*
X107917375Y-85781847D01*
X108024001Y-85781847D01*
X108024001Y-86530155D01*
X108310366Y-87221502D01*
X108839500Y-87750636D01*
X109530847Y-88037001D01*
X110279155Y-88037001D01*
X110970502Y-87750636D01*
X111499636Y-87221502D01*
X111721551Y-86685750D01*
X114115000Y-86685750D01*
X114115000Y-87161310D01*
X114211673Y-87394699D01*
X114390302Y-87573327D01*
X114623691Y-87670000D01*
X114914250Y-87670000D01*
X115073000Y-87511250D01*
X115073000Y-86527000D01*
X115327000Y-86527000D01*
X115327000Y-87511250D01*
X115485750Y-87670000D01*
X115776309Y-87670000D01*
X116009698Y-87573327D01*
X116188327Y-87394699D01*
X116285000Y-87161310D01*
X116285000Y-86685750D01*
X116126250Y-86527000D01*
X115327000Y-86527000D01*
X115073000Y-86527000D01*
X114273750Y-86527000D01*
X114115000Y-86685750D01*
X111721551Y-86685750D01*
X111786001Y-86530155D01*
X111786001Y-86356007D01*
X116771290Y-86356007D01*
X116771290Y-86643993D01*
X116881497Y-86910056D01*
X117085134Y-87113693D01*
X117351197Y-87223900D01*
X117639183Y-87223900D01*
X117905246Y-87113693D01*
X118061739Y-86957200D01*
X118561536Y-86957200D01*
X118561536Y-87035000D01*
X118591106Y-87183659D01*
X118675314Y-87309686D01*
X118801341Y-87393894D01*
X118950000Y-87423464D01*
X119850000Y-87423464D01*
X119998659Y-87393894D01*
X120124686Y-87309686D01*
X120208894Y-87183659D01*
X120238464Y-87035000D01*
X120238464Y-85765000D01*
X120208894Y-85616341D01*
X120124686Y-85490314D01*
X119998659Y-85406106D01*
X119850000Y-85376536D01*
X118950000Y-85376536D01*
X118801341Y-85406106D01*
X118675314Y-85490314D01*
X118591106Y-85616341D01*
X118561536Y-85765000D01*
X118561536Y-86042800D01*
X118061739Y-86042800D01*
X117905246Y-85886307D01*
X117639183Y-85776100D01*
X117351197Y-85776100D01*
X117085134Y-85886307D01*
X116881497Y-86089944D01*
X116771290Y-86356007D01*
X111786001Y-86356007D01*
X111786001Y-85781847D01*
X111499636Y-85090500D01*
X110970502Y-84561366D01*
X110279155Y-84275001D01*
X109530847Y-84275001D01*
X108839500Y-84561366D01*
X108310366Y-85090500D01*
X108024001Y-85781847D01*
X107917375Y-85781847D01*
X107942575Y-85582369D01*
X108136872Y-85091630D01*
X108447103Y-84664634D01*
X108853779Y-84328203D01*
X109331340Y-84103480D01*
X109869957Y-84000733D01*
X109988760Y-83997000D01*
X112857024Y-83997000D01*
X112836536Y-84100000D01*
X112836536Y-84100000D01*
G37*
X112836536Y-84100000D02*
X112836536Y-84900000D01*
X112866106Y-85048659D01*
X112950314Y-85174686D01*
X113076341Y-85258894D01*
X113225000Y-85288464D01*
X114328511Y-85288464D01*
X114211673Y-85405301D01*
X114115000Y-85638690D01*
X114115000Y-86114250D01*
X114273750Y-86273000D01*
X115073000Y-86273000D01*
X115073000Y-85288750D01*
X115327000Y-85288750D01*
X115327000Y-86273000D01*
X116126250Y-86273000D01*
X116285000Y-86114250D01*
X116285000Y-85638690D01*
X116188327Y-85405301D01*
X116009698Y-85226673D01*
X115776309Y-85130000D01*
X115485750Y-85130000D01*
X115327000Y-85288750D01*
X115073000Y-85288750D01*
X114953391Y-85169141D01*
X115033894Y-85048659D01*
X115063464Y-84900000D01*
X115063464Y-84100000D01*
X115042976Y-83997000D01*
X119557024Y-83997000D01*
X119536536Y-84100000D01*
X119536536Y-84900000D01*
X119566106Y-85048659D01*
X119650314Y-85174686D01*
X119776341Y-85258894D01*
X119925000Y-85288464D01*
X121375000Y-85288464D01*
X121523659Y-85258894D01*
X121649686Y-85174686D01*
X121733894Y-85048659D01*
X121763464Y-84900000D01*
X121763464Y-84100000D01*
X121742976Y-83997000D01*
X123023104Y-83997000D01*
X122831409Y-84188695D01*
X122644001Y-84641140D01*
X122644001Y-85130862D01*
X122831409Y-85583307D01*
X123177695Y-85929593D01*
X123630140Y-86117001D01*
X124119862Y-86117001D01*
X124572307Y-85929593D01*
X124918593Y-85583307D01*
X125106001Y-85130862D01*
X125106001Y-84641140D01*
X124918593Y-84188695D01*
X124726898Y-83997000D01*
X125563104Y-83997000D01*
X125371409Y-84188695D01*
X125184001Y-84641140D01*
X125184001Y-85130862D01*
X125371409Y-85583307D01*
X125717695Y-85929593D01*
X126170140Y-86117001D01*
X126659862Y-86117001D01*
X127112307Y-85929593D01*
X127458593Y-85583307D01*
X127646001Y-85130862D01*
X127646001Y-84641140D01*
X127458593Y-84188695D01*
X127266898Y-83997000D01*
X128103104Y-83997000D01*
X127911409Y-84188695D01*
X127724001Y-84641140D01*
X127724001Y-85130862D01*
X127911409Y-85583307D01*
X128257695Y-85929593D01*
X128710140Y-86117001D01*
X129199862Y-86117001D01*
X129652307Y-85929593D01*
X129998593Y-85583307D01*
X130186001Y-85130862D01*
X130186001Y-84641140D01*
X129998593Y-84188695D01*
X129806898Y-83997000D01*
X130643104Y-83997000D01*
X130451409Y-84188695D01*
X130264001Y-84641140D01*
X130264001Y-85130862D01*
X130451409Y-85583307D01*
X130797695Y-85929593D01*
X131250140Y-86117001D01*
X131739862Y-86117001D01*
X132192307Y-85929593D01*
X132538593Y-85583307D01*
X132726001Y-85130862D01*
X132726001Y-84641140D01*
X132538593Y-84188695D01*
X132346898Y-83997000D01*
X133183104Y-83997000D01*
X132991409Y-84188695D01*
X132804001Y-84641140D01*
X132804001Y-85130862D01*
X132991409Y-85583307D01*
X133337695Y-85929593D01*
X133790140Y-86117001D01*
X134279862Y-86117001D01*
X134732307Y-85929593D01*
X135078593Y-85583307D01*
X135266001Y-85130862D01*
X135266001Y-84641140D01*
X135078593Y-84188695D01*
X134886898Y-83997000D01*
X135723104Y-83997000D01*
X135531409Y-84188695D01*
X135344001Y-84641140D01*
X135344001Y-85130862D01*
X135531409Y-85583307D01*
X135877695Y-85929593D01*
X136330140Y-86117001D01*
X136819862Y-86117001D01*
X137272307Y-85929593D01*
X137618593Y-85583307D01*
X137806001Y-85130862D01*
X137806001Y-84641140D01*
X137618593Y-84188695D01*
X137426898Y-83997000D01*
X138263104Y-83997000D01*
X138071409Y-84188695D01*
X137884001Y-84641140D01*
X137884001Y-85130862D01*
X138071409Y-85583307D01*
X138417695Y-85929593D01*
X138870140Y-86117001D01*
X139359862Y-86117001D01*
X139812307Y-85929593D01*
X140158593Y-85583307D01*
X140346001Y-85130862D01*
X140346001Y-84641140D01*
X140158593Y-84188695D01*
X139966898Y-83997000D01*
X140803104Y-83997000D01*
X140611409Y-84188695D01*
X140424001Y-84641140D01*
X140424001Y-85130862D01*
X140611409Y-85583307D01*
X140957695Y-85929593D01*
X141410140Y-86117001D01*
X141899862Y-86117001D01*
X142352307Y-85929593D01*
X142698593Y-85583307D01*
X142886001Y-85130862D01*
X142886001Y-84641140D01*
X142698593Y-84188695D01*
X142506898Y-83997000D01*
X143343104Y-83997000D01*
X143151409Y-84188695D01*
X142964001Y-84641140D01*
X142964001Y-85130862D01*
X143151409Y-85583307D01*
X143497695Y-85929593D01*
X143950140Y-86117001D01*
X144439862Y-86117001D01*
X144892307Y-85929593D01*
X145238593Y-85583307D01*
X145426001Y-85130862D01*
X145426001Y-84641140D01*
X145238593Y-84188695D01*
X145046898Y-83997000D01*
X145883104Y-83997000D01*
X145691409Y-84188695D01*
X145504001Y-84641140D01*
X145504001Y-85130862D01*
X145691409Y-85583307D01*
X146037695Y-85929593D01*
X146490140Y-86117001D01*
X146979862Y-86117001D01*
X147432307Y-85929593D01*
X147778593Y-85583307D01*
X147966001Y-85130862D01*
X147966001Y-84641140D01*
X147778593Y-84188695D01*
X147586898Y-83997000D01*
X148423104Y-83997000D01*
X148231409Y-84188695D01*
X148044001Y-84641140D01*
X148044001Y-85130862D01*
X148231409Y-85583307D01*
X148577695Y-85929593D01*
X149030140Y-86117001D01*
X149519862Y-86117001D01*
X149972307Y-85929593D01*
X150318593Y-85583307D01*
X150506001Y-85130862D01*
X150506001Y-84641140D01*
X150318593Y-84188695D01*
X150126898Y-83997000D01*
X150963104Y-83997000D01*
X150771409Y-84188695D01*
X150584001Y-84641140D01*
X150584001Y-85130862D01*
X150771409Y-85583307D01*
X151117695Y-85929593D01*
X151357802Y-86029048D01*
X151357801Y-87263621D01*
X151067622Y-87553800D01*
X143197096Y-87553800D01*
X143152066Y-87544843D01*
X142973676Y-87580327D01*
X142822444Y-87681377D01*
X142796937Y-87719551D01*
X142202552Y-88313937D01*
X142164378Y-88339444D01*
X142138871Y-88377618D01*
X142138870Y-88377619D01*
X142063327Y-88490677D01*
X142045884Y-88578367D01*
X141880307Y-88743944D01*
X141770100Y-89010007D01*
X141770100Y-89297993D01*
X141880307Y-89564056D01*
X142083944Y-89767693D01*
X142350007Y-89877900D01*
X142637993Y-89877900D01*
X142904056Y-89767693D01*
X143107693Y-89564056D01*
X143217900Y-89297993D01*
X143217900Y-89010007D01*
X143107693Y-88743944D01*
X143086697Y-88722948D01*
X143341446Y-88468200D01*
X151211970Y-88468200D01*
X151257000Y-88477157D01*
X151302030Y-88468200D01*
X151435391Y-88441673D01*
X151586623Y-88340623D01*
X151612132Y-88302446D01*
X152106447Y-87808131D01*
X152144624Y-87782622D01*
X152245674Y-87631390D01*
X152272201Y-87498029D01*
X152272201Y-87498028D01*
X152281158Y-87452999D01*
X152272201Y-87407969D01*
X152272201Y-86029048D01*
X152512307Y-85929593D01*
X152610325Y-85831575D01*
X153994001Y-85831575D01*
X153994001Y-86480427D01*
X154242306Y-87079888D01*
X154701114Y-87538696D01*
X155300575Y-87787001D01*
X155949427Y-87787001D01*
X156548888Y-87538696D01*
X157007696Y-87079888D01*
X157256001Y-86480427D01*
X157256001Y-85831575D01*
X157007696Y-85232114D01*
X156548888Y-84773306D01*
X155949427Y-84525001D01*
X155300575Y-84525001D01*
X154701114Y-84773306D01*
X154242306Y-85232114D01*
X153994001Y-85831575D01*
X152610325Y-85831575D01*
X152858593Y-85583307D01*
X153046001Y-85130862D01*
X153046001Y-84641140D01*
X152858593Y-84188695D01*
X152666898Y-83997000D01*
X155674887Y-83997000D01*
X156225631Y-84066575D01*
X156716370Y-84260872D01*
X157143366Y-84571103D01*
X157479797Y-84977779D01*
X157704520Y-85455340D01*
X157807267Y-85993957D01*
X157811001Y-86112792D01*
X157811001Y-88892248D01*
X157799686Y-88875314D01*
X157673659Y-88791106D01*
X157525000Y-88761536D01*
X154125000Y-88761536D01*
X153976341Y-88791106D01*
X153850314Y-88875314D01*
X153766106Y-89001341D01*
X153736536Y-89150000D01*
X153736536Y-90650000D01*
X153766106Y-90798659D01*
X153850314Y-90924686D01*
X153976341Y-91008894D01*
X154125000Y-91038464D01*
X157525000Y-91038464D01*
X157673659Y-91008894D01*
X157799686Y-90924686D01*
X157811001Y-90907752D01*
X157811001Y-91461536D01*
X156037500Y-91461536D01*
X155888841Y-91491106D01*
X155762814Y-91575314D01*
X155678606Y-91701341D01*
X155649036Y-91850000D01*
X155649036Y-93050000D01*
X155678606Y-93198659D01*
X155762814Y-93324686D01*
X155888841Y-93408894D01*
X156037500Y-93438464D01*
X157811001Y-93438464D01*
X157811000Y-97061536D01*
X156037500Y-97061536D01*
X155888841Y-97091106D01*
X155762814Y-97175314D01*
X155678606Y-97301341D01*
X155649036Y-97450000D01*
X155649036Y-98650000D01*
X155678606Y-98798659D01*
X155762814Y-98924686D01*
X155888841Y-99008894D01*
X156037500Y-99038464D01*
X157811000Y-99038464D01*
X157811000Y-99592247D01*
X157799686Y-99575314D01*
X157673659Y-99491106D01*
X157525000Y-99461536D01*
X154125000Y-99461536D01*
X153976341Y-99491106D01*
X153850314Y-99575314D01*
X153766106Y-99701341D01*
X153736536Y-99850000D01*
X153736536Y-101350000D01*
X153766106Y-101498659D01*
X153850314Y-101624686D01*
X153976341Y-101708894D01*
X154125000Y-101738464D01*
X157525000Y-101738464D01*
X157673659Y-101708894D01*
X157799686Y-101624686D01*
X157811000Y-101607753D01*
X157811000Y-103858887D01*
X157741425Y-104409632D01*
X157547128Y-104900369D01*
X157236899Y-105327364D01*
X156830222Y-105663796D01*
X156352660Y-105888520D01*
X155814043Y-105991267D01*
X155695240Y-105995000D01*
X152766900Y-105995000D01*
X152858593Y-105903307D01*
X153046001Y-105450862D01*
X153046001Y-104961140D01*
X152858593Y-104508695D01*
X152512307Y-104162409D01*
X152059862Y-103975001D01*
X151570140Y-103975001D01*
X151117695Y-104162409D01*
X150771409Y-104508695D01*
X150584001Y-104961140D01*
X150584001Y-105450862D01*
X150771409Y-105903307D01*
X150863102Y-105995000D01*
X150226900Y-105995000D01*
X150318593Y-105903307D01*
X150506001Y-105450862D01*
X150506001Y-104961140D01*
X150318593Y-104508695D01*
X149972307Y-104162409D01*
X149732201Y-104062954D01*
X149732201Y-104048949D01*
X149741158Y-104003919D01*
X149720395Y-103899538D01*
X149705674Y-103825529D01*
X149682200Y-103790398D01*
X149682200Y-103611575D01*
X153994001Y-103611575D01*
X153994001Y-104260427D01*
X154242306Y-104859888D01*
X154701114Y-105318696D01*
X155300575Y-105567001D01*
X155949427Y-105567001D01*
X156548888Y-105318696D01*
X157007696Y-104859888D01*
X157256001Y-104260427D01*
X157256001Y-103611575D01*
X157007696Y-103012114D01*
X156548888Y-102553306D01*
X155949427Y-102305001D01*
X155300575Y-102305001D01*
X154701114Y-102553306D01*
X154242306Y-103012114D01*
X153994001Y-103611575D01*
X149682200Y-103611575D01*
X149682200Y-100629030D01*
X149691157Y-100584000D01*
X149655673Y-100405609D01*
X149638343Y-100379673D01*
X149554623Y-100254377D01*
X149516446Y-100228868D01*
X148945132Y-99657554D01*
X148919623Y-99619377D01*
X148768391Y-99518327D01*
X148635030Y-99491800D01*
X148590000Y-99482843D01*
X148544970Y-99491800D01*
X145981549Y-99491800D01*
X145831349Y-99341600D01*
X147705170Y-99341600D01*
X147750200Y-99350557D01*
X147795230Y-99341600D01*
X147928591Y-99315073D01*
X148079823Y-99214023D01*
X148105332Y-99175846D01*
X148173909Y-99107269D01*
X148176341Y-99108894D01*
X148325000Y-99138464D01*
X151825000Y-99138464D01*
X151973659Y-99108894D01*
X152099686Y-99024686D01*
X152183894Y-98898659D01*
X152213464Y-98750000D01*
X152213464Y-98008114D01*
X152783114Y-97438464D01*
X153837500Y-97438464D01*
X153986159Y-97408894D01*
X154112186Y-97324686D01*
X154196394Y-97198659D01*
X154225964Y-97050000D01*
X154225964Y-96450000D01*
X154196394Y-96301341D01*
X154162089Y-96250000D01*
X154196394Y-96198659D01*
X154225964Y-96050000D01*
X154225964Y-95450000D01*
X154196394Y-95301341D01*
X154166900Y-95257200D01*
X154633451Y-95257200D01*
X154789944Y-95413693D01*
X155056007Y-95523900D01*
X155343993Y-95523900D01*
X155610056Y-95413693D01*
X155813693Y-95210056D01*
X155923900Y-94943993D01*
X155923900Y-94656007D01*
X155813693Y-94389944D01*
X155610056Y-94186307D01*
X155343993Y-94076100D01*
X155056007Y-94076100D01*
X154789944Y-94186307D01*
X154633451Y-94342800D01*
X154403537Y-94342800D01*
X154472500Y-94176309D01*
X154472500Y-94035750D01*
X154313750Y-93877000D01*
X153189500Y-93877000D01*
X153189500Y-93897000D01*
X152935500Y-93897000D01*
X152935500Y-93877000D01*
X152915500Y-93877000D01*
X152915500Y-93623000D01*
X152935500Y-93623000D01*
X152935500Y-92973750D01*
X153189500Y-92973750D01*
X153189500Y-93623000D01*
X154313750Y-93623000D01*
X154472500Y-93464250D01*
X154472500Y-93323691D01*
X154375827Y-93090302D01*
X154197199Y-92911673D01*
X153963810Y-92815000D01*
X153348250Y-92815000D01*
X153189500Y-92973750D01*
X152935500Y-92973750D01*
X152776750Y-92815000D01*
X152460000Y-92815000D01*
X152460000Y-92535750D01*
X152301250Y-92377000D01*
X150202000Y-92377000D01*
X150202000Y-92397000D01*
X149948000Y-92397000D01*
X149948000Y-92377000D01*
X147848750Y-92377000D01*
X147690000Y-92535750D01*
X147690000Y-92876309D01*
X147786673Y-93109698D01*
X147965301Y-93288327D01*
X148198690Y-93385000D01*
X148207038Y-93385000D01*
X148176341Y-93391106D01*
X148050314Y-93475314D01*
X147966106Y-93601341D01*
X147936536Y-93750000D01*
X147936536Y-93857863D01*
X147842977Y-93920377D01*
X147817470Y-93958551D01*
X147415032Y-94360990D01*
X141339234Y-94360990D01*
X140615987Y-93637743D01*
X140590480Y-93599569D01*
X140552305Y-93574061D01*
X140439247Y-93498518D01*
X140260857Y-93463034D01*
X140215822Y-93471992D01*
X137713774Y-93471990D01*
X137668744Y-93463033D01*
X137490353Y-93498517D01*
X137396295Y-93561365D01*
X137339122Y-93599567D01*
X137313615Y-93637741D01*
X135968057Y-94983299D01*
X135660708Y-94983299D01*
X135615678Y-94974342D01*
X135503875Y-94996581D01*
X135437288Y-95009826D01*
X135286056Y-95110876D01*
X135260547Y-95149053D01*
X135159610Y-95249990D01*
X120227635Y-95249990D01*
X119562010Y-94584366D01*
X119562010Y-94118774D01*
X119570967Y-94073744D01*
X119535483Y-93895353D01*
X119459940Y-93782295D01*
X119434433Y-93744121D01*
X119396259Y-93718614D01*
X118693283Y-93015639D01*
X118617432Y-92902120D01*
X118579253Y-92876610D01*
X118457200Y-92754556D01*
X118457200Y-91745028D01*
X118466157Y-91699999D01*
X118450978Y-91623691D01*
X118430673Y-91521609D01*
X118375352Y-91438815D01*
X119923494Y-91438815D01*
X119928843Y-91488078D01*
X119952637Y-91531544D01*
X119991254Y-91562596D01*
X120038815Y-91576506D01*
X120088078Y-91571157D01*
X120798000Y-91348039D01*
X120798000Y-92475000D01*
X120807667Y-92523601D01*
X120835197Y-92564803D01*
X120876399Y-92592333D01*
X120925000Y-92602000D01*
X121125000Y-92602000D01*
X121173601Y-92592333D01*
X121214803Y-92564803D01*
X121242333Y-92523601D01*
X121252000Y-92475000D01*
X121252000Y-91352800D01*
X121958811Y-91595135D01*
X122029523Y-91598521D01*
X122074545Y-91577821D01*
X122108218Y-91541467D01*
X122125416Y-91494994D01*
X122123521Y-91445477D01*
X122102821Y-91400455D01*
X121614504Y-90726914D01*
X121883457Y-90820013D01*
X121915260Y-90826626D01*
X121964459Y-90820715D01*
X122007651Y-90796426D01*
X122038260Y-90757457D01*
X122051626Y-90709740D01*
X122045715Y-90660541D01*
X122021426Y-90617349D01*
X122016581Y-90611697D01*
X122211770Y-90546788D01*
X122211770Y-91670717D01*
X122221437Y-91719318D01*
X122248967Y-91760520D01*
X122290169Y-91788050D01*
X122338770Y-91797717D01*
X122538770Y-91797717D01*
X122587371Y-91788050D01*
X122628573Y-91760520D01*
X122656103Y-91719318D01*
X122665770Y-91670717D01*
X122665770Y-90543075D01*
X122785992Y-90580363D01*
X122785197Y-90581158D01*
X122765607Y-90606447D01*
X122749245Y-90653221D01*
X122752029Y-90702696D01*
X122773534Y-90747339D01*
X122810486Y-90780354D01*
X122857260Y-90796716D01*
X122906735Y-90793932D01*
X123314739Y-90688641D01*
X122775581Y-91366936D01*
X122748494Y-91434776D01*
X122753843Y-91484039D01*
X122777637Y-91527505D01*
X122816254Y-91558557D01*
X122863815Y-91572467D01*
X122913078Y-91567118D01*
X123623000Y-91344000D01*
X123623000Y-92470961D01*
X123632667Y-92519562D01*
X123660197Y-92560764D01*
X123701399Y-92588294D01*
X123750000Y-92597961D01*
X123950000Y-92597961D01*
X123998601Y-92588294D01*
X124039803Y-92560764D01*
X124067333Y-92519562D01*
X124077000Y-92470961D01*
X124077000Y-91623691D01*
X147690000Y-91623691D01*
X147690000Y-91964250D01*
X147848750Y-92123000D01*
X149948000Y-92123000D01*
X149948000Y-91273750D01*
X150202000Y-91273750D01*
X150202000Y-92123000D01*
X152301250Y-92123000D01*
X152460000Y-91964250D01*
X152460000Y-91623691D01*
X152363327Y-91390302D01*
X152184699Y-91211673D01*
X151951310Y-91115000D01*
X150360750Y-91115000D01*
X150202000Y-91273750D01*
X149948000Y-91273750D01*
X149789250Y-91115000D01*
X148198690Y-91115000D01*
X147965301Y-91211673D01*
X147786673Y-91390302D01*
X147690000Y-91623691D01*
X124077000Y-91623691D01*
X124077000Y-91348761D01*
X124783811Y-91591096D01*
X124854523Y-91594482D01*
X124899545Y-91573782D01*
X124933218Y-91537428D01*
X124950416Y-91490955D01*
X124948521Y-91441438D01*
X124927821Y-91396416D01*
X124415343Y-90689550D01*
X124716275Y-90772440D01*
X124743651Y-90776841D01*
X124792674Y-90769616D01*
X124835201Y-90744180D01*
X124864756Y-90704406D01*
X124876841Y-90656349D01*
X124869616Y-90607326D01*
X124844180Y-90564799D01*
X124407359Y-90081943D01*
X124611964Y-90146170D01*
X124643845Y-90151851D01*
X124692858Y-90144550D01*
X124735345Y-90119049D01*
X124764840Y-90079230D01*
X124776851Y-90031155D01*
X124769550Y-89982142D01*
X124744049Y-89939655D01*
X123969049Y-89085616D01*
X123923601Y-89053628D01*
X123875000Y-89043961D01*
X123826399Y-89053628D01*
X123785197Y-89081158D01*
X123265218Y-89601137D01*
X123247564Y-89568697D01*
X123017746Y-89292916D01*
X123113507Y-89321644D01*
X123138065Y-89326438D01*
X123187359Y-89321381D01*
X123230966Y-89297844D01*
X123262246Y-89259412D01*
X123276438Y-89211935D01*
X123271381Y-89162641D01*
X123247844Y-89119034D01*
X122561614Y-88289751D01*
X122509324Y-88252168D01*
X122460490Y-88243759D01*
X122412155Y-88254679D01*
X122371678Y-88283264D01*
X121607908Y-89087547D01*
X121575414Y-89150354D01*
X121575466Y-89199907D01*
X121594477Y-89245668D01*
X121629553Y-89280670D01*
X121675354Y-89299586D01*
X121724907Y-89299534D01*
X121869888Y-89270538D01*
X121578689Y-89617203D01*
X121148035Y-89094265D01*
X121098601Y-89057667D01*
X121050000Y-89048000D01*
X121001399Y-89057667D01*
X120960197Y-89085197D01*
X120160197Y-89885197D01*
X120142304Y-89907690D01*
X120124744Y-89954027D01*
X120126252Y-90003557D01*
X120146600Y-90048740D01*
X120182690Y-90082696D01*
X120229027Y-90100256D01*
X120278557Y-90098748D01*
X120497073Y-90048321D01*
X119960197Y-90585197D01*
X119940607Y-90610486D01*
X119924245Y-90657260D01*
X119927029Y-90706735D01*
X119948534Y-90751378D01*
X119985486Y-90784393D01*
X120032260Y-90800755D01*
X120081735Y-90797971D01*
X120489739Y-90692680D01*
X119950581Y-91370975D01*
X119923494Y-91438815D01*
X118375352Y-91438815D01*
X118329623Y-91370377D01*
X118291446Y-91344868D01*
X117955132Y-91008554D01*
X117929623Y-90970377D01*
X117778391Y-90869327D01*
X117645030Y-90842800D01*
X117600000Y-90833843D01*
X117554970Y-90842800D01*
X112845024Y-90842800D01*
X112799999Y-90833844D01*
X112754974Y-90842800D01*
X112754970Y-90842800D01*
X112621609Y-90869327D01*
X112470377Y-90970377D01*
X112444868Y-91008554D01*
X110408552Y-93044870D01*
X110370378Y-93070377D01*
X110344871Y-93108551D01*
X110344870Y-93108552D01*
X110269327Y-93221610D01*
X110233843Y-93400000D01*
X110242801Y-93445035D01*
X110242800Y-94733451D01*
X110086307Y-94889944D01*
X109976100Y-95156007D01*
X109976100Y-95443993D01*
X110086307Y-95710056D01*
X110289944Y-95913693D01*
X110556007Y-96023900D01*
X110777321Y-96023900D01*
X110794870Y-96041448D01*
X110820377Y-96079623D01*
X110858551Y-96105130D01*
X110971609Y-96180673D01*
X111149999Y-96216157D01*
X111195029Y-96207200D01*
X111275752Y-96207200D01*
X111227500Y-96323691D01*
X111227500Y-96464250D01*
X111386250Y-96623000D01*
X112510500Y-96623000D01*
X112510500Y-96603000D01*
X112764500Y-96603000D01*
X112764500Y-96623000D01*
X112784500Y-96623000D01*
X112784500Y-96877000D01*
X112764500Y-96877000D01*
X112764500Y-97526250D01*
X112923250Y-97685000D01*
X113240000Y-97685000D01*
X113240000Y-97964250D01*
X113398750Y-98123000D01*
X115498000Y-98123000D01*
X115498000Y-98103000D01*
X115752000Y-98103000D01*
X115752000Y-98123000D01*
X117851250Y-98123000D01*
X118010000Y-97964250D01*
X118010000Y-97623691D01*
X117913327Y-97390302D01*
X117734699Y-97211673D01*
X117501310Y-97115000D01*
X117492962Y-97115000D01*
X117523659Y-97108894D01*
X117649686Y-97024686D01*
X117733894Y-96898659D01*
X117763464Y-96750000D01*
X117763464Y-95750000D01*
X117733894Y-95601341D01*
X117649686Y-95475314D01*
X117523659Y-95391106D01*
X117375000Y-95361536D01*
X115366561Y-95361536D01*
X115303391Y-95319327D01*
X115170030Y-95292800D01*
X115125000Y-95283843D01*
X115079970Y-95292800D01*
X113765687Y-95292800D01*
X113737089Y-95250000D01*
X113765687Y-95207200D01*
X115079970Y-95207200D01*
X115125000Y-95216157D01*
X115170030Y-95207200D01*
X115303391Y-95180673D01*
X115366561Y-95138464D01*
X117375000Y-95138464D01*
X117523659Y-95108894D01*
X117649686Y-95024686D01*
X117728735Y-94906380D01*
X118115897Y-95293541D01*
X118165568Y-95367880D01*
X118203745Y-95393389D01*
X119418613Y-96608258D01*
X119444121Y-96646433D01*
X119482295Y-96671940D01*
X119595353Y-96747483D01*
X119773744Y-96782967D01*
X119818774Y-96774010D01*
X134696918Y-96774010D01*
X134548788Y-96803475D01*
X134380753Y-96915753D01*
X134352412Y-96958168D01*
X134042166Y-97268414D01*
X133999754Y-97296753D01*
X133971415Y-97339165D01*
X133971412Y-97339168D01*
X133887475Y-97464789D01*
X133848049Y-97663000D01*
X133858001Y-97713033D01*
X133858001Y-99260216D01*
X133767659Y-99199852D01*
X133619000Y-99170282D01*
X133426200Y-99170282D01*
X133426200Y-98737549D01*
X133582693Y-98581056D01*
X133692900Y-98314993D01*
X133692900Y-98027007D01*
X133582693Y-97760944D01*
X133379056Y-97557307D01*
X133112993Y-97447100D01*
X132825007Y-97447100D01*
X132558944Y-97557307D01*
X132355307Y-97760944D01*
X132245100Y-98027007D01*
X132245100Y-98314993D01*
X132355307Y-98581056D01*
X132511801Y-98737550D01*
X132511800Y-99170282D01*
X132319000Y-99170282D01*
X132170341Y-99199852D01*
X132044314Y-99284060D01*
X131960106Y-99410087D01*
X131930536Y-99558746D01*
X131930536Y-100258746D01*
X131960106Y-100407405D01*
X132044314Y-100533432D01*
X132170341Y-100617640D01*
X132319000Y-100647210D01*
X133619000Y-100647210D01*
X133767659Y-100617640D01*
X133858000Y-100557276D01*
X133858000Y-101160216D01*
X133767659Y-101099852D01*
X133619000Y-101070282D01*
X132319000Y-101070282D01*
X132170341Y-101099852D01*
X132044314Y-101184060D01*
X131960106Y-101310087D01*
X131930536Y-101458746D01*
X131930536Y-102158746D01*
X131945704Y-102235000D01*
X130878979Y-102235000D01*
X130894147Y-102158746D01*
X130894147Y-101158746D01*
X130864577Y-101010087D01*
X130780369Y-100884060D01*
X130654342Y-100799852D01*
X130623645Y-100793746D01*
X130631993Y-100793746D01*
X130865382Y-100697073D01*
X131044010Y-100518444D01*
X131140683Y-100285055D01*
X131140683Y-99944496D01*
X130981933Y-99785746D01*
X130007683Y-99785746D01*
X130007683Y-99805746D01*
X129753683Y-99805746D01*
X129753683Y-99785746D01*
X128779433Y-99785746D01*
X128620683Y-99944496D01*
X128620683Y-100285055D01*
X128717356Y-100518444D01*
X128895984Y-100697073D01*
X129006379Y-100742800D01*
X126638464Y-100742800D01*
X126638464Y-100650000D01*
X126608894Y-100501341D01*
X126524686Y-100375314D01*
X126398659Y-100291106D01*
X126250000Y-100261536D01*
X125150000Y-100261536D01*
X125001341Y-100291106D01*
X124875314Y-100375314D01*
X124791106Y-100501341D01*
X124761536Y-100650000D01*
X124761536Y-100742800D01*
X123038464Y-100742800D01*
X123038464Y-100650000D01*
X123008894Y-100501341D01*
X122924686Y-100375314D01*
X122798659Y-100291106D01*
X122650000Y-100261536D01*
X121550000Y-100261536D01*
X121401341Y-100291106D01*
X121275314Y-100375314D01*
X121191106Y-100501341D01*
X121161536Y-100650000D01*
X121161536Y-100742800D01*
X114466549Y-100742800D01*
X114310056Y-100586307D01*
X114043993Y-100476100D01*
X113756007Y-100476100D01*
X113489944Y-100586307D01*
X113286307Y-100789944D01*
X113176100Y-101056007D01*
X113176100Y-101343993D01*
X113286307Y-101610056D01*
X113489944Y-101813693D01*
X113756007Y-101923900D01*
X114043993Y-101923900D01*
X114310056Y-101813693D01*
X114466549Y-101657200D01*
X121161536Y-101657200D01*
X121161536Y-101750000D01*
X121191106Y-101898659D01*
X121275314Y-102024686D01*
X121401341Y-102108894D01*
X121550000Y-102138464D01*
X122650000Y-102138464D01*
X122798659Y-102108894D01*
X122924686Y-102024686D01*
X123008894Y-101898659D01*
X123038464Y-101750000D01*
X123038464Y-101657200D01*
X124761536Y-101657200D01*
X124761536Y-101750000D01*
X124791106Y-101898659D01*
X124875314Y-102024686D01*
X125001341Y-102108894D01*
X125150000Y-102138464D01*
X126250000Y-102138464D01*
X126398659Y-102108894D01*
X126524686Y-102024686D01*
X126608894Y-101898659D01*
X126638464Y-101750000D01*
X126638464Y-101657200D01*
X128867219Y-101657200D01*
X128867219Y-102158746D01*
X128882387Y-102235000D01*
X116763027Y-102235000D01*
X116712999Y-102225049D01*
X116662971Y-102235000D01*
X113453420Y-102235000D01*
X113108000Y-101889580D01*
X113108000Y-99490245D01*
X113115999Y-99450031D01*
X113115999Y-99450029D01*
X113125950Y-99400001D01*
X113115999Y-99349973D01*
X113115999Y-99058026D01*
X113125950Y-99007998D01*
X113115999Y-98957968D01*
X113115999Y-98957967D01*
X113086524Y-98809787D01*
X113079348Y-98799048D01*
X113002587Y-98684166D01*
X113002585Y-98684164D01*
X112989000Y-98663833D01*
X112989000Y-98535750D01*
X113240000Y-98535750D01*
X113240000Y-98876309D01*
X113336673Y-99109698D01*
X113515301Y-99288327D01*
X113748690Y-99385000D01*
X115339250Y-99385000D01*
X115498000Y-99226250D01*
X115498000Y-98377000D01*
X115752000Y-98377000D01*
X115752000Y-99226250D01*
X115910750Y-99385000D01*
X117501310Y-99385000D01*
X117734699Y-99288327D01*
X117913327Y-99109698D01*
X118010000Y-98876309D01*
X118010000Y-98535750D01*
X117851250Y-98377000D01*
X115752000Y-98377000D01*
X115498000Y-98377000D01*
X113398750Y-98377000D01*
X113240000Y-98535750D01*
X112989000Y-98535750D01*
X112989000Y-98323167D01*
X112961182Y-98256007D01*
X119476100Y-98256007D01*
X119476100Y-98543993D01*
X119586307Y-98810056D01*
X119789944Y-99013693D01*
X120056007Y-99123900D01*
X120343993Y-99123900D01*
X120610056Y-99013693D01*
X120766549Y-98857200D01*
X121161536Y-98857200D01*
X121161536Y-98950000D01*
X121191106Y-99098659D01*
X121275314Y-99224686D01*
X121401341Y-99308894D01*
X121550000Y-99338464D01*
X122650000Y-99338464D01*
X122798659Y-99308894D01*
X122924686Y-99224686D01*
X123008894Y-99098659D01*
X123038464Y-98950000D01*
X123038464Y-97951197D01*
X123271290Y-97951197D01*
X123271290Y-98239183D01*
X123381497Y-98505246D01*
X123585134Y-98708883D01*
X123851197Y-98819090D01*
X124104274Y-98819090D01*
X124121609Y-98830673D01*
X124254970Y-98857200D01*
X124299999Y-98866157D01*
X124345028Y-98857200D01*
X124761536Y-98857200D01*
X124761536Y-98950000D01*
X124791106Y-99098659D01*
X124875314Y-99224686D01*
X125001341Y-99308894D01*
X125150000Y-99338464D01*
X126250000Y-99338464D01*
X126398659Y-99308894D01*
X126524686Y-99224686D01*
X126608894Y-99098659D01*
X126622066Y-99032437D01*
X128620683Y-99032437D01*
X128620683Y-99372996D01*
X128779433Y-99531746D01*
X129753683Y-99531746D01*
X129753683Y-98682496D01*
X130007683Y-98682496D01*
X130007683Y-99531746D01*
X130981933Y-99531746D01*
X131140683Y-99372996D01*
X131140683Y-99032437D01*
X131044010Y-98799048D01*
X130865382Y-98620419D01*
X130631993Y-98523746D01*
X130166433Y-98523746D01*
X130007683Y-98682496D01*
X129753683Y-98682496D01*
X129594933Y-98523746D01*
X129129373Y-98523746D01*
X128895984Y-98620419D01*
X128717356Y-98799048D01*
X128620683Y-99032437D01*
X126622066Y-99032437D01*
X126638464Y-98950000D01*
X126638464Y-97850000D01*
X126608894Y-97701341D01*
X126524686Y-97575314D01*
X126398659Y-97491106D01*
X126250000Y-97461536D01*
X125150000Y-97461536D01*
X125001341Y-97491106D01*
X124875314Y-97575314D01*
X124791106Y-97701341D01*
X124761536Y-97850000D01*
X124761536Y-97942800D01*
X124715612Y-97942800D01*
X124608883Y-97685134D01*
X124405246Y-97481497D01*
X124139183Y-97371290D01*
X123851197Y-97371290D01*
X123585134Y-97481497D01*
X123381497Y-97685134D01*
X123271290Y-97951197D01*
X123038464Y-97951197D01*
X123038464Y-97850000D01*
X123008894Y-97701341D01*
X122924686Y-97575314D01*
X122798659Y-97491106D01*
X122650000Y-97461536D01*
X121550000Y-97461536D01*
X121401341Y-97491106D01*
X121275314Y-97575314D01*
X121191106Y-97701341D01*
X121161536Y-97850000D01*
X121161536Y-97942800D01*
X120766549Y-97942800D01*
X120610056Y-97786307D01*
X120343993Y-97676100D01*
X120056007Y-97676100D01*
X119789944Y-97786307D01*
X119586307Y-97989944D01*
X119476100Y-98256007D01*
X112961182Y-98256007D01*
X112853658Y-97996422D01*
X112603578Y-97746342D01*
X112382133Y-97654617D01*
X112510500Y-97526250D01*
X112510500Y-96877000D01*
X111386250Y-96877000D01*
X111227500Y-97035750D01*
X111227500Y-97176309D01*
X111324173Y-97409698D01*
X111502801Y-97588327D01*
X111736190Y-97685000D01*
X111744515Y-97685000D01*
X111596422Y-97746342D01*
X111346342Y-97996422D01*
X111211000Y-98323167D01*
X111211000Y-98676833D01*
X111346342Y-99003578D01*
X111596422Y-99253658D01*
X111923167Y-99389000D01*
X112085828Y-99389000D01*
X112082049Y-99407999D01*
X112092001Y-99458032D01*
X112092000Y-102049968D01*
X112082048Y-102100000D01*
X112121475Y-102298212D01*
X112164098Y-102362001D01*
X112233753Y-102466247D01*
X112276168Y-102494588D01*
X112848412Y-103066832D01*
X112876753Y-103109247D01*
X113044788Y-103221525D01*
X113192968Y-103251000D01*
X113192971Y-103251000D01*
X113242999Y-103260951D01*
X113293027Y-103251000D01*
X115746996Y-103251000D01*
X115747001Y-103251027D01*
X115747001Y-104083996D01*
X115557695Y-104162409D01*
X115211409Y-104508695D01*
X115024001Y-104961140D01*
X115024001Y-105450862D01*
X115211409Y-105903307D01*
X115303102Y-105995000D01*
X114666900Y-105995000D01*
X114758593Y-105903307D01*
X114946001Y-105450862D01*
X114946001Y-104961140D01*
X114758593Y-104508695D01*
X114412307Y-104162409D01*
X113959862Y-103975001D01*
X113470140Y-103975001D01*
X113017695Y-104162409D01*
X112671409Y-104508695D01*
X112484001Y-104961140D01*
X112484001Y-105450862D01*
X112671409Y-105903307D01*
X112763102Y-105995000D01*
X110009113Y-105995000D01*
X109458368Y-105925425D01*
X108967631Y-105731128D01*
X108540636Y-105420899D01*
X108204204Y-105014222D01*
X107979480Y-104536660D01*
X107876733Y-103998043D01*
X107873000Y-103879240D01*
X107873000Y-103561847D01*
X108024001Y-103561847D01*
X108024001Y-104310155D01*
X108310366Y-105001502D01*
X108839500Y-105530636D01*
X109530847Y-105817001D01*
X110279155Y-105817001D01*
X110970502Y-105530636D01*
X111499636Y-105001502D01*
X111786001Y-104310155D01*
X111786001Y-103561847D01*
X111499636Y-102870500D01*
X110970502Y-102341366D01*
X110279155Y-102055001D01*
X109530847Y-102055001D01*
X108839500Y-102341366D01*
X108310366Y-102870500D01*
X108024001Y-103561847D01*
X107873000Y-103561847D01*
X107873000Y-101583807D01*
X107900314Y-101624686D01*
X108026341Y-101708894D01*
X108175000Y-101738464D01*
X111575000Y-101738464D01*
X111723659Y-101708894D01*
X111849686Y-101624686D01*
X111933894Y-101498659D01*
X111963464Y-101350000D01*
X111963464Y-99850000D01*
X111933894Y-99701341D01*
X111849686Y-99575314D01*
X111723659Y-99491106D01*
X111575000Y-99461536D01*
X108175000Y-99461536D01*
X108026341Y-99491106D01*
X107900314Y-99575314D01*
X107873000Y-99616193D01*
X107873000Y-99038464D01*
X109662500Y-99038464D01*
X109811159Y-99008894D01*
X109937186Y-98924686D01*
X110021394Y-98798659D01*
X110050964Y-98650000D01*
X110050964Y-97450000D01*
X110021394Y-97301341D01*
X109937186Y-97175314D01*
X109811159Y-97091106D01*
X109662500Y-97061536D01*
X107873000Y-97061536D01*
X107873000Y-93438464D01*
X109662500Y-93438464D01*
X109811159Y-93408894D01*
X109937186Y-93324686D01*
X110021394Y-93198659D01*
X110050964Y-93050000D01*
X110050964Y-91850000D01*
X110021394Y-91701341D01*
X109937186Y-91575314D01*
X109811159Y-91491106D01*
X109662500Y-91461536D01*
X107873000Y-91461536D01*
X107873000Y-90883807D01*
X107900314Y-90924686D01*
X108026341Y-91008894D01*
X108175000Y-91038464D01*
X111575000Y-91038464D01*
X111723659Y-91008894D01*
X111849686Y-90924686D01*
X111933894Y-90798659D01*
X111963464Y-90650000D01*
X111963464Y-89150000D01*
X111933894Y-89001341D01*
X111849686Y-88875314D01*
X111723659Y-88791106D01*
X111575000Y-88761536D01*
X108175000Y-88761536D01*
X108026341Y-88791106D01*
X107900314Y-88875314D01*
X107873000Y-88916193D01*
X107873000Y-86133113D01*
X107917375Y-85781847D01*
X108024001Y-85781847D01*
X108024001Y-86530155D01*
X108310366Y-87221502D01*
X108839500Y-87750636D01*
X109530847Y-88037001D01*
X110279155Y-88037001D01*
X110970502Y-87750636D01*
X111499636Y-87221502D01*
X111721551Y-86685750D01*
X114115000Y-86685750D01*
X114115000Y-87161310D01*
X114211673Y-87394699D01*
X114390302Y-87573327D01*
X114623691Y-87670000D01*
X114914250Y-87670000D01*
X115073000Y-87511250D01*
X115073000Y-86527000D01*
X115327000Y-86527000D01*
X115327000Y-87511250D01*
X115485750Y-87670000D01*
X115776309Y-87670000D01*
X116009698Y-87573327D01*
X116188327Y-87394699D01*
X116285000Y-87161310D01*
X116285000Y-86685750D01*
X116126250Y-86527000D01*
X115327000Y-86527000D01*
X115073000Y-86527000D01*
X114273750Y-86527000D01*
X114115000Y-86685750D01*
X111721551Y-86685750D01*
X111786001Y-86530155D01*
X111786001Y-86356007D01*
X116771290Y-86356007D01*
X116771290Y-86643993D01*
X116881497Y-86910056D01*
X117085134Y-87113693D01*
X117351197Y-87223900D01*
X117639183Y-87223900D01*
X117905246Y-87113693D01*
X118061739Y-86957200D01*
X118561536Y-86957200D01*
X118561536Y-87035000D01*
X118591106Y-87183659D01*
X118675314Y-87309686D01*
X118801341Y-87393894D01*
X118950000Y-87423464D01*
X119850000Y-87423464D01*
X119998659Y-87393894D01*
X120124686Y-87309686D01*
X120208894Y-87183659D01*
X120238464Y-87035000D01*
X120238464Y-85765000D01*
X120208894Y-85616341D01*
X120124686Y-85490314D01*
X119998659Y-85406106D01*
X119850000Y-85376536D01*
X118950000Y-85376536D01*
X118801341Y-85406106D01*
X118675314Y-85490314D01*
X118591106Y-85616341D01*
X118561536Y-85765000D01*
X118561536Y-86042800D01*
X118061739Y-86042800D01*
X117905246Y-85886307D01*
X117639183Y-85776100D01*
X117351197Y-85776100D01*
X117085134Y-85886307D01*
X116881497Y-86089944D01*
X116771290Y-86356007D01*
X111786001Y-86356007D01*
X111786001Y-85781847D01*
X111499636Y-85090500D01*
X110970502Y-84561366D01*
X110279155Y-84275001D01*
X109530847Y-84275001D01*
X108839500Y-84561366D01*
X108310366Y-85090500D01*
X108024001Y-85781847D01*
X107917375Y-85781847D01*
X107942575Y-85582369D01*
X108136872Y-85091630D01*
X108447103Y-84664634D01*
X108853779Y-84328203D01*
X109331340Y-84103480D01*
X109869957Y-84000733D01*
X109988760Y-83997000D01*
X112857024Y-83997000D01*
X112836536Y-84100000D01*
G36*
X135337307Y-97821944D02*
X135227100Y-98088007D01*
X135227100Y-98375993D01*
X135337307Y-98642056D01*
X135540944Y-98845693D01*
X135807007Y-98955900D01*
X136094993Y-98955900D01*
X136361056Y-98845693D01*
X136564693Y-98642056D01*
X136669429Y-98389200D01*
X137630630Y-98389200D01*
X137642314Y-98406686D01*
X137768341Y-98490894D01*
X137917000Y-98520464D01*
X138308886Y-98520464D01*
X140282870Y-100494449D01*
X140308377Y-100532623D01*
X140346551Y-100558130D01*
X140459609Y-100633673D01*
X140637999Y-100669157D01*
X140683029Y-100660200D01*
X143167792Y-100660200D01*
X143212822Y-100669157D01*
X143257852Y-100660200D01*
X143391213Y-100633673D01*
X143542445Y-100532623D01*
X143567954Y-100494446D01*
X144193449Y-99868952D01*
X144231623Y-99843445D01*
X144332673Y-99692213D01*
X144359200Y-99558852D01*
X144368157Y-99513822D01*
X144359200Y-99468792D01*
X144359200Y-99331621D01*
X144409370Y-99341600D01*
X144454400Y-99350557D01*
X144499430Y-99341600D01*
X144998651Y-99341600D01*
X144801307Y-99538944D01*
X144691100Y-99805007D01*
X144691100Y-100092993D01*
X144801307Y-100359056D01*
X145004944Y-100562693D01*
X145271007Y-100672900D01*
X145558993Y-100672900D01*
X145825056Y-100562693D01*
X145981549Y-100406200D01*
X146117512Y-100406200D01*
X146024601Y-100630506D01*
X146024601Y-100918492D01*
X146134808Y-101184555D01*
X146277802Y-101327549D01*
X146277801Y-104062954D01*
X146037695Y-104162409D01*
X145691409Y-104508695D01*
X145504001Y-104961140D01*
X145504001Y-105450862D01*
X145691409Y-105903307D01*
X145783102Y-105995000D01*
X145146900Y-105995000D01*
X145238593Y-105903307D01*
X145426001Y-105450862D01*
X145426001Y-104961140D01*
X145238593Y-104508695D01*
X144892307Y-104162409D01*
X144439862Y-103975001D01*
X143950140Y-103975001D01*
X143497695Y-104162409D01*
X143151409Y-104508695D01*
X142964001Y-104961140D01*
X142964001Y-105450862D01*
X143151409Y-105903307D01*
X143243102Y-105995000D01*
X142606900Y-105995000D01*
X142698593Y-105903307D01*
X142886001Y-105450862D01*
X142886001Y-104961140D01*
X142698593Y-104508695D01*
X142352307Y-104162409D01*
X141899862Y-103975001D01*
X141410140Y-103975001D01*
X140957695Y-104162409D01*
X140611409Y-104508695D01*
X140424001Y-104961140D01*
X140424001Y-105450862D01*
X140611409Y-105903307D01*
X140703102Y-105995000D01*
X140066900Y-105995000D01*
X140158593Y-105903307D01*
X140346001Y-105450862D01*
X140346001Y-104961140D01*
X140158593Y-104508695D01*
X139812307Y-104162409D01*
X139359862Y-103975001D01*
X138870140Y-103975001D01*
X138417695Y-104162409D01*
X138071409Y-104508695D01*
X137884001Y-104961140D01*
X137884001Y-105450862D01*
X138071409Y-105903307D01*
X138163102Y-105995000D01*
X137526900Y-105995000D01*
X137618593Y-105903307D01*
X137806001Y-105450862D01*
X137806001Y-104961140D01*
X137618593Y-104508695D01*
X137272307Y-104162409D01*
X136819862Y-103975001D01*
X136330140Y-103975001D01*
X135877695Y-104162409D01*
X135531409Y-104508695D01*
X135344001Y-104961140D01*
X135344001Y-105450862D01*
X135531409Y-105903307D01*
X135623102Y-105995000D01*
X134986900Y-105995000D01*
X135078593Y-105903307D01*
X135266001Y-105450862D01*
X135266001Y-104961140D01*
X135078593Y-104508695D01*
X134732307Y-104162409D01*
X134279862Y-103975001D01*
X133790140Y-103975001D01*
X133337695Y-104162409D01*
X132991409Y-104508695D01*
X132804001Y-104961140D01*
X132804001Y-105450862D01*
X132991409Y-105903307D01*
X133083102Y-105995000D01*
X132446900Y-105995000D01*
X132538593Y-105903307D01*
X132726001Y-105450862D01*
X132726001Y-104961140D01*
X132538593Y-104508695D01*
X132192307Y-104162409D01*
X131739862Y-103975001D01*
X131250140Y-103975001D01*
X130797695Y-104162409D01*
X130451409Y-104508695D01*
X130264001Y-104961140D01*
X130264001Y-105450862D01*
X130451409Y-105903307D01*
X130543102Y-105995000D01*
X129906900Y-105995000D01*
X129998593Y-105903307D01*
X130186001Y-105450862D01*
X130186001Y-104961140D01*
X129998593Y-104508695D01*
X129652307Y-104162409D01*
X129199862Y-103975001D01*
X128710140Y-103975001D01*
X128257695Y-104162409D01*
X127911409Y-104508695D01*
X127724001Y-104961140D01*
X127724001Y-105450862D01*
X127911409Y-105903307D01*
X128003102Y-105995000D01*
X127366900Y-105995000D01*
X127458593Y-105903307D01*
X127646001Y-105450862D01*
X127646001Y-104961140D01*
X127458593Y-104508695D01*
X127112307Y-104162409D01*
X126659862Y-103975001D01*
X126170140Y-103975001D01*
X125717695Y-104162409D01*
X125371409Y-104508695D01*
X125184001Y-104961140D01*
X125184001Y-105450862D01*
X125371409Y-105903307D01*
X125463102Y-105995000D01*
X124826900Y-105995000D01*
X124918593Y-105903307D01*
X125106001Y-105450862D01*
X125106001Y-104961140D01*
X124918593Y-104508695D01*
X124572307Y-104162409D01*
X124119862Y-103975001D01*
X123630140Y-103975001D01*
X123177695Y-104162409D01*
X122831409Y-104508695D01*
X122748806Y-104708117D01*
X122630260Y-104421921D01*
X122378959Y-104341648D01*
X121514606Y-105206001D01*
X121528749Y-105220144D01*
X121349144Y-105399749D01*
X121335001Y-105385606D01*
X121320859Y-105399749D01*
X121141254Y-105220144D01*
X121155396Y-105206001D01*
X120291043Y-104341648D01*
X120039742Y-104421921D01*
X119929047Y-104727072D01*
X119838593Y-104508695D01*
X119492307Y-104162409D01*
X119491424Y-104162043D01*
X120470648Y-104162043D01*
X121335001Y-105026396D01*
X122199354Y-104162043D01*
X122119081Y-103910742D01*
X121563722Y-103709283D01*
X120973543Y-103735686D01*
X120550921Y-103910742D01*
X120470648Y-104162043D01*
X119491424Y-104162043D01*
X119039862Y-103975001D01*
X118550140Y-103975001D01*
X118097695Y-104162409D01*
X117751409Y-104508695D01*
X117564001Y-104961140D01*
X117564001Y-105450862D01*
X117751409Y-105903307D01*
X117843102Y-105995000D01*
X117206900Y-105995000D01*
X117298593Y-105903307D01*
X117486001Y-105450862D01*
X117486001Y-104961140D01*
X117298593Y-104508695D01*
X116952307Y-104162409D01*
X116763001Y-104083996D01*
X116763001Y-103411419D01*
X116923420Y-103251000D01*
X132588718Y-103251000D01*
X132638746Y-103260951D01*
X132688774Y-103251000D01*
X133934972Y-103251000D01*
X133985000Y-103260951D01*
X134035028Y-103251000D01*
X134035032Y-103251000D01*
X134183212Y-103221525D01*
X134351247Y-103109247D01*
X134379588Y-103066832D01*
X134689833Y-102756587D01*
X134732247Y-102728247D01*
X134844525Y-102560212D01*
X134874000Y-102412032D01*
X134874000Y-102412029D01*
X134883951Y-102362001D01*
X134874000Y-102311973D01*
X134874000Y-97873420D01*
X134957420Y-97790000D01*
X135369251Y-97790000D01*
X135337307Y-97821944D01*
X135337307Y-97821944D01*
G37*
X135337307Y-97821944D02*
X135227100Y-98088007D01*
X135227100Y-98375993D01*
X135337307Y-98642056D01*
X135540944Y-98845693D01*
X135807007Y-98955900D01*
X136094993Y-98955900D01*
X136361056Y-98845693D01*
X136564693Y-98642056D01*
X136669429Y-98389200D01*
X137630630Y-98389200D01*
X137642314Y-98406686D01*
X137768341Y-98490894D01*
X137917000Y-98520464D01*
X138308886Y-98520464D01*
X140282870Y-100494449D01*
X140308377Y-100532623D01*
X140346551Y-100558130D01*
X140459609Y-100633673D01*
X140637999Y-100669157D01*
X140683029Y-100660200D01*
X143167792Y-100660200D01*
X143212822Y-100669157D01*
X143257852Y-100660200D01*
X143391213Y-100633673D01*
X143542445Y-100532623D01*
X143567954Y-100494446D01*
X144193449Y-99868952D01*
X144231623Y-99843445D01*
X144332673Y-99692213D01*
X144359200Y-99558852D01*
X144368157Y-99513822D01*
X144359200Y-99468792D01*
X144359200Y-99331621D01*
X144409370Y-99341600D01*
X144454400Y-99350557D01*
X144499430Y-99341600D01*
X144998651Y-99341600D01*
X144801307Y-99538944D01*
X144691100Y-99805007D01*
X144691100Y-100092993D01*
X144801307Y-100359056D01*
X145004944Y-100562693D01*
X145271007Y-100672900D01*
X145558993Y-100672900D01*
X145825056Y-100562693D01*
X145981549Y-100406200D01*
X146117512Y-100406200D01*
X146024601Y-100630506D01*
X146024601Y-100918492D01*
X146134808Y-101184555D01*
X146277802Y-101327549D01*
X146277801Y-104062954D01*
X146037695Y-104162409D01*
X145691409Y-104508695D01*
X145504001Y-104961140D01*
X145504001Y-105450862D01*
X145691409Y-105903307D01*
X145783102Y-105995000D01*
X145146900Y-105995000D01*
X145238593Y-105903307D01*
X145426001Y-105450862D01*
X145426001Y-104961140D01*
X145238593Y-104508695D01*
X144892307Y-104162409D01*
X144439862Y-103975001D01*
X143950140Y-103975001D01*
X143497695Y-104162409D01*
X143151409Y-104508695D01*
X142964001Y-104961140D01*
X142964001Y-105450862D01*
X143151409Y-105903307D01*
X143243102Y-105995000D01*
X142606900Y-105995000D01*
X142698593Y-105903307D01*
X142886001Y-105450862D01*
X142886001Y-104961140D01*
X142698593Y-104508695D01*
X142352307Y-104162409D01*
X141899862Y-103975001D01*
X141410140Y-103975001D01*
X140957695Y-104162409D01*
X140611409Y-104508695D01*
X140424001Y-104961140D01*
X140424001Y-105450862D01*
X140611409Y-105903307D01*
X140703102Y-105995000D01*
X140066900Y-105995000D01*
X140158593Y-105903307D01*
X140346001Y-105450862D01*
X140346001Y-104961140D01*
X140158593Y-104508695D01*
X139812307Y-104162409D01*
X139359862Y-103975001D01*
X138870140Y-103975001D01*
X138417695Y-104162409D01*
X138071409Y-104508695D01*
X137884001Y-104961140D01*
X137884001Y-105450862D01*
X138071409Y-105903307D01*
X138163102Y-105995000D01*
X137526900Y-105995000D01*
X137618593Y-105903307D01*
X137806001Y-105450862D01*
X137806001Y-104961140D01*
X137618593Y-104508695D01*
X137272307Y-104162409D01*
X136819862Y-103975001D01*
X136330140Y-103975001D01*
X135877695Y-104162409D01*
X135531409Y-104508695D01*
X135344001Y-104961140D01*
X135344001Y-105450862D01*
X135531409Y-105903307D01*
X135623102Y-105995000D01*
X134986900Y-105995000D01*
X135078593Y-105903307D01*
X135266001Y-105450862D01*
X135266001Y-104961140D01*
X135078593Y-104508695D01*
X134732307Y-104162409D01*
X134279862Y-103975001D01*
X133790140Y-103975001D01*
X133337695Y-104162409D01*
X132991409Y-104508695D01*
X132804001Y-104961140D01*
X132804001Y-105450862D01*
X132991409Y-105903307D01*
X133083102Y-105995000D01*
X132446900Y-105995000D01*
X132538593Y-105903307D01*
X132726001Y-105450862D01*
X132726001Y-104961140D01*
X132538593Y-104508695D01*
X132192307Y-104162409D01*
X131739862Y-103975001D01*
X131250140Y-103975001D01*
X130797695Y-104162409D01*
X130451409Y-104508695D01*
X130264001Y-104961140D01*
X130264001Y-105450862D01*
X130451409Y-105903307D01*
X130543102Y-105995000D01*
X129906900Y-105995000D01*
X129998593Y-105903307D01*
X130186001Y-105450862D01*
X130186001Y-104961140D01*
X129998593Y-104508695D01*
X129652307Y-104162409D01*
X129199862Y-103975001D01*
X128710140Y-103975001D01*
X128257695Y-104162409D01*
X127911409Y-104508695D01*
X127724001Y-104961140D01*
X127724001Y-105450862D01*
X127911409Y-105903307D01*
X128003102Y-105995000D01*
X127366900Y-105995000D01*
X127458593Y-105903307D01*
X127646001Y-105450862D01*
X127646001Y-104961140D01*
X127458593Y-104508695D01*
X127112307Y-104162409D01*
X126659862Y-103975001D01*
X126170140Y-103975001D01*
X125717695Y-104162409D01*
X125371409Y-104508695D01*
X125184001Y-104961140D01*
X125184001Y-105450862D01*
X125371409Y-105903307D01*
X125463102Y-105995000D01*
X124826900Y-105995000D01*
X124918593Y-105903307D01*
X125106001Y-105450862D01*
X125106001Y-104961140D01*
X124918593Y-104508695D01*
X124572307Y-104162409D01*
X124119862Y-103975001D01*
X123630140Y-103975001D01*
X123177695Y-104162409D01*
X122831409Y-104508695D01*
X122748806Y-104708117D01*
X122630260Y-104421921D01*
X122378959Y-104341648D01*
X121514606Y-105206001D01*
X121528749Y-105220144D01*
X121349144Y-105399749D01*
X121335001Y-105385606D01*
X121320859Y-105399749D01*
X121141254Y-105220144D01*
X121155396Y-105206001D01*
X120291043Y-104341648D01*
X120039742Y-104421921D01*
X119929047Y-104727072D01*
X119838593Y-104508695D01*
X119492307Y-104162409D01*
X119491424Y-104162043D01*
X120470648Y-104162043D01*
X121335001Y-105026396D01*
X122199354Y-104162043D01*
X122119081Y-103910742D01*
X121563722Y-103709283D01*
X120973543Y-103735686D01*
X120550921Y-103910742D01*
X120470648Y-104162043D01*
X119491424Y-104162043D01*
X119039862Y-103975001D01*
X118550140Y-103975001D01*
X118097695Y-104162409D01*
X117751409Y-104508695D01*
X117564001Y-104961140D01*
X117564001Y-105450862D01*
X117751409Y-105903307D01*
X117843102Y-105995000D01*
X117206900Y-105995000D01*
X117298593Y-105903307D01*
X117486001Y-105450862D01*
X117486001Y-104961140D01*
X117298593Y-104508695D01*
X116952307Y-104162409D01*
X116763001Y-104083996D01*
X116763001Y-103411419D01*
X116923420Y-103251000D01*
X132588718Y-103251000D01*
X132638746Y-103260951D01*
X132688774Y-103251000D01*
X133934972Y-103251000D01*
X133985000Y-103260951D01*
X134035028Y-103251000D01*
X134035032Y-103251000D01*
X134183212Y-103221525D01*
X134351247Y-103109247D01*
X134379588Y-103066832D01*
X134689833Y-102756587D01*
X134732247Y-102728247D01*
X134844525Y-102560212D01*
X134874000Y-102412032D01*
X134874000Y-102412029D01*
X134883951Y-102362001D01*
X134874000Y-102311973D01*
X134874000Y-97873420D01*
X134957420Y-97790000D01*
X135369251Y-97790000D01*
X135337307Y-97821944D01*
G36*
X148767801Y-100773379D02*
X148767800Y-103908889D01*
X148758843Y-103953919D01*
X148767800Y-103998948D01*
X148783369Y-104077217D01*
X148577695Y-104162409D01*
X148231409Y-104508695D01*
X148044001Y-104961140D01*
X148044001Y-105450862D01*
X148231409Y-105903307D01*
X148323102Y-105995000D01*
X147686900Y-105995000D01*
X147778593Y-105903307D01*
X147966001Y-105450862D01*
X147966001Y-104961140D01*
X147778593Y-104508695D01*
X147432307Y-104162409D01*
X147192201Y-104062954D01*
X147192201Y-101354548D01*
X147362194Y-101184555D01*
X147472401Y-100918492D01*
X147472401Y-100630506D01*
X147379490Y-100406200D01*
X148400622Y-100406200D01*
X148767801Y-100773379D01*
X148767801Y-100773379D01*
G37*
X148767801Y-100773379D02*
X148767800Y-103908889D01*
X148758843Y-103953919D01*
X148767800Y-103998948D01*
X148783369Y-104077217D01*
X148577695Y-104162409D01*
X148231409Y-104508695D01*
X148044001Y-104961140D01*
X148044001Y-105450862D01*
X148231409Y-105903307D01*
X148323102Y-105995000D01*
X147686900Y-105995000D01*
X147778593Y-105903307D01*
X147966001Y-105450862D01*
X147966001Y-104961140D01*
X147778593Y-104508695D01*
X147432307Y-104162409D01*
X147192201Y-104062954D01*
X147192201Y-101354548D01*
X147362194Y-101184555D01*
X147472401Y-100918492D01*
X147472401Y-100630506D01*
X147379490Y-100406200D01*
X148400622Y-100406200D01*
X148767801Y-100773379D01*
G36*
X147936536Y-96008114D02*
X147936536Y-96750000D01*
X147966106Y-96898659D01*
X148050314Y-97024686D01*
X148176341Y-97108894D01*
X148325000Y-97138464D01*
X151789958Y-97138464D01*
X151566886Y-97361536D01*
X148325000Y-97361536D01*
X148176341Y-97391106D01*
X148050314Y-97475314D01*
X147966106Y-97601341D01*
X147936536Y-97750000D01*
X147936536Y-98051485D01*
X147560822Y-98427200D01*
X146801817Y-98427200D01*
X146900900Y-98187993D01*
X146900900Y-97900007D01*
X146790693Y-97633944D01*
X146587056Y-97430307D01*
X146320993Y-97320100D01*
X146033007Y-97320100D01*
X145766944Y-97430307D01*
X145610451Y-97586800D01*
X145459104Y-97586800D01*
X145679056Y-97495693D01*
X145882693Y-97292056D01*
X145992900Y-97025993D01*
X145992900Y-96738007D01*
X145882693Y-96471944D01*
X145679056Y-96268307D01*
X145412993Y-96158100D01*
X145125007Y-96158100D01*
X144858944Y-96268307D01*
X144702451Y-96424800D01*
X144672005Y-96424800D01*
X144690464Y-96332000D01*
X144690464Y-95832000D01*
X144660894Y-95683341D01*
X144591978Y-95580200D01*
X147508622Y-95580200D01*
X147936536Y-96008114D01*
X147936536Y-96008114D01*
G37*
X147936536Y-96008114D02*
X147936536Y-96750000D01*
X147966106Y-96898659D01*
X148050314Y-97024686D01*
X148176341Y-97108894D01*
X148325000Y-97138464D01*
X151789958Y-97138464D01*
X151566886Y-97361536D01*
X148325000Y-97361536D01*
X148176341Y-97391106D01*
X148050314Y-97475314D01*
X147966106Y-97601341D01*
X147936536Y-97750000D01*
X147936536Y-98051485D01*
X147560822Y-98427200D01*
X146801817Y-98427200D01*
X146900900Y-98187993D01*
X146900900Y-97900007D01*
X146790693Y-97633944D01*
X146587056Y-97430307D01*
X146320993Y-97320100D01*
X146033007Y-97320100D01*
X145766944Y-97430307D01*
X145610451Y-97586800D01*
X145459104Y-97586800D01*
X145679056Y-97495693D01*
X145882693Y-97292056D01*
X145992900Y-97025993D01*
X145992900Y-96738007D01*
X145882693Y-96471944D01*
X145679056Y-96268307D01*
X145412993Y-96158100D01*
X145125007Y-96158100D01*
X144858944Y-96268307D01*
X144702451Y-96424800D01*
X144672005Y-96424800D01*
X144690464Y-96332000D01*
X144690464Y-95832000D01*
X144660894Y-95683341D01*
X144591978Y-95580200D01*
X147508622Y-95580200D01*
X147936536Y-96008114D01*
M02*
