G04 #@! TF.GenerationSoftware,KiCad,Pcbnew,(5.0.0-rc2-dev-444-g2974a2c10)*
G04 #@! TF.CreationDate,2019-12-09T12:09:48-08:00*
G04 #@! TF.ProjectId,Stemma_Host_FeatherWing,5374656D6D615F486F73745F46656174,v02*
G04 #@! TF.SameCoordinates,Original*
G04 #@! TF.FileFunction,Paste,Top*
G04 #@! TF.FilePolarity,Positive*
%FSLAX46Y46*%
G04 Gerber Fmt 4.6, Leading zero omitted, Abs format (unit mm)*
G04 Created by KiCad (PCBNEW (5.0.0-rc2-dev-444-g2974a2c10)) date 12/09/19 12:09:48*
%MOMM*%
%LPD*%
G01*
G04 APERTURE LIST*
%ADD10R,0.650000X0.400000*%
%ADD11R,1.800000X1.200000*%
%ADD12R,1.550000X0.600000*%
%ADD13R,1.250000X1.000000*%
%ADD14R,1.300000X0.700000*%
%ADD15R,0.800000X0.500000*%
%ADD16R,0.800000X0.400000*%
%ADD17R,3.500000X1.000000*%
%ADD18R,3.400000X1.500000*%
%ADD19R,1.100000X1.100000*%
%ADD20R,0.900000X1.270000*%
%ADD21R,1.450000X0.800000*%
G04 APERTURE END LIST*
D10*
X138242000Y-96632000D03*
X138242000Y-97932000D03*
X140142000Y-97282000D03*
X138242000Y-97282000D03*
X140142000Y-97932000D03*
X140142000Y-96632000D03*
D11*
X108762500Y-98050000D03*
X108762500Y-92450000D03*
D12*
X112637500Y-96750000D03*
X112637500Y-95750000D03*
X112637500Y-94750000D03*
X112637500Y-93750000D03*
D11*
X156937500Y-92450000D03*
X156937500Y-98050000D03*
D12*
X153062500Y-93750000D03*
X153062500Y-94750000D03*
X153062500Y-95750000D03*
X153062500Y-96750000D03*
D13*
X129880683Y-99658746D03*
X129880683Y-101658746D03*
D14*
X132969000Y-99908746D03*
X132969000Y-101808746D03*
D15*
X143902000Y-98482000D03*
D16*
X143902000Y-97682000D03*
D15*
X143902000Y-96082000D03*
D16*
X143902000Y-96882000D03*
D15*
X142102000Y-98482000D03*
D16*
X142102000Y-96882000D03*
X142102000Y-97682000D03*
D15*
X142102000Y-96082000D03*
D17*
X115625000Y-92250000D03*
X115625000Y-94250000D03*
X115625000Y-96250000D03*
X115625000Y-98250000D03*
D18*
X109875000Y-89900000D03*
X109875000Y-100600000D03*
X155825000Y-89900000D03*
X155825000Y-100600000D03*
D17*
X150075000Y-92250000D03*
X150075000Y-94250000D03*
X150075000Y-96250000D03*
X150075000Y-98250000D03*
D19*
X122100000Y-98400000D03*
X122100000Y-101200000D03*
X125700000Y-101200000D03*
X125700000Y-98400000D03*
D20*
X119400000Y-86400000D03*
X115200000Y-86400000D03*
D21*
X113950000Y-84500000D03*
X120650000Y-84500000D03*
M02*
